<?xml version="1.0" encoding="UTF-8" standalone="no"?>
<!-- Created with Inkscape (http://www.inkscape.org/) -->

<svg
   xmlns:dc="http://purl.org/dc/elements/1.1/"
   xmlns:cc="http://creativecommons.org/ns#"
   xmlns:rdf="http://www.w3.org/1999/02/22-rdf-syntax-ns#"
   xmlns:svg="http://www.w3.org/2000/svg"
   xmlns="http://www.w3.org/2000/svg"
   xmlns:sodipodi="http://sodipodi.sourceforge.net/DTD/sodipodi-0.dtd"
   xmlns:inkscape="http://www.inkscape.org/namespaces/inkscape"
   version="1.1"
   id="svg815"
   width="179"
   height="185"
   viewBox="0 0 179 185"
   sodipodi:docname="cup.svg"
   inkscape:version="0.92.3 (2405546, 2018-03-11)">
  <metadata
     id="metadata821">
    <rdf:RDF>
      <cc:Work
         rdf:about="">
        <dc:format>image/svg+xml</dc:format>
        <dc:type
           rdf:resource="http://purl.org/dc/dcmitype/StillImage" />
        <dc:title></dc:title>
      </cc:Work>
    </rdf:RDF>
  </metadata>
  <defs
     id="defs819" />
  <sodipodi:namedview
     pagecolor="#ffffff"
     bordercolor="#666666"
     borderopacity="1"
     objecttolerance="10"
     gridtolerance="10"
     guidetolerance="10"
     inkscape:pageopacity="0"
     inkscape:pageshadow="2"
     inkscape:window-width="1366"
     inkscape:window-height="705"
     id="namedview817"
     showgrid="false"
     inkscape:zoom="2.9891892"
     inkscape:cx="89.5"
     inkscape:cy="92.5"
     inkscape:window-x="-8"
     inkscape:window-y="-8"
     inkscape:window-maximized="1"
     inkscape:current-layer="svg815" />
  <path
     style="fill:#000000"
     d="m 55.942819,151.57369 c -0.305486,-0.9625 -0.44831,-2.11206 -0.317388,-2.55458 0.313649,-1.06013 74.737869,-1.43822 74.737969,-0.37968 4e-5,0.44866 -0.46576,1.68616 -1.03511,2.75 -0.99395,1.8572 -2.46534,1.93426 -36.932614,1.93426 -33.309769,0 -35.937467,-0.12615 -36.452857,-1.75 z m 23.662396,-9.37507 C 66.592907,137.19771 57.01326,120.76766 56.252609,102.14658 l -0.258284,-6.322891 36.826308,-0.262466 36.826307,-0.262467 -0.53037,8.262464 c -1.23977,19.314 -10.71707,34.31027 -24.83016,39.28966 -6.075613,2.1436 -18.243079,1.82204 -24.681195,-0.65226 z m 18.352384,-14.50337 c 7.085351,-4.80825 9.088701,-8.80155 6.965201,-13.8838 -1.73072,-4.1422 -5.656992,-5.52998 -9.503127,-3.35897 -2.185429,1.23359 -2.965777,1.24333 -5.37993,0.0671 -4.046284,-1.97137 -7.435116,-0.76949 -9.390182,3.33032 -1.544156,3.23813 -1.542761,3.71229 0.02056,6.99061 1.58035,3.31403 9.549127,9.48314 12.249583,9.48314 0.64057,0 2.907622,-1.1828 5.037893,-2.62844 z m 23.948801,3.20326 c 0.87397,-1.33384 2.85038,-2.86488 4.39202,-3.4023 3.83796,-1.33792 9.90665,-7.61263 12.15864,-12.5714 3.80539,-8.37931 1.69657,-14.21518 -4.70292,-13.01463 -2.94868,0.55317 -3.37329,0.38686 -3.12277,-1.22313 0.51843,-3.331581 1.78778,-4.363361 5.36804,-4.363361 2.55488,0 4.3181,0.800193 6.44098,2.92308 2.47862,2.478611 2.92308,3.710971 2.92308,8.104771 0,11.89427 -11.91573,25.97215 -21.98321,25.97215 -3.01204,0 -3.03651,-0.0403 -1.47386,-2.42518 z M 88.37201,85.649173 C 92.695202,78.832208 92.456231,73.973594 87.27133,63.270792 82.511661,53.445766 81.383311,46.565441 83.672078,41.323689 l 1.528246,-3.5 0.08157,5.289838 c 0.09789,6.348009 2.652435,11.801986 8.668892,18.508173 8.834324,9.847097 6.514524,20.943885 -5.698659,27.259566 l -2.871582,1.484953 2.991461,-4.717046 z m 16.35376,-19.668385 c 2.25154,-6.420823 1.08671,-10.783786 -5.393759,-20.202826 -4.162638,-6.050187 -5.39986,-10.617329 -4.013857,-14.816957 1.063879,-3.223587 8.538266,-11.477704 9.511846,-10.504125 0.27678,0.27678 -0.38996,2.255189 -1.48165,4.396465 -3.11422,6.108358 -2.68528,14.072637 1.2281,22.802731 3.82389,8.530468 4.35922,15.584203 1.39505,18.381899 -1.81813,1.716022 -1.86675,1.71379 -1.24573,-0.05719 z"
     id="path825"
     inkscape:connector-curvature="0" />
</svg>
