<?xml version="1.0" encoding="UTF-8" standalone="no"?>
<!-- Created with Inkscape (http://www.inkscape.org/) -->

<svg
   xmlns:dc="http://purl.org/dc/elements/1.1/"
   xmlns:cc="http://creativecommons.org/ns#"
   xmlns:rdf="http://www.w3.org/1999/02/22-rdf-syntax-ns#"
   xmlns:svg="http://www.w3.org/2000/svg"
   xmlns="http://www.w3.org/2000/svg"
   xmlns:sodipodi="http://sodipodi.sourceforge.net/DTD/sodipodi-0.dtd"
   xmlns:inkscape="http://www.inkscape.org/namespaces/inkscape"
   version="1.1"
   id="svg1937"
   width="207"
   height="178"
   viewBox="0 0 207 178"
   sodipodi:docname="cup2.svg"
   inkscape:version="0.92.3 (2405546, 2018-03-11)">
  <metadata
     id="metadata1943">
    <rdf:RDF>
      <cc:Work
         rdf:about="">
        <dc:format>image/svg+xml</dc:format>
        <dc:type
           rdf:resource="http://purl.org/dc/dcmitype/StillImage" />
        <dc:title></dc:title>
      </cc:Work>
    </rdf:RDF>
  </metadata>
  <defs
     id="defs1941" />
  <sodipodi:namedview
     pagecolor="#ffffff"
     bordercolor="#666666"
     borderopacity="1"
     objecttolerance="10"
     gridtolerance="10"
     guidetolerance="10"
     inkscape:pageopacity="0"
     inkscape:pageshadow="2"
     inkscape:window-width="1366"
     inkscape:window-height="705"
     id="namedview1939"
     showgrid="false"
     inkscape:zoom="1.3258427"
     inkscape:cx="103.5"
     inkscape:cy="89"
     inkscape:window-x="-8"
     inkscape:window-y="-8"
     inkscape:window-maximized="1"
     inkscape:current-layer="svg1937" />
  <path
     style="fill:#000000"
     d="m 87.653379,152.35034 c -7.165656,-2.80186 -11.167658,-5.60784 -16.98799,-11.91103 -5.501794,-5.95823 -11.751557,-16.16286 -9.898846,-16.16286 0.57819,0 4.318776,0.8772 8.312412,1.94933 22.134046,5.9421 46.963805,4.9552 65.893755,-2.61906 2.17271,-0.86935 4.20996,-1.32105 4.52722,-1.00378 0.31727,0.31727 -1.07263,3.57771 -3.08866,7.24543 l -3.66551,6.66858 2.79717,-0.66538 c 6.47753,-1.54084 13.27758,-9.22158 14.02354,-15.83979 0.44164,-3.91819 0.18896,-4.65678 -2.24927,-6.57469 -3.58504,-2.81999 -3.88879,-2.75408 -5.02029,1.08936 -0.86638,2.94285 -1.77717,3.55552 -9.63724,6.48275 -16.25303,6.05292 -32.922751,7.63717 -50.319557,4.78225 -9.852381,-1.61683 -22.350663,-4.96566 -23.748163,-6.36316 -0.487115,-0.48712 -1.396293,-3.8667 -2.020396,-7.51019 -1.044439,-6.09739 -0.972928,-6.84402 0.89869,-9.38308 5.204176,-7.060049 36.54248,-11.348089 60.047506,-8.216339 11.89846,1.58532 22.08233,4.83716 24.408,7.793769 1.08682,1.38167 3.68503,3.27726 5.77379,4.21243 5.63743,2.52395 8.14057,6.25027 8.14057,12.11855 0,6.20521 -1.79639,10.49281 -6.65283,15.87888 -4.71711,5.23155 -10.31711,7.90319 -16.62659,7.93218 -4.03387,0.0185 -5.55446,0.6346 -9.74791,3.94933 -9.91205,7.83502 -24.374862,10.36339 -35.159401,6.14652 z M 117.51775,113.2293 c 21.65275,-2.89858 23.80837,-8.31107 4.63168,-11.62957 -6.56141,-1.13545 -13.40244,-1.40493 -26.809317,-1.05606 -18.669779,0.48581 -27.150455,1.93119 -30.341546,5.17116 -1.545523,1.56919 -1.524369,1.78323 0.310648,3.14319 6.110072,4.52828 33.748905,6.84241 52.208535,4.37128 z M 92.582034,81.776449 c 1.50376,-5.95094 0.614639,-10.82537 -3.254639,-17.84294 -4.606333,-8.354337 -5.055665,-14.785764 -1.540347,-22.047443 2.11918,-4.377641 8.331396,-10.627255 10.530909,-10.594304 0.664878,0.01 0.652361,0.272111 -0.03581,0.75 -4.955,3.440925 -5.633764,10.863977 -1.804539,19.734687 4.325682,10.0208 5.007732,14.61179 3.079515,20.7288 -0.916435,2.90727 -3.031303,6.85762 -4.699707,8.77857 l -3.033461,3.49263 z m 12.268906,2.45821 c 0.006,-0.25202 0.68095,-2.66723 1.5,-5.36714 2.15137,-7.09179 1.89416,-9.59772 -2.01083,-19.59107 -6.360422,-16.277127 -4.12175,-28.663522 6.6118,-36.582482 4.49887,-3.319166 5.58198,-3.030742 2.4768,0.659554 -1.42405,1.69239 -2.86966,4.19457 -3.21246,5.560401 -1.03959,4.142065 0.302,10.290578 3.13847,14.3836 8.57132,12.368433 7.09218,26.078427 -3.98661,36.951447 -2.4904,2.44414 -4.52313,4.2377 -4.51717,3.98569 z"
     id="path2490"
     inkscape:connector-curvature="0" />
</svg>
