<?xml version="1.0" encoding="UTF-8" standalone="no"?>
<!-- Created with Inkscape (http://www.inkscape.org/) -->

<svg
   xmlns:dc="http://purl.org/dc/elements/1.1/"
   xmlns:cc="http://creativecommons.org/ns#"
   xmlns:rdf="http://www.w3.org/1999/02/22-rdf-syntax-ns#"
   xmlns:svg="http://www.w3.org/2000/svg"
   xmlns="http://www.w3.org/2000/svg"
   xmlns:sodipodi="http://sodipodi.sourceforge.net/DTD/sodipodi-0.dtd"
   xmlns:inkscape="http://www.inkscape.org/namespaces/inkscape"
   version="1.1"
   id="svg2492"
   width="163"
   height="178"
   viewBox="0 0 163 178"
   sodipodi:docname="cup3.svg"
   inkscape:version="0.92.3 (2405546, 2018-03-11)">
  <metadata
     id="metadata2498">
    <rdf:RDF>
      <cc:Work
         rdf:about="">
        <dc:format>image/svg+xml</dc:format>
        <dc:type
           rdf:resource="http://purl.org/dc/dcmitype/StillImage" />
        <dc:title></dc:title>
      </cc:Work>
    </rdf:RDF>
  </metadata>
  <defs
     id="defs2496" />
  <sodipodi:namedview
     pagecolor="#ffffff"
     bordercolor="#666666"
     borderopacity="1"
     objecttolerance="10"
     gridtolerance="10"
     guidetolerance="10"
     inkscape:pageopacity="0"
     inkscape:pageshadow="2"
     inkscape:window-width="1366"
     inkscape:window-height="705"
     id="namedview2494"
     showgrid="false"
     inkscape:zoom="1.3258427"
     inkscape:cx="81.5"
     inkscape:cy="89"
     inkscape:window-x="-8"
     inkscape:window-y="-8"
     inkscape:window-maximized="1"
     inkscape:current-layer="svg2492" />
  <path
     style="fill:#000000"
     d="m 71.82018,154.90268 c -9.507172,-1.22584 -17.130332,-4.336 -20.759852,-8.4698 l -3.06033,-3.48552 V 115.93503 88.922704 l 3.87306,3.11247 c 7.83017,6.2925 25.906439,9.406896 41.126942,7.08585 8.28782,-1.26384 19.39429,-6.10377 21.03295,-9.16564 2.04485,-3.82084 12.21348,-1.69967 16.77893,3.50008 4.05895,4.62289 5.54718,9.665096 4.91393,16.648666 -0.98053,10.81346 -8.03349,22.21829 -15.61658,25.25244 -3.24559,1.29863 -3.97681,2.14097 -4.56081,5.25395 -1.40863,7.50868 -10.20031,12.42271 -25.703292,14.36662 -9.118001,1.1433 -8.562557,1.14559 -18.024948,-0.0745 z m 49.62443,-31.09205 c 8.45461,-9.87731 8.48631,-24.011227 0.0601,-26.792126 -2.05186,-0.67717 -4.06929,-0.8367 -4.54617,-0.35949 -0.67192,0.67239 -1.30877,19.349246 -1.00958,29.607936 0.0806,2.7633 1.6148,2.07757 5.49565,-2.45632 z M 73.964725,97.910704 c -13.670407,-1.38087 -24.964727,-7.32091 -24.964727,-13.12974 0,-4.68056 9.42077,-10.848224 18.880629,-12.360916 4.029724,-0.644379 4.274732,-0.550485 3.957519,1.516639 -0.267264,1.741636 -1.790974,2.69098 -7.268918,4.528875 -6.26677,2.102552 -9.56923,4.445172 -9.56923,6.787972 0,0.46988 1.07111,1.92543 2.38024,3.23456 4.97191,4.97191 21.812381,7.74548 34.069106,5.61106 20.100216,-3.5003 22.270216,-12.56091 3.982736,-16.629485 l -7.631415,-1.697829 2.107691,-2.10769 c 2.086884,-2.086884 2.174247,-2.090448 8.849667,-0.361005 9.412197,2.438477 14.652227,6.230087 15.045377,10.886629 0.26233,3.10709 -0.20387,4.01167 -3.44399,6.68245 -4.45521,3.67236 -10.778082,5.98573 -18.342212,6.71093 -3.034459,0.29092 -6.642198,0.65489 -8.017198,0.80883 -1.375,0.15393 -5.890874,-0.0626 -10.035275,-0.48128 z M 73.760064,76.162216 c 0.394615,-4.106844 -0.09089,-5.987709 -3.146728,-12.190653 -1.987335,-4.034017 -3.610828,-8.261584 -3.607758,-9.394595 0.0113,-4.183051 2.1874,-9.710216 5.152566,-13.087352 3.531086,-4.021686 5.659684,-4.650462 3.239611,-0.956965 -2.059479,3.143163 -1.390373,8.153298 2.086275,15.621619 3.065225,6.584526 3.221399,12.77401 0.465937,18.466035 -3.286072,6.788119 -4.745608,7.325239 -4.189903,1.541911 z m 9.641382,-1.645266 c 2.09003,-5.644327 1.827434,-11.129868 -0.840578,-17.559436 -5.319861,-12.820185 -4.274453,-23.160313 3.08568,-30.520445 4.17651,-4.176511 6.208827,-4.496091 3.26422,-0.513296 -3.215534,4.349241 -2.72267,9.441017 1.741001,17.986305 3.026958,5.794833 3.766925,8.277247 3.706819,12.435497 -0.09919,6.862185 -3.355814,13.229102 -9.294499,18.171375 l -2.40322,2 z"
     id="path3045"
     inkscape:connector-curvature="0" />
</svg>
