<?xml version="1.0" encoding="UTF-8" standalone="no"?>
<!-- Created with Inkscape (http://www.inkscape.org/) -->

<svg
   xmlns:dc="http://purl.org/dc/elements/1.1/"
   xmlns:cc="http://creativecommons.org/ns#"
   xmlns:rdf="http://www.w3.org/1999/02/22-rdf-syntax-ns#"
   xmlns:svg="http://www.w3.org/2000/svg"
   xmlns="http://www.w3.org/2000/svg"
   xmlns:sodipodi="http://sodipodi.sourceforge.net/DTD/sodipodi-0.dtd"
   xmlns:inkscape="http://www.inkscape.org/namespaces/inkscape"
   version="1.1"
   id="svg3660"
   width="106"
   height="141"
   viewBox="0 0 106 141"
   sodipodi:docname="cup4.svg"
   inkscape:version="0.92.3 (2405546, 2018-03-11)">
  <metadata
     id="metadata3666">
    <rdf:RDF>
      <cc:Work
         rdf:about="">
        <dc:format>image/svg+xml</dc:format>
        <dc:type
           rdf:resource="http://purl.org/dc/dcmitype/StillImage" />
        <dc:title></dc:title>
      </cc:Work>
    </rdf:RDF>
  </metadata>
  <defs
     id="defs3664" />
  <sodipodi:namedview
     pagecolor="#ffffff"
     bordercolor="#666666"
     borderopacity="1"
     objecttolerance="10"
     gridtolerance="10"
     guidetolerance="10"
     inkscape:pageopacity="0"
     inkscape:pageshadow="2"
     inkscape:window-width="1366"
     inkscape:window-height="705"
     id="namedview3662"
     showgrid="false"
     inkscape:zoom="1.6737589"
     inkscape:cx="53"
     inkscape:cy="70.5"
     inkscape:window-x="-8"
     inkscape:window-y="-8"
     inkscape:window-maximized="1"
     inkscape:current-layer="svg3660" />
  <path
     style="fill:#000000"
     d="m 10.706444,133.81573 c -0.49575,-0.92634 -0.9013599,-2.16384 -0.9013599,-2.75 0,-0.73537 11.6245099,-1.06574 37.5000009,-1.06574 29.3415,0 37.496669,0.27195 37.484687,1.25 -0.04551,3.71503 -0.780326,3.79409 -37.40763,4.02473 -32.655268,0.20563 -35.852928,0.0784 -36.675698,-1.45899 z m 27.180009,-8.40421 c -6.789381,-1.82539 -10.867438,-4.32545 -15.599569,-9.56335 -6.54794,-7.24779 -11.4818,-21.023593 -11.4818,-32.058273 v -5.7899 h 36.642894 36.642893 l -0.563257,7.75 C 82.024621,106.43009 71.72236,121.44228 56.271667,125.46668 c -7.15778,1.86436 -11.291831,1.85196 -18.385214,-0.0552 z M 74.805085,115.1743 c 0,-1.13613 4.397288,-5.17431 5.634453,-5.17431 0.553052,0 2.94778,-1.66248 5.321617,-3.69439 6.699168,-5.73424 10.932694,-16.774353 8.129834,-21.200843 -0.628722,-0.99293 -2.087483,-1.23376 -5.058985,-0.83519 -3.4363,0.4609 -4.073844,0.2951 -3.601217,-0.93655 0.315864,-0.82312 0.574298,-2.09903 0.574298,-2.83535 0,-0.73632 1.317155,-1.62805 2.927011,-1.98164 3.39606,-0.7459 8.471877,1.49227 10.043345,4.42858 1.632059,3.04953 1.159084,11.17353 -0.916701,15.7457 -2.57831,5.679023 -9.679907,13.212473 -14.553655,15.438673 -4.199257,1.9181 -8.5,2.447 -8.5,1.04532 z M 35.74049,64.669898 c 1.973684,-5.191181 1.214475,-9.85663 -2.939735,-18.065113 -4.203205,-8.305293 -4.799942,-12.168264 -2.923546,-18.925564 1.079621,-3.887944 6.687217,-10.944873 10.184209,-12.816406 1.684178,-0.901345 1.631697,-0.630146 -0.41375,2.138099 -3.261961,4.414638 -2.940588,10.557186 1.030389,19.694273 4.991222,11.484637 3.762382,21.601496 -3.446412,28.373806 l -2.555751,2.401003 z m 13.615622,-1.137779 c 2.367684,-5.666666 1.833579,-13.416274 -1.459551,-21.17741 -1.599688,-3.77009 -3.217734,-8.938538 -3.595658,-11.485439 -1.459277,-9.83435 3.3399,-21.3594966 10.784425,-25.8986217 3.739006,-2.279772 6.170159,-2.67485 3.061599,-0.49753 -3.10946,2.17795 -5.624567,9.2062917 -4.823169,13.4781077 0.36577,1.949724 2.169494,6.020812 4.008275,9.046863 7.928119,13.047173 6.758141,24.228081 -3.725349,35.601324 -4.885178,5.299793 -6.195383,5.587292 -4.250572,0.932706 z"
     id="path4213"
     inkscape:connector-curvature="0" />
</svg>
