<?xml version="1.0" encoding="UTF-8" standalone="no"?>
<!-- Created with Inkscape (http://www.inkscape.org/) -->

<svg
   xmlns:dc="http://purl.org/dc/elements/1.1/"
   xmlns:cc="http://creativecommons.org/ns#"
   xmlns:rdf="http://www.w3.org/1999/02/22-rdf-syntax-ns#"
   xmlns:svg="http://www.w3.org/2000/svg"
   xmlns="http://www.w3.org/2000/svg"
   xmlns:sodipodi="http://sodipodi.sourceforge.net/DTD/sodipodi-0.dtd"
   xmlns:inkscape="http://www.inkscape.org/namespaces/inkscape"
   version="1.1"
   id="svg4215"
   width="88"
   height="140"
   viewBox="0 0 88 140"
   sodipodi:docname="cup5.svg"
   inkscape:version="0.92.3 (2405546, 2018-03-11)">
  <metadata
     id="metadata4221">
    <rdf:RDF>
      <cc:Work
         rdf:about="">
        <dc:format>image/svg+xml</dc:format>
        <dc:type
           rdf:resource="http://purl.org/dc/dcmitype/StillImage" />
        <dc:title></dc:title>
      </cc:Work>
    </rdf:RDF>
  </metadata>
  <defs
     id="defs4219" />
  <sodipodi:namedview
     pagecolor="#ffffff"
     bordercolor="#666666"
     borderopacity="1"
     objecttolerance="10"
     gridtolerance="10"
     guidetolerance="10"
     inkscape:pageopacity="0"
     inkscape:pageshadow="2"
     inkscape:window-width="1366"
     inkscape:window-height="705"
     id="namedview4217"
     showgrid="false"
     inkscape:zoom="1.6857143"
     inkscape:cx="44"
     inkscape:cy="70"
     inkscape:window-x="-8"
     inkscape:window-y="-8"
     inkscape:window-maximized="1"
     inkscape:current-layer="svg4215" />
  <path
     style="fill:#000000"
     d="m 21.04146,136.8072 c -0.250701,-0.42532 -0.778973,-2.3483 -1.173939,-4.2733 -0.394965,-1.925 -2.024423,-6.2 -3.621017,-9.5 C 10.722725,111.61681 4.7627447,80.171328 5.5378447,66.533898 l 0.3126,-5.5 30.5000013,-0.279881 c 16.775,-0.153935 31.5125,-0.03286 32.75,0.269052 1.940188,0.473348 2.25,1.20246 2.25,5.295162 v 4.746229 l 4.994593,1.773922 c 5.880718,2.088646 7.88744,5.152399 8.731527,13.330816 1.022917,9.91111 -4.034148,22.886152 -11.080107,28.428512 -1.537343,1.20927 -4.728721,2.41662 -7.091952,2.68299 -4.098414,0.46195 -4.418596,0.74443 -6.935347,6.11875 -1.451211,3.09895 -2.991339,7.43445 -3.422507,9.63445 l -0.783941,4 -17.132717,0.2733 c -9.422994,0.15031 -17.337835,-0.0747 -17.588535,-0.5 z m 19.108646,-23.68402 c 8.051939,-4.20653 11.558129,-13.348612 7.225283,-18.839282 -4.242322,-5.37596 -14.033611,-2.55581 -18.173332,5.2344 -2.68687,5.056202 -2.368184,8.652872 1.071466,12.092522 3.23523,3.23523 5.82087,3.63116 9.876583,1.51236 z m -5.535631,-7.19392 c 4.139907,-5.8909 9.646624,-11.818042 10.337706,-11.126962 0.584563,0.58456 -4.943574,8.596472 -8.957178,12.981602 -4.018182,4.39013 -4.918821,3.18019 -1.380528,-1.85464 z M 70.2174,107.9924 c 3.825554,-3.21899 7.275903,-12.285622 7.275903,-19.119202 0,-6.44309 -1.436657,-9.3393 -4.632728,-9.3393 -1.962308,0 -2.512286,0.61413 -2.910515,3.25 -0.769939,5.09621 -3.479676,20.906772 -4.199001,24.500002 -0.794408,3.9683 0.372334,4.15338 4.466341,0.7085 z M 65.350446,69.033898 v -2.5 h -27.5 c -26.000001,0 -27.500001,0.1 -27.500001,1.833333 0,1.008334 0.3,2.133334 0.66667,2.5 0.36666,0.366667 12.741664,0.666667 27.499998,0.666667 H 65.350446 Z M 41.954728,49.695653 c 1.88058,-5.264969 1.745827,-6.547854 -1.769076,-16.842187 -3.007978,-8.809662 -3.103042,-9.544882 -1.918545,-14.837777 0.908244,-4.058462 2.267038,-6.641904 5.009959,-9.5253115 3.974831,-4.178416 8.115763,-5.800768 4.355657,-1.706479 -3.642008,3.9656955 -3.721387,7.7121455 -0.301166,14.2140915 6.221122,11.826542 6.118897,18.188346 -0.430079,26.76528 -4.665926,6.110778 -6.726769,6.91582 -4.94675,1.932383 z m -9.90799,-0.865424 c 0.452571,-3.430215 -0.02045,-5.308629 -2.570837,-10.209037 -4.783714,-9.191609 -4.114355,-16.361414 2.132046,-22.837294 3.759105,-3.897206 5.736665,-4.329336 2.815079,-0.615141 -2.574346,3.272751 -2.594559,6.618201 -0.07355,12.173132 4.730713,10.423901 4.596381,17.083496 -0.462446,22.926064 l -2.394909,2.765945 z"
     id="path4776"
     inkscape:connector-curvature="0" />
</svg>
