<?xml version="1.0" encoding="UTF-8" standalone="no"?>
<!-- Created with Inkscape (http://www.inkscape.org/) -->

<svg
   xmlns:dc="http://purl.org/dc/elements/1.1/"
   xmlns:cc="http://creativecommons.org/ns#"
   xmlns:rdf="http://www.w3.org/1999/02/22-rdf-syntax-ns#"
   xmlns:svg="http://www.w3.org/2000/svg"
   xmlns="http://www.w3.org/2000/svg"
   xmlns:sodipodi="http://sodipodi.sourceforge.net/DTD/sodipodi-0.dtd"
   xmlns:inkscape="http://www.inkscape.org/namespaces/inkscape"
   version="1.1"
   id="svg4778"
   width="99"
   height="146"
   viewBox="0 0 99 146"
   sodipodi:docname="cup6.svg"
   inkscape:version="0.92.3 (2405546, 2018-03-11)">
  <metadata
     id="metadata4784">
    <rdf:RDF>
      <cc:Work
         rdf:about="">
        <dc:format>image/svg+xml</dc:format>
        <dc:type
           rdf:resource="http://purl.org/dc/dcmitype/StillImage" />
        <dc:title></dc:title>
      </cc:Work>
    </rdf:RDF>
  </metadata>
  <defs
     id="defs4782" />
  <sodipodi:namedview
     pagecolor="#ffffff"
     bordercolor="#666666"
     borderopacity="1"
     objecttolerance="10"
     gridtolerance="10"
     guidetolerance="10"
     inkscape:pageopacity="0"
     inkscape:pageshadow="2"
     inkscape:window-width="1366"
     inkscape:window-height="705"
     id="namedview4780"
     showgrid="false"
     inkscape:zoom="1.6164384"
     inkscape:cx="49.5"
     inkscape:cy="73"
     inkscape:window-x="-8"
     inkscape:window-y="-8"
     inkscape:window-maximized="1"
     inkscape:current-layer="svg4778" />
  <path
     style="fill:#000000"
     d="m 30.820184,140.77211 c -9.55695,-1.27581 -17.14449,-4.38257 -20.75986,-8.50024 L 7.0000041,128.78635 V 101.77402 74.761686 l 3.8730599,3.112475 c 7.84296,6.302781 27.00034,9.558224 41.687593,7.084038 7.881639,-1.327726 18.923786,-6.270424 20.472289,-9.163828 2.044856,-3.820848 12.213484,-1.699675 16.778929,3.50008 4.058952,4.62289 5.547184,9.665094 4.913937,16.648664 -0.962199,10.611295 -7.609322,21.615315 -15.076491,24.958465 -3.274599,1.46608 -4.202739,2.56895 -5.54137,6.58456 -1.131992,3.39574 -2.626638,5.50507 -5.049423,7.12603 -7.760358,5.19207 -24.857184,7.94625 -38.238344,6.15994 z m 49.624423,-31.12249 c 8.454611,-9.877315 8.486318,-24.011232 0.0601,-26.792133 -2.05186,-0.677175 -4.069294,-0.836705 -4.546173,-0.359491 -0.67192,0.672392 -1.308766,19.349254 -1.009576,29.607944 0.08059,2.7633 1.614802,2.07757 5.495645,-2.45632 z M 32.964724,83.672236 C 19.441374,82.445225 8.0000041,76.463339 8.0000041,70.619946 c 0,-4.68056 9.4207699,-10.848224 18.8806199,-12.360916 4.02973,-0.644379 4.27473,-0.550485 3.95752,1.516639 -0.26726,1.741636 -1.79097,2.69098 -7.26891,4.528875 -6.26678,2.102557 -9.56923,4.445169 -9.56923,6.787972 0,0.469879 1.0711,1.925433 2.38024,3.234565 4.9719,4.971909 21.81237,7.745473 34.0691,5.611056 20.100213,-3.500301 22.270214,-12.560909 3.982736,-16.629486 l -7.631415,-1.697829 2.107691,-2.10769 c 2.086884,-2.086884 2.174247,-2.090448 8.849667,-0.361005 9.412202,2.438477 14.652228,6.230087 15.045378,10.886625 0.262628,3.110619 -0.203462,4.011337 -3.468316,6.702505 -6.977865,5.751746 -20.67263,8.365277 -36.370361,6.940979 z m -0.20466,-21.671038 c 0.39461,-4.106844 -0.0909,-5.987709 -3.14673,-12.190653 -1.98733,-4.034017 -3.61082,-8.261584 -3.60776,-9.394595 0.0113,-4.183051 2.1874,-9.710216 5.15257,-13.087352 3.76598,-4.289211 5.18955,-4.47692 3.16432,-0.417239 -1.83365,3.67563 -1.23482,7.787247 2.21261,15.192064 3.01273,6.47112 3.15349,12.698673 0.41489,18.355864 -3.28607,6.788119 -4.74561,7.325237 -4.1899,1.541911 z m 9.63487,-1.715236 c 2.10163,-5.429385 1.83301,-11.062157 -0.83407,-17.489466 -5.31986,-12.820185 -4.27445,-23.160313 3.08568,-30.520445 4.176514,-4.1765107 6.208831,-4.4960907 3.264224,-0.513296 -3.215534,4.349241 -2.722674,9.441017 1.741001,17.986305 3.030644,5.801889 3.766958,8.274956 3.706617,12.449448 -0.09968,6.896121 -4.141035,14.715602 -9.571232,18.519058 -1.98808,1.39251 -2.08649,1.362001 -1.39222,-0.431604 z"
     id="path5335"
     inkscape:connector-curvature="0" />
</svg>
