<?xml version="1.0" encoding="UTF-8" standalone="no"?>
<!-- Created with Inkscape (http://www.inkscape.org/) -->

<svg
   xmlns:dc="http://purl.org/dc/elements/1.1/"
   xmlns:cc="http://creativecommons.org/ns#"
   xmlns:rdf="http://www.w3.org/1999/02/22-rdf-syntax-ns#"
   xmlns:svg="http://www.w3.org/2000/svg"
   xmlns="http://www.w3.org/2000/svg"
   xmlns:sodipodi="http://sodipodi.sourceforge.net/DTD/sodipodi-0.dtd"
   xmlns:inkscape="http://www.inkscape.org/namespaces/inkscape"
   version="1.1"
   id="svg5337"
   width="63"
   height="143"
   viewBox="0 0 63 143"
   sodipodi:docname="cup7.svg"
   inkscape:version="0.92.3 (2405546, 2018-03-11)">
  <metadata
     id="metadata5343">
    <rdf:RDF>
      <cc:Work
         rdf:about="">
        <dc:format>image/svg+xml</dc:format>
        <dc:type
           rdf:resource="http://purl.org/dc/dcmitype/StillImage" />
        <dc:title></dc:title>
      </cc:Work>
    </rdf:RDF>
  </metadata>
  <defs
     id="defs5341" />
  <sodipodi:namedview
     pagecolor="#ffffff"
     bordercolor="#666666"
     borderopacity="1"
     objecttolerance="10"
     gridtolerance="10"
     guidetolerance="10"
     inkscape:pageopacity="0"
     inkscape:pageshadow="2"
     inkscape:window-width="1366"
     inkscape:window-height="705"
     id="namedview5339"
     showgrid="false"
     inkscape:zoom="1.6503497"
     inkscape:cx="31.5"
     inkscape:cy="71.5"
     inkscape:window-x="-8"
     inkscape:window-y="-8"
     inkscape:window-maximized="1"
     inkscape:current-layer="svg5337" />
  <path
     style="fill:#000000"
     d="M 13.525058,137.56779 C 13.100579,136.28047 5.9609873,73.303961 5.9860113,71.067796 c 0.01081,-0.966294 5.6881157,-1.25 25.0139887,-1.25 24.276369,0 25,0.0575 25,1.986421 0,1.092532 -1.575,15.755411 -3.5,32.584173 -1.925,16.82876 -3.5,31.45987 -3.5,32.51357 0,1.81492 -0.923422,1.91583 -17.531385,1.91583 -13.138616,0 -17.634661,-0.31321 -17.943557,-1.25 z m 24.513052,-28 C 52.689273,102.17964 47.436438,80.50962 30.979843,80.449652 14.706779,80.390352 9.4395433,102.2446 23.96189,109.56779 c 2.454039,1.2375 5.621189,2.25 7.03811,2.25 1.416921,0 4.584071,-1.0125 7.03811,-2.25 z m -13.863796,-6.06445 c -3.43601,-3.657458 -2.955533,-9.104325 1.166741,-13.226599 4.448589,-4.448589 8.044549,-5.30562 11.495998,-2.73986 5.30581,3.944266 3.729596,12.135411 -3.141387,16.324909 -4.20677,2.56503 -6.86904,2.46481 -9.521352,-0.35845 z m 8.394432,-8.650017 c 4.25615,-6.462636 1.915384,-4.840188 -3.111209,2.156459 -1.964259,2.73411 -2.86281,4.574568 -1.996781,4.089908 0.866028,-0.48465 3.164624,-3.295518 5.10799,-6.246367 z M 3.5381413,65.567796 c 0.383379,-1.7875 0.895692,-3.5875 1.138473,-4 0.242781,-0.4125 12.2836117,-0.75 26.7574027,-0.75 H 57.75 l 0.625,3.125 c 0.34375,1.71875 0.625,3.51875 0.625,4 0,0.48125 -12.635755,0.875 -28.079455,0.875 H 2.8410893 Z m 3.471663,-7.76832 c 1.042364,-1.947674 1.891937,-2.008928 24.2720277,-1.75 21.168717,0.244913 23.221208,0.420981 23.528336,2.01832 0.313095,1.628373 -1.373837,1.75 -24.272028,1.75 -24.3730857,0 -24.5981737,-0.01931 -23.5283357,-2.01832 z M 24.007985,46.174109 C 17.023863,38.219634 16.4119,32.334062 21.521519,22.260462 25.345913,14.72068 25.399385,12.387925 21.860252,7.4830644 20.00718,4.9149024 19.988106,4.7422443 21.657417,5.6470074 c 2.897698,1.570547 7.113304,6.4007116 8.278965,9.4858886 1.722545,4.559094 1.233361,10.306901 -1.436382,16.877179 -2.787688,6.860542 -3.008762,9.049839 -1.38438,13.709544 1.594555,4.574142 0.632946,4.714777 -3.107635,0.45449 z m 11.37724,-0.350386 C 31.954847,40.640072 31.770856,34.14744 34.881547,28.049984 37.461953,22.99197 37.618696,17.198165 35.25,14.430569 c -1.727789,-2.018757 -1.718694,-2.024836 0.716575,-0.478962 4.025414,2.555275 6.283162,6.409851 6.779393,11.574227 0.391184,4.071135 -0.0553,5.852845 -2.759409,11.011528 -2.876078,5.48675 -3.104124,6.50443 -2.101824,9.379629 1.641453,4.708676 0.653879,4.671826 -2.49951,-0.09327 z"
     id="path5892"
     inkscape:connector-curvature="0" />
</svg>
