<?xml version="1.0" encoding="UTF-8" standalone="no"?>
<!-- Created with Inkscape (http://www.inkscape.org/) -->

<svg
   xmlns:dc="http://purl.org/dc/elements/1.1/"
   xmlns:cc="http://creativecommons.org/ns#"
   xmlns:rdf="http://www.w3.org/1999/02/22-rdf-syntax-ns#"
   xmlns:svg="http://www.w3.org/2000/svg"
   xmlns="http://www.w3.org/2000/svg"
   xmlns:sodipodi="http://sodipodi.sourceforge.net/DTD/sodipodi-0.dtd"
   xmlns:inkscape="http://www.inkscape.org/namespaces/inkscape"
   version="1.1"
   id="svg7012"
   width="89"
   height="145"
   viewBox="0 0 89 145"
   sodipodi:docname="cup8.svg"
   inkscape:version="0.92.3 (2405546, 2018-03-11)">
  <metadata
     id="metadata7018">
    <rdf:RDF>
      <cc:Work
         rdf:about="">
        <dc:format>image/svg+xml</dc:format>
        <dc:type
           rdf:resource="http://purl.org/dc/dcmitype/StillImage" />
        <dc:title></dc:title>
      </cc:Work>
    </rdf:RDF>
  </metadata>
  <defs
     id="defs7016" />
  <sodipodi:namedview
     pagecolor="#ffffff"
     bordercolor="#666666"
     borderopacity="1"
     objecttolerance="10"
     gridtolerance="10"
     guidetolerance="10"
     inkscape:pageopacity="0"
     inkscape:pageshadow="2"
     inkscape:window-width="1366"
     inkscape:window-height="705"
     id="namedview7014"
     showgrid="false"
     inkscape:zoom="1.6275862"
     inkscape:cx="44.5"
     inkscape:cy="72.5"
     inkscape:window-x="-8"
     inkscape:window-y="-8"
     inkscape:window-maximized="1"
     inkscape:current-layer="svg7012" />
  <path
     style="fill:#000000"
     d="M 16.655228,131.59322 C 8.6637381,119.50798 5.4541081,110.03297 4.6717281,96.217292 l -0.58902,-10.40141 33.4014409,0.263669 33.401444,0.263669 0.313358,3.25 c 0.291864,3.027064 0.568133,3.25 4.027494,3.25 14.473167,0 14.695919,22.35078 0.323424,32.45215 -3.31028,2.32655 -5.471704,3.04752 -9.476341,3.16094 -5.163294,0.14624 -5.208474,0.17601 -9.512111,6.26692 l -4.324176,6.11999 H 37.504563 22.771885 Z m 56.344524,-12.98438 c 4.178364,-3.66865 6.392929,-8.18206 6.370528,-12.9835 -0.02192,-4.69923 -1.169045,-5.981788 -5.014277,-5.6063 -3.271619,0.31947 -3.351933,0.4477 -5.526964,8.82418 -1.213906,4.675 -2.537764,9.5125 -2.941906,10.75 -1.126899,3.45062 2.658055,2.92678 7.112619,-0.98438 z M 29.610016,78.09322 c 6.178753,-7.046942 6.228761,-13.514581 0.204148,-26.402804 -5.046301,-10.795361 -5.987549,-18.097318 -3.032043,-23.521824 1.534334,-2.816103 1.537451,-2.810134 0.949932,1.819368 -0.75286,5.932346 2.447714,13.304858 8.95831,20.635442 8.491477,9.560949 7.577227,18.946376 -2.560999,26.290469 -4.491302,3.253483 -6.885827,3.878348 -4.519348,1.179349 z M 48.32913,55.158961 c 2.547098,-5.266178 0.8972,-10.818019 -6.812251,-22.922945 -5.29465,-8.313348 -4.12861,-16.242106 3.212053,-21.841102 1.839994,-1.4034317 3.579263,-2.5516937 3.865042,-2.5516937 0.28578,0 -0.544196,2.1012651 -1.84439,4.6694777 -3.504048,6.921379 -3.194289,13.437945 1.136009,23.898837 4.041387,9.762956 4.457124,15.111355 1.443537,18.570901 -1.934554,2.220836 -1.993835,2.2313 -1,0.176525 z"
     id="path7569"
     inkscape:connector-curvature="0" />
</svg>
