<?xml version="1.0" encoding="UTF-8" standalone="no"?>
<!-- Created with Inkscape (http://www.inkscape.org/) -->

<svg
   xmlns:dc="http://purl.org/dc/elements/1.1/"
   xmlns:cc="http://creativecommons.org/ns#"
   xmlns:rdf="http://www.w3.org/1999/02/22-rdf-syntax-ns#"
   xmlns:svg="http://www.w3.org/2000/svg"
   xmlns="http://www.w3.org/2000/svg"
   xmlns:sodipodi="http://sodipodi.sourceforge.net/DTD/sodipodi-0.dtd"
   xmlns:inkscape="http://www.inkscape.org/namespaces/inkscape"
   version="1.1"
   id="svg6457"
   width="101"
   height="140"
   viewBox="0 0 101 140"
   sodipodi:docname="cupheart.svg"
   inkscape:version="0.92.3 (2405546, 2018-03-11)">
  <metadata
     id="metadata6463">
    <rdf:RDF>
      <cc:Work
         rdf:about="">
        <dc:format>image/svg+xml</dc:format>
        <dc:type
           rdf:resource="http://purl.org/dc/dcmitype/StillImage" />
        <dc:title></dc:title>
      </cc:Work>
    </rdf:RDF>
  </metadata>
  <defs
     id="defs6461" />
  <sodipodi:namedview
     pagecolor="#ffffff"
     bordercolor="#666666"
     borderopacity="1"
     objecttolerance="10"
     gridtolerance="10"
     guidetolerance="10"
     inkscape:pageopacity="0"
     inkscape:pageshadow="2"
     inkscape:window-width="1366"
     inkscape:window-height="705"
     id="namedview6459"
     showgrid="false"
     inkscape:zoom="1.6857143"
     inkscape:cx="-45.898305"
     inkscape:cy="70"
     inkscape:window-x="-8"
     inkscape:window-y="-8"
     inkscape:window-maximized="1"
     inkscape:current-layer="svg6457" />
  <path
     style="fill:#000000"
     d="m 7.9999961,135.45468 c 0,-0.50502 -0.27314,-1.63002 -0.60698,-2.5 -0.54687,-1.42511 3.1181799,-1.58179 36.9999899,-1.58179 20.68385,0 37.60699,0.25458 37.60699,0.56574 0,0.31116 -0.46583,1.43616 -1.03518,2.5 -0.994,1.8573 -2.4661,1.93426 -37,1.93426 -21.17423,0 -35.9648199,-0.37762 -35.9648199,-0.91821 z m 25.3962999,-9.44264 c -13.98789,-4.5735 -23.31405,-18.89084 -25.2325499,-38.736524 -0.4234,-4.379779 -0.55845,-8.174599 -0.30011,-8.432934 0.25833,-0.258336 16.8865399,-0.469701 36.9515599,-0.469701 h 36.48187 l -0.62487,8.25 c -1.37532,18.157969 -9.24281,31.975089 -21.61772,37.965679 -5.6011,2.71145 -19.38083,3.47593 -25.65818,1.42348 z m 16.76636,-15.6235 c 2.47805,-1.64139 5.34746,-4.54769 6.37647,-6.45845 1.77198,-3.29038 1.78228,-3.66001 0.1946,-6.989404 -2.01689,-4.229469 -5.8419,-5.584011 -9.66443,-3.42245 -2.24737,1.27084 -2.88959,1.27043 -5.1255,-0.003 -3.76656,-2.145663 -7.65974,-0.805606 -9.62352,3.31248 -1.39106,2.9171 -1.43434,3.855874 -0.30359,6.585754 1.38034,3.33242 9.34454,9.89224 12.06187,9.93492 0.8682,0.0136 3.60605,-1.31817 6.0841,-2.95956 z m 23.07887,3.95682 c 0.69216,-1.11514 3.16121,-2.95055 5.48678,-4.0787 7.02226,-3.40654 13.27169,-12.936884 13.27169,-20.239216 0,-4.420474 -2.01031,-6.06281 -6.41074,-5.237285 -3.35785,0.629935 -3.41659,0.583362 -2.69479,-2.136653 0.61556,-2.319689 1.35112,-2.832228 4.43733,-3.091922 3.00464,-0.25283 4.25997,0.249216 6.68383,2.673077 2.49249,2.492488 2.98276,3.77995 2.9746,7.811297 -0.0242,11.985392 -11.9863,26.326932 -21.95886,26.326932 -2.80924,0 -2.94961,-0.15902 -1.78984,-2.02753 z M 40.545936,68.122881 c 3.68229,-6.440285 3.29279,-11.624465 -1.63808,-21.802897 -4.74068,-9.785828 -5.8814,-16.688901 -3.62672,-21.947103 l 1.50077,-3.5 -0.0464,5 c -0.0532,5.733563 3.39304,13.46804 7.7974,17.5 3.30797,3.028273 6.41515,9.463764 6.4451,13.348871 0.0341,4.421195 -2.92662,9.601341 -7.29716,12.767344 -5.3879,3.902973 -5.9961,3.637918 -3.13494,-1.366215 z m 16.54959,-20.594172 c 1.56197,-4.48069 -0.0664,-9.843076 -5.35029,-17.619349 -4.6194,-6.798307 -5.95673,-11.312235 -4.67525,-15.780503 0.91831,-3.201965 5.06025,-8.1854727 8.23266,-9.9053917 1.64856,-0.8937651 1.62719,-0.633378 -0.25,3.046218 -3.21612,6.3041147 -2.806,14.5873577 1.16033,23.4355847 3.75973,8.387336 4.34421,15.538999 1.5022,18.381003 -1.71309,1.713092 -1.73799,1.650498 -0.61965,-1.557562 z"
     id="path7010"
     inkscape:connector-curvature="0" />
</svg>
