<?xml version="1.0" encoding="UTF-8" standalone="no"?>
<!-- Created with Inkscape (http://www.inkscape.org/) -->

<svg
   xmlns:dc="http://purl.org/dc/elements/1.1/"
   xmlns:cc="http://creativecommons.org/ns#"
   xmlns:rdf="http://www.w3.org/1999/02/22-rdf-syntax-ns#"
   xmlns:svg="http://www.w3.org/2000/svg"
   xmlns="http://www.w3.org/2000/svg"
   xmlns:sodipodi="http://sodipodi.sourceforge.net/DTD/sodipodi-0.dtd"
   xmlns:inkscape="http://www.inkscape.org/namespaces/inkscape"
   version="1.1"
   id="svg827"
   width="162"
   height="155"
   viewBox="0 0 162 155"
   sodipodi:docname="mag.svg"
   inkscape:version="0.92.3 (2405546, 2018-03-11)">
  <metadata
     id="metadata833">
    <rdf:RDF>
      <cc:Work
         rdf:about="">
        <dc:format>image/svg+xml</dc:format>
        <dc:type
           rdf:resource="http://purl.org/dc/dcmitype/StillImage" />
        <dc:title></dc:title>
      </cc:Work>
    </rdf:RDF>
  </metadata>
  <defs
     id="defs831" />
  <sodipodi:namedview
     pagecolor="#ffffff"
     bordercolor="#666666"
     borderopacity="1"
     objecttolerance="10"
     gridtolerance="10"
     guidetolerance="10"
     inkscape:pageopacity="0"
     inkscape:pageshadow="2"
     inkscape:window-width="1366"
     inkscape:window-height="705"
     id="namedview829"
     showgrid="false"
     inkscape:zoom="1.5225806"
     inkscape:cx="81"
     inkscape:cy="77.5"
     inkscape:window-x="-8"
     inkscape:window-y="-8"
     inkscape:window-maximized="1"
     inkscape:current-layer="svg827" />
  <path
     style="fill:#000000"
     d="m 62.957264,144.37712 c -0.42448,-1.28732 -7.56407,-64.263836 -7.53905,-66.500001 0.0108,-0.966294 5.68812,-1.25 25.013989,-1.25 19.317364,0 25.006817,0.284132 25.029957,1.25 0.0165,0.6875 -1.64847,16.212498 -3.69986,34.500001 l -3.729823,33.25 H 80.700955 c -12.978725,0 -17.435041,-0.31394 -17.743691,-1.25 z m 24.513053,-28 c 4.80304,-2.42203 8.96189,-8.80285 8.96189,-13.75 0,-4.191503 -4.17819,-11.269413 -7.92167,-13.419433 -13.419784,-7.707472 -28.899153,6.73533 -21.884943,20.419433 2.480946,4.84012 8.862492,9 13.806609,9 1.416921,0 4.584071,-1.0125 7.038114,-2.25 z m -13.8638,-6.06445 c -3.43601,-3.65747 -2.955533,-9.10433 1.166741,-13.226603 4.448589,-4.44859 8.044549,-5.30562 11.495998,-2.73986 5.305811,3.94426 3.729601,12.135413 -3.141387,16.324913 -4.20677,2.56503 -6.86904,2.46481 -9.521352,-0.35845 z m 8.394432,-8.65002 c 4.25615,-6.462643 1.915384,-4.840193 -3.111209,2.15646 -1.964259,2.7341 -2.86281,4.57456 -1.996781,4.08991 0.866028,-0.48465 3.164624,-3.29552 5.10799,-6.24637 z M 52.970344,72.377119 c 0.38338,-1.7875 0.89569,-3.5875 1.13847,-4 0.24278,-0.4125 12.28362,-0.75 26.757406,-0.75 h 26.31599 l 0.625,3.125 c 0.34375,1.71875 0.625,3.51875 0.625,4 0,0.48125 -12.635753,0.875 -28.079462,0.875 H 52.273294 Z m 3.47166,-7.76832 c 1.04237,-1.947674 1.89194,-2.008928 24.272031,-1.75 21.168725,0.244913 23.221215,0.420981 23.528345,2.01832 0.31309,1.628373 -1.37384,1.75 -24.272037,1.75 -24.373089,0 -24.598169,-0.01931 -23.528339,-2.01832 z M 73.440188,52.983432 c -6.984124,-7.954475 -7.596084,-13.840047 -2.486466,-23.913647 3.824394,-7.539782 3.877866,-9.872537 0.338733,-14.777399 -1.853072,-2.568161 -1.872146,-2.740819 -0.202835,-1.836056 2.897698,1.570546 7.113304,6.400712 8.278965,9.485889 1.720645,4.554065 1.249037,9.701947 -1.607892,17.551096 -2.438823,6.700441 -2.571923,7.774562 -1.472675,11.884525 0.664657,2.485081 1.028891,4.697906 0.809407,4.91739 -0.219483,0.219483 -1.86524,-1.270826 -3.657237,-3.311798 z m 11.45154,-0.23811 c -3.4079,-5.149684 -3.625218,-11.912933 -0.57491,-17.89203 2.577619,-5.05255 2.733139,-10.846904 0.365385,-13.6134 -1.727789,-2.018757 -1.718694,-2.024836 0.716575,-0.478962 4.025419,2.555275 6.283159,6.409851 6.779389,11.574227 0.38839,4.041981 -0.0564,5.858401 -2.65063,10.824491 -2.716689,5.200512 -2.9896,6.40879 -2.12344,9.401239 1.40146,4.841827 0.60828,4.900055 -2.512369,0.184435 z"
     id="path1380"
     inkscape:connector-curvature="0" />
</svg>
