<?xml version="1.0" encoding="UTF-8" standalone="no"?>
<!-- Created with Inkscape (http://www.inkscape.org/) -->

<svg
   xmlns:dc="http://purl.org/dc/elements/1.1/"
   xmlns:cc="http://creativecommons.org/ns#"
   xmlns:rdf="http://www.w3.org/1999/02/22-rdf-syntax-ns#"
   xmlns:svg="http://www.w3.org/2000/svg"
   xmlns="http://www.w3.org/2000/svg"
   xmlns:sodipodi="http://sodipodi.sourceforge.net/DTD/sodipodi-0.dtd"
   xmlns:inkscape="http://www.inkscape.org/namespaces/inkscape"
   version="1.1"
   id="svg5894"
   width="139"
   height="144"
   viewBox="0 0 139 144"
   sodipodi:docname="turka2.svg"
   inkscape:version="0.92.3 (2405546, 2018-03-11)">
  <metadata
     id="metadata5900">
    <rdf:RDF>
      <cc:Work
         rdf:about="">
        <dc:format>image/svg+xml</dc:format>
        <dc:type
           rdf:resource="http://purl.org/dc/dcmitype/StillImage" />
        <dc:title></dc:title>
      </cc:Work>
    </rdf:RDF>
  </metadata>
  <defs
     id="defs5898" />
  <sodipodi:namedview
     pagecolor="#ffffff"
     bordercolor="#666666"
     borderopacity="1"
     objecttolerance="10"
     gridtolerance="10"
     guidetolerance="10"
     inkscape:pageopacity="0"
     inkscape:pageshadow="2"
     inkscape:window-width="1366"
     inkscape:window-height="705"
     id="namedview5896"
     showgrid="false"
     inkscape:zoom="1.6388889"
     inkscape:cx="69.5"
     inkscape:cy="43.647706"
     inkscape:window-x="-8"
     inkscape:window-y="-8"
     inkscape:window-maximized="1"
     inkscape:current-layer="svg5894" />
  <path
     style="fill:#000000;stroke-width:1.00656307"
     d="m 15.067044,138.55196 c -9.1482135,-1.25548 -11.1815635,-2.374 -10.5147035,-5.784 0.28587,-1.46179 2.00302,-13.33932 3.815895,-26.39452 L 11.664371,82.636714 8.4630235,76.608824 c -1.760743,-3.31534 -3.201343,-6.64161 -3.201343,-7.39171 0,-4.17223 47.7406035,-4.83607 51.9518155,-0.7224 0.432726,0.4227 -0.404124,2.8716 -1.859667,5.442 l -2.646441,4.67346 h 7.459953 c 4.958215,0 8.180405,0.49806 9.608276,1.48518 1.763411,1.21909 7.658062,1.53263 32.900143,1.75 l 30.75182,0.26482 v 4 4 l -30.90166,0.24307 c -17.952514,0.14121 -31.750784,0.66049 -32.927999,1.23919 -1.114486,0.54787 -5.458296,1.11349 -9.652912,1.25693 l -7.626574,0.26081 2.954395,21.278116 c 1.624917,11.70296 2.681336,21.54762 2.347598,21.87702 -2.304388,2.27444 -31.29216,3.83213 -42.553384,2.28665 z M 44.521983,72.026034 c 3.482769,-0.31628 6.332308,-0.94884 6.332308,-1.40569 0,-2.02708 -37.318288,-2.51028 -39.345471,-0.50945 -1.037027,1.02355 0.726712,1.54478 8.03345,2.37411 7.276844,0.82593 11.732195,0.74407 24.979713,-0.45897 z M 23.901808,57.110174 c 2.04709,-5.23233 1.693965,-8.04544 -1.875725,-14.94267 -2.174463,-4.20142 -3.593207,-8.383854 -3.593207,-10.592717 0,-4.764575 3.70815,-11.571638 8.091285,-14.853199 l 3.488035,-2.611419 -2.243567,3.15437 c -2.943691,4.138716 -2.831193,8.04876 0.449571,15.625762 3.297276,7.615133 3.486908,13.758523 0.595337,19.286763 -2.396499,4.58175 -6.313363,8.51566 -4.911729,4.93311 z m 11.18601,0 c 1.947628,-5.14675 1.782236,-12.9859 -0.377722,-17.90304 -5.230564,-11.907357 -4.679136,-20.765705 1.728416,-27.765911 1.981502,-2.1647776 4.435443,-4.3758206 5.453202,-4.9134286 1.497312,-0.790921 1.368969,-0.277158 -0.672491,2.691999 -3.538717,5.1468126 -3.250935,9.2805896 1.191991,17.1220186 4.784661,8.444562 5.139177,15.639282 1.103558,22.396102 -3.024364,5.06369 -9.675515,11.67166 -8.426954,8.37226 z"
     id="path6455"
     inkscape:connector-curvature="0" />
</svg>
