<?xml version="1.0" encoding="UTF-8" standalone="no"?>
<!-- Created with Inkscape (http://www.inkscape.org/) -->

<svg
   xmlns:dc="http://purl.org/dc/elements/1.1/"
   xmlns:cc="http://creativecommons.org/ns#"
   xmlns:rdf="http://www.w3.org/1999/02/22-rdf-syntax-ns#"
   xmlns:svg="http://www.w3.org/2000/svg"
   xmlns="http://www.w3.org/2000/svg"
   xmlns:sodipodi="http://sodipodi.sourceforge.net/DTD/sodipodi-0.dtd"
   xmlns:inkscape="http://www.inkscape.org/namespaces/inkscape"
   version="1.1"
   id="svg1382"
   width="168"
   height="152"
   viewBox="0 0 168 152"
   sodipodi:docname="turka.svg"
   inkscape:version="0.92.3 (2405546, 2018-03-11)">
  <metadata
     id="metadata1388">
    <rdf:RDF>
      <cc:Work
         rdf:about="">
        <dc:format>image/svg+xml</dc:format>
        <dc:type
           rdf:resource="http://purl.org/dc/dcmitype/StillImage" />
        <dc:title></dc:title>
      </cc:Work>
    </rdf:RDF>
  </metadata>
  <defs
     id="defs1386" />
  <sodipodi:namedview
     pagecolor="#ffffff"
     bordercolor="#666666"
     borderopacity="1"
     objecttolerance="10"
     gridtolerance="10"
     guidetolerance="10"
     inkscape:pageopacity="0"
     inkscape:pageshadow="2"
     inkscape:window-width="1366"
     inkscape:window-height="705"
     id="namedview1384"
     showgrid="false"
     inkscape:zoom="1.5526316"
     inkscape:cx="84"
     inkscape:cy="76"
     inkscape:window-x="-8"
     inkscape:window-y="-8"
     inkscape:window-maximized="1"
     inkscape:current-layer="svg1382" />
  <path
     style="fill:#000000;stroke-width:0.99222177"
     d="m 36.974068,139.65065 c -8.846598,-1.26155 -10.812907,-2.38548 -10.168026,-5.81198 0.276441,-1.46886 1.936975,-13.40385 3.690078,-26.5222 l 3.187458,-23.851549 -3.095792,-6.057049 c -1.702693,-3.331376 -3.095801,-6.673737 -3.095801,-7.427468 0,-3.110033 29.271835,-4.852133 43.03805,-2.56139 3.463282,0.576302 6.655379,1.275059 7.093548,1.552792 0.438169,0.277734 -0.308605,2.741947 -1.6595,5.476031 l -2.456172,4.97106 h 7.146735 c 4.735253,0 7.847732,0.503563 9.224227,1.49237 1.705271,1.224984 7.405572,1.540045 31.815407,1.758465 l 29.73792,0.266096 v 4.019349 4.019353 l -30.33817,0.266041 c -18.25071,0.16004 -30.722779,0.660479 -31.303481,1.256046 -0.530915,0.544501 -4.538019,0.990006 -8.904675,0.990006 H 72.9465 l 2.890801,21.623607 c 1.589939,11.89298 2.62295,21.89831 2.295578,22.23407 -2.236206,2.29343 -30.243952,3.86286 -41.158811,2.30635 z M 65.457863,72.802913 c 3.367941,-0.317809 6.123529,-0.95343 6.123529,-1.41249 0,-2.036888 -36.087885,-2.522428 -38.048237,-0.511915 -1.002829,1.028499 0.702755,1.552254 7.768587,2.385593 7.036923,0.829928 11.345379,0.747671 24.156121,-0.461188 z M 45.517544,57.814895 c 1.979596,-5.257639 1.638114,-8.084355 -1.813882,-15.014949 -2.102769,-4.221744 -3.474736,-8.424409 -3.474736,-10.643957 0,-4.787622 3.58589,-11.627613 7.824511,-14.925048 l 3.373033,-2.624052 -2.169596,3.169629 c -2.846635,4.158736 -2.737847,8.087695 0.434749,15.701349 3.188563,7.651973 3.371943,13.825073 0.575709,19.380063 -2.317486,4.603908 -6.105209,8.556845 -4.749788,4.956965 z M 56.404895,57.312476 C 58.16376,50.444033 58.018589,44.705073 55.962546,39.825261 50.492162,26.84185 51.352039,18.537211 58.979964,10.683239 c 2.632651,-2.710669 5.11206,-4.5705154 5.509799,-4.1329922 0.397737,0.4375223 0.162765,1.0005317 -0.522161,1.2511311 -1.87914,0.6875368 -4.143385,5.8001341 -4.143385,9.3556431 0,1.733792 1.493687,5.938883 3.319305,9.344645 1.825618,3.405763 3.592237,7.795378 3.925822,9.7547 0.976522,5.735662 -1.742315,13.172763 -6.841618,18.714544 -3.698691,4.019633 -4.355585,4.421995 -3.822831,2.341566 z"
     id="path1935"
     inkscape:connector-curvature="0" />
</svg>
