<svg id="Слой_1" data-name="Слой 1" xmlns="http://www.w3.org/2000/svg" viewBox="0 0 694.44 842.67"><defs><style>.cls-1{fill:#fda362;}.cls-2{fill:#ed9659;}.cls-3{fill:#f2f25a;}.cls-4{fill:#371b17;}.cls-5{fill:#262677;}.cls-6{fill:#474593;}</style></defs><title>meditation</title><g id="g2269"><path id="path2283" class="cls-1" d="M513.06,848.16c-2.91-1.94-5.47-6.62-7.51-13.72-.38-1.34-1.71-2.11-3.65-2.11-2.59,0-10.36-2.09-32.21-8.65-3.29-1-5.28-.68-11.5,1.78-15.92,6.3-30.24,7.71-93.08,9.2-56.47,1.34-76.83-.3-104.51-8.44l-8.23-2.42-11.48,5.89c-20.71,10.63-24.1,11.65-38.6,11.66-7.08,0-12.87.44-12.87,1,0,1.73-5.33,6.87-7.12,6.87-2.72,0-7.12-5.57-7.12-9V837l-3.84,3.22a18.17,18.17,0,0,1-8.68,3.82c-4.19.52-5.24.16-7.8-2.66s-2.9-3.85-2.31-9.3A36.65,36.65,0,0,1,155.91,821c3.11-5.85,10-11.53,13.86-11.53a5.13,5.13,0,0,0,4-2.38c1.61-2.85,7.8-6.47,14.35-8.41l4.75-1.41-19.55-10.67c-49.21-26.85-87.11-58.47-97.72-81.54-3.25-7.06-3.11-14.81.35-19.33,11.82-15.45,60.08-26.36,139.71-31.6,9.94-.65,22.91-1.19,28.81-1.2h10.75l-1.71-2.68c-.94-1.47-1.7-5-1.7-7.8,0-7.66,3-9.39,16.4-9.39h10.48l-.4-3.7a22,22,0,0,1,1.36-8.29,140.19,140.19,0,0,0,4-14.68l2.22-10.09L279.79,549c-3.36-26-6.35-48.53-6.67-50.11-.42-2.14-2.8,3.21-9.28,20.88-26.66,72.69-47.06,115.46-58.06,121.71-2.82,1.6-3.59,1.61-6.23.09-4.21-2.42-6.27-4.73-18.64-20.85-6-7.81-14.16-17.82-18.15-22.23q-30-33.22-79.26-56.31L72.33,537l-4.16,2.25a23.49,23.49,0,0,1-9.92,2.27l-5.75,0v4.81c0,6.48-2.54,17.87-4.79,21.63-2.54,4.27-6.92,4.14-8.48-.25-1.34-3.79-.57-18.18,1.3-24.07,1.81-5.7.61-7.62-1.7-2.73-1.16,2.44-2.37,8.72-2.89,14.9-.5,5.88-1.47,11.43-2.16,12.34-2,2.62-6.3,2-9.38-1.44-2.45-2.69-2.75-3.86-2.31-8.91.28-3.2,2.32-10,4.53-15.12,3.66-8.48,3.79-9.15,1.54-7.54-1.37,1-4.89,7-7.83,13.33s-6,11.86-6.84,12.21c-4.21,1.77-7-3.49-7-13.24,0-11,4.28-18.82,14.31-26,3-2.12,5.39-4.17,5.38-4.55s-1.94-1.67-4.26-2.84c-5.95-3-7.34-7.16-5.61-16.79,1.67-9.34,5-17.14,8.53-20.23,3-2.64,9-3.12,12.67-1,2,1.11,2.15,1.07,1-.24-2.39-2.78-1.65-7.08,1.44-8.37,4.91-2.05,12.74-1.34,17.45,1.58,5.57,3.45,11,12.32,12.55,20.44.94,5,1.85,6.73,4.38,8.31a11.26,11.26,0,0,1,4.51,6.83c1.1,4.05,2,5.1,5.82,6.62,2.48,1,11.66,4.61,20.39,8C148.21,536.09,184,554,197.9,565.65c2.75,2.31,5.16,4.05,5.34,3.85.34-.38,2.32-12.92,8.67-55.06,10.93-72.54,20.16-112.09,32.58-139.6,8.9-19.73,11.28-21.87,45.33-40.77l28.65-15.9,1.8-5.72c1.1-3.48,2.06-11.68,2.45-20.89l.65-15.16L318,275c-2.95-.79-10.82-4.39-17.49-8-19.59-10.61-33.25-26.16-42.2-48-2.81-6.87-4.27-9.14-5.92-9.18-4.31-.12-9.91-4.27-13.32-9.87-6.06-10-8.6-29.61-5.73-44.33C235,147,237.58,144.43,243.79,145c5.55.49,4.93,1.86,6.92-15.25C254.17,100,263.91,66.15,274.8,46c8.15-15.08,19.59-27.45,30.1-32.56,16.17-7.87,41.48-7.59,59.94.66,15,6.71,35.27,25.54,44.7,41.56,12.14,20.64,22.62,52.46,26.89,81.69.68,4.67,1,5.14,3.12,4.38,6.6-2.37,10-2,13.06,1.3,4.28,4.7,5.48,11.17,4.95,26.6-.43,12.4-.75,14.06-4.23,21.63-4.06,8.84-7.4,12.28-13.18,13.58-3.49.78-3.79,1.29-6,9.81-6.13,24-16.67,38.6-38.38,53.09-7.65,5.11-20.48,10.29-28.49,11.5l-5.09.76.73,7.9c.42,4.53,1.67,9.56,2.92,11.79,3.25,5.76,13,15.13,20,19.14l6.12,3.52,4.15-4.43c5.17-5.52,9.64-8.11,12.55-7.27,2.57.74,5.29,7,5.29,12.13,0,3.19.59,3.73,6.84,6.21,10.7,4.25,26.12,12.69,32.39,17.71,6.61,5.3,9.69,11.34,13.77,27,2.86,11,8.33,39.4,8.33,43.27,0,1.31,1.36,3.06,3.16,4.09,5,2.85,8.89,8.71,8.89,13.46,0,2.3-1.72,9.24-3.83,15.43s-3.83,12-3.83,12.89,1.75,7.87,3.88,15.49,7.83,30,12.67,49.82,9.26,37.32,9.83,39l1,3,6.29-6c14.45-13.73,45.46-33.47,85.7-54.55l24.64-12.92.88-4.87a14,14,0,0,1,4.11-7.87,8.7,8.7,0,0,0,3.28-7c.2-17.17,16.11-31.64,28.9-26.3a4.07,4.07,0,0,1,2.81,3.67c0,2.9-8.51,13.32-13.85,16.94-9.42,6.41-2.81,18.34,11.12,20.07,3.69.45,5.09,0,8-2.69,1.93-1.79,3.51-4.24,3.51-5.45s-2.72-5.84-6-10.28-6-8.48-6-9a14,14,0,0,1,2.27-4.06c2.91-4.07,9.54-4.38,14.29-.67,4.94,3.87,10.78,18.36,10.81,26.81,0,3.62-5.42,10.42-8.32,10.42s-1.46,2.23,3.21,4.72c11.6,6.17,18.26,16.26,18.26,27.65,0,7.76-1.43,11-4.89,11-2.81,0-5.24-3.09-9.19-11.67-2.14-4.64-8.5-12.39-10.18-12.41-.39,0,1.45,4.18,4.1,9.29,7.52,14.5,7.81,21.7,1,25.25-6,3.14-7.2,1.17-10.42-16.71-1.06-5.88-5-14-6.11-12.73-.21.23.83,4.62,2.31,9.75,4,13.79,3.34,23.68-1.56,23.68-4.23,0-9.75-11.44-10.77-22.36l-.61-6.52L649,526a21.42,21.42,0,0,1-10.2-1l-4.59-1.76-10.19,6c-21.59,12.71-45.48,31.79-60.61,48.43-11,12.1-17.07,20.47-30,41.35-12.74,20.62-16.9,24.89-22.24,22.84-9.42-3.61-33.51-41.23-55.92-87.34-3-6.19-5.61-11.1-5.78-10.9-.76.91-37.7,99-37.4,99.32s4.74-.7,10.12-2c12.61-3.07,17.11-3.08,19.59-.07,3.45,4.19,1.41,10.25-6.23,18.46-3.65,3.93-5.7,6.86-4.57,6.5s7.25-1.36,13.58-2.24c16-2.23,123.67-2.24,145.13,0,38.7,4,49.81,7.75,54.8,18.36,6,12.78-6.9,34.2-36.12,59.94-19.88,17.52-50.85,39.77-70.42,50.61l-6.84,3.78,3.82,5.5c2.11,3,3.82,6.16,3.82,7s2,3.61,4.52,6.23a39,39,0,0,1,6.59,9.8c1.94,4.72,2,5.35.34,9.83-2.91,8-9.8,9.32-19.68,3.79-2.35-1.32-4.38-2.4-4.5-2.4a30.11,30.11,0,0,0-1,4.94c-.82,5.38-3.79,9.51-6.82,9.5-1.06,0-3.41-1-5.24-2.23ZM48.86,505.92c5.49-2.69,8-6.33,8-11.53,0-3.41-.74-4.35-6.44-8.15-3.54-2.37-7.05-5.11-7.8-6.11-1.94-2.57-3.19-2.24-2.5.65.39,1.62-.53,4-2.67,6.93-3.77,5.15-6.88,11.42-6.88,13.84,0,3.69,8.07,8.48,12,7.16.9-.3,3.69-1.56,6.21-2.79Z" transform="translate(-6.5 -7.72)"/><path id="path2281" class="cls-2" d="M512.08,846.64c-1.7-1.47-2.7-3.28-2.35-4.28s.14-1.4-.43-1-1.54-1.39-2.17-3.94c-1.11-4.53-1.31-4.68-8-6-3.77-.77-12.72-3.23-19.88-5.48l-13-4.08-6.67,3c-16.09,7.19-39,9.12-109.68,9.26-57,.11-59.34-.08-86.09-7.28l-11.6-3.13-13.76,6.69a217.25,217.25,0,0,1-20.16,8.77c-6.93,2.24-17.87,2.82-25.3,1.36-2.57-.51-4.6-.51-4.53,0,.56,3.83-2.42,7.54-6.06,7.54-3.4,0-6.47-4.06-6.35-8.43s-.16-4.42-3.92-.59c-1.63,1.66-3.6,2.75-4.39,2.42s-1.16-.13-.84.45c.88,1.55-5.56,2.64-8.46,1.43-3.83-1.6-5.42-4.44-5.35-9.57.12-9.94,8.17-21.88,16-23.74,1.85-.44,5.16-2.58,7.36-4.75a20,20,0,0,1,10.41-5.41c3.52-.79,6.9-1.59,7.5-1.77s-.24-.91-1.86-1.62c-5.19-2.27-33.73-18.19-42.93-23.95-13.36-8.35-35.15-24.42-45.13-33.28-12.26-10.87-24.51-25.51-28.1-33.59-4.9-11-3.82-17.38,4-23.53,18.83-14.87,73.53-24.85,157-28.66,9.79-.45,17.8-.95,17.8-1.11a35.86,35.86,0,0,0-1.63-3.75c-1.76-3.69-2.13-8.63-.82-10.79,2.09-3.43,6.54-4.64,16.42-4.47l10.13.18v-5.4c0-3,.54-6.52,1.21-7.89,1.79-3.67,5.36-20.93,5.36-25.89,0-2.37-1-11.41-2.25-20.1s-4.12-30.42-6.42-48.3c-3.36-26.2-4.38-31.93-5.29-29.5-.61,1.66-3.65,10-6.74,18.49-10.78,29.63-18,47.63-18.9,47-.5-.34-.62.18-.29,1.15.76,2.16-17,42.74-24.8,56.78-3.15,5.64-6.19,9.84-6.81,9.41s-.8-.18-.38.58c1,1.77-6.57,10.91-9.76,11.79-2.84.78-7.47-1.47-6.51-3.18.35-.62-.07-.83-.94-.46-1.81.76-12.32-12-12.08-14.66.09-.91-.23-1.4-.7-1.08s-3.59-3.08-6.93-7.54-9.53-11.87-13.76-16.46-7.38-8.87-7-9.52.18-.85-.41-.45-3.47-1.44-6.39-4.09a266,266,0,0,0-27.11-20.88c-2.92-1.86-4.89-3.87-4.48-4.58s.2-.93-.47-.47c-1.48,1-26.67-13.1-25.64-14.36.41-.5.17-.55-.53-.11-1.64,1-4.92-.34-4.14-1.73.33-.59-.06-.79-.86-.46s-4.59-.78-8.43-2.5-7.28-2.64-7.64-2.06c-1.5,2.4-8,4.2-13.27,3.65l-5.46-.58v7.43c0,17.62-8.15,30.37-12.17,19-1.1-3.09.19-15.58,2.92-28.12.5-2.32.24-3.12-1-3.12-.92,0-1.45.41-1.17.92s-.45,2.71-1.64,4.91c-1.39,2.61-2.5,7.94-3.17,15.29-1.28,14.06-3.45,16.41-9.7,10.5-4.52-4.27-4-11.5,1.7-24.12,2.4-5.32,4.2-9.87,4-10.1-1.19-1.3-7.33,5.81-9.51,11-5.51,13.17-7.09,15.88-9.49,16.27-5.45.88-7.39-17-2.73-25,2.93-5.1,7.21-9.62,8.37-8.83.6.41.78.19.4-.5-.69-1.22,6.93-7.55,9.1-7.55,2.73,0,.72-2.16-3.23-3.46-8-2.64-9.63-9.88-5.49-24.63,2.3-8.19,6.3-13.34,11.49-14.77,3.29-.91,7.37.48,6.41,2.19-.43.75-.23,1,.48.48s1.71.22,2.33,1.49c.91,1.87.2,3.85-3.78,10.51-6,10.1-6.34,14-1.34,17.37a13.06,13.06,0,0,0,8.65,2.09c2.8-.17,4.9-.65,4.67-1.07s1-1.43,2.84-2.25c3.6-1.64,7.66-7.91,7.66-11.84,0-1.41-1.44-3.7-3.24-5.17s-3-3.08-2.68-3.63-.08-.75-.87-.44c-2,.78-11.64-7.24-13.16-10.92s.41-6.32,5.83-7.29,11.76,1.26,16.73,5.76c4.44,4,9.41,14,9.43,19,0,1.8,1.48,4.29,3.93,6.62a15.79,15.79,0,0,1,4.67,7.79c.75,4,.86,4.1,18.81,11C130.74,529.59,168,546.68,182.72,556c12.35,7.76,14.35,9.32,13.65,10.56-.39.7-.2.93.42.51s2.41.33,4,1.67l2.83,2.45.59-2.76c.32-1.53,3.57-22.55,7.22-46.72s7.88-50.46,9.39-58.4C234,393.85,247.3,359.53,265,348.81c2.71-1.64,15.9-9.06,29.3-16.5l24.37-13.51,1.87-6c1.38-4.42,1.89-10.16,1.92-21.51l0-15.48-6.08-2.08c-9.33-3.19-21.88-9.88-21.1-11.26.4-.72.14-.86-.64-.33-3.15,2.14-26.56-21.4-24.65-24.79.48-.86.31-1.07-.47-.55-1.6,1.09-6.89-8-10.86-18.67-2.74-7.36-3.34-8.13-6.71-8.74-13.47-2.4-21.92-24.67-18.84-49.63,1-7.94,1.67-10,4.12-12.37s3.72-2.73,7.58-2.15l4.65.7.74-8.09c1.14-12.4,4.68-32,8.44-46.62,4.05-15.83,13.1-39.86,14.85-39.45.69.15,1-.49.65-1.43-.73-2.1,8.06-16.65,9.49-15.69.56.39.76-.06.43-1-1.49-4.26,21.92-22.75,26.4-20.86.94.4,1.45.25,1.13-.32-1-1.78,12.59-4.07,23.47-3.95a74.41,74.41,0,0,1,33.13,8c3.45,1.8,6,3.81,5.61,4.47s-.92.78-1.36,0c-1.16-2-11.21-6.51-12.9-5.8-.89.37-1.3.15-.92-.52s.27-1.24-.22-1.29-2.12-.41-3.62-.79a94.69,94.69,0,0,0-13.15-.74c-9.18-.06-11.11.32-16.43,3.21C303.53,26.9,283,62.3,273.68,103.83c-2.17,9.71-2.56,14.54-2.56,31.91,0,23,1,29,7.82,46.36,13.85,35.26,37.6,61.73,66.78,74.44,13.55,5.9,21.75,7.83,33.74,7.94,11.34.11,15.53-.56,22.31-3.53l4-1.75-3.61,3.43c-5.65,5.36-19.26,12.09-30.07,14.86L362.22,280l.52,8.11c.38,5.79,1.23,9.2,3,11.9a20,20,0,0,1,2.68,5.5,5.34,5.34,0,0,0,1.17,2.67c.51.52.52.13,0-.87s1,.11,3.4,2.45c4.28,4.21,16.94,13.2,18.58,13.2.46,0,3.48-2.74,6.71-6.1,8.78-9.12,12.79-7.72,15.34,5.34.85,4.35,1.36,4.84,7.72,7.46,10.24,4.21,26.55,13.08,31.84,17.32a32.84,32.84,0,0,1,6.87,7.63c3.41,6.08,8.2,24.24,12.07,45.75l3.55,19.72,3.93,2.32a16.28,16.28,0,0,1,6,6.91c2.31,5.2,1.83,8.29-3.82,24.47l-3,8.59,4.34,16.09c2.39,8.85,8.54,33.14,13.67,54s9.56,38.15,9.85,38.46,3-2.1,6-5.37c4.59-5,5.68-5.65,6.65-4.14s1.07,1.51.58-.21c-.44-1.49,1.75-3.72,8.38-8.57,19.13-14,42.72-28,44.78-26.6.73.49.92.28.47-.51-1-1.75,23.84-15.29,25.7-14,.8.54,1.06.4.65-.32s4.09-3.63,10.51-6.84c15.06-7.53,14.44-7,14.82-11.95a10.21,10.21,0,0,1,3.32-7.1c2.27-2.1,3.29-4.6,4.29-10.51,2.71-16,11.06-24.58,23.27-23.89,5.3.29,6.07.66,6.38,3,.48,3.75-3.15,8.92-10.82,15.41s-8.38,10-3.7,16.07c3.75,4.9,13.4,8.4,17.51,6.35,1.56-.79,3.38-1.07,4-.63s.87.25.48-.45,0-1.93,1-2.77c1.75-1.6,1.88-12,.14-11.6-.5.11-2.9-2.34-5.34-5.46-3.44-4.39-4.28-6.31-3.76-8.57.84-3.67,6-6.14,10.47-5,6.39,1.54,14.22,16.26,14.63,27.48.14,3.92-.43,5.3-3.37,8.19-1.95,1.92-4.55,3.48-5.78,3.48-3.31,0-1.54,2.13,4.27,5.13a49.52,49.52,0,0,1,10.76,8.69c4.73,5.07,5.86,7.16,7,12.94,1.53,7.67.59,13.69-2.46,15.81-2.53,1.75-5.53-1.39-9.86-10.34-3.22-6.62-9.53-14.17-11.87-14.17-1.65,0-1.35.76,3.21,8.14,9.31,15.08,9,28-.67,28-3,0-3.88-2.07-5.71-13.85-.72-4.64-2-9.66-2.93-11.17s-1.27-3.41-.85-4.22.36-1.06-.14-.56-1.81,0-2.91-1.09c-2.54-2.53-2.54-2.51.67,8.31,4.08,13.71,4.59,20.16,1.92,23.79l-2.2,3-2.41-2.4c-3.77-3.75-6.46-10.6-7.59-19.33a57.56,57.56,0,0,0-1.44-8.46c-.23-.25-2.1.08-4.16.73-2.75.86-5.46.69-10.21-.64l-6.47-1.82-9.43,5.59c-5.19,3.07-12.79,8-16.89,10.88s-8,4.92-8.66,4.47-.89-.26-.48.46-1.85,3.06-5,5.3c-12,8.38-36.46,33.14-44.25,44.68-2.12,3.15-4.38,5.37-5,4.93s-.85-.22-.41.54-1,3.85-3.13,6.92-5.16,8-6.71,10.9-3.35,5-4,4.52-.84-.22-.37.62c.88,1.56-9.27,16.32-12.54,18.25-2.6,1.53-5.76,1.53-4.9,0,.38-.67,0-.89-1-.5-2.14.9-11.93-9-11.14-11.22.32-.91.17-1.38-.34-1-1.46,1-6-4.94-5-6.62.51-.9.37-1.17-.34-.68-1.32.89-13.16-18.32-25.13-40.76-10.14-19-11.52-22.09-10.61-23.7.44-.79.27-1-.41-.56-1.45,1-8.17-12.22-7.19-14.13.46-.92.29-1-.51-.14-1.1,1.11-39.8,102-39.32,102.52a37.84,37.84,0,0,0,6.23-1.49c10.56-3,19.34-4.2,22.27-3,7.22,3,3.36,13.42-9.13,24.59-2.1,1.89-2.89,3.09-1.75,2.68,10.36-3.8,53.42-6,101.43-5.13,73.25,1.28,102.2,5.43,111.31,16,13.82,16-6.17,44.9-58.19,84.16-20.81,15.71-51.84,35.36-54.57,34.55-.5-.15-.59.3-.2,1s1.09,1,1.56.67c1.35-.92,6.48,5.63,7.89,10.07a25.6,25.6,0,0,0,5.57,8.3,34.62,34.62,0,0,1,5.87,7.61c1.79,3.8,2.13,10,.49,8.89-.61-.42-.81,0-.46,1s-.41,2.9-1.66,4.27c-3.2,3.53-10.3,3.32-17.15-.5-3-1.65-5.51-3-5.66-3a12.49,12.49,0,0,0-.28,3.67,20.24,20.24,0,0,1-1.67,7.22c-2,4.37-6.47,4.78-10.84,1Zm-53.75-28.75a2.5,2.5,0,0,0-2-1.19c-.79,0-.65.49.33,1.19C458.79,819.38,459.17,819.38,458.33,817.89ZM270,813.61c2-1.77,2-1.8-.61-.44-3.35,1.75-4,2.31-2.58,2.31A7.45,7.45,0,0,0,270,813.61Zm170.26-2.84a20.2,20.2,0,0,0-4.38-1.76c-2.28-.61-2.19-.44.55,1,3.51,1.86,6.58,2.46,3.83.75ZM180.8,807.35c1.36-1.91,1.32-2-.42-.45a7.21,7.21,0,0,0-1.91,2.1c0,1,.9.36,2.33-1.65Zm98.94,1a1.35,1.35,0,0,0-.3-1.76c-.51-.34-.93.16-.93,1.12C278.51,809.73,278.85,809.91,279.74,808.34Zm140.43-6.66c0-1-.42-1.47-.93-1.12a1.35,1.35,0,0,0-.3,1.76C419.83,803.89,420.17,803.71,420.17,801.68Zm4.75-5c0-1-2.13-1.56-2.62-.69-.31.56.15,1,1,1s1.6-.14,1.6-.33Zm-172.27-3.6a2,2,0,0,0-2.1-.1c-.87.39-.61.67.67.73s1.8-.23,1.43-.63Zm-4.38-1.21a2,2,0,0,0-2.1-.09c-.87.38-.61.67.67.72s1.8-.23,1.43-.63Zm201.55-8.43a2,2,0,0,0-2.1-.09c-.88.38-.62.67.66.73s1.8-.24,1.44-.64ZM23.43,526.57a1.35,1.35,0,0,0-.3-1.76c-.51-.34-.93.16-.93,1.13C22.2,528,22.55,528.14,23.43,526.57ZM273.53,465c4.88-2.3,6-2.11,12.28,2s18.88-.38,27.76-9.67c4.92-5.16,12.77-15.56,12.77-16.94a15.14,15.14,0,0,1,2-4c4.58-7.2,18.2-38.39,22.41-51.36,5.62-17.29,6.48-21.43,6.62-31.95.17-12.43-1.63-16.37-8.72-19-3.67-1.38-5.75-1.31-14.68.45C296.14,341.94,271,353.42,256.14,370c-7.5,8.37-12,18.24-15.72,34.52-7.51,32.83.27,60.48,17.75,63.06C264.3,468.44,267.21,468,273.53,465Zm15.2-11.54c-1.13-1.24-.86-6.19.38-7a1.34,1.34,0,0,0,.66-1.58c-.26-.45.93-.82,2.63-.82s2.9.21,2.67.46.08,1.49.7,2.75c1.78,3.66.21,7-3.28,7-1.66,0-3.36-.37-3.76-.81ZM426,233.88c.65-1.33,1.42-2.41,1.72-2.41s0,1.08-.62,2.41-1.42,2.41-1.72,2.41,0-1.09.62-2.41ZM322,223.19c-4.54-1.64-11.56-5.87-13.07-7.87-1.66-2.2-.82-5.53,1.39-5.53.85,0,3.91,1.46,6.81,3.24,5.33,3.28,6.66,3.42,22.39,2.43,3.09-.2,3.9.22,4.15,2.16a4.57,4.57,0,0,1-2.17,4.1C338.58,223.68,325.94,224.63,322,223.19Zm111.81-14.1c.05-1.4.31-1.69.66-.73a2.6,2.6,0,0,1-.09,2.31C434,211.07,433.72,210.36,433.77,209.09Zm2.4-5.75c.95-1.82,1.38-11.09,1.48-31.42l.13-28.84,4.58-1.83c4.06-1.63,4.91-1.64,7.48-.05,6,3.69,7.4,8.62,7.3,25.25-.09,16.17-1.34,21.93-6.57,30.23-2.82,4.49-6.14,6.75-12.21,8.32-3.37.88-3.47.8-2.19-1.66Zm-147.95-56.4c-3.09-3.4-.32-8.05,7.45-12.52,5.51-3.17,18.12-3.13,22.5.08,1.78,1.31,3.49,2.3,3.79,2.21s.54,1,.54,2.54c0,3.5-2,3.91-12.92,2.55-7.31-.9-13.37.81-15.05,4.27a3.71,3.71,0,0,1-6.31.87ZM392.16,145c-3-2.65-4.77-3.23-9.31-3.11a52.59,52.59,0,0,0-9,1c-2.94.74-3.56.48-4.21-1.75a5,5,0,0,1,.91-4.63,7.78,7.78,0,0,0,1.73-3.13c.13-2.07,12.56-2.15,17.68-.11a63.3,63.3,0,0,0,6.51,2.29c.9.2,1.66.85,1.68,1.45a14.35,14.35,0,0,0,1.43,3.84c1.7,3.37.69,7.5-1.81,7.43-1,0-3.53-1.52-5.58-3.31ZM280.89,109.86c-.38-.68.06-.88,1-.47,1.9.8,2.25,1.67.67,1.67a2.32,2.32,0,0,1-1.7-1.2Zm2.91-1.21c-.93-.77-1.5-4.44-1.41-9,.05-2-.52-4-1.26-4.63-.92-.73-.75-.86.54-.41a2.18,2.18,0,0,0,2.58-.59c1.5-2.66,12.45-9.39,18.37-11.28,7.74-2.47,15-2.1,16.95.87.79,1.2,2,1.81,2.74,1.36s1-.41.57.07-.31,2.45.18,4.36c1.17,4.49-.82,11.74-3.49,12.67-1.11.39-1.76,1.17-1.44,1.74a1.56,1.56,0,0,1-.71,1.91c-.8.54-1,.35-.5-.52,1.39-2.47-7.78-1.57-16.42,1.62-7.28,2.68-14.67,3.49-16.7,1.81Zm99.64-1.8c-3.84-1.66-8.29-3-9.89-3a10.79,10.79,0,0,1-5.54-2c-2.47-1.91-2.58-1.9-1.9.06.41,1.16.28,1.78-.28,1.4a3.77,3.77,0,0,1-1-2.77,66.65,66.65,0,0,0-.73-7c-.64-4.24-.33-5.41,2.39-9,2.28-3,2.59-3.87,1.15-3.27-1.08.46-1.71.36-1.39-.22,1.71-3,21,2.58,28.6,8.33,2.53,1.92,5,3.1,5.47,2.63s.55-.26.17.47,0,2.36.89,3.62c2,2.87,2.08,7.79.21,10.6-2.37,3.56-10.07,3.61-18.14.12Zm40-15.71c-1.06-3-.74-3.81.55-1.37.64,1.21.93,2.45.65,2.76s-.82-.31-1.2-1.39Zm-2.19-7.22c-1.06-3-.74-3.81.55-1.37.64,1.21.93,2.45.65,2.76s-.82-.32-1.2-1.39ZM400.93,45.68c-1.38-2.54-1.36-2.57.53-.58,1.08,1.14,1.73,2.34,1.45,2.65S401.73,47.14,400.93,45.68ZM393.6,37.3l-2.09-2.71,2.47,2.3c2.31,2.15,3,3.12,2.08,3.12A12.84,12.84,0,0,1,393.6,37.3Zm-7.61-7c-1.43-2.54-9.56-8.29-10.67-7.54-.65.44-.79.17-.33-.64.58-1,1.66-.85,4.05.7,3.31,2.15,9.62,8.76,8.36,8.76C387,31.58,386.39,31,386,30.3Z" transform="translate(-6.5 -7.72)"/><path id="path2279" class="cls-3" d="M303.88,833.92c-13.44-1.28-40.45-6.83-47.64-9.78-2.49-1-1.43-1.81,11.45-8.53l14.18-7.42-6-4.72c-18.25-14.45-43.95-16.94-75.53-7.3-4.91,1.5-5,1.48-19.88-6.36C125.74,761,82,724.14,74.86,700.73c-2-6.75-1.52-10.1,2.39-15.22,11.39-14.87,68.88-27.15,143.94-30.73,8.13-.39,19.32-1,24.88-1.39l10.09-.69-1.67-2.8c-1-1.73-1.54-4.8-1.33-8,.45-6.94,2.92-8.22,16-8.24l10.13,0V629.7a45.29,45.29,0,0,1,2.07-10.54c1.13-3.62,2.93-10.91,4-16.21,8.21-41.26,26.9-107.66,42.83-152.14,22.42-62.63,43.56-104,65.68-128.54,4.87-5.41,10-10.23,11.36-10.71,3.57-1.24,6.58,2.57,7.5,9.5l.76,5.69,8.19,3.61c23.58,10.41,35.17,18.22,38.83,26.18,3.85,8.37,6.84,20.18,11.53,45.57,2.41,13.05,3.81,18.13,5.21,19a40.92,40.92,0,0,1,5.49,5c2.71,2.86,3.59,4.82,3.59,8,0,4.94-8.89,33.33-18.93,60.48-14.67,39.64-17.12,46.07-19.26,50.67-1.21,2.59-6,14.74-10.61,27S427.08,599.67,424.67,606c-9.49,24.82-14.08,37.63-13.66,38.09.24.26,4.73-.64,10-2s12.09-2.32,15.23-2.13c5.35.35,5.71.57,6,3.81.57,5.46-1.81,10-9,17.21-6.14,6.15-6.43,6.65-3.41,6,30.13-6.84,131.89-6.87,180.18,0,26.17,3.7,35.05,9.35,35.05,22.27,0,9.83-5.21,19.09-19.63,34.88-20.11,22-51.37,46.31-85.77,66.67-8,4.76-9.92,5.45-11.83,4.32-1.25-.74-5.16-1.85-8.68-2.47a58.58,58.58,0,0,1-13.46-4.76c-9.84-5.07-20-7.16-35.11-7.18-15.26,0-27,2.31-36.92,7.34-7.08,3.59-15.33,11.05-15.33,13.87,0,1.59,10.84,6.5,30.3,13.73,16.7,6.2,16.93,6.38,11.59,8.73-14.76,6.49-28.8,8-88.44,9.31-48.34,1.08-59.77,1.14-67.92.36ZM289.72,452.64c-1.65-1.33-1.78-2.05-.72-4.22,1.79-3.68,5.36-3.38,6.25.53.47,2.07.2,3.49-.8,4.19-2,1.41-2.41,1.37-4.73-.5Zm29.5-231.55c-6-2.42-10.9-7-10.05-9.37.58-1.67,1.55-1.44,7.17,1.71,6.93,3.87,11.41,4.51,20.79,3,5.38-.88,5.83-.77,5.47,1.3a6.67,6.67,0,0,1-3.13,3.78c-3.62,2-14.78,1.8-20.25-.4Zm74.23-75.63c-4.86-4.5-10.58-5.73-16.43-3.54s-7.86,1-6.23-4.07c1.49-4.68,7.8-6.86,15-5.17,9.55,2.25,14,6,14,11.88C399.73,148.18,396.83,148.59,393.45,145.46Zm-104.94.45c-4-7.12,13.44-16.51,24.55-13.22,5.66,1.67,9.47,5.09,8.57,7.68-.8,2.27-3.92,2.52-9.62.78-5.15-1.57-13.55.17-16.75,3.48C292.59,147.39,289.65,147.94,288.51,145.91Zm-1.76-38.25c-3.05-1.68-3.73-2.79-4-6.53s.24-5.1,2.65-7.55c7.51-7.65,23.48-13.18,31.58-11,3.11.86,6.09,6.24,6.09,11,0,5.07-5.34,10.07-10.69,10-2.42,0-7.79,1.12-11.92,2.57s-8.07,2.83-8.76,3.07-2.91-.49-4.93-1.6Zm99.83-.41a94.43,94.43,0,0,0-11.67-3.89c-7.63-1.84-10.24-4.62-10.2-10.85,0-5.38,1.36-8,5.2-10.22,2-1.17,3.83-1.08,9.31.45,11.5,3.23,19,8.41,22.31,15.43,2.14,4.53.94,7.94-3.52,10S393.86,110.29,386.58,107.25Z" transform="translate(-6.5 -7.72)"/><path id="path2277" class="cls-4" d="M303.88,833.92c-13.44-1.28-40.45-6.83-47.64-9.78-2.49-1-1.43-1.81,11.45-8.53l14.18-7.42-6-4.72c-16.75-13.27-42.86-16.74-69.28-9.22-7.28,2.07-11.52,2.73-13.15,2-7.08-3-29.25-15.15-40.61-22.25-43.21-27-72.18-54.2-78-73.31-2-6.75-1.52-10.1,2.39-15.22,11.39-14.87,68.88-27.15,143.94-30.73,8.13-.39,19.32-1,24.88-1.39l10.09-.69-1.67-2.8c-1-1.73-1.54-4.8-1.33-8,.45-6.92,2.94-8.22,15.76-8.24l9.94,0,2.66,6.33c3.26,7.78,16.64,22.76,25.37,28.42,25.63,16.59,48.83,16.05,78.05-1.82,10.41-6.36,25.74-18.83,25.74-20.93,0-1.69,20-6.15,25.74-5.75,4.8.33,5.52.73,5.84,3.21.84,6.51-3.41,13.7-12.41,21l-4.38,3.56,3.83-.75c35.58-6.92,132-6.95,180.73-.07,26.17,3.7,35.05,9.35,35.05,22.27,0,9.83-5.21,19.09-19.63,34.88-20.05,21.94-51.39,46.32-85.53,66.53L530.61,796l-6-2.28a36,36,0,0,0-9.06-2.32c-1.68,0-5.87-1.61-9.31-3.51-18.75-10.38-52.06-10.38-72.54,0-7.08,3.59-15.33,11.05-15.33,13.87,0,1.59,10.84,6.5,30.3,13.73,16.7,6.2,16.93,6.38,11.59,8.73-14.76,6.49-28.8,8-88.44,9.31-48.34,1.08-59.77,1.14-67.92.36ZM289.72,452.64c-1.65-1.33-1.78-2.05-.72-4.22,1.79-3.68,5.36-3.38,6.25.53.47,2.07.2,3.49-.8,4.19-2,1.41-2.41,1.37-4.73-.5Zm29.5-231.55c-6-2.42-10.9-7-10.05-9.37.58-1.67,1.55-1.44,7.17,1.71,6.93,3.87,11.41,4.51,20.79,3,5.38-.88,5.83-.77,5.47,1.3a6.67,6.67,0,0,1-3.13,3.78c-3.62,2-14.78,1.8-20.25-.4Zm74.23-75.63c-4.86-4.5-10.58-5.73-16.43-3.54s-7.86,1-6.23-4.07c1.49-4.68,7.8-6.86,15-5.17,9.55,2.25,14,6,14,11.88C399.73,148.18,396.83,148.59,393.45,145.46Zm-104.94.45c-4-7.12,13.44-16.51,24.55-13.22,5.66,1.67,9.47,5.09,8.57,7.68-.8,2.27-3.92,2.52-9.62.78-5.15-1.57-13.55.17-16.75,3.48C292.59,147.39,289.65,147.94,288.51,145.91Zm-1.76-38.25c-3.05-1.68-3.73-2.79-4-6.53s.24-5.1,2.65-7.55c7.51-7.65,23.48-13.18,31.58-11,3.11.86,6.09,6.24,6.09,11,0,5.07-5.34,10.07-10.69,10-2.42,0-7.79,1.12-11.92,2.57s-8.07,2.83-8.76,3.07-2.91-.49-4.93-1.6Zm99.83-.41a94.43,94.43,0,0,0-11.67-3.89c-7.63-1.84-10.24-4.62-10.2-10.85,0-5.38,1.36-8,5.2-10.22,2-1.17,3.83-1.08,9.31.45,11.5,3.23,19,8.41,22.31,15.43,2.14,4.53.94,7.94-3.52,10S393.86,110.29,386.58,107.25Z" transform="translate(-6.5 -7.72)"/><path id="path2275" class="cls-5" d="M303.88,833.92a339.68,339.68,0,0,1-36.14-6.42c-15.59-4-15.6-3.36.11-11.84l13.95-7.54-5.39-4.29c-12.84-10.22-27.14-14.18-48.52-13.44-7.6.26-11.85.1-9.44-.37l11-2.1a108.49,108.49,0,0,1,35.66-1.33c14.1,1.87,14.35,1.92,16.37,2.7l8.76,3.31c8.71,3.25,23.15,11.12,28.92,15.75,2.35,1.89,4.7,3.14,5.23,2.78s.82-.19.66.37,3.8,5.47,8.82,10.92l9.12,9.92H365l5.62-5.72c9.75-9.92,13.19-13.08,19.31-17.73,3.27-2.49,5.84-5,5.69-5.55s.42-.73,1.26-.38a1.93,1.93,0,0,0,2.35-.83c.56-1,.37-1.16-.61-.5s-1.17.51-.64-.43a1.34,1.34,0,0,1,1.86-.69,2.12,2.12,0,0,0,2.39-.47c2.3-2.1,20.8-11.87,26.79-14.15,3.16-1.21,5.75-2.61,5.75-3.12s.64-.66,1.43-.33,4.61-.25,8.49-1.29,13.7-2.09,22.39-2.36l15.33-.47-12.59,1c-23.81,1.93-39.38,7.59-48.28,17.56-2.59,2.91-4.49,5.5-4.23,5.76.61.6,27.33,11.63,38.66,16,8.31,3.17,8.51,3.34,5.87,4.85-5,2.88-18.72,6.36-30.36,7.69-16.64,1.91-114.4,4-127.61,2.76Zm57.44-35.6c-3-8.33-12.51-25.88-17.22-32a91.11,91.11,0,0,0-35.83-27.3c-4.22-1.84-8.66-3.84-9.86-4.45-2.25-1.12-7.24-2.76-23.55-7.71-8.85-2.68-16.73-4.47-63.17-14.3-20.32-4.3-35.41-9.59-35.41-12.42,0-3.93,13.4-5.07,31.64-2.69l23,3c7.48,1,13.83,1.53,14.13,1.21s-.16-.81-1-1.09c-25.45-8.3-39.53-14.57-40.78-18.15a4.47,4.47,0,0,1,.44-3.19c.75-1.33,4-1.66,15-1.51,12.57.16,21,1.17,44.12,5.27,20.18,3.58,21.23,3.52,16.32-.95-2.81-2.56-11.36-16.51-13-21.16-2-5.87-1.53-8,1.84-7.94a13.43,13.43,0,0,1,6,2.1c45.88,31.29,72.82,40.62,99.65,34.52,12.82-2.91,21.68-7.33,36.81-18.35,5-3.64,9.38-6.3,9.73-5.91,1,1.1-5.22,8.57-9.77,11.75-4.08,2.84-4.87,4-3.29,5,.45.28.15.32-.67.09-1.57-.44-16,10.28-15.13,11.24.28.31,5.12-.25,10.76-1.24s13.45-2.15,17.36-2.56,11.31-1.54,16.43-2.49a176.74,176.74,0,0,1,23-2c12.34-.26,13.7-.08,14.05,1.85.31,1.65-1.58,3.15-8.18,6.51a102.26,102.26,0,0,1-11.86,5.3c-1.81.51-9,2.84-15.88,5.17s-17.63,5.71-23.78,7.5-10.93,3.72-10.62,4.28,8.06,1,17.21,1c22.11.05,66.53,2,68.94,3,2.7,1.15,2.39,3.79-.55,4.55-1.35.35-7.14,1.25-12.87,2-14.63,1.93-33.34,5.83-41,8.55a46.54,46.54,0,0,1-8.05,2.31,16.65,16.65,0,0,0-5,1.67c-1.9.92-5.67,2.59-8.38,3.71a76.21,76.21,0,0,0-23.56,16c-6,6.27-11.49,13.87-11.49,15.9,0,.7-.39,1.28-.87,1.28-1.1,0-5.94,10.54-9,19.57-1.28,3.81-3,6.92-3.77,6.92s-2.07-1.76-2.86-3.91ZM250.46,702.77a2,2,0,0,0-2.1-.1c-.87.38-.61.67.67.73S250.83,703.17,250.46,702.77ZM193.8,796.56c-.9-.37-9.77-5.11-19.71-10.54-53-29-92.25-62.79-99.32-85.61-4.38-14.12,5.46-22.51,36.59-31.23,5.88-1.65,11.68-2.94,12.89-2.89s-2.08,1.28-7.31,2.7-9.86,3-10.31,3.5a5.09,5.09,0,0,1-3.1.92A25.09,25.09,0,0,0,97,675.06c-3.82,1.46-4,1.76-2.19,2.94,1.65,1,1.06,1.18-2.85.73s-4.56-.27-3.29.77,1.4,1.26-.17.71a2.7,2.7,0,0,0-2.55.19,3.31,3.31,0,0,1-2,.87c-.7,0-1.14.75-1,1.6s-.21,1.19-.82.78c-1.53-1-6.58,5.16-6.72,8.28a27.78,27.78,0,0,0,6.87,20c1.4,1.64,2.46,3.32,2.34,3.73s1.55,2.59,3.72,4.84c3.63,3.77,4,3.27,1-1.38-.67-1-.08-.56,1.31,1s2.34,3.48,2.12,4.19,1.62,3.22,4.06,5.58a40.24,40.24,0,0,1,4.81,5.21,1.65,1.65,0,0,0,1.44.91c.58,0,.71-.63.28-1.4s-.3-1.06.5-.51a1.56,1.56,0,0,1,.69,1.93c-.58,1,3.3,4,5.49,4.2.6.06,1,.76.81,1.58-.26,1.38,4.77,4.45,6.58,4,.45-.1.7.49.55,1.31s.38,1.36,1.18,1.18,1.16.18.81.8.85,1.85,2.66,2.73,3.29,2,3.29,2.56.86.81,1.92.61,1.79.31,1.64,1.15a1.16,1.16,0,0,0,1,1.51c.71,0,2.37,1.11,3.69,2.47a9.15,9.15,0,0,0,4.65,2.66c1.24.1,2.06.54,1.82,1s1.88,2.22,4.73,4,7.62,4.75,10.61,6.65,6.15,3.16,7,2.79,1.3-.14.87.61c-.7,1.24,5.51,4.83,7.29,4.21.49-.17.59.24.21.92-.7,1.24,1.38,1.78,5.46,1.42,1.59-.14,1.79.08.72.84s-1.09,1.2.38,1.82a3.65,3.65,0,0,0,3,0c.64-.44.85-.23.46.46-.87,1.55,5.22,4.46,7.41,3.53,1-.44,1.41-.1,1,1s.58,1.91,2.78,2.44c1.84.45,3.63,1.31,4,1.92.68,1.21-.23,1.3-2.79.26Zm4.93-1.55a2.39,2.39,0,0,1,1.77-1.21c.61,0,.79.55.42,1.21a2.38,2.38,0,0,1-1.77,1.2C198.55,796.21,198.36,795.67,198.73,795Zm328.06-1.31-2.74-2.47,2.74,1.54A8,8,0,0,0,531,794c.82-.19,1.16.24.76.95C530.75,796.72,529.92,796.52,526.79,793.7ZM207,792.65a7.44,7.44,0,0,1,3.74-1.24c2.8,0,1.93.67-2.1,1.66-2.4.59-2.84.48-1.64-.42Zm325.87,0c-.38-.67,0-.89,1-.5s2.48-.4,3.54-1.76,2.31-2.17,2.8-1.83.9-.18.9-1.16c0-1.17.74-1.55,2.2-1.13,1.2.35,2.19.08,2.19-.58s1.19-1.55,2.65-1.95a17.6,17.6,0,0,0,5.75-3.6,15.84,15.84,0,0,1,5.29-3.38c1.2-.29,2-1.2,1.89-2s.18-1.2.77-.8,3.31-.8,6-2.68c4.12-2.82,4.74-3.7,3.61-5.09s-1.09-1.46.31-.32c2.33,1.92,8.87-2.55,8-5.48-.48-1.62-.37-1.69.5-.34s1.59,1.25,4.08-.91,2.69-2.6.93-2.68c-1.55-.07-1.65-.26-.42-.76a17,17,0,0,0,3.83-2.61c2.17-1.94,2.17-1.93.11.76-3,3.93-1.16,3.32,4.09-1.35a58.27,58.27,0,0,1,7-5.45c1.35-.77,2.33-2,2.19-2.82a1.35,1.35,0,0,1,1.11-1.62l2.52-.35c.64-.09.88-.66.54-1.27s1.31-2.32,3.67-3.78c3.14-1.94,4.2-3.3,3.9-5-.34-1.91-.12-2.08,1.13-.94s2.7.29,7.35-4.27c4-3.94,3.58-3.28-1.43,2.13-13.48,14.57-46,39.79-72.41,56.14-7.67,4.74-14.17,8.62-14.45,8.62s-.82-.53-1.19-1.19Zm-21.1-2a2.33,2.33,0,0,1-1.36-1.86c0-.86.43-.86,1.36,0a10.45,10.45,0,0,0,4.11,1.79l2.74.56-2.74.07a12.53,12.53,0,0,1-4.11-.54Zm-15-7.52c-2-.87-2-.94.28-1.61,1.32-.38,2.15-.24,1.85.3s.06,1.27.82,1.6.88.62.28.62a10.66,10.66,0,0,1-3.23-.91Zm-10.46-2.52c-2.17-.77-2.28-1-.55-1a18.23,18.23,0,0,1,4.93,1c2.17.76,2.28,1,.55,1A18.12,18.12,0,0,1,486.26,780.56ZM98.49,729.35c-1.16-1.53-1.09-1.7.41-1.07,1,.42,1.8,1.24,1.8,1.83C100.7,731.66,100.06,731.44,98.49,729.35Zm520.77-3.81c.16-1.2.65-2.09,1.1-2,1.66.42,1.73,1.31.19,2.71C619.27,727.44,619,727.3,619.26,725.54Zm11.27-8.72c6.92-8,11.85-16.92,13-23.47.88-5.16-.29-13.09-1.78-12.08a1.41,1.41,0,0,0-.43,1.82c.34.61-.16.78-1.11.38-1.57-.66-1.57-.87.05-2.16s1.35-1.8-2-4.57c-4.08-3.42-12.19-6.32-14.72-5.25-.87.37-1.32.2-1-.38.72-1.27-14.87-3.56-37.71-5.55-11.92-1-14.69-1.52-9.31-1.62,16.39-.3,51.17,4.93,59.15,8.89,10.81,5.37,13.37,15.78,7.1,28.89-3.51,7.34-11.55,18.63-13.27,18.63-.57,0,.34-1.59,2-3.53ZM430.4,668.63l-2.74-.92,3-.89a8.23,8.23,0,0,1,4.38-.27c.88.39.67.66-.56.72s-1.68.64-1.31,1.3.53,1.15.34,1.09l-3.07-1ZM130.27,665c6.09-1.78,38.82-6.3,42.3-5.85,1.74.23-2.26,1.09-8.89,1.91s-15.25,2-19.17,2.61-9.58,1.41-12.59,1.78c-4.77.58-5,.52-1.65-.45Zm298.78-2c2.57-1.69,4.39-3.58,4-4.2s.56-1.63,2-2.24a7,7,0,0,0,4.15-7.13c-.14-.9.28-1.27.92-.84,1.33.91,1.59-4,.33-6.15-1.41-2.43-13.42-1.24-27.09,2.68-1.69.49-1.82.37-.55-.49,2.94-2,19-5.22,24.1-4.81,4.21.34,5,.81,5.29,3.23a18.86,18.86,0,0,1-.25,5.52c-.82,3.59-8.9,13.56-12.78,15.77-5.09,2.89-5.22,2-.18-1.34Zm13.39,1.85a97,97,0,0,1,12.6-.86l6.57.05-6,.91a98.52,98.52,0,0,1-12.6.87l-6.57,0Zm44.16-2.67c15.55-.71,35.6-.71,53.12,0,27.73,1.11,27.36,1.13-25,1.13-50.1,0-51.7-.06-28.14-1.12Zm-309.67-3.11c-.59-1.06,11.89-2.6,21-2.6,8.46,0,4.57,1-7.46,1.82-6.33.46-11.84,1.06-12.25,1.33s-1,0-1.34-.55Zm36-3.87c5.42-.48,15-.85,21.36-.8l11.5.07-12.05.85c-6.62.46-16.24.83-21.36.81l-9.31,0,9.86-.89Zm34.23-.73a3.92,3.92,0,0,1,2.74,0c.75.33.14.61-1.37.61s-2.12-.28-1.37-.61Zm4.66-.61c0-.55.74-1,1.64-1s1.64.45,1.64,1-.74,1-1.64,1S251.86,654.47,251.86,653.92Zm3-3.25c-2.32-4.33-2.5-12.57-.3-14.57,1.75-1.6,3.93-.72,3.79,1.54-.06,1-.26.94-.65-.12-1.1-3-3.64,1.07-3.64,5.81,0,4.14.25,4.53,2.7,4.23,1.49-.18,2.43.18,2.08.79a1.72,1.72,0,0,1-2.16.47c-.84-.35-1.53-.16-1.53.42a1.88,1.88,0,0,0,1.26,1.53,1.57,1.57,0,0,1,.81,2C257,653.57,255.94,652.69,254.85,650.67Zm12.34-15.81-9.31-.76,9.58-.22c5.8-.14,9.59.25,9.59,1s-.12,1.1-.28,1S272.31,635.27,267.19,634.86Zm21-182.56c-.83-1.49-.9-2.31-.3-3.61.42-.92.92-1.68,1.11-1.68s0,.74-.43,1.65c-1,2.27.64,5,1.8,2.92.43-.77,1-1.07,1.18-.67s-.21,1.31-.95,2c-1,1-1.58.87-2.41-.63Zm5.18-5c-1.36-1.91-1.32-1.95.41-.45a7.28,7.28,0,0,1,1.92,2.1C295.67,450,294.77,449.32,293.34,447.31Zm34.37-225.1a8.26,8.26,0,0,1,3.83,0c1.06.3.19.55-1.92.55S326.65,222.51,327.71,222.21Zm-7.39-1.56c-.38-.69.06-.89,1-.48,1.9.8,2.25,1.67.67,1.67a2.35,2.35,0,0,1-1.7-1.19Zm21-2c.42-1.2.28-1.76-.33-1.35a2.63,2.63,0,0,1-2.65-.4c-1.19-.84-.91-1,1.08-.72,2.9.45,4.17,2.51,2.32,3.76C341,220.46,340.88,220,341.32,218.69Zm-21-1.66c-.38-.68.06-.88,1-.47,1.9.8,2.25,1.66.67,1.66a2.32,2.32,0,0,1-1.7-1.19Zm-9.7-1.77c-1.11-.93-1.7-2.27-1.3-3,.88-1.57,3.52-1.68,4.36-.19.34.6-.5.79-1.85.41-2.45-.67-2.45-.65-.38,1.92,2.39,3,2.1,3.27-.83.84Zm82.83-69.8c-4.86-4.5-10.58-5.73-16.43-3.54s-7.86,1-6.23-4.07c1.49-4.68,7.8-6.86,15-5.17,9.55,2.25,14,6,14,11.88C399.73,148.18,396.83,148.59,393.45,145.46Zm-104.94.45c-4-7.12,13.44-16.51,24.55-13.22,5.66,1.67,9.47,5.09,8.57,7.68-.79,2.27-3.92,2.52-9.62.78-5.15-1.57-13.55.17-16.75,3.48C292.59,147.39,289.65,147.94,288.51,145.91Zm-1.76-38.25c-3.05-1.68-3.73-2.79-4-6.53s.24-5.1,2.65-7.55c7.51-7.65,23.48-13.18,31.58-11,3.11.86,6.09,6.24,6.09,11,0,5.07-5.34,10.07-10.69,10-2.42,0-7.79,1.12-11.92,2.57s-8.07,2.83-8.76,3.07-2.91-.49-4.93-1.6Zm99.83-.41a94.43,94.43,0,0,0-11.67-3.89c-7.63-1.84-10.24-4.62-10.2-10.85,0-5.38,1.36-8,5.2-10.22,2-1.17,3.83-1.08,9.31.45,11.5,3.23,19,8.41,22.31,15.43,2.14,4.53.94,7.94-3.52,10S393.86,110.29,386.58,107.25Z" transform="translate(-6.5 -7.72)"/><path id="path2273" class="cls-5" d="M296.76,833c-12.76-1.71-33.11-6-39.06-8.29l-3.85-1.46L264.08,818c5.63-2.86,11.91-6.32,13.95-7.68l3.73-2.47L278.58,805c-9.16-8.28-22.89-13.57-37.52-14.45-9-.54-10.92-1-9.31-2,1.28-.84,8.89-1.29,20.65-1.22,16.44.1,19.91.48,29.58,3.29a115.92,115.92,0,0,1,39.64,21.22c10.72,8.78,20.72,20.53,18.68,22s-30.58.92-43.54-.81Zm76.58-27.28a204.53,204.53,0,0,1,35.05-15.82c10.92-3.72,31.21-8.32,39.53-9,3.79-.29,3.12-.08-2.89.94a123.85,123.85,0,0,0-13.45,3.07c-5.5,1.71-14.33,6.47-14.33,7.72,0,.7,16.26,4.65,35,8.5l12.53,2.57-4.68,1.22c-12.49,3.26-28.7,4.45-68,5l-26.84.37ZM393.46,145.5c-5.15-4.72-10-5.85-16.22-3.79-3.19,1.06-5.8,1.34-6.38.71-1.52-1.67,0-6.5,2.67-8.29,5.79-3.93,22.14-.25,25,5.63C401.71,146.28,398.4,150,393.46,145.5Zm-104.73.88c-2.57-2.83,2.18-9.51,8.81-12.38,8-3.48,22.24-.95,24.07,4.29,1.28,3.66-1.39,4.61-8.67,3.09-8-1.67-14-.54-17.72,3.29-2.43,2.51-5.11,3.22-6.49,1.71ZM285,106.77c-3.57-2.74-3.32-9.37.49-13.26C290.24,88.63,301.83,83,308.3,82.4c8-.73,11.13.35,13.09,4.53,2.33,4.95,2.07,9-.8,12.69-2,2.53-3.71,3.26-8.89,3.75a46.46,46.46,0,0,0-11.81,2.94c-6.52,2.82-11.66,3-14.93.46Zm97.24-1.18c-3.91-1.57-8.39-2.89-9.94-2.91-6.74-.12-10.31-12-5.35-17.89,7.33-8.65,35.28,5.07,35.28,17.33C402.19,109.15,394.39,110.51,382.2,105.59Z" transform="translate(-6.5 -7.72)"/><path id="path2271" class="cls-4" d="M288.73,146.38c-2.63-2.9,1.39-8.62,8.29-11.79,10.35-4.75,29.59.82,23.14,6.71-1.31,1.19-2.68,1.21-6.52.08a32.74,32.74,0,0,0-7.31-1.37c-3.82.08-10.95,3.22-12,5.3-1,1.9-4.26,2.53-5.59,1.07Zm103.87-1.62c-3.34-4-9.39-5.41-14.94-3.34s-7.51,1.65-7.51-1.48c0-4,5.18-7.21,11.52-7.21,9.61,0,18.06,5.45,18.06,11.67C399.73,148,395.44,148.22,392.6,144.76ZM286.06,107.17c-5.74-3-3.86-11.27,3.78-16.6,17.2-12,32.83-10.86,32.51,2.34-.16,7.08-2.41,9.23-10.55,10.11a53,53,0,0,0-12.58,3.18C292.84,108.91,289.78,109.13,286.06,107.17Zm98.88-.93a40.23,40.23,0,0,0-9.81-3.11c-9.62-1.56-13.6-10.23-8.18-17.8,2.84-4,7.84-4.19,17-.73,11.05,4.17,18,11,18,17.78C401.92,108.48,393.23,110.45,384.94,106.24Z" transform="translate(-6.5 -7.72)"/><path id="path2932" class="cls-6" d="M332.64,821.71a112.21,112.21,0,0,0-51.12-31.85c-15.26-4.37-48.61-5.26-50.8-1.35-.79,1.4-4.33,2.54-7.87,2.54s-11.31,1.61-17.26,3.58c-9.13,3-11.32,3-14,.13-1.73-1.91-3.73-2.83-4.44-2-1.75,1.93-50.29-27.57-67.51-41C97.36,734.25,82.22,718,76.81,705.73c-4.71-10.68-4.8-11.86-1.34-17.66,4.49-7.53,12.1-12.35,15.67-9.93,1.5,1,2,.66,1.16-.83C87.9,669.5,170.91,655.83,240,653c13.84-.57,13.88-.59,13.1-7.91-1-9,2.43-11.64,15.18-11.7,8.39,0,10.25,1,13.13,7.09,1.84,3.92,8.15,12,14,17.93,28.38,28.76,64.9,28.88,100.75.35L413.5,645c2.54-2,9.83-4,16.19-4.45,10.51-.73,11.64-.28,12.31,4.93.48,3.71-1.67,8.4-6.08,13.24-7.15,7.86-7.34,11.79-.38,7.69,6.76-4,97.48-5.81,139.91-2.82,46.76,3.29,60.21,6.54,66.69,16.12,4.1,6.08,4.34,8.09,2,16.73C642,704.2,621,732.55,617.35,732.55c-.42,0-4.46,3.84-9,8.53-9.47,9.82-41.77,33.61-63.2,46.56-13.16,8-15.49,8.6-22.29,6.13-34.46-12.5-37.08-13.06-59.23-12.59-33.85.73-55.9,10.71-86,38.94-12.81,12-16.42,14.11-24.38,14.14-8.15,0-10.77-1.57-20.61-12.55Zm53.94-60.52c15.17-17.2,48.29-30.49,87.65-35.2,7.95-1,14.46-2.55,14.46-3.55,0-2.1-40.3-5.15-67.92-5.15-10.74,0-17.68-.94-16.41-2.22s13.51-5.84,27.34-10.27,28.93-10.24,33.55-12.93l8.4-4.88-16.19-.06c-8.91,0-27,1.63-40.3,3.7s-24.52,3.31-25,2.76,5.4-6.34,13.12-12.86c15-12.67,18.95-18.23,6.5-9.09-25.47,18.71-52.29,24.53-77.05,16.74-7.57-2.38-25.47-11.12-39.77-19.4S268.4,653.7,267.75,653.7c-3.24,0-.4,9.23,6,19.44,3.94,6.29,6.76,11.89,6.27,12.43s-10.74-.66-22.78-2.68c-24.29-4.06-53.12-4.93-53.12-1.59,0,2.36,10.46,7.82,30.08,15.69l12.72,5.11L233,700.75c-41.17-4-53.77-4.4-55.28-1.71-2,3.54,13.46,8.47,53,16.9,79.55,17,103.81,30.24,124.13,67.84l9.59,17.75,6.59-15.1c3.63-8.31,10.62-19.66,15.55-25.24Z" transform="translate(-6.5 -7.72)"/></g></svg>