<?xml version="1.0" encoding="utf-8"?>
<!-- Generator: Adobe Illustrator 22.1.0, SVG Export Plug-In . SVG Version: 6.00 Build 0)  -->
<svg version="1.1" id="Capa_1" xmlns="http://www.w3.org/2000/svg" xmlns:xlink="http://www.w3.org/1999/xlink" x="0px" y="0px"
	 viewBox="0 0 297 297" style="enable-background:new 0 0 297 297;" xml:space="preserve">
<g>
	<path d="M152.8,245.7c1,0,1.9-1.1,1.9-2.4s-0.9-2.4-1.9-2.4c-1,0-1.9,1.1-1.9,2.4C150.9,244.6,151.8,245.7,152.8,245.7z"/>
	<path d="M155.7,242.1c0.1,0.4,0.1,0.8,0.1,1.2c0,2.2-1.4,3.9-3,3.9c-1.5,0-2.8-1.4-3-3.3l-12.7,4.7c-0.4,0.1-0.6,0.6-0.6,1.2h24
		C160.1,244.8,156.6,242.5,155.7,242.1z"/>
	<path d="M160.2,251.2h-23.4c-0.2,0-0.3,0.2-0.3,0.4v2.6c0,0.2,0.1,0.4,0.3,0.4h23.4c0.2,0,0.3-0.2,0.3-0.4v-2.6
		C160.5,251.4,160.4,251.2,160.2,251.2z"/>
	<path d="M136.5,263.8c0,0.6,0.4,1,0.8,1h22.4c0.5,0,0.8-0.5,0.8-1v-7.7h-24V263.8z M156.6,257.8c0.2-0.2,0.4-0.3,0.6-0.3
		c0.2,0,0.4,0.1,0.6,0.3c0.2,0.2,0.2,0.5,0.2,0.7c0,0.3-0.1,0.5-0.2,0.7c-0.2,0.2-0.4,0.3-0.6,0.3c-0.2,0-0.4-0.1-0.6-0.3
		c-0.2-0.2-0.2-0.5-0.2-0.7C156.3,258.3,156.4,258,156.6,257.8z M154.3,257.5c0.5,0,0.8,0.5,0.8,1c0,0.6-0.4,1-0.8,1
		c-0.5,0-0.8-0.5-0.8-1C153.4,258,153.8,257.5,154.3,257.5z M151.4,257.5c0.5,0,0.8,0.5,0.8,1c0,0.6-0.4,1-0.8,1
		c-0.5,0-0.8-0.5-0.8-1C150.6,258,150.9,257.5,151.4,257.5z M148.5,257.5c0.5,0,0.8,0.5,0.8,1c0,0.6-0.4,1-0.8,1
		c-0.5,0-0.8-0.5-0.8-1C147.7,258,148,257.5,148.5,257.5z M145.6,257.5c0.5,0,0.8,0.5,0.8,1c0,0.6-0.4,1-0.8,1c-0.5,0-0.8-0.5-0.8-1
		C144.8,258,145.2,257.5,145.6,257.5z M142.7,257.5c0.5,0,0.8,0.5,0.8,1c0,0.6-0.4,1-0.8,1c-0.5,0-0.8-0.5-0.8-1
		C141.9,258,142.3,257.5,142.7,257.5z M139.3,257.8c0.2-0.2,0.4-0.3,0.6-0.3c0.2,0,0.4,0.1,0.6,0.3c0.2,0.2,0.2,0.5,0.2,0.7
		c0,0.3-0.1,0.5-0.2,0.7c-0.2,0.2-0.4,0.3-0.6,0.3c-0.2,0-0.4-0.1-0.6-0.3c-0.2-0.2-0.2-0.5-0.2-0.7
		C139,258.3,139.1,258,139.3,257.8z"/>
</g>
</svg>
