<svg height="480pt" viewBox="0 0 480 480" width="480pt" xmlns="http://www.w3.org/2000/svg" xmlns:xlink="http://www.w3.org/1999/xlink"><linearGradient id="a"><stop offset="0" stop-color="#f9a86d"/><stop offset=".503" stop-color="#f05361"/><stop offset="1" stop-color="#b72563"/></linearGradient><linearGradient id="b" gradientUnits="userSpaceOnUse" x1="-16" x2="499.056" xlink:href="#a" y1="199.992" y2="199.992"/><linearGradient id="c" gradientUnits="userSpaceOnUse" x1="-16" x2="499.056" xlink:href="#a" y1="392" y2="392"/><linearGradient id="d" gradientUnits="userSpaceOnUse" x1="-16" x2="499.056" xlink:href="#a" y1="240" y2="240"/><path d="m195.023438 252.800781c.074218.128907.097656.289063.175781.40625.449219.714844.898437 1.425781 1.386719 2.074219 7.386718 10.46875 19.398437 16.703125 32.214843 16.71875 16.878907 0 34.128907-10.183594 47.304688-27.945312 23-30.992188 26.664062-74.628907 8.328125-99.335938-2.347656-3.183594-5.117188-6.039062-8.226563-8.488281-8.390625-6.601563-19.144531-9.4375-29.703125-7.832031-17 3.226562-31.992187 13.152343-41.601562 27.546874-22.09375 29.78125-26.445313 71.328126-10.109375 96.628907.0625.089843.167969.128906.230469.226562zm68.175781-18.289062c-7.585938 12.035156-20.253907 19.949219-34.398438 21.488281-6.140625.027344-12.03125-2.421875-16.34375-6.792969l.6875-.574219c1.066407-.847656 2.113281-1.671874 3.136719-2.464843l.902344-.695313c1.328125-.992187 2.664062-1.976562 4-2.96875 13.066406-8.84375 24.167968-20.28125 32.625-33.601562 9.050781-12.929688 15.347656-27.582032 18.503906-43.046875.496094-2.085938 1.007812-4.136719 1.542969-6.199219l.335937-1.222656c10.65625 19.574218 6.167969 53.007812-10.992187 76.078125zm-45.464844-69.039063c7.117187-10.839844 18.199219-18.460937 30.867187-21.234375 1.171876-.152343 2.351563-.234375 3.535157-.238281 3.148437-.015625 6.269531.617188 9.167969 1.855469-.058594.167969-.089844.3125-.144532.472656-.878906 2.503906-1.601562 4.871094-2.238281 7.199219-.195313.679687-.378906 1.351562-.554687 2.023437-.589844 2.234375-1.136719 4.425781-1.648438 6.570313-2.726562 13.613281-8.25 26.511718-16.222656 37.878906-7.414063 11.753906-17.195313 21.835938-28.71875 29.601562-2.503906 1.824219-5.042969 3.671876-7.664063 5.757813-6.417969-24.15625-1.386719-49.921875 13.65625-69.886719zm0 0" fill="url(#b)"/><path d="m320 384h-160c-4.417969 0-8 3.582031-8 8s3.582031 8 8 8h160c4.417969 0 8-3.582031 8-8s-3.582031-8-8-8zm0 0" fill="url(#c)"/><path d="m456 40h-51.382812l3.335937-31.152344c.238281-2.253906-.488281-4.507812-2.007813-6.195312-1.515624-1.6875-3.675781-2.652344-5.945312-2.652344h-318.175781c-2.269531 0-4.429688.964844-5.949219 2.652344-1.515625 1.6875-2.242188 3.941406-2.003906 6.195312l41.457031 386.921875c.070313 7.203125 2.234375 14.230469 6.222656 20.230469h-113.550781c-4.417969 0-8 3.582031-8 8 .0351562 30.914062 25.085938 55.964844 56 56h368c30.914062-.035156 55.964844-25.085938 56-56 0-4.417969-3.582031-8-8-8h-111.726562c3.988281-6 6.152343-13.027344 6.222656-20.230469l14.121094-131.769531h75.382812c13.253906 0 24-10.746094 24-24v-176c0-13.253906-10.746094-24-24-24zm-56.527344 48h24.046875c4.386719.042969 7.921875 3.613281 7.921875 8v112c0 4.386719-3.535156 7.957031-7.921875 8h-37.757812zm24.527344 376h-368c-19-.019531-35.375-13.386719-39.199219-32h446.398438c-3.824219 18.613281-20.199219 31.980469-39.199219 32zm-273.007812-48c-11.136719-.300781-19.929688-9.550781-19.664063-20.6875 0-.285156-.015625-.566406-.046875-.847656l-40.554688-378.464844h300.371094l-40.554687 378.464844c-.03125.28125-.046875.5625-.046875.847656.265625 11.136719-8.53125 20.386719-19.664063 20.6875zm313.007812-176c0 4.417969-3.582031 8-8 8h-73.671875l1.710937-16h39.480469c13.222657-.042969 23.921875-10.777344 23.921875-24v-112c0-13.222656-10.699218-23.957031-23.921875-24h-22.335937l1.71875-16h53.097656c4.417969 0 8 3.582031 8 8zm0 0" fill="url(#d)"/></svg>