<?xml version="1.0" encoding="utf-8"?>
<!-- Generator: Adobe Illustrator 22.1.0, SVG Export Plug-In . SVG Version: 6.00 Build 0)  -->
<svg version="1.1" id="Слой_1" xmlns="http://www.w3.org/2000/svg" xmlns:xlink="http://www.w3.org/1999/xlink" x="0px" y="0px"
	 viewBox="0 0 1700 800" style="enable-background:new 0 0 1700 800;" xml:space="preserve">
<style type="text/css">
	.st0{fill:none;stroke:#000000;stroke-width:1.5;stroke-miterlimit:10;}
	.st1{fill:none;}
	.st2{font-family:'MyriadPro-Regular';}
	.st3{font-size:12.642px;}
	.st4{font-family:'Rockwell-Condensed';}
	.st5{font-size:22.1235px;}
	.st6{fill:#999999;}
	.st7{letter-spacing:1.3;}
	.st8{font-size:21px;}
	.st9{letter-spacing:0.9;}
	.st10{letter-spacing:1.1;}
	.st11{letter-spacing:1;}
	.st12{fill:#4D4D4D;}
	.st13{letter-spacing:1.4;}
	.st14{fill:#F2F2F2;}
	.st15{letter-spacing:1.5;}
	.st16{font-size:18px;}
	.st17{font-size:21.1157px;}
	.st18{letter-spacing:1.2;}
	.st19{font-size:14.8159px;}
	.st20{font-size:13.3298px;}
	.st21{font-size:19.1728px;}
	.st22{font-size:21.4379px;}
	.st23{font-size:19.2285px;}
	.st24{font-size:19.0621px;}
	.st25{font-size:21.2661px;}
	.st26{font-size:17.6367px;}
	.st27{font-size:17.0818px;}
</style>
<path class="st0" d="M1687.4,160c4.2,0,8.4,0,12.6,0"/>
<path class="st0" d="M1658.7,160c5.1,0,10.3,0,15.4,0"/>
<path class="st0" d="M1628.6,160c5.4,0,10.7,0,16.1,0"/>
<path class="st0" d="M1595.1,160c6.5,0,13,0,19.5,0"/>
<path class="st0" d="M1563.4,160c5.7,0,11.5,0,17.2,0"/>
<path class="st0" d="M1531.2,160c6.2,0,12.3,0,18.5,0"/>
<path class="st0" d="M1503.4,160c4.6,0,9.3,0,13.9,0"/>
<path class="st0" d="M1471.9,160c5.8,0,11.7,0,17.5,0"/>
<path class="st0" d="M1446.2,160c3.7,0,7.4,0,11.2,0"/>
<path class="st0" d="M1409.9,160c7.4,0,14.9,0,22.3,0"/>
<path class="st0" d="M1380.7,160c5.1,0,10.2,0,15.3,0"/>
<path class="st0" d="M1359.8,160c2.3,0,4.6,0,6.9,0"/>
<path class="st0" d="M1332.7,160c4.4,0,8.8,0,13.2,0"/>
<path class="st0" d="M1300.5,160c6.1,0,12.1,0,18.2,0"/>
<path class="st0" d="M1267.7,160c6.3,0,12.6,0,18.9,0"/>
<path class="st0" d="M1230.7,160c7.7,0,15.3,0,23,0"/>
<path class="st0" d="M1204.9,160c4,0,7.9,0,11.9,0"/>
<path class="st0" d="M1181.8,160c3,0,6.1,0,9.1,0"/>
<path class="st0" d="M1147.5,160c6.8,0,13.5,0,20.3,0"/>
<path class="st0" d="M1107.8,160c8.6,0,17.2,0,25.8,0"/>
<path class="st0" d="M1079.1,160c4.9,0,9.8,0,14.7,0"/>
<path class="st0" d="M1051.8,160c4.4,0,8.9,0,13.3,0"/>
<path class="st0" d="M1014.1,160c7.9,0,15.9,0,23.8,0"/>
<path class="st0" d="M983.3,160c5.6,0,11.2,0,16.8,0"/>
<path class="st0" d="M949.2,160c6.5,0,13,0,19.5,0"/>
<path class="st0" d="M926.1,160c2.3,0,4.7,0,7,0"/>
<path class="st0" d="M903.8,160c2.3,0,4.7,0,7,0"/>
<path class="st0" d="M880.7,160c3,0,6.1,0,9.1,0"/>
<path class="st0" d="M850.6,160c4.9,0,9.8,0,14.7,0"/>
<path class="st0" d="M829,160c2.6,0,5.1,0,7.7,0"/>
<path class="st0" d="M798.2,160c5.6,0,11.2,0,16.8,0"/>
<path class="st0" d="M773,160c3.7,0,7.5,0,11.2,0"/>
<path class="st0" d="M742.4,160c5.6,0,11.1,0,16.7,0"/>
<path class="st0" d="M717.2,160c3.7,0,7.5,0,11.2,0"/>
<path class="st0" d="M692.7,160c3.3,0,6.5,0,9.8,0"/>
<path class="st0" d="M661.3,160c5.8,0,11.6,0,17.4,0"/>
<path class="st0" d="M637.6,160c3.3,0,6.5,0,9.8,0"/>
<path class="st0" d="M612.4,160c3.5,0,7,0,10.5,0"/>
<path class="st0" d="M583.1,160c5.1,0,10.2,0,15.4,0"/>
<path class="st0" d="M558.6,160c3.5,0,7,0,10.5,0"/>
<path class="st0" d="M527.8,160c5.6,0,11.2,0,16.8,0"/>
<path class="st0" d="M498.5,160c5.1,0,10.3,0,15.4,0"/>
<path class="st0" d="M480.3,160c1.4,0,2.8,0,4.2,0"/>
<path class="st0" d="M450.2,160c5.4,0,10.7,0,16.1,0"/>
<path class="st0" d="M425.7,160c3.5,0,7,0,10.5,0"/>
<path class="st0" d="M404,160c2.6,0,5.1,0,7.7,0"/>
<path class="st0" d="M382.4,160c2.6,0,5.1,0,7.7,0"/>
<path class="st0" d="M357.9,160c3.5,0,7,0,10.5,0"/>
<path class="st0" d="M329.9,160c4.7,0,9.3,0,14,0"/>
<path class="st0" d="M306.8,160c3,0,6.1,0,9.1,0"/>
<path class="st0" d="M281.6,160c3.7,0,7.5,0,11.2,0"/>
<path class="st0" d="M254.3,160c4.4,0,8.9,0,13.3,0"/>
<path class="st0" d="M226.3,160c4.7,0,9.3,0,14,0"/>
<path class="st0" d="M199.1,160c4.4,0,8.9,0,13.3,0"/>
<path class="st0" d="M173.2,160c4,0,7.9,0,11.9,0"/>
<path class="st0" d="M150.8,160c2.8,0,5.6,0,8.4,0"/>
<path class="st0" d="M121.4,160c5.1,0,10.3,0,15.4,0"/>
<path class="st0" d="M94.8,160c4.2,0,8.4,0,12.6,0"/>
<path class="st0" d="M67.5,160c4.4,0,8.9,0,13.3,0"/>
<path class="st0" d="M47.2,160c2.1,0,4.2,0,6.3,0"/>
<path class="st0" d="M22,160c3.7,0,7.5,0,11.2,0"/>
<path class="st0" d="M0,160c3,0,6,0,8.6,0"/>
<path class="st0" d="M1690.7,285c3.3,0,6.3,0,9.3,0"/>
<path class="st0" d="M1661.9,285c5.1,0,10.3,0,15.4,0"/>
<path class="st0" d="M1637.4,285c3.5,0,7,0,10.5,0"/>
<path class="st0" d="M1610.8,285c4.2,0,8.4,0,12.6,0"/>
<path class="st0" d="M1587.7,285c3,0,6.1,0,9.1,0"/>
<path class="st0" d="M1556.9,285c5.6,0,11.2,0,16.8,0"/>
<path class="st0" d="M1533.1,285c3.3,0,6.5,0,9.8,0"/>
<path class="st0" d="M1507.9,285c3.7,0,7.5,0,11.2,0"/>
<path class="st0" d="M1477.2,285c5.6,0,11.2,0,16.8,0"/>
<path class="st0" d="M1446.4,285c5.6,0,11.2,0,16.8,0"/>
<path class="st0" d="M1412.1,285c6.8,0,13.5,0,20.3,0"/>
<path class="st0" d="M1377.1,285c7,0,14,0,21,0"/>
<path class="st0" d="M1346.3,285c5.6,0,11.2,0,16.8,0"/>
<path class="st0" d="M1312,285c6.8,0,13.5,0,20.3,0"/>
<path class="st0" d="M1279.8,285c6.1,0,12.1,0,18.2,0"/>
<path class="st0" d="M1254.6,285c4,0,7.9,0,11.9,0"/>
<path class="st0" d="M1223.9,285c5.6,0,11.2,0,16.8,0"/>
<path class="st0" d="M1193.9,285c5.4,0,10.7,0,16.1,0"/>
<path class="st0" d="M1163.8,285c5.4,0,10.7,0,16.1,0"/>
<path class="st0" d="M1133.8,285c5.4,0,10.7,0,16.1,0"/>
<path class="st0" d="M1113.6,285c1.9,0,3.7,0,5.6,0"/>
<path class="st0" d="M1086.3,285c4.4,0,8.9,0,13.3,0"/>
<path class="st0" d="M1060.4,285c4,0,7.9,0,11.9,0"/>
<path class="st0" d="M1018.5,285c9.3,0,18.7,0,28,0"/>
<path class="st0" d="M994,285c3.7,0,7.5,0,11.2,0"/>
<path class="st0" d="M963.2,285c5.4,0,10.7,0,16.1,0"/>
<path class="st0" d="M936,285c4.4,0,8.8,0,13.3,0"/>
<path class="st0" d="M906,285c5.4,0,10.7,0,16.1,0"/>
<path class="st0" d="M876.6,285c4.9,0,9.8,0,14.7,0"/>
<path class="st0" d="M841,285c7.2,0,14.4,0,21.7,0"/>
<path class="st0" d="M820,285c2.3,0,4.7,0,7,0"/>
<path class="st0" d="M783,285c7.4,0,14.9,0,22.3,0"/>
<path class="st0" d="M754.4,285c4.9,0,9.8,0,14.6,0"/>
<path class="st0" d="M731.3,285c3,0,6.1,0,9.1,0"/>
<path class="st0" d="M695.7,285c6.8,0,13.5,0,20.3,0"/>
<path class="st0" d="M657.3,285c8.1,0,16.2,0,24.3,0"/>
<path class="st0" d="M638.5,285c1.6,0,3.3,0,4.9,0"/>
<path class="st0" d="M604.3,285c5.6,0,11.2,0,16.8,0"/>
<path class="st0" d="M573.5,285c5.6,0,11.2,0,16.8,0"/>
<path class="st0" d="M535.8,285c7.9,0,15.8,0,23.7,0"/>
<path class="st0" d="M514.9,285c2.5,0,5.1,0,7.6,0"/>
<path class="st0" d="M487,285c4.7,0,9.3,0,14,0"/>
<path class="st0" d="M459.1,285c4.7,0,9.3,0,14,0"/>
<path class="st0" d="M436,285c3,0,6,0,9,0"/>
<path class="st0" d="M403.2,285c6.3,0,12.6,0,18.9,0"/>
<path class="st0" d="M377.4,285c4,0,7.9,0,11.9,0"/>
<path class="st0" d="M350.8,285c4.2,0,8.4,0,12.6,0"/>
<path class="st0" d="M321.5,285c4.7,0,9.3,0,14,0"/>
<path class="st0" d="M302.6,285c1.6,0,3.2,0,4.9,0"/>
<path class="st0" d="M277.5,285c3.5,0,7,0,10.5,0"/>
<path class="st0" d="M255.9,285c2.5,0,5.1,0,7.6,0"/>
<path class="st0" d="M232.2,285c3.3,0,6.5,0,9.8,0"/>
<path class="st0" d="M205,285c4.4,0,8.8,0,13.2,0"/>
<path class="st0" d="M174.4,285c5.6,0,11.2,0,16.8,0"/>
<path class="st0" d="M150,285c3.5,0,6.9,0,10.4,0"/>
<path class="st0" d="M120.4,285c5.3,0,10.5,0,15.8,0"/>
<path class="st0" d="M93.6,285c4.4,0,8.7,0,13.1,0"/>
<path class="st0" d="M64.6,285c3.9,0,7.9,0,11.8,0"/>
<path class="st0" d="M36.8,285c4.4,0,8.8,0,13.2,0"/>
<path class="st0" d="M0,285c7.6,0,15.3,0,22.9,0"/>
<path class="st0" d="M1688.2,479c3.9,0,7.9,0,11.8,0"/>
<path class="st0" d="M1661,479c4.4,0,8.8,0,13.2,0"/>
<path class="st0" d="M1626.8,479c6.7,0,13.5,0,20.2,0"/>
<path class="st0" d="M1600.5,479c4.3,0,8.5,0,12.8,0"/>
<path class="st0" d="M1569.5,479c5.1,0,10.1,0,15.2,0"/>
<path class="st0" d="M1534.6,479c7,0,14,0,20.9,0"/>
<path class="st0" d="M1499,479c6,0,12.1,0,18.1,0"/>
<path class="st0" d="M1460.7,479c8.1,0,16.3,0,24.4,0"/>
<path class="st0" d="M1427.8,479c6.1,0,12.1,0,18.2,0"/>
<path class="st0" d="M1400.6,479c4.4,0,8.8,0,13.3,0"/>
<path class="st0" d="M1357.9,479c9.1,0,18.2,0,27.3,0"/>
<path class="st0" d="M1325,479c6.3,0,12.6,0,18.9,0"/>
<path class="st0" d="M1283.8,479c9.1,0,18.2,0,27.3,0"/>
<path class="st0" d="M1259.3,479c3.5,0,7,0,10.5,0"/>
<path class="st0" d="M1237.1,479c2.8,0,5.6,0,8.3,0"/>
<path class="st0" d="M1196.6,479c8.9,0,17.7,0,26.6,0"/>
<path class="st0" d="M1154.6,479c9.3,0,18.7,0,28,0"/>
<path class="st0" d="M1125.2,479c5.1,0,10.3,0,15.4,0"/>
<path class="st0" d="M1093.8,479c5.8,0,11.7,0,17.5,0"/>
<path class="st0" d="M1058.1,479c6.3,0,12.6,0,18.9,0"/>
<path class="st0" d="M1028.7,479c6.1,0,12.1,0,18.2,0"/>
<path class="st0" d="M1000.2,479c4.9,0,9.8,0,14.6,0"/>
<path class="st0" d="M969.4,479c5.6,0,11.2,0,16.8,0"/>
<path class="st0" d="M937.4,479c6,0,12.1,0,18.1,0"/>
<path class="st0" d="M910.8,479c4.2,0,8.4,0,12.6,0"/>
<path class="st0" d="M875.2,479c7,0,14,0,21,0"/>
<path class="st0" d="M831.9,479c9.8,0,19.5,0,29.3,0"/>
<path class="st0" d="M796.9,479c7,0,14,0,21,0"/>
<path class="st0" d="M762.7,479c6.7,0,13.5,0,20.2,0"/>
<path class="st0" d="M734,479c4.9,0,9.8,0,14.7,0"/>
<path class="st0" d="M703.9,479c5.1,0,10.3,0,15.4,0"/>
<path class="st0" d="M665.5,479c8.2,0,16.3,0,24.5,0"/>
<path class="st0" d="M641,479c3.5,0,7,0,10.5,0"/>
<path class="st0" d="M612.3,479c4.2,0,8.4,0,12.6,0"/>
<path class="st0" d="M576.7,479c4.9,0,9.8,0,14.7,0"/>
<path id="SVGID_x5F_1_x5F_" class="st1" d="M548,479c4.7,0,9.3,0,14,0"/>
<text><textPath  xlink:href="#SVGID_x5F_1_x5F_" startOffset="4.6875%">
</textPath>
</text>
<path class="st0" d="M520.1,479c4.4,0,8.8,0,13.3,0"/>
<path class="st0" d="M490.7,479c5.1,0,10.3,0,15.4,0"/>
<path class="st0" d="M464.8,479c3.7,0,7.5,0,11.2,0"/>
<path class="st0" d="M429.8,479c7,0,14,0,21,0"/>
<path class="st0" d="M386.5,479c9.8,0,19.6,0,29.4,0"/>
<path class="st0" d="M364.1,479c3,0,6.1,0,9.1,0"/>
<path class="st0" d="M327,479c7.7,0,15.4,0,23.1,0"/>
<path class="st0" d="M282.2,479c9.6,0,19.1,0,28.7,0"/>
<path class="st0" d="M243.7,479c5.4,0,10.7,0,16.1,0"/>
<path class="st0" d="M215,479c3.5,0,7,0,10.5,0"/>
<path class="st0" d="M185,479c5.4,0,10.7,0,16.1,0"/>
<path class="st0" d="M147.9,479c7.7,0,15.4,0,23.1,0"/>
<path class="st0" d="M105.2,479c9.6,0,19.1,0,28.7,0"/>
<path class="st0" d="M77.9,479c4.4,0,8.9,0,13.3,0"/>
<path class="st0" d="M52.7,479c3.7,0,7.5,0,11.2,0"/>
<path class="st0" d="M24,479c4.9,0,9.8,0,14.7,0"/>
<path class="st0" d="M0,479c4,0,7,0,10.6,0"/>
<path class="st0" d="M1692,639c3,0,5,0,8,0"/>
<path class="st0" d="M1668.9,639c3.3,0,6.5,0,9.8,0"/>
<path class="st0" d="M1635.3,639c7,0,14,0,21,0"/>
<path class="st0" d="M1605.2,639c5.6,0,11.2,0,16.8,0"/>
<path class="st0" d="M1572.3,639c6.5,0,13.1,0,19.6,0"/>
<path class="st0" d="M1533.1,639c8.4,0,16.8,0,25.2,0"/>
<path class="st0" d="M1503,639c5.4,0,10.7,0,16.1,0"/>
<path class="st0" d="M1469.4,639c6.5,0,13.1,0,19.6,0"/>
<path class="st0" d="M1443.5,639c4,0,7.9,0,11.9,0"/>
<path class="st0" d="M1411.3,639c4.2,0,8.4,0,12.6,0"/>
<path class="st0" d="M1368.7,639c9.6,0,19.1,0,28.7,0"/>
<path class="st0" d="M1333.7,639c7,0,14,0,21,0"/>
<path class="st0" d="M1298,639c5.6,0,11.2,0,16.8,0"/>
<path class="st0" d="M1260.9,639c7.5,0,14.9,0,22.4,0"/>
<path class="st0" d="M1226,639c7,0,14,0,21,0"/>
<path class="st0" d="M1197.3,639c4.9,0,9.8,0,14.7,0"/>
<path class="st0" d="M1170.7,639c4.2,0,8.4,0,12.6,0"/>
<path class="st0" d="M1138.5,639c5.6,0,11.2,0,16.8,0"/>
<path class="st0" d="M1106.4,639c5.6,0,11.2,0,16.8,0"/>
<path class="st0" d="M1075.6,639c5.6,0,11.2,0,16.8,0"/>
<path class="st0" d="M1055.3,639c2.1,0,4.2,0,6.3,0"/>
<path class="st0" d="M1023.9,639c5.8,0,11.7,0,17.5,0"/>
<path class="st0" d="M994.5,639c5.1,0,10.3,0,15.4,0"/>
<path class="st0" d="M965.1,639c5.1,0,10.3,0,15.4,0"/>
<path class="st0" d="M939.2,639c4,0,7.9,0,11.9,0"/>
<path class="st0" d="M915.4,639c3.5,0,7,0,10.5,0"/>
<path class="st0" d="M884.7,639c5.6,0,11.2,0,16.8,0"/>
<path class="st0" d="M844.1,639c8.6,0,17.3,0,25.9,0"/>
<path class="st0" d="M809.1,639c7,0,14,0,21,0"/>
<path class="st0" d="M775.5,639c6.5,0,13.1,0,19.6,0"/>
<path class="st0" d="M744.1,639c5.8,0,11.6,0,17.5,0"/>
<path class="st0" d="M696.6,639c11.2,0,22.3,0,33.5,0"/>
<path class="st0" d="M660.4,639c7.2,0,14.4,0,21.6,0"/>
<path class="st0" d="M614.4,639c10.7,0,21.4,0,32.1,0"/>
<path class="st0" d="M569.6,639c10.3,0,20.5,0,30.8,0"/>
<path class="st0" d="M541,639c4.9,0,9.7,0,14.6,0"/>
<path class="st0" d="M482.4,639c14.9,0,29.8,0,44.8,0"/>
<path class="st0" d="M448.1,639c6.8,0,13.5,0,20.3,0"/>
<path class="st0" d="M411.8,639c7.5,0,14.9,0,22.4,0"/>
<path class="st0" d="M374.8,639c7.7,0,15.4,0,23.1,0"/>
<path class="st0" d="M343.3,639c6.3,0,12.6,0,18.9,0"/>
<path class="st0" d="M294.4,639c11.9,0,23.8,0,35.7,0"/>
<path class="st0" d="M251.2,639c9.7,0,19.5,0,29.2,0"/>
<path class="st0" d="M219.8,639c5.8,0,11.7,0,17.5,0"/>
<path class="st0" d="M193.9,639c3.9,0,7.9,0,11.8,0"/>
<path class="st0" d="M153,639c8.5,0,17.1,0,25.6,0"/>
<path class="st0" d="M113.7,639c8.5,0,17,0,25.5,0"/>
<path class="st0" d="M65.8,639c11.4,0,22.8,0,34.1,0"/>
<path class="st0" d="M28.5,639c7.6,0,15.3,0,22.9,0"/>
<path class="st0" d="M0,639c4.9,0,9.7,0,14.6,0"/>
<line class="st0" x1="131" y1="31" x2="131" y2="800"/>
<line class="st0" x1="307" y1="31" x2="307" y2="800"/>
<line class="st0" x1="497" y1="31" x2="497" y2="800"/>
<line class="st0" x1="671" y1="31" x2="671" y2="800"/>
<line class="st0" x1="851" y1="31" x2="851" y2="800"/>
<line class="st0" x1="1034" y1="31" x2="1034" y2="800"/>
<line class="st0" x1="1207" y1="31" x2="1207" y2="800"/>
<line class="st0" x1="1383" y1="31" x2="1383" y2="800"/>
<line class="st0" x1="1543" y1="31" x2="1543" y2="800"/>
<text transform="matrix(0.7717 0 0 1 5.318 55.7208)"><tspan x="0" y="0" class="st2 st3">      </tspan><tspan x="0" y="15.2" class="st2 st3">    </tspan><tspan x="0" y="41.7" class="st2 st3">    </tspan><tspan x="10.7" y="41.7" class="st4 st3"> </tspan><tspan x="14.9" y="41.7" class="st4 st5"> </tspan><tspan x="22.3" y="41.7" class="st6 st4 st5 st7">PHYSICAL </tspan><tspan x="0" y="68.3" class="st6 st4 st5 st7">  ENVIRONMENT</tspan></text>
<text transform="matrix(1.1071 0 0 1 22.0326 212)"><tspan x="0" y="0" class="st6 st4 st8 st9">USER</tspan><tspan x="0" y="25.2" class="st6 st4 st8 st9">ACTION</tspan></text>
<text transform="matrix(0.9506 0 0 1 22.0326 346.772)"><tspan x="0" y="0" class="st6 st4 st8 st10">FRONT OF </tspan><tspan x="0" y="25.2" class="st6 st4 st8 st10">STAGE</tspan></text>
<text transform="matrix(0.9833 0 0 1 16 535)"><tspan x="0" y="0" class="st6 st4 st8 st11">BACK OF </tspan><tspan x="0" y="25.2" class="st6 st4 st8 st11">STAGE</tspan></text>
<text transform="matrix(1.0756 0 0 1 14.999 703)" class="st6 st4 st8 st9">SUPPORT</text>
<text transform="matrix(0.7121 0 0 1 15 430)"><tspan x="0" y="0" class="st12 st2 st8 st13">Interactions </tspan><tspan x="0" y="25.2" class="st12 st2 st8 st13">you can see</tspan></text>
<text transform="matrix(0.6913 0 0 1 16 594)"><tspan x="0" y="0" class="st12 st2 st8 st13">Interactions </tspan><tspan x="0" y="25.2" class="st12 st2 st8 st13">you can’t see</tspan></text>
<text transform="matrix(0.7773 0 0 1 14.9995 745)"><tspan x="0" y="0" class="st12 st2 st8 st7">Supports </tspan><tspan x="0" y="25.2" class="st12 st2 st8 st7">interactions</tspan></text>
<g>
	<path d="M283.1,36.1h-31c-3,0-5.4,2.6-5.4,5.8v68.3c0,3.2,2.4,5.8,5.4,5.8h31c3,0,5.4-2.6,5.4-5.8V41.9
		C288.5,38.7,286.1,36.1,283.1,36.1z M284.5,100.8h-33.7V45.9h33.7V100.8z M274.8,42h-14.4v-1.7h14.4L274.8,42L274.8,42z
		 M280.9,41.2c0,0.8-0.6,1.5-1.4,1.5c-0.8,0-1.4-0.7-1.4-1.5c0-0.8,0.6-1.5,1.4-1.5C280.3,39.7,280.9,40.4,280.9,41.2z M274.1,109.8
		h-13.1v-4.4h13.1V109.8z"/>
</g>
<g>
	<path d="M203.4,71h-21.6v15.4h21.6L203.4,71L203.4,71z M198.5,81.7h-11.9v-6.1h11.9V81.7z"/>
	<path d="M213.6,97.8V69l6.5,3.6V56.5l-41.5-23l-14.3,7.9v-7.9h-16v16.8l-11.2,6.2v16.1l6.5-3.6v28.8h-6.5v15.4h82.9V97.8H213.6z
		 M153.2,38.1h6.3v6l-6.3,3.5V38.1z M142,59.2l36.6-20.3l36.6,20.3v5.4l-36.6-20.3L142,64.5V59.2z M148.5,66.3l30.1-16.7l30.1,16.7
		v31.5h-33.3V71h-21.6v26.8h-5.4V66.3z M170.6,97.8h-11.9V75.7h11.9V97.8z M215.3,108.6H142v-6.1h73.2V108.6z"/>
</g>
<path d="M278.1,273H139.7c-4.4,0-8.1-5.4-8.1-12v-68c0-6.6,3.6-12,8.1-12h138.5c14.3,15.7,28.6,31.3,42.9,47l0,0
	C306.7,243,292.4,258,278.1,273z"/>
<path d="M450.2,273H296.1c15.2-16.3,30.4-32.7,45.6-49l0,0c-15.2-14.3-30.4-28.7-45.6-43h154.1c15.9,15.7,31.8,31.3,47.7,47
	C482,243,466.1,258,450.2,273z"/>
<path d="M626.7,273H472.7c15.2-16.3,30.4-32.7,45.6-49l0,0c-15.2-14.3-30.4-28.7-45.6-43h154.1c15.9,15.7,31.8,31.3,47.7,47
	C658.5,243,642.6,258,626.7,273z"/>
<path d="M801.9,273H647.8c15.2-16.3,30.4-32.7,45.6-49l0,0c-15.2-14.3-30.4-28.7-45.6-43h154.1c15.9,15.7,31.8,31.3,47.7,47
	C833.7,243,817.8,258,801.9,273z"/>
<path d="M976.6,273H822.5c15.2-16.3,30.4-32.7,45.6-49l0,0c-15.2-14.3-30.4-28.7-45.6-43h154.1c15.9,15.7,31.8,31.3,47.7,47
	C1008.4,243,992.5,258,976.6,273z"/>
<path d="M1153.6,273H999.5c15.2-16.3,30.4-32.7,45.6-49l0,0c-15.2-14.3-30.4-28.7-45.6-43h154.1c15.9,15.7,31.8,31.3,47.7,47
	C1185.4,243,1169.5,258,1153.6,273z"/>
<path d="M1325.9,273h-154.1c15.2-16.3,30.4-32.7,45.6-49l0,0c-15.2-14.3-30.4-28.7-45.6-43h154.1c15.9,15.7,31.8,31.3,47.7,47
	C1357.7,243,1341.8,258,1325.9,273z"/>
<path d="M1499.6,273h-154.1c15.2-16.3,30.4-32.7,45.6-49l0,0c-15.2-14.3-30.4-28.7-45.6-43h154.1c15.9,15.7,31.8,31.3,47.7,47
	C1531.3,243,1515.5,258,1499.6,273z"/>
<path d="M1699.1,273h-182.9c18-16.3,36.1-32.7,54.1-49c-18-14.3-36.1-28.7-54.1-43h182.9c0.3,16.7,0.6,33.3,0.9,50
	C1699.7,245,1699.4,259,1699.1,273z"/>
<text transform="matrix(1 0 0 1 153 223)" class="st2 st8 st11">ы</text>
<text transform="matrix(0.7888 0 0 1 143.3452 223)"><tspan x="0" y="0" class="st14 st2 st8 st7">Goes onto website</tspan><tspan x="0" y="25.2" class="st14 st2 st8 st7">coffeeandcakes.ie</tspan></text>
<text transform="matrix(0.6631 0 0 1 341.7139 223)"><tspan x="0" y="0" class="st14 st2 st8 st15">Looks at coffee, tea </tspan><tspan x="0" y="25.2" class="st14 st2 st8 st15">and cakes menu</tspan></text>
<g>
	<path d="M467.8,38.7h-31c-3,0-5.4,2.6-5.4,5.8v68.3c0,3.2,2.4,5.8,5.4,5.8h31c3,0,5.4-2.6,5.4-5.8V44.6
		C473.1,41.3,470.7,38.7,467.8,38.7z M469.1,103.5h-33.7V48.6h33.7V103.5z M459.5,44.6h-14.4v-1.7h14.4L459.5,44.6L459.5,44.6z
		 M465.6,43.9c0,0.8-0.6,1.5-1.4,1.5c-0.8,0-1.4-0.7-1.4-1.5c0-0.8,0.6-1.5,1.4-1.5C465,42.4,465.6,43,465.6,43.9z M458.8,112.4
		h-13.1v-4.4h13.1V112.4z"/>
</g>
<text transform="matrix(1 0 0 1 317.1944 85.1535)"><tspan x="0" y="0" class="st2 st16 st11">On website </tspan><tspan x="10" y="21.6" class="st2 st16 st11">on phone</tspan></text>
<text transform="matrix(0.8655 0 0 1 137.2944 143.8135)" class="st2 st17 st18">At home on phone</text>
<text transform="matrix(0.7718 0 0 1 315.8877 311.5947)"><tspan x="0" y="0" class="st2 st16 st7">Can  select from different</tspan><tspan x="0" y="21.6" class="st2 st16 st7"> types of coffe, tea cakes</tspan><tspan x="0" y="43.2" class="st2 st16 st7"> and pastry</tspan></text>
<text transform="matrix(0.9288 0 0 1 322.1162 373.4931)"><tspan x="0" y="0" class="st2 st19 st10">-Picture of drinks</tspan><tspan x="0" y="17.8" class="st2 st19 st10">-Picture of cakes  </tspan><tspan x="0" y="35.6" class="st2 st19 st10">  and pastry</tspan><tspan x="0" y="53.3" class="st2 st19 st10">-Prices</tspan><tspan x="0" y="71.1" class="st2 st19 st10">-Size  option</tspan><tspan x="0" y="88.9" class="st2 st19 st10">-Add to cart button</tspan></text>
<text transform="matrix(0.7188 0 0 1 506.1605 311.5946)"><tspan x="0" y="0" class="st2 st16">Selects and adds to cart:</tspan><tspan x="0" y="21.6" class="st2 st16">- 1 mid size latte</tspan><tspan x="0" y="43.2" class="st2 st16">- 1 large lattee</tspan><tspan x="0" y="64.8" class="st2 st16">- 2 matcha teas</tspan><tspan x="0" y="86.4" class="st2 st16">- 4 cakes</tspan><tspan x="0" y="108" class="st2 st16">- 2 pastries</tspan></text>
<text transform="matrix(0.773 0 0 1 526.713 223)"><tspan x="0" y="0" class="st14 st2 st8 st7">Selects coffee, </tspan><tspan x="0" y="25.2" class="st14 st2 st8 st7">tea and cakes</tspan></text>
<text transform="matrix(0.773 0 0 1 713.3767 227.0001)" class="st14 st2 st8 st7">Reviews order</text>
<g>
	<path d="M649.8,36.1h-31c-3,0-5.4,2.6-5.4,5.8v68.3c0,3.2,2.4,5.8,5.4,5.8h31c3,0,5.4-2.6,5.4-5.8V41.9
		C655.1,38.7,652.7,36.1,649.8,36.1z M651.1,100.8h-33.7V45.9h33.7V100.8z M641.4,42h-14.4v-1.7h14.4L641.4,42L641.4,42z
		 M647.6,41.2c0,0.8-0.6,1.5-1.4,1.5c-0.8,0-1.4-0.7-1.4-1.5c0-0.8,0.6-1.5,1.4-1.5C647,39.7,647.6,40.4,647.6,41.2z M640.8,109.8
		h-13.1v-4.4h13.1V109.8z"/>
</g>
<text transform="matrix(1 0 0 1 504.4342 85.1537)"><tspan x="0" y="0" class="st2 st16 st11">On website </tspan><tspan x="10" y="21.6" class="st2 st16 st11">on phone</tspan></text>
<text transform="matrix(0.773 0 0 1 896.1425 227.0001)" class="st14 st2 st8 st7">Logs-in</text>
<text transform="matrix(0.7188 0 0 1 689.9398 325.5938)"><tspan x="0" y="0" class="st2 st16">Sees:</tspan><tspan x="0" y="21.6" class="st2 st16">- Coffee, tea, cakes and </tspan><tspan x="0" y="43.2" class="st2 st16">pastry selection</tspan><tspan x="0" y="64.8" class="st2 st16">- Total price</tspan><tspan x="0" y="86.4" class="st2 st16">- Delivery price</tspan></text>
<text transform="matrix(0.7188 0 0 1 681.6907 446.5879)" class="st2 st16">Pushes ‘Check out’ button</text>
<text transform="matrix(0.6984 0 0 1 501.0366 439.585)" class="st2 st16">Pushes ‘Add to cart’ button</text>
<text transform="matrix(0.878 0 0 1 501.0366 459.6719)"><tspan x="0" y="0" class="st2 st20">Continues to‘Add to cart’ </tspan><tspan x="0" y="16" class="st2 st20">section</tspan></text>
<text transform="matrix(0.7188 0 0 1 870.0026 325.5938)"><tspan x="0" y="0" class="st2 st16">Sees:</tspan><tspan x="0" y="21.6" class="st2 st16">- Email form</tspan><tspan x="0" y="43.2" class="st2 st16">- Password form</tspan><tspan x="0" y="64.8" class="st2 st16">- Login with Facebook</tspan><tspan x="0" y="86.4" class="st2 st16">- Login with Google</tspan><tspan x="0" y="108" class="st2 st16">‘Login’ button</tspan></text>
<text transform="matrix(1 0 0 1 682.8271 85.1535)"><tspan x="0" y="0" class="st2 st16 st11">On website </tspan><tspan x="10" y="21.6" class="st2 st16 st11">on phone</tspan></text>
<g>
	<path d="M835.1,36.1h-31c-3,0-5.4,2.6-5.4,5.8v68.3c0,3.2,2.4,5.8,5.4,5.8h31c3,0,5.4-2.6,5.4-5.8V41.9
		C840.5,38.7,838.1,36.1,835.1,36.1z M836.5,100.8h-33.7V45.9h33.7V100.8z M826.8,42h-14.4v-1.7h14.4L826.8,42L826.8,42z M833,41.2
		c0,0.8-0.6,1.5-1.4,1.5c-0.8,0-1.4-0.7-1.4-1.5c0-0.8,0.6-1.5,1.4-1.5C832.3,39.7,833,40.4,833,41.2z M826.2,109.8h-13.1v-4.4h13.1
		V109.8z"/>
</g>
<text transform="matrix(1 0 0 1 859.6558 86.7558)"><tspan x="0" y="0" class="st2 st16 st11">On website </tspan><tspan x="10" y="21.6" class="st2 st16 st11">on phone</tspan></text>
<g>
	<path d="M1015,33.4h-31c-3,0-5.4,2.6-5.4,5.8v68.3c0,3.2,2.4,5.8,5.4,5.8h31c3,0,5.4-2.6,5.4-5.8V39.2
		C1020.4,36,1018,33.4,1015,33.4z M1016.4,98.1h-33.7V43.2h33.7V98.1z M1006.7,39.3h-14.4v-1.7h14.4L1006.7,39.3L1006.7,39.3z
		 M1012.8,38.5c0,0.8-0.6,1.5-1.4,1.5c-0.8,0-1.4-0.7-1.4-1.5s0.6-1.5,1.4-1.5C1012.2,37,1012.8,37.7,1012.8,38.5z M1006,107.1
		h-13.1v-4.4h13.1V107.1z"/>
</g>
<text transform="matrix(0.7229 0 0 1 1046.918 212)"><tspan x="0" y="0" class="st14 st2 st8 st13">Confirms delivry </tspan><tspan x="0" y="25.2" class="st14 st2 st8 st13">address and enters </tspan><tspan x="0" y="50.4" class="st14 st2 st8 st13">pament details</tspan></text>
<g>
	<g>
		<path d="M1101.6,41.3h-52.7c-3.8,0-6.9,3.2-6.9,7.2v31.6c0,4,3.1,7.2,6.9,7.2h52.7c3.8,0,6.9-3.2,6.9-7.2V48.5
			C1108.5,44.6,1105.4,41.3,1101.6,41.3z M1105.7,80.2c0,2.4-1.9,4.3-4.2,4.3h-52.7c-2.3,0-4.2-1.9-4.2-4.3V48.5
			c0-2.4,1.9-4.3,4.2-4.3h52.7c2.3,0,4.2,1.9,4.2,4.3L1105.7,80.2L1105.7,80.2z"/>
	</g>
</g>
<g>
	<g>
		<path d="M1107.1,50h-63.8c-0.8,0-1.4,0.6-1.4,1.4V60c0,0.8,0.6,1.4,1.4,1.4h63.8c0.8,0,1.4-0.6,1.4-1.4v-8.6
			C1108.5,50.6,1107.9,50,1107.1,50z M1105.7,58.6h-61.1v-5.8h61.1L1105.7,58.6L1105.7,58.6z"/>
	</g>
</g>
<g>
	<g>
		<path d="M1068.3,70.1h-16.7c-0.8,0-1.4,0.6-1.4,1.4c0,0.8,0.6,1.4,1.4,1.4h16.7c0.8,0,1.4-0.6,1.4-1.4
			C1069.6,70.7,1069,70.1,1068.3,70.1z"/>
	</g>
</g>
<g>
	<g>
		<path d="M1068.3,75.8h-16.7c-0.8,0-1.4,0.6-1.4,1.4c0,0.8,0.6,1.4,1.4,1.4h16.7c0.8,0,1.4-0.6,1.4-1.4
			C1069.6,76.5,1069,75.8,1068.3,75.8z"/>
	</g>
</g>
<g>
	<g>
		<path d="M1096,67.2h-2.8c-2.3,0-4.2,1.9-4.2,4.3v2.9c0,2.4,1.9,4.3,4.2,4.3h2.8c2.3,0,4.2-1.9,4.2-4.3v-2.9
			C1100.2,69.2,1098.3,67.2,1096,67.2z M1097.4,74.4c0,0.8-0.6,1.4-1.4,1.4h-2.8c-0.8,0-1.4-0.6-1.4-1.4v-2.9c0-0.8,0.6-1.4,1.4-1.4
			h2.8c0.8,0,1.4,0.6,1.4,1.4V74.4z"/>
	</g>
</g>
<g>
	<path d="M1186.2,36.1h-31c-3,0-5.4,2.6-5.4,5.8v68.3c0,3.2,2.4,5.8,5.4,5.8h31c3,0,5.4-2.6,5.4-5.8V41.9
		C1191.6,38.7,1189.2,36.1,1186.2,36.1z M1187.5,100.8h-33.7V45.9h33.7V100.8z M1177.9,42h-14.4v-1.7h14.4L1177.9,42L1177.9,42z
		 M1184,41.2c0,0.8-0.6,1.5-1.4,1.5c-0.8,0-1.4-0.7-1.4-1.5c0-0.8,0.6-1.5,1.4-1.5C1183.4,39.7,1184,40.4,1184,41.2z M1177.2,109.8
		h-13.1v-4.4h13.1V109.8z"/>
</g>
<text transform="matrix(0.9532 0 0 1 1037.4363 126.2)"><tspan x="0" y="0" class="st2 st21 st11">On phone + </tspan><tspan x="6.1" y="23" class="st2 st21 st11">Credit card</tspan></text>
<text transform="matrix(0.7188 0 0 1 1041.3584 311.5948)"><tspan x="0" y="0" class="st2 st16">Sees:</tspan><tspan x="0" y="21.6" class="st2 st16">- Delivery address</tspan><tspan x="0" y="43.2" class="st2 st16">- Credit card form</tspan><tspan x="0" y="64.8" class="st2 st16">- ‘Scan credit card’ option</tspan><tspan x="0" y="86.4" class="st2 st16">- Estimated delivery time</tspan><tspan x="0" y="108" class="st2 st16">- Delivery fee</tspan><tspan x="0" y="129.6" class="st2 st16">‘Place order’ button</tspan></text>
<g>
	<path d="M1354.8,33.4h-31c-3,0-5.4,2.6-5.4,5.8v68.3c0,3.2,2.4,5.8,5.4,5.8h31c3,0,5.4-2.6,5.4-5.8V39.2
		C1360.2,36,1357.8,33.4,1354.8,33.4z M1356.2,98.2h-33.7V43.2h33.7V98.2z M1346.5,39.3h-14.4v-1.7h14.4L1346.5,39.3L1346.5,39.3z
		 M1352.7,38.5c0,0.8-0.6,1.5-1.4,1.5c-0.8,0-1.4-0.7-1.4-1.5c0-0.8,0.6-1.5,1.4-1.5C1352.1,37.1,1352.7,37.7,1352.7,38.5z
		 M1345.9,107.1h-13.1v-4.4h13.1V107.1z"/>
</g>
<text transform="matrix(1 0 0 1 1213.4109 87.3459)"><tspan x="0" y="0" class="st2 st16 st11">On website </tspan><tspan x="10" y="21.6" class="st2 st16 st11">on phone</tspan></text>
<g>
	<path d="M1488.3,71h-21.6v15.4h21.6L1488.3,71L1488.3,71z M1483.4,81.8h-11.9v-6.1h11.9V81.8z"/>
	<path d="M1498.5,97.9V69l6.5,3.6V56.5l-41.5-23l-14.3,7.9v-7.9h-16v16.8l-11.2,6.2v16.1l6.5-3.6v28.8h-6.5v15.4h82.9V97.9H1498.5z
		 M1438.1,38.2h6.3v6l-6.3,3.5V38.2z M1426.9,59.2l36.6-20.3l36.6,20.3v5.4l-36.6-20.3l-36.6,20.3V59.2z M1433.4,66.4l30.1-16.7
		l30.1,16.7v31.5h-33.3V71h-21.6v26.8h-5.4V66.4z M1455.5,97.9h-11.9V75.7h11.9V97.9z M1500.2,108.6h-73.2v-6.1h73.2V108.6z"/>
</g>
<text transform="matrix(1 0 0 1 1426.764 134.6039)" class="st2 st16 st11">At home</text>
<text transform="matrix(0.773 0 0 1 1400.6001 227)" class="st14 st2 st8 st7">Waits for order</text>
<text transform="matrix(0.773 0 0 1 1236.4502 223.0002)"><tspan x="0" y="0" class="st14 st2 st8 st7">Payment </tspan><tspan x="0" y="25.2" class="st14 st2 st8 st7">confirmed</tspan></text>
<text transform="matrix(0.7188 0 0 1 1216.7528 311.5948)"><tspan x="0" y="0" class="st2 st16">Sees:</tspan><tspan x="0" y="21.6" class="st2 st16">- Payment was successful</tspan><tspan x="0" y="43.2" class="st2 st16">- Delivery time</tspan><tspan x="0" y="64.8" class="st2 st16">- Delivery time</tspan></text>
<text transform="matrix(0.7188 0 0 1 1555.5225 311.5949)"><tspan x="0" y="0" class="st2 st16">Sees:</tspan><tspan x="0" y="21.6" class="st2 st16">- Order</tspan><tspan x="0" y="43.2" class="st2 st16">- Courrier</tspan><tspan x="0" y="64.8" class="st2 st16">- Receipt</tspan></text>
<path d="M1691.3,40.4h-3.8c-0.4-1.6-1.9-2.7-3.6-2.7h-4.1v-9.9c0-0.4-0.2-0.7-0.5-0.9l-28.7-16.5c-0.3-0.2-0.7-0.2-1.1,0l-28.7,16.5
	c-0.3,0.2-0.5,0.5-0.5,0.9v33.1c0,0.4,0.2,0.7,0.5,0.9l28.7,16.5c0.2,0.1,0.3,0.1,0.5,0.1c0.2,0,0.4,0,0.6-0.1l15.1-8.7v6.3
	c0,2.5,2,4.5,4.5,4.5c0,0,0,0,0,0h21c2.5,0,4.6-2,4.6-4.5c0,0,0,0,0,0V45C1695.9,42.4,1693.9,40.4,1691.3,40.4z M1684,39.8
	c0.9,0,1.6,0.7,1.6,1.6l0,0v0.1c0,0.9-0.7,1.6-1.6,1.6c0,0,0,0,0,0h-6.2c-0.9,0-1.6-0.7-1.6-1.6l0,0v-0.1c0-0.9,0.7-1.6,1.6-1.6
	c0,0,0,0,0,0H1684z M1650.1,12.4l11.9,6.9l-26.6,15.3l-11.9-6.9L1650.1,12.4z M1649.1,75.4l-26.6-15.3V29.5l26.6,15.3V75.4z
	 M1650.1,43l-12.5-7.2l26.6-15.3l12.5,7.2L1650.1,43z M1665.8,45v22.1l-14.5,8.4V44.8l26.5-15.3v8.1h0c-1.7,0-3.1,1.1-3.6,2.7h-3.8
	C1667.8,40.4,1665.8,42.4,1665.8,45z M1693.8,75.8c0,1.3-1.1,2.4-2.4,2.4c0,0,0,0,0,0h-21c-1.3,0-2.4-1-2.4-2.3c0,0,0,0,0-0.1V45
	c0-1.4,1.1-2.5,2.4-2.5c0,0,0,0,0,0h3.9c0.5,1.6,1.9,2.6,3.5,2.6h6.2c1.6,0,3.1-1,3.5-2.6h3.9c1.4,0,2.5,1.1,2.5,2.5V75.8z"/>
<path d="M1671.6,55.8h1.1c0.6,0,1.1-0.5,1.1-1.1s-0.5-1.1-1.1-1.1h0v-2.9h3c0.1,0.4,0.6,0.7,1,0.7c0.6,0,1.1-0.5,1.1-1.1v-0.7
	c0-0.6-0.5-1.1-1.1-1.1h-5c-0.6,0-1.1,0.5-1.1,1.1c0,0,0,0,0,0v5C1670.5,55.3,1671,55.8,1671.6,55.8
	C1671.6,55.8,1671.6,55.8,1671.6,55.8z"/>
<path d="M1671.6,65.5h5c0.6,0,1.1-0.5,1.1-1.1v-5c0-0.6-0.5-1.1-1.1-1.1h-5c-0.6,0-1.1,0.5-1.1,1.1v5
	C1670.5,65.1,1671,65.5,1671.6,65.5z M1672.7,60.5h2.9v2.9h-2.9V60.5z"/>
<path d="M1672.7,73.2L1672.7,73.2l0-2.9h2.9c0,0.6,0.5,1.1,1.1,1.1c0.6,0,1-0.5,1.1-1.1v-1c0-0.6-0.5-1.1-1.1-1.1h-5
	c-0.6,0-1.1,0.5-1.1,1.1v5c0,0.6,0.5,1,1,1c0,0,0,0,0,0h1.1c0.6,0,1.1-0.5,1.1-1.1S1673.3,73.2,1672.7,73.2L1672.7,73.2z"/>
<path d="M1679.1,49.9L1676,53l-1-1c-0.4-0.4-1.1-0.4-1.5,0c-0.4,0.4-0.4,1.1,0,1.5l1.7,1.7c0.4,0.4,1.1,0.4,1.5,0c0,0,0,0,0,0
	l3.9-3.9c0.4-0.4,0.4-1.1,0-1.5C1680.2,49.5,1679.5,49.5,1679.1,49.9L1679.1,49.9z"/>
<path d="M1679.1,69.6l-3.1,3.1l-1-1c-0.4-0.4-1.1-0.4-1.5,0c-0.4,0.4-0.4,1.1,0,1.5l1.7,1.7c0.4,0.4,1.1,0.4,1.5,0c0,0,0,0,0,0
	l3.9-3.9c0.4-0.4,0.4-1.1,0-1.5C1680.2,69.2,1679.5,69.2,1679.1,69.6L1679.1,69.6z"/>
<path d="M1690.1,51.2h-6.7c-0.6,0-1.1,0.5-1.1,1.1c0,0.6,0.5,1.1,1.1,1.1h6.7c0.6,0,1.1-0.5,1.1-1.1
	C1691.2,51.7,1690.7,51.2,1690.1,51.2z"/>
<path d="M1690.1,61h-6.7c-0.6,0-1.1,0.5-1.1,1.1c0,0.6,0.5,1.1,1.1,1.1h6.7c0.6,0,1.1-0.5,1.1-1.1C1691.2,61.4,1690.7,61,1690.1,61z
	"/>
<path d="M1690.1,70.7h-6.7c-0.6,0-1.1,0.5-1.1,1.1c0,0.6,0.5,1.1,1.1,1.1h6.7c0.6,0,1.1-0.5,1.1-1.1
	C1691.2,71.2,1690.7,70.7,1690.1,70.7z"/>
<g>
	<path d="M1599.9,56.2h-17.2v12.4h17.2L1599.9,56.2L1599.9,56.2z M1596,64.9h-9.5V60h9.5V64.9z"/>
	<path d="M1608,77.9V54.6l5.2,2.9v-13l-33.1-18.6l-11.4,6.4v-6.4h-12.8v13.6l-8.9,5v13l5.2-2.9v23.2h-5.2v12.4h66.2V77.9H1608z
		 M1559.8,29.7h5v4.8l-5,2.8V29.7z M1550.9,46.7l29.2-16.4l29.2,16.4V51l-29.2-16.4L1550.9,51V46.7z M1556.1,52.4l24-13.5l24,13.5
		v25.4h-26.5V56.2h-17.2v21.6h-4.3V52.4z M1573.7,77.9h-9.5V60h9.5V77.9z M1609.3,86.5h-58.5v-4.9h58.5V86.5z"/>
</g>
<text transform="matrix(0.6936 0 0 1 1554.5996 121.5186)"><tspan x="0" y="0" class="st2 st22 st13">At home + courrier </tspan><tspan x="73.7" y="25.7" class="st2 st22 st13">order</tspan></text>
<text transform="matrix(0.7667 0 0 1 1570.3154 210.6953)"><tspan x="0" y="0" class="st14 st2 st23 st7">Coffee, tea, cakes</tspan><tspan x="0" y="23.1" class="st14 st2 st23 st7">and pastries are </tspan><tspan x="0" y="46.1" class="st14 st2 st23 st7">delivered</tspan></text>
<g>
	<g>
		<path d="M1263.6,671.4v-12.2c0-2.7-2.1-4.9-4.8-4.9h-35.7c-2.6,0-4.8,2.2-4.8,4.9v24.4c0,2.7,2.1,4.9,4.8,4.9h26.7
			c1.6,5.6,6.6,9.7,12.6,9.7c2.3,0,4.6-0.6,6.5-1.8c0.6-0.3,0.8-1.1,0.4-1.7c-0.3-0.6-1.1-0.8-1.6-0.4c-1.6,1-3.5,1.5-5.4,1.5
			c-5.9,0-10.7-4.9-10.7-11s4.8-11,10.7-11c5.9,0,10.7,4.9,10.7,11v1.2c0,1.3-1.1,2.4-2.4,2.4s-2.4-1.1-2.4-2.4v-4.9
			c0-0.7-0.5-1.2-1.2-1.2c-0.3,0-0.6,0.1-0.8,0.3c-1.1-1-2.4-1.6-3.9-1.6c-3.3,0-6,2.7-6,6.1s2.7,6.1,6,6.1c1.8,0,3.4-0.8,4.4-2.1
			c0.9,1.3,2.3,2.1,3.9,2.1c2.6,0,4.8-2.2,4.8-4.9v-1.2C1275.5,677.7,1270.3,672,1263.6,671.4z M1223.1,656.7h35.7c0,0,0.1,0,0.1,0
			l-17,14.3c-0.6,0.4-1.5,0.3-1.9,0.1l-17.1-14.4C1223.1,656.7,1223.1,656.7,1223.1,656.7z M1261.2,671.4
			c-6.7,0.6-11.9,6.4-11.9,13.3c0,0.4,0,0.8,0.1,1.2h-26.2c-1.3,0-2.4-1.1-2.4-2.4v-24.4c0-0.3,0.1-0.7,0.2-1l17.7,14.9
			c0.7,0.5,1.5,0.7,2.3,0.7c0.8,0,1.5-0.2,2.2-0.7c0.1,0,0.1-0.1,0.2-0.1l17.6-14.8c0.1,0.3,0.2,0.6,0.2,1L1261.2,671.4
			L1261.2,671.4z M1262.4,688.4c-2,0-3.6-1.6-3.6-3.7s1.6-3.7,3.6-3.7s3.6,1.6,3.6,3.7S1264.4,688.4,1262.4,688.4z"/>
	</g>
</g>
<text transform="matrix(0.8318 0 0 1 1216.7529 717.3623)"><tspan x="0" y="0" class="st2 st24 st18">Email the</tspan><tspan x="0" y="22.9" class="st2 st24 st18"> receipt</tspan></text>
<g id="Page-1">
	<g id="_x30_08---Coffee-and-Beans">
		<path id="Shape" d="M1315.8,673.9l0.5,6.4c-0.5,0-1.1,0.3-1.4,0.7c-0.4,0.4-0.5,1-0.5,1.5l1.6,20.6c0.1,1.1,1,1.9,2.1,1.9h0.2
			l0.4,5.4c0.1,1.6,1.5,2.8,3.1,2.8h16.9c1.6,0,3-1.2,3.1-2.8l0.4-5.4h0.2c1.1,0,2-0.8,2.1-1.9l1.6-20.6c0-0.5-0.1-1.1-0.5-1.5
			c-0.4-0.4-0.9-0.7-1.4-0.7l0.5-6.4c1.3-0.4,2.1-1.6,2.1-2.9v-2.2c0-1.6-1.3-3-2.9-3.1l-0.2,0v-2.9c0-1.7-1.4-3.1-3.1-3.1h-20.7
			c-1.7,0-3.1,1.4-3.1,3.1v1.2c-0.8,0-1.6,0.3-2.2,0.9s-0.9,1.4-0.9,2.2v4C1313.7,672.3,1314.5,673.5,1315.8,673.9L1315.8,673.9z
			 M1342.1,680.2h-23.7l-0.5-6.2h24.7L1342.1,680.2z M1339.7,710.2c0,0.5-0.5,1-1,1h-16.9c-0.5,0-1-0.4-1-0.9l-0.4-5.2h19.8
			L1339.7,710.2z M1342.4,702.9h-24.2l-1.6-20.6h27.5L1342.4,702.9z M1319.9,661.7h20.7c0.6,0,1,0.5,1,1v2.8l-22.8-1.5v-1.3
			C1318.9,662.1,1319.3,661.7,1319.9,661.7z M1315.7,667c0-0.6,0.5-1,1-1h0.1l0.9,0.1h0h0l25.9,1.7c0.5,0,1,0.5,1,1v2.2
			c0,0.6-0.5,1-1,1h-26.9c-0.6,0-1-0.5-1-1V667z"/>
		<path id="Shape_1_" d="M1325.2,687.6c-3.6,3.6-4.3,8.8-1.5,11.6c1.2,1.2,2.8,1.8,4.5,1.7c2.7-0.1,5.3-1.2,7.1-3.2
			c3.6-3.6,4.3-8.8,1.5-11.6C1334,683.3,1328.7,684,1325.2,687.6L1325.2,687.6z M1326.6,689c1.5-1.6,3.5-2.5,5.6-2.6
			c1.1,0,2.1,0.3,2.9,1c-0.4,0.2-0.8,0.3-1.2,0.3c-2.5,0.2-4.5,2.2-4.7,4.7c-0.1,1.6-1.4,2.9-3,3c-0.7,0.1-1.4,0.3-2,0.6
			C1323.6,693.9,1324.5,691.1,1326.6,689L1326.6,689z M1333.8,696.2c-2.7,2.7-6.5,3.4-8.5,1.6c0.4-0.2,0.8-0.3,1.2-0.3
			c2.5-0.2,4.5-2.2,4.7-4.7c0.1-1.6,1.4-2.9,3-3c0.7-0.1,1.4-0.3,2-0.6C1336.9,691.3,1336,694.1,1333.8,696.2L1333.8,696.2z"/>
		<path id="Shape_2_" d="M1330.6,657.5c0.3,0,0.5,0,0.8-0.2c0.2-0.2,0.4-0.4,0.4-0.7l0.4-3.2h35.2l-0.8,6.2h-1.1c-0.6,0-1,0.5-1,1
			c0,0.6,0.5,1,1,1h0.9l-4.9,38.1h-13.7c-0.6,0-1,0.5-1,1c0,0.6,0.5,1,1,1h14.6c0.1,0,0.2,0,0.3-0.1c0,0,0.1,0,0.1,0
			c0,0,0.1,0,0.1-0.1l6.1-4l5.3-1.7c1-0.3,1.5-1.3,1.4-2.3l-6.1-41.4c0,0,0-0.1,0-0.1c0-0.1,0-0.1-0.1-0.2c0-0.1-0.1-0.1-0.1-0.2
			c0,0,0-0.1,0-0.1c0,0-0.1,0-0.1-0.1c-0.1-0.1-0.1-0.1-0.2-0.1c0,0-0.1-0.1-0.2-0.1c-0.1,0-0.2,0-0.2-0.1c0,0-0.1,0-0.1,0h-36.3
			c-1,0-1.9,0.8-2,1.8l-0.4,3.2C1329.6,657,1330,657.5,1330.6,657.5L1330.6,657.5z M1373.6,694l-4,1.3v-13c0-0.6-0.5-1-1-1
			c-0.6,0-1,0.5-1,1v13.9l-3.9,2.6l5-38.7L1373.6,694z"/>
		<path id="Shape_3_" d="M1361.3,659.6h-2.1c-0.6,0-1,0.5-1,1c0,0.6,0.5,1,1,1h2.1c0.6,0,1-0.5,1-1
			C1362.3,660.1,1361.8,659.6,1361.3,659.6z"/>
		<path id="Shape_4_" d="M1355.1,661.7c0.6,0,1-0.5,1-1c0-0.6-0.5-1-1-1h-2.1c-0.6,0-1,0.5-1,1c0,0.6,0.5,1,1,1H1355.1z"/>
		<path id="Shape_5_" d="M1349.9,660.6c0-0.6-0.5-1-1-1h-2.1c-0.6,0-1,0.5-1,1c0,0.6,0.5,1,1,1h2.1
			C1349.4,661.7,1349.9,661.2,1349.9,660.6z"/>
		<path id="Shape_6_" d="M1355.2,683.3h-6.2c-0.6,0-1,0.5-1,1c0,0.6,0.5,1,1,1h6.2c1,0,1.9-0.8,2-1.8l1.8-12.4
			c0.1-0.6-0.1-1.2-0.5-1.6c-0.4-0.4-1-0.7-1.6-0.7h-7.1c-0.6,0-1,0.5-1,1c0,0.6,0.5,1,1,1h7.1L1355.2,683.3z"/>
	</g>
</g>
<text transform="matrix(1 0 0 1 1295.5684 731.5742)" class="st2 st8 st11">+</text>
<text transform="matrix(1.0258 0 0 1 1318.8525 728.916)"><tspan x="0" y="0" class="st2 st16 st11">Create</tspan><tspan x="0" y="21.6" class="st2 st16 st11"> order</tspan></text>
<g>
	<g>
		<path d="M1440.6,669.2V657c0-2.7-2.1-4.9-4.8-4.9h-35.7c-2.6,0-4.8,2.2-4.8,4.9v24.4c0,2.7,2.1,4.9,4.8,4.9h26.7
			c1.6,5.6,6.6,9.7,12.6,9.7c2.3,0,4.6-0.6,6.5-1.8c0.6-0.3,0.8-1.1,0.4-1.7c-0.3-0.6-1.1-0.8-1.6-0.4c-1.6,1-3.5,1.5-5.4,1.5
			c-5.9,0-10.7-4.9-10.7-11c0-6,4.8-11,10.7-11s10.7,4.9,10.7,11v1.2c0,1.3-1.1,2.4-2.4,2.4s-2.4-1.1-2.4-2.4v-4.9
			c0-0.7-0.5-1.2-1.2-1.2c-0.3,0-0.6,0.1-0.8,0.3c-1.1-1-2.4-1.6-3.9-1.6c-3.3,0-6,2.7-6,6.1c0,3.4,2.7,6.1,6,6.1
			c1.8,0,3.4-0.8,4.4-2.1c0.9,1.3,2.3,2.1,3.9,2.1c2.6,0,4.8-2.2,4.8-4.9v-1.2C1452.5,675.6,1447.3,669.9,1440.6,669.2z
			 M1400.1,654.6h35.7c0,0,0.1,0,0.1,0l-17,14.3c-0.6,0.4-1.5,0.3-1.9,0.1l-17.1-14.4C1400.1,654.6,1400.1,654.6,1400.1,654.6z
			 M1438.2,669.2c-6.7,0.6-11.9,6.4-11.9,13.3c0,0.4,0,0.8,0.1,1.2h-26.2c-1.3,0-2.4-1.1-2.4-2.4V657c0-0.3,0.1-0.7,0.2-1l17.7,14.9
			c0.7,0.5,1.5,0.7,2.3,0.7c0.8,0,1.5-0.2,2.2-0.7c0.1,0,0.1-0.1,0.2-0.1L1438,656c0.1,0.3,0.2,0.6,0.2,1L1438.2,669.2L1438.2,669.2
			z M1439.4,686.2c-2,0-3.6-1.6-3.6-3.7s1.6-3.7,3.6-3.7s3.6,1.6,3.6,3.7S1441.4,686.2,1439.4,686.2z"/>
	</g>
</g>
<text transform="matrix(0.6556 0 0 1 1388.3203 721.7158)"><tspan x="0" y="0" class="st2 st25 st15">Email and</tspan><tspan x="0" y="25.5" class="st2 st25 st15">text to </tspan><tspan x="0" y="51" class="st2 st25 st15">user</tspan></text>
<g id="Line_stroke_cut_Ex">
	<g>
		<path d="M1503.1,661.3h2v1.9h-2V661.3z"/>
		<path d="M1511.1,661.3h2v1.9h-2V661.3z"/>
		<path d="M1508.1,669.7c1.7,0,3-1,3-2.3h-2c0,0.2-0.4,0.5-1,0.5c-0.6,0-1-0.3-1-0.5h-2C1505.1,668.6,1506.4,669.7,1508.1,669.7z"/>
		<path d="M1533.6,688.4l-3.8-3.5l-1.4,1.3l3.8,3.5c1.2,1.1,1.9,2.7,1.9,4.3v5.7c0,1.4-1.2,2.6-2.8,2.6h-2.3v-4.7h2v-1.9h-4V679
			c0-0.5-0.4-0.9-1-0.9h-5.4l-5.7-3.4l-0.8-3.1l0.4-0.2c1.6-0.8,2.6-2.3,2.6-4v-0.6h0.5c1.9,0,3.5-1.5,3.5-3.3v-0.9
			c0-1.8-1.5-3.2-3.4-3.3c0.3-0.5,0.4-1,0.4-1.6V655c0-3.7-3.2-6.8-7.3-6.8h-5.5c-4,0-7.2,3-7.3,6.8v2.9c0,0.5,0.1,1.1,0.4,1.6
			c-1.9,0-3.4,1.5-3.4,3.3v0.9c0,1.8,1.6,3.3,3.5,3.3h0.5v0.6c0,1.7,1,3.2,2.6,4l0.3,0.1l-0.8,3.1l-5.7,3.4h-5.4c-0.6,0-1,0.4-1,0.9
			v3.3l-3.7,3.5l1.4,1.3l2.3-2.1v10.8h-4v1.9h2v4.7h-2.3c-1.5,0-2.7-1.1-2.8-2.6V694c0-1.6,0.7-3.2,1.9-4.3l0.8-0.7l-1.4-1.3
			l-0.8,0.7c-1.6,1.5-2.5,3.5-2.5,5.6v5.7c0,2.4,2.1,4.4,4.8,4.4h46.5c2.6,0,4.7-2,4.8-4.4V694
			C1536.1,691.9,1535.2,689.9,1533.6,688.4L1533.6,688.4z M1505.1,679.9h6v6.5h-6V679.9z M1512.5,678.1l1.7-1.6l2.7,1.6H1512.5z
			 M1500.9,659.1c-0.5-0.2-0.8-0.7-0.8-1.2v-0.7l3.6-1.9c2.7-1.4,6-1.4,8.7,0l3.6,1.9v0.7c0,0.8-0.7,1.4-1.5,1.4
			c-0.3,0-0.6-0.1-0.8-0.2l-2.3-1.5c-2-1.3-4.6-1.3-6.7,0l-2.3,1.5C1501.9,659.3,1501.3,659.3,1500.9,659.1L1500.9,659.1z
			 M1519.1,662.7v0.9c0,0.8-0.7,1.4-1.5,1.4h-0.5v-3.7h0.5C1518.4,661.3,1519.1,661.9,1519.1,662.7z M1505.3,650.1h5.5
			c2.9,0,5.2,2.2,5.3,4.9v0l-2.7-1.4c-3.3-1.7-7.4-1.7-10.7,0l-2.7,1.4v0C1500.1,652.2,1502.4,650.1,1505.3,650.1z M1498.6,665
			c-0.8,0-1.5-0.6-1.5-1.4v-0.9c0-0.8,0.7-1.4,1.5-1.4h0.5v3.7H1498.6z M1501.1,667.5v-6.4c0.9,0.1,1.7-0.1,2.4-0.5l2.3-1.5
			c1.3-0.8,3.1-0.8,4.4,0l2.3,1.5c0.7,0.4,1.6,0.6,2.4,0.5v6.4c0,1-0.6,1.9-1.5,2.3l-4.8,2.3c-0.4,0.2-0.9,0.2-1.3,0l-4.8-2.2
			C1501.6,669.4,1501.1,668.5,1501.1,667.5L1501.1,667.5z M1506.5,673.7c1,0.5,2.2,0.5,3.1,0l2.6-1.2l0.7,2.5l-3.3,3.1h-3.2
			l-3.3-3.1l0.7-2.5L1506.5,673.7z M1501.9,676.4l1.7,1.6h-4.4L1501.9,676.4z M1491.1,679.9h12v7.5c0,0.5,0.4,0.9,1,0.9h8
			c0.6,0,1-0.4,1-0.9v-7.5h12v15.9h-1c-4,0-7.4,2.8-7.9,6.5h-3.1v-4.7c0-0.5-0.4-0.9-1-0.9h-8c-0.6,0-1,0.4-1,0.9v4.7h-3.1
			c-0.5-3.7-3.9-6.5-7.9-6.5h-1V679.9z M1489.1,702.3v-4.7h3c2.9,0,5.4,2,5.9,4.7H1489.1z M1505.1,702.3v-3.7h6v3.7H1505.1z
			 M1527.1,702.3h-8.9c0.5-2.7,3-4.7,5.9-4.7h3V702.3z"/>
		<path d="M1493.1,681.8h2v1.9h-2V681.8z"/>
		<path d="M1497.1,681.8h4v1.9h-4V681.8z"/>
		<path d="M1493.1,685.5h8v1.9h-8V685.5z"/>
		<path d="M1516.1,688.3h3.5c1.9,0,3.5-1.5,3.5-3.3v-2.3c0-0.5-0.4-0.9-1-0.9h-3.5c-1.9,0-3.5,1.5-3.5,3.3v2.3
			C1515.1,687.9,1515.5,688.3,1516.1,688.3z M1517.1,685.1c0-0.8,0.7-1.4,1.5-1.4h2.5v1.4c0,0.8-0.7,1.4-1.5,1.4h-2.5V685.1z"/>
	</g>
</g>
<text transform="matrix(1.0122 0 0 1 1463.1598 728.9164)"><tspan x="0" y="0" class="st2 st16 st11">Courrier</tspan><tspan x="0" y="21.6" class="st2 st16 st11">goes to </tspan><tspan x="0" y="43.2" class="st2 st16 st11">delivery </tspan><tspan x="0" y="64.8" class="st2 st16 st11">location</tspan></text>
<g>
	<g>
		<path d="M1643.5,669.2V657c0-2.7-2.1-4.9-4.8-4.9H1603c-2.6,0-4.8,2.2-4.8,4.9v24.4c0,2.7,2.1,4.9,4.8,4.9h26.7
			c1.6,5.6,6.6,9.7,12.6,9.7c2.3,0,4.6-0.6,6.5-1.8c0.6-0.3,0.8-1.1,0.4-1.7c-0.3-0.6-1.1-0.8-1.6-0.4c-1.6,1-3.5,1.5-5.4,1.5
			c-5.9,0-10.7-4.9-10.7-11c0-6,4.8-11,10.7-11s10.7,4.9,10.7,11v1.2c0,1.3-1.1,2.4-2.4,2.4s-2.4-1.1-2.4-2.4v-4.9
			c0-0.7-0.5-1.2-1.2-1.2c-0.3,0-0.6,0.1-0.8,0.3c-1.1-1-2.4-1.6-3.9-1.6c-3.3,0-6,2.7-6,6.1c0,3.4,2.7,6.1,6,6.1
			c1.8,0,3.4-0.8,4.4-2.1c0.9,1.3,2.3,2.1,3.9,2.1c2.6,0,4.8-2.2,4.8-4.9v-1.2C1655.4,675.6,1650.1,669.9,1643.5,669.2z M1603,654.6
			h35.7c0,0,0.1,0,0.1,0l-17,14.3c-0.6,0.4-1.5,0.3-1.9,0.1l-17.1-14.4C1602.9,654.6,1603,654.6,1603,654.6z M1641.1,669.2
			c-6.7,0.6-11.9,6.4-11.9,13.3c0,0.4,0,0.8,0.1,1.2H1603c-1.3,0-2.4-1.1-2.4-2.4V657c0-0.3,0.1-0.7,0.2-1l17.7,14.9
			c0.7,0.5,1.5,0.7,2.3,0.7c0.8,0,1.5-0.2,2.2-0.7c0.1,0,0.1-0.1,0.2-0.1l17.6-14.8c0.1,0.3,0.2,0.6,0.2,1L1641.1,669.2
			L1641.1,669.2z M1642.3,686.2c-2,0-3.6-1.6-3.6-3.7s1.6-3.7,3.6-3.7s3.6,1.6,3.6,3.7S1644.3,686.2,1642.3,686.2z"/>
	</g>
</g>
<text transform="matrix(0.7833 0 0 1 1580.1005 717.3623)"><tspan x="0" y="0" class="st2 st26 st7">Email and text</tspan><tspan x="0" y="21.2" class="st2 st26 st7">to the user and</tspan><tspan x="0" y="42.3" class="st2 st26 st7">thenk for using</tspan><tspan x="0" y="63.5" class="st2 st26 st7">our service</tspan></text>
<text transform="matrix(0.7718 0 0 1 1400.5994 373.4933)" class="st2 st16 st7">Waiting at home</text>
<text transform="matrix(0.686 0 0 1 133.8682 311.5947)"><tspan x="0" y="0" class="st2 st16">A marketing page  with </tspan><tspan x="0" y="21.6" class="st2 st16">promotional mmessages</tspan><tspan x="0" y="43.2" class="st2 st16">Location and service time</tspan><tspan x="0" y="64.8" class="st2 st16">Button ‘ See menu’</tspan></text>
<text transform="matrix(0.7575 0 0 1 1220.7646 510.8184)"><tspan x="0" y="0" class="st2 st27">-Send receipt to user’s</tspan><tspan x="0" y="20.5" class="st2 st27">email</tspan><tspan x="0" y="41" class="st2 st27">- Confirms payment info </tspan><tspan x="0" y="61.5" class="st2 st27">and order</tspan></text>
<text transform="matrix(0.7575 0 0 1 1388.321 510.8184)"><tspan x="0" y="0" class="st2 st27">-Sends to the user text </tspan><tspan x="0" y="20.5" class="st2 st27">and email  of estimared </tspan><tspan x="0" y="41" class="st2 st27">tim delivery</tspan><tspan x="0" y="61.5" class="st2 st27">-Packages the order and </tspan><tspan x="0" y="82" class="st2 st27">prints the receipt</tspan></text>
<text transform="matrix(0.7575 0 0 1 1550.8728 510.8184)"><tspan x="0" y="0" class="st2 st27">-Informs t system that </tspan><tspan x="0" y="20.5" class="st2 st27">the order was delivered</tspan></text>
</svg>
