<svg id="Слой_1" data-name="Слой 1" xmlns="http://www.w3.org/2000/svg" viewBox="0 0 828.06 463.25"><defs><style>.cls-1{fill:#4b2b5e;stroke:#f3f4f4;stroke-width:3px;}.cls-1,.cls-2{stroke-miterlimit:10;}.cls-1,.cls-3{opacity:0.5;}.cls-2,.cls-3{fill:none;}.cls-2{stroke:#000;}.cls-4,.cls-6{font-size:18.54px;}.cls-4,.cls-7,.cls-8,.cls-9{fill:#9c0538;}.cls-4,.cls-8,.cls-9{font-family:Candara-Bold, Candara;}.cls-10,.cls-11,.cls-14,.cls-16,.cls-4,.cls-8,.cls-9{font-weight:700;}.cls-4{opacity:0.7;}.cls-5{letter-spacing:-0.02em;}.cls-6{font-family:ArialMT, Arial;}.cls-8,.cls-9{font-size:14.33px;}.cls-8{opacity:0.9;}.cls-9{opacity:0.8;}.cls-10{font-size:13.91px;}.cls-10,.cls-11,.cls-14,.cls-16{font-family:Roboto-Bold, Roboto;}.cls-11{font-size:13.16px;}.cls-12{letter-spacing:-0.01em;}.cls-13{letter-spacing:0.01em;}.cls-14{font-size:13.91px;}.cls-15{letter-spacing:-0.02em;}.cls-16{font-size:14.25px;}.cls-17{letter-spacing:-0.01em;}.cls-18{letter-spacing:-0.02em;}.cls-19{letter-spacing:-0.03em;}.cls-20{letter-spacing:0em;}.cls-21{letter-spacing:-0.01em;}.cls-22{letter-spacing:-0.01em;}.cls-23{letter-spacing:0em;}</style></defs><title>double dimond 2</title><path class="cls-1" d="M709.59,614.26,500.5,415.53,705.28,221.2q103.13,97.16,206.23,194.33Z" transform="translate(-85.62 -165.74)"/><path class="cls-1" d="M293.24,612,87.79,415.48,293.42,221.2,500.5,415.48Z" transform="translate(-85.62 -165.74)"/><path class="cls-2" d="M500.75,605.55q-.09,9.74-.25,19.46" transform="translate(-85.62 -165.74)"/><path class="cls-2" d="M501,571q0,12.94-.1,25.88" transform="translate(-85.62 -165.74)"/><path class="cls-2" d="M501,526.76q0,8.24,0,16.47" transform="translate(-85.62 -165.74)"/><path class="cls-2" d="M501,483.73q0,14.89,0,29.79" transform="translate(-85.62 -165.74)"/><path class="cls-2" d="M500.94,446.64q0,11.6,0,23.19" transform="translate(-85.62 -165.74)"/><path class="cls-2" d="M500.89,399.83q0,16.8,0,33.62" transform="translate(-85.62 -165.74)"/><path class="cls-2" d="M500.84,369l0,17.71" transform="translate(-85.62 -165.74)"/><path class="cls-2" d="M500.75,330.47l.06,25.24" transform="translate(-85.62 -165.74)"/><path class="cls-2" d="M500.65,296.36q0,10.89.07,21.78" transform="translate(-85.62 -165.74)"/><path class="cls-2" d="M500.5,252.85q.06,14.73.11,29.48" transform="translate(-85.62 -165.74)"/><path class="cls-2" d="M500.5,214.39a203.7,203.7,0,0,1,0,24.71" transform="translate(-85.62 -165.74)"/><line class="cls-3" x1="207.48" y1="55.55" x2="1.54" y2="249.79"/><line class="cls-3" x1="620.83" y1="55.55" x2="414.88" y2="249.79"/><line class="cls-3" x1="414.88" y1="249.79" x2="207.48" y2="55.55"/><line class="cls-3" x1="1.54" y1="249.79" x2="207.31" y2="446.27"/><line class="cls-3" x1="414.88" y1="249.79" x2="207.31" y2="446.27"/><line class="cls-3" x1="414.97" y1="249.79" x2="623.97" y2="448.52"/><line class="cls-3" x1="825.89" y1="249.79" x2="623.97" y2="448.52"/><line class="cls-3" x1="620.83" y1="55.55" x2="825.89" y2="249.79"/><text x="-85.62" y="-165.74"></text><text class="cls-4" transform="translate(135.51 40.32) scale(0.96 1)">UNDERS<tspan class="cls-5" x="66.99" y="0">T</tspan><tspan x="76.37" y="0">ANDING</tspan></text><text class="cls-4" transform="translate(582.31 40.32) scale(0.99 1)">SOLUTION</text><text class="cls-6" transform="translate(72.69 15.91) scale(1.08 1)">Are we building <tspan class="cls-7" x="131.93" y="0">the right thing</tspan><tspan x="244.28" y="0">?</tspan></text><text class="cls-6" transform="translate(486.07 15.91) scale(1.1 1)">Are we building <tspan class="cls-7" x="131.93" y="0">the thing right</tspan><tspan x="244.28" y="0">?</tspan></text><text class="cls-8" transform="translate(41.23 459.27) scale(0.93 1)">DISCOVER</text><text class="cls-9" transform="translate(311.18 459.27) scale(0.93 1)">DEFINE</text><text class="cls-9" transform="translate(465 459.27) scale(0.93 1)">DEVELOP</text><text class="cls-9" transform="translate(741.95 459.27) scale(0.93 1)">REFINE</text><text class="cls-10" transform="translate(243.2 168.54) scale(1.08 1)">Brief</text><text class="cls-11" transform="translate(69.06 212.08) scale(1.14 1)">Qualitative Resea<tspan class="cls-12" x="103.37" y="0">r</tspan><tspan x="108.05" y="0">ch </tspan><tspan x="-18.22" y="15.79">(semi-structured inte</tspan><tspan class="cls-13" x="107.3" y="15.79">r</tspan><tspan x="112.21" y="15.79">view)</tspan></text><text x="-85.62" y="-165.74"></text><text class="cls-14" transform="matrix(1.08, -0.01, 0.01, 1, 165.69, 140.69)">Persona</text><text class="cls-11" transform="translate(221.41 279.72) scale(1.14 1)">P<tspan class="cls-15" x="8.49" y="0">r</tspan><tspan x="13.05" y="0">oblem Statement</tspan></text><text class="cls-16" transform="translate(269.12 221.77) scale(1.05 1)">Synthesis</text><text class="cls-16" transform="translate(67.93 268.92) scale(1.05 1)">Affinity Mapping</text><text class="cls-16" transform="translate(130.4 335.29) scale(1.05 1)">Cus<tspan class="cls-17" x="24.63" y="0">t</tspan><tspan x="29.23" y="0">omer Journey</tspan><tspan x="44.98" y="17.1">Map</tspan></text><text class="cls-10" transform="translate(602.66 133.35) scale(1.08 1)">Sketching</text><text class="cls-16" transform="translate(501.06 186.72) scale(1.05 1)">Low- Fidelity P<tspan class="cls-18" x="94.91" y="0">r</tspan><tspan x="99.86" y="0">o</tspan><tspan class="cls-17" x="107.92" y="0">t</tspan><tspan x="112.53" y="0">otyping</tspan></text><text class="cls-16" transform="translate(474.9 266.32) scale(1.05 1)">Hi- Fidelity P<tspan class="cls-18" x="82.51" y="0">r</tspan><tspan x="87.46" y="0">o</tspan><tspan class="cls-17" x="95.52" y="0">t</tspan><tspan x="100.13" y="0">otyping</tspan></text><text class="cls-16" transform="translate(654.62 232.4) scale(1.05 1)">User -<tspan class="cls-19" x="38.69" y="0"> </tspan><tspan x="41.82" y="0">Testing</tspan></text><text class="cls-16" transform="translate(575.4 324.37) scale(1.05 1)">Clickable P<tspan class="cls-18" x="71.82" y="0">r</tspan><tspan class="cls-20" x="76.76" y="0">o</tspan><tspan class="cls-21" x="84.82" y="0">t</tspan><tspan class="cls-20" x="89.43" y="0">otyping</tspan></text><text class="cls-16" transform="translate(573.63 373.86) scale(1.05 1)">Ite<tspan class="cls-22" x="16.67" y="0">r</tspan><tspan class="cls-23" x="21.66" y="0">ations</tspan></text></svg>