<svg id="Слой_1" data-name="Слой 1" xmlns="http://www.w3.org/2000/svg" viewBox="0 0 828.06 463.25"><defs><style>.cls-1{fill:#b30037;}.cls-1,.cls-2{stroke:#f3f4f4;stroke-width:3px;}.cls-1,.cls-2,.cls-3{stroke-miterlimit:10;}.cls-1,.cls-2,.cls-4{opacity:0.5;}.cls-2{fill:#55295f;}.cls-3,.cls-4{fill:none;}.cls-3{stroke:#000;}.cls-5,.cls-7{font-size:18.54px;}.cls-10,.cls-5,.cls-8,.cls-9{fill:#9c0538;}.cls-10,.cls-5,.cls-9{font-family:Candara-Bold, Candara;}.cls-10,.cls-11,.cls-12,.cls-5,.cls-9{font-weight:700;}.cls-5{opacity:0.7;}.cls-6{letter-spacing:-0.02em;}.cls-7{font-family:ArialMT, Arial;}.cls-10,.cls-9{font-size:14.33px;}.cls-9{opacity:0.9;}.cls-10{opacity:0.8;}.cls-11{font-size:13.91px;}.cls-11,.cls-12{font-family:Arial-BoldMT, Arial;}.cls-12{font-size:14px;}.cls-13{letter-spacing:-0.07em;}.cls-14{letter-spacing:0em;}</style></defs><title>double dimond 4</title><path class="cls-1" d="M709.59,614.26,500.5,415.53,705.28,221.2q103.13,97.16,206.23,194.33Z" transform="translate(-85.62 -165.74)"/><path class="cls-2" d="M293.24,612,87.79,415.48,293.42,221.2,500.5,415.48Z" transform="translate(-85.62 -165.74)"/><path class="cls-3" d="M500.75,605.55q-.09,9.74-.25,19.46" transform="translate(-85.62 -165.74)"/><path class="cls-3" d="M501,571q0,12.94-.1,25.88" transform="translate(-85.62 -165.74)"/><path class="cls-3" d="M501,526.76q0,8.24,0,16.47" transform="translate(-85.62 -165.74)"/><path class="cls-3" d="M501,483.73q0,14.89,0,29.79" transform="translate(-85.62 -165.74)"/><path class="cls-3" d="M500.94,446.64q0,11.6,0,23.19" transform="translate(-85.62 -165.74)"/><path class="cls-3" d="M500.89,399.83q0,16.8,0,33.62" transform="translate(-85.62 -165.74)"/><path class="cls-3" d="M500.84,369l0,17.71" transform="translate(-85.62 -165.74)"/><path class="cls-3" d="M500.75,330.47l.06,25.24" transform="translate(-85.62 -165.74)"/><path class="cls-3" d="M500.65,296.36q0,10.89.07,21.78" transform="translate(-85.62 -165.74)"/><path class="cls-3" d="M500.5,252.85q.06,14.73.11,29.48" transform="translate(-85.62 -165.74)"/><path class="cls-3" d="M500.5,214.39a203.7,203.7,0,0,1,0,24.71" transform="translate(-85.62 -165.74)"/><line class="cls-4" x1="207.48" y1="55.55" x2="1.54" y2="249.79"/><line class="cls-4" x1="620.83" y1="55.55" x2="414.88" y2="249.79"/><line class="cls-4" x1="414.88" y1="249.79" x2="207.48" y2="55.55"/><line class="cls-4" x1="1.54" y1="249.79" x2="207.31" y2="446.27"/><line class="cls-4" x1="414.88" y1="249.79" x2="207.31" y2="446.27"/><line class="cls-4" x1="414.97" y1="249.79" x2="623.97" y2="448.52"/><line class="cls-4" x1="825.89" y1="249.79" x2="623.97" y2="448.52"/><line class="cls-4" x1="620.83" y1="55.55" x2="825.89" y2="249.79"/><text x="-85.62" y="-165.74"></text><text class="cls-5" transform="translate(135.51 40.32) scale(0.96 1)">UNDERS<tspan class="cls-6" x="67" y="0">T</tspan><tspan x="76.37" y="0">ANDING</tspan></text><text class="cls-5" transform="translate(582.31 40.32) scale(0.99 1)">SOLUTION</text><text class="cls-7" transform="translate(72.69 15.91) scale(1.08 1)">Are we building <tspan class="cls-8" x="131.93" y="0">the right thing</tspan><tspan x="244.28" y="0">?</tspan></text><text class="cls-7" transform="translate(486.07 15.91) scale(1.1 1)">Are we building <tspan class="cls-8" x="131.93" y="0">the thing right</tspan><tspan x="244.28" y="0">?</tspan></text><text class="cls-9" transform="translate(41.23 459.27) scale(0.93 1)">DISCOVER</text><text class="cls-10" transform="translate(311.18 459.27) scale(0.93 1)">DEFINE</text><text class="cls-10" transform="translate(465 459.27) scale(0.93 1)">DEVELOP</text><text class="cls-10" transform="translate(741.95 459.27) scale(0.93 1)">REFINE</text><text class="cls-11" transform="translate(243.2 168.54) scale(1.08 1)">Brief</text><text class="cls-12" transform="translate(59.45 220.94) scale(1.14 1)">Qualitative Research <tspan x="-18.66" y="16.8">(semi-structured interview)</tspan></text><text x="-85.62" y="-165.74"></text><text class="cls-12" transform="translate(221.41 279.72) scale(1.14 1)">Problem Statement</text><text class="cls-12" transform="translate(267.37 221.77) scale(1.05 1)">Synthesis</text><text class="cls-12" transform="translate(66.5 268.92) scale(1.05 1)">Affinity Mapping</text><text class="cls-12" transform="translate(127.47 335.29) scale(1.05 1)">Customer Journey<tspan x="47.85" y="16.8">Map</tspan></text><text class="cls-12" transform="translate(602.66 133.35) scale(1.08 1)">Sketching</text><text class="cls-12" transform="translate(506.73 189.96) scale(1.05 1)">Low- Fidelity Prototyping</text><text class="cls-12" transform="translate(471.78 266.32) scale(1.05 1)">Hi- Fidelity Prototyping</text><text class="cls-12" transform="translate(653.6 232.4) scale(1.05 1)">User - <tspan class="cls-13" x="43.57" y="0">T</tspan><tspan class="cls-14" x="51.08" y="0">esting</tspan></text><text class="cls-12" transform="translate(571.96 324.37) scale(1.05 1)">Clickable Prototyping</text><text class="cls-12" transform="translate(572.71 373.86) scale(1.05 1)">Iterations</text><text class="cls-11" transform="translate(156.36 144.61) scale(1.08 1)">Persona</text></svg>