<svg xmlns="http://www.w3.org/2000/svg" xmlns:xlink="http://www.w3.org/1999/xlink" viewBox="0 0 187.71 566.61"><defs><style>.cls-1,.cls-13{fill:#9b774f;}.cls-1{opacity:0;}.cls-2{isolation:isolate;}.cls-3{fill:#a4afaf;}.cls-10,.cls-19,.cls-20,.cls-4,.cls-72,.cls-9{fill:#fff;}.cls-5{fill:#424243;opacity:0.4;}.cls-6{fill:#dbdbda;}.cls-40,.cls-7{fill:#cad6d6;}.cls-12,.cls-40,.cls-42,.cls-43,.cls-45,.cls-58,.cls-61,.cls-62,.cls-64,.cls-67,.cls-7,.cls-70,.cls-8{mix-blend-mode:multiply;}.cls-8{fill:#a8b8b8;}.cls-19,.cls-30,.cls-38,.cls-40,.cls-61,.cls-64,.cls-71,.cls-8{opacity:0.5;}.cls-55,.cls-9{opacity:0.3;}.cls-41,.cls-47,.cls-71,.cls-9{mix-blend-mode:screen;}.cls-10,.cls-29,.cls-36,.cls-45,.cls-51{opacity:0.2;}.cls-11{fill:#c9c9c9;}.cls-12{fill:#878d8a;}.cls-14{clip-path:url(#clip-path);}.cls-15{fill:#b38d62;}.cls-16{fill:url(#radial-gradient);}.cls-17{fill:#1a1b1c;}.cls-18{fill:#a48463;}.cls-20,.cls-25,.cls-58,.cls-62{opacity:0.7;}.cls-21{fill:#b4956d;}.cls-22,.cls-30{fill:#442a21;}.cls-23{fill:#704935;}.cls-24{fill:#83624f;}.cls-26,.cls-55{fill:#f4e3d3;}.cls-27{fill:#372413;}.cls-28{fill:url(#radial-gradient-2);}.cls-29{fill:#a88060;}.cls-31{fill:#e7e5da;}.cls-32{fill:#c8b8aa;}.cls-33{fill:#856e60;}.cls-34{fill:#7f5e40;}.cls-35{fill:url(#radial-gradient-3);}.cls-37{fill:url(#radial-gradient-4);}.cls-39{fill:#f7e5ce;}.cls-41,.cls-56,.cls-71{fill:#484041;}.cls-43{fill:#e5a86a;}.cls-44{fill:url(#radial-gradient-5);}.cls-45{fill:#38281b;}.cls-46{fill:#533d20;}.cls-47{fill:#9c705e;}.cls-47,.cls-68{opacity:0.8;}.cls-48{fill:#e2d5a9;}.cls-49{fill:#d8c28e;}.cls-50{fill:#fbf4e8;}.cls-51{fill:#202020;}.cls-52{fill:#cfd1d2;}.cls-53{fill:#d2cfba;}.cls-54{fill:url(#Orange);}.cls-57{fill:#191414;}.cls-58{fill:#402218;}.cls-59,.cls-61,.cls-62{fill:#6c3c29;}.cls-60{fill:#804d3a;}.cls-63{fill:#b9846a;}.cls-64{fill:#5b3124;}.cls-65,.cls-67{fill:#dac27e;}.cls-66,.cls-68{fill:#eddfb8;}.cls-69{fill:#ceb46e;}.cls-70{fill:url(#radial-gradient-6);}.cls-72{opacity:0.1;}.cls-73{fill:#b47843;}.cls-74{fill:url(#radial-gradient-7);}.cls-75{fill:#3a2a22;}</style><clipPath id="clip-path" transform="translate(-3.61 -6.16)"><path id="_Обтравочный_контур_" data-name="&lt;Обтравочный контур&gt;" class="cls-1" d="M100.61,116.39c0,5.9-17.44,10.69-39,10.69s-39-4.79-39-10.69,17.45-10.68,39-10.68S100.61,110.49,100.61,116.39Z"/></clipPath><radialGradient id="radial-gradient" cx="-178.78" cy="485.23" r="96.98" gradientTransform="translate(139.17 65.4) scale(0.43 0.1)" gradientUnits="userSpaceOnUse"><stop offset="0.27" stop-color="#1a1b1c"/><stop offset="0.46" stop-color="#1c1d1d"/><stop offset="0.56" stop-color="#242321"/><stop offset="0.65" stop-color="#322d27"/><stop offset="0.72" stop-color="#463b30"/><stop offset="0.79" stop-color="#5f4e3c"/><stop offset="0.85" stop-color="#7e654a"/><stop offset="0.9" stop-color="#a2805a"/><stop offset="0.93" stop-color="#b38d62"/></radialGradient><radialGradient id="radial-gradient-2" cx="2.48" cy="-367.32" r="108.8" gradientTransform="translate(137.85 103.45) scale(0.53 0.2)" gradientUnits="userSpaceOnUse"><stop offset="0" stop-color="#7e5d3f"/><stop offset="0.61" stop-color="#624033"/><stop offset="1" stop-color="#35261b"/></radialGradient><radialGradient id="radial-gradient-3" cx="-9.47" cy="-406.09" r="8.74" gradientTransform="translate(137.85 213.71) scale(0.53 0.5)" gradientUnits="userSpaceOnUse"><stop offset="0" stop-color="#d87d61"/><stop offset="0.5" stop-color="#ca2228"/><stop offset="1" stop-color="#b1282e"/></radialGradient><radialGradient id="radial-gradient-4" cx="-10.46" cy="-405.08" r="4.94" gradientTransform="translate(137.85 213.71) scale(0.53 0.5)" gradientUnits="userSpaceOnUse"><stop offset="0" stop-color="#fff"/><stop offset="0.25" stop-color="#fff" stop-opacity="0.99"/><stop offset="0.39" stop-color="#fff" stop-opacity="0.96"/><stop offset="0.5" stop-color="#fff" stop-opacity="0.91"/><stop offset="0.59" stop-color="#fff" stop-opacity="0.83"/><stop offset="0.68" stop-color="#fff" stop-opacity="0.73"/><stop offset="0.75" stop-color="#fff" stop-opacity="0.61"/><stop offset="0.83" stop-color="#fff" stop-opacity="0.47"/><stop offset="0.89" stop-color="#fff" stop-opacity="0.3"/><stop offset="0.96" stop-color="#fff" stop-opacity="0.12"/><stop offset="0.99" stop-color="#fff" stop-opacity="0"/></radialGradient><radialGradient id="radial-gradient-5" cx="-176.27" cy="259.73" fx="-236.55581386311005" fy="250.33035914196893" r="61.02" gradientTransform="matrix(0.44, -0.02, 0.01, 0.17, 135.28, 243.7)" gradientUnits="userSpaceOnUse"><stop offset="0.27" stop-color="#ddbe94"/><stop offset="0.51" stop-color="#cca478"/><stop offset="0.83" stop-color="#866032"/></radialGradient><linearGradient id="Orange" x1="100.75" y1="213.45" x2="176.41" y2="213.45" gradientUnits="userSpaceOnUse"><stop offset="0" stop-color="#de9257"/><stop offset="0.5" stop-color="#d7742d"/><stop offset="1" stop-color="#ba6232"/></linearGradient><radialGradient id="radial-gradient-6" cx="23.79" cy="85.01" r="92.47" gradientTransform="translate(139.03 388.86) scale(0.39 0.13)" gradientUnits="userSpaceOnUse"><stop offset="0.01" stop-color="#b8755d" stop-opacity="0"/><stop offset="0.35" stop-color="#b6745c" stop-opacity="0.02"/><stop offset="0.52" stop-color="#b17058" stop-opacity="0.09"/><stop offset="0.65" stop-color="#a76952" stop-opacity="0.22"/><stop offset="0.77" stop-color="#9a5f49" stop-opacity="0.39"/><stop offset="0.88" stop-color="#89523d" stop-opacity="0.62"/><stop offset="0.97" stop-color="#74422e" stop-opacity="0.9"/><stop offset="1" stop-color="#6c3c29"/></radialGradient><radialGradient id="radial-gradient-7" cx="-112.47" cy="449.42" r="1.49" gradientTransform="matrix(98.93, -1.69, -1.4, -100.57, 11791.84, 45457.31)" gradientUnits="userSpaceOnUse"><stop offset="0" stop-color="#fff"/><stop offset="0.14" stop-color="#cbb4a6"/><stop offset="0.28" stop-color="#986a4c"/><stop offset="0.35" stop-color="#834c29"/><stop offset="0.65" stop-color="#4c2417"/><stop offset="0.99" stop-color="#331c1c"/><stop offset="1" stop-color="#331c1c"/></radialGradient></defs><title>image2</title><g class="cls-2"><g id="Слой_1" data-name="Слой 1"><path class="cls-3" d="M59.51,173c-22.69-.1-40.82-6.77-40.49-14.89s19-14.63,41.68-14.53,40.82,6.77,40.49,14.9S82.2,173.07,59.51,173" transform="translate(-3.61 -6.16)"/><path class="cls-4" d="M59.46,171.93c-22.44-.1-40.37-6.62-40-14.55S38.19,143.1,60.62,143.2s40.37,6.61,40,14.55S81.89,172,59.46,171.93" transform="translate(-3.61 -6.16)"/><path class="cls-5" d="M85.81,155.17c-.2,4.91-11.62,8.84-25.51,8.78s-25-4.1-24.78-9,11.62-8.84,25.5-8.78S86,150.26,85.81,155.17Z" transform="translate(-3.61 -6.16)"/><path class="cls-6" d="M38.51,139.31h0a6.85,6.85,0,0,0-.84-.49,7.27,7.27,0,0,0-1.86-.5c-1.1-.12-2.2-.26-3.3-.41a63,63,0,0,1-7-1.35c-4.06-1-11.88-3-13.62-6.25-1.48-2.74,1-6.28,5.33-5.48,2.21.4,4.09,2.22,6.35,2.77,8.18,2,3.06-7-.17-8.68-3-1.59-7.27-1.64-10.75-.84-9,2.1-10.42,9-7.8,14,2.51,4.86,8.8,7.83,15,9.71a61.81,61.81,0,0,0,9.29,2c3.21.46,6.57,1,9.44-.46C40.54,142.34,40.49,140.34,38.51,139.31Z" transform="translate(-3.61 -6.16)"/><path class="cls-7" d="M21.63,135.55a3.62,3.62,0,0,1,0,2.59,2.76,2.76,0,0,1-.6.94,8.66,8.66,0,0,1-3.66,1,20.41,20.41,0,0,1-4.47-.87,45.2,45.2,0,0,0,6.84,2.64,62.09,62.09,0,0,0,9.1,2c.32-2.25-1.32-4.88-2.54-6.63l-.34-.48-.55-.13C24.38,136.29,23,136,21.63,135.55Z" transform="translate(-3.61 -6.16)"/><path class="cls-8" d="M13.16,131.81a5.15,5.15,0,0,1-1.33-1.51c-1.48-2.74,1-6.28,5.33-5.48,2.21.4,4.09,2.22,6.35,2.77.62.15,2.4.6,3,.16s-.18-1.18-.28-1.65a20.53,20.53,0,0,0-1.85-5.32c-.66-1.26-1.55-4-4-4-1.87.06-2.19,2-2.25,3.07s.29,1.93-1.52,2.39c-1.09.27-2.28.09-3.37.42a5.19,5.19,0,0,0-3.81,4C9.15,128.51,10.79,130.94,13.16,131.81Z" transform="translate(-3.61 -6.16)"/><path class="cls-6" d="M101.49,115.28c-.89-2.63-3.77-5.26-6.19-6.7-4.16-2.47-9.22-3.49-14-4.42A113.42,113.42,0,0,0,49,102.63c-8.3.78-17.86,1.75-24.64,6.75a13.65,13.65,0,0,0-5.4,9,15.44,15.44,0,0,0,.67,6.13c.68,2.66,1.47,5.31,2.14,8,2.57,10.18,7.08,20.06,19.39,25.79,11.51,5.35,26.31,5.16,37.89.18,4.92-2.12,9.27-5,12.2-8.65a48.26,48.26,0,0,0,6.21-10.54C100.82,131.88,104.11,123.06,101.49,115.28Z" transform="translate(-3.61 -6.16)"/><path class="cls-9" d="M98,138c.92-2.09,1.81-4.28,2.55-6.52-41.53,21.67-72.71,3.59-79.22-.78.15.57.3,1.14.44,1.71.39,1.55.83,3.1,1.33,4.62C32.11,142.54,60.64,156.28,98,138Z" transform="translate(-3.61 -6.16)"/><path class="cls-9" d="M16.13,119.62c-4.23-.93-8.69,1.47-10.07,4.38a8.19,8.19,0,0,0-.54,5.5A7,7,0,0,0,8.74,134a1.09,1.09,0,0,0,1.56-.67c0-1.23-1.23-2.39-1.75-3.53a6,6,0,0,1,.07-4.76,5.84,5.84,0,0,1,3.92-3.24,15.46,15.46,0,0,0,3.87-1.39C16.79,120.18,16.56,119.72,16.13,119.62Z" transform="translate(-3.61 -6.16)"/><path class="cls-10" d="M80.73,130.08s13.62-2,19.81-7.92c0,0-4.32,35.48-35.2,37.6C65.34,159.76,76.76,152.14,80.73,130.08Z" transform="translate(-3.61 -6.16)"/><path class="cls-11" d="M22.36,117.76c.13.31,2.5-1.78,2.65-2.08.61-1.23,1.3-1.33,3.24-2.28a30.84,30.84,0,0,1,7.91-2.15c6.47-1.07,13.58-2.45,20.42-2.59a137.1,137.1,0,0,1,23.21,1.24,94.66,94.66,0,0,1,11.71,2.54,23.86,23.86,0,0,1,4.71,1.8,2.43,2.43,0,0,1,1.48,2.32c.07.58,2.19,1.53,2.78.89,0,0,5.55-13.16-38.29-13.16C18,104.29,21.78,116.82,22.36,117.76Z" transform="translate(-3.61 -6.16)"/><path class="cls-12" d="M98.58,116.23C96.37,120.66,87,122.61,81.2,125a.4.4,0,0,0-.27.28c1.84-.36,3.64-.78,5.38-1.28,4.67-1.35,9.48-3,12.42-5.29s2.14-4.56-.41-6.42A3.93,3.93,0,0,1,98.58,116.23Z" transform="translate(-3.61 -6.16)"/><path class="cls-13" d="M100.61,116.39c0,5.9-17.44,10.69-39,10.69s-39-4.79-39-10.69,17.45-10.68,39-10.68S100.61,110.49,100.61,116.39Z" transform="translate(-3.61 -6.16)"/><path id="_Обтравочный_контур_2" data-name="&lt;Обтравочный контур&gt;" class="cls-1" d="M100.61,116.39c0,5.9-17.44,10.69-39,10.69s-39-4.79-39-10.69,17.45-10.68,39-10.68S100.61,110.49,100.61,116.39Z" transform="translate(-3.61 -6.16)"/><g class="cls-14"><path class="cls-13" d="M28.5,110.11A42.87,42.87,0,0,1,38,107.27a134,134,0,0,1,21.71-1.83,159.53,159.53,0,0,1,26.44,1.78c6.51,1,14.1,3.3,15.32,7.37s-3.61,6.93-9.29,9c-10.19,3.71-23.86,5.08-35.9,4.58a77.74,77.74,0,0,1-19.46-3c-4.78-1.47-9.71-3.21-12.73-5.77C19.9,115.76,23.25,112.43,28.5,110.11Z" transform="translate(-3.61 -6.16)"/><path class="cls-15" d="M60.66,124.29c-1.57,0-3.15,0-4.7-.1a71.69,71.69,0,0,1-18.78-3.06c-4.32-1.39-9.1-3.14-11.74-5.49a3.21,3.21,0,0,1-.84-1c.15-.43,1.22-1.77,4.53-3.31A38.74,38.74,0,0,1,38,108.55a124,124,0,0,1,21.25-1.88H61A148.3,148.3,0,0,1,85.3,108.5c8.81,1.47,12.61,4.13,13,5.57.33,1.14-1.88,3.34-7.5,5.48C82.93,122.57,71.94,124.29,60.66,124.29Z" transform="translate(-3.61 -6.16)"/><path class="cls-16" d="M60.51,125.14c-1.75,0-3.51,0-5.23-.14-7.88-.44-15.36-.91-21.19-3.3-3.73-1.53-8.26-1.75-10.54-6.9a18.93,18.93,0,0,1,2.21-1.49,35.11,35.11,0,0,1,9.54-3.76A109.5,109.5,0,0,1,59,106.9h1.89a130.85,130.85,0,0,1,27.18,2.6c6.85,1.45,10.46,3.61,12,5-1,1-2.43,3.56-5.76,5.17C85.61,123.84,73,125.14,60.51,125.14Z" transform="translate(-3.61 -6.16)"/><path class="cls-17" d="M59.75,126.73c-1.75,0-3.5-.06-5.19-.17A74.92,74.92,0,0,1,33.92,122a33.56,33.56,0,0,1-5.14-2.21c-1.27-.68-4.18-2.44-3.34-4.48.49-1.19,5.66-2.94,7.24-3.36a98.91,98.91,0,0,1,18.75-3.33q3.39-.24,6.79-.29h1.89a113,113,0,0,1,24.52,2.49c2.18.48,4.34,1,6.48,1.6,1.3.4,6,1.43,5.6,3.53-.26,1.53-2,2.61-3.09,3.24C85.05,124.16,72.15,126.73,59.75,126.73Z" transform="translate(-3.61 -6.16)"/></g><path class="cls-18" d="M30.14,110.1s-4.26,1.48-6,3.3l.28.28S28.35,110.72,30.14,110.1Z" transform="translate(-3.61 -6.16)"/><path class="cls-18" d="M95.32,111a17.78,17.78,0,0,1,2.91,1.66l-.08.22Z" transform="translate(-3.61 -6.16)"/><path class="cls-6" d="M61,103.44c-22.24,0-40.26,5.23-40.26,11.68,0,8.16,18,12.67,40.26,12.67s40.26-2.75,40.26-12.67C101.29,108.67,83.27,103.44,61,103.44Zm0,20.87c-20.37,0-36.88-4.45-36.88-10s16.51-10,36.88-10,36.88,4.46,36.88,10S81.4,124.31,61,124.31Z" transform="translate(-3.61 -6.16)"/><path class="cls-19" d="M55.12,125.31a.85.85,0,0,1-.12.26c-.67,1-4.42.22-5.42.11-3.78-.41-7.51-.82-11.24-1.54-1.87-.37-3.74-.83-5.57-1.36-7.18-2.08-11.31-4.88-11.31-7.66,0-2.28,2.77-4.57,7.72-6.47-3.73,1.67-5.73,3.63-5.73,5.71,0,3,4,5.67,11.3,7.64a92.69,92.69,0,0,0,17.51,2.65C52.71,124.68,55.29,124.63,55.12,125.31Z" transform="translate(-3.61 -6.16)"/><path class="cls-10" d="M92.24,115.66c0,2.92-9.71,5.29-21.68,5.29s-6.82-4.75-4.12-5.29c14.57-2.87-7.86-5.28,4.12-5.28S92.24,113.88,92.24,115.66Z" transform="translate(-3.61 -6.16)"/><path class="cls-19" d="M74.58,124.41s-3.26.25-4,.85,2.28,1.33,8.71.18,13.8-3.16,15.47-5.12-1.22-.47-5,1S74.58,124.41,74.58,124.41Z" transform="translate(-3.61 -6.16)"/><path class="cls-4" d="M17.6,92.25c-6.22,10.62,0,20.36,0,20.36-.93-1.56-.64-4.62-.56-6.28" transform="translate(-3.61 -6.16)"/><path class="cls-4" d="M61.8,74.2s-5.87,12.56-1.28,20.21c4.34,7.23-.65,11.52-.65,11.52s7.84-3.21,3.6-11.27c-5.26-10-1.67-20.46-1.67-20.46" transform="translate(-3.61 -6.16)"/><path class="cls-20" d="M56.51,95.55s4.37,3.26,1.41,6.45a5,5,0,0,0-.36,6.46,3.4,3.4,0,0,1,.07-2,8.26,8.26,0,0,1,1.69-3.63,7.23,7.23,0,0,0,1.7-2.27c.41-1.46-1.11-2.73-2.51-3.69C57.86,96.41,57.19,96,56.51,95.55Z" transform="translate(-3.61 -6.16)"/><path class="cls-3" d="M191.32,74.46c-.51,7.09-29,12.77-63.73,12.68s-62.4-5.91-61.89-13,29-12.77,63.72-12.68,62.4,5.91,61.9,13" transform="translate(-3.61 -6.16)"/><path class="cls-4" d="M190.52,73.85c-.5,6.92-28.7,12.46-63,12.38S65.8,80.45,66.29,73.53,95,61.07,129.3,61.15,191,66.93,190.52,73.85Z" transform="translate(-3.61 -6.16)"/><path class="cls-5" d="M167.8,71.6c-.3,4.29-17.76,7.71-39,7.66s-38.2-3.57-37.9-7.86,17.77-7.71,39-7.66S168.11,67.31,167.8,71.6Z" transform="translate(-3.61 -6.16)"/><path class="cls-21" d="M178.29,38.6,80.2,35.73l-.71,22.09h0l-.34,10.37h0a3.39,3.39,0,0,0,0,.45v.23h0c.94,6,22.28,11.68,48.64,12.45s48-3.56,49.38-9.7v0l.22-8.51h0Z" transform="translate(-3.61 -6.16)"/><path class="cls-22" d="M93.43,43.5S90,42.15,87.9,43.34s-1.3,5.48,6.59,7.94,15.72,2.88,18.57,4.33a15.34,15.34,0,0,0,7.85,1.56c2-.16,20.22-1.92,20.22-1.92s9-.11,12.76-1.43,8.07-3.28,10.77-3.12a16.31,16.31,0,0,0,7.63-1.61c1.61-.88.59-5.94-3.38-5.49s-11.65,3-19.42,3.26-27,3.09-31.75,2.48a73.75,73.75,0,0,1-9.07-1.57Z" transform="translate(-3.61 -6.16)"/><path class="cls-23" d="M119.52,55.16a13.13,13.13,0,0,1-5.43-1.35c-1.68-.86-4.36-1.34-7.74-1.94a92.51,92.51,0,0,1-11.17-2.53c-4.43-1.38-5.64-3.15-5.91-3.66a1.29,1.29,0,0,1-.18-.63,2.6,2.6,0,0,1,1.1-.15,8.26,8.26,0,0,1,2.41.49l.21.07,15.24,4.27.14,0,.64.13a70,70,0,0,0,8.55,1.45h.07c.37,0,.8.08,1.31.1,3.47.1,10.28-.63,16.86-1.32,5.28-.56,10.73-1.14,13.94-1.23A74.09,74.09,0,0,0,164,46.66c2.1-.48,3.91-.89,5.18-1a1.24,1.24,0,0,1,.27,0,1.14,1.14,0,0,1,1,.54,2.32,2.32,0,0,1,.42,1.34,14.78,14.78,0,0,1-5.8,1.18l-.25,0h-.23c-2.51-.07-5.55,1.07-8.77,2.28-.89.33-1.8.67-2.66,1-2.83,1-9.65,1.27-12,1.3h-.19c-.19,0-18.25,1.77-20.19,1.92A11.72,11.72,0,0,1,119.52,55.16Z" transform="translate(-3.61 -6.16)"/><path class="cls-24" d="M119.87,54.12h-.32a11.78,11.78,0,0,1-4.93-1.22c-1.84-.94-4.58-1.43-8.06-2a92.17,92.17,0,0,1-11-2.49A12.23,12.23,0,0,1,91,46a8.92,8.92,0,0,1,1.23.33l.3.1,15.24,4.28.21,0,.64.14a73.72,73.72,0,0,0,8.65,1.46h.06c.43.05.9.09,1.44.1h.73c3.69,0,10.08-.67,16.26-1.33h.08C141,50.62,146.44,50,149.59,50A55.8,55.8,0,0,0,158,49c-.84.3-1.7.62-2.57,1s-1.78.66-2.64,1c-2.37.82-8.41,1.19-11.67,1.24h-.29c-.17,0-18.23,1.76-20.17,1.92Q120.28,54.12,119.87,54.12Zm45.45-6.49h-.75c1.93-.44,3.59-.81,4.73-.94h.14s0,0,.07.09a.75.75,0,0,1,.07.12A14,14,0,0,1,165.32,47.63Z" transform="translate(-3.61 -6.16)"/><path class="cls-22" d="M83.87,50.57a4.21,4.21,0,0,0-2.52,4.67c.41,3.64,4,2.86,7,4.83s9,3.07,12,3.81,9.47,5.52,13.57,5.95,9.45-.16,16-.44,13.5-1.27,18.34-1.59,2.69-.86,10.65-2.67,11.84-2.4,14.12-2.73,3.78-6.7,3.41-7.46c0,0-7.42.5-9.76,1.55s-8.4,3.25-11.07,4.09-18.18.18-20.13,1.25-11.11,1.36-16.51,1.42-14.92-.92-18-3a46.15,46.15,0,0,0-7.77-3.93C90.15,55,85.75,50.4,83.87,50.57Z" transform="translate(-3.61 -6.16)"/><path class="cls-23" d="M116.07,67.92c-.71,0-1.34-.06-1.93-.12-1.94-.21-5.07-1.91-7.59-3.27-.29-.17-.59-.32-.87-.48a69.4,69.4,0,0,0,11.15,1.22c.75,0,1.47,0,2.13,0,14.26-.16,16.72-1.23,17.5-1.65a17.28,17.28,0,0,1,3.39-.33c1.85-.09,4.12-.13,6.32-.16,5.29-.08,8.61-.16,10.09-.63,2.84-.89,9-3.12,11.32-4.18a29.8,29.8,0,0,1,6.35-1.13c-.07.28-.16.57-.27.88a6.59,6.59,0,0,1-1.2,2.32c-2,.28-6,.87-14.1,2.73a43.6,43.6,0,0,0-6.61,1.91,9.77,9.77,0,0,1-3.68.71c-2,.13-4.27.37-6.72.62-3.61.38-7.71.81-11.57,1-1.9.08-3.68.19-5.4.29C121.19,67.83,118.44,68,116.07,67.92ZM98.82,61.43c-2.95-.67-7.18-1.66-9.28-3a14.26,14.26,0,0,0-3.74-1.63A7.09,7.09,0,0,1,84,56c-.13-.09-.37-.27-.45-1a2.48,2.48,0,0,1,.55-2.11,1.1,1.1,0,0,1,.16-.15A31,31,0,0,1,87.42,55a27.64,27.64,0,0,0,4.77,3.18c.69.32,1.3.58,1.89.84A31.93,31.93,0,0,1,98.82,61.43Z" transform="translate(-3.61 -6.16)"/><path class="cls-24" d="M117.25,66.89l-1.14,0c-.67,0-1.28-.05-1.85-.11a9.33,9.33,0,0,1-2.44-.76c2.31.22,4.19.29,5,.32l1.67,0H119c14.29-.16,17-1.23,17.91-1.72a23.32,23.32,0,0,1,3-.27c1.82-.08,4.08-.12,6.26-.15,2,0,3.72-.07,5.15-.12a8.59,8.59,0,0,1-3.33.63c-2,.14-4.29.38-6.73.63-3.62.38-7.69.8-11.52,1-1.89.07-3.64.18-5.34.28h-.09C121.63,66.75,119.31,66.89,117.25,66.89Zm47.13-6.13c1.49-.56,2.82-1.1,3.67-1.48a22.15,22.15,0,0,1,4.29-.83,7.21,7.21,0,0,1-.5,1C170.51,59.63,168.21,60,164.38,60.76ZM87,56l-.85-.27a9.5,9.5,0,0,1-1.47-.55,1.18,1.18,0,0,1-.07-.32,2.28,2.28,0,0,1,0-.64c.72.51,1.57,1.16,2.11,1.57Z" transform="translate(-3.61 -6.16)"/><g class="cls-25"><path class="cls-26" d="M81.11,58.41a56.83,56.83,0,0,0,16.66,8.37c2.72.86,5.68,1,8.27,2.12,1.82.77,2.75,2.12,4.87,2.32,2.4.23,4.84.85,7.21,1.16a58.09,58.09,0,0,0,8.24.05c1.54,0,3.14-.48,4.62-.62,1.18-.1,2.54.2,3.73.17,2.44,0,5-1,7.46-1.34,2-.26,4.14-.3,6.19-.61a24,24,0,0,1,5.35-.15c2.07.16,2.43-1,3.95-2,1.37-.88,3.1-.79,4.58-1.24a25.59,25.59,0,0,1,2.63-1.12,13,13,0,0,1,2.83.2c3.21.18,5.9-2.75,9.27-2.68-2.42,4-9.11,3.61-13,5.31-5.54,2.39-11.44,2.65-17.43,3a46.77,46.77,0,0,0-8.28.83,49,49,0,0,1-7.13,1.14c-2.44.2-4.88,1.08-7.31,1.14s-5.08-.4-7.58-.55c-2-.12-4-.75-6-.77a36.23,36.23,0,0,1-5.21-.11c-3-.49-5.23-2.79-7.82-4.27S91.31,67.11,89,65.12a31,31,0,0,0-4.81-3.54c-1.08-.61-4.92-1-3.51-3Z" transform="translate(-3.61 -6.16)"/></g><g class="cls-25"><path class="cls-26" d="M81.54,45.4A57.1,57.1,0,0,0,98.2,53.78c2.72.85,5.68,1,8.27,2.11,1.82.77,2.74,2.12,4.87,2.32,2.4.23,4.84.85,7.2,1.16a56.78,56.78,0,0,0,8.25.05c1.54,0,3.14-.48,4.61-.61,1.19-.11,2.55.19,3.74.16,2.44,0,5-1,7.46-1.34,2-.25,4.14-.3,6.19-.6a23.4,23.4,0,0,1,5.35-.16c2.07.16,2.43-1,4-2,1.37-.88,3.1-.79,4.58-1.24a26.42,26.42,0,0,1,2.62-1.12,13.07,13.07,0,0,1,2.84.2c3.2.18,5.9-2.75,9.27-2.68-2.42,4-9.11,3.61-13,5.31-5.54,2.39-11.44,2.65-17.44,3a46.66,46.66,0,0,0-8.27.83,46.63,46.63,0,0,1-7.13,1.14c-2.44.2-4.88,1.08-7.31,1.14s-5.08-.4-7.58-.55c-2-.12-4-.75-6-.77a36.23,36.23,0,0,1-5.21-.11c-3-.49-5.23-2.79-7.82-4.27s-5.87-1.67-8.22-3.66a31.49,31.49,0,0,0-4.81-3.54c-1.08-.61-4.92-1-3.51-3Z" transform="translate(-3.61 -6.16)"/></g><path class="cls-27" d="M178.24,40.66c-.44-6.56-22-12.45-48.65-13.23-21.59-.63-40,2.27-46.75,6.86-2.51,1.5-4.11,3.91-4.09,8.71,0,6,5.83-.55,13.76,1,3.3.66,4,10,8.78,10.57,3.62.46,10.59-6.88,14.91-5.67,6.16,1.73,8.12,13.2,11.22,16.22,8.8,8.59,9.55-14.57,13.45-14.64,4.59-.07,9.07,4.13,12.84,3.87,4.87-.33,8.15-9.41,11.61-9.88,8.14-1.09,8.23,6.42,12.81,2.2C178.18,45,179,42.72,178.24,40.66Z" transform="translate(-3.61 -6.16)"/><path class="cls-28" d="M178.32,38.3c-.45-6.29-22-12-48.67-12.75-21.59-.63-40,2.14-46.74,6.53-2.5,1.44-4.1,3.75-4.08,8.36,0,5.75,5.84-.52,13.76,1,3.31.64,4.07,9.57,8.8,10.16,3.62.45,10.58-6.59,14.9-5.43,6.17,1.67,8.14,12.68,11.24,15.59,8.82,8.25,9.53-14,13.43-14,4.59-.06,9.08,4,12.85,3.73,4.86-.32,8.13-9,11.59-9.47,8.15-1,8.47,6.15,13,2.1C179.1,43.3,179.08,40.28,178.32,38.3Z" transform="translate(-3.61 -6.16)"/><path class="cls-29" d="M147.58,46.53s0,.1,0,.16c-.11,1.5,3.39,2.62,4.57,2.71,2.33.19,4.89-1.45,6.48-2.92.8-.73-3.94-1.23-4.26-1.25C153,45.17,148,44.49,147.58,46.53Z" transform="translate(-3.61 -6.16)"/><path class="cls-29" d="M99.58,45.09s-1.41.31-.8,2.22,3.38,4.06,7.56.94S102.16,44.82,99.58,45.09Z" transform="translate(-3.61 -6.16)"/><path class="cls-29" d="M125.82,51.72s-.89,2.28,1.56,6.53,4.29,5.77,7.19-2.45S126.73,49.37,125.82,51.72Z" transform="translate(-3.61 -6.16)"/><path class="cls-29" d="M168.25,31.81s18.18,7.94-27.89,7.45C140.36,39.26,196.45,41.93,168.25,31.81Z" transform="translate(-3.61 -6.16)"/><path class="cls-22" d="M84.7,64.36s-4.46.42-3.39,3.9,5.16,2.29,8.75,4.25,13.19,4.48,17.52,5.07,14.19,1.07,18.32,1.56,8.64.44,16.09,0,12.7-1,16.57-1.56,14.08-2.71,15.74-6-.76-5-3.88-3.15A49.9,49.9,0,0,1,158,73c-4.18,1-15,.4-18.73,1.59a51.67,51.67,0,0,1-18,1.8A124.5,124.5,0,0,1,105.53,74c-3.14-.84-8.55-1.64-11.35-3.49S87.91,65.84,84.7,64.36Z" transform="translate(-3.61 -6.16)"/><path class="cls-23" d="M131.85,77.81a46.06,46.06,0,0,0,8-1.63c1.7-.55,5.73-.68,9.29-.8a56,56,0,0,0,9.29-.75c3.94-.94,9.41-2.68,12.92-4.77a2.79,2.79,0,0,1,1.47-.5,1.11,1.11,0,0,1,.18,0c0,.1.13.58-.33,1.49-.37.73-2.14,1.94-6,3.16a57.43,57.43,0,0,1-8.39,1.89c-4.92.69-10.3,1.2-16.42,1.55C137.52,77.73,134.41,77.83,131.85,77.81ZM94,72.38A22.41,22.41,0,0,1,91,71.06a15.58,15.58,0,0,0-4.66-1.49c-2.32-.47-3-.71-3.28-1.78-.2-.65,0-.89,0-1a2.67,2.67,0,0,1,1.39-.72,51.16,51.16,0,0,1,6,3.88c1,.68,1.85,1.31,2.71,1.88A8.48,8.48,0,0,0,94,72.38Z" transform="translate(-3.61 -6.16)"/><path class="cls-30" d="M149,31.34c0,2.38-8.08,4.31-18,4.31s-18-1.93-18-4.31S121,27,131,27,149,29,149,31.34Z" transform="translate(-3.61 -6.16)"/><path class="cls-31" d="M136.52,17.22A5.13,5.13,0,0,0,135,13c-1.91-1.93-1.93-2.62-1.93-2.62s-1.32,3.75-4.54,4.72-4.14,2.93-3.87,4.14c0,0-4.58.76-4,4.52,0,0-6.29,1.54-4.61,6.61,0,0,.56,4.13,16.41,4.13s16.85-5.6,11.44-8.54c0,0,.29-3.63-2.53-3.75C141.36,22.2,141.91,17.79,136.52,17.22Z" transform="translate(-3.61 -6.16)"/><path class="cls-32" d="M120.87,33.32c5.08,1.32,21.2.76,21.42-1.84s-4.35-2.19-4.35-2.19c-3.16.72-6,.67-10.68-.41s-5.41-3.55-5.41-3.55c1.63,1.62,3.74,2.8,8.4,3.61,4.12.71,10.7-1,11-3.16a1.68,1.68,0,0,0-1.77-2c-10.63,2.53-13.38-3-13.38-3,4.48,3.83,10.48,1.59,12.47.76s.07-4.78-4.06-3.24-6.05-1-6.05-1a2.22,2.22,0,0,0,.73.39,3,3,0,0,0,.78.23,3.39,3.39,0,0,0,1.58-.2c1.59-.56,3.42-1.85,2.79-3.68a15,15,0,0,0-.85-1.57,4.44,4.44,0,0,1-.38-1.93l0-.06s0,.69,1.93,2.62a5.13,5.13,0,0,1,1.5,4.23c5.39.57,4.84,5,4.84,5,2.82.12,2.53,3.75,2.53,3.75,5.54,3,4.42,8.57-11.44,8.57a43.32,43.32,0,0,1-12.08-1.32Z" transform="translate(-3.61 -6.16)"/><path class="cls-33" d="M129.29,23l-.07,0Z" transform="translate(-3.61 -6.16)"/><path class="cls-33" d="M127.92,28.71a18.67,18.67,0,0,0,14.4-1.88s1.74-.9,1.41-2.52a5.64,5.64,0,0,1,.16,1.64l.36.2C135.1,31.76,127.92,28.71,127.92,28.71Z" transform="translate(-3.61 -6.16)"/><path class="cls-33" d="M130.06,18.08a10.44,10.44,0,0,0,5.06-.61s1.4-.45,1.39-1.43a4.45,4.45,0,0,1,0,1.18C132.31,19,130.06,18.08,130.06,18.08Z" transform="translate(-3.61 -6.16)"/><path class="cls-33" d="M129.29,23a18.3,18.3,0,0,0,10.39-.5s1.94-.51,1.4-2.24l0-.09a4.64,4.64,0,0,1,.31,2.06A16.31,16.31,0,0,1,129.29,23Z" transform="translate(-3.61 -6.16)"/><path class="cls-33" d="M137.48,15.55" transform="translate(-3.61 -6.16)"/><path class="cls-19" d="M131.39,16.33a1.43,1.43,0,0,0,1.55-2.2c-.44-.45-.61-.1-.93.2s-.6.47-.86.74C130.71,15.52,130.41,16.11,131.39,16.33Z" transform="translate(-3.61 -6.16)"/><path class="cls-19" d="M128.48,19.89a2.09,2.09,0,0,1-.88-.86,4.43,4.43,0,0,1-.3-1.23,1.58,1.58,0,0,0-.45-.91c-.32-.25-.69.07-.84.3a2.22,2.22,0,0,0-.29.89,2.37,2.37,0,0,0,1,2.43,3.9,3.9,0,0,0,.93.48,5.17,5.17,0,0,0,1.29.25C131.18,21.37,129.13,20.25,128.48,19.89Z" transform="translate(-3.61 -6.16)"/><path class="cls-19" d="M123.18,20.65a.6.6,0,0,1,.39.09c.2.11.21.32.16.53a1.72,1.72,0,0,1-.37.6c-1,1.23.26,3.48,1.41,4.05s-1.47.84-2.93-1.71a2.57,2.57,0,0,1-.37-1.86,2.34,2.34,0,0,1,.74-1.15,3.45,3.45,0,0,1,.59-.41A1.11,1.11,0,0,1,123.18,20.65Z" transform="translate(-3.61 -6.16)"/><path class="cls-19" d="M118.66,25.74c1.21.1.54,1.54.47,2.24a4.32,4.32,0,0,0,.15,2c.12.3,1.08,1.22.5,1.48-.33.14-1.29-.29-1.56-.47a2.07,2.07,0,0,1-.81-1.14,4.32,4.32,0,0,1,.14-2.61C117.67,26.86,118,25.68,118.66,25.74Z" transform="translate(-3.61 -6.16)"/><path class="cls-34" d="M132.76,9.75s.73-2.35-.93-3.59l-.31.2.3.27h-.38l.06.12S133.16,7.14,132.76,9.75Z" transform="translate(-3.61 -6.16)"/><path class="cls-35" d="M135.3,11.85a3.29,3.29,0,0,1-6.56,0,3.29,3.29,0,0,1,6.56,0Z" transform="translate(-3.61 -6.16)"/><g class="cls-36"><path class="cls-37" d="M134.87,11a2.47,2.47,0,0,1-2.06,2.9A2.63,2.63,0,0,1,129.72,12a2.49,2.49,0,0,1,2.07-2.9A2.63,2.63,0,0,1,134.87,11Z" transform="translate(-3.61 -6.16)"/></g><g class="cls-38"><path class="cls-4" d="M134,10.28a.88.88,0,0,1-.73,1,.93.93,0,0,1-1.09-.69.87.87,0,0,1,.73-1A.92.92,0,0,1,134,10.28Z" transform="translate(-3.61 -6.16)"/></g><path class="cls-31" d="M129.82,14.53a3.78,3.78,0,0,0,.76-.69c.27-.35.87,0,1.07.55s1.59-.36,1.93-.57a1.49,1.49,0,0,0,.5-1.17c0-.25.27-.39.58-.08s.4.39.47.27a.7.7,0,0,0,.19.47s-.41.67-.51.91-.43.07-.43.07-.11-.07-.5.26a3.83,3.83,0,0,1-1.91.54A14.21,14.21,0,0,1,129.82,14.53Z" transform="translate(-3.61 -6.16)"/><path class="cls-32" d="M135.13,12.84c-.07.12-.17.05-.47-.27s-.61-.17-.58.08a1.53,1.53,0,0,1-.49,1.17l0,0c.48-.36.68.14.75.5h0s.6.37.69.13.25-1.11.25-1.11A.7.7,0,0,1,135.13,12.84Z" transform="translate(-3.61 -6.16)"/><path class="cls-32" d="M133.49,13.88l.09-.06Z" transform="translate(-3.61 -6.16)"/><path class="cls-3" d="M103.08,357.09c-.34,8.67-19.61,15.61-43,15.5s-42.15-7.22-41.81-15.89,19.61-15.61,43-15.5S103.42,348.43,103.08,357.09Z" transform="translate(-3.61 -6.16)"/><path class="cls-4" d="M102.54,356.35c-.33,8.46-19.39,15.24-42.55,15.13S18.3,364.42,18.64,356,38,340.72,61.19,340.82,102.87,347.88,102.54,356.35Z" transform="translate(-3.61 -6.16)"/><path class="cls-5" d="M96,355.24c-.28,7.15-16.37,12.87-35.94,12.78s-35.2-6-34.92-13.11S41.51,342,61.08,342.13,96.28,348.09,96,355.24Z" transform="translate(-3.61 -6.16)"/><path class="cls-39" d="M4.68,322.06c1.41,7.37,7.87,13.06,14.56,17.22a64.41,64.41,0,0,0,10.3,5.08c3.65,1.45,7.44,3,11.27,1.74,2.72-.91,3.3-3.69,1.29-5.6v0a8.87,8.87,0,0,0-.84-.9,7.39,7.39,0,0,0-2-1.15c-1.25-.45-2.5-.92-3.74-1.4a66.09,66.09,0,0,1-7.87-3.63c-4.47-2.4-13-7.17-14-12.08a5.65,5.65,0,0,1,8-6.26c2.47,1.12,4.1,4.1,6.59,5.44,9,4.83,5.83-8.92,2.57-12.08-3-3-8-4.09-12.39-3.85-11.32.64-15.14,9.8-13.67,17.49" transform="translate(-3.61 -6.16)"/><path class="cls-40" d="M12,333.91a49.71,49.71,0,0,0,7.22,5.37,64.88,64.88,0,0,0,10.09,5c1.1-3,0-7.08-.88-9.82l-.24-.74-.61-.32C26.42,332.77,25,332,23.42,331a6.1,6.1,0,0,1-.78,3.61,4.08,4.08,0,0,1-1,1.15,9.36,9.36,0,0,1-4.62.43,22,22,0,0,1-5-2.32" transform="translate(-3.61 -6.16)"/><path class="cls-40" d="M11.9,315.69a7.2,7.2,0,0,1,5.76-4.56c1.39-.19,2.73.37,4.1.26,2.29-.17,2.83-1.26,3.29-2.84l.59-3.08a9.15,9.15,0,0,1,2.5,1.23c.65.63,3.22,4.58,3.22,4.58a32.25,32.25,0,0,1,.47,7.83c0,.67.56,1.94-.19,2.35s-2.79-.6-3.47-1c-2.49-1.34-4.12-4.32-6.59-5.44a5.65,5.65,0,0,0-8,6.26,7,7,0,0,0,1.08,2.42c-2.52-1.8-3.67-5.58-2.73-8.05" transform="translate(-3.61 -6.16)"/><path class="cls-41" d="M11.44,313.24a7.67,7.67,0,0,1,5.66-3.51c1.75-.25,3.4-.22,5-1A.65.65,0,0,0,22,307.6c-4.69-2.35-10.71-.14-13.26,3.55" transform="translate(-3.61 -6.16)"/><path class="cls-39" d="M95.1,355.87l.81-52.31-.27-10.46c0-2.94-2-5.8-4.49-7.71-5.65-4.3-13.61-5.13-20.53-5.81a96.31,96.31,0,0,0-9.76-.44,96.31,96.31,0,0,0-9.76.44c-6.92.68-14.94,1.51-20.59,5.81C28,287.3,26,289.9,26,293.1l.8,62.77s5.7,10.57,31.9,10.57C86.46,366.44,95.1,355.87,95.1,355.87Z" transform="translate(-3.61 -6.16)"/><g class="cls-42"><path class="cls-40" d="M26,297.75l.11,8.47c2.56,2.66,10.86,8.86,32.42,8.86,24.16,0,34.5-6.92,37.32-9.27l0-2.25-.16-6c-3,2.43-13.36,9.16-37.2,9.16C36.68,306.71,28.45,300.33,26,297.75Z" transform="translate(-3.61 -6.16)"/><path class="cls-40" d="M95.2,349.38l.13-8.46c-3.47,2.66-14,8.83-36.78,8.83-20.44,0-29-5.57-32-8.41l.11,8.47c3.11,2.87,11.67,8.3,31.86,8.3C81.1,358.11,91.61,352.1,95.2,349.38Z" transform="translate(-3.61 -6.16)"/><path class="cls-40" d="M58.55,336.21c23.31,0,33.75-6.43,37-9l.13-8.47c-3.08,2.49-13.49,9.1-37.12,9.1-21.12,0-29.51-5.94-32.26-8.68l.11,8.47C29.26,330.41,37.7,336.21,58.55,336.21Z" transform="translate(-3.61 -6.16)"/></g><path class="cls-43" d="M28.28,293.34c.1.26,1.75-1.54,1.88-1.79a5.42,5.42,0,0,1,2.72-2.85,25.75,25.75,0,0,1,6.67-1.85,122.21,122.21,0,0,1,17.19-1.35,113,113,0,0,1,19.55,1.08,75.43,75.43,0,0,1,9.86,2.18,20.05,20.05,0,0,1,4,1.55,2.1,2.1,0,0,1,1.25,2c0,.51,1.43,2.16,1.92,1.61,0,0,6.87-12.81-31.82-12.81s-33.68,11.43-33.18,12.24" transform="translate(-3.61 -6.16)"/><path class="cls-44" d="M87.41,286.82a34,34,0,0,0-7.66-2.32A103.21,103.21,0,0,0,62.34,283a125.4,125.4,0,0,0-21.22,1.45c-5.23.85-11.32,2.71-12.3,6.05s2.9,5.68,7.46,7.37c8.18,3,19.15,4.16,28.8,3.75a61.12,61.12,0,0,0,15.62-2.48c3.84-1.21,7.79-2.64,10.21-4.74C94.31,291.46,91.62,288.73,87.41,286.82Z" transform="translate(-3.61 -6.16)"/><path class="cls-45" d="M91.25,289.34C93,291,93,292.67,90.93,294.5c-2.43,2.09-6.62,3.61-10.46,4.82A59.84,59.84,0,0,1,65,301.61c-6.12.26-17.45.79-28.82-3.44-4.55-1.69-8.41-4.11-7.45-7.37.64-2.2,3.19-3.78,6.39-4.83-1.17.51-3.13,1.55-3.44,2.59-.88,3,3.86,5.44,8,7,7.5,2.79,17.57,3.82,26.42,3.45a56.66,56.66,0,0,0,14.32-2.28s16.14-5.6,2.49-11.38c0,0,5.24,1.07,8.3,4" transform="translate(-3.61 -6.16)"/><path class="cls-46" d="M28.82,290.61c1-3.34,7.07-5.2,12.3-6a124.37,124.37,0,0,1,21.22-1.46,103.21,103.21,0,0,1,17.41,1.5,34,34,0,0,1,7.66,2.32c2.67,1.21,4.73,2.75,5,4.47.33-2-1.93-3.87-5-5.27a34,34,0,0,0-7.66-2.32,104.26,104.26,0,0,0-17.41-1.5,124.37,124.37,0,0,0-21.22,1.46c-5.23.84-11.32,2.7-12.3,6a3.47,3.47,0,0,0-.12,1.38C28.73,291,28.77,290.8,28.82,290.61Z" transform="translate(-3.61 -6.16)"/><path class="cls-12" d="M90.79,292.31c-1.82,4-9.55,5.71-14.29,7.83a.35.35,0,0,0-.22.25c1.52-.32,3-.7,4.42-1.15,3.84-1.21,7.78-2.65,10.21-4.73s1.76-4.08-.34-5.74A3.45,3.45,0,0,1,90.79,292.31Z" transform="translate(-3.61 -6.16)"/><path class="cls-12" d="M36.28,298c7.61,2.83,17.39,3.86,26.52,3.68-3.09-.25-5.42-.43-8.77-.82-8.17-1-14.89-3.25-18.08-5.27-2.91-1.85-4.32-6.15,2.13-8.93C42,285,49,283.92,56,283.21l.18,0a116.44,116.44,0,0,0-15,1.39c-5.23.85-11.32,2.71-12.3,6.05S31.72,296.28,36.28,298Z" transform="translate(-3.61 -6.16)"/><path class="cls-12" d="M92,292c-1.85,3.85-9.72,5.55-14.53,7.61-.16.07-.21.16-.22.24,1.54-.31,3-.68,4.49-1.11,3.9-1.18,7.92-2.57,10.38-4.61s1.79-4-.34-5.57A3.57,3.57,0,0,1,92,292Z" transform="translate(-3.61 -6.16)"/><path class="cls-39" d="M60.82,280.64c-18.72,0-33.9,4.61-33.9,10.3,0,6.55,15.18,11.14,33.9,11.14s33.9-4.2,33.9-11.14C94.72,285.25,79.55,280.64,60.82,280.64Zm0,18.41c-17.15,0-31-3.93-31-8.78s13.9-8.77,31.05-8.77,31.05,3.93,31.05,8.77S78,299.05,60.82,299.05Z" transform="translate(-3.61 -6.16)"/><path class="cls-19" d="M55.84,299.92a.59.59,0,0,1-.1.24c-.56.91-3.72.19-4.56.09-3.18-.36-6.32-.72-9.46-1.36-1.58-.32-3.15-.73-4.69-1.19-6.05-1.84-9.52-4.31-9.52-6.76,0-2,2.33-4,6.49-5.71-3.14,1.47-4.82,3.2-4.82,5,0,2.61,3.38,5,9.52,6.73a74,74,0,0,0,14.74,2.34C53.82,299.37,56,299.32,55.84,299.92Z" transform="translate(-3.61 -6.16)"/><path class="cls-19" d="M72.11,299.26s-2.77.19-3.34.65,1.93,1,7.37.15,11.68-2.43,13.09-3.94-1-.36-4.23.74S72.11,299.26,72.11,299.26Z" transform="translate(-3.61 -6.16)"/><g class="cls-25"><path class="cls-47" d="M65.52,283.72c-2.3,0-4.13,1.08-4.13,1.73,0-.65-1.84-1.73-4.14-1.73s-4.15.52-4.15,1.17c0,1.51,8.29,1.61,8.29,2.27,0-.66,8.29-.76,8.29-2.27C69.68,284.24,67.82,283.72,65.52,283.72ZM61.39,287c0-.55-7-.76-7-2,0-.55,1.56-1,3.49-1s3.48,1,3.48,1.54c0-.54,1.54-1.54,3.47-1.54s3.49.44,3.49,1C68.35,286.25,61.39,286.46,61.39,287Z" transform="translate(-3.61 -6.16)"/><path class="cls-48" d="M64.86,284c-1.93,0-3.47,1-3.47,1.54,0-.54-1.55-1.54-3.48-1.54s-3.49.44-3.49,1c0,1.26,7,1.47,7,2,0-.55,7-.76,7-2C68.35,284.44,66.79,284,64.86,284Zm-3.47,2.87c0-.47-5.8-.75-5.8-1.81,0-.45,1.3-.82,2.9-.82s2.9.92,2.9,1.38c0-.46,1.28-1.38,2.89-1.38s2.91.37,2.91.82C67.19,286.12,61.39,286.4,61.39,286.87Z" transform="translate(-3.61 -6.16)"/><path class="cls-49" d="M64.28,284.24c-1.61,0-2.89.92-2.89,1.38,0-.46-1.29-1.38-2.9-1.38s-2.9.37-2.9.82c0,1.06,5.8,1.34,5.8,1.81,0-.47,5.8-.75,5.8-1.81C67.19,284.61,65.88,284.24,64.28,284.24Zm-2.89,2.47c0-.35-4.43-.77-4.43-1.57,0-.35,1-.63,2.22-.63s2.21.84,2.21,1.18c0-.34,1-1.18,2.21-1.18s2.22.28,2.22.63C65.82,285.94,61.39,286.36,61.39,286.71Z" transform="translate(-3.61 -6.16)"/><path class="cls-50" d="M61.39,286.71c0-.35-4.43-.77-4.43-1.57,0-.35,1-.63,2.22-.63s2.21.84,2.21,1.18c0-.34,1-1.18,2.21-1.18s2.22.28,2.22.63C65.82,285.94,61.39,286.36,61.39,286.71Z" transform="translate(-3.61 -6.16)"/></g><g class="cls-25"><path class="cls-47" d="M67.26,286.69c-3.26,0-5.87,1.54-5.87,2.46,0-.92-2.62-2.46-5.88-2.46s-5.91.74-5.91,1.67c0,2.14,11.79,2.28,11.79,3.22,0-.94,11.78-1.08,11.78-3.22C73.17,287.43,70.53,286.69,67.26,286.69Zm-5.87,4.68c0-.79-9.91-1.08-9.91-2.88,0-.78,2.22-1.41,5-1.41s4.94,1.43,4.94,2.2c0-.77,2.19-2.2,4.94-2.2s5,.63,5,1.41C71.29,290.29,61.39,290.58,61.39,291.37Z" transform="translate(-3.61 -6.16)"/><path class="cls-48" d="M66.33,287.08c-2.75,0-4.94,1.43-4.94,2.2,0-.77-2.2-2.2-4.94-2.2s-5,.63-5,1.41c0,1.8,9.91,2.09,9.91,2.88,0-.79,9.9-1.08,9.9-2.88C71.29,287.71,69.07,287.08,66.33,287.08Zm-4.94,4.08c0-.65-8.25-1.06-8.25-2.56,0-.65,1.85-1.17,4.13-1.17s4.12,1.32,4.12,2c0-.64,1.83-2,4.11-2s4.13.52,4.13,1.17C69.63,290.1,61.39,290.51,61.39,291.16Z" transform="translate(-3.61 -6.16)"/><path class="cls-49" d="M65.5,287.43c-2.28,0-4.11,1.32-4.11,2,0-.64-1.83-2-4.12-2s-4.13.52-4.13,1.17c0,1.5,8.25,1.91,8.25,2.56,0-.65,8.24-1.06,8.24-2.56C69.63,288,67.78,287.43,65.5,287.43Zm-4.11,3.51c0-.5-6.3-1.09-6.3-2.23,0-.5,1.41-.9,3.16-.9s3.14,1.2,3.14,1.69c0-.49,1.39-1.69,3.14-1.69s3.15.4,3.15.9C67.68,289.85,61.39,290.44,61.39,290.94Z" transform="translate(-3.61 -6.16)"/><path class="cls-50" d="M61.39,290.94c0-.5-6.3-1.09-6.3-2.23,0-.5,1.41-.9,3.16-.9s3.14,1.2,3.14,1.69c0-.49,1.39-1.69,3.14-1.69s3.15.4,3.15.9C67.68,289.85,61.39,290.44,61.39,290.94Z" transform="translate(-3.61 -6.16)"/></g><g class="cls-25"><path class="cls-47" d="M69.89,290.52c-4.72,0-8.5,2.23-8.5,3.57,0-1.34-3.78-3.57-8.51-3.57s-8.55,1.08-8.55,2.42c0,3.1,17.06,3.3,17.06,4.66,0-1.36,17-1.56,17-4.66C78.44,291.6,74.61,290.52,69.89,290.52Zm-8.5,6.78c0-1.14-14.34-1.56-14.34-4.17,0-1.12,3.22-2,7.19-2s7.15,2,7.15,3.18c0-1.13,3.17-3.18,7.14-3.18s7.19.91,7.19,2C75.72,295.74,61.39,296.16,61.39,297.3Z" transform="translate(-3.61 -6.16)"/><path class="cls-48" d="M68.53,291.1c-4,0-7.14,2-7.14,3.18,0-1.13-3.18-3.18-7.15-3.18s-7.19.91-7.19,2c0,2.61,14.34,3,14.34,4.17,0-1.14,14.33-1.56,14.33-4.17C75.72,292,72.5,291.1,68.53,291.1ZM61.39,297c0-.95-11.94-1.54-11.94-3.71,0-.94,2.68-1.69,6-1.69s6,1.9,6,2.84c0-.94,2.64-2.84,6-2.84s6,.75,6,1.69C73.32,295.46,61.39,296.05,61.39,297Z" transform="translate(-3.61 -6.16)"/><path class="cls-49" d="M67.34,291.6c-3.31,0-6,1.9-6,2.84,0-.94-2.65-2.84-6-2.84s-6,.75-6,1.69c0,2.17,11.94,2.76,11.94,3.71,0-.95,11.93-1.54,11.93-3.71C73.32,292.35,70.64,291.6,67.34,291.6Zm-6,5.08c0-.73-9.12-1.58-9.12-3.23,0-.72,2-1.3,4.57-1.3s4.55,1.73,4.55,2.44c0-.71,2-2.44,4.54-2.44s4.57.58,4.57,1.3C70.5,295.1,61.39,296,61.39,296.68Z" transform="translate(-3.61 -6.16)"/><path class="cls-50" d="M61.39,296.68c0-.73-9.12-1.58-9.12-3.23,0-.72,2-1.3,4.57-1.3s4.55,1.73,4.55,2.44c0-.71,2-2.44,4.54-2.44s4.57.58,4.57,1.3C70.5,295.1,61.39,296,61.39,296.68Z" transform="translate(-3.61 -6.16)"/></g><path class="cls-10" d="M70.79,290.81c0,3-7.8,5.51-17.42,5.51S36,293.85,36,290.81s7.8-6,17.42-6S70.79,287.77,70.79,290.81Z" transform="translate(-3.61 -6.16)"/><path class="cls-4" d="M55.23,278.37a11.41,11.41,0,0,0,0,13.26c-.74-1-.51-3-.44-4.09" transform="translate(-3.61 -6.16)"/><path class="cls-4" d="M55.72,291.74s3.54,2.74,1.14,5.41a4.24,4.24,0,0,0-.29,5.4,3,3,0,0,1,.06-1.69,7,7,0,0,1,1.37-3,6.28,6.28,0,0,0,1.38-1.89c.33-1.23-.91-2.29-2-3.09C56.82,292.46,56.28,292.1,55.72,291.74Z" transform="translate(-3.61 -6.16)"/><path class="cls-4" d="M59.13,291.34c3.4,4.71-.5,7.51-.5,7.51s6.13-2.1,2.81-7.35" transform="translate(-3.61 -6.16)"/><path class="cls-51" d="M162.19,253.89c0,1.63-11.13,2.95-24.87,2.95s-24.87-1.32-24.87-2.95,11.14-2.95,24.87-2.95S162.19,252.26,162.19,253.89Z" transform="translate(-3.61 -6.16)"/><path class="cls-52" d="M181,220.48s-11.56-20.59-42.37-20.59S92,220.48,92,220.48Z" transform="translate(-3.61 -6.16)"/><path class="cls-53" d="M115.16,210.18c-.36-1.86-1-4-1.39-5.34a63.59,63.59,0,0,0-7,3.49A7.32,7.32,0,0,1,107,212c-.43,1.8-4.61-.46-7.15,1a47.52,47.52,0,0,0-7.9,7.5h25.79C117.14,218.31,115.71,213,115.16,210.18Z" transform="translate(-3.61 -6.16)"/><path class="cls-53" d="M157.57,210.18c.36-1.86,1-4,1.38-5.34a63.77,63.77,0,0,1,7,3.49,7.26,7.26,0,0,0-.25,3.69c.44,1.8,6.21-.44,8.75,1,5.24,4.07,6.3,7.48,6.3,7.48H155C155.59,218.31,157,213,157.57,210.18Z" transform="translate(-3.61 -6.16)"/><path class="cls-54" d="M138.58,173c20.9,0,37.83,18.12,37.83,40.49s-16.93,40.46-37.83,40.46-37.83-18.12-37.83-40.46S117.69,173,138.58,173" transform="translate(-3.61 -6.16)"/><g class="cls-36"><path class="cls-31" d="M166.52,224c0,16.51-12.51,29.88-27.94,29.88S110.64,240.55,110.64,224s12.51-29.89,27.94-29.89S166.52,207.53,166.52,224Z" transform="translate(-3.61 -6.16)"/></g><path class="cls-4" d="M153.31,189.87" transform="translate(-3.61 -6.16)"/><path class="cls-55" d="M142.23,246.09A32.3,32.3,0,0,1,115.14,231c-9.39-14.51-6-34.49,7.57-44.54,12.35-9.14,29.35-5.84,37.89,7.37a27.83,27.83,0,0,1,4,19.85,26.62,26.62,0,0,1-10.29,17.08,21.3,21.3,0,0,1-16.92,3.91,22.43,22.43,0,0,1-14.56-10,23.19,23.19,0,0,1-3.33-16.52,22.1,22.1,0,0,1,8.56-14.21c8.54-6.33,20.31-4,26.23,5.11a19.33,19.33,0,0,1,2.79,13.8A18.45,18.45,0,0,1,150,224.63a14.86,14.86,0,0,1-11.81,2.73,15.6,15.6,0,0,1-10.16-7,16.24,16.24,0,0,1-2.34-11.58,15.53,15.53,0,0,1,6-10,2.16,2.16,0,0,1,3.12.6,2.51,2.51,0,0,1-.57,3.33,10.72,10.72,0,0,0-4.15,6.88,11.36,11.36,0,0,0,8.9,13,10.67,10.67,0,0,0,8.47-2,13.71,13.71,0,0,0,5.29-8.79,14.34,14.34,0,0,0-2.06-10.22,13.82,13.82,0,0,0-20-3.89,17.31,17.31,0,0,0-6.7,11.13,18.28,18.28,0,0,0,14.29,21,17.13,17.13,0,0,0,13.57-3.14,21.83,21.83,0,0,0,8.44-14,22.85,22.85,0,0,0-3.29-16.28c-7.15-11-21.36-13.8-31.68-6.16-11.54,8.55-14.42,25.54-6.44,37.88,8.93,13.79,26.67,17.24,39.56,7.7a2.15,2.15,0,0,1,3.11.6,2.5,2.5,0,0,1-.57,3.33A31.25,31.25,0,0,1,142.23,246.09Z" transform="translate(-3.61 -6.16)"/><path class="cls-31" d="M91.54,220.86s5.11-7.32,12.73-.4,17.51,1.67,21.32-3.38c4.4-5.81,7.17,6.77,9,8.93,3.6,4.23,14.56,0,16.91-4.08s5.33.94,8.19,3.37,16-8.92,21.35-4.62c0,0-18.78,33.72-31.87,33.72H124.88C122.69,254.4,106.1,243.4,91.54,220.86Z" transform="translate(-3.61 -6.16)"/><g class="cls-42"><path class="cls-31" d="M152.93,238.11,165.78,224c-2.78,1.31-5.08,2.19-6.09,1.33-.41-.35-.82-.75-1.24-1.16Z" transform="translate(-3.61 -6.16)"/><path class="cls-31" d="M116.29,223.38l-.25-.1a12.36,12.36,0,0,1-11.77-2.89L120,234.46Z" transform="translate(-3.61 -6.16)"/><path class="cls-31" d="M138.35,227.7a5.6,5.6,0,0,1-3.75-1.93c-.94-1.11-2.14-4.74-3.67-7.45l0,.06,5.44,23Z" transform="translate(-3.61 -6.16)"/></g><polygon class="cls-31" points="127.44 180.72 124.99 180.2 125.23 178.89 127.68 179.41 127.44 180.72"/><polygon class="cls-31" points="109.95 186.73 107.5 186.21 107.75 184.9 110.19 185.42 109.95 186.73"/><polygon class="cls-31" points="106.21 198.75 103.76 198.24 104 196.93 106.45 197.44 106.21 198.75"/><polygon class="cls-31" points="123.69 192.74 121.24 192.22 121.48 190.91 123.93 191.43 123.69 192.74"/><polygon class="cls-31" points="120.22 204.07 117.84 204.9 117.46 203.63 119.83 202.8 120.22 204.07"/><polygon class="cls-31" points="135.83 206.08 133.45 206.9 133.07 205.63 135.44 204.81 135.83 206.08"/><polygon class="cls-31" points="137.62 189.13 135.56 187.61 136.27 186.51 138.33 188.03 137.62 189.13"/><polygon class="cls-31" points="157.87 186.26 158.52 183.68 159.72 184.03 159.08 186.61 157.87 186.26"/><polygon class="cls-31" points="148.41 192.84 149.28 190.34 150.45 190.81 149.59 193.31 148.41 192.84"/><polygon class="cls-31" points="156.2 204.82 158.64 204.25 158.9 205.55 156.47 206.12 156.2 204.82"/><polygon class="cls-31" points="161.82 198.14 164.26 197.57 164.52 198.87 162.08 199.44 161.82 198.14"/><path class="cls-3" d="M186.37,471.91c-.31,8.06-17.55,14.52-38.52,14.42s-37.72-6.73-37.41-14.79S128,457,149,457.12,186.67,463.84,186.37,471.91Z" transform="translate(-3.61 -6.16)"/><path class="cls-4" d="M185.89,471.21c-.3,7.88-17.35,14.18-38.09,14.08s-37.3-6.56-37-14.44,17.35-14.18,38.08-14.08S186.18,463.34,185.89,471.21Z" transform="translate(-3.61 -6.16)"/><path class="cls-5" d="M172.16,468.65c-.19,4.88-10.74,8.78-23.58,8.72s-23.08-4.07-22.9-8.94,10.74-8.78,23.57-8.72S172.34,463.78,172.16,468.65Z" transform="translate(-3.61 -6.16)"/><path class="cls-56" d="M128.45,426.16h0a6.07,6.07,0,0,0-.78-.49,6.25,6.25,0,0,0-1.72-.5c-1-.12-2-.26-3-.4a56.47,56.47,0,0,1-6.51-1.34c-3.76-1-11-3-12.59-6.21-1.37-2.72.95-6.23,4.93-5.44,2,.4,3.77,2.2,5.87,2.75,7.56,2,2.82-6.94-.16-8.62-2.79-1.58-6.72-1.63-9.93-.83-8.36,2.09-9.64,8.9-7.22,13.94,2.32,4.83,8.14,7.77,13.86,9.64a54.56,54.56,0,0,0,8.58,2c3,.45,6.08,1,8.73-.46C130.32,429.16,130.28,427.18,128.45,426.16Z" transform="translate(-3.61 -6.16)"/><path class="cls-7" d="M112.84,422.42a3.79,3.79,0,0,1,0,2.57,2.81,2.81,0,0,1-.55.94,7.66,7.66,0,0,1-3.39,1,18,18,0,0,1-4.12-.86,40.24,40.24,0,0,0,6.32,2.62,53.42,53.42,0,0,0,8.4,2c.31-2.23-1.21-4.84-2.34-6.58l-.31-.47-.51-.13C115.39,423.16,114.15,422.82,112.84,422.42Z" transform="translate(-3.61 -6.16)"/><path class="cls-8" d="M105,418.71a5.24,5.24,0,0,1-1.22-1.5c-1.37-2.72.95-6.23,4.93-5.44,2,.4,3.77,2.2,5.87,2.75.56.15,2.22.59,2.76.16s-.17-1.17-.27-1.64a20.85,20.85,0,0,0-1.7-5.28c-.61-1.25-1.43-4-3.67-3.95-1.73.06-2,2-2.08,3.05s.27,1.92-1.41,2.38c-1,.27-2.11.08-3.11.41a5,5,0,0,0-3.52,4C101.31,415.43,102.82,417.84,105,418.71Z" transform="translate(-3.61 -6.16)"/><path class="cls-56" d="M171.22,467.62,176.05,449c3.12-11,6.58-19.53,8.95-29.64.62-2.65,1.35-5.28,2-7.92a16.51,16.51,0,0,0,.61-6.08,13.67,13.67,0,0,0-5-8.89c-6.26-5-15.09-5.92-22.77-6.7a115.24,115.24,0,0,0-21.66,0c-7.67.78-16.5,1.74-22.77,6.7a13.72,13.72,0,0,0-5,8.89,16.51,16.51,0,0,0,.61,6.08c.64,2.64,1.36,5.27,2,7.92C115.38,429.44,118.83,438,122,449l4.83,18.65s3.82,7.53,21.56,7.53C148.34,475.15,168.24,475.35,171.22,467.62Z" transform="translate(-3.61 -6.16)"/><path class="cls-41" d="M107.76,406.61a8.51,8.51,0,0,0-9.3,4.35,8.71,8.71,0,0,0-.51,5.46,7,7,0,0,0,3,4.47,1,1,0,0,0,1.43-.66c0-1.23-1.13-2.37-1.61-3.5a6.34,6.34,0,0,1,.06-4.73,5.54,5.54,0,0,1,3.63-3.22A13.94,13.94,0,0,0,108,407.4C108.38,407.16,108.16,406.7,107.76,406.61Z" transform="translate(-3.61 -6.16)"/><path class="cls-57" d="M113.27,401.26c-.16.86-1.23,2.19-.88,2.9.15.29,2.06-.53,2.2-.83a6.07,6.07,0,0,1,3-3.27,26.57,26.57,0,0,1,7.27-2.14,126.6,126.6,0,0,1,18.76-1.56,116.93,116.93,0,0,1,21.34,1.24,81.09,81.09,0,0,1,10.76,2.52,20.49,20.49,0,0,1,4.33,1.79,2.44,2.44,0,0,1,1.36,2.3c.06.58,2.23.91,2.83.32,0,0,4.25-13.82-38-13.82C146.18,390.71,115.1,391.87,113.27,401.26Z" transform="translate(-3.61 -6.16)"/><path class="cls-58" d="M114,400.8c-.58.7-1.22,2.4-.87,3.18.15.32,2-.58,2.17-.91a6.55,6.55,0,0,1,3-3.6,24.37,24.37,0,0,1,7.2-2.34A112,112,0,0,1,144,395.42a104.21,104.21,0,0,1,21.12,1.36,72.54,72.54,0,0,1,10.66,2.76,19.66,19.66,0,0,1,4.28,2,2.78,2.78,0,0,1,1.35,2.53c.06.63,2.2,1,2.8.35,0,0,2.31-11.74-37.65-11.74C146.56,392.64,120.45,392.91,114,400.8Z" transform="translate(-3.61 -6.16)"/><path class="cls-59" d="M177.92,397.67a36.26,36.26,0,0,0-8.34-2.64,106.56,106.56,0,0,0-18.65-1.69A127.76,127.76,0,0,0,128.2,395c-5.59,1-12.12,3.06-13.17,6.83s3.11,6.42,8,8.33c8.76,3.43,20.51,4.7,30.85,4.23a62.57,62.57,0,0,0,16.72-2.8c4.12-1.37,8.35-3,10.94-5.35C185.17,402.89,182.43,399.83,177.92,397.67Z" transform="translate(-3.61 -6.16)"/><path class="cls-60" d="M177.78,397.54a35.12,35.12,0,0,0-8.2-2.62,106.56,106.56,0,0,0-18.65-1.69,126.84,126.84,0,0,0-22.73,1.64c-5.59.95-12.12,3.05-13.17,6.82s3.11,6.42,8,8.33c8.76,3.43,20.51,4.7,30.85,4.24a63,63,0,0,0,16.72-2.8c4.12-1.37,8.35-3,10.94-5.35C185.17,402.78,182.29,399.7,177.78,397.54Z" transform="translate(-3.61 -6.16)"/><path class="cls-61" d="M181.4,403.74c-2,4.47-10.23,6.44-15.31,8.84a.39.39,0,0,0-.23.28q2.43-.54,4.73-1.29c4.12-1.37,8.35-3,10.94-5.35s2-4.62-.24-6.49A4.52,4.52,0,0,1,181.4,403.74Z" transform="translate(-3.61 -6.16)"/><path class="cls-62" d="M123,410.14c8.15,3.19,18.88,4.51,28.66,4.3-3.31-.27-6.07-.64-9.65-1.08-8.75-1.08-15.94-3.66-19.36-5.95-3.12-2.09-4.63-7,2.28-10.08,4.19-1.9,11.53-3.09,19-3.9.07,0,.32-.12.39-.14a120.46,120.46,0,0,0-16.3,1.59c-5.59.95-12,3.16-13,6.93S118.14,408.23,123,410.14Z" transform="translate(-3.61 -6.16)"/><path class="cls-63" d="M168.25,406.61a52.49,52.49,0,0,1-16.56,3.74,64.2,64.2,0,0,1-10.66-.41c-6.28-.71-16.18-2.54-15.58-7.25.36-2.93,5.09-4.95,9.3-5.73a68.38,68.38,0,0,1,14.35-.82c4.3.12,13.72,1.74,14.21,5.43.21,1.56-2.83,2.64-4.85,3.21a34.75,34.75,0,0,1-7.6,1.13c-4,.21-11.75-.17-13.34-2.85-1.91-3.22,6.92-4.51,10.72-4.18a22.73,22.73,0,0,1,6,1.28c3.29,1.25-1.11,3-3.2,3.39a15.11,15.11,0,0,1-4.14.07c-1.54-.2-4.42-1.29-2.11-2.14a7.79,7.79,0,0,1,3.84-.17c.62.16,1.23.43,1.26.84,0,.17-.55.34-.33.51s.76-.08,1-.15c1.43-.54.54-1.58-.66-2a11.18,11.18,0,0,0-3.77-.35c-2.62.13-5.2,1.11-3.69,2.79s5.18,2.08,8.12,1.82,6.84-1.2,7-3.08c.35-3.51-9.54-4.15-11.44-4.11-3.51.09-8,.27-10.32,2s-1.58,4.14.85,5.64c2.78,1.71,7.1,1.89,10.92,2.08,7.41.37,22.63-2.64,16.17-8.28-4.92-4.29-17.81-4.86-26.63-3.67-7.59,1-16.38,4-13.9,9.34,1.88,4.06,10.55,5.72,16.71,6.47,10.08,1.23,21.82.76,29.29-3.87C169.86,407,169.05,406.29,168.25,406.61Z" transform="translate(-3.61 -6.16)"/><path class="cls-63" d="M176.31,401.13c-2.35-3.13-8-5.26-13.68-5.74-.21,0-.38.15-.16.22,4.38,1.44,8.77,2.2,11.69,4.81a3.63,3.63,0,0,1,1.21,4.36c-.68,1.52-2.83,2.57-4.66,3.62-.4.23.11.55.56.43C176.1,407.55,178.46,404,176.31,401.13Z" transform="translate(-3.61 -6.16)"/><path class="cls-47" d="M168.73,399.27c-.39-.24-1.16,0-1,.33.79,1.36,1.55,2.29.34,3.68-1,1.16-3.13,2.13-4.92,2.85-.17.07-.07.26.15.21C167.61,405.3,173.08,402,168.73,399.27Z" transform="translate(-3.61 -6.16)"/><path class="cls-64" d="M132.81,401.87c-.07-.47-.7-.29-.61.17a1.08,1.08,0,0,1,0,.36h0c-.23,0-.49-.2-.71,0a.26.26,0,0,0-.09.21c0,.45.78.78,1.08.71C133,403.19,132.89,402.32,132.81,401.87Z" transform="translate(-3.61 -6.16)"/><path class="cls-65" d="M132.67,401.64c0-.3-.22-.56-.49-.48a4.49,4.49,0,0,0-.77.29.42.42,0,0,0-.21.33.57.57,0,0,0-.13.46c.06.36.47.54.72.72a.4.4,0,0,0,.59-.17A2.83,2.83,0,0,0,132.67,401.64Z" transform="translate(-3.61 -6.16)"/><path class="cls-66" d="M132.25,401.45a.17.17,0,0,0-.18-.06,1.32,1.32,0,0,0-.62.32c-.16.12,0,.38.17.3a1.55,1.55,0,0,1,.4-.17c.09,0,.18,0,.24-.12A.26.26,0,0,0,132.25,401.45Z" transform="translate(-3.61 -6.16)"/><path class="cls-67" d="M131.1,402.32v0c.1.32.46.49.7.66a.4.4,0,0,0,.59-.17,3,3,0,0,0,.22-.64,2.87,2.87,0,0,1-.49.31A.81.81,0,0,1,131.1,402.32Z" transform="translate(-3.61 -6.16)"/><path class="cls-60" d="M130.79,402.52a8.68,8.68,0,0,0,2.35-.09c.89-.35.39,1.1.39,1.1s-1,1.22-1.05,1.06-.63-.35-.78-.46A8.65,8.65,0,0,1,130.79,402.52Z" transform="translate(-3.61 -6.16)"/><path class="cls-64" d="M148.23,401.93c0-.3-.38-.32-.38,0a.61.61,0,0,1,0,.23h0c-.13,0-.26-.22-.41-.16a.1.1,0,0,0-.07.11c0,.27.35.62.53.64S148.22,402.22,148.23,401.93Z" transform="translate(-3.61 -6.16)"/><path class="cls-65" d="M148.17,401.76c0-.18-.06-.38-.23-.38a1.93,1.93,0,0,0-.48,0,.22.22,0,0,0-.16.15.38.38,0,0,0-.13.26c0,.23.21.42.34.57a.22.22,0,0,0,.36,0A1.65,1.65,0,0,0,148.17,401.76Z" transform="translate(-3.61 -6.16)"/><path class="cls-66" d="M148,401.57a.13.13,0,0,0-.1-.08.7.7,0,0,0-.4.07c-.1.05,0,.24.07.22a.52.52,0,0,1,.25,0s.11,0,.15,0A.14.14,0,0,0,148,401.57Z" transform="translate(-3.61 -6.16)"/><path class="cls-67" d="M147.18,401.86h0a1.09,1.09,0,0,0,.33.53.22.22,0,0,0,.36,0,2.18,2.18,0,0,0,.2-.34,1.92,1.92,0,0,1-.32.09A.53.53,0,0,1,147.18,401.86Z" transform="translate(-3.61 -6.16)"/><path class="cls-60" d="M147,401.92c0-.07.82.44,1.37.41s.1.74.1.74-.7.55-.73.44-.33-.34-.4-.44A6.67,6.67,0,0,1,147,401.92Z" transform="translate(-3.61 -6.16)"/><path class="cls-64" d="M162.21,407.29a.43.43,0,0,0,0-.35c-.16-.19-.34-.14-.48.06a.42.42,0,0,1-.33.22.49.49,0,0,1-.56-.47c0-.16-.16-.24-.25-.11-.31.44.11,1,.46,1.22A.87.87,0,0,0,162.21,407.29Z" transform="translate(-3.61 -6.16)"/><path class="cls-65" d="M161.86,407.42a.93.93,0,0,0,.38-.38,1.47,1.47,0,0,0,.17-.55,1.36,1.36,0,0,0-.21-.93.77.77,0,0,0-1-.27,1.18,1.18,0,0,0-.38.36.79.79,0,0,0-.13.26s0,0,0,.06a.87.87,0,0,0-.16.44,1,1,0,0,0,.28.79l.21.15.15.08a.89.89,0,0,0,.45.07A.84.84,0,0,0,161.86,407.42Z" transform="translate(-3.61 -6.16)"/><path class="cls-66" d="M162.1,405.84a.76.76,0,0,0-1.24,0,.25.25,0,0,0-.05.24.19.19,0,0,0,.1.1.12.12,0,0,0,.16,0,.59.59,0,0,1,.85-.08C162,406.18,162.19,406,162.1,405.84Z" transform="translate(-3.61 -6.16)"/><path class="cls-67" d="M161.86,407.42a.93.93,0,0,0,.38-.38,1.47,1.47,0,0,0,.17-.55,2.53,2.53,0,0,0,0-.28c0,.12-.37.32-.43.36a1.18,1.18,0,0,1-.84.22c-.22-.05-.57-.21-.48-.56a.33.33,0,0,0,0-.24.89.89,0,0,0-.15.42,1,1,0,0,0,.28.79l.21.15.15.08a.89.89,0,0,0,.45.07A.84.84,0,0,0,161.86,407.42Z" transform="translate(-3.61 -6.16)"/><path class="cls-60" d="M160.12,406.78a7.09,7.09,0,0,0,2-.18c.72-.34.39.93.39.93s-.73,1.09-.82,1-.55-.27-.68-.36A7.92,7.92,0,0,1,160.12,406.78Z" transform="translate(-3.61 -6.16)"/><path class="cls-64" d="M172.38,403.42c0-.3-.3-.59-.56-.49a.25.25,0,0,0-.15.24,1.33,1.33,0,0,0,.14.44.75.75,0,0,1-.13.46,2.51,2.51,0,0,1-.68.76.18.18,0,0,0,.07.31,1.53,1.53,0,0,0,1.31-1.72Z" transform="translate(-3.61 -6.16)"/><path class="cls-65" d="M172.1,403.06a.89.89,0,0,0-.28-.35.73.73,0,0,0-.62-.1.91.91,0,0,0-.46.41l0,0,0,.06h0l-.26.39.12-.19a3.46,3.46,0,0,1-.22.31,1,1,0,0,0-.11,1.06.66.66,0,0,0,1,.32,3,3,0,0,0,.75-.71,1.15,1.15,0,0,0,.21-.43A1.11,1.11,0,0,0,172.1,403.06Z" transform="translate(-3.61 -6.16)"/><path class="cls-68" d="M171.16,403.19c-.18,0-.35.25-.48.38a1.07,1.07,0,0,0-.29.58c0,.09.06.16.13.12a1.77,1.77,0,0,0,.22-.16c.07-.07.13-.15.21-.22s.36-.27.36-.51A.17.17,0,0,0,171.16,403.19Z" transform="translate(-3.61 -6.16)"/><path class="cls-67" d="M172.19,403.82a1.11,1.11,0,0,0-.09-.76h0a2.8,2.8,0,0,1-.35.79,1.44,1.44,0,0,1-1.53.76l0,0a.66.66,0,0,0,1,.32,3,3,0,0,0,.75-.71A1.15,1.15,0,0,0,172.19,403.82Z" transform="translate(-3.61 -6.16)"/><path class="cls-60" d="M169.94,404.81a7.57,7.57,0,0,0,2.12-.64c.74-.54.58.92.58.92s-.64,1.37-.75,1.25-.65-.18-.8-.25A6.83,6.83,0,0,1,169.94,404.81Z" transform="translate(-3.61 -6.16)"/><path class="cls-64" d="M141.11,401.5c-.13-.3-.56-.51-.68-.09-.09.27.13.45.07.68s-.29.34-.44.43a1.16,1.16,0,0,1-.66.11c-.18,0-.26.28-.14.43C140,403.93,141.62,402.67,141.11,401.5Z" transform="translate(-3.61 -6.16)"/><path class="cls-65" d="M141,400.76s0-.07,0-.1-.05-.24-.06-.27a.43.43,0,0,0-.52-.34c-.25,0-.49.39-.68.57a1.73,1.73,0,0,0-.46.57,3.24,3.24,0,0,0-.38.56.72.72,0,0,0,.08.76,1.43,1.43,0,0,0,.94.6,1,1,0,0,0,.81-.59,2.66,2.66,0,0,0,.26-1,3.87,3.87,0,0,0,0-.48C141,400.92,141,400.84,141,400.76Z" transform="translate(-3.61 -6.16)"/><path class="cls-68" d="M140.43,400.38a.17.17,0,0,0-.2-.13c-.22.06-.35.38-.49.58a3.91,3.91,0,0,0-.42.75c-.07.14.08.25.17.16s.41-.38.6-.61A1,1,0,0,0,140.43,400.38Z" transform="translate(-3.61 -6.16)"/><path class="cls-67" d="M140.67,402.52a2.66,2.66,0,0,0,.26-1v0a3.43,3.43,0,0,1-.71.76,1,1,0,0,1-1.42-.38.73.73,0,0,0,.11.7,1.43,1.43,0,0,0,.94.6A1,1,0,0,0,140.67,402.52Z" transform="translate(-3.61 -6.16)"/><path class="cls-60" d="M138.46,402.51c-.08-.1,1.52-.13,2.34-.72s.64,1,.64,1-.7,1.51-.82,1.38-.72-.19-.9-.27A8.2,8.2,0,0,1,138.46,402.51Z" transform="translate(-3.61 -6.16)"/><path class="cls-64" d="M157.42,397.77a.18.18,0,0,0-.26,0,.42.42,0,0,0-.14.22.17.17,0,0,1,0,.07v.05s0,0,0,0l0,0,0,0s0,0,0,0a.22.22,0,0,0,0,.41.43.43,0,0,0,.39-.19A.56.56,0,0,0,157.42,397.77Z" transform="translate(-3.61 -6.16)"/><path class="cls-65" d="M157,397.53c-.39-.16-.93-.06-.78.51.09.34.55.79.83.5a1.26,1.26,0,0,0,.29-.52C157.4,397.8,157.22,397.62,157,397.53Z" transform="translate(-3.61 -6.16)"/><path class="cls-66" d="M156.69,397.84a.61.61,0,0,0-.24-.18.15.15,0,0,0-.18.09.23.23,0,0,0,.06.27.73.73,0,0,0,.15.16C156.66,398.27,156.83,398,156.69,397.84Z" transform="translate(-3.61 -6.16)"/><path class="cls-67" d="M157.05,397.55c-.08.47-.18.95-.52,1,.17.13.36.18.51,0a1.26,1.26,0,0,0,.29-.52C157.39,397.82,157.25,397.65,157.05,397.55Z" transform="translate(-3.61 -6.16)"/><path class="cls-60" d="M155.53,398.6c-.06-.08,1.22-.1,1.87-.57s.51.81.51.81-.56,1.21-.65,1.1-.58-.15-.72-.21A7.63,7.63,0,0,1,155.53,398.6Z" transform="translate(-3.61 -6.16)"/><path class="cls-64" d="M129.24,403.4a.29.29,0,0,0-.2.42c.18.37.84.67.73,1.18s-.8.49-1.12.33-.33.26-.2.43c.5.71,1.51.33,1.87-.37S130,403.33,129.24,403.4Z" transform="translate(-3.61 -6.16)"/><path class="cls-69" d="M129.91,404.29c-.32-.55-.91-1.74-1.56-1.68-.92.09-1.34,1.36-.81,2.25.39.67,1.19,1.24,1.88.9a1,1,0,0,0,.49-.46A1.19,1.19,0,0,0,129.91,404.29Z" transform="translate(-3.61 -6.16)"/><path class="cls-68" d="M128.25,402.86a1.05,1.05,0,0,0-.5.42,1.35,1.35,0,0,0-.17.34.51.51,0,0,0,0,.17,1.09,1.09,0,0,0,0,.18c0,.21.2.23.29.11a2.27,2.27,0,0,0,.3-.32c.11-.13.26-.21.37-.35A.33.33,0,0,0,128.25,402.86Z" transform="translate(-3.61 -6.16)"/><path class="cls-67" d="M129.91,405.3a1.19,1.19,0,0,0,0-1,8.83,8.83,0,0,0-.76-1.19,2.39,2.39,0,0,1,.24,1.81,1.33,1.33,0,0,1-1.22.65,1.2,1.2,0,0,0,1.25.2A1,1,0,0,0,129.91,405.3Z" transform="translate(-3.61 -6.16)"/><path class="cls-60" d="M127.37,405.09c-.08-.1,1.66-.14,2.55-.78s.69,1.12.69,1.12-.76,1.63-.89,1.49-.78-.21-1-.29A9,9,0,0,1,127.37,405.09Z" transform="translate(-3.61 -6.16)"/><path class="cls-65" d="M149.21,407.79a1.34,1.34,0,0,0,0-.49,1,1,0,0,0-.42-.54.65.65,0,0,0-.56,0h-.05l-.4.11.19-.06-.32.07a.79.79,0,0,0-.63.73.87.87,0,0,0,.59,1,2.13,2.13,0,0,0,.94,0,.81.81,0,0,0,.38-.17A1,1,0,0,0,149.21,407.79Z" transform="translate(-3.61 -6.16)"/><path class="cls-68" d="M148.42,407.18c-.13-.16-.39-.08-.56-.07a.67.67,0,0,0-.52.22.11.11,0,0,0,0,.18.73.73,0,0,0,.25,0h.27c.18,0,.41.06.54-.12A.2.2,0,0,0,148.42,407.18Z" transform="translate(-3.61 -6.16)"/><path class="cls-67" d="M148.89,408.43a1,1,0,0,0,.32-.64v0a1.71,1.71,0,0,1-.67.34,1.38,1.38,0,0,1-1.56-.57v0a.87.87,0,0,0,.59,1,2.13,2.13,0,0,0,.94,0A.81.81,0,0,0,148.89,408.43Z" transform="translate(-3.61 -6.16)"/><path class="cls-60" d="M147,408.44c-.07-.09,1.33-.11,2-.63s.55.9.55.9-.61,1.31-.72,1.2-.62-.17-.77-.24A6.53,6.53,0,0,1,147,408.44Z" transform="translate(-3.61 -6.16)"/><path class="cls-64" d="M137.6,406.66a.18.18,0,0,0-.15.23c.08.31.41.51.27.89s-.66.32-.93.34a.12.12,0,0,0,0,.23.94.94,0,0,0,1.29-.41C138.23,407.54,138,406.67,137.6,406.66Z" transform="translate(-3.61 -6.16)"/><path class="cls-65" d="M137.76,406.86a.76.76,0,0,0-.13-.17.45.45,0,0,0-.34-.2,1,1,0,0,0-.75.23,1.09,1.09,0,0,0-.35.55,1,1,0,0,0,.17.81.9.9,0,0,0,.49.34.68.68,0,0,0,.65-.14,1.12,1.12,0,0,0,.37-.62A1.29,1.29,0,0,0,137.76,406.86Z" transform="translate(-3.61 -6.16)"/><path class="cls-66" d="M136.84,406.81a.7.7,0,0,0-.17.09l-.15.14a.49.49,0,0,0-.15.41c0,.11.15.19.24.12l.07-.08c0,.05,0,0,0,0l.11-.09.12-.1a.55.55,0,0,0,.13-.17C137.11,407,137,406.74,136.84,406.81Z" transform="translate(-3.61 -6.16)"/><path class="cls-67" d="M137.72,406.8a1.51,1.51,0,0,1-.53.92,1.09,1.09,0,0,1-.9.23c0,.05.05.09.07.13a.9.9,0,0,0,.49.34.68.68,0,0,0,.65-.14,1.12,1.12,0,0,0,.37-.62,1.29,1.29,0,0,0-.11-.8Z" transform="translate(-3.61 -6.16)"/><path class="cls-60" d="M136,408a6.51,6.51,0,0,0,1.84-.53c.64-.44.51.79.51.79s-.54,1.15-.64,1.05-.57-.16-.7-.22A6.43,6.43,0,0,1,136,408Z" transform="translate(-3.61 -6.16)"/><path class="cls-64" d="M123.89,399a.23.23,0,0,0-.31-.05.53.53,0,0,0-.16.27s0,0,0,.08l0,.06,0,.05,0,0,0,0c0,.05,0,0,0,0a.26.26,0,0,0,0,.48.5.5,0,0,0,.46-.22A.68.68,0,0,0,123.89,399Z" transform="translate(-3.61 -6.16)"/><path class="cls-65" d="M123.38,398.72c-.45-.18-1.09-.07-.92.6.11.4.65.93,1,.59a1.4,1.4,0,0,0,.34-.61C123.86,399,123.66,398.83,123.38,398.72Z" transform="translate(-3.61 -6.16)"/><path class="cls-66" d="M123,399.09a.63.63,0,0,0-.28-.21.18.18,0,0,0-.22.1.29.29,0,0,0,.07.32c.05,0,.11.14.18.18S123.2,399.31,123,399.09Z" transform="translate(-3.61 -6.16)"/><path class="cls-67" d="M123.45,398.75c-.09.54-.21,1.12-.61,1.13.2.15.43.21.6,0a1.4,1.4,0,0,0,.34-.61C123.86,399.06,123.69,398.87,123.45,398.75Z" transform="translate(-3.61 -6.16)"/><path class="cls-60" d="M122.24,399.8a5.87,5.87,0,0,0,1.72-.49c.6-.41.71.05.71.05s-.86,1-.91.9c-.31-.69-.45.62-.58.57A6.28,6.28,0,0,1,122.24,399.8Z" transform="translate(-3.61 -6.16)"/><path class="cls-64" d="M176.77,397.65a.23.23,0,0,0-.32,0,.47.47,0,0,0-.16.27s0,.06,0,.09V398l0,.05,0,.05,0,0s0,0,0,0c-.22.09-.18.47.05.48a.51.51,0,0,0,.48-.22A.7.7,0,0,0,176.77,397.65Z" transform="translate(-3.61 -6.16)"/><path class="cls-65" d="M176.25,397.36c-.47-.19-1.12-.07-.94.62.1.4.66.95,1,.6a1.38,1.38,0,0,0,.34-.63C176.74,397.69,176.53,397.47,176.25,397.36Z" transform="translate(-3.61 -6.16)"/><path class="cls-66" d="M175.89,397.74a.68.68,0,0,0-.29-.22.17.17,0,0,0-.22.11.27.27,0,0,0,.07.32c.05,0,.11.15.19.19S176.06,398,175.89,397.74Z" transform="translate(-3.61 -6.16)"/><path class="cls-67" d="M176.32,397.39c-.09.56-.22,1.14-.63,1.15.21.16.44.22.62,0a1.38,1.38,0,0,0,.34-.63C176.73,397.71,176.56,397.51,176.32,397.39Z" transform="translate(-3.61 -6.16)"/><path class="cls-60" d="M175.19,398.36a6.63,6.63,0,0,0,1.76-.5c.61-.42.48.75.48.75s-.51,1.1-.61,1-.54-.15-.67-.2A7.08,7.08,0,0,1,175.19,398.36Z" transform="translate(-3.61 -6.16)"/><path class="cls-64" d="M161,394.77c-.09-.28-.33-.54-.6-.44a.29.29,0,0,0-.13.39c.05.13.19.22.23.31s0,0,0,0l0,.08a.44.44,0,0,1-.23.18c-.09,0-.28.12-.26.27s.29.31.48.26a.81.81,0,0,0,.48-.4A.84.84,0,0,0,161,394.77Z" transform="translate(-3.61 -6.16)"/><path class="cls-69" d="M160.77,394.92a1.78,1.78,0,0,0-.32-.61c-.16-.18-.46-.34-.67-.18l-.08.08a.3.3,0,0,0-.22.31,1.16,1.16,0,0,0,0,.37c0,.06,0,.12,0,.18s0,0,0,.05c-.07.28.13.63.39.61a1.61,1.61,0,0,0,.64-.26A.55.55,0,0,0,160.77,394.92Z" transform="translate(-3.61 -6.16)"/><path class="cls-68" d="M160.09,394.32c-.15-.21-.43.12-.25.31s.21.21.32.08S160.17,394.43,160.09,394.32Z" transform="translate(-3.61 -6.16)"/><path class="cls-67" d="M160.59,395.47a.55.55,0,0,0,.18-.55,1.8,1.8,0,0,0-.08-.21,2.06,2.06,0,0,1-.41.32,1.13,1.13,0,0,1-.72.12c-.05.28.14.6.39.58A1.61,1.61,0,0,0,160.59,395.47Z" transform="translate(-3.61 -6.16)"/><path class="cls-60" d="M159,395.6a5.74,5.74,0,0,0,1.66-.47c.58-.41.46.71.46.71s-.48,1-.57.94-.52-.14-.64-.19A6.1,6.1,0,0,1,159,395.6Z" transform="translate(-3.61 -6.16)"/><path class="cls-70" d="M178.27,397.76a41.56,41.56,0,0,0-8.62-2.44,124.94,124.94,0,0,0-19.28-1.38,157.3,157.3,0,0,0-24,1.48c-5.81.85-12.23,2.73-13.32,6.12s3.23,5.75,8.3,7.47c9.1,3.07,21.31,4.21,32,3.8a74.48,74.48,0,0,0,17.38-2.52c4.28-1.22,8.67-2.67,11.37-4.79C186,402.51,183,399.7,178.27,397.76Z" transform="translate(-3.61 -6.16)"/><path class="cls-12" d="M183.76,404.37c-2.06,4-10.8,5.79-16.15,7.94a.35.35,0,0,0-.25.26c1.71-.33,3.38-.71,5-1.17,4.34-1.22,8.81-2.67,11.55-4.8s2-4.14-.39-5.83A3.51,3.51,0,0,1,183.76,404.37Z" transform="translate(-3.61 -6.16)"/><path class="cls-56" d="M149.07,390.17c-20.54,0-37.19,6.23-37.19,12.79,0,7.52,16.65,11.6,37.19,11.6s37.2-4,37.2-12C186.27,396,169.62,390.17,149.07,390.17Zm0,21.24c-18.81,0-34.07-4.54-34.07-10.12s15.26-10.12,34.07-10.12,34.07,4.53,34.07,10.12S167.89,411.41,149.07,411.41Z" transform="translate(-3.61 -6.16)"/><path class="cls-71" d="M143.61,412.42a1,1,0,0,1-.11.27c-.61,1.05-4.08.21-5,.11-3.5-.42-6.94-.84-10.38-1.57q-2.61-.57-5.15-1.38c-6.64-2.12-10.45-5-10.45-7.8,0-2.32,2.56-4.64,7.13-6.57-3.45,1.69-5.29,3.69-5.29,5.81,0,3,3.7,5.76,10.43,7.76A77.79,77.79,0,0,0,141,411.74C141.39,411.77,143.77,411.72,143.61,412.42Z" transform="translate(-3.61 -6.16)"/><path class="cls-71" d="M160.62,411.8s-3.07.22-3.71.76,2.15,1.17,8.18.16,13-2.8,14.53-4.54-1.15-.42-4.7.86S160.62,411.8,160.62,411.8Z" transform="translate(-3.61 -6.16)"/><path class="cls-72" d="M143.58,419.47s27.35,2.38,40.43-6.24l-14.57,45S176.43,426.6,143.58,419.47Z" transform="translate(-3.61 -6.16)"/><path class="cls-4" d="M136.43,367.76a10.79,10.79,0,0,0,0,12c-.63-.92-.43-2.72-.38-3.7" transform="translate(-3.61 -6.16)"/><path class="cls-4" d="M136.59,380.54s2.85,2.33.92,4.61a3.77,3.77,0,0,0-.23,4.6,2.61,2.61,0,0,1,0-1.44,6.12,6.12,0,0,1,1.11-2.59,5.06,5.06,0,0,0,1.1-1.62c.27-1-.72-1.94-1.63-2.63C137.48,381.15,137,380.84,136.59,380.54Z" transform="translate(-3.61 -6.16)"/><path class="cls-4" d="M140.63,367.58s-3.94,7.41-.86,11.92c2.91,4.27-.43,6.8-.43,6.8s5.25-1.9,2.4-6.65a14.83,14.83,0,0,1-1.11-12.07" transform="translate(-3.61 -6.16)"/><path class="cls-3" d="M113.56,551c-.42,12.21-24,22-52.66,21.83S9.33,562.6,9.74,550.39s24-22,52.67-21.83S114,538.74,113.56,551Z" transform="translate(-3.61 -6.16)"/><path class="cls-4" d="M112.9,549.9c-.41,11.92-23.72,21.46-52.07,21.31s-51-9.94-50.59-21.86S34,527.88,62.31,528,113.3,538,112.9,549.9Z" transform="translate(-3.61 -6.16)"/><path class="cls-5" d="M99.73,549.42c-.3,8.68-17.27,15.63-37.91,15.52S24.69,557.7,25,549s17.27-15.63,37.91-15.52S100,540.74,99.73,549.42Z" transform="translate(-3.61 -6.16)"/><path class="cls-73" d="M96.18,514.26h.34c-3.89-4.9-19.09-4.69-34.13-3.73-15-1-30.25-1.17-34.14,3.73h.34c-8,6.11-8.27,16.29-7,25.18,1.78,12.79,20,22.84,40.82,22.84s39.05-10,40.83-22.8C104.45,530.59,104.14,520.37,96.18,514.26Z" transform="translate(-3.61 -6.16)"/><path class="cls-26" d="M25.87,537.75a35.31,35.31,0,0,0,12.26,10.4c2.34,1.3,4.41,1.34,6.61,2.74,1.66,1.06,1.63,2.31,3.91,2.59,2.09.26,4,1,6,1.36,2.24.4,4.68,0,6.91,0a22.9,22.9,0,0,0,3.84-.76c1-.19,2.08.1,3.13,0,2.1-.22,4-1.37,6.09-1.88,1.81-.45,3.24-.58,5-1.2a16.11,16.11,0,0,1,4.34-.78c2.18-.15,1.6-1.06,3-2.54,1-1.13,2.39-1.26,3.49-1.92.68-.41,1.19-1.18,1.91-1.55s1.43-.11,2.26-.28c2.62-.54,4.11-3.82,6.72-4.45-1,4-6.48,5.38-9.29,7.71-4.28,3.56-8.53,4.28-13.77,5.35-2.44.5-4.43.58-6.79,1.54a22.8,22.8,0,0,1-5.91,1.54c-2,.25-4.16,1.32-6.13,1.36s-4.34-.46-6.4-.59c-1.7-.11-3.29-.88-5-1a18.07,18.07,0,0,1-4.36-.39c-2.7-.83-4.13-3.15-6.15-4.92S33,548,31.21,545.55a31.88,31.88,0,0,0-3.39-4.19c-1-1-3.65-1.59-2.34-3.47Z" transform="translate(-3.61 -6.16)"/><path class="cls-74" d="M65.13,557.18c-7.17,0-7-7.14-16.2-5.37-7.27,1.4-7.54-5.32-9.61-8.48-2.39-3.63-4.88,1.84-7,1.17A14.47,14.47,0,0,1,24,537.33a25.4,25.4,0,0,1-2.8-11.82c-.07-5.13,1.16-10,5.16-14,2.78-2.75,8.36-5.84,13-7.68,6.62-2.65,9.36-3.8,23.52-3.66a56,56,0,0,1,19,3.27c5.41,2,11.37,4.94,15.54,9.36s7.34,11.86,5.57,18.24A11.75,11.75,0,0,1,100.2,536a20.5,20.5,0,0,0-2.83,3.25,11.23,11.23,0,0,0-1.65,3c-.38,1.32.42,3.59-.58,4.61-.85.87-2.57.38-3.47-.12-1.52-.85-2.64-3.26-4.36-1.22A12.69,12.69,0,0,0,85,550.4a12.83,12.83,0,0,1-.79,3.13,3.42,3.42,0,0,1-2.75,1.6,5.24,5.24,0,0,1-4.87-2.7c-.89-1.41-1.55-3.41-3.38-2a18.16,18.16,0,0,0-3.49,4A13.13,13.13,0,0,1,68.55,556,4.14,4.14,0,0,1,65.13,557.18Z" transform="translate(-3.61 -6.16)"/><path class="cls-10" d="M99.4,517.72a10.67,10.67,0,0,1,1.15,4.63c.14,10.44-15.65,19.18-35.28,19.51-15.11.26-28.08-4.54-33.32-11.52,4,8.13,18,13.95,34.65,13.67,19.63-.34,35.43-9.07,35.29-19.51A11.53,11.53,0,0,0,99.4,517.72Z" transform="translate(-3.61 -6.16)"/><path class="cls-75" d="M37.53,513.49c0,.56-.75,1-1.67,1s-1.66-.46-1.66-1,.75-1,1.66-1S37.53,512.93,37.53,513.49Z" transform="translate(-3.61 -6.16)"/><path class="cls-75" d="M46.94,505.52c0,.56-.74,1-1.66,1s-1.66-.46-1.66-1,.74-1,1.66-1S46.94,505,46.94,505.52Z" transform="translate(-3.61 -6.16)"/><path class="cls-75" d="M45.83,512.26c0,.57-.74,1-1.66,1s-1.66-.46-1.66-1,.74-1,1.66-1S45.83,511.7,45.83,512.26Z" transform="translate(-3.61 -6.16)"/><path class="cls-75" d="M39.74,523.3c0,.56-.74,1-1.66,1s-1.66-.46-1.66-1,.74-1,1.66-1S39.74,522.74,39.74,523.3Z" transform="translate(-3.61 -6.16)"/><path class="cls-75" d="M53,525.75c0,.57-.74,1-1.66,1s-1.66-.46-1.66-1,.75-1,1.66-1S53,525.19,53,525.75Z" transform="translate(-3.61 -6.16)"/><path class="cls-75" d="M64.67,506.75c0,.56-.75,1-1.67,1s-1.66-.46-1.66-1,.75-1,1.66-1S64.67,506.18,64.67,506.75Z" transform="translate(-3.61 -6.16)"/><path class="cls-75" d="M56.36,515.94c0,.57-.75,1-1.66,1s-1.67-.45-1.67-1,.75-1,1.67-1S56.36,515.38,56.36,515.94Z" transform="translate(-3.61 -6.16)"/><path class="cls-75" d="M74.64,514.72c0,.56-.75,1-1.67,1s-1.66-.46-1.66-1,.75-1,1.66-1S74.64,514.15,74.64,514.72Z" transform="translate(-3.61 -6.16)"/><path class="cls-75" d="M75.19,506.13c0,.57-.74,1-1.66,1s-1.66-.45-1.66-1,.74-1,1.66-1S75.19,505.57,75.19,506.13Z" transform="translate(-3.61 -6.16)"/><path class="cls-75" d="M89.59,517.17c0,.56-.74,1-1.66,1s-1.66-.46-1.66-1,.74-1,1.66-1S89.59,516.61,89.59,517.17Z" transform="translate(-3.61 -6.16)"/><path class="cls-75" d="M69.65,526.37c0,.56-.74,1-1.66,1s-1.66-.46-1.66-1,.74-1,1.66-1S69.65,525.8,69.65,526.37Z" transform="translate(-3.61 -6.16)"/><path class="cls-75" d="M86.82,525.75c0,.57-.74,1-1.66,1s-1.66-.46-1.66-1,.74-1,1.66-1S86.82,525.19,86.82,525.75Z" transform="translate(-3.61 -6.16)"/><path class="cls-75" d="M74.64,533.11c0,.57-.75,1-1.67,1s-1.66-.45-1.66-1,.75-1,1.66-1S74.64,532.55,74.64,533.11Z" transform="translate(-3.61 -6.16)"/><path class="cls-75" d="M30.33,522.69c0,.56-.75,1-1.67,1s-1.66-.46-1.66-1,.75-1,1.66-1S30.33,522.12,30.33,522.69Z" transform="translate(-3.61 -6.16)"/></g></g></svg>