<svg xmlns="http://www.w3.org/2000/svg" viewBox="0 0 2300 2000"><defs><style>.cls-1{isolation:isolate;}.cls-2{fill:#fff;}.cls-3{fill:#07085b;}.cls-16,.cls-4{fill:#daeef7;}.cls-5{fill:#c4dfe8;}.cls-6{fill:#adcfd8;}.cls-7{fill:#f4a640;}.cls-8{fill:#feb546;}.cls-9{fill:#806a8e;}.cls-10{fill:#4b2b5e;}.cls-11{fill:#d85b85;}.cls-12{fill:#bc285a;}.cls-13{fill:#ffc0bb;}.cls-14{fill:#fc8d84;opacity:0.6;}.cls-15{fill:#55769f;}.cls-16,.cls-24{mix-blend-mode:multiply;}.cls-17,.cls-18{fill:#4c2816;}.cls-18{opacity:0.5;mix-blend-mode:screen;}.cls-19{fill:#2d1203;}.cls-20{fill:#844f3d;}.cls-21{fill:#06bfad;}.cls-22,.cls-24{fill:#f99893;}.cls-23{fill:#333;}.cls-24{opacity:0.3;}</style></defs><title>main screen</title><g class="cls-1"><g id="Layer_1" data-name="Layer 1"><rect class="cls-2" width="2300" height="2000"/><path class="cls-3" d="M1823.93,1959.46v18.32c0,1.52,1.51,2.74,3.37,2.74H1880c3.81,0,5.26-4,2-5.72l-29.55-15.34S1840.88,1966.36,1823.93,1959.46Z" transform="translate(0 0)"/><path class="cls-3" d="M1686.75,1960.63v17.31c0,1.42,1.43,2.58,3.18,2.58h49.75c3.6,0,5-3.82,1.93-5.4l-27.91-14.49S1702.75,1967.15,1686.75,1960.63Z" transform="translate(0 0)"/><polygon class="cls-4" points="696.46 699.47 696.47 699.47 696.46 699.47 570.39 692.31 454.58 738.83 454.45 738.87 454.46 738.87 454.45 738.88 454.46 738.87 580.53 746.03 696.34 699.52 696.47 699.47 696.46 699.47"/><polygon class="cls-5" points="481.33 904.55 454.58 738.83 580.53 746.03 607.41 911.7 481.33 904.55"/><polygon class="cls-6" points="696.34 699.52 723.35 865.14 607.41 911.7 580.53 746.03 696.34 699.52"/><path class="cls-7" d="M1788.65,1449.69l117.49-48.6c11.85-90.58,16.58-167.16,16.58-167.16-145.74,21.66-253.56,78.59-333.35,151.6L1587,1531.65l-49.1-92.51c-183.56,217.09-175.07,520.8-175.07,520.8s394.37-205.41,465.69-280.24c27.54-28.89,47.86-101.93,62.44-180.72C1847.58,1481.34,1788.65,1449.69,1788.65,1449.69Z" transform="translate(0 0)"/><path class="cls-8" d="M1922.72,1233.93s-441.12,429.81-559.93,726c0,0,394.37-205.41,465.69-280.24,27.54-28.89,47.86-101.93,62.44-180.72-43.34-17.64-102.27-49.29-102.27-49.29l117.49-48.6C1918,1310.51,1922.72,1233.93,1922.72,1233.93Z" transform="translate(0 0)"/><path class="cls-9" d="M2241.73,1551c-80.39-14-154.13-9.48-220.79,7-9.5,30.37-21.63,66.46-21.63,66.46l-23.65-53.17c-247.37,84.34-384.83,326.23-384.83,326.23,175.59,33.46,305.26,10.78,400.5-35.75-1.6-21.22-4.44-52.7-4.44-52.7l34.44,36.65a455.75,455.75,0,0,0,109-89c-18.05-18.94-37.87-40.91-37.87-40.91l64.07,9.19C2223.19,1636.84,2241.73,1551,2241.73,1551Z" transform="translate(0 0)"/><path class="cls-10" d="M1991.33,1861.73c-1.6-21.22-4.44-52.7-4.44-52.7l34.44,36.65a455.75,455.75,0,0,0,109-89c-18.05-18.94-37.87-40.91-37.87-40.91l64.07,9.19c66.7-88.12,85.24-174,85.24-174-296,78.45-650.9,346.47-650.9,346.47C1766.42,1930.94,1896.09,1908.26,1991.33,1861.73Z" transform="translate(0 0)"/><path class="cls-9" d="M405.76,1420.58l-131.76-61c-1.09-89.43,4.23-164.41,4.23-164.41,168.93,38.14,288.09,106.11,371.88,186.42l-18,142.31,71.13-84.16c185.75,232.53,132.5,526.73,132.5,526.73s-436.24-245.88-509.77-327c-28.4-31.31-42-104.69-48-183C331.69,1444.44,405.76,1420.58,405.76,1420.58Z" transform="translate(0 0)"/><path class="cls-10" d="M278.23,1195.16s459.48,469.47,557.54,771.3c0,0-436.24-245.88-509.77-327-28.4-31.31-42-104.69-48-183,53.66-12.07,127.73-35.93,127.73-35.93l-131.76-61C272.91,1270.14,278.23,1195.16,278.23,1195.16Z" transform="translate(0 0)"/><path class="cls-11" d="M81.91,1532.66c106.25-4.63,201,9.71,284.72,35.79,7.56,33.6,17.63,73.63,17.63,73.63l38.91-53.63c307.05,121.7,447.22,397.21,447.22,397.21-232.51,13.1-396.83-27.74-512.86-89.59,5.4-22.42,14-55.61,14-55.61l-50.3,34.64c-53.25-33.27-94.79-71-127.16-108.88,26.33-17.86,55.41-38.74,55.41-38.74L165.1,1729C92.51,1626.53,81.91,1532.66,81.91,1532.66Z" transform="translate(0 0)"/><path class="cls-12" d="M357.53,1896.07c5.4-22.42,14-55.61,14-55.61l-50.3,34.64c-53.25-33.27-94.79-71-127.16-108.88,26.33-17.86,55.41-38.74,55.41-38.74L165.1,1729c-72.59-102.51-83.19-196.38-83.19-196.38,370.92,121.68,788.48,453,788.48,453C637.88,1998.76,473.56,1957.92,357.53,1896.07Z" transform="translate(0 0)"/><path class="cls-2" d="M1240.69,1875a29.68,29.68,0,0,1,7.86,3.63,36.18,36.18,0,0,1,6.78,5.51,37.8,37.8,0,0,1,8.77,15.12,52.65,52.65,0,0,1,2.08,17.42,84,84,0,0,1-2.69,17.29,88.72,88.72,0,0,1-6.07,16.4,80.66,80.66,0,0,1-9.39,14.73,72.77,72.77,0,0,1-27.16,21.27,71.23,71.23,0,0,0,14.1-9.83,84.23,84.23,0,0,0,11.65-12.53,85.42,85.42,0,0,0,8.86-14.58,90.32,90.32,0,0,0,5.79-16,83.6,83.6,0,0,0,2.72-16.81,53.07,53.07,0,0,0-1.63-16.81,37.84,37.84,0,0,0-7.87-14.86A35.64,35.64,0,0,0,1240.69,1875Z" transform="translate(0 0)"/><path class="cls-2" d="M1256.58,1885.32a70.26,70.26,0,0,0,1.61-12.13,75.75,75.75,0,0,0-.31-12.15,58.6,58.6,0,0,0-7.21-22.85c-.52-.86-1-1.76-1.54-2.58l-1.69-2.49c-1.24-1.58-2.44-3.19-3.83-4.64s-2.82-2.87-4.25-4.28l-2.33-1.93c-.38-.33-.76-.66-1.16-1l-1.22-.89a93.55,93.55,0,0,0-21.46-11.55,74.29,74.29,0,0,1,22.5,10.09,62.36,62.36,0,0,1,5,3.74c1.53,1.42,3.14,2.75,4.53,4.32a57.79,57.79,0,0,1,4,4.79l1.79,2.58c.61.85,1.08,1.79,1.63,2.68a55.69,55.69,0,0,1,4.86,11.54,58.5,58.5,0,0,1,2.14,12.29A63.88,63.88,0,0,1,1256.58,1885.32Z" transform="translate(0 0)"/><path class="cls-13" d="M1078.5,1063s43.35,26.78,44.57,25.45,12.49-5,12.38-6.69,6-28.91,6-28.91L1108.1,1021l-29.6,42Z" transform="translate(0 0)"/><path class="cls-13" d="M1419,948.84s-52,16.45-60,24.7-11.47,26.68-11.47,26.68l11.62,13.66Z" transform="translate(0 0)"/><path class="cls-14" d="M1138.18,1067.68c-8.18,1-25.66-.19-43.94-27L1108.1,1021l33.31,31.88S1139.75,1060.32,1138.18,1067.68Z" transform="translate(0 0)"/><path class="cls-15" d="M1348.25,977.79s-118.65,112-166,99.8c0,0-12.79-1-37.55-8.82,0,0-25.15,20.27-64.11-18.78l-26.39-5.77s-33.33-7.83-75,39.21c-9.45,12.33-17.88,23.79-25.42,34.45-.78,1.14-1.55,2.23-2.31,3.28C862.39,1248.34,904.6,1258.45,905,1258l230.31,31.33,8.1-33.45,10.72-54.68s151.14-47.73,231.37-181.2Z" transform="translate(0 0)"/><path class="cls-2" d="M1174.38,1017.39c-2.69,7.18-10.69,11.67-19.26,10.34s-14.83-8-15.22-15.69Z" transform="translate(0 0)"/><path class="cls-3" d="M1135.35,1289.35c2.14-7,4-14.08,5.85-21.16s3.46-14.22,5.06-21.36,3-14.32,4.38-21.52,2.59-14.41,3.69-21.65a424.34,424.34,0,0,0,4.3-43.74c.41-14.62.22-29.47-3.37-43.72a129.6,129.6,0,0,1,2.06,21.77c.19,7.29,0,14.59-.46,21.86s-1.09,14.55-1.9,21.79-1.81,14.48-2.9,21.7c-2.06,14.45-4.71,28.82-7.52,43.15q-2.08,10.76-4.44,21.47C1138.62,1275.09,1137,1282.22,1135.35,1289.35Z" transform="translate(0 0)"/><path class="cls-4" d="M598.67,1422.7l-107.15,8.6a120,120,0,0,0-90.75,53.84h0A120,120,0,0,0,383,1571.9l5.29,29.72a219.89,219.89,0,0,0,91.26,142.23L501,1758.73a349.07,349.07,0,0,0,131.16,55.53l94.35,18.63Zm10.56,326.92a237.7,237.7,0,0,1-89.3-37.8l-14.62-10.13a149.69,149.69,0,0,1-62.13-96.83l-3.6-20.23a81.72,81.72,0,0,1,12.09-59.07h0a81.68,81.68,0,0,1,61.79-36.65l72.95-5.86,87.05,279.26Z" transform="translate(0 0)"/><path class="cls-16" d="M652.05,1818.18l51.88,10.25c2.93-16,5.9-32.35,5.9-33.39,0-2-34.1-71.6-34.1-71.6l-13,4.44,10.73,34.43-51.62-10.2Z" transform="translate(0 0)"/><path class="cls-16" d="M598.67,1422.7l-71.11,5.71,23,57.52,35.9-2.88,15,48c3.64-1.66,6.32-2.92,6.86-3.28,1.09-.72,5.06-24.52,8.54-47Z" transform="translate(0 0)"/><path class="cls-4" d="M1557.83,1354l-5.2-.62-482.42,11.78L582.63,1353.2l-.93.5s-1.47.71-1.48,3.15c-.3,42.1,22,451.76,225,624.65,0,0,139,17.82,265,15.54,125.92,2.28,284.35-35.5,284.35-35.5,202.33-172.27,205.92-559.78,205.65-604.22A3.42,3.42,0,0,0,1557.83,1354Z" transform="translate(0 0)"/><path class="cls-16" d="M1560.21,1357.32a3.42,3.42,0,0,0-2.38-3.37l-5.2-.62-482.42,11.78-29.34-.72c103.09,53.47,198.9,132.14,203.78,240.9,7.92,176.4-115,348.63-295.07,384.66,39.55,4.66,81.65,7.8,120.63,7.09,125.92,2.28,284.35-35.5,284.35-35.5C1556.89,1789.27,1560.48,1401.76,1560.21,1357.32Z" transform="translate(0 0)"/><path class="cls-5" d="M1560.18,1357.32c0,60.45-220.07,109.49-490.43,109.49s-489.52-49-489.52-109.45S799.4,1247.9,1069.75,1247.9,1560.18,1296.87,1560.18,1357.32Z" transform="translate(0 0)"/><path class="cls-17" d="M640.57,1408.93,792,1443l120,15,163,3.41,159.58-6.82,103-10.91,90.7-17.73,64.1-22.5s16.55-12.71,28.64-21.39c-70-41.43-249.39-70.9-459.09-70.9-212.71,0-393.69,30.34-461.22,72.71Z" transform="translate(0 0)"/><path class="cls-18" d="M1461.61,1369.06a8,8,0,0,0-5.55-4.71c-132.26-29.88-260.33-40.64-375.5-40.87h-1.93c-115.17.23-243.23,11-375.5,40.87a8.06,8.06,0,0,0-5.55,4.71c-1.89,4.35-1.13,11.76,17,20.35a325,325,0,0,0,151.08,7.13c52.82-10,126-20,214-22.18,88,2.17,161.13,12.17,214,22.18a325,325,0,0,0,151.08-7.13C1462.74,1380.82,1463.5,1373.41,1461.61,1369.06Z" transform="translate(0 0)"/><path class="cls-2" d="M660.69,1360.6c16.58-5.94,33.63-10.5,50.73-14.7s34.37-7.81,51.68-11.06,34.73-6,52.17-8.51c8.72-1.29,17.46-2.38,26.2-3.52s17.49-2.13,26.26-3c35-3.87,70.21-6.3,105.41-8s70.44-2.42,105.68-2.39c70.48.26,141,3.66,211,12,35,4.26,69.86,9.6,104.38,16.72,17.25,3.59,34.41,7.62,51.42,12.23s33.91,9.68,50.25,16.25c-4.09-1.61-8.26-3-12.44-4.42s-8.38-2.67-12.6-3.93c-8.42-2.54-16.92-4.84-25.44-7-17.05-4.35-34.25-8.12-51.52-11.45-34.54-6.78-69.39-11.81-104.35-15.74s-70.06-6.7-105.2-8.52-70.33-2.62-105.51-2.66A2058,2058,0,0,0,868,1322.4c-8.76.83-17.5,1.84-26.24,2.8s-17.47,2.07-26.19,3.28q-26.16,3.49-52.17,8t-51.77,10.29c-8.57,2-17.13,4-25.63,6.32S669,1357.74,660.69,1360.6Z" transform="translate(0 0)"/><path class="cls-2" d="M1069.75,1247.9c-270.35,0-489.52,49-489.52,109.46s219.17,109.45,489.52,109.45,490.43-49,490.43-109.49S1340.11,1247.9,1069.75,1247.9Zm0,210.85c-259.09,0-469.12-45.4-469.12-101.39s210-101.4,469.12-101.4,470,45.36,470,101.36S1328.86,1458.75,1069.77,1458.75Z" transform="translate(0 0)"/><path class="cls-19" d="M1122.49,1802.27s-25.25,48.38-16.35,70.12,258.7,75.45,258.7,75.45l11.78-23.53s12.52-12.13,21.81-50.6-187.93-85.45-187.93-85.45Z" transform="translate(0 0)"/><path class="cls-17" d="M1122.22,1802.62s55.75-15.25,105.12,23.12c42.57,33.1,74.09,97.53,134.73,83.57,27.39-6.3,44.26-33.48,36.55-60.39-4.35-15.19-14.92-33-37.12-51.81C1298.15,1743.46,1125.1,1706.42,1122.22,1802.62Z" transform="translate(0 0)"/><path class="cls-17" d="M1376.62,1924.31s-50.37,15-99.27-23.93c-42.18-33.59-72.93-98.39-133.73-85.15-27.47,6-44.67,33-37.28,60,4.17,15.24,14.52,33.16,36.5,52.23C1205.54,1981.82,1372.58,2020.46,1376.62,1924.31Z" transform="translate(0 0)"/><path class="cls-13" d="M1684.33,1566.46a1.24,1.24,0,0,0,2.18.25c4.38-6.33,18.26-26.18,20.13-25.43,2.22.88-9.76,18.92-8.43,20.7s12.57-16.12,14.79-14.79-8.58,17.3-7.84,18.19,12.72-13.31,14.49-13.31-9.17,16.71-8.57,18,12-7.69,12.86-6.8,1.63,1.33-18.19,29c0,0-8.62,8.7-9.21,12.25l-10.45,3.27-10.65-10.49s-1-43.77.44-44.81S1678.57,1552.29,1684.33,1566.46Z" transform="translate(0 0)"/><path class="cls-3" d="M1433.44,1478.58s-1.75,17.86-12.08,32.91c0,0-2.27,16.49,19.1,22.52s22.8-28.58,23-30.52-2.22-20.87-2.22-20.87Z" transform="translate(0 0)"/><path class="cls-3" d="M1417.52,1514.81s-7.44,5.66-26.52,9.69-86,17.38-79.08,64.29c0,0-63.43,70.24,6.79,98.76,0,0-5.07,46.71,43.8,47.32s67.82-167.15,67.82-167.15l14.19-29.86-13.84-4.3-7.45-9.34Z" transform="translate(0 0)"/><path class="cls-8" d="M1427,1522.88a21.4,21.4,0,0,1-3.72-11.56,4.41,4.41,0,0,0-2.11-3.62,3.91,3.91,0,0,0-1.94-.39h0a4.4,4.4,0,0,0-3.63,4.53,28.9,28.9,0,0,0,5,15.38c4.38,6.25,11.25,10.5,20.44,12.67l3.38-7.17C1436.35,1531.11,1430.47,1527.82,1427,1522.88Z" transform="translate(0 0)"/><polygon class="cls-7" points="1646.91 1828.53 1686.76 1964.69 1719.6 1963.59 1719.97 1837.02 1669.42 1802.33 1646.91 1828.53"/><path class="cls-12" d="M1489,1544.76s84.87,104.43,99.27,121l86-84.87s17.34,9.6,26.19,19.93c0,0-34.68,80.07-64.57,101.11l-59.78,40.22,11.44,27.31-21.41,16.6-11.25-26.94L1524,1690.89l-29.15-90.78-5.54-45Z" transform="translate(0 0)"/><path class="cls-2" d="M1489.34,1555.09s35.79,58.31,43.17,80.82,1.48,24.35,4.8,51.66,28.42,100.37,28.42,100.37l-41.7,28s-22.51-72-22.51-74.91-21-134.69-21-134.69l-17.34-49.07Z" transform="translate(0 0)"/><path class="cls-8" d="M1528.09,1813s71.58-64.21,126.94-77.12,198.15,223.25,198.15,223.25l-29.52,14s-128.78-92.62-153.14-134c0,0-105.16,134-140.22,137.27s-80.07,15.87-120.67-56.09S1528.09,1813,1528.09,1813Z" transform="translate(0 0)"/><path class="cls-13" d="M1456.87,1498.26,1441,1541.07s11.49,26.15,50,16.47c0,0-4-9.14,2.49-27.4C1500.09,1511.47,1456.87,1498.26,1456.87,1498.26Z" transform="translate(0 0)"/><path class="cls-14" d="M1456.87,1498.26l-7.45,20c3.45,14.94,16,25.49,40.35,29.51a58.59,58.59,0,0,1,3.68-17.63C1500.09,1511.47,1456.87,1498.26,1456.87,1498.26Z" transform="translate(0 0)"/><path class="cls-13" d="M1644.69,1689.08l8.2-2.5,2.25-16.52a1.49,1.49,0,0,1,2.44-1c4.66,4,3.54,16.9,3.54,16.9h34.76a3.5,3.5,0,0,1,.29,7l-6.39,1.1c1.66,2.31-.58,6-.58,6,.94,2.24-1.23,5.35-1.23,5.35.22,4.62-3.24,6.35-13.21,7.87-5.15.78-17.43,5.48-28.08,9.84Z" transform="translate(0 0)"/><path class="cls-11" d="M1442.11,1533.87s-73.07,88-63.1,243S1390.63,1933,1390.63,1933s44.83-4.8,78-31.37,73.8-44.65,73.8-44.65l-26.94-87.45s35.06,1.1,60.52-9.6,78.6-39.11,78.6-39.11-4.43-26.2-10-34.32c0,0-67.52,20.66-101.47,21C1543.22,1707.49,1503.73,1585.72,1442.11,1533.87Z" transform="translate(0 0)"/><path class="cls-3" d="M1447.37,1562.1a310.73,310.73,0,0,1,31,31.31,369.19,369.19,0,0,1,26.82,35l3.06,4.6c1,1.53,2,3.06,3,4.64l5.73,9.44c1,1.56,1.82,3.21,2.71,4.82l2.63,4.85,2.64,4.85c.85,1.63,1.6,3.32,2.4,5l4.73,10,4.16,10.22,2,5.13,1.73,5.24q1.74,5.23,3.4,10.48c-1.36-3.42-2.71-6.83-4-10.25l-2-5.13-2.29-5-4.51-10-5-9.78c-.85-1.62-1.63-3.28-2.52-4.87l-2.7-4.78-2.7-4.78c-.91-1.59-1.76-3.2-2.76-4.74l-5.76-9.33c-.94-1.58-2-3.09-3-4.61l-3.06-4.55q-12.24-18.21-26.22-35.19l-7.09-8.4c-2.43-2.74-4.81-5.52-7.28-8.23C1457.66,1572.56,1452.58,1567.27,1447.37,1562.1Z" transform="translate(0 0)"/><path class="cls-3" d="M1415.82,1623.54c6,13.54,12.44,26.87,19.07,40.09,3.35,6.59,6.74,13.15,10.29,19.64s7.13,12.94,10.92,19.27,7.66,12.63,11.77,18.75c2,3.09,4.16,6.09,6.28,9.11s4.36,5.94,6.67,8.81a165.35,165.35,0,0,0,14.72,16.46,77.45,77.45,0,0,0,17.69,13.17c-6.82-2.94-12.91-7.4-18.52-12.27a150.44,150.44,0,0,1-15.4-16.13c-4.8-5.69-9.18-11.71-13.39-17.83s-8.16-12.42-12-18.8c-7.57-12.77-14.45-25.94-20.81-39.33S1420.94,1637.45,1415.82,1623.54Z" transform="translate(0 0)"/><path class="cls-3" d="M1533.81,1707.68a130.22,130.22,0,0,0,14.1-.94c4.68-.55,9.34-1.17,14-1.91,9.29-1.49,18.55-3.2,27.75-5.22s18.38-4.14,27.56-6.31l27.48-6.84c-4.44,1.61-8.94,3.06-13.41,4.6s-9,2.78-13.57,4.12-9.13,2.49-13.71,3.67-9.19,2.25-13.83,3.19c-9.25,2-18.6,3.6-28,4.71S1543.24,1708.56,1533.81,1707.68Z" transform="translate(0 0)"/><path class="cls-3" d="M1588.24,1665.79c-1.87,1.92-3.72,3.73-5.5,5.63-.91.94-1.78,1.9-2.65,2.87s-1.72,2-2.65,2.94a21,21,0,0,1,4.39-6.66,25.14,25.14,0,0,1,3-2.68A17.42,17.42,0,0,1,1588.24,1665.79Z" transform="translate(0 0)"/><path class="cls-2" d="M1685.41,1824.05c-1.5,1.84-3,3.63-4.65,5.37s-3.31,3.36-5.06,4.95c-1.24,1.12-2.54,2.22-3.88,3.23a77.39,77.39,0,0,0,2.82-8.31,94.89,94.89,0,0,0,2.31-10.52,72.9,72.9,0,0,0,.86-10.74,53,53,0,0,0-1-10.68,65.63,65.63,0,0,1,.33,10.67,78.12,78.12,0,0,1-1.23,10.57,94.51,94.51,0,0,1-2.42,10.37,101.51,101.51,0,0,1-3.48,10l-.77,1.82,1.6-1.09a48.78,48.78,0,0,0,5.59-4.57,71.14,71.14,0,0,0,4.95-5.18c1.55-1.83,3.07-3.66,4.43-5.62s2.69-3.93,3.91-6C1688.31,1820.3,1686.91,1822.22,1685.41,1824.05Z" transform="translate(0 0)"/><path class="cls-19" d="M1148.34,1855.07a43.25,43.25,0,0,1,23.58,36.81c.64,16.36-.56,36.12-8.66,45.67-15.18,17.92-269.36-8.23-269.36-8.23l-3.92-26s-8.15-15.4-5.1-54.86S1090,1825.28,1090,1825.28Z" transform="translate(0 0)"/><path class="cls-17" d="M1165.14,1870.37s-43.9-35.88-102.71-14.65c-50.73,18.31-100.63,69.84-154,37.82-24.11-14.47-31.75-45.53-16.09-68.74,8.84-13.1,24.39-26.76,51.32-37.79C1020.52,1755.57,1192.15,1778,1165.14,1870.37Z" transform="translate(0 0)"/><path class="cls-17" d="M890,1903.3s43.25,29.86,101.8,7.94c50.5-18.9,99.78-71,153.51-39.63,24.27,14.19,32.29,45.16,16.91,68.55-8.68,13.2-24.06,27-50.86,38.39C1034.89,2010.89,864.09,1996,890,1903.3Z" transform="translate(0 0)"/><path class="cls-2" d="M1149.43,1859.74a29.87,29.87,0,0,1,7.8,3.76,36.26,36.26,0,0,1,6.68,5.63,37.76,37.76,0,0,1,8.51,15.26,52.8,52.8,0,0,1,1.78,17.46,83.77,83.77,0,0,1-3,17.24,89.52,89.52,0,0,1-6.35,16.3,80.3,80.3,0,0,1-9.65,14.56,72.57,72.57,0,0,1-27.52,20.8,71.47,71.47,0,0,0,14.28-9.58,84.46,84.46,0,0,0,21-26.76,89.77,89.77,0,0,0,6.07-15.94,84,84,0,0,0,3-16.76,53,53,0,0,0-1.34-16.84,37.89,37.89,0,0,0-7.61-15A35.63,35.63,0,0,0,1149.43,1859.74Z" transform="translate(0 0)"/><path class="cls-2" d="M1165.14,1870.36a77.1,77.1,0,0,0,1.72-24.25c-1.28-14-7.23-25.79-13.71-32.79-4.43-5.48-14.52-13.76-30.07-20.15,11.87,3.42,24.49,10.27,31.69,18.69,7.58,7.81,13.27,20.49,13.88,34.13A63.6,63.6,0,0,1,1165.14,1870.36Z" transform="translate(0 0)"/><path class="cls-6" d="M1523,894.81c-111.16.68-190.14,161.35-236.84,246.14-39.88,72.42-82.71,228.58-94.36,272.6l54.18,2.3,11.17-10.35c26.31-55.33,97-199.63,151-269.6,62.38-80.81,125.13-136.42,148.44-156a62.11,62.11,0,0,0,19.83-29.74C1591.39,899.7,1523,894.81,1523,894.81Z" transform="translate(0 0)"/><path class="cls-4" d="M1188,1413.39s50.73-199.59,97.43-284.37,125.68-245.46,236.83-246.15c0,0,68.4,4.89,53.41,55.37A62.18,62.18,0,0,1,1555.85,968c-23.32,19.56-86.06,75.17-148.44,156-67.65,87.64-161.44,291.88-161.44,291.88Z" transform="translate(0 0)"/><path class="cls-17" d="M1131,1384.77S1195.88,1409,1281.8,1399c63.58-6-76.34,27.16-77.12,27.91s-24-3.1-44.76-11.25-28.53,17-37.54,8.35-7.43-10.91-4.79-14.18S1131,1384.77,1131,1384.77Z" transform="translate(0 0)"/><path class="cls-20" d="M1105.23,1368.32c4.85,2.65,9.86,4.93,14.9,7.08s10.16,4.13,15.35,5.89a279.54,279.54,0,0,0,31.5,9,298.77,298.77,0,0,0,64.81,7.15c23.59.16,43.92-2.64,65.12-6,5.39-.89,10.76-1.92,16-3.18a63.86,63.86,0,0,0,7.64-2.29c5.13-2,6.13-3.41-1.75-6.34-2.51-.94-5.14-1.68-7.78-2.39-5.3-1.39-10.7-2.52-16.12-3.54a155.66,155.66,0,0,1,16.51,1.66,76.33,76.33,0,0,1,8.21,1.72c10,2.8,12.2,7.83,2.5,12.52a65.87,65.87,0,0,1-8,3c-5.37,1.68-10.8,2.92-16.22,4.11-25.62,5.59-46.47,7.62-66.15,7.6-22.18-.2-44.44-2.79-66.09-8.84a226.79,226.79,0,0,1-31.44-11c-5.07-2.26-10.08-4.65-14.94-7.32A124.49,124.49,0,0,1,1105.23,1368.32Z" transform="translate(0 0)"/><path class="cls-13" d="M1354.78,982.43l-1.45.13v.8l7.79,9.14c1.35.29,2.2.45,2.2.45s15.13-.61,24.2,3.92S1386.65,979.71,1354.78,982.43Z" transform="translate(0 0)"/><path class="cls-3" d="M1038.36,1105.08q-6,13.17-12.39,26.17c-4.21,8.68-8.52,17.31-12.82,25.94l-13,25.82-6.54,12.9c-2.2,4.29-4.36,8.6-6.35,13,3.23-9.11,7.29-17.9,11.34-26.66s8.32-17.41,12.62-26,8.74-17.21,13.26-25.73S1033.57,1113.47,1038.36,1105.08Z" transform="translate(0 0)"/><path class="cls-3" d="M969,1209.59a221.84,221.84,0,0,1,36.53-2A259.76,259.76,0,0,1,1042,1211c23.61,4,48.84,11.12,68.65,24.37-21.49-11.82-44.54-18.16-69-22.19a313.75,313.75,0,0,0-36.2-3.84c-6.07-.24-12.14-.46-18.22-.39S975.05,1209.13,969,1209.59Z" transform="translate(0 0)"/><path class="cls-13" d="M1134.57,1241.68c-12.61-7.51-28.7-7.54-41.82-5.63l-1.92.39c-10.3,2.17-9.9,7.79-9.14,10.35a2,2,0,0,0,1.84,1.35c1.6.06,3.65.18,6.42.5,16.12,1.84-.11,20.41,6.18,20.72,8,.38,6.47-17,10.61-16.58,7.79.87-2.16,16,3,17,5.62,1.17,1.64-17.59,10.6-16.73,4.81.46-1.87,17.29,3.81,16.27,6-1.08,1.49-16.27,7-15.81,8.09.68-2.49,15.24,3.48,16.27C1138.15,1270.43,1143.5,1247,1134.57,1241.68Z" transform="translate(0 0)"/><path class="cls-3" d="M1014.1,1070.22a25.83,25.83,0,0,1-2.59,4,43.6,43.6,0,0,1-6.48,6.82,25.07,25.07,0,0,1-3.89,2.78,24.88,24.88,0,0,1,2.59-4,42.9,42.9,0,0,1,6.48-6.81A25.12,25.12,0,0,1,1014.1,1070.22Z" transform="translate(0 0)"/><path class="cls-3" d="M1030.88,1087.1a25,25,0,0,1,.51,4.76,43.22,43.22,0,0,1-.75,9.36,25.21,25.21,0,0,1-1.27,4.62,25.12,25.12,0,0,1-.52-4.76,44.24,44.24,0,0,1,.76-9.37A24.9,24.9,0,0,1,1030.88,1087.1Z" transform="translate(0 0)"/><path class="cls-3" d="M1166.08,1090.45a25.07,25.07,0,0,1,4.77.29,44.36,44.36,0,0,1,4.62.9,42.53,42.53,0,0,1,4.5,1.4,25.3,25.3,0,0,1,4.33,2,25,25,0,0,1-4.77-.28,43.69,43.69,0,0,1-9.11-2.31A25,25,0,0,1,1166.08,1090.45Z" transform="translate(0 0)"/><path class="cls-3" d="M1209.71,1131.22a25.47,25.47,0,0,1,3.61-3.15,44.25,44.25,0,0,1,3.92-2.59,42.46,42.46,0,0,1,4.19-2.16,24.55,24.55,0,0,1,4.51-1.59,24.77,24.77,0,0,1-3.61,3.14,42.24,42.24,0,0,1-3.92,2.6,45.93,45.93,0,0,1-4.19,2.15A25.62,25.62,0,0,1,1209.71,1131.22Z" transform="translate(0 0)"/><path class="cls-3" d="M558.09,1951.7v25.07a3.74,3.74,0,0,1-3.74,3.75H495.83a4.25,4.25,0,0,1-2.28-7.83l32.84-21S539.27,1961.14,558.09,1951.7Z" transform="translate(0 0)"/><path class="cls-3" d="M1244.52,1076.7a25.81,25.81,0,0,1,3.36-3.41,43,43,0,0,1,3.72-2.88,39.83,39.83,0,0,1,4-2.46A24.58,24.58,0,0,1,1260,1066a24.58,24.58,0,0,1-3.35,3.41,42.5,42.5,0,0,1-3.72,2.88,44.46,44.46,0,0,1-4,2.47A25.74,25.74,0,0,1,1244.52,1076.7Z" transform="translate(0 0)"/><path class="cls-3" d="M1259.81,1102.4a24.87,24.87,0,0,1,4.77-.3,43,43,0,0,1,4.69.34,43.42,43.42,0,0,1,4.64.84,24.8,24.8,0,0,1,4.54,1.48,24.87,24.87,0,0,1-4.77.3,43.11,43.11,0,0,1-9.32-1.19A24.61,24.61,0,0,1,1259.81,1102.4Z" transform="translate(0 0)"/><path class="cls-3" d="M1303.28,1078.46a24.08,24.08,0,0,1,1.59-4.51,42.31,42.31,0,0,1,2.14-4.19,40.4,40.4,0,0,1,2.58-3.94,24.7,24.7,0,0,1,3.13-3.61,25.06,25.06,0,0,1-1.58,4.51,43.1,43.1,0,0,1-4.73,8.13A25.79,25.79,0,0,1,1303.28,1078.46Z" transform="translate(0 0)"/><path class="cls-3" d="M1172.26,1159.83a24.67,24.67,0,0,1,4.8.18,42.58,42.58,0,0,1,9.25,2.16,25.76,25.76,0,0,1,4.45,2,24.81,24.81,0,0,1-4.81-.18,41.13,41.13,0,0,1-4.67-.83,46,46,0,0,1-4.58-1.33A26.1,26.1,0,0,1,1172.26,1159.83Z" transform="translate(0 0)"/><path class="cls-3" d="M1000.29,1116.59a25,25,0,0,1,.51,4.76,43.38,43.38,0,0,1-.75,9.37,25.11,25.11,0,0,1-1.27,4.61,25.87,25.87,0,0,1-.52-4.76,44.08,44.08,0,0,1,.76-9.36A26,26,0,0,1,1000.29,1116.59Z" transform="translate(0 0)"/><path class="cls-3" d="M942.74,1219.58a25.87,25.87,0,0,1,.52,4.76,46,46,0,0,1-.12,4.7,43.1,43.1,0,0,1-.63,4.66,25.25,25.25,0,0,1-1.28,4.62,25,25,0,0,1-.51-4.76,43.32,43.32,0,0,1,.12-4.7,46.32,46.32,0,0,1,.63-4.67A25.93,25.93,0,0,1,942.74,1219.58Z" transform="translate(0 0)"/><path class="cls-3" d="M968.1,1129.3a24.85,24.85,0,0,1-3,3.7,44,44,0,0,1-7.2,6,24.83,24.83,0,0,1-4.17,2.33,25.46,25.46,0,0,1,3-3.71,43.45,43.45,0,0,1,7.2-6A26,26,0,0,1,968.1,1129.3Z" transform="translate(0 0)"/><path class="cls-3" d="M926.68,1194.22a25.65,25.65,0,0,1-1.06,4.66,44.69,44.69,0,0,1-1.66,4.4,40.43,40.43,0,0,1-2.12,4.21,25.5,25.5,0,0,1-2.7,3.94,25.57,25.57,0,0,1,1.06-4.67,42.3,42.3,0,0,1,1.66-4.4,40.28,40.28,0,0,1,2.12-4.2A25,25,0,0,1,926.68,1194.22Z" transform="translate(0 0)"/><path class="cls-3" d="M975.43,1166.46a25.46,25.46,0,0,1-3,3.71,45.35,45.35,0,0,1-3.43,3.22,43.5,43.5,0,0,1-3.77,2.82,24.48,24.48,0,0,1-4.17,2.34,24.43,24.43,0,0,1,3-3.71,43.24,43.24,0,0,1,7.2-6A26,26,0,0,1,975.43,1166.46Z" transform="translate(0 0)"/><path class="cls-13" d="M673,889.12a1.16,1.16,0,0,0,1.56-1.31c-1.47-7-5.94-28.89-4.25-29.67,2-.92,6.48,18.58,8.51,18.82s-2.81-18.68-.5-19.32,6.14,16.76,7.2,16.82-.83-17,.3-18.17,5.37,16.77,6.64,17.22,2.46-12.92,3.62-13,1.93-.24,7.86,30.62c0,0,.35,11.32,2.35,14l-4.45,9.09L688,914.7s-30-27.14-29.75-28.79S659.82,884,673,889.12Z" transform="translate(0 0)"/><path class="cls-13" d="M530.87,896a1.16,1.16,0,0,1-2-.46c-1.87-6.86-7.89-28.42-9.74-28.34-2.21.09,2.7,19.49,1,20.62s-6-17.9-8.35-17.42S514,888.07,513,888.62s-7-15.5-8.55-16,2.87,17.38,1.95,18.36-8.09-10.38-9.13-9.88-1.83.66,7,30.84c0,0,4.85,10.23,4.27,13.51l8.11,6.06,12.5-5.89s14.33-37.83,13.36-39.18S540.24,885.36,530.87,896Z" transform="translate(0 0)"/><polygon class="cls-13" points="640.59 1143.13 640.38 1195.91 691.64 1188 683.09 1128.66 640.59 1143.13"/><path class="cls-14" d="M687,1156l-3.94-27.32-42.54,19.47,0,10.42C650.78,1161.06,670,1163.3,687,1156Z" transform="translate(0 0)"/><path class="cls-3" d="M733.23,1948.92v27.49a4.11,4.11,0,0,0,4.11,4.11h64.38a4.65,4.65,0,0,0,2.5-8.58l-36.12-23S753.93,1959.27,733.23,1948.92Z" transform="translate(0 0)"/><path class="cls-9" d="M792,1481.78c-.13-5.88,15.18,11.46,14.89,6.76-6-97.63-196.77-15.77-196.77-15.77l-46.56,34.17L511,1959.43s28.54,8.27,47.31,1.51l116.41-387.75,14.32-5.51S752.72,1523.26,792,1481.78Z" transform="translate(0 0)"/><path class="cls-21" d="M807.13,1492.53c0,1.14.1,2.3.15,3.51C807.23,1494.83,807.18,1493.67,807.13,1492.53Z" transform="translate(0 0)"/><path class="cls-21" d="M807.28,1496.1c.05,1.22.09,2.48.13,3.76C807.37,1498.58,807.33,1497.32,807.28,1496.1Z" transform="translate(0 0)"/><path class="cls-21" d="M807.43,1500.36c0,1.33.07,2.69.1,4.08C807.5,1503.05,807.47,1501.69,807.43,1500.36Z" transform="translate(0 0)"/><path class="cls-21" d="M806.91,1488.54c.07,1.06.13,2.16.18,3.28C807,1490.7,807,1489.6,806.91,1488.54Z" transform="translate(0 0)"/><path class="cls-10" d="M806.89,1466.36c-39.3,41.48-117.84,101.32-117.84,101.32l-14.32,5.51,14.32-5.51,44.26,391.75s31.54,6,49.57-3.75C782.88,1955.68,809.45,1582.78,806.89,1466.36Z" transform="translate(0 0)"/><path class="cls-21" d="M511,1959.43a122.91,122.91,0,0,0,26,4.1,122.91,122.91,0,0,1-26-4.1Z" transform="translate(0 0)"/><path class="cls-21" d="M552.82,1962.46q-1.91.39-3.87.63Q550.92,1962.85,552.82,1962.46Z" transform="translate(0 0)"/><path class="cls-21" d="M537.06,1963.53a76.5,76.5,0,0,0,9.92-.22A76.5,76.5,0,0,1,537.06,1963.53Z" transform="translate(0 0)"/><path class="cls-10" d="M563.58,1506.94l-7.5,64.58c19.85,7.69,68.24,15.9,104.7-63.86,11.5-25.15,14.46-43.26,12.34-56.26a518.53,518.53,0,0,0-63,21.37Z" transform="translate(0 0)"/><path class="cls-4" d="M738.61,1243.35c-2.2,0-35.24-74.89-35.24-74.89-28.27,19.83-66.63,6.06-66.63,6.06S482.38,1457,585.9,1501.05s201.17-9.54,201.17-9.54,22-57.27,22-59.47S740.81,1243.35,738.61,1243.35Z" transform="translate(0 0)"/><path class="cls-8" d="M537.44,926.18s-6.69,134,5.87,158.59c41.67,81.49,93.43,89.75,93.43,89.75s17.8,285,3.12,353.33c0,0-48.82,15.05-120.78-18.72,0,0,55.07-221,52.13-248.89,0,0-88.1-78.56-91-171.07s21.29-174.74,21.29-174.74Z" transform="translate(0 0)"/><path class="cls-8" d="M775,1517.57s-5.51-106.09-29.73-206.67-41.85-142.44-41.85-142.44c32.49-35.79,27.09-68.14,24.23-110.13C724.29,1009.88,676.94,913,676.94,913L708.87,892C862,1076,777.15,1222.43,777.15,1222.43s57.27,202.63,65,264.31A466.11,466.11,0,0,1,775,1517.57Z" transform="translate(0 0)"/><path class="cls-2" d="M572.7,1259.93a33.85,33.85,0,0,0,6.15-5.85c6.49-7.83,9.86-16.65,12.19-26.51-1.41,4.21-5.18,16.43-13.11,25.73-3.55,4.06-5.43,5.44-7.15,6.54l.43.4c0,.18,0,.38,0,.58,2,.42,5.62.54,11.64-2.74a53,53,0,0,0,9.79-7,70.64,70.64,0,0,1-10.15,6.32C579.79,1258.73,575.76,1260.14,572.7,1259.93Z" transform="translate(0 0)"/><path class="cls-2" d="M776,1221.75a34.31,34.31,0,0,1-7-6.44c-6.5-7.62-10.06-16.64-13.11-25.74,2.32,9.81,5.67,18.65,12.19,26.52a34,34,0,0,0,6.15,5.85,14.34,14.34,0,0,1-4.31-.5,28.17,28.17,0,0,1-5.53-2.06,69.6,69.6,0,0,1-10.15-6.31,53.72,53.72,0,0,0,9.79,7,28.76,28.76,0,0,0,5.63,2.36,11.91,11.91,0,0,0,6.27.32l1.17-.32Z" transform="translate(0 0)"/><polygon class="cls-4" points="696.46 699.47 696.47 699.47 696.46 699.47 570.39 692.31 454.58 738.83 454.45 738.87 454.46 738.87 454.45 738.88 454.46 738.87 580.53 746.03 696.34 699.52 696.47 699.47 696.46 699.47"/><polygon class="cls-5" points="481.33 904.55 454.58 738.83 580.53 746.03 607.41 911.7 481.33 904.55"/><polygon class="cls-6" points="696.34 699.52 723.35 865.14 607.41 911.7 580.53 746.03 696.34 699.52"/><polygon class="cls-4" points="1097.58 619.4 1097.58 619.4 1097.58 619.39 1023.96 538.98 924.34 497.92 924.24 497.87 924.24 497.87 924.24 497.87 924.24 497.88 997.85 578.29 1097.47 619.35 1097.58 619.4 1097.58 619.4"/><polygon class="cls-5" points="840.98 616.48 924.34 497.92 997.85 578.29 914.6 696.9 840.98 616.48"/><polygon class="cls-6" points="1097.47 619.35 1014.33 738.01 914.6 696.9 997.85 578.29 1097.47 619.35"/><polygon class="cls-4" points="1172.01 65.14 1172.01 65.13 1172.01 65.14 1045.3 114.86 952.8 212.54 952.7 212.65 952.7 212.65 952.7 212.65 952.7 212.64 1079.41 162.91 1171.91 65.24 1172.01 65.13 1172.01 65.14"/><polygon class="cls-5" points="1053.59 362.83 952.8 212.54 1079.41 162.91 1180.3 313.1 1053.59 362.83"/><polygon class="cls-6" points="1171.91 65.24 1272.9 215.31 1180.3 313.1 1079.41 162.91 1171.91 65.24"/><rect class="cls-5" x="185.86" y="1980.11" width="1859.34" height="19.89" rx="8.09" ry="8.09"/><path class="cls-3" d="M1556.89,1404.86c.46.05,17.15,11.48,2.18,65.07,0,0-11.08,4.46-11,3.78s2.42-27.07,2.42-27.07l-9.51-35.17,11.55-9.27Z" transform="translate(0 0)"/><path class="cls-22" d="M1545.11,1469.74c-3.34,6.92-1.57,14.7,4,17.38s12.74-.76,16.09-7.68,1.57-14.71-4-17.39S1548.46,1462.82,1545.11,1469.74Z" transform="translate(0 0)"/><path class="cls-13" d="M1540.44,1511.18a58.88,58.88,0,0,0,5.08-9.43,110.33,110.33,0,0,0,7.67-26.94c.29-1.81.69-3.59,1.12-5.37a59.49,59.49,0,1,0-117.19-17.73,12.88,12.88,0,0,0-11.5-1.64c-7.24,2.71-10.38,12.23-7,21.29s12,14.21,19.23,11.51a11.76,11.76,0,0,0,2.77-1.51c1.11,29.25,23.51,53.19,52.1,54.53a53.38,53.38,0,0,0,37.09-12.75c.67-.5,1.38-1.08,2.13-1.76A51.49,51.49,0,0,0,1540.44,1511.18Z" transform="translate(0 0)"/><path class="cls-22" d="M1509.83,1455.73c-.13,3.37-.24,6.7-.15,10a38.52,38.52,0,0,0,.42,4.85,12.13,12.13,0,0,0,1.37,4.31l.29.42c.11.14.16.25.33.46a7.81,7.81,0,0,1,.84,1.2,5.47,5.47,0,0,1,.58,1.36,4.72,4.72,0,0,1,.26,1.49,6.63,6.63,0,0,1-2.35,5.14,10.18,10.18,0,0,1-4.8,2.31,14.39,14.39,0,0,1-5.11,0,19.81,19.81,0,0,0,4.81-1.07,10,10,0,0,0,3.89-2.5,5.06,5.06,0,0,0,1.47-3.78,3.58,3.58,0,0,0-.21-1,3.63,3.63,0,0,0-.42-.92,4.91,4.91,0,0,0-.62-.84c-.22-.29-.57-.77-.84-1.15a13.42,13.42,0,0,1-1.56-5.2,28.75,28.75,0,0,1-.08-5.16A42.45,42.45,0,0,1,1509.83,1455.73Z" transform="translate(0 0)"/><path class="cls-23" d="M1490.09,1460.24a5.19,5.19,0,1,1-4.94-5.43A5.18,5.18,0,0,1,1490.09,1460.24Z" transform="translate(0 0)"/><path class="cls-23" d="M1534.5,1465.25a5.19,5.19,0,1,1-4.94-5.43A5.2,5.2,0,0,1,1534.5,1465.25Z" transform="translate(0 0)"/><path class="cls-22" d="M1487.73,1499.66a17.49,17.49,0,0,1,14.34,2.45s7.72-4.45,13.51.28c0,0-3.18,11.14-15.55,9.93S1487.73,1499.66,1487.73,1499.66Z" transform="translate(0 0)"/><path class="cls-23" d="M1481.39,1495.39a37.18,37.18,0,0,0,4.28,3.26,37.58,37.58,0,0,0,4.63,2.68,32.21,32.21,0,0,0,10.08,3.1,27.58,27.58,0,0,0,10.46-.77,38.9,38.9,0,0,0,9.73-4.42,31.71,31.71,0,0,1-4.44,3.14,29.63,29.63,0,0,1-5,2.28,25.92,25.92,0,0,1-5.39,1.18,27.72,27.72,0,0,1-5.54-.06,28.46,28.46,0,0,1-10.4-3.53A30.9,30.9,0,0,1,1481.39,1495.39Z" transform="translate(0 0)"/><path class="cls-3" d="M1496.61,1448.51a54,54,0,0,0-7.59-1.82,26.49,26.49,0,0,0-7.21-.16,24.87,24.87,0,0,0-6.94,1.84c-1.2.37-2.24,1.08-3.45,1.59s-2.25,1.32-3.56,1.9a21.3,21.3,0,0,1,2.3-3.47,18,18,0,0,1,3.14-2.83,16.87,16.87,0,0,1,8-3.09,17.61,17.61,0,0,1,8.53,1.13A16,16,0,0,1,1496.61,1448.51Z" transform="translate(0 0)"/><path class="cls-3" d="M1519.49,1451.09a16,16,0,0,1,7.55-3.51,17.44,17.44,0,0,1,8.59.54,16.93,16.93,0,0,1,7.3,4.6,18,18,0,0,1,2.53,3.39,22.06,22.06,0,0,1,1.59,3.84c-1.18-.81-2.1-1.75-3.13-2.55s-2-1.63-3.08-2.23a24.4,24.4,0,0,0-6.45-3.15,25.9,25.9,0,0,0-7.1-1.24A52.2,52.2,0,0,0,1519.49,1451.09Z" transform="translate(0 0)"/><path class="cls-22" d="M1191.25,985.43c-3.47,7.56-1.38,15.93,4.67,18.7s13.75-1.1,17.21-8.66,1.38-15.93-4.67-18.7S1194.71,977.88,1191.25,985.43Z" transform="translate(0 0)"/><path class="cls-13" d="M1187.1,1030.32a61.8,61.8,0,0,0,5.28-10.31,119.07,119.07,0,0,0,7.71-29.28c.27-2,.66-3.89,1.08-5.82a64.3,64.3,0,1,0-127-16.59c-3.92-2.41-8.41-3.12-12.46-1.51-7.77,3.08-11,13.44-7.1,23.16s13.26,15.08,21,12a12.38,12.38,0,0,0,3-1.7c1.85,31.59,26.57,57,57.5,57.79a57.61,57.61,0,0,0,39.8-14.6,26,26,0,0,0,2.26-1.94A55.23,55.23,0,0,0,1187.1,1030.32Z" transform="translate(0 0)"/><path class="cls-23" d="M1131.58,976.38a5.61,5.61,0,1,1-5.46-5.76A5.62,5.62,0,0,1,1131.58,976.38Z" transform="translate(0 0)"/><path class="cls-23" d="M1179.68,980.81a5.61,5.61,0,1,1-5.46-5.76A5.61,5.61,0,0,1,1179.68,980.81Z" transform="translate(0 0)"/><path class="cls-8" d="M1138.65,965.43a52.19,52.19,0,0,0-7.94-2.86,27.49,27.49,0,0,0-7.79-1,25.71,25.71,0,0,0-7.7,1.31l-1,.28c-.33.1-.63.26-1,.37l-2,.76c-1.3.53-2.53,1.23-4,1.74a25.2,25.2,0,0,1,2.88-3.42,20.35,20.35,0,0,1,3.68-2.67,18.19,18.19,0,0,1,8.93-2.46,19.08,19.08,0,0,1,9,2.06A17.68,17.68,0,0,1,1138.65,965.43Z" transform="translate(0 0)"/><path class="cls-8" d="M1161.19,967.18a17.74,17.74,0,0,1,7.61-4.74,19,19,0,0,1,9.22-.64,18.12,18.12,0,0,1,8.44,3.81,20.37,20.37,0,0,1,3.23,3.2,24.58,24.58,0,0,1,2.31,3.82c-1.34-.72-2.45-1.61-3.66-2.33l-1.8-1c-.31-.16-.58-.37-.89-.51l-.92-.43a25.69,25.69,0,0,0-7.41-2.48,27.68,27.68,0,0,0-7.84-.26A53,53,0,0,0,1161.19,967.18Z" transform="translate(0 0)"/><path class="cls-22" d="M1150.06,971.73a81.22,81.22,0,0,1,5.22,9.45,75.43,75.43,0,0,1,4,10.07,28.18,28.18,0,0,1,1.14,5.45,11.05,11.05,0,0,1,0,1.52,8.09,8.09,0,0,1-.14.81,3.78,3.78,0,0,1-.38.89c-.1.15-.21.3-.32.44l-.28.25c-.18.16-.36.34-.55.48-.39.28-.77.58-1.17.82a25.94,25.94,0,0,1-4.95,2.4,35.54,35.54,0,0,1-5.21,1.5,59.08,59.08,0,0,0,9.16-5.31c.35-.26.65-.55,1-.82l.43-.43.21-.21a.28.28,0,0,1,0-.11,4.16,4.16,0,0,0,.11-2,29.11,29.11,0,0,0-1.17-5c-1-3.37-2.27-6.7-3.48-10S1151.21,975.15,1150.06,971.73Z" transform="translate(0 0)"/><path class="cls-8" d="M1099,888.78s19.43-14.38,60.5-8.41,47.16,28.87,47,60.83l-3.84,34.74s-11.41-9.4-22.84-42.11c0,0-25.26,24.88-35.07,20.88s5.6-22.15,5.6-22.15-48.45,38.52-76.18,36.17c0,0-12.74-50.75,9.3-67,0,0-15.58-.51-16.15-3.73s8-7.26,22.8-4.25c0,0-8.9-22.35-2.79-24.09S1099,888.78,1099,888.78Z" transform="translate(0 0)"/><path class="cls-2" d="M1163.41,1019.35c-2.55,6.55-11.12,10.7-20.68,9.54s-16.88-7.25-17.78-14.23Z" transform="translate(0 0)"/><polygon class="cls-3" points="714.13 1035.45 717.24 1071.66 711.51 1075.26 700.93 1031.16 714.13 1035.45"/><path class="cls-22" d="M706.44,1067.92c-1.58,8.21,2.47,15.88,9,17.14s13.16-4.37,14.73-12.58-2.47-15.87-9-17.13S708,1059.72,706.44,1067.92Z" transform="translate(0 0)"/><path class="cls-13" d="M715.83,1101.4a119.57,119.57,0,0,0,.51-30.42c-.2-2-.29-4-.34-5.94a64.62,64.62,0,1,0-128,14.22c-4.4-1.41-9-1-12.52,1.5-6.85,4.87-7.47,15.75-1.39,24.31s16.55,11.55,23.4,6.69a12.41,12.41,0,0,0,2.48-2.37c9.37,30.39,39.58,49.25,70,42.65C693,1147,712.08,1127.89,715.83,1101.4Z" transform="translate(0 0)"/><path class="cls-23" d="M646,1073.37a5.64,5.64,0,1,1-6.71-4.32A5.65,5.65,0,0,1,646,1073.37Z" transform="translate(0 0)"/><path class="cls-23" d="M694,1066.18a5.64,5.64,0,1,1-6.71-4.31A5.64,5.64,0,0,1,694,1066.18Z" transform="translate(0 0)"/><path class="cls-22" d="M653.22,1111.89a37,37,0,0,0,9.07,3.11,28.54,28.54,0,0,0,9.44.36,24.33,24.33,0,0,0,8.87-3.09,33.77,33.77,0,0,0,7.37-6.1,26.1,26.1,0,0,1-6.91,6.83,22.36,22.36,0,0,1-9.18,3.48,25.61,25.61,0,0,1-9.79-.64A28.22,28.22,0,0,1,653.22,1111.89Z" transform="translate(0 0)"/><path class="cls-3" d="M650.31,1061a52.83,52.83,0,0,0-8.43-.9,27.85,27.85,0,0,0-7.84.93,25.79,25.79,0,0,0-7.21,3.13c-3.08,1.75-5.29,3.9-6.9,5,1-2.61,2.68-5.7,5-7.51a18.2,18.2,0,0,1,8.12-4.53,19.19,19.19,0,0,1,9.28-.16A17.91,17.91,0,0,1,650.31,1061Z" transform="translate(0 0)"/><path class="cls-3" d="M672.73,1057.3a17.91,17.91,0,0,1,6.3-6.44,19.22,19.22,0,0,1,8.85-2.83,18.41,18.41,0,0,1,9.14,1.69c2.72,1,5.3,3.41,7.09,5.53-2-.53-4.54-1.79-8.13-2.48a25.75,25.75,0,0,0-7.83-.66,28.18,28.18,0,0,0-7.72,1.63A53.74,53.74,0,0,0,672.73,1057.3Z" transform="translate(0 0)"/><path class="cls-22" d="M663,1064.41a81.45,81.45,0,0,1,7.35,8,75.69,75.69,0,0,1,6.32,8.87,21.08,21.08,0,0,1,2.77,6.53c.19,1.18.1,2.33-1.88,4.28a26.27,26.27,0,0,1-4.26,3.53,35.76,35.76,0,0,1-4.72,2.71,59.68,59.68,0,0,0,7.67-7.37,10.27,10.27,0,0,0,1.24-1.93,4.06,4.06,0,0,0-.38-2,29,29,0,0,0-2.34-4.61c-1.79-3-3.82-6-5.8-9S664.9,1067.47,663,1064.41Z" transform="translate(0 0)"/><path class="cls-3" d="M707.39,996.78s19-3.67-4.41-15.15-80.88-18.18-110.91,7.55c0,0-10.1-13-19.18-7.27s9.46,12,9.46,12-12.69,2.44-15.13,9.49c-1.81,5.21,5.94,3.66,10.11,2.5-6.89,2.84-27.16,22-.83,74.27,4.66-2.18,34.78-45.15,34.78-45.15s60.56,19.9,49.52,3.4c0,0,70.57,17.75,53.46-14.25C714.26,1024.16,740.28,1020.25,707.39,996.78Z" transform="translate(0 0)"/><path class="cls-3" d="M576.5,1080.16s4.56-3.49,11.54-.9,11.42,18.24,11.42,18.24,22.85,18.72,11.71-62.84c-10.95-80.13-26.11,13.34-26.11,13.34Z" transform="translate(0 0)"/><path class="cls-22" d="M1545.11,1469.74c-3.34,6.92-1.57,14.7,4,17.38s12.74-.76,16.09-7.68,1.57-14.71-4-17.39S1548.46,1462.82,1545.11,1469.74Z" transform="translate(0 0)"/><path class="cls-13" d="M1545.52,1501.75a110.33,110.33,0,0,0,7.67-26.94c.29-1.81.69-3.59,1.12-5.37a59.49,59.49,0,1,0-117.19-17.73,12.88,12.88,0,0,0-11.5-1.64c-7.24,2.71-10.38,12.23-7,21.29s12,14.21,19.23,11.51a11.76,11.76,0,0,0,2.77-1.51c1.11,29.25,23.51,53.19,52.1,54.53C1514.51,1536.91,1535.93,1524.33,1545.52,1501.75Z" transform="translate(0 0)"/><path class="cls-22" d="M1509.83,1455.73c-.13,3.37-.24,6.7-.15,10a38.52,38.52,0,0,0,.42,4.85,12.13,12.13,0,0,0,1.37,4.31,11.71,11.71,0,0,1,2,3.44,6.3,6.3,0,0,1-2.09,6.63,10.18,10.18,0,0,1-4.8,2.31,14.39,14.39,0,0,1-5.11,0,19.81,19.81,0,0,0,4.81-1.07,10,10,0,0,0,3.89-2.5c1.21-1.38,1.93-3.2,1.26-4.75a11.83,11.83,0,0,0-1.88-2.91,13.42,13.42,0,0,1-1.56-5.2,28.75,28.75,0,0,1-.08-5.16A42.45,42.45,0,0,1,1509.83,1455.73Z" transform="translate(0 0)"/><path class="cls-23" d="M1490.09,1460.24a5.19,5.19,0,1,1-4.94-5.43A5.18,5.18,0,0,1,1490.09,1460.24Z" transform="translate(0 0)"/><path class="cls-23" d="M1534.5,1465.25a5.19,5.19,0,1,1-4.94-5.43A5.2,5.2,0,0,1,1534.5,1465.25Z" transform="translate(0 0)"/><path class="cls-24" d="M1487.73,1499.66a17.49,17.49,0,0,1,14.34,2.45s7.72-4.45,13.51.28c0,0-3.18,11.14-15.55,9.93S1487.73,1499.66,1487.73,1499.66Z" transform="translate(0 0)"/><path class="cls-22" d="M1481.39,1495.39a37.18,37.18,0,0,0,4.28,3.26,37.58,37.58,0,0,0,4.63,2.68,32.21,32.21,0,0,0,10.08,3.1,27.58,27.58,0,0,0,10.46-.77,38.9,38.9,0,0,0,9.73-4.42,31.71,31.71,0,0,1-4.44,3.14,29.63,29.63,0,0,1-5,2.28,25.92,25.92,0,0,1-5.39,1.18,27.72,27.72,0,0,1-5.54-.06,28.46,28.46,0,0,1-10.4-3.53A30.9,30.9,0,0,1,1481.39,1495.39Z" transform="translate(0 0)"/><path class="cls-3" d="M1496.61,1448.51a54,54,0,0,0-7.59-1.82,26.49,26.49,0,0,0-7.21-.16,24.87,24.87,0,0,0-6.94,1.84c-1.2.37-2.24,1.08-3.45,1.59s-2.25,1.32-3.56,1.9a21.3,21.3,0,0,1,2.3-3.47,18,18,0,0,1,3.14-2.83,16.87,16.87,0,0,1,8-3.09,17.61,17.61,0,0,1,8.53,1.13A16,16,0,0,1,1496.61,1448.51Z" transform="translate(0 0)"/><path class="cls-3" d="M1519.49,1451.09a16,16,0,0,1,7.55-3.51,17.44,17.44,0,0,1,8.59.54,16.93,16.93,0,0,1,7.3,4.6,18,18,0,0,1,2.53,3.39,22.06,22.06,0,0,1,1.59,3.84c-1.18-.81-2.1-1.75-3.13-2.55s-2-1.63-3.08-2.23a24.4,24.4,0,0,0-6.45-3.15,25.9,25.9,0,0,0-7.1-1.24A52.2,52.2,0,0,0,1519.49,1451.09Z" transform="translate(0 0)"/><path class="cls-3" d="M1458.54,1424.83c.78-.67,72.22,34.66,78.14,14.39,0,0,39.87,9.54,41.78-7s-15.07-21.73-15.07-21.73,12.18.94,14.26-10.89c.74-4.18-3.15-9.78-8.17-15.07a83.82,83.82,0,0,0-44.32-24.21c-14.53-2.93-33.22-3.76-50.66,4.25,0,0,3.54-13.79-5.57-11.48s-52,35.71-42.27,96.72c0,0,10.31-3.33,19.9,11.49C1446.56,1461.27,1448.52,1433.39,1458.54,1424.83Z" transform="translate(0 0)"/></g></g></svg>