<svg id="Слой_1" data-name="Слой 1" xmlns="http://www.w3.org/2000/svg" viewBox="0 0 615.36 156"><defs><style>.cls-1{font-size:15.63px;font-family:Candara-Bold, Candara;font-weight:700;}.cls-2{letter-spacing:-0.06em;}</style></defs><title>scope chart</title><text class="cls-1" transform="translate(0 80.4) scale(0.91 1)">‘Coffee and Cake’ <tspan x="0" y="18.75">delivery mobile app</tspan></text><path d="M270.74,140.32a29.19,29.19,0,0,1-7.9-1.49c-1.89-.63-2.69,2.6-.82,3.23.69.23,1.39.42,2.09.6-23.32,6.24-48.59,20-60.28,43.66-.94,1.89,1.69,3.58,2.63,1.69,11.72-23.69,37.7-37,60.89-42.74a16.26,16.26,0,0,1-1.05,1.42c-1.31,1.6.84,4,2.16,2.37a22.39,22.39,0,0,0,3.75-6.62A1.67,1.67,0,0,0,270.74,140.32Z" transform="translate(-84.83 -108)"/><path d="M275.16,237.87a23.64,23.64,0,0,1-7-9.27c-.85-1.94-3.48-.24-2.64,1.69a27.68,27.68,0,0,0,2.52,4.54c-12.28-1.91-23.33-7.53-33-16.1C227,211.49,219.73,203.2,210.85,197c-1.66-1.16-3.19,1.74-1.54,2.89,10.21,7.13,18.29,17.14,28,24.93A64.39,64.39,0,0,0,269,238.32a1.15,1.15,0,0,0,1.3-.74c.21.23.4.47.61.69a22.59,22.59,0,0,1-5.45,0c-1.95-.25-1.93,3.1,0,3.35a24.06,24.06,0,0,0,9.36-.67C276.17,240.56,276.16,238.67,275.16,237.87Z" transform="translate(-84.83 -108)"/><text class="cls-1" transform="translate(200.42 30.75) scale(0.91 1)">Subject</text><text class="cls-1" transform="translate(200.42 133.79) scale(0.91 1)">Users</text><path d="M367,138.48a20.57,20.57,0,0,1,8.36-3.42c1.38-.24,1.34-2.37.34-3.06a24.27,24.27,0,0,1-6.76-7.1,1.57,1.57,0,1,0-2.63,1.71,29.47,29.47,0,0,0,2.61,3.5q-15.07-.36-30.13.06c-2,.05-1.95,3.4,0,3.34q15.23-.44,30.44,0a24,24,0,0,0-3.81,2.14C363.81,136.75,365.35,139.64,367,138.48Z" transform="translate(-84.83 -108)"/><path d="M354.29,244.05a20.47,20.47,0,0,1,8.35-3.42c1.39-.23,1.35-2.37.35-3.06a24,24,0,0,1-6.76-7.1,1.57,1.57,0,1,0-2.63,1.71,27.86,27.86,0,0,0,2.6,3.5q-15.06-.36-30.12.06c-2,.06-1.95,3.4,0,3.35q15.21-.45,30.44-.05a23.08,23.08,0,0,0-3.81,2.13C351.07,242.32,352.62,245.21,354.29,244.05Z" transform="translate(-84.83 -108)"/><text class="cls-1" transform="translate(300.64 28.22) scale(0.91 1)">Food</text><text class="cls-1" transform="translate(291.62 114.16) scale(0.91 1)">Seniors,<tspan x="0" y="18.75">Adults,</tspan><tspan class="cls-2" x="0" y="37.5">T</tspan><tspan x="7.29" y="37.5">eens</tspan></text><text class="cls-1" transform="translate(396.29 12.8) scale(0.91 1)">Delivery of coffee,<tspan x="0" y="18.75">tea,cakes and </tspan><tspan x="0" y="37.5">pastry</tspan></text><text class="cls-1" transform="translate(391.71 124.76) scale(0.91 1)">Different social <tspan x="0" y="18.75">groups</tspan></text><text class="cls-1" transform="translate(542.3 128.11) scale(0.91 1)">Leisure and <tspan x="0" y="18.75">work time</tspan></text><path d="M462.08,244.05a20.52,20.52,0,0,1,8.36-3.42c1.38-.23,1.34-2.37.34-3.06a24.14,24.14,0,0,1-6.76-7.1,1.57,1.57,0,1,0-2.63,1.71,27.93,27.93,0,0,0,2.61,3.5q-15.08-.36-30.13.06c-2,.06-1.95,3.4,0,3.35q15.23-.45,30.44-.05a23.5,23.5,0,0,0-3.81,2.13C458.87,242.32,460.41,245.21,462.08,244.05Z" transform="translate(-84.83 -108)"/><path d="M455.54,138.48a20.53,20.53,0,0,1,8.35-3.42c1.39-.24,1.35-2.37.35-3.06a24.14,24.14,0,0,1-6.76-7.1,1.57,1.57,0,1,0-2.63,1.71,29.4,29.4,0,0,0,2.6,3.5q-15.06-.36-30.12.06c-2,.05-1.95,3.4,0,3.34q15.22-.44,30.44,0A23.14,23.14,0,0,0,454,135.6C452.32,136.75,453.87,139.64,455.54,138.48Z" transform="translate(-84.83 -108)"/><path d="M605.28,243.14a20.57,20.57,0,0,1,8.36-3.42c1.39-.24,1.35-2.37.34-3.06a24.27,24.27,0,0,1-6.76-7.1,1.56,1.56,0,1,0-2.62,1.7,27.72,27.72,0,0,0,2.6,3.51q-15.06-.36-30.13,0c-2,.06-1.94,3.41,0,3.35q15.23-.43,30.44,0a23.47,23.47,0,0,0-3.8,2.14C602.07,241.41,603.62,244.29,605.28,243.14Z" transform="translate(-84.83 -108)"/></svg>