<?xml version="1.0" encoding="utf-8"?>
<!-- Generator: Adobe Illustrator 22.1.0, SVG Export Plug-In . SVG Version: 6.00 Build 0)  -->
<svg version="1.1" id="Capa_1" xmlns="http://www.w3.org/2000/svg" xmlns:xlink="http://www.w3.org/1999/xlink" x="0px" y="0px"
	 viewBox="0 0 512 512" style="enable-background:new 0 0 512 512;" xml:space="preserve">
<g>
	<path d="M257.3,306.7h-22.6c-0.4,0-0.7,0.3-0.7,0.7c0,0.4,0.3,0.7,0.7,0.7h0.3c0,1.2,0.9,2.1,2.1,2.1h17.8c1.2,0,2.1-0.9,2.1-2.1
		h0.3c0.4,0,0.7-0.3,0.7-0.7C258,306.9,257.6,306.7,257.3,306.7z"/>
	<path d="M242.2,292.3c0.4,0,0.7-0.3,0.7-0.7c0-0.1,0.1-0.2,0.2-0.2h6.1c1.2,0,2.1-0.9,2.1-2.1c0-1.2-0.9-2.1-2.1-2.1h-2.3
		c-0.1,0-0.2-0.1-0.2-0.2c0-0.4-0.3-0.7-0.7-0.7c-0.4,0-0.7,0.3-0.7,0.7c0,0.9,0.7,1.6,1.6,1.6h2.3c0.4,0,0.7,0.3,0.7,0.7
		c0,0.4-0.3,0.7-0.7,0.7h-6.1c-0.9,0-1.6,0.7-1.6,1.6C241.5,292,241.9,292.3,242.2,292.3z"/>
	<path d="M240,305.3h0.2c0.5,0,2-0.1,3-1.1c1.2-1.2,1.1-3,1.1-3.1c0-0.3-0.2-0.5-0.5-0.5c-0.1,0-2-0.1-3.1,1.1
		c-0.2,0.2-0.4,0.5-0.5,0.7c-0.1-0.2-0.3-0.5-0.5-0.7c-1.2-1.2-3-1.1-3.1-1.1c-0.3,0-0.5,0.2-0.5,0.5c0,0.1-0.1,2,1.1,3.1
		C238,305.2,239.5,305.3,240,305.3L240,305.3z"/>
	<path d="M257.9,297.2c0-1.2-0.9-2.1-2.1-2.1h-1.2v1.4h1.2c0.4,0,0.7,0.3,0.7,0.7c0,1.3-0.8,2.3-1.9,2.8v0.4c0,0.4,0,0.8-0.1,1.1
		C256.5,301,257.9,299.3,257.9,297.2z"/>
	<path d="M243.6,299.2c0.1,0,0.2,0,0.2,0c1,0.1,1.8,0.8,1.8,1.8c0,0.3,0.1,2.6-1.5,4.2c0,0,0,0-0.1,0.1h4.2c2.7,0,4.9-2.2,4.9-4.9
		v-3.1h-14.5v2.3c0.5,0.2,1,0.4,1.4,0.7C241.4,299.3,243,299.2,243.6,299.2z"/>
	<path d="M253.3,294.4c0-0.4-0.3-0.7-0.7-0.7h-13.1c-0.4,0-0.7,0.3-0.7,0.7v1.4h14.5V294.4z"/>
</g>
</svg>
