<svg id="Capa_1" data-name="Capa 1" xmlns="http://www.w3.org/2000/svg" viewBox="0 0 24 24"><title>tea-cup (3)</title><path d="M257.27,306.66H234.72a.72.72,0,0,0-.73.67.71.71,0,0,0,.71.73H235a2.1,2.1,0,0,0,2.11,2.11H254.9a2.1,2.1,0,0,0,2.11-2.11h.28a.7.7,0,0,0,.7-.73A.71.71,0,0,0,257.27,306.66Z" transform="translate(-233.99 -286.17)"/><path d="M242.24,292.27a.71.71,0,0,0,.71-.71.23.23,0,0,1,.23-.23h6.1a2.11,2.11,0,0,0,0-4.22h-2.35a.23.23,0,0,1-.23-.23.71.71,0,1,0-1.41,0,1.65,1.65,0,0,0,1.64,1.64h2.35a.7.7,0,1,1,0,1.4h-6.1a1.65,1.65,0,0,0-1.64,1.64A.71.71,0,0,0,242.24,292.27Z" transform="translate(-233.99 -286.17)"/><path d="M240,305.25h.25a4.36,4.36,0,0,0,3-1.06,4.53,4.53,0,0,0,1.06-3.11.54.54,0,0,0-.51-.51,4.47,4.47,0,0,0-3.12,1.05,3.73,3.73,0,0,0-.52.7,3,3,0,0,0-.52-.7,4.44,4.44,0,0,0-3.11-1.05.54.54,0,0,0-.51.51,4.53,4.53,0,0,0,1.06,3.11,4.36,4.36,0,0,0,3,1.06Z" transform="translate(-233.99 -286.17)"/><path d="M258,297.19a2.12,2.12,0,0,0-2.11-2.11h-1.17v1.41h1.17a.7.7,0,0,1,.7.7,3,3,0,0,1-1.87,2.78v.36a6.31,6.31,0,0,1-.11,1.15A4.43,4.43,0,0,0,258,297.19Z" transform="translate(-233.99 -286.17)"/><path d="M243.62,299.16h.23a2,2,0,0,1,1.83,1.84,5.82,5.82,0,0,1-1.47,4.18l-.06.07h4.19a4.92,4.92,0,0,0,4.92-4.92v-3.14H238.73v2.3a5,5,0,0,1,1.4.73A6,6,0,0,1,243.62,299.16Z" transform="translate(-233.99 -286.17)"/><path d="M253.26,294.38a.71.71,0,0,0-.7-.71H239.43a.7.7,0,0,0-.7.71v1.4h14.53Z" transform="translate(-233.99 -286.17)"/></svg>