<svg id="Layer_1" enable-background="new 0 0 511.999 511.999" height="512" viewBox="0 0 511.999 511.999" width="512" xmlns="http://www.w3.org/2000/svg"><g><g><path d="m144.665 114h-30v-28c0-31.981 26.019-58 58-58h74.33c15.439 0 28-12.561 28-28h30c0 31.981-26.019 58-58 58h-74.33c-15.439 0-28 12.561-28 28z"/></g><g><path d="m286.03 114h-78.7v-30h78.699c15.22 0 27.603-12.383 27.603-27.603h30c.001 31.762-25.84 57.603-57.602 57.603z"/></g><path d="m396.837 178.673h-11.842v-30.002h-217.995v83.335h17.332l22.998 34.498v85.766h-110.659v-85.766l22.998-34.498h17.331v-83.335h-107.334v220.663c0 78.666 63.999 142.666 142.665 142.666h69.998c78.666 0 142.666-64 142.666-142.666v-19.669h11.842c47.143 0 85.496-38.353 85.496-85.496s-38.354-85.496-85.496-85.496zm0 140.992h-11.842v-110.992h11.842c30.601 0 55.496 24.896 55.496 55.496s-24.896 55.496-55.496 55.496z"/><path d="m126.671 275.587v46.683h50.658v-46.683l-9.053-13.581h-32.552z"/></g></svg>