<?xml version="1.0" encoding="UTF-8" standalone="no"?>
<!-- Created with Inkscape (http://www.inkscape.org/) -->

<svg
   xmlns:dc="http://purl.org/dc/elements/1.1/"
   xmlns:cc="http://creativecommons.org/ns#"
   xmlns:rdf="http://www.w3.org/1999/02/22-rdf-syntax-ns#"
   xmlns:svg="http://www.w3.org/2000/svg"
   xmlns="http://www.w3.org/2000/svg"
   xmlns:sodipodi="http://sodipodi.sourceforge.net/DTD/sodipodi-0.dtd"
   xmlns:inkscape="http://www.inkscape.org/namespaces/inkscape"
   version="1.1"
   id="svg6814"
   width="357.33334"
   height="353.06668"
   viewBox="0 0 357.33334 353.06668"
   sodipodi:docname="aero.svg"
   inkscape:version="0.92.3 (2405546, 2018-03-11)">
  <metadata
     id="metadata6820">
    <rdf:RDF>
      <cc:Work
         rdf:about="">
        <dc:format>image/svg+xml</dc:format>
        <dc:type
           rdf:resource="http://purl.org/dc/dcmitype/StillImage" />
        <dc:title></dc:title>
      </cc:Work>
    </rdf:RDF>
  </metadata>
  <defs
     id="defs6818" />
  <sodipodi:namedview
     pagecolor="#ffffff"
     bordercolor="#666666"
     borderopacity="1"
     objecttolerance="10"
     gridtolerance="10"
     guidetolerance="10"
     inkscape:pageopacity="0"
     inkscape:pageshadow="2"
     inkscape:window-width="1366"
     inkscape:window-height="705"
     id="namedview6816"
     showgrid="false"
     inkscape:zoom="0.94530132"
     inkscape:cx="17.611002"
     inkscape:cy="128.26197"
     inkscape:window-x="-8"
     inkscape:window-y="-8"
     inkscape:window-maximized="1"
     inkscape:current-layer="g7367" />
  <g
     id="g7367"
     transform="translate(-391.96386,14.960453)">
    <path
       style="fill:#fdf4d0;stroke-width:1.06666672"
       d="M 544.46745,336.74983 C 470.59466,324.48445 414.76547,271.04491 398.65657,197.18008 c -2.07323,-9.50651 -2.38418,-14.06239 -2.38418,-34.9323 0,-20.86991 0.31095,-25.4258 2.38418,-34.9323 11.96944,-54.883966 45.67914,-98.78198 94.61088,-123.2057527 47.94864,-23.9330673 106.71803,-23.9330673 154.66667,0 C 696.86586,28.5335 730.57556,72.431514 742.545,127.31548 c 2.07324,9.5065 2.38418,14.06239 2.38418,34.9323 0,20.86991 -0.31094,25.42579 -2.38418,34.9323 -15.39745,70.60258 -66.81101,122.4092 -136.92998,137.97681 -12.82155,2.84661 -48.06689,3.76477 -61.14757,1.59294 z m 14.88794,-123.70756 c 1.45863,-0.95572 4.66705,-4.46529 7.12982,-7.79901 l 4.47777,-6.06134 1.68557,2.59002 c 3.0277,4.65231 8.92955,10.71503 11.95244,12.27823 6.62916,3.42807 15.94377,0.35725 23.37706,-7.70693 8.44031,-9.15665 11.71471,-21.60193 8.01392,-30.45916 -1.44997,-3.47024 -1.38785,-3.90849 1.03891,-7.33028 1.66413,-2.34645 2.94202,-6.20242 3.59713,-10.85407 0.74415,-5.28403 2.32151,-9.60962 5.89441,-16.16419 5.60974,-10.29119 6.2085,-14.95576 2.4767,-19.29424 -7.02243,-8.16405 -28.66017,-0.78577 -48.55685,16.55748 l -9.80184,8.54392 -7.38172,-6.7742 c -9.25504,-8.49334 -17.63371,-14.08407 -27.01391,-18.02522 -22.61209,-9.50058 -32.06783,-0.28803 -20.27611,19.75463 3.00282,5.10395 4.47965,9.05089 4.98896,13.33333 0.39791,3.34576 1.92466,8.41991 3.39279,11.27589 2.47061,4.80612 2.57477,5.58683 1.39918,10.48727 -2.58918,10.79291 0.47536,21.04793 8.83796,29.57497 8.15813,8.31854 17.75083,10.67061 24.76781,6.0729 z m -9.65755,-3.94544 c -4.02947,-1.16937 -12.72796,-8.65008 -14.86615,-12.78488 -2.31413,-4.47503 -1.92342,-9.57371 1.07136,-13.98091 l 2.63559,-3.87862 -2.6134,-1.71237 c -3.10581,-2.035 -5.40017,-6.16822 -6.40896,-11.54553 -0.40373,-2.15209 -2.84488,-7.12667 -5.42477,-11.05464 -5.24778,-7.98989 -5.59832,-9.46465 -2.62751,-11.05458 6.91216,-3.69927 25.08544,2.53641 41.61175,14.27798 3.78124,2.68647 7.22386,4.8845 7.6503,4.8845 0.42643,0 4.77269,-3.0029 9.65836,-6.67311 11.92942,-8.9616 22.53499,-13.74856 31.95307,-14.42242 6.81932,-0.48792 10.52997,0.52337 10.52997,2.86978 0,0.39217 -2.34826,4.43183 -5.21835,8.977 -3.34665,5.29986 -5.48475,10.04037 -5.96106,13.21657 -0.53185,3.54664 -1.6601,5.80959 -3.97434,7.97141 l -3.23165,3.01882 2.35104,5.46513 c 3.17602,7.38286 2.3137,11.43843 -3.8282,18.00463 -5.64179,6.03153 -10.34072,8.50552 -16.15479,8.50552 -6.86168,0 -13.42471,-6.58584 -15.11603,-15.16857 -0.77036,-3.90922 -0.91632,-4.0969 -1.01641,-1.30693 -0.1861,5.18755 -5.83215,13.06881 -11.06358,15.44356 -5.02347,2.28032 -5.28003,2.30473 -9.95624,0.94766 z m 36.62243,-82.85407 c 6.40404,-6.32494 14.77009,-11.66143 21.34069,-13.61268 6.67676,-1.98279 8.8952,-4.93765 6.05953,-8.07104 -1.01769,-1.12452 -2.65231,-2.0446 -3.63249,-2.0446 -2.52415,0 -28.85199,21.4008 -34.22973,27.82393 l -4.48325,5.35475 -10.25379,-9.97801 c -5.63958,-5.48791 -12.89378,-11.83587 -16.12044,-14.10658 -3.22667,-2.27071 -7.13486,-5.28598 -8.68489,-6.7006 -1.73281,-1.58145 -3.78688,-2.43495 -5.33333,-2.21609 -2.08847,0.29556 -2.51512,0.98118 -2.51512,4.04185 0,3.56201 0.22221,3.76245 6.60921,5.9618 8.57088,2.95138 15.96209,8.62155 27.04453,20.74726 l 8.97168,9.81625 5.31615,-6.23895 c 2.92388,-3.43142 7.38395,-8.2812 9.91125,-10.77729 z"
       id="path7381"
       inkscape:connector-curvature="0" />
    <path
       style="fill:#fcedaf;stroke-width:1.06666672"
       d="m 547.66745,337.0407 c -16.08411,-2.01891 -39.08441,-9.06091 -54.4,-16.65565 -40.80255,-20.23331 -74.01829,-58.40989 -88.42102,-101.62685 -7.11782,-21.35779 -8.54427,-30.79208 -8.54427,-56.51042 0,-19.79365 0.3299,-24.46667 2.40967,-34.13334 7.4672,-34.707219 22.59801,-63.625099 45.92333,-87.768268 30.3935,-31.4591807 67.92777,-49.7224738 109.00755,-53.040505 56.3596,-4.552188 104.56578,13.33763629 142.9237,53.040505 23.32532,24.143169 38.45613,53.061049 45.92334,87.768268 2.07977,9.66667 2.40966,14.33969 2.40966,34.13334 0,19.79364 -0.32989,24.46666 -2.40966,34.13333 -7.46721,34.70722 -22.59802,63.6251 -45.92334,87.76827 -34.81757,36.03838 -78.12045,54.34953 -127.56562,53.94265 -7.62667,-0.0627 -17.22667,-0.53586 -21.33334,-1.05133 z m 13.97127,-125.81685 c 2.0732,-2.00351 4.73695,-5.20274 5.91943,-7.10941 1.18248,-1.90666 2.53314,-3.46666 3.00147,-3.46666 0.46835,0 2.78908,2.56627 5.1572,5.70282 6.80782,9.01689 14.37694,11.34922 23.15063,7.13358 8.55176,-4.109 15.39252,-12.69705 18.10979,-22.73547 1.77251,-6.54818 1.77577,-7.22549 0.0596,-12.39218 -1.80659,-5.43916 -1.80208,-5.49198 0.94095,-10.99652 1.51595,-3.0421 2.75627,-7.04523 2.75627,-8.89583 0,-4.72797 1.78553,-9.4863 6.69552,-17.84311 5.6388,-9.59726 5.90507,-14.6302 1.00558,-19.00789 -4.6621,-4.16559 -10.43105,-4.12925 -21.48958,0.13537 -10.28214,3.96521 -18.65747,9.33737 -27.97506,17.94392 -3.90328,3.60542 -7.38862,6.55531 -7.7452,6.55531 -0.35657,0 -4.83074,-3.60267 -9.9426,-8.00592 -12.39478,-10.67662 -27.8483,-18.63614 -37.72098,-19.42862 -6.26827,-0.50316 -7.23789,-0.30237 -9.99577,2.06985 -4.75859,4.09317 -4.311,10.25982 1.44834,19.95424 3.27889,5.51918 4.87421,9.71645 5.87034,15.44477 0.75232,4.32628 2.42427,9.65646 3.71544,11.84483 2.06592,3.50149 2.19701,4.43513 1.09256,7.78165 -3.29033,9.96978 -0.16292,21.84373 8.18779,31.08697 8.57396,9.49035 20.44232,11.29821 27.75821,4.2283 z m -17.03364,-5.37322 c -6.71689,-4.44909 -10.4179,-9.51497 -11.05029,-15.12543 -0.43761,-3.88252 -0.0598,-5.11744 2.4939,-8.15239 l 3.00963,-3.57674 -3.42298,-2.63973 c -2.6429,-2.03813 -3.93082,-4.37199 -5.65133,-10.24081 -1.22559,-4.1806 -3.55029,-9.28109 -5.16599,-11.33442 -5.14432,-6.53773 -5.87842,-8.53009 -3.87779,-10.52444 1.26835,-1.26438 3.45443,-1.69281 7.97054,-1.56205 8.26299,0.23927 19.13482,4.85743 31.98046,13.58477 l 10.02376,6.81016 8.79906,-6.71366 c 13.8687,-10.58179 26.86934,-15.97477 36.80289,-15.26673 6.50755,0.46385 6.75396,3.09083 1.07443,11.45431 -2.60343,3.83371 -5.0137,9.09114 -6.00991,13.10918 -1.15375,4.65343 -2.5325,7.43421 -4.5008,9.07761 -2.66803,2.22764 -2.75428,2.57808 -1.44397,5.86667 2.88715,7.24604 3.11506,8.97831 1.71647,13.04653 -1.73895,5.05828 -7.0446,10.62122 -12.77627,13.39588 -8.56385,4.1457 -13.7216,2.30891 -20.44779,-7.28189 -0.95287,-1.35866 -2.07087,-5.43866 -2.48445,-9.06666 l -0.75197,-6.59635 -0.14595,5.65298 c -0.17772,6.88376 -1.87627,10.37102 -7.54663,15.49385 -5.79356,5.23415 -11.31831,5.40925 -18.59502,0.58936 z m 36.08299,-73.03645 c 10.40589,-11.27167 17.92994,-16.85343 26.44361,-19.61733 6.52647,-2.11876 9.71768,-6.05172 7.28691,-8.98063 -0.77679,-0.93598 -2.54685,-1.70178 -3.93346,-1.70178 -3.12842,0 -26.594,18.58109 -34.09774,27.0001 l -5.29133,5.93673 -8.93453,-9.03098 c -10.23652,-10.34705 -27.78985,-23.90585 -30.94869,-23.90585 -1.17535,0 -2.66047,0.97813 -3.30029,2.17362 -1.90692,3.56314 -0.29232,6.19296 4.61324,7.51389 10.03095,2.70106 19.92987,10.09257 30.62928,22.87084 3.67265,4.38624 6.99432,7.97499 7.3815,7.97499 0.38718,0 4.95535,-4.60512 10.1515,-10.2336 z"
       id="path7379"
       inkscape:connector-curvature="0" />
    <path
       style="fill:#fbe58e;stroke-width:1.06666672"
       d="m 547.13412,336.7075 c -67.01794,-9.67391 -121.68215,-55.5974 -142.83876,-119.99906 -6.21329,-18.91354 -8.0301,-31.23524 -8.0301,-54.46066 0,-23.22542 1.81681,-35.54713 8.0301,-54.46067 20.38712,-62.059267 72.84472,-107.79454771 136.42441,-118.941921 10.7542,-1.885524 44.54084,-2.173363 56.44717,-0.480892 36.27074,5.1558389 72.78264,24.148102 98.92008,51.454909 23.98093,25.053811 39.54104,55.122095 46.48874,89.834574 3.39788,16.97677 3.39788,48.21122 0,65.18799 -14.59401,72.91549 -69.88837,127.73295 -142.09396,140.86842 -12.63174,2.29795 -40.70191,2.8227 -53.34768,0.99731 z m 12.50225,-123.22913 c 1.88958,-1.15212 5.00958,-4.50171 6.93333,-7.44351 1.92377,-2.94181 3.81273,-5.35738 4.19769,-5.36791 0.38497,-0.0107 2.43255,2.3925 4.55019,5.34009 2.11764,2.9476 5.40266,6.30579 7.30006,7.46268 4.299,2.62118 11.4099,2.73537 16.62194,0.26691 8.77724,-4.15695 17.70471,-16.77778 19.07042,-26.96003 0.34449,-2.56836 -0.16245,-6.11838 -1.34219,-9.39915 -1.87817,-5.22301 -1.87368,-5.30303 0.48432,-8.61453 1.43221,-2.01135 2.77369,-6.1218 3.36838,-10.32111 0.71218,-5.02885 2.47724,-9.80771 6.31762,-17.10476 2.93113,-5.5694 5.32932,-11.10883 5.32932,-12.30982 0,-3.03649 -3.09112,-7.9607 -5.96161,-9.49694 -8.33456,-4.46052 -30.37828,4.45149 -46.18169,18.67069 -4.91882,4.42574 -9.17466,8.0468 -9.45743,8.0468 -0.28278,0 -3.45829,-2.72705 -7.0567,-6.06011 -13.58815,-12.58612 -28.74123,-20.52344 -40.90289,-21.42528 -6.25815,-0.46407 -6.80728,-0.31112 -9.86666,2.74827 -5.19232,5.19232 -4.67461,8.49198 3.57575,22.79021 1.5825,2.74253 3.36461,8.02253 3.96026,11.73334 0.59566,3.71079 2.094,8.77515 3.32968,11.25411 2.09394,4.20081 2.15425,4.99844 0.88706,11.73333 -1.07702,5.72423 -1.09036,8.22377 -0.0642,12.02613 2.49223,9.23478 7.72502,16.29627 15.94727,21.52035 5.89035,3.7425 13.70006,4.11742 18.96009,0.91024 z m -11.43558,-5.48677 c -3.34576,-1.32278 -11.40956,-9.06926 -13.41889,-12.89085 -2.208,-4.19945 -1.8688,-7.49977 1.24193,-12.08368 l 2.75638,-4.06175 -3.24944,-3.03687 c -2.20062,-2.05666 -3.94736,-5.38037 -5.41177,-10.29757 -1.2565,-4.21911 -3.76621,-9.31939 -5.99099,-12.17498 -2.46322,-3.16165 -3.70359,-5.79701 -3.47794,-7.38953 0.33127,-2.33804 0.7942,-2.47526 8.35072,-2.47526 7.03915,0 9.00269,0.47877 16.34852,3.98629 4.59169,2.19247 12.19478,6.63579 16.89575,9.87405 l 8.54724,5.88775 8.57473,-6.46126 c 13.75889,-10.36764 28.01791,-16.48928 36.69347,-15.75315 6.56506,0.55707 6.78736,2.73568 1.17435,11.50888 -3.12728,4.88797 -5.37472,9.90125 -6.15448,13.72855 -0.87645,4.30186 -2.03774,6.68811 -4.05394,8.33018 -2.69707,2.19658 -2.75766,2.46353 -1.33182,5.86667 0.8216,1.96096 1.69845,5.72537 1.94857,8.36537 0.38111,4.02285 -0.047,5.49081 -2.64432,9.06667 -4.78689,6.5904 -10.88064,10.30951 -17.20974,10.50336 -4.74943,0.14546 -5.75626,-0.24462 -9.2144,-3.57003 -5.62346,-5.40759 -6.16566,-6.86601 -6.93973,-18.66666 l -0.69966,-10.66667 -0.16728,9.3863 c -0.17384,9.75565 -1.46079,13.84341 -5.89203,18.71505 -4.64013,5.10128 -10.70652,6.66892 -16.67523,4.30914 z m 30.6234,-73.00464 c 10.08243,-11.75677 23.50447,-21.80585 29.12495,-21.80585 2.70237,0 7.45165,-4.11268 7.45165,-6.45283 0,-2.47946 -4.70326,-5.78166 -6.61976,-4.6478 -4.54244,2.68744 -24.84813,19.51111 -30.63012,25.37767 l -6.84987,6.95006 -9.46518,-9.00735 c -8.50813,-8.09659 -21.49484,-18.66018 -28.0927,-22.85104 -2.22093,-1.41071 -2.68525,-1.36371 -4.71996,0.47768 -1.41519,1.28072 -2.13846,3.0453 -1.93957,4.73202 0.26895,2.28095 1.49611,3.12397 8.07464,5.54695 9.10341,3.35296 14.04802,7.18089 26.06302,20.17699 4.86538,5.26267 9.36396,9.44756 9.99681,9.29974 0.63285,-0.14782 4.05559,-3.65612 7.60609,-7.79624 z"
       id="path7377"
       inkscape:connector-curvature="0" />
    <path
       style="fill:#fbe177;stroke-width:1.06666672"
       d="M 547.96058,336.61353 C 490.31935,328.7542 440.64696,293.31782 414.9373,241.71445 c -7.91436,-15.88539 -12.10203,-27.90221 -15.76017,-45.22502 -2.51703,-11.91914 -2.83855,-15.79764 -2.83855,-34.24165 0,-18.44401 0.32152,-22.32252 2.83855,-34.24166 3.65814,-17.3228 7.84581,-29.339629 15.76017,-45.225012 23.58219,-47.3332 67.70166,-81.3740817 120.46349,-92.944978 13.19196,-2.893054 57.19682,-2.892214 70.4,0.0013 52.74925,11.5603233 96.88128,45.610404 120.46349,92.943635 7.91436,15.885386 12.10202,27.902215 15.76017,45.225015 2.51702,11.91914 2.83854,15.79765 2.83854,34.24166 0,18.44401 -0.32152,22.32251 -2.83854,34.24165 -12.77092,60.4755 -52.17016,107.44039 -109.10677,130.05803 -25.15244,9.99163 -57.44322,13.81757 -84.9571,10.06607 z m 9.43805,-122.0097 c 2.41882,-1.0984 5.77882,-3.77577 7.46667,-5.9497 1.68785,-2.17394 3.79446,-4.89586 4.68136,-6.0487 1.55544,-2.02187 1.73025,-1.9291 4.93638,2.61947 5.21527,7.39896 10.31675,10.76647 16.31029,10.76647 16.19593,0 32.11205,-23.73418 26.23532,-39.1222 -1.80478,-4.72573 -1.79508,-4.88161 0.49672,-7.98144 1.4038,-1.89874 2.9074,-6.44363 3.76435,-11.37842 1.05329,-6.06549 2.58322,-10.16325 5.84333,-15.65085 2.42906,-4.0887 4.67374,-9.01945 4.98821,-10.95723 1.26813,-7.8146 -6.01806,-14.31525 -14.37666,-12.8267 -12.50915,2.2277 -25.99206,9.68528 -39.96942,22.10762 l -7.25427,6.4472 -5.56006,-5.40028 c -7.72266,-7.50075 -14.81728,-12.6466 -23.38356,-16.96052 -15.35897,-7.73464 -26.65528,-8.29675 -30.16938,-1.50121 -2.73284,5.28472 -1.99646,9.55999 3.1315,18.18081 3.52779,5.9307 5.04111,9.86243 5.92237,15.38684 0.65106,4.08129 2.19052,9.21185 3.42101,11.40122 2.07799,3.69727 2.13997,4.43923 0.87059,10.4208 -2.30863,10.87874 0.29224,19.31425 8.80119,28.54537 4.34819,4.71723 8.36237,7.36387 13.57265,8.94877 4.11491,1.2517 5.52541,1.10788 10.27141,-1.04732 z m -10.34274,-7.4745 c -4.52194,-2.45876 -11.31257,-9.7084 -12.82853,-13.69567 -1.34896,-3.54807 -0.4482,-7.30483 2.76373,-11.52646 l 2.49088,-3.27391 -3.60382,-2.87556 c -2.41288,-1.92528 -3.98051,-4.36833 -4.74368,-7.39276 -1.6315,-6.46556 -2.87273,-9.14246 -7.11198,-15.3381 -5.46642,-7.98913 -4.7639,-9.46289 4.46867,-9.3745 9.7202,0.093 16.6625,2.85461 31.10409,12.37273 l 11.32736,7.46561 2.77242,-2.17391 c 15.00985,-11.76948 27.95192,-18.5041 38.14609,-19.84993 5.78492,-0.76372 9.95967,0.51825 9.95967,3.0584 0,0.77133 -1.39984,3.33485 -3.11077,5.69671 -4.52006,6.23977 -7.19502,11.92733 -8.06429,17.14652 -0.42024,2.52307 -1.45441,5.16307 -2.29818,5.86667 -4.81093,4.01172 -4.7445,3.82758 -2.88965,8.00977 2.58907,5.83772 2.91349,10.1907 1.0182,13.66194 -4.51828,8.27528 -11.63724,13.20757 -19.06298,13.20757 -4.71939,0 -5.75754,-0.44757 -9.33403,-4.02406 -5.25283,-5.25282 -6.33856,-9.60728 -6.57651,-26.37595 l -0.19678,-13.86666 -0.60917,16.08004 c -0.57782,15.25219 -0.76009,16.30797 -3.5405,20.50742 -5.34071,8.06646 -12.91343,10.59095 -20.08024,6.69409 z m 39.83279,-80.34615 c 7.08685,-6.94279 13.61252,-11.08646 21.49992,-13.65202 6.55324,-2.1316 8.71069,-5.90525 5.44141,-9.51775 -2.98915,-3.30298 -4.99688,-2.69276 -13.05432,3.9677 -4.08088,3.37333 -10.53535,8.67406 -14.34328,11.77938 -3.80793,3.10532 -8.75107,7.83238 -10.98474,10.50458 l -4.06122,4.85852 -9.19283,-9.05109 c -9.4079,-9.26284 -28.35655,-24.22473 -30.67967,-24.22473 -2.11219,0 -4.6465,3.17014 -4.6465,5.81225 0,3.13473 1.51123,4.3368 7.44876,5.9249 7.46819,1.99749 15.23021,7.8488 26.46594,19.95104 l 10.35197,11.1503 4.74804,-5.68591 c 2.61142,-3.12725 7.56435,-8.44498 11.00652,-11.81717 z"
       id="path7375"
       inkscape:connector-curvature="0" />
    <path
       style="fill:#fbdd6d;stroke-width:1.06666672"
       d="m 552.84287,337.15493 c -77.98459,-8.21508 -140.49856,-67.08689 -154.57991,-145.57382 -2.63739,-14.70035 -2.63739,-43.96632 0,-58.66667 13.02248,-72.584982 66.17368,-127.6253557 138.20449,-143.116737 13.10882,-2.819262 55.15785,-2.819262 68.26667,0 72.03082,15.4913813 125.18202,70.531755 138.20449,143.116737 2.63739,14.70035 2.63739,43.96632 0,58.66667 -5.51968,30.76575 -17.74515,57.69306 -37.14194,81.8073 -36.40849,45.26334 -95.34722,69.83494 -152.9538,63.76652 z m 7.09125,-123.55722 c 1.46667,-1.05823 4.52826,-4.39702 6.80352,-7.41952 l 4.13685,-5.49547 4.11538,5.74705 c 4.26712,5.95896 10.93632,10.2277 15.94769,10.20759 4.77632,-0.0192 13.19164,-4.86998 18.29418,-10.54524 8.31102,-9.24384 11.36938,-20.99208 7.73139,-29.69899 -1.54673,-3.70185 -1.51121,-4.09048 0.63974,-6.99981 1.29549,-1.75223 2.85076,-6.38214 3.60724,-10.73836 0.90669,-5.22127 2.9093,-10.65238 6.2936,-17.06835 5.4946,-10.41672 6.15083,-14.87535 2.81373,-19.11777 -5.03639,-6.40273 -14.46984,-5.9967 -29.48894,1.26923 -7.85627,3.80069 -21.20591,13.56916 -26.90124,19.6847 l -2.54018,2.72761 -8.04467,-7.01614 c -17.74927,-15.47998 -36.66823,-23.90031 -46.44786,-20.67275 -8.64532,2.85322 -9.3816,10.03946 -2.35024,22.93865 3.06454,5.62198 5.11393,11.00222 5.79004,15.20052 0.57561,3.57414 2.0824,8.52887 3.34844,11.01051 2.00788,3.93579 2.15391,5.09976 1.14328,9.11335 -2.51529,9.98912 -0.77549,18.20008 5.73585,27.07031 3.97209,5.41107 10.15638,10.23924 15.11475,11.80033 4.14708,1.30565 11.01256,0.34381 14.25745,-1.99745 z m -11.2829,-5.92959 c -5.15778,-2.24588 -11.28964,-8.20602 -13.43722,-13.0609 -2.14712,-4.85385 -1.66786,-7.55885 2.33533,-13.18081 l 2.09542,-2.94274 -3.54099,-2.70085 c -2.784,-2.12346 -3.94629,-4.19815 -5.43685,-9.70472 -1.12279,-4.14789 -3.58884,-9.36808 -6.04766,-12.80178 -5.99031,-8.36538 -5.41668,-10.23559 3.13545,-10.22259 8.43533,0.0128 19.26328,4.666 34.1567,14.67844 l 8.93733,6.00832 -0.43268,16.10406 c -0.42528,15.82886 -0.48664,16.17963 -3.59063,20.52709 -3.30107,4.62348 -9.50505,8.83908 -12.90319,8.76772 -1.09347,-0.0229 -3.46541,-0.68502 -5.27101,-1.47124 z m 31.23627,-1.7045 c -1.50388,-1.18295 -3.84731,-3.94295 -5.20763,-6.13334 -2.24569,-3.616 -2.50835,-5.46897 -2.85419,-20.1346 l -0.38088,-16.15208 6.77799,-5.45539 c 8.83379,-7.11001 24.2584,-14.82585 32.16571,-16.09022 6.29188,-1.00606 11.4123,-0.0626 11.4123,2.10283 0,0.60823 -2.14409,4.34011 -4.76463,8.29308 -3.05024,4.60115 -5.18835,9.29811 -5.94226,13.05388 -0.87329,4.35046 -2.02556,6.60968 -4.45851,8.74163 l -3.28086,2.87496 2.2898,5.32278 c 2.68262,6.23593 2.83915,8.78462 0.7808,12.7136 -1.59866,3.05152 -6.87362,8.32217 -11.26169,11.2525 -3.76017,2.51102 -11.85072,2.30466 -15.27595,-0.38963 z m 1.35952,-72.70532 c 10.86785,-11.65139 19.51705,-18.02618 27.0214,-19.91581 4.75556,-1.19746 6.25197,-2.35553 7.47593,-5.78557 0.81343,-2.27957 -2.64916,-6.10915 -5.5237,-6.10915 -2.57754,0 -28.74567,21.05817 -34.56877,27.81838 l -4.50086,5.22519 -9.60845,-9.46208 c -10.85323,-10.68792 -27.37932,-23.58149 -30.22513,-23.58149 -2.84303,0 -4.44998,2.16418 -4.44998,5.99304 0,3.27843 0.31305,3.5372 6.95128,5.74627 9.09611,3.02699 18.12546,9.93229 28.151,21.5288 4.45374,5.15165 8.33772,9.37064 8.63106,9.37552 0.29333,0.005 5.08412,-4.86999 10.64622,-10.8331 z"
       id="path7373"
       inkscape:connector-curvature="0" />
    <path
       style="fill:#fad84e;stroke-width:1.06666672"
       d="M 552.49803,337.09745 C 488.55321,329.88256 434.18794,289.0886 409.51621,229.80846 c -4.83923,-11.6275 -9.82373,-29.49566 -11.85411,-42.49402 -1.7158,-10.98443 -1.7158,-39.14889 0,-50.13333 5.95501,-38.123569 23.36372,-72.809051 49.77798,-99.178766 26.38906,-26.344556 58.0576,-42.7381285 94.7671,-49.057232 11.18631,-1.92559 41.24735,-2.195168 53.57571,-0.48045 52.15943,7.2547106 99.43255,39.763196 126.69185,87.122668 9.43217,16.387181 17.84649,40.99083 21.06473,61.59378 0.73312,4.69333 1.33294,15.97333 1.33294,25.06667 0,18.47737 -1.22195,28.09886 -5.76847,45.42049 -7.78243,29.64996 -23.56129,57.08052 -45.34245,78.82494 -26.42283,26.37828 -58.04718,42.73559 -94.88407,49.07763 -12.21238,2.10255 -34.71128,2.84312 -46.37939,1.52661 z m 46.36942,-54.81211 c 15.71673,-7.4517 47.56163,-47.35813 65.99707,-82.70423 17.19248,-32.96298 25.05369,-63.22561 23.8292,-91.73334 -0.59264,-13.797329 -2.06671,-19.945699 -6.16031,-25.694619 -6.23179,-8.751746 -20.79251,-10.5137 -47.95242,-5.802593 -29.43397,5.105565 -35.52502,5.858647 -47.54291,5.878084 -13.60307,0.02201 -25.57666,-2.524657 -33.38498,-7.100639 -2.67567,-1.568047 -8.13545,-5.922707 -12.13283,-9.67702 -9.81145,-9.214846 -14.94816,-11.474327 -25.85282,-11.371874 -18.75999,0.176257 -39.25358,13.332049 -56.34216,36.168662 -7.47384,9.987789 -16.78836,28.843479 -19.49614,39.466669 -2.30934,9.05999 -2.60003,25.50983 -0.58901,33.33178 2.69968,10.50059 18.11101,32.8575 39.15512,56.80156 23.86385,27.15237 48.97395,47.64291 71.40541,58.26879 13.22573,6.26509 20.17827,7.86851 32.53345,7.50297 8.54529,-0.25281 11.13631,-0.77533 16.53333,-3.3342 z"
       id="path7371"
       inkscape:connector-curvature="0" />
    <path
       style="fill:#fad12d;stroke-width:1.06666672"
       d="m 555.96527,337.13691 c -61.10755,-5.01302 -115.9528,-43.18701 -142.60507,-99.25753 -11.57942,-24.36055 -16.85954,-48.0471 -16.85954,-75.6316 0,-27.58451 5.28012,-51.27106 16.85954,-75.631609 23.61281,-49.676168 67.08824,-83.9627827 122.06749,-96.2677392 9.90995,-2.2179548 13.88635,-2.5006608 35.1731,-2.5006608 21.28674,0 25.26314,0.282706 35.1731,2.5006608 54.97924,12.3049565 98.45468,46.5915712 122.06749,96.2677392 11.57941,24.360549 16.85954,48.047099 16.85954,75.631609 0,27.5845 -5.28013,51.27105 -16.85954,75.6316 -27.0248,56.85425 -81.07393,94.06706 -144.22729,99.30045 -13.60814,1.12768 -13.37514,1.12804 -27.64882,-0.0429 z m 35.47808,-51.7446 c 9.11847,-2.37444 14.5973,-5.97357 24.06762,-15.81047 33.70742,-35.01214 62.86491,-86.86187 70.79543,-125.893 4.32097,-21.26623 4.17571,-46.306659 -0.32767,-56.487179 -2.35244,-5.317996 -8.10194,-10.600305 -13.68645,-12.574304 -7.03143,-2.485453 -23.22043,-1.567158 -47.29149,2.682532 -46.57065,8.221937 -64.28654,5.701034 -82.56452,-11.748604 -9.75708,-9.314899 -15.79757,-12.096352 -26.23548,-12.080593 -14.94246,0.02256 -30.50201,7.919026 -45.76277,23.224581 -10.03751,10.066978 -16.55444,19.102378 -22.84672,31.675837 -7.15284,14.29304 -9.4318,22.55494 -10.05289,36.44465 -0.73006,16.32675 1.35782,23.08397 11.99685,38.82666 27.51778,40.71832 66.57236,78.27218 97.42289,93.67925 17.9445,8.96167 31.5545,11.42778 44.4852,8.06064 z"
       id="path7369"
       inkscape:connector-curvature="0" />
  </g>
</svg>
