<?xml version="1.0" encoding="UTF-8" standalone="no"?>
<!-- Created with Inkscape (http://www.inkscape.org/) -->

<svg
   xmlns:dc="http://purl.org/dc/elements/1.1/"
   xmlns:cc="http://creativecommons.org/ns#"
   xmlns:rdf="http://www.w3.org/1999/02/22-rdf-syntax-ns#"
   xmlns:svg="http://www.w3.org/2000/svg"
   xmlns="http://www.w3.org/2000/svg"
   xmlns:sodipodi="http://sodipodi.sourceforge.net/DTD/sodipodi-0.dtd"
   xmlns:inkscape="http://www.inkscape.org/namespaces/inkscape"
   version="1.1"
   id="svg1549"
   width="442.66666"
   height="444"
   viewBox="0 0 442.66666 444"
   sodipodi:docname="blue.svg"
   inkscape:version="0.92.3 (2405546, 2018-03-11)">
  <metadata
     id="metadata1555">
    <rdf:RDF>
      <cc:Work
         rdf:about="">
        <dc:format>image/svg+xml</dc:format>
        <dc:type
           rdf:resource="http://purl.org/dc/dcmitype/StillImage" />
        <dc:title></dc:title>
      </cc:Work>
    </rdf:RDF>
  </metadata>
  <defs
     id="defs1553" />
  <sodipodi:namedview
     pagecolor="#ffffff"
     bordercolor="#666666"
     borderopacity="1"
     objecttolerance="10"
     gridtolerance="10"
     guidetolerance="10"
     inkscape:pageopacity="0"
     inkscape:pageshadow="2"
     inkscape:window-width="1366"
     inkscape:window-height="705"
     id="namedview1551"
     showgrid="false"
     inkscape:zoom="0.53153153"
     inkscape:cx="-16.166"
     inkscape:cy="162.77927"
     inkscape:window-x="-8"
     inkscape:window-y="-8"
     inkscape:window-maximized="1"
     inkscape:current-layer="svg1549" />
  <path
     style="opacity:1;fill:#e6fff0;fill-opacity:0;stroke-width:1.88135588"
     d="m -251.14736,600.01847 c -5.17373,-0.95742 -27.60889,-7.69284 -49.85593,-14.9676 -135.87664,-44.43151 -165.48977,-61.45263 -165.54883,-95.15469 -0.013,-7.41198 8.97913,-42.55091 17.00339,-66.44494 23.12782,-68.86827 87.90743,-149.54897 142.16315,-177.05916 13.43647,-6.81292 17.70942,-8.04714 30.40395,-8.78201 12.26893,-0.71024 16.02584,-0.2083 22.18367,2.96379 10.35709,5.33528 17.78469,13.95126 26.9994,31.31918 25.86264,48.74607 51.30435,75.72514 94.0167,99.69785 21.96607,12.32868 34.549838,23.00558 38.371568,32.557 13.092487,32.72139 -2.129168,96.62221 -32.663138,137.12054 -24.48414,32.47418 -51.76672,51.07304 -84.98328,57.93412 -15.8337,3.27053 -23.89337,3.44318 -38.09065,0.81592 z"
     id="path1057"
     inkscape:connector-curvature="0" />
  <g
     id="g1071"
     transform="translate(-3.7627119,1.8813559)">
    <path
       inkscape:connector-curvature="0"
       id="path2172"
       d="m 77.327152,441.35621 c -34.89991,-3.6361 -58.01311,-21.92727 -65.78267,-52.05872 -5.4748402,-21.23216 -4.1262002,-40.63228 6.54093,-94.09142 9.28691,-46.54201 10.37661,-54.13228 10.40883,-72.50242 0.0322,-18.35028 -1.04769,-25.90643 -10.3616,-72.50241 C 9.9334518,109.18197 7.4786918,89.577705 8.6377918,74.37302 10.345122,51.976792 16.363472,37.463998 29.374502,24.368073 39.774312,13.900404 51.601342,7.7634573 66.493432,5.1073693 c 21.18838,-3.779068 34.732498,-2.47757 90.652888,8.7111257 65.02188,13.009746 71.18394,13.011088 135.69259,0.02958 46.94741,-9.4475387 60.4425,-11.2254307 77.15854,-10.1651427 30.8607,1.957472 51.0768,14.0198077 62.65412,37.3837907 12.09603,24.410804 11.81883,45.878843 -1.44828,112.163747 -13.37657,66.83187 -13.35197,71.9314 0.68467,141.9756 10.65253,53.15722 12.00093,72.88899 6.45449,94.45268 -5.77978,22.47099 -22.35513,40.28395 -44.18705,47.48636 -21.0993,6.96069 -42.75402,5.71649 -99.32101,-5.70667 -66.2618,-13.38094 -74.04659,-13.41967 -136.35775,-0.67841 -45.70844,9.34636 -66.760708,12.09529 -81.149488,10.59618 z M 118.19081,323.29272 c 0.26761,-1.17108 0.82811,-3.9227 1.24556,-6.11471 0.41745,-2.19202 1.28158,-3.6625 1.92029,-3.26777 0.63871,0.39474 0.89871,-0.95831 0.57777,-3.00679 -0.32093,-2.04848 -0.92618,-10.10926 -1.34499,-17.91282 -0.65703,-12.24225 -0.48305,-14.14745 1.26846,-13.8904 1.11646,0.16387 2.77834,1.22716 3.69308,2.36288 7.56512,9.39268 48.51518,27.91525 73.50041,33.24577 10.24096,2.18488 16.68754,2.5107 44.5657,2.25249 25.11859,-0.23265 35.94861,0.21232 47.22634,1.94036 28.05301,4.29846 75.16606,7.16523 75.1639,4.57363 -4.7e-4,-0.54876 1.34611,-1.03119 2.99238,-1.07207 4.46343,-0.11081 14.67304,-4.57304 16.24844,-7.10152 1.71734,-2.75628 -0.9242,-4.75685 -5.08799,-3.85342 -1.98593,0.4309 -2.32762,0.24762 -1.13072,-0.60649 1.15484,-0.8241 -0.1491,-1.24392 -3.99096,-1.28496 -3.54018,-0.0378 -10.73484,-2.14188 -18.95377,-5.54299 -14.64259,-6.05932 -17.64131,-6.44876 -26.16217,-3.39763 -7.17194,2.56811 -11.92144,1.92919 -30.74001,-4.1353 -8.23428,-2.65359 -17.00802,-4.60071 -20.73082,-4.60071 -3.54996,0 -6.8293,-0.37483 -7.28743,-0.83296 -0.45812,-0.45812 -6.69399,-0.95426 -13.85748,-1.10253 -14.39695,-0.29797 -32.31418,-3.10996 -32.31418,-5.07149 0,-0.69278 -0.85497,-0.93152 -1.89994,-0.53052 -1.04495,0.40098 -6.80402,-0.777 -12.79793,-2.61774 -10.86478,-3.3366 -12.28828,-4.34159 -20.30259,-14.3336 -5.47229,-6.82272 -16.28501,-11.69585 -25.95122,-11.69585 -9.21957,0 -9.788,-0.29591 -12.26664,-6.38554 -2.9423,-7.22878 -2.09477,-17.56614 3.21753,-39.24442 10.01773,-40.88014 7.24911,-35.80113 24.31809,-44.61131 12.02728,-6.20791 15.08535,-10.53802 15.08535,-21.36025 0,-7.72965 -2.01602,-12.17654 -8.201,-18.08956 -11.58765,-11.07815 -26.46274,-9.17005 -43.24282,5.54699 -7.44305,6.52795 -12.02439,15.57777 -10.42964,20.60238 0.50245,1.58306 2.72587,4.94244 4.94094,7.46526 3.7749,4.29938 3.91886,4.84901 2.29615,8.76659 -2.56205,6.18535 -7.94032,11.06852 -17.408,15.80555 -4.64198,2.32257 -9.33793,4.99177 -10.43544,5.93159 -1.09752,0.93982 -3.07473,1.92022 -4.39381,2.17868 -1.31908,0.25845 -2.22539,0.76924 -2.01401,1.13508 0.21137,0.36584 -0.9543,2.83108 -2.59037,5.4783 -4.940148,7.99331 -3.299708,21.69551 6.27226,52.3906 3.14073,10.07161 3.74796,14.40228 3.82396,27.27155 0.0497,8.41427 0.4204,18.59122 0.82381,22.61543 0.40341,4.02422 0.26267,9.41201 -0.31275,11.97288 l -1.04622,4.65612 -14.113518,0.878 c -13.49936,0.83979 -19.70734,2.44538 -19.70734,5.09696 0,1.32787 13.40832,2.17186 29.168198,1.836 7.85361,-0.16737 9.97831,-0.64698 10.36514,-2.33974 z"
       style="fill:#800066;fill-opacity:1;stroke-width:1.33031952" />
    <path
       inkscape:connector-curvature="0"
       id="path2174"
       d="m 333.1662,315.80027 c -0.51526,-0.51526 -4.26744,-0.82801 -8.33819,-0.69499 -4.07074,0.13303 -8.10169,-0.19096 -8.95766,-0.71998 -1.48515,-0.91788 -9.52866,-1.7322 -17.17599,-1.7389 -1.96402,-0.001 -3.90972,-0.5513 -4.32379,-1.22129 -0.41408,-0.66999 -3.23897,-0.88471 -6.27754,-0.47716 -3.7579,0.50405 -5.24239,0.28428 -4.64198,-0.68721 0.62347,-1.00881 -9.37686,-1.26805 -34.05208,-0.88275 -37.99772,0.59334 -47.11403,-0.33653 -67.027,-6.83678 -12.7635,-4.16642 -34.05352,-13.86049 -35.4876,-16.1587 -0.58511,-0.93769 -2.15621,-1.70488 -3.49132,-1.70488 -3.05216,0 -17.70589,-14.1244 -20.73907,-19.98991 -1.73617,-3.3574 -2.06886,-6.14047 -1.41326,-11.82278 0.47158,-4.08746 0.91258,-8.62902 0.97999,-10.09238 0.0674,-1.46335 0.8943,-7.74911 1.83752,-13.96835 3.69841,-24.38599 8.34356,-38.84639 15.79355,-49.16547 7.44949,-10.31839 8.68745,-13.7448 6.56982,-18.18375 -1.00305,-2.10258 -3.2812,-5.80711 -5.06255,-8.23229 -4.52675,-6.16284 -1.73446,-12.27254 9.54502,-20.88506 10.97157,-8.37742 21.68225,-8.9709 29.91708,-1.65769 4.67589,4.15258 6.37149,7.91103 6.37149,14.12301 0,4.54071 -0.76451,5.95947 -5.30613,9.84692 -2.91838,2.49802 -7.7783,5.35774 -10.79984,6.35494 -7.39515,2.44062 -11.49014,5.88135 -13.94416,11.71629 -1.12553,2.67619 -4.78553,15.94071 -8.13334,29.47671 -8.62033,34.85416 -8.48459,47.13421 0.63597,57.53632 1.57623,1.79771 4.14562,2.32806 11.27882,2.32806 5.62924,0 10.95284,0.81394 13.62873,2.08373 5.04695,2.39493 11.42038,8.98225 14.11358,14.58722 1.57068,3.26885 3.67176,4.4264 13.82504,7.61662 22.02379,6.92002 34.01437,9.14813 59.08337,10.97899 21.6566,1.58163 26.60631,2.39493 39.86441,6.55024 16.92097,5.3033 22.08114,5.72637 31.3449,2.56989 l 6.38179,-2.17448 12.43943,5.02727 c 6.84169,2.76501 12.18284,5.44243 11.86925,5.94986 -0.76123,1.23169 -29.11201,1.74498 -30.30826,0.54873 z"
       style="fill:#800066;fill-opacity:1;stroke-width:1.33031952" />
    <path
       inkscape:connector-curvature="0"
       id="path2176"
       d="m 113.9422,239.66523 c -0.30271,-0.9146 -1.85408,-6.63121 -3.44747,-12.70359 -3.31324,-12.6267 -2.86236,-18.96258 1.70064,-23.89755 3.34159,-3.61401 12.23191,-9.62747 14.23328,-9.62747 0.69457,0 0.10225,4.04085 -1.31629,8.97966 -1.41853,4.93881 -3.83907,15.7144 -5.37898,23.94575 -2.55568,13.661 -4.32641,17.72864 -5.79118,13.3032 z"
       style="fill:#800066;fill-opacity:1;stroke-width:1.33031952" />
    <path
       inkscape:connector-curvature="0"
       id="path1039"
       d="m 87.496712,324.02073 c -6.859256,-1.16482 -7.109069,-1.39811 -2.822034,-2.63532 2.586864,-0.74655 8.246369,-1.36894 12.576676,-1.38306 4.330306,-0.0151 10.172406,-0.8998 12.982436,-1.96819 l 5.10914,-1.94248 -1.12738,-27.68887 c -0.89522,-21.98678 -2.11994,-30.98206 -5.94713,-43.68038 -6.02548,-19.99208 -7.96426,-37.46551 -4.9614,-44.71505 1.54801,-3.73723 6.19154,-7.5199 15.21264,-12.3924 13.02027,-7.03255 22.5957,-16.02109 22.5957,-21.21078 0,-1.52641 -1.90488,-6.10649 -4.23305,-10.17794 l -4.23306,-7.40265 3.76272,-6.98247 c 2.06949,-3.84036 7.85648,-9.90919 12.85999,-13.48628 17.6136,-12.59229 36.44915,-8.87882 42.46144,8.37136 4.63768,13.30621 0.10067,21.26196 -17.15642,30.08424 -4.87789,2.49371 -9.74393,6.16903 -10.81342,8.16738 -2.49196,4.65628 -12.37714,45.14312 -14.09125,57.71369 -0.91902,6.73977 -0.49092,11.56427 1.43524,16.1742 2.51353,6.01573 3.56212,6.6663 12.43943,7.71768 11.03176,1.30655 23.2935,7.49695 27.46732,13.867 6.84145,10.44137 25.85288,16.3575 65.19925,20.28922 15.47058,1.54591 35.98789,5.00466 46.65366,7.86473 17.16378,4.60255 19.92107,4.87907 28.00129,2.80816 8.2977,-2.12663 10.07105,-1.89145 23.89721,3.16917 8.21391,3.00645 18.10918,6.04537 21.98948,6.75315 3.88029,0.70781 7.05508,2.03431 7.05508,2.94783 0,0.91351 -4.86801,3.50346 -10.8178,5.75542 -9.68475,3.66562 -12.98536,3.9627 -31.51271,2.83641 -11.3822,-0.69195 -26.62118,-2.10742 -33.8644,-3.14552 -7.24322,-1.03809 -34.33475,-2.53416 -60.20339,-3.32461 -45.95976,-1.40434 -47.42931,-1.57182 -64.34783,-7.33298 -20.25692,-6.89799 -44.50634,-18.72357 -52.93136,-25.81276 -9.40389,-7.91285 -10.62119,-6.01924 -10.63807,16.54838 -0.009,12.08041 -0.83853,20.80061 -2.09864,22.06241 -2.60349,2.607 -19.89126,3.85087 -29.899358,2.15131 z m 270.915258,-7.63104 7.52542,-1.48877 -11.28814,-5.19576 c -12.0348,-5.53945 -13.92513,-5.79653 -27.60396,-3.75409 -6.56808,0.98071 -13.70262,0.0933 -28.22034,-3.51028 -10.68646,-2.65255 -26.62612,-5.34971 -35.42146,-5.9937 -22.44261,-1.64323 -36.01752,-4.0503 -55.06647,-9.76425 -14.40365,-4.32054 -17.00649,-5.77063 -20.4978,-11.41969 -5.48167,-8.86953 -13.88546,-13.59297 -24.19932,-13.60149 -22.50268,-0.0186 -24.88955,-14.51489 -11.13164,-67.60632 6.01851,-23.22527 8.15292,-26.75829 19.64947,-32.52508 11.39002,-5.71336 15.99152,-10.71142 15.99152,-17.36971 0,-9.9355 -10.33385,-19.8449 -20.69491,-19.8449 -9.77274,0 -28.22034,14.4334 -28.22034,22.0796 0,2.4251 1.74702,7.83372 3.88226,12.01914 l 3.88226,7.60986 -7.44479,12.53977 c -4.09464,6.89687 -8.78406,16.77281 -10.42093,21.94654 -3.8804,12.26491 -8.69518,42.55636 -8.70479,54.76479 -0.007,8.49027 0.84421,10.57991 7.28984,17.90254 7.2161,8.19792 28.84585,21.09013 45.81009,27.30467 20.67495,7.57389 27.50797,8.52463 73.88403,10.28009 25.86864,0.97919 56.34661,2.91546 67.72881,4.30281 24.86409,3.03064 33.33526,3.28987 43.27119,1.32423 z M 121.34189,212.06152 c 2.74544,-12.24104 4.52507,-22.72308 3.95473,-23.29342 -1.8284,-1.8284 -16.23872,8.90668 -18.43934,13.73652 -2.28593,5.01707 0.53857,26.05109 4.48954,33.43355 2.86204,5.34776 4.10825,2.37076 9.99507,-23.87665 z"
       style="opacity:1;fill:#006680;fill-opacity:0;stroke-width:1.88135588" />
    <path
       inkscape:connector-curvature="0"
       id="path1047"
       d="M 62.098407,439.56887 C 39.094866,433.15783 20.541242,417.22299 13.106029,397.4916 10.441476,390.42048 8.7522279,380.67376 8.149288,368.89192 7.2049041,350.43804 9.4771195,334.23006 21.864253,271.06141 29.299583,233.14468 28.867176,208.77483 19.963092,163.91459 11.259992,120.06695 7.5390847,95.345577 7.5390847,81.370621 c 0,-35.394713 16.8705513,-62.254826 46.3873313,-73.8546689 9.2597,-3.6389839 14.407071,-4.3101552 32.629618,-4.2546132 17.832436,0.054352 29.737976,1.6251369 67.728816,8.9359501 70.34664,13.537242 71.30612,13.52969 147.68644,-1.162405 48.68023,-9.36386 71.50917,-10.29394316 92.51844,-3.7693321 18.34407,5.6969081 31.34104,17.4837961 40.2566,36.5084941 6.38856,13.632377 6.44355,13.97708 6.24702,39.151771 -0.15013,19.222633 -1.41269,31.573973 -5.19271,50.796613 -17.26184,87.78226 -17.26261,88.3608 -0.23628,175.90678 11.55328,59.40454 7.32167,90.31383 -15.4302,112.70851 -15.30478,15.06451 -36.3266,21.28203 -65.1631,19.27297 -16.73641,-1.16603 -28.80497,-3.1673 -82.16079,-13.62436 -36.47166,-7.14799 -61.08038,-6.89835 -100.65254,1.02099 -67.21787,13.4519 -91.371655,15.76975 -110.059323,10.56155 z M 117.39607,321.87132 c 1.24828,-1.24884 2.12526,-10.1061 2.18737,-22.09199 0.067,-12.93299 0.844,-20.25415 2.1974,-20.70528 1.15155,-0.38385 6.02255,2.30103 10.82444,5.96638 10.4876,8.00538 27.92581,16.29866 50.84058,24.17885 16.49797,5.67349 18.1143,5.85777 63.02543,7.18597 25.35127,0.74974 57.52246,2.69668 71.49152,4.32653 32.22707,3.76016 43.79214,3.66792 55.36942,-0.44159 11.66027,-4.13898 12.88569,-7.22783 3.54376,-8.93268 -3.94673,-0.72025 -13.89637,-3.76937 -22.11028,-6.77581 -13.83982,-5.06563 -15.59328,-5.29741 -23.92396,-3.16232 -8.1326,2.08432 -10.74427,1.81643 -27.39612,-2.8101 -11.0968,-3.08311 -29.24005,-6.14583 -45.68621,-7.71215 -39.54674,-3.7664 -59.90139,-10.00185 -66.74512,-20.44673 -4.17382,-6.37004 -16.43556,-12.56044 -27.46732,-13.86698 -8.87731,-1.0514 -9.9259,-1.70195 -12.43943,-7.71768 -1.92616,-4.60995 -2.35426,-9.43444 -1.43524,-16.17421 1.69452,-12.4269 11.5872,-53.03482 14.0337,-57.60615 1.03784,-1.93922 7.01633,-6.25976 13.28554,-9.60121 15.95055,-8.50156 20.58431,-18.9899 14.00813,-31.70685 -5.93411,-11.47528 -19.37129,-16.14881 -32.29893,-11.23373 -8.1842,3.11163 -20.56214,14.14613 -23.31,20.78005 -2.24027,5.4085 -2.07542,6.75243 1.61481,13.16434 2.26039,3.92751 4.1098,8.38981 4.1098,9.91622 0,5.18017 -9.56597,14.17312 -22.51719,21.16837 -7.41017,4.0024 -13.77582,8.87989 -14.94864,11.45394 -3.49352,7.66747 -2.26903,21.8557 3.63861,42.16061 4.6986,16.1494 5.88766,24.31556 6.87462,47.21319 l 1.19336,27.68635 -5.11574,1.945 c -2.81365,1.06976 -8.65872,1.95656 -12.989026,1.97069 -4.330307,0.0151 -9.989812,0.63651 -12.576676,1.38306 -4.287035,1.23721 -4.037221,1.4705 2.822034,2.63532 10.004765,1.699 27.295048,0.45603 29.899358,-2.14941 z"
       style="opacity:1;fill:#006680;fill-opacity:1;stroke-width:1.88135588" />
    <path
       inkscape:connector-curvature="0"
       id="path1053"
       d="m 315.14078,315.06546 c -11.3822,-1.38735 -41.86017,-3.32362 -67.72881,-4.30281 -30.64067,-1.15984 -50.31255,-2.73541 -56.44068,-4.5205 -26.22145,-7.63814 -53.35739,-21.83041 -63.27632,-33.09392 -6.42197,-7.29251 -7.27364,-9.38717 -7.26696,-17.87288 0.01,-12.20843 4.82439,-42.49988 8.70479,-54.76479 1.63687,-5.17373 6.36337,-15.11104 10.50333,-22.08292 l 7.52719,-12.67614 -3.96466,-7.60637 c -5.75883,-11.04857 -5.10759,-15.42687 3.4438,-23.15254 9.69955,-8.76296 20.386,-12.08913 28.30364,-8.80953 12.61698,5.22612 17.41549,20.01132 8.9701,27.63874 -2.32817,2.10269 -8.64814,6.17844 -14.04436,9.05724 -9.09465,4.85184 -10.08231,6.07384 -13.52128,16.72946 -2.04049,6.3224 -4.94091,16.57494 -6.44539,22.78342 -10.68625,44.0986 -7.26826,59.26271 13.35782,59.26271 10.59532,0 17.34871,3.6502 23.69413,12.80664 4.29927,6.20385 7.24024,8.08564 17.88922,11.44651 16.85329,5.31899 36.86034,8.94874 57.61647,10.45299 9.31272,0.67491 25.67567,3.40416 36.36213,6.06498 14.5345,3.61894 21.64471,4.50716 28.22035,3.52532 13.51953,-2.01866 15.50098,-1.74393 27.60396,3.82738 l 11.28814,5.1962 -7.52542,1.45192 c -9.98304,1.92605 -18.50056,1.65813 -43.27119,-1.36111 z"
       style="opacity:1;fill:#006680;fill-opacity:1;stroke-width:1.88135588" />
    <path
       inkscape:connector-curvature="0"
       id="path1055"
       d="m 112.85861,238.13768 c -4.05276,-10.48137 -6.10857,-26.0374 -4.11287,-31.1215 1.85582,-4.72776 16.5138,-16.40381 18.32251,-14.5951 1.16664,1.16664 -8.0553,44.26331 -10.34834,48.36063 -1.38366,2.4724 -2.06278,2.00737 -3.8613,-2.64403 z"
       style="opacity:1;fill:#006680;fill-opacity:1;stroke-width:1.88135588" />
    <path
       inkscape:connector-curvature="0"
       id="path1061"
       d="M 248.35265,407.42197 C 199.85776,393.98583 110.9845,362.32132 83.733996,348.77023 c -45.02574,-22.39034 -50.6849,-35.04526 -37.7165,-84.34092 9.01454,-34.26619 18.83479,-58.9935 33.97721,-85.55434 27.422704,-48.1013 65.724964,-91.204155 103.234504,-116.173355 20.00441,-13.31645 31.35492,-17.30565 49.38964,-17.35826 14.2077,-0.0414 15.95538,0.39504 24.30317,6.06975 6.8281,4.64165 11.38361,10.19281 18.91299,23.04661 22.78911,38.904415 30.1549,49.124475 48.79691,67.705885 12.78015,12.73861 24.35201,22.15305 35.74577,29.08142 42.03884,25.56324 48.28851,31.1083 52.88613,46.92356 3.91209,13.45714 2.51827,44.08886 -2.95322,64.90217 -5.07473,19.30401 -16.12946,44.18096 -26.4401,59.49931 -10.75558,15.97936 -37.71327,42.55379 -51.16741,50.43995 -25.19041,14.76541 -60.99239,20.8816 -84.35044,14.40996 z"
       style="opacity:0.40900005;fill:#e6fff0;fill-opacity:1;stroke-width:1.88135588" />
  </g>
</svg>
