<?xml version="1.0" encoding="UTF-8" standalone="no"?>
<!-- Created with Inkscape (http://www.inkscape.org/) -->

<svg
   xmlns:dc="http://purl.org/dc/elements/1.1/"
   xmlns:cc="http://creativecommons.org/ns#"
   xmlns:rdf="http://www.w3.org/1999/02/22-rdf-syntax-ns#"
   xmlns:svg="http://www.w3.org/2000/svg"
   xmlns="http://www.w3.org/2000/svg"
   xmlns:sodipodi="http://sodipodi.sourceforge.net/DTD/sodipodi-0.dtd"
   xmlns:inkscape="http://www.inkscape.org/namespaces/inkscape"
   version="1.1"
   id="svg1549"
   width="442.66666"
   height="444"
   viewBox="0 0 442.66666 444"
   sodipodi:docname="blue1.svg"
   inkscape:version="0.92.3 (2405546, 2018-03-11)">
  <metadata
     id="metadata1555">
    <rdf:RDF>
      <cc:Work
         rdf:about="">
        <dc:format>image/svg+xml</dc:format>
        <dc:type
           rdf:resource="http://purl.org/dc/dcmitype/StillImage" />
        <dc:title></dc:title>
      </cc:Work>
    </rdf:RDF>
  </metadata>
  <defs
     id="defs1553" />
  <sodipodi:namedview
     pagecolor="#ffffff"
     bordercolor="#666666"
     borderopacity="1"
     objecttolerance="10"
     gridtolerance="10"
     guidetolerance="10"
     inkscape:pageopacity="0"
     inkscape:pageshadow="2"
     inkscape:window-width="1366"
     inkscape:window-height="705"
     id="namedview1551"
     showgrid="false"
     inkscape:zoom="0.53153153"
     inkscape:cx="151.76537"
     inkscape:cy="162.77927"
     inkscape:window-x="-8"
     inkscape:window-y="-8"
     inkscape:window-maximized="1"
     inkscape:current-layer="g1071" />
  <path
     style="opacity:1;fill:#e6fff0;fill-opacity:0;stroke-width:1.88135588"
     d="m -251.14736,600.01847 c -5.17373,-0.95742 -27.60889,-7.69284 -49.85593,-14.9676 -135.87664,-44.43151 -165.48977,-61.45263 -165.54883,-95.15469 -0.013,-7.41198 8.97913,-42.55091 17.00339,-66.44494 23.12782,-68.86827 87.90743,-149.54897 142.16315,-177.05916 13.43647,-6.81292 17.70942,-8.04714 30.40395,-8.78201 12.26893,-0.71024 16.02584,-0.2083 22.18367,2.96379 10.35709,5.33528 17.78469,13.95126 26.9994,31.31918 25.86264,48.74607 51.30435,75.72514 94.0167,99.69785 21.96607,12.32868 34.549838,23.00558 38.371568,32.557 13.092487,32.72139 -2.129168,96.62221 -32.663138,137.12054 -24.48414,32.47418 -51.76672,51.07304 -84.98328,57.93412 -15.8337,3.27053 -23.89337,3.44318 -38.09065,0.81592 z"
     id="path1057"
     inkscape:connector-curvature="0" />
  <g
     id="g1071"
     transform="translate(-3.7627119,1.8813559)">
    <g
       id="g3224"
       transform="matrix(0.84357208,0,0,0.88363847,34.245769,23.484227)">
      <path
         style="fill:#800066;fill-opacity:1;stroke-width:1.33031952"
         d="m 333.1662,315.80027 c -0.51526,-0.51526 -4.26744,-0.82801 -8.33819,-0.69499 -4.07074,0.13303 -8.10169,-0.19096 -8.95766,-0.71998 -1.48515,-0.91788 -9.52866,-1.7322 -17.17599,-1.7389 -1.96402,-0.001 -3.90972,-0.5513 -4.32379,-1.22129 -0.41408,-0.66999 -3.23897,-0.88471 -6.27754,-0.47716 -3.7579,0.50405 -5.24239,0.28428 -4.64198,-0.68721 0.62347,-1.00881 -9.37686,-1.26805 -34.05208,-0.88275 -37.99772,0.59334 -47.11403,-0.33653 -67.027,-6.83678 -12.7635,-4.16642 -34.05352,-13.86049 -35.4876,-16.1587 -0.58511,-0.93769 -2.15621,-1.70488 -3.49132,-1.70488 -3.05216,0 -17.70589,-14.1244 -20.73907,-19.98991 -1.73617,-3.3574 -2.06886,-6.14047 -1.41326,-11.82278 0.47158,-4.08746 0.91258,-8.62902 0.97999,-10.09238 0.0674,-1.46335 0.8943,-7.74911 1.83752,-13.96835 3.69841,-24.38599 8.34356,-38.84639 15.79355,-49.16547 7.44949,-10.31839 8.68745,-13.7448 6.56982,-18.18375 -1.00305,-2.10258 -3.2812,-5.80711 -5.06255,-8.23229 -4.52675,-6.16284 -1.73446,-12.27254 9.54502,-20.88506 10.97157,-8.37742 21.68225,-8.9709 29.91708,-1.65769 4.67589,4.15258 6.37149,7.91103 6.37149,14.12301 0,4.54071 -0.76451,5.95947 -5.30613,9.84692 -2.91838,2.49802 -7.7783,5.35774 -10.79984,6.35494 -7.39515,2.44062 -11.49014,5.88135 -13.94416,11.71629 -1.12553,2.67619 -4.78553,15.94071 -8.13334,29.47671 -8.62033,34.85416 -8.48459,47.13421 0.63597,57.53632 1.57623,1.79771 4.14562,2.32806 11.27882,2.32806 5.62924,0 10.95284,0.81394 13.62873,2.08373 5.04695,2.39493 11.42038,8.98225 14.11358,14.58722 1.57068,3.26885 3.67176,4.4264 13.82504,7.61662 22.02379,6.92002 34.01437,9.14813 59.08337,10.97899 21.6566,1.58163 26.60631,2.39493 39.86441,6.55024 16.92097,5.3033 22.08114,5.72637 31.3449,2.56989 l 6.38179,-2.17448 12.43943,5.02727 c 6.84169,2.76501 12.18284,5.44243 11.86925,5.94986 -0.76123,1.23169 -29.11201,1.74498 -30.30826,0.54873 z"
         id="path2174"
         inkscape:connector-curvature="0" />
      <path
         style="fill:#800066;fill-opacity:1;stroke-width:1.33031952"
         d="m 113.9422,239.66523 c -0.30271,-0.9146 -1.85408,-6.63121 -3.44747,-12.70359 -3.31324,-12.6267 -2.86236,-18.96258 1.70064,-23.89755 3.34159,-3.61401 12.23191,-9.62747 14.23328,-9.62747 0.69457,0 0.10225,4.04085 -1.31629,8.97966 -1.41853,4.93881 -3.83907,15.7144 -5.37898,23.94575 -2.55568,13.661 -4.32641,17.72864 -5.79118,13.3032 z"
         id="path2176"
         inkscape:connector-curvature="0" />
      <path
         style="opacity:1;fill:#006680;fill-opacity:0;stroke-width:1.88135588"
         d="m 87.496712,324.02073 c -6.859256,-1.16482 -7.109069,-1.39811 -2.822034,-2.63532 2.586864,-0.74655 8.246369,-1.36894 12.576676,-1.38306 4.330306,-0.0151 10.172406,-0.8998 12.982436,-1.96819 l 5.10914,-1.94248 -1.12738,-27.68887 c -0.89522,-21.98678 -2.11994,-30.98206 -5.94713,-43.68038 -6.02548,-19.99208 -7.96426,-37.46551 -4.9614,-44.71505 1.54801,-3.73723 6.19154,-7.5199 15.21264,-12.3924 13.02027,-7.03255 22.5957,-16.02109 22.5957,-21.21078 0,-1.52641 -1.90488,-6.10649 -4.23305,-10.17794 l -4.23306,-7.40265 3.76272,-6.98247 c 2.06949,-3.84036 7.85648,-9.90919 12.85999,-13.48628 17.6136,-12.59229 36.44915,-8.87882 42.46144,8.37136 4.63768,13.30621 0.10067,21.26196 -17.15642,30.08424 -4.87789,2.49371 -9.74393,6.16903 -10.81342,8.16738 -2.49196,4.65628 -12.37714,45.14312 -14.09125,57.71369 -0.91902,6.73977 -0.49092,11.56427 1.43524,16.1742 2.51353,6.01573 3.56212,6.6663 12.43943,7.71768 11.03176,1.30655 23.2935,7.49695 27.46732,13.867 6.84145,10.44137 25.85288,16.3575 65.19925,20.28922 15.47058,1.54591 35.98789,5.00466 46.65366,7.86473 17.16378,4.60255 19.92107,4.87907 28.00129,2.80816 8.2977,-2.12663 10.07105,-1.89145 23.89721,3.16917 8.21391,3.00645 18.10918,6.04537 21.98948,6.75315 3.88029,0.70781 7.05508,2.03431 7.05508,2.94783 0,0.91351 -4.86801,3.50346 -10.8178,5.75542 -9.68475,3.66562 -12.98536,3.9627 -31.51271,2.83641 -11.3822,-0.69195 -26.62118,-2.10742 -33.8644,-3.14552 -7.24322,-1.03809 -34.33475,-2.53416 -60.20339,-3.32461 -45.95976,-1.40434 -47.42931,-1.57182 -64.34783,-7.33298 -20.25692,-6.89799 -44.50634,-18.72357 -52.93136,-25.81276 -9.40389,-7.91285 -10.62119,-6.01924 -10.63807,16.54838 -0.009,12.08041 -0.83853,20.80061 -2.09864,22.06241 -2.60349,2.607 -19.89126,3.85087 -29.899358,2.15131 z m 270.915258,-7.63104 7.52542,-1.48877 -11.28814,-5.19576 c -12.0348,-5.53945 -13.92513,-5.79653 -27.60396,-3.75409 -6.56808,0.98071 -13.70262,0.0933 -28.22034,-3.51028 -10.68646,-2.65255 -26.62612,-5.34971 -35.42146,-5.9937 -22.44261,-1.64323 -36.01752,-4.0503 -55.06647,-9.76425 -14.40365,-4.32054 -17.00649,-5.77063 -20.4978,-11.41969 -5.48167,-8.86953 -13.88546,-13.59297 -24.19932,-13.60149 -22.50268,-0.0186 -24.88955,-14.51489 -11.13164,-67.60632 6.01851,-23.22527 8.15292,-26.75829 19.64947,-32.52508 11.39002,-5.71336 15.99152,-10.71142 15.99152,-17.36971 0,-9.9355 -10.33385,-19.8449 -20.69491,-19.8449 -9.77274,0 -28.22034,14.4334 -28.22034,22.0796 0,2.4251 1.74702,7.83372 3.88226,12.01914 l 3.88226,7.60986 -7.44479,12.53977 c -4.09464,6.89687 -8.78406,16.77281 -10.42093,21.94654 -3.8804,12.26491 -8.69518,42.55636 -8.70479,54.76479 -0.007,8.49027 0.84421,10.57991 7.28984,17.90254 7.2161,8.19792 28.84585,21.09013 45.81009,27.30467 20.67495,7.57389 27.50797,8.52463 73.88403,10.28009 25.86864,0.97919 56.34661,2.91546 67.72881,4.30281 24.86409,3.03064 33.33526,3.28987 43.27119,1.32423 z M 121.34189,212.06152 c 2.74544,-12.24104 4.52507,-22.72308 3.95473,-23.29342 -1.8284,-1.8284 -16.23872,8.90668 -18.43934,13.73652 -2.28593,5.01707 0.53857,26.05109 4.48954,33.43355 2.86204,5.34776 4.10825,2.37076 9.99507,-23.87665 z"
         id="path1039"
         inkscape:connector-curvature="0" />
      <path
         sodipodi:nodetypes="cssaasssaasscaassaaccccccscscssssccccsscsscsscssccccsc"
         style="opacity:1;fill:#006680;fill-opacity:1;stroke-width:1.88135648"
         d="M 62.08307,441.45034 C 39.078595,435.03955 20.524222,417.22398 13.088708,397.49338 10.424046,390.42254 -6.3161168,386.32028 -6.9190807,374.53891 -7.863504,356.08576 -30.032433,306.51276 -32.712038,271.06823 -35.748502,230.90332 -31.192775,189.83811 -21.443783,150.75618 -15.37879,126.44273 0.26524288,93.327771 7.5215387,81.384991 24.453742,53.517111 24.392771,47.352983 46.38532,26.346823 53.580092,19.474745 69.612166,10.022892 86.541682,3.2788197 110.01891,-6.07361 145.83911,-17.965966 176.8495,-21.649993 c 45.17496,-5.366773 91.51176,-2.883176 136.40428,4.481709 27.90501,4.577984 60.22392,17.92680625 81.23404,24.4511572 18.34481,5.6966808 31.3423,17.4830998 40.25822,36.5070398 6.38882,13.631834 15.05085,0 21.29813,39.150212 16.78206,22.984575 24.90891,81.867715 26.79012,124.167465 2.28814,51.44995 -0.48025,105.28704 -19.04985,153.32351 -9.10428,23.55127 -20.89836,39.51363 -43.65115,61.9074 -15.30541,15.06391 -23.49776,28.77027 -57.64032,36.20441 -19.11205,4.16143 -53.18491,12.24568 -80.28276,14.59652 -42.17442,3.65879 -85.2254,6.01863 -126.99558,-0.8604 -32.26586,-5.31378 -80.08721,-16.21393 -93.13156,-30.82869 z m 55.2999,-119.57423 c 1.24833,-1.24879 2.12534,-10.1057 2.18745,-22.09111 0.0671,-12.93247 0.84403,-20.25334 2.19749,-20.70446 1.1516,-0.38383 6.0228,2.30094 10.82488,5.96615 10.48802,8.00506 27.92693,16.29801 50.84263,24.17789 16.49864,5.67326 18.11504,5.85753 63.02798,7.18568 25.35228,0.74971 57.52478,2.69657 71.49441,4.32635 32.22837,3.76002 43.79391,3.66778 55.37165,-0.44157 11.66075,-4.13881 12.88621,-7.22754 3.5439,-8.93232 -3.94687,-0.72023 -13.89692,-3.76922 -22.11117,-6.77554 -13.84038,-5.06543 -15.5939,-5.2972 -23.92492,-3.1622 -8.13293,2.08424 -10.74471,1.81636 -27.39723,-2.80998 -11.09725,-3.08299 -29.24123,-6.14559 -45.68805,-7.71184 -39.54834,-3.76626 -59.90381,-10.00146 -66.74782,-20.44592 -4.17399,-6.36979 -16.43623,-12.55994 -27.46843,-13.86642 -8.87768,-1.05136 -9.92631,-1.70189 -12.43994,-7.71739 -1.92624,-4.60976 -2.35435,-9.43405 -1.4353,-16.17356 1.69459,-12.42641 11.58767,-53.03271 14.03427,-57.60385 1.03788,-1.93914 7.01662,-6.25951 13.28608,-9.60083 15.95119,-8.50122 20.58514,-18.98914 14.0087,-31.70559 -5.93435,-11.47482 -19.37207,-16.14816 -32.30024,-11.23328 -8.18452,3.1115 -20.56297,14.14557 -23.31094,20.77923 -2.24036,5.40827 -2.0755,6.75215 1.61488,13.1638 2.26048,3.92736 4.10996,8.38949 4.10996,9.91583 0,5.17996 -9.56636,14.17256 -22.5181,21.16753 -7.41047,4.00224 -13.77637,8.87953 -14.94924,11.45349 -3.49366,7.66716 -2.26912,21.85482 3.63875,42.15893 4.69879,16.14875 5.88791,24.31459 6.8749,47.2113 l 1.19341,27.68525 -5.11594,1.94492 c -2.81378,1.06972 -8.65907,1.95649 -12.98955,1.97062 -4.330493,0.0151 -9.990221,0.63648 -12.577192,1.383 -4.287203,1.23716 -4.03738,1.47044 2.822151,2.63522 10.005168,1.69893 27.296141,0.45601 29.900571,-2.14933 z"
         id="path1047"
         inkscape:connector-curvature="0" />
      <path
         style="opacity:1;fill:#006680;fill-opacity:1;stroke-width:1.88135588"
         d="m 315.14078,315.06546 c -11.3822,-1.38735 -41.86017,-3.32362 -67.72881,-4.30281 -30.64067,-1.15984 -50.31255,-2.73541 -56.44068,-4.5205 -26.22145,-7.63814 -53.35739,-21.83041 -63.27632,-33.09392 -6.42197,-7.29251 -7.27364,-9.38717 -7.26696,-17.87288 0.01,-12.20843 4.82439,-42.49988 8.70479,-54.76479 1.63687,-5.17373 6.36337,-15.11104 10.50333,-22.08292 l 7.52719,-12.67614 -3.96466,-7.60637 c -5.75883,-11.04857 -5.10759,-15.42687 3.4438,-23.15254 9.69955,-8.76296 20.386,-12.08913 28.30364,-8.80953 12.61698,5.22612 17.41549,20.01132 8.9701,27.63874 -2.32817,2.10269 -8.64814,6.17844 -14.04436,9.05724 -9.09465,4.85184 -10.08231,6.07384 -13.52128,16.72946 -2.04049,6.3224 -4.94091,16.57494 -6.44539,22.78342 -10.68625,44.0986 -7.26826,59.26271 13.35782,59.26271 10.59532,0 17.34871,3.6502 23.69413,12.80664 4.29927,6.20385 7.24024,8.08564 17.88922,11.44651 16.85329,5.31899 36.86034,8.94874 57.61647,10.45299 9.31272,0.67491 25.67567,3.40416 36.36213,6.06498 14.5345,3.61894 21.64471,4.50716 28.22035,3.52532 13.51953,-2.01866 15.50098,-1.74393 27.60396,3.82738 l 11.28814,5.1962 -7.52542,1.45192 c -9.98304,1.92605 -18.50056,1.65813 -43.27119,-1.36111 z"
         id="path1053"
         inkscape:connector-curvature="0" />
      <path
         style="opacity:1;fill:#006680;fill-opacity:1;stroke-width:1.88135588"
         d="m 112.85861,238.13768 c -4.05276,-10.48137 -6.10857,-26.0374 -4.11287,-31.1215 1.85582,-4.72776 16.5138,-16.40381 18.32251,-14.5951 1.16664,1.16664 -8.0553,44.26331 -10.34834,48.36063 -1.38366,2.4724 -2.06278,2.00737 -3.8613,-2.64403 z"
         id="path1055"
         inkscape:connector-curvature="0" />
      <path
         style="opacity:0.40900005;fill:#e6fff0;fill-opacity:1;stroke-width:1.88135588"
         d="M 248.35265,407.42197 C 199.85776,393.98583 110.9845,362.32132 83.733996,348.77023 c -45.02574,-22.39034 -50.6849,-35.04526 -37.7165,-84.34092 9.01454,-34.26619 18.83479,-58.9935 33.97721,-85.55434 27.422704,-48.1013 65.724964,-91.204155 103.234504,-116.173355 20.00441,-13.31645 31.35492,-17.30565 49.38964,-17.35826 14.2077,-0.0414 15.95538,0.39504 24.30317,6.06975 6.8281,4.64165 11.38361,10.19281 18.91299,23.04661 22.78911,38.904415 30.1549,49.124475 48.79691,67.705885 12.78015,12.73861 24.35201,22.15305 35.74577,29.08142 42.03884,25.56324 48.28851,31.1083 52.88613,46.92356 3.91209,13.45714 2.51827,44.08886 -2.95322,64.90217 -5.07473,19.30401 -16.12946,44.18096 -26.4401,59.49931 -10.75558,15.97936 -37.71327,42.55379 -51.16741,50.43995 -25.19041,14.76541 -60.99239,20.8816 -84.35044,14.40996 z"
         id="path1061"
         inkscape:connector-curvature="0" />
    </g>
  </g>
</svg>
