<?xml version="1.0" encoding="UTF-8" standalone="no"?>
<!-- Created with Inkscape (http://www.inkscape.org/) -->

<svg
   xmlns:dc="http://purl.org/dc/elements/1.1/"
   xmlns:cc="http://creativecommons.org/ns#"
   xmlns:rdf="http://www.w3.org/1999/02/22-rdf-syntax-ns#"
   xmlns:svg="http://www.w3.org/2000/svg"
   xmlns="http://www.w3.org/2000/svg"
   xmlns:sodipodi="http://sodipodi.sourceforge.net/DTD/sodipodi-0.dtd"
   xmlns:inkscape="http://www.inkscape.org/namespaces/inkscape"
   version="1.1"
   id="svg6022"
   width="444"
   height="438.66666"
   viewBox="0 0 444 438.66666"
   sodipodi:docname="green1.svg"
   inkscape:version="0.92.3 (2405546, 2018-03-11)">
  <metadata
     id="metadata6028">
    <rdf:RDF>
      <cc:Work
         rdf:about="">
        <dc:format>image/svg+xml</dc:format>
        <dc:type
           rdf:resource="http://purl.org/dc/dcmitype/StillImage" />
        <dc:title />
      </cc:Work>
    </rdf:RDF>
  </metadata>
  <defs
     id="defs6026" />
  <sodipodi:namedview
     pagecolor="#ffffff"
     bordercolor="#666666"
     borderopacity="1"
     objecttolerance="10"
     gridtolerance="10"
     guidetolerance="10"
     inkscape:pageopacity="0"
     inkscape:pageshadow="2"
     inkscape:window-width="1366"
     inkscape:window-height="705"
     id="namedview6024"
     showgrid="false"
     inkscape:zoom="0.90704465"
     inkscape:cx="119.95388"
     inkscape:cy="206.80406"
     inkscape:window-x="-8"
     inkscape:window-y="-8"
     inkscape:window-maximized="1"
     inkscape:current-layer="svg6022" />
  <g
     id="g4361"
     transform="matrix(0.84654293,0,0,0.8971992,37.307328,18.010685)">
    <path
       inkscape:connector-curvature="0"
       id="path6619"
       d="M -39.863906,223.01284 C -40.41186,153.69716 -27.188075,71.988154 26.555123,24.727758 74.141883,-17.118824 151.26003,-17.666528 216.30659,-18.280366 c 70.96992,-0.669737 156.76468,-3.34838 207.98415,43.008124 52.9229,47.898205 56.71217,131.552552 56.00036,200.742692 -0.66304,64.4492 -7.9949,140.14457 -56.00036,185.99704 -49.23848,47.03019 -131.40943,56.76412 -201.47248,56.52496 C 154.41784,467.75897 75.517391,456.53447 26.555123,411.46749 -23.667692,365.24024 -39.340593,289.2115 -39.863906,223.01284 Z m 307.060846,95.76227 c 23.20333,-5.875 48.23948,-16.92137 54.62836,-24.10297 6.05687,-6.8084 6.29583,-18.00155 0.48069,-22.51606 -1.67843,-1.30302 -5.23306,-2.95267 -7.89918,-3.66587 -7.69869,-2.05945 -26.64721,-0.66398 -40.47859,2.98105 -13.7352,3.61969 -17.05032,3.31781 -19.73008,-1.79667 -2.2321,-4.2601 -4.38624,-16.30121 -3.13687,-17.53428 0.48771,-0.48134 5.11204,0.18699 10.2763,1.48516 13.10274,3.29373 33.85665,4.25358 39.69791,1.83604 5.70425,-2.36085 7.38843,-6.37559 5.60576,-13.36292 -3.77376,-14.7914 -24.24758,-44.89494 -34.99028,-51.44768 -2.38334,-1.45375 -10.40212,-4.7728 -17.81953,-7.37561 -7.4174,-2.60284 -14.0508,-5.61584 -14.74088,-6.69556 -1.00285,-1.56912 -0.51926,-2.72786 2.40934,-5.77301 6.85195,-7.12465 8.04605,-10.70638 8.04605,-24.13401 0,-10.28372 -0.39796,-12.92241 -2.53988,-16.84002 -5.02081,-9.18325 -11.61571,-13.35588 -21.10917,-13.35588 -7.23035,0 -12.23146,2.32747 -17.12489,7.96975 -5.28985,6.09937 -6.88372,11.46104 -6.88372,23.15633 0,11.08924 0.92975,13.87396 7.39257,22.14168 l 4.87587,6.23761 -2.72038,2.17409 c -1.4962,1.19575 -6.06797,3.19457 -10.15948,4.44182 -17.62452,5.37264 -27.14343,13.21786 -37.8793,31.21905 -12.4155,20.81752 -15.09468,31.88712 -9.06835,37.46772 2.87008,2.65779 3.77668,2.80611 16.18008,2.64711 7.31384,-0.0938 16.69372,-0.99489 21.15559,-2.03243 12.28362,-2.85633 11.80739,-3.11958 11.135,6.15528 -0.65369,9.01704 -4.26956,16.36975 -8.05019,16.36975 -1.23184,0 -6.8811,-1.3849 -12.5539,-3.07758 -8.82325,-2.6327 -12.61054,-3.09437 -26.20009,-3.19379 -23.97125,-0.17537 -30.5996,3.06393 -30.59064,14.9498 0.009,12.7098 10.50847,20.76108 39.6016,30.36925 23.16775,7.65126 30.21071,8.55088 63.3581,8.09287 24.91112,-0.3442 30.86063,-0.77166 38.83218,-2.79002 z"
       style="fill:#008080;fill-opacity:1;stroke-width:1.16903126"
       sodipodi:nodetypes="aaaaaaaaassccsscscccsccscssssccsssccssssssss" />
    <g
       transform="matrix(0.89530324,0,0,0.88362283,458.62506,-18.007978)"
       id="g6639">
      <path
         inkscape:connector-curvature="0"
         id="path6628"
         d="m -293.32309,375.11113 c -19.75717,-3.54577 -43.95159,-11.62527 -56.05773,-18.71994 -11.52051,-6.75147 -15.47708,-15.40768 -8.9864,-19.66054 5.36459,-3.51501 30.01151,-1.88234 50.35363,3.33555 16.01046,4.10679 16.24378,4.12688 20.31494,1.7492 8.07298,-4.71488 13.65366,-21.52997 11.52467,-34.7249 l -1.13432,-7.03022 6.35411,-5.60369 c 3.49476,-3.08202 7.63595,-7.67774 9.20264,-10.21269 l 2.84852,-4.60901 3.73176,5.15156 c 2.05247,2.83335 6.13702,7.08446 9.07677,9.44691 l 5.345,4.29536 0.007,11.93767 c 0.01,15.54134 1.53,20.70426 7.56148,25.6759 6.84706,5.64394 11.44176,6.10177 27.68377,2.75851 7.71933,-1.58894 20.56497,-3.22312 28.54585,-3.6315 12.57315,-0.64336 14.81075,-0.44245 16.75783,1.50463 2.91759,2.9176 2.83116,5.6856 -0.33996,10.88648 -4.33385,7.10783 -36.23041,20.66663 -61.16629,26.00096 -13.19238,2.82213 -58.82951,3.74589 -71.62363,1.44976 z"
         style="fill:#008080;fill-opacity:1;stroke-width:1.31433964" />
      <path
         inkscape:connector-curvature="0"
         id="path6630"
         d="m -200.76508,303.26347 c -15.51464,-2.66172 -37.27804,-13.32805 -42.92703,-21.03871 -1.36105,-1.85778 -3.94617,-9.25094 -5.74472,-16.42925 -3.85629,-15.39109 -6.9916,-24.22335 -8.59891,-24.22335 -1.95833,0 -4.92656,7.92069 -8.30258,22.15528 -3.34146,14.08892 -6.54813,19.99743 -13.50977,24.89268 -9.91589,6.97259 -20.80372,10.22486 -38.82455,11.59712 -9.56657,0.7285 -11.16227,0.523 -14.02452,-1.806 l -3.22974,-2.62802 2.51195,-5.74751 c 4.03355,-9.22905 17.91075,-31.14645 24.17184,-38.17655 6.46461,-7.25863 12.0252,-10.48775 24.87155,-14.4433 12.05729,-3.71259 15.64402,-5.7601 17.97019,-10.25841 3.54,-6.84561 2.6017,-12.57897 -3.07704,-18.80173 -7.16507,-7.8515 -8.07631,-10.14627 -8.04374,-20.25649 0.0412,-12.77806 3.29236,-19.42146 11.22096,-22.92865 9.47379,-4.19071 17.32947,-1.11689 21.68994,8.48697 5.00372,11.02062 2.34398,26.50889 -6.02476,35.08349 -5.45442,5.58859 -6.89447,11.29556 -4.1765,16.55153 3.25978,6.30373 6.59963,8.34453 19.15499,11.70456 15.663,4.1917 20.32152,6.73335 29.27595,15.97274 12.94371,13.35561 29.91857,41.78148 27.97493,46.84648 -1.37276,3.57737 -12.02578,5.21981 -22.35844,3.44712 z"
         style="fill:#008080;fill-opacity:1;stroke-width:1.31433964" />
    </g>
    <path
       sodipodi:nodetypes="sssss"
       inkscape:connector-curvature="0"
       id="path6647"
       d="M 391.41974,202.77492 C 444.1903,225.65597 388.27251,342.52358 318.28659,376.71604 224.97929,422.30242 13.14001,301.15111 48.392383,203.9155 86.60074,98.526479 193.79234,52.630595 274.40671,45.373646 393.03517,34.694648 290.59728,159.05881 391.41974,202.77492 Z"
       style="fill:#80ffb3;fill-opacity:0.25252524;stroke-width:1.02752793" />
  </g>
</svg>
