<?xml version="1.0" encoding="UTF-8" standalone="no"?>
<!-- Created with Inkscape (http://www.inkscape.org/) -->

<svg
   xmlns:dc="http://purl.org/dc/elements/1.1/"
   xmlns:cc="http://creativecommons.org/ns#"
   xmlns:rdf="http://www.w3.org/1999/02/22-rdf-syntax-ns#"
   xmlns:svg="http://www.w3.org/2000/svg"
   xmlns="http://www.w3.org/2000/svg"
   xmlns:sodipodi="http://sodipodi.sourceforge.net/DTD/sodipodi-0.dtd"
   xmlns:inkscape="http://www.inkscape.org/namespaces/inkscape"
   version="1.1"
   id="svg845"
   width="353.06668"
   height="354.13333"
   viewBox="0 0 353.06668 354.13333"
   sodipodi:docname="kids.svg"
   inkscape:version="0.92.3 (2405546, 2018-03-11)">
  <metadata
     id="metadata851">
    <rdf:RDF>
      <cc:Work
         rdf:about="">
        <dc:format>image/svg+xml</dc:format>
        <dc:type
           rdf:resource="http://purl.org/dc/dcmitype/StillImage" />
        <dc:title></dc:title>
      </cc:Work>
    </rdf:RDF>
  </metadata>
  <defs
     id="defs849" />
  <sodipodi:namedview
     pagecolor="#ffffff"
     bordercolor="#666666"
     borderopacity="1"
     objecttolerance="10"
     gridtolerance="10"
     guidetolerance="10"
     inkscape:pageopacity="0"
     inkscape:pageshadow="2"
     inkscape:window-width="1366"
     inkscape:window-height="705"
     id="namedview847"
     showgrid="false"
     inkscape:zoom="0.94245407"
     inkscape:cx="176.53334"
     inkscape:cy="177.06667"
     inkscape:window-x="-8"
     inkscape:window-y="-8"
     inkscape:window-maximized="1"
     inkscape:current-layer="svg845" />
  <g
     id="g1414"
     transform="translate(-3.9925072e-6,-2.1221193)">
    <path
       style="fill:#dbfce9;stroke-width:1.076069"
       d="M 155.91887,353.30001 C 100.39235,344.7682 55.632917,315.36356 27.750459,269.09999 11.345912,241.88098 3.1751595,211.83393 3.1751595,178.72699 3.1751595,94.772197 59.622464,24.993371 142.46865,6.5356756 c 9.93876,-2.2143052 14.26783,-2.5256299 35.11974,-2.5256299 20.8519,0 25.18098,0.3113247 35.11974,2.5256299 64.00445,14.2598544 113.46234,59.6653114 132.24556,121.4097344 4.77596,15.69957 6.24764,30.52253 5.73357,57.7494 -0.40986,21.70797 -0.74409,25.36189 -3.18626,34.83318 -17.15543,66.53234 -67.59297,115.39942 -134.50144,130.31347 -8.49081,1.89262 -14.83388,2.4142 -32.24002,2.651 -11.91824,0.16214 -23.09654,0.0756 -24.84067,-0.19245 z"
       id="path1428"
       inkscape:connector-curvature="0" />
    <path
       style="fill:#a2dcce;stroke-width:1.076069"
       d="M 151.62538,352.37444 C 93.040616,343.12103 43.640948,305.71751 19.177619,252.0901 12.91951,238.37135 9.2462669,227.17041 6.1129529,212.25161 c -1.9718512,-9.38868 -2.324611,-14.47605 -2.324611,-33.52462 0,-24.2459 1.370207,-34.15084 7.3653231,-53.24236 C 15.173268,112.68416 26.493006,89.781177 34.617791,78.010169 60.154584,41.013032 100.82861,14.773973 146.40542,5.8952969 c 13.30906,-2.5926961 49.05688,-2.5926961 62.36594,0 36.70223,7.1498471 68.40612,24.2676471 94.00147,50.7539821 13.48108,13.950352 23.09266,27.867999 31.73002,45.945311 13.50165,28.2579 15.91062,40.15455 15.85978,78.32326 -0.0358,26.87509 -0.14563,28.34853 -2.89869,38.88778 -17.97498,68.81138 -70.13492,118.50707 -138.14984,131.62305 -12.37852,2.38706 -45.16097,2.92451 -57.68872,0.94576 z m 27.65764,-110.18499 c 0.83515,-6.52427 2.56236,-8.69094 6.92821,-8.69094 2.82147,0 3.44243,0.62756 5.41954,5.47715 1.22812,3.01243 2.59631,5.47715 3.04043,5.47715 0.44412,0 0.52957,-3.08418 0.1899,-6.85375 l -0.61758,-6.85373 3.85384,-1.90449 3.85383,-1.9045 3.39057,4.9849 c 4.03053,5.92579 4.81112,4.99869 2.00653,-2.38314 l -2.03292,-5.35075 4.65429,-8.21573 c 2.55986,-4.51865 5.60482,-10.8441 6.76658,-14.05657 2.554,-7.06226 4.17779,-22.60248 3.22412,-30.85607 -1.42601,-12.34154 -11.75194,-25.49993 -25.18589,-32.09452 -6.55607,-3.21831 -8.01417,-3.50696 -17.71461,-3.50696 -9.36173,0 -11.29576,0.35068 -16.91279,3.06666 -8.00508,3.87066 -15.59945,11.47618 -19.90814,19.93737 -3.17069,6.22643 -3.34696,7.20721 -3.34696,18.62232 0,10.79791 0.29605,12.70439 2.84969,18.35135 3.74193,8.2747 12.01027,17.19698 19.59608,21.14595 5.55128,2.88986 7.08399,3.175 17.1936,3.19858 9.43023,0.022 11.74981,-0.33498 15.4273,-2.37429 8.36057,-4.63622 14.96575,-15.12419 17.96475,-28.52512 2.04872,-9.15468 1.35348,-15.07995 -2.8222,-24.05243 -3.57,-7.67102 -7.04574,-11.11302 -15.89853,-15.74415 -5.19242,-2.7163 -7.40409,-3.21966 -14.1466,-3.21966 -9.77719,0 -13.64234,1.56894 -20.68635,8.39704 -7.92253,7.67966 -9.43577,11.4263 -9.43577,23.36199 0,11.63326 1.24967,15.42403 7.343,22.27454 6.28401,7.06488 13.27647,9.89449 22.8737,9.25621 8.81103,-0.58599 13.49624,-3.05824 17.69098,-9.33506 4.55085,-6.80966 5.55328,-13.76897 3.41677,-23.72085 -2.88629,-13.44433 -9.24835,-19.30571 -20.90031,-19.25551 -7.19961,0.031 -13.47897,3.02369 -17.33373,8.26103 -2.75419,3.74205 -3.04843,4.96171 -3.04843,12.63635 0,6.84317 0.42302,9.09577 2.17598,11.58729 2.64485,3.75918 10.36974,8.0222 14.53678,8.0222 10.69494,0 18.52283,-13.38517 12.96687,-22.17251 -1.95961,-3.09935 -7.58605,-6.30868 -11.06007,-6.30868 -2.89499,0 -8.33297,5.27313 -9.14098,8.86386 -0.77343,3.43712 3.80582,9.75845 7.06915,9.75845 3.10123,0 6.17884,-2.02231 6.17884,-4.06014 0,-2.30026 -3.042,-5.79873 -5.04213,-5.79873 -1.30874,0 -1.28384,0.41038 0.16383,2.70004 2.16343,3.42168 2.14066,3.87254 -0.19554,3.87254 -4.70603,0 -6.19438,-7.36549 -2.09031,-10.34447 3.43782,-2.49537 5.88492,-2.10404 9.35956,1.49677 4.21912,4.3723 4.22058,9.69314 0.004,14.58143 -2.71969,3.15294 -3.70334,3.56837 -8.28984,3.50108 -9.7189,-0.1426 -14.65603,-6.41804 -13.76911,-17.50149 0.8272,-10.33716 5.83436,-14.86308 17.21691,-15.56219 10.65289,-0.65429 16.22325,4.72653 18.41879,17.79211 1.92515,11.45637 -0.99004,19.85627 -8.68581,25.02747 -7.69523,5.17087 -20.32527,3.65194 -28.27583,-3.40054 -6.72436,-5.9646 -8.41215,-10.46949 -8.41215,-22.45236 0,-9.48098 0.2328,-10.61616 3.1569,-15.39443 10.20706,-16.67923 33.15606,-17.38622 47.32385,-1.45791 5.4437,6.12016 6.08711,8.42407 6.0108,21.52367 -0.0536,9.209 -0.4295,11.2304 -3.26603,17.56514 -5.86111,13.08944 -14.6187,18.23533 -29.36499,17.25461 -9.88555,-0.65745 -17.56424,-4.36784 -24.15835,-11.67345 -7.7918,-8.63251 -9.56143,-13.19704 -10.06392,-25.95853 -0.41899,-10.64077 -0.31606,-11.27055 2.9317,-17.93792 4.07653,-8.36878 12.03089,-16.87884 18.80965,-20.1237 4.0913,-1.95844 6.9338,-2.39564 15.57516,-2.39564 9.27159,0 11.31772,0.36288 16.65133,2.95316 7.84694,3.81086 16.96081,12.78372 20.41409,20.09824 5.40767,11.45421 4.18369,29.46465 -3.12704,46.0132 -11.66496,26.40475 -47.71398,30.12182 -69.33805,7.14954 -24.71375,-26.2546 -17.53905,-68.80149 14.35603,-85.13314 8.12241,-4.15902 8.43915,-4.22485 19.93385,-4.14339 13.16536,0.0933 19.88747,2.10399 29.92739,8.95169 7.27474,4.96171 11.85141,10.63552 17.24492,21.37893 l 4.40493,8.77425 -0.45218,15.57536 -0.45216,15.57536 -4.43334,9.57481 c -2.43834,5.26614 -4.43335,10.16683 -4.43335,10.89043 0,0.72359 1.90269,3.24101 4.2282,5.59426 4.68413,4.74 5.35448,4.33798 2.03837,-1.22242 -1.20442,-2.01955 -2.03684,-4.78892 -1.84984,-6.15418 0.28482,-2.07943 0.94041,-2.45481 4.03967,-2.31303 2.03482,0.0931 5.1267,0.51464 6.87083,0.9368 3.167,0.76656 3.16532,0.7619 -1.2906,-3.57374 -4.18633,-4.07334 -4.39953,-4.56613 -3.45385,-7.98321 1.46415,-5.29058 2.22811,-5.70738 8.34831,-4.5546 6.84453,1.2892 6.85009,-0.63616 0.008,-3.10038 -4.56497,-1.64432 -4.66988,-1.79002 -4.66988,-6.48513 0,-5.23812 0.49359,-5.61806 9.27856,-7.1421 4.78705,-0.83048 4.21562,-2.77294 -0.81573,-2.77294 -1.96266,0 -4.81739,-0.49208 -6.34384,-1.0935 -2.41391,-0.95109 -2.73262,-1.62874 -2.44717,-5.20329 0.29593,-3.70588 0.82165,-4.35411 5.34917,-6.59564 2.76154,-1.36722 5.02098,-2.8775 5.02098,-3.3562 0,-0.47868 -2.84434,-0.65712 -6.32074,-0.39653 -6.06355,0.45452 -6.36465,0.35416 -7.39935,-2.46613 -1.62616,-4.4324 -1.43338,-4.98529 3.32563,-9.53831 2.42233,-2.31748 4.13327,-4.49439 3.80211,-4.83758 -0.33117,-0.3432 -2.59702,0.43068 -5.03525,1.71973 -5.20308,2.7508 -6.67169,2.38824 -9.44089,-2.33068 l -2.0537,-3.49965 2.92482,-4.479 c 5.50417,-8.42901 5.33346,-8.4612 -4.0759,-0.76872 l -2.60377,2.12868 -3.98558,-3.27126 -3.98557,-3.27123 1.68327,-4.02996 c 3.26594,-7.81912 2.9511,-8.62868 -1.46477,-3.76638 l -4.21879,4.6453 -4.09512,-1.49232 -4.09511,-1.49231 0.28106,-6.43927 c 0.30376,-6.95898 -0.19866,-6.87223 -4.27264,0.73768 -1.71276,3.19931 -2.21532,3.45017 -5.72824,2.8594 -4.38972,-0.73822 -5.23494,-1.77121 -6.17693,-7.54923 -0.88392,-5.42185 -2.17823,-5.25088 -2.90756,0.38408 -0.72812,5.62564 -1.53448,6.46345 -6.94453,7.21543 -4.31714,0.60008 -4.34409,0.58136 -6.43273,-4.46816 -1.15307,-2.78892 -2.39808,-5.07077 -2.76615,-5.07077 -0.36808,0 -0.5039,2.78613 -0.30182,6.19139 l 0.3674,6.19138 -3.69968,1.34952 c -3.59402,1.31097 -3.83202,1.22018 -8.33384,-3.17895 -4.82047,-4.71052 -5.07283,-4.28149 -2.06308,3.50726 1.34259,3.47437 1.26621,3.78401 -1.55383,6.29872 -3.76783,3.35989 -5.48799,3.32454 -9.95269,-0.20448 -4.8415,-3.82688 -5.51728,-2.60129 -1.47908,2.68246 1.81421,2.37381 3.29857,4.64769 3.29857,5.05305 0,0.40536 -1.22851,2.40617 -2.73004,4.44624 l -2.73003,3.70923 -5.33527,-2.17932 c -2.93439,-1.19863 -5.63017,-1.87226 -5.99062,-1.49698 -0.36045,0.37529 1.12841,2.16648 3.30858,3.98041 4.28519,3.56536 5.17627,7.52126 2.53677,11.26204 -1.21568,1.7229 -2.31216,1.91484 -7.39935,1.29523 -3.2847,-0.40007 -5.97218,-0.4495 -5.97218,-0.10984 0,0.33966 2.6162,1.81658 5.81377,3.28205 5.42258,2.48519 5.81378,2.91813 5.81378,6.43406 0,5.11178 -2.3128,7.21235 -7.941,7.21235 -5.85755,0 -7.14464,1.87481 -1.86609,2.7182 8.70043,1.39014 9.27856,1.82785 9.27856,7.02496 0,4.61636 -0.14448,4.82165 -4.75672,6.75885 l -4.75673,1.99789 6.13198,0.0612 c 5.97781,0.0597 6.17048,0.15671 7.66361,3.86002 2.15478,5.34436 2.07874,5.56471 -3.22509,9.34634 -2.6162,1.86535 -4.75672,3.82734 -4.75672,4.35998 0,0.53264 2.89122,-0.10724 6.42494,-1.42191 l 6.42494,-2.39035 2.55473,3.28629 c 1.4051,1.80746 2.55709,3.58662 2.55998,3.9537 0.003,0.36708 -1.64917,2.8318 -3.67125,5.47715 -3.79453,4.96417 -3.22713,7.26074 0.84517,3.42087 3.9559,-3.73008 6.8235,-4.84398 9.14941,-3.554 4.00852,2.22319 4.51883,4.9904 2.02717,10.99269 -1.26002,3.03539 -2.03866,5.78034 -1.73029,6.0999 0.30836,0.31957 2.11865,-1.66722 4.02287,-4.41506 3.85104,-5.55718 7.47655,-6.53919 11.36775,-3.07908 1.88999,1.68061 2.04885,2.59242 1.2883,7.39416 -0.47715,3.01243 -0.68487,5.67861 -0.4616,5.92483 0.22327,0.24623 1.48001,-2.08363 2.79275,-5.17748 l 2.3868,-5.62515 5.54951,-0.0258 5.54951,-0.0258 v 6.57258 c 0,8.00537 1.77349,8.66467 2.75168,1.02293 z"
       id="path1426"
       inkscape:connector-curvature="0" />
    <path
       style="fill:#70c7b3;stroke-width:1.076069"
       d="M 156.44739,352.80151 C 100.11746,345.28755 51.715201,312.2 24.408402,262.54031 10.989409,238.13675 3.1751595,207.29181 3.1751595,178.72699 3.1751595,82.348697 81.680588,3.4581441 177.58839,3.4581441 c 63.43957,0 122.17287,35.0664979 153.17998,91.4555319 15.32513,27.870034 20.98943,54.480314 19.88811,93.432294 -0.4527,16.01162 -1.03211,21.39386 -3.30934,30.74141 -19.50349,80.05788 -90.17898,135.65614 -171.3166,134.76956 -6.99177,-0.0764 -15.80419,-0.55134 -19.58315,-1.05543 z m 22.61348,-106.79515 c 0.3529,-0.953 0.64162,-3.17125 0.64162,-4.92944 0,-5.28441 5.36623,-9.23399 9.15325,-6.73687 0.67395,0.4444 2.0337,2.90158 3.02166,5.46038 0.98795,2.5588 2.23913,4.65238 2.78038,4.65238 0.54124,0 0.84635,-3.04004 0.67801,-6.75564 -0.29717,-6.55887 -0.20846,-6.81558 3.04535,-8.81345 l 3.35143,-2.05781 3.30591,4.97945 c 1.81826,2.73869 3.73945,4.97944 4.2693,4.97944 0.52987,0 -0.0318,-2.86641 -1.24819,-6.36981 l -2.2116,-6.36979 4.93039,-8.69238 c 7.19009,-12.67627 9.50333,-21.39913 9.5677,-36.07811 0.0489,-11.17337 -0.17332,-12.52776 -3.05661,-18.62232 -4.14309,-8.75743 -12.08174,-16.79025 -21.18048,-21.43169 -7.05177,-3.59724 -7.89092,-3.7632 -19.0269,-3.7632 -10.43556,0 -12.2817,0.30691 -17.71279,2.9447 -16.16467,7.8509 -26.1053,27.31547 -23.20699,45.44124 2.32866,14.56329 11.20108,27.18642 23.20699,33.01749 5.42889,2.63672 7.27913,2.9447 17.69056,2.9447 13.07316,0 15.66213,-0.92396 22.25824,-7.9436 4.7945,-5.10235 8.23865,-12.016 10.54294,-21.16352 4.41271,-17.51741 -2.45665,-33.5985 -17.73114,-41.50839 -5.62001,-2.91032 -7.52994,-3.32604 -15.28098,-3.32604 -10.40821,0 -14.87265,1.88074 -22.00174,9.26868 -7.18002,7.44072 -8.32346,10.51712 -8.3623,22.4988 -0.0402,12.37584 1.57398,16.40978 9.72908,24.31491 6.40677,6.21037 11.23907,7.83522 21.67748,7.28896 6.99203,-0.36591 8.50661,-0.83671 12.03971,-3.74255 2.22283,-1.8282 5.39003,-6.01046 7.03823,-9.29393 2.71978,-5.41824 2.94625,-6.71563 2.45059,-14.03902 -1.02514,-15.14663 -7.59747,-24.03367 -19.09127,-25.81499 -6.13198,-0.95035 -14.21547,1.79581 -18.23379,6.19444 -4.78794,5.24111 -5.64752,7.58596 -5.64752,15.40589 0,7.64819 2.1121,12.24357 7.54286,16.41133 3.56013,2.73218 11.52827,3.69326 15.71613,1.89561 4.21345,-1.80864 8.20568,-6.83202 9.02455,-11.35551 1.90567,-10.52694 -10.72201,-20.32588 -18.15391,-14.08722 -4.91093,4.12244 -5.73348,8.69181 -2.4301,13.49942 3.60206,5.24231 11.55557,4.03926 11.55557,-1.7479 0,-2.82155 -1.89844,-4.92944 -4.43961,-4.92944 -2.36495,0 -2.40297,0.89776 -0.14742,3.48061 2.28648,2.61827 1.07828,3.78334 -2.27932,2.19797 -5.26666,-2.48678 -2.43941,-10.42544 3.71287,-10.42544 7.84559,0 11.15242,10.26812 5.372,16.68074 -2.63406,2.92217 -3.80699,3.40215 -8.31384,3.40215 -11.46585,0 -17.2752,-11.56233 -11.93438,-23.75296 2.44196,-5.57387 6.65225,-8.06906 14.76569,-8.75078 11.9634,-1.00519 18.1477,6.22476 18.86292,22.05228 0.46231,10.23084 -1.09671,14.26881 -7.61958,19.73517 -3.6305,3.04247 -4.61647,3.31373 -12.0448,3.31373 -6.93919,0 -8.80036,-0.43236 -13.07787,-3.03813 -2.74913,-1.6747 -6.54226,-5.36168 -8.45227,-8.21572 -3.12113,-4.66376 -3.50311,-6.09226 -3.84896,-14.39392 -0.4743,-11.38485 0.76168,-15.86437 5.89091,-21.35026 11.16195,-11.9381 27.85121,-12.42091 41.07876,-1.18837 5.73035,4.86608 8.44823,10.09007 9.41305,18.09264 1.45813,12.09416 -3.87632,29.11914 -11.09669,35.41528 -11.62971,10.14106 -34.9916,6.86718 -46.34057,-6.49405 -6.53435,-7.69295 -8.71573,-13.57445 -9.39211,-25.32324 -0.57167,-9.92975 -0.49211,-10.40706 2.88263,-17.29727 4.38044,-8.9435 11.55872,-16.55324 19.03874,-20.18305 4.98139,-2.41732 7.17586,-2.8051 15.32722,-2.70843 5.95299,0.0705 11.23713,0.78086 14.11906,1.89783 10.14922,3.93357 21.42945,15.58384 24.54596,25.3512 1.79454,5.62422 1.79247,19.10613 -0.004,26.83805 -5.13264,22.08915 -16.59185,34.18874 -34.64182,36.57773 -31.15382,4.12332 -58.62052,-27.20119 -53.17699,-60.64591 2.62307,-16.11595 13.80759,-31.76265 27.76183,-38.83772 20.51804,-10.40302 48.77531,-2.64994 62.1027,17.0394 7.56453,11.17556 9.4858,16.7096 9.45834,27.24418 -0.0419,16.0707 -1.44436,23.48112 -6.25031,33.025 l -4.35227,8.64292 2.84519,3.86568 c 2.55289,3.46854 5.55848,5.95163 7.20399,5.95163 0.32873,0 -0.67806,-2.36796 -2.23732,-5.26215 -4.48539,-8.32542 -2.23529,-10.73535 6.90351,-7.39392 5.56527,2.03483 6.48108,0.51703 1.70365,-2.8235 -4.21242,-2.94546 -5.37274,-6.05215 -3.91791,-10.4899 1.07711,-3.28556 1.85814,-3.44973 9.63583,-2.02537 5.94795,1.08927 5.65387,-1.44701 -0.4104,-3.53955 -5.50374,-1.89916 -6.85074,-3.23727 -6.85074,-6.80568 0,-3.90986 1.55963,-5.14639 7.87507,-6.24363 7.12512,-1.23791 7.29969,-3.20961 0.36968,-4.17532 -6.78625,-0.94567 -8.24475,-2.03552 -8.24475,-6.16081 0,-2.76192 0.74256,-3.53068 5.81378,-6.01897 7.58325,-3.72087 7.53741,-5.2986 -0.12687,-4.36511 -6.8523,0.8346 -8.85806,-0.26482 -8.85806,-4.85539 0,-2.18285 1.29801,-4.3562 4.49247,-7.52208 5.15742,-5.11129 3.61444,-6.01219 -3.68636,-2.15237 l -4.39492,2.32354 -2.42855,-3.14511 c -3.1414,-4.0683 -3.07276,-5.08213 0.73211,-10.81311 1.74414,-2.62705 3.17115,-5.08522 3.17115,-5.4626 0,-1.0794 -6.23476,3.01378 -8.65395,5.68141 l -2.18527,2.40967 -3.99775,-3.47819 c -3.85796,-3.35654 -3.94486,-3.58421 -2.48484,-6.5101 0.83212,-1.66755 1.96629,-4.26762 2.52039,-5.77792 1.57428,-4.29103 -1.48774,-3.50261 -4.22547,1.08799 -2.53593,4.25221 -6.26926,5.08011 -10.16304,2.25378 -1.87224,-1.35898 -2.10884,-2.43255 -1.68989,-7.66801 0.26794,-3.34828 0.19844,-6.08779 -0.15444,-6.08779 -0.3529,0 -1.87344,2.51916 -3.37901,5.59813 -2.58036,5.27699 -2.92428,5.5594 -5.9951,4.92293 -4.21483,-0.87357 -6.0983,-2.55246 -6.11625,-5.45189 -0.0208,-3.35023 -1.15326,-7.26003 -2.10294,-7.26003 -0.44755,0 -1.12889,2.17794 -1.51409,4.83987 -0.81154,5.60822 -1.84089,6.74304 -7.02721,7.74723 -3.75439,0.72694 -3.81003,0.68184 -6.29862,-5.10526 l -2.51077,-5.83869 -0.5722,7.08476 c -0.5568,6.89389 -0.66608,7.1125 -4.0564,8.11483 -3.20894,0.94869 -3.81435,0.69596 -7.66361,-3.19921 -4.47514,-4.52852 -5.13572,-3.89526 -2.57136,2.46497 1.56462,3.88061 1.5307,4.07211 -1.25481,7.08511 -3.50879,3.79537 -4.12829,3.81461 -9.14215,0.28391 -5.71573,-4.02498 -6.73834,-2.84531 -2.24711,2.59221 l 3.86125,4.6748 -2.49066,3.79027 c -2.80828,4.27366 -3.65144,4.4763 -8.996,2.16212 -6.57934,-2.84884 -7.6123,-1.89214 -2.74385,2.5413 4.81589,4.38555 5.48492,7.00486 2.80278,10.97319 -1.52966,2.26319 -2.23038,2.42992 -7.39935,1.76066 -7.09906,-0.91918 -7.58325,0.7813 -0.96794,3.39945 6.12866,2.42554 7.17074,3.83247 6.31988,8.53263 -0.6768,3.7386 -0.82736,3.83787 -6.93565,4.57255 -9.78122,1.17645 -9.35943,2.56451 1.31735,4.3353 4.70703,0.78066 6.44538,2.75615 5.99637,6.81432 -0.26764,2.41878 -1.30356,3.52976 -4.83311,5.1832 -2.47086,1.15749 -4.49246,2.55871 -4.49246,3.11382 0,0.55511 2.61352,0.84042 5.80782,0.63404 5.76046,-0.37218 5.82035,-0.34397 7.34433,3.45877 l 1.53652,3.834 -5.49451,5.16843 c -3.02196,2.84264 -5.01882,5.18387 -4.43744,5.20275 0.58138,0.0188 3.63528,-0.9812 6.78645,-2.22237 l 5.7294,-2.25668 3.17757,3.29294 3.17756,3.29294 -3.88598,5.16893 c -5.82052,7.74216 -5.20422,8.615 2.12154,3.00463 7.64036,-5.85131 14.01013,-0.12563 9.31971,8.37734 -0.83086,1.50621 -1.51774,3.72446 -1.52638,4.92943 -0.012,1.68607 1.03682,0.94405 4.55239,-3.2205 4.411,-5.22523 4.69202,-5.37367 8.1704,-4.31598 l 3.60229,1.09535 -0.25225,6.78072 c -0.13874,3.72939 0.1546,6.78071 0.65185,6.78071 0.49726,0 1.89251,-2.46472 3.10056,-5.47715 2.18072,-5.43791 2.23095,-5.47715 7.01175,-5.47715 h 4.81531 l 0.0145,4.10786 c 0.0263,7.47712 2.00784,11.52914 3.57215,7.30456 z"
       id="path1424"
       inkscape:connector-curvature="0" />
    <path
       style="fill:#54b3a7;stroke-width:1.076069"
       d="M 157.86213,352.79724 C 81.300009,343.54972 20.861305,286.74006 6.1516853,210.19625 c -3.3639116,-17.50465 -3.3639116,-45.43387 0,-62.93852 C 20.983467,70.078235 81.297129,13.820181 159.09002,4.6032739 223.46504,-3.0238838 290.09749,29.351004 324.82956,85.131598 c 11.00076,17.667512 20.30139,41.161992 23.49958,59.362662 2.70405,15.38854 3.29392,48.95691 1.10329,62.78661 -7.4006,46.72096 -35.21435,90.07616 -75.12398,117.10091 -33.23811,22.50715 -76.98346,33.18198 -116.44632,28.41546 z M 179.8993,241.74728 c 0.85432,-6.18929 1.59873,-7.16293 5.71189,-7.4708 2.65907,-0.19904 3.36777,0.39868 5.22618,4.40771 3.90044,8.41417 5.07661,8.40928 4.36462,-0.0182 l -0.62771,-7.42993 3.75208,-1.8542 c 3.53852,-1.74868 3.81034,-1.74628 4.77608,0.0421 1.88814,3.4964 6.01045,7.91596 6.70959,7.19337 0.38059,-0.39337 -0.36603,-3.26393 -1.65915,-6.37901 l -2.35113,-5.6638 2.31173,-4.02758 c 9.74736,-16.98213 12.76465,-27.13179 12.7956,-43.04203 0.0168,-8.63334 -0.30017,-10.09765 -3.71827,-17.17812 -11.00682,-22.80018 -38.74638,-32.51302 -59.73963,-20.91747 -25.10357,13.86588 -29.42231,50.74521 -8.25235,70.46991 9.35477,8.71613 20.91367,12.26367 33.95964,10.42256 10.75808,-1.51823 17.46506,-7.03674 23.23582,-19.11846 10.2686,-21.49845 4.315,-42.33954 -15.06425,-52.73364 -5.053,-2.71019 -6.99303,-3.119 -14.82546,-3.12405 -8.41584,-0.005 -9.37492,0.23574 -14.50523,3.64739 -6.55664,4.36015 -11.46023,9.91133 -14.1242,15.98948 -2.26964,5.17847 -2.68609,17.91457 -0.77605,23.73377 1.86941,5.69545 6.91308,12.42341 12.35947,16.48684 4.53562,3.38392 5.63752,3.69805 14.21697,4.05305 5.81626,0.24067 10.48268,-0.12272 12.4566,-0.97004 4.25913,-1.82825 11.26957,-10.27953 12.57883,-15.16415 2.78975,-10.40802 -0.58542,-26.05263 -6.8504,-31.75308 -9.08982,-8.27075 -24.71424,-6.82049 -31.91725,2.96259 -2.4598,3.34086 -3.01522,5.31072 -3.33299,11.82064 -0.49049,10.04809 1.50778,14.73646 7.94801,18.64771 3.90432,2.37117 5.60627,2.75204 10.44107,2.33654 6.19085,-0.53204 9.87755,-3.06581 12.73138,-8.74995 4.1263,-8.21856 -2.16949,-19.49828 -10.88297,-19.49828 -4.73412,0 -7.32845,1.52335 -9.29046,5.45522 -2.15579,4.32021 -2.00954,6.85036 0.5943,10.28079 2.38473,3.14177 7.94693,3.99202 10.28237,1.57179 2.01418,-2.08731 1.47693,-6.07795 -1.06685,-7.92438 -3.21249,-2.33181 -5.04691,-0.34016 -2.43816,2.64714 2.26856,2.59774 1.6227,3.80748 -1.48672,2.78476 -3.08154,-1.01356 -3.98179,-5.59284 -1.62913,-8.28687 3.52914,-4.04126 9.85414,-2.33226 12.09229,3.26729 1.68681,4.22019 0.82532,7.69869 -2.84996,11.5074 -2.61184,2.70668 -3.50223,2.97376 -8.48594,2.54546 -8.99469,-0.77299 -14.00538,-7.81236 -12.50095,-17.56219 1.39765,-9.05776 5.61859,-12.99709 15.55082,-14.5133 11.24308,-1.7163 18.5299,6.01858 19.68199,20.89223 1.23782,15.98062 -8.05636,26.01493 -22.32265,24.10025 -14.41828,-1.93508 -22.88077,-11.98054 -22.86778,-27.14539 0.008,-9.4208 1.57024,-14.47395 6.07037,-19.63594 5.96853,-6.84631 11.01427,-9.10351 20.34998,-9.10351 6.28242,0 8.91515,0.53655 12.6846,2.5851 7.61997,4.14117 12.35164,8.55708 14.81161,13.82322 1.99588,4.27264 2.24666,6.38086 1.93303,16.2509 -0.33135,10.42807 -0.65829,11.94566 -4.06004,18.84619 -4.59357,9.31812 -9.44889,13.14915 -18.82857,14.85642 -12.19911,2.22046 -23.85819,-1.59632 -32.62337,-10.67975 -6.67536,-6.91773 -9.51367,-14.10666 -10.39812,-26.33655 l -0.72604,-10.03918 3.94944,-7.78869 c 4.93231,-9.72699 13.08272,-17.73605 20.82493,-20.46373 7.94357,-2.79864 19.66498,-2.49711 27.75563,0.714 7.27783,2.88851 17.07885,11.84976 21.49087,19.64952 5.52845,9.77342 4.023,32.89487 -3.08146,47.32638 -3.17737,6.45429 -10.1637,13.83327 -16.24875,17.16198 -4.91188,2.68692 -6.31769,2.91439 -18.01229,2.91439 -12.04838,0 -13.03874,-0.17387 -19.74527,-3.46651 -17.88248,-8.77958 -28.35049,-26.25879 -28.35049,-47.33885 0,-21.2595 9.7666,-37.86224 27.96965,-47.54698 5.63136,-2.9961 7.66481,-3.45127 17.23861,-3.85858 6.1808,-0.26296 12.89684,0.0712 15.59842,0.77621 14.37293,3.75056 26.22033,13.57733 33.24935,27.57857 l 4.43273,8.82961 -0.37612,17.17725 -0.37611,17.17723 -4.47217,9.01298 c -2.4597,4.95714 -4.47217,9.26899 -4.47217,9.58186 0,1.39375 7.80048,9.33864 9.1689,9.33864 1.13472,0 0.76907,-1.39093 -1.43273,-5.45004 -2.73887,-5.04924 -2.82891,-5.58203 -1.22429,-7.24491 1.60462,-1.66288 2.13351,-1.65666 7.19197,0.0845 3.00301,1.03365 5.77797,1.54985 6.16659,1.14711 0.38862,-0.40273 -1.30704,-2.46561 -3.76815,-4.58417 -4.68294,-4.03116 -5.29656,-6.07969 -3.22941,-10.78131 0.81823,-1.86103 1.79878,-2.61236 2.85909,-2.1907 0.88757,0.35295 3.721,0.94106 6.29651,1.30689 6.19486,0.87992 5.62131,-1.67322 -0.94092,-4.18846 -5.71967,-2.19229 -7.09076,-4.18319 -5.70105,-8.27826 0.87926,-2.59095 1.89496,-3.21931 6.74429,-4.17236 3.14003,-0.61711 5.88619,-1.67243 6.10256,-2.34514 0.45796,-1.42376 -2.99858,-2.56121 -7.84797,-2.58256 -3.60937,-0.0159 -5.5867,-2.32681 -5.5867,-6.5293 0,-1.70636 1.45637,-2.94416 5.81378,-4.94117 3.19757,-1.46546 5.81377,-3.18456 5.81377,-3.82019 0,-0.69014 -2.72229,-1.15571 -6.75773,-1.15571 -5.18705,0 -6.90686,-0.40274 -7.39935,-1.73274 -1.28555,-3.47173 -0.55606,-5.39496 3.78492,-9.97871 2.43459,-2.57074 4.14674,-4.96403 3.80479,-5.31841 -0.34197,-0.35438 -3.11485,0.66488 -6.16194,2.26503 l -5.54018,2.90936 -2.45478,-3.10957 c -3.22811,-4.08914 -3.14853,-5.14633 0.81826,-10.87053 4.11317,-5.93545 3.28815,-7.30206 -1.85468,-3.07224 -6.90559,5.67966 -6.50141,5.60228 -10.05076,1.92405 l -3.2894,-3.40885 2.24682,-5.26376 c 2.85131,-6.67987 1.31273,-9.00914 -2.2033,-3.33559 -2.83014,4.56678 -5.5086,5.65553 -9.77646,3.97398 -2.84113,-1.11942 -2.97171,-1.46255 -2.49855,-6.56555 0.71972,-7.76231 -0.61306,-9.00843 -3.44499,-3.22096 -2.81678,5.75649 -3.86298,6.57331 -7.35163,5.73974 -3.36395,-0.80377 -5.28954,-3.29817 -5.31021,-6.87884 -0.0182,-3.15661 -1.63163,-6.38999 -2.65785,-5.32653 -0.37117,0.38466 -0.9344,2.70457 -1.2516,5.15534 -0.66938,5.17181 -1.5834,6.13993 -6.696,7.09237 -3.69041,0.6875 -3.79196,0.60603 -6.30791,-5.06046 l -2.55711,-5.75921 -0.34738,6.77815 c -0.342,6.67322 -0.405,6.79786 -4.06915,8.05105 -3.55547,1.21602 -3.89178,1.0967 -7.52679,-2.6703 -4.82914,-5.00447 -6.02009,-4.99713 -3.99539,0.0247 2.13691,5.30006 2.02246,6.92676 -0.69859,9.92836 -2.96736,3.27328 -3.87744,3.19942 -8.87663,-0.7205 -6.94703,-5.44724 -7.9753,-3.69878 -1.91381,3.25419 l 3.82402,4.3864 -2.82076,3.83248 c -3.22698,4.3844 -3.26901,4.39541 -8.3639,2.18933 -6.94245,-3.00607 -7.98798,-2.04131 -3.06993,2.83275 4.85483,4.81141 5.39872,6.84096 2.84554,10.61849 -1.47649,2.18451 -2.24229,2.36418 -7.39935,1.73606 -7.31611,-0.89108 -7.51228,0.73752 -0.46717,3.87828 5.17911,2.3089 5.28525,2.45152 5.28525,7.10195 v 4.74572 l -5.7866,0.61892 c -9.99922,1.06948 -10.15149,3.24935 -0.32483,4.64994 5.62314,0.80146 7.28383,2.68191 6.43453,7.28602 -0.36654,1.98708 -1.5961,3.34834 -3.86572,4.27981 -6.837,2.80591 -6.7477,3.70258 0.42673,4.285 6.60639,0.5363 6.76828,0.62511 7.76969,4.26223 0.90634,3.29187 0.72984,3.95572 -1.55128,5.83426 -9.24593,7.61421 -9.18678,8.72792 0.28423,5.35111 l 5.92904,-2.11396 2.21293,2.44108 c 3.01755,3.32867 2.79794,4.7967 -1.56934,10.49062 -4.51631,5.88826 -3.1599,6.95442 2.9366,2.30822 5.21147,-3.97172 7.20551,-4.1938 9.90454,-1.10311 1.94735,2.22992 1.94147,2.40559 -0.29294,8.76344 -2.77963,7.90922 -1.28631,8.52298 3.6879,1.51573 3.68708,-5.19405 4.85864,-5.64925 9.22885,-3.58574 2.66984,1.26063 2.73311,1.51529 2.04068,8.21572 -0.393,3.80312 -0.39498,6.91476 -0.004,6.91476 0.39058,0 1.90788,-2.71119 3.37177,-6.02486 2.64187,-5.98012 2.6964,-6.02487 7.34088,-6.02487 h 4.67923 v 4.83984 c 0,9.6071 3.18819,11.27396 4.42501,2.31351 z"
       id="path1422"
       inkscape:connector-curvature="0" />
    <path
       style="fill:#21a08c;stroke-width:1.076069"
       d="M 159.73177,352.8221 C 105.82868,346.50672 59.597761,317.74551 30.988664,272.72834 -5.671582,215.04248 -5.671582,142.41151 30.988664,84.72564 57.025707,43.755666 98.769996,15.520637 146.47868,6.6104223 c 17.71006,-3.3075816 44.50936,-3.3075816 62.21942,0 47.33148,8.8397657 89.3291,37.0840137 115.03276,77.3618487 20.52566,32.163859 28.54926,63.816539 26.88972,106.078569 -0.66227,16.86565 -2.3404,26.5891 -7.21489,41.80452 -22.71576,70.90586 -86.49154,119.05014 -161.00748,121.5444 -7.58711,0.25397 -17.78701,-0.005 -22.66644,-0.57766 z m 19.42659,-106.45229 c 0.30425,-1.35559 0.92657,-4.43649 1.38292,-6.84644 0.77414,-4.0881 1.09468,-4.40463 4.78349,-4.72363 3.84938,-0.33289 4.01283,-0.19456 6.19249,5.24071 1.23132,3.07045 2.75127,5.40559 3.37768,5.18921 1.07557,-0.37155 1.12585,-8.01353 0.0775,-11.76939 -0.28648,-1.0263 0.78492,-2.44921 2.74992,-3.6521 3.70599,-2.26868 4.8887,-1.66041 8.47987,4.3612 4.18702,7.02071 5.54311,3.96269 2.01993,-4.55498 l -2.13483,-5.1612 4.77256,-8.43627 c 7.47635,-13.21568 9.20013,-19.34573 9.80258,-34.85972 0.5174,-13.32351 0.49079,-13.52016 -2.75296,-20.34839 -4.02149,-8.46541 -13.68774,-18.3464 -21.63728,-22.11797 -16.80516,-7.973 -34.4848,-5.42129 -47.24198,6.81844 -8.57159,8.22394 -12.65673,16.89854 -13.42447,28.50622 -0.95735,14.47456 3.42421,26.11424 13.51076,35.8916 6.66343,6.45916 14.38102,10.13769 23.22182,11.06848 18.58435,1.95664 31.29359,-7.32694 37.08607,-27.08984 7.31544,-24.95895 -6.87058,-47.45698 -30.83008,-48.89434 -9.8854,-0.59304 -15.31585,1.54811 -23.12495,9.11783 -7.60236,7.36931 -9.59765,12.28898 -9.56924,23.59432 0.0262,10.42865 1.72721,15.5496 7.38205,22.22396 7.29445,8.60957 17.44207,11.97161 28.77489,9.53351 10.60044,-2.28055 17.66211,-12.1651 17.70618,-24.7842 0.0657,-18.81972 -9.78806,-30.24604 -24.70734,-28.65033 -3.12731,0.33449 -7.14197,1.3884 -8.92147,2.34202 -9.78894,5.24586 -13.55159,21.81643 -7.1643,31.55135 2.96127,4.5133 9.00265,7.61202 14.84069,7.61202 15.6043,0 21.31837,-20.7009 7.58505,-27.47909 -5.42524,-2.67767 -9.32178,-1.97295 -12.80398,2.31567 -3.81469,4.6981 -3.54937,9.74472 0.70747,13.45668 3.65549,3.18756 7.67941,3.08946 10.13888,-0.24717 1.80505,-2.44883 1.70197,-2.98712 -1.24779,-6.51604 -1.93461,-2.31446 -2.87249,-2.76439 -3.7976,-1.82183 -0.93325,0.95087 -0.92985,1.82998 0.0142,3.65797 1.06892,2.06981 0.98759,2.35432 -0.58157,2.03461 -3.24888,-0.66195 -4.22285,-3.66274 -2.218,-6.83364 3.87564,-6.12973 12.74605,-1.5152 12.74605,6.63071 0,5.27629 -5.10504,10.23784 -10.53397,10.23784 -8.23729,0 -13.55933,-6.11926 -13.45104,-15.46597 0.12546,-10.82906 4.98632,-15.51356 16.73563,-16.12841 7.76258,-0.40623 7.91204,-0.36272 11.48897,3.34408 6.8282,7.07612 8.94664,23.12935 4.16032,31.52615 -1.04916,1.84057 -3.72639,4.65271 -5.9494,6.24919 -7.23272,5.19426 -21.3882,3.29629 -28.58084,-3.83215 -6.38178,-6.32481 -7.59154,-9.70535 -7.56682,-21.14452 0.0208,-9.62223 0.27115,-10.91121 2.92726,-15.07059 10.03326,-15.71177 30.02224,-17.26085 44.48309,-3.44731 6.80554,6.5009 8.48581,11.75436 7.79943,24.38552 -0.62335,11.47127 -2.80656,17.84641 -8.35386,24.39392 -5.10077,6.02046 -11.19747,8.4824 -21.00571,8.4824 -11.05499,0 -19.04795,-3.70523 -26.86258,-12.45244 -6.96089,-7.79157 -8.91079,-13.46396 -9.2031,-26.77239 -0.19938,-9.0774 0.0384,-10.39506 2.83713,-15.72401 4.73638,-9.01825 10.42793,-14.98963 17.94011,-18.82215 6.47267,-3.30219 7.23478,-3.43649 17.15665,-3.02351 8.68371,0.36145 11.36547,0.93027 16.38529,3.47541 8.15303,4.13373 18.20792,15.49513 20.36018,23.00571 4.4594,15.56172 -1.02434,39.90153 -11.76574,52.22267 -10.90609,12.51005 -34.36585,14.70561 -50.91306,4.76487 -15.17589,-9.11693 -24.56636,-26.41389 -24.50856,-45.14403 0.0142,-4.60581 0.50674,-10.53592 1.09451,-13.17803 3.04797,-13.70098 13.96962,-27.57329 26.90335,-34.17174 6.36709,-3.24831 8.43192,-3.73424 17.46546,-4.11025 21.93945,-0.91321 38.93506,9.21635 48.97567,29.18995 l 4.02796,8.01275 -0.35785,16.77803 -0.35783,16.77805 -4.49246,8.88807 c -2.47086,4.88844 -4.49246,9.52739 -4.49246,10.30877 0,1.96843 9.28693,11.24018 10.25437,10.23762 0.43188,-0.44758 -0.56373,-3.30068 -2.21249,-6.34022 -2.5509,-4.70272 -2.77997,-5.75212 -1.53686,-7.04037 1.2431,-1.28825 2.28231,-1.24167 6.97197,0.31249 3.03112,1.0045 5.87611,1.44814 6.32218,0.98586 0.44609,-0.46228 -1.29761,-2.70392 -3.8749,-4.98141 -4.48099,-3.95978 -4.64018,-4.3032 -3.63943,-7.85174 l 1.04652,-3.71084 6.54744,0.35644 c 3.68536,0.20064 6.54744,-0.0999 6.54744,-0.68743 0,-1.69498 -2.60244,-3.43992 -6.26146,-4.19829 -3.71635,-0.77026 -5.63401,-4.03123 -4.65414,-7.91432 0.61447,-2.43506 1.56315,-2.88019 8.5317,-4.00314 2.46781,-0.39769 4.74057,-1.14838 5.0506,-1.66821 0.84614,-1.41882 -3.11924,-3.24371 -7.08967,-3.26271 -4.67907,-0.0225 -6.18566,-1.18356 -6.45289,-4.97336 -0.19594,-2.77901 0.4537,-3.54464 5.32635,-6.27728 3.05223,-1.71173 5.54951,-3.57389 5.54951,-4.13814 -1e-5,-0.56424 -3.04099,-1.0259 -6.75774,-1.0259 -5.18705,0 -6.90686,-0.40274 -7.39935,-1.73274 -1.3554,-3.66035 -0.49558,-5.87104 3.58658,-9.22157 4.73328,-3.88494 5.7666,-7.21315 1.84984,-5.95813 -1.3081,0.41916 -4.0623,1.64196 -6.12043,2.71737 l -3.74208,1.95527 -2.50535,-3.7891 -2.50536,-3.78908 3.34054,-4.91135 c 5.44655,-8.00764 4.1474,-9.39397 -3.00225,-3.20372 l -4.42871,3.83443 -3.03868,-2.24229 c -4.31003,-3.18044 -4.35334,-3.40997 -1.81707,-9.63111 1.25687,-3.08294 1.91833,-5.98556 1.46991,-6.45026 -0.44841,-0.46471 -2.59406,1.31681 -4.7681,3.95892 -3.94159,4.79021 -3.96403,4.79997 -7.92217,3.44624 l -3.96939,-1.35759 0.34554,-6.07739 c 0.43063,-7.57399 -1.21376,-8.49534 -3.95517,-2.21605 -2.09672,4.80262 -4.04381,5.91167 -8.39284,4.7805 -2.0172,-0.52467 -2.71127,-1.77884 -3.69102,-6.6696 -0.66364,-3.31287 -1.59311,-6.02341 -2.06546,-6.02341 -1.05785,0 -2.12867,3.9269 -2.14801,7.87722 -0.0167,3.40995 -1.15836,4.35397 -6.31633,5.22283 -3.61412,0.60878 -3.81385,0.45621 -6.3707,-4.8665 l -2.63961,-5.49497 -0.31996,6.75669 c -0.30682,6.4791 -0.45662,6.80605 -3.64632,7.95837 -3.08117,1.1131 -3.60682,0.91786 -7.13146,-2.64883 -4.11572,-4.16482 -7.09363,-5.15158 -5.83505,-1.9335 3.38352,8.65133 3.27956,10.03079 -0.9736,12.91875 -2.58601,1.75594 -2.83054,1.70181 -7.13588,-1.57932 -2.45195,-1.86866 -4.84006,-3.39756 -5.3069,-3.39756 -1.71057,0 -0.68426,2.83391 2.36529,6.53121 3.75182,4.5487 3.80187,5.18023 0.72624,9.16314 l -2.39145,3.0969 -5.48868,-2.24198 c -7.27444,-2.97143 -8.30254,-1.12201 -2.33646,4.20293 4.46512,3.98525 4.53508,4.15134 3.17859,7.54512 -1.35632,3.39333 -1.53915,3.47016 -8.25905,3.47016 -5.69771,0 -6.66669,0.25636 -5.67052,1.50025 0.66081,0.82515 3.33525,2.34475 5.9432,3.3769 4.62866,1.83189 4.74173,1.99201 4.74173,6.71547 0,4.76567 -0.0539,4.83883 -3.56755,4.83883 -5.53444,0 -10.29694,1.25979 -9.86761,2.6102 0.214,0.6731 3.20553,1.72848 6.64786,2.34531 l 6.25877,1.1215 0.31704,4.4598 c 0.31108,4.37607 0.22675,4.49553 -4.49246,6.36325 -2.64523,1.0469 -4.8095,2.35563 -4.8095,2.90829 0,0.55266 2.77768,1.00483 6.17262,1.00483 5.58877,0 6.28866,0.26391 7.39935,2.79011 1.91949,4.36579 1.54733,5.3174 -3.53,9.02617 -7.46813,5.45517 -6.19915,7.23863 2.77812,3.90447 5.58662,-2.07488 7.85107,-1.55643 9.49074,2.17292 1.00026,2.27504 0.63722,3.31741 -2.76331,7.93409 -3.99121,5.41862 -3.55475,7.69753 0.84164,4.39444 7.27383,-5.46497 7.08183,-5.38479 9.80973,-4.09674 3.84821,1.81703 4.11989,3.81886 1.43078,10.5424 -3.88663,9.71766 -1.26227,9.25146 5.93017,-1.05346 2.05588,-2.94556 2.31926,-3.02017 6.09839,-1.72766 l 3.94972,1.35085 -0.71884,7.30225 c -0.63772,6.47817 -0.53628,7.14595 0.89882,5.9174 0.88971,-0.76165 2.43255,-3.59607 3.42853,-6.29872 1.76771,-4.79673 1.92222,-4.91389 6.48018,-4.91389 h 4.6693 v 5.38755 c 0,5.83849 0.75152,8.85304 2.20706,8.85304 0.50809,0 1.17275,-1.10912 1.47701,-2.46472 z"
       id="path1420"
       inkscape:connector-curvature="0" />
    <path
       style="fill:#0f8e85;stroke-width:1.076069"
       d="m 161.2726,352.73617 c -40.55356,-3.70133 -79.579362,-22.5828 -108.391642,-52.44209 -65.594006,-67.97763 -65.594006,-175.15655 0,-243.134175 68.333362,-70.816537 181.081502,-70.816537 249.414872,0 34.67799,35.938156 50.40041,79.221595 48.33647,133.069105 -1.53578,40.06791 -18.861,79.51848 -48.33647,110.06507 -29.4679,30.53872 -67.68995,48.72454 -110.43727,52.54538 -14.13162,1.26312 -15.67191,1.25792 -30.58596,-0.1033 z m 68.00717,-72.57425 c 19.18176,-3.51527 29.62219,-9.484 34.44026,-19.68932 3.83345,-8.11981 4.40174,-16.25897 2.11735,-30.32548 -2.62806,-16.18271 -1.68546,-33.24134 3.68868,-66.75615 7.68398,-47.91959 8.01765,-64.851674 1.54803,-78.555237 -5.65447,-11.976963 -13.95295,-15.898465 -33.3738,-15.771026 -47.78078,0.313536 -98.91928,19.37303 -140.976216,52.542323 -17.873115,14.09609 -43.878109,44.32983 -50.07291,58.21539 -5.338974,11.96725 -2.895413,27.08505 6.74704,41.74255 15.273459,23.21719 44.686579,43.68973 78.488776,54.63088 18.61919,6.0267 24.0183,6.59301 57.85748,6.06862 20.49943,-0.31767 33.59644,-1.01418 39.53531,-2.10255 z"
       id="path1418"
       inkscape:connector-curvature="0" />
    <path
       style="fill:#007f7e;stroke-width:1.076069"
       d="M 163.84674,352.81044 C 102.8215,348.30014 46.9207,309.67801 20.76565,253.95502 -19.839298,167.44673 15.156963,65.139076 99.895223,22.628567 183.8907,-19.509311 285.51285,12.618018 330.31398,95.474289 c 11.71993,21.675141 17.55113,41.688441 19.61368,67.316421 1.64869,20.48549 0.797,38.14875 -2.56427,53.18091 -19.21481,85.93185 -96.14704,143.29621 -183.51665,136.83882 z m 43.20582,-70.0326 c 34.75555,-2.19054 50.41233,-8.30392 57.47366,-22.44129 3.13578,-6.27812 3.57943,-17.68958 1.31691,-33.87291 -2.31783,-16.57898 -1.55781,-26.83195 4.91902,-66.35896 3.97316,-24.24756 4.4075,-28.74126 4.49986,-46.55579 0.0939,-18.110451 -0.0937,-20.219651 -2.30035,-25.874951 -2.91255,-7.464099 -8.47541,-13.646143 -14.95019,-16.614239 -12.20894,-5.59668 -47.5691,-2.702086 -77.76411,6.365796 -50.55197,15.181291 -95.329324,46.331924 -124.201991,86.404634 -9.553357,13.25922 -11.852587,18.2464 -12.460967,27.02871 -1.024189,14.7847 5.861484,29.42741 21.354071,45.41043 19.470343,20.08668 45.461967,35.05248 74.067597,42.64763 18.46161,4.90179 35.86493,5.88924 68.04649,3.86094 z"
       id="path1416"
       inkscape:connector-curvature="0" />
  </g>
</svg>
