<?xml version="1.0" encoding="UTF-8" standalone="no"?>
<!-- Created with Inkscape (http://www.inkscape.org/) -->

<svg
   xmlns:osb="http://www.openswatchbook.org/uri/2009/osb"
   xmlns:dc="http://purl.org/dc/elements/1.1/"
   xmlns:cc="http://creativecommons.org/ns#"
   xmlns:rdf="http://www.w3.org/1999/02/22-rdf-syntax-ns#"
   xmlns:svg="http://www.w3.org/2000/svg"
   xmlns="http://www.w3.org/2000/svg"
   xmlns:sodipodi="http://sodipodi.sourceforge.net/DTD/sodipodi-0.dtd"
   xmlns:inkscape="http://www.inkscape.org/namespaces/inkscape"
   version="1.1"
   id="svg2534"
   width="442.66666"
   height="444"
   viewBox="0 0 442.66666 444"
   sodipodi:docname="orange.svg"
   inkscape:version="0.92.3 (2405546, 2018-03-11)">
  <metadata
     id="metadata2540">
    <rdf:RDF>
      <cc:Work
         rdf:about="">
        <dc:format>image/svg+xml</dc:format>
        <dc:type
           rdf:resource="http://purl.org/dc/dcmitype/StillImage" />
        <dc:title />
      </cc:Work>
    </rdf:RDF>
  </metadata>
  <defs
     id="defs2538">
    <linearGradient
       id="linearGradient4830"
       osb:paint="solid">
      <stop
         style="stop-color:#d45500;stop-opacity:1;"
         offset="0"
         id="stop4828" />
    </linearGradient>
  </defs>
  <sodipodi:namedview
     pagecolor="#ffffff"
     bordercolor="#666666"
     borderopacity="1"
     objecttolerance="10"
     gridtolerance="10"
     guidetolerance="10"
     inkscape:pageopacity="0"
     inkscape:pageshadow="2"
     inkscape:window-width="1366"
     inkscape:window-height="705"
     id="namedview2536"
     showgrid="false"
     inkscape:zoom="0.62274775"
     inkscape:cx="367.51153"
     inkscape:cy="257.58152"
     inkscape:window-x="-8"
     inkscape:window-y="-8"
     inkscape:window-maximized="1"
     inkscape:current-layer="g5037"
     inkscape:snap-intersection-paths="false"
     inkscape:object-paths="false"
     inkscape:object-nodes="false"
     inkscape:snap-midpoints="true"
     inkscape:snap-others="false"
     inkscape:snap-nodes="false" />
  <g
     inkscape:groupmode="layer"
     id="layer1"
     inkscape:label="Layer 1">
    <g
       id="g4977"
       transform="matrix(0.85079773,0,0,0.86533671,524.31719,31.41591)">
      <g
         id="g5037"
         transform="translate(3.8967617e-8,-17.663652)">
        <path
           style="opacity:1;fill:#fad020;fill-opacity:1;stroke-width:1.16771817"
           d="m -581.47569,241.41985 c 0,-76.16415 -53.06985,-174.63627 0,-228.492461 53.89778,-54.696345 152.44597,0 228.66893,0 76.22299,0 174.77114,-54.69634 228.6689,0 53.069881,53.856191 0,152.328311 0,228.492461 0,76.16414 53.069881,174.63624 0,228.49243 -53.89776,54.69634 -152.44591,0 -228.6689,0 -76.22296,0 -174.77115,54.69635 -228.66893,0 -53.06985,-53.85619 0,-152.32829 0,-228.49243 z m 215.21782,114.7252 c 8.04143,-0.40422 23.4819,-0.14368 34.31216,0.57895 l 19.69139,1.31391 3.19611,-2.68043 c 1.75788,-1.47424 8.05578,-4.68801 13.99528,-7.14174 19.59727,-8.09597 45.16634,-22.90139 48.6177,-28.15138 3.98157,-6.0564 0.55162,-18.45284 -5.44189,-19.66836 -14.07304,-2.85411 -34.86047,-1.03429 -52.27349,4.57628 -10.3871,3.34677 -13.46791,3.93751 -14.79774,2.83751 -0.92374,-0.76409 -3.78561,-5.58314 -6.35975,-10.70903 -5.39534,-10.74376 -5.86148,-16.20881 -2.9098,-34.11403 1.94556,-11.8019 2.26064,-21.56688 0.69587,-21.56688 -3.34714,0 -8.31462,23.2789 -8.31462,38.96443 0,10.42918 0.14836,11.01864 5.32279,21.14667 2.92753,5.73014 6.05383,11.15494 6.94733,12.05508 2.38376,2.40149 6.55695,1.89503 22.71177,-2.75626 16.12228,-4.64193 33.53315,-7.26603 40.05025,-6.03621 5.64693,1.06563 10.35315,4.8643 10.35315,8.35652 0,5.49532 -16.8409,15.56868 -49.1258,29.38443 l -20.46906,8.75941 -16.66769,-1.50141 c -13.64589,-1.22917 -19.69216,-1.22567 -33.3502,0.0195 -16.0449,1.46261 -16.86079,1.43066 -21.34634,-0.83573 -2.56509,-1.29607 -8.34822,-3.80064 -12.85143,-5.56573 -14.82489,-5.81081 -41.97176,-20.14085 -46.49406,-24.5429 -5.15118,-5.01418 -5.447,-7.26713 -1.44605,-11.01335 5.98747,-5.60625 24.69105,-4.00843 52.39923,4.47643 l 14.78585,4.52775 4.64409,-7.11759 c 8.48416,-13.003 11.05176,-19.99283 10.95959,-29.83546 -0.12635,-13.4867 -5.69846,-38.48543 -8.57826,-38.48543 -1.66794,0 -1.35712,10.89589 0.63183,22.14977 2.69404,15.2433 2.33803,23.41038 -1.33561,30.64041 -3.97953,7.83207 -8.45358,13.65913 -10.48751,13.65913 -0.88186,0 -7.21631,-1.57084 -14.07659,-3.49076 -16.71704,-4.67849 -35.65411,-6.77518 -44.49653,-4.92661 -10.91908,2.28269 -16.27027,9.86993 -12.79983,18.14831 2.5019,5.96799 9.95941,10.85405 36.99443,24.23824 13.18794,6.52894 25.29394,12.88655 26.90222,14.12801 2.38963,1.84461 4.10012,2.13442 9.35729,1.58544 3.53824,-0.36949 13.01249,-1.00252 21.05392,-1.40674 z m -98.04184,-57.14625 c 18.99448,-4.30587 35.75197,-13.84238 50.74983,-28.88124 10.56565,-10.59454 11.04059,-11.54326 19.79529,-39.54222 2.96763,-9.49096 6.34634,-18.20379 7.50823,-19.36184 1.16192,-1.15805 5.82979,-3.52124 10.37306,-5.25158 9.47132,-3.60716 13.92795,-7.4596 14.95757,-12.92977 0.85877,-4.56248 -0.46567,-7.33366 -7.16912,-15.00022 -6.09921,-6.97549 -8.09488,-13.46978 -7.17063,-23.3345 1.28003,-13.66181 6.65904,-21.88041 15.38895,-23.5127 8.97774,-1.67866 17.26248,4.65976 20.94509,16.02445 3.80037,11.72811 2.23507,19.81055 -5.8991,30.46018 -7.08211,9.27225 -7.63835,11.09418 -5.10727,16.72874 2.79623,6.22484 7.02032,9.3023 15.02946,10.94973 3.65998,0.75283 8.6291,2.15219 11.04247,3.10968 5.33894,2.11817 6.89652,5.29291 13.69735,27.91855 6.48209,21.56517 8.00629,24.38963 18.61137,34.48799 15.54762,14.80487 30.08218,23.23413 47.88927,27.77329 10.46973,2.66883 15.35155,2.81914 18.41312,0.56697 3.55795,-2.61727 0.96046,-4.01175 -11.09147,-5.95454 -19.31345,-3.11335 -33.8517,-11.00889 -51.33187,-27.87787 l -9.7197,-9.37983 -6.2228,-20.03546 c -8.10678,-26.10156 -9.98232,-29.9003 -16.2235,-32.85899 -2.69542,-1.2778 -7.91506,-2.86307 -11.59921,-3.52285 -7.93603,-1.42119 -12.36627,-4.03099 -13.32837,-7.85157 -0.53679,-2.13168 0.31131,-3.89501 3.63908,-7.56622 7.17016,-7.91014 8.72991,-12.67858 8.75925,-26.77839 0.024,-11.46359 -0.22994,-12.85577 -3.55117,-19.48007 -4.67847,-9.33136 -8.75675,-12.67671 -16.65265,-13.65997 -11.87553,-1.47882 -19.50452,2.89202 -25.47073,14.59284 -1.98662,3.89613 -2.80865,7.87773 -3.19461,15.47373 -0.69363,13.65054 0.89661,18.77151 8.65284,27.86434 6.51876,7.64214 7.08772,9.01461 5.19685,12.53601 -1.23813,2.3058 -4.23632,3.64951 -14.43004,6.4671 -10.07347,2.78439 -12.03028,6.52611 -23.62678,45.1786 l -3.0534,10.17734 -11.10914,10.22378 c -6.11003,5.62308 -13.83319,11.93663 -17.16259,14.03012 -8.37583,5.26662 -23.06883,10.73269 -33.98218,12.64199 -10.20537,1.78543 -11.30747,2.22588 -11.30747,4.51897 0,3.18511 6.62323,3.57882 17.75472,1.05543 z"
           id="path2602"
           inkscape:connector-curvature="0"
           inkscape:transform-center-y="19.927691"
           inkscape:transform-center-x="-1.6363946"
           sodipodi:nodetypes="asssasssacscccccccssssccscssccccscsscscsscscscscsccssscccsccsscccssscsscsccccccccccscscsssss" />
        <path
           style="opacity:0.40900005;fill:#ffffff;fill-opacity:0;stroke-width:1.60578656"
           d="m 727.36831,310.06553 c -39.7767,-7.4541 -81.15675,-28.0679 -110.05859,-54.82658 -29.18016,-27.01635 -50.28917,-67.63346 -52.49581,-101.01028 -1.0557,-15.96802 -0.18188,-19.78876 6.18388,-27.03897 6.1548,-7.00993 14.21863,-9.47019 42.35967,-12.92389 50.21368,-6.16263 70.55113,-17.753444 94.88962,-54.079939 18.57725,-27.727536 36.8648,-43.532783 61.38756,-53.0550019 44.88952,-17.4306531 98.28878,-1.1087231 116.33138,35.5576579 4.56158,9.270065 5.18777,12.116779 5.15338,23.427558 -0.0334,10.990713 -0.76144,14.403027 -4.97374,23.312884 -6.00191,12.695231 -17.1019,25.294291 -30.00356,34.055651 -17.40807,11.8216 -26.80634,22.07215 -26.80634,29.2373 0,4.38394 9.81264,13.72934 20.66503,19.68105 29.77618,16.32995 38.63839,22.98286 43.61849,32.74468 4.8555,9.51756 5.37191,17.14606 1.90675,28.16651 -4.28034,13.61293 -13.06443,26.39343 -29.1616,42.42904 -15.81165,15.75115 -30.71921,24.42209 -53.96866,31.39072 -12.84414,3.84981 -17.44713,4.36284 -43.27701,4.8235 -20.81825,0.37129 -32.49789,-0.15801 -41.75045,-1.89189 z"
           id="path2632"
           inkscape:connector-curvature="0"
           transform="matrix(1.1753675,0,0,1.1556195,-616.26538,-18.641187)" />
        <path
           style="opacity:0.40900005;fill:#ffffff;fill-opacity:0;stroke-width:1.60578656"
           d="m 727.36831,310.06553 c -39.7767,-7.4541 -81.15675,-28.0679 -110.05859,-54.82658 -29.18016,-27.01635 -50.28917,-67.63346 -52.49581,-101.01028 -1.0557,-15.96802 -0.18188,-19.78876 6.18388,-27.03897 6.1548,-7.00993 14.21863,-9.47019 42.35967,-12.92389 50.21368,-6.16263 70.55113,-17.753444 94.88962,-54.079939 18.57725,-27.727536 36.8648,-43.532783 61.38756,-53.0550019 44.88952,-17.4306531 98.28878,-1.1087231 116.33138,35.5576579 4.56158,9.270065 5.18777,12.116779 5.15338,23.427558 -0.0334,10.990713 -0.76144,14.403027 -4.97374,23.312884 -6.00191,12.695231 -17.1019,25.294291 -30.00356,34.055651 -17.40807,11.8216 -26.80634,22.07215 -26.80634,29.2373 0,4.38394 9.81264,13.72934 20.66503,19.68105 29.77618,16.32995 38.63839,22.98286 43.61849,32.74468 4.8555,9.51756 5.37191,17.14606 1.90675,28.16651 -4.28034,13.61293 -13.06443,26.39343 -29.1616,42.42904 -15.81165,15.75115 -30.71921,24.42209 -53.96866,31.39072 -12.84414,3.84981 -17.44713,4.36284 -43.27701,4.8235 -20.81825,0.37129 -32.49789,-0.15801 -41.75045,-1.89189 z"
           id="path2634"
           inkscape:connector-curvature="0"
           transform="matrix(1.1753675,0,0,1.1556195,-616.26538,-18.641187)" />
        <path
           style="opacity:0.40900005;fill:#ffffff;fill-opacity:1;stroke-width:1.87146664"
           d="m -376.62925,402.76965 c -46.75224,-8.6141 -95.38901,-32.43581 -129.35929,-63.35866 -34.29741,-31.22063 -59.10826,-78.15855 -61.70187,-116.72945 -1.24083,-18.45296 -0.21378,-22.86828 7.26833,-31.24677 7.23415,-8.10081 16.71212,-10.94393 49.78818,-14.93509 59.01953,-7.12166 82.92351,-20.51623 111.53018,-62.49584 21.83509,-32.042478 43.32968,-50.307329 72.15294,-61.311391 52.76168,-20.143203 115.52544,-1.281262 136.73212,41.091123 5.36154,10.712668 6.09754,14.002388 6.05712,27.073338 -0.0393,12.70109 -0.89497,16.64442 -5.84597,26.94083 -7.05445,14.67085 -20.10102,29.23057 -35.26521,39.35537 -20.46088,13.66127 -31.5073,25.50701 -31.5073,33.7872 0,5.06616 11.53345,15.86589 24.289,22.7438 34.99796,18.87121 45.41431,26.55944 51.26776,37.84039 5.70699,10.99868 6.31396,19.81432 2.24113,32.54977 -5.03097,15.73137 -15.35551,30.50076 -34.2756,49.03183 -18.5845,18.20233 -36.10636,28.22264 -63.43301,36.27572 -15.09658,4.44892 -20.50679,5.04179 -50.86639,5.57414 -24.46909,0.42907 -38.19696,-0.1826 -49.07212,-2.18631 z"
           id="path2636"
           inkscape:connector-curvature="0" />
      </g>
    </g>
  </g>
</svg>
