<?xml version="1.0" encoding="UTF-8" standalone="no"?>
<!-- Created with Inkscape (http://www.inkscape.org/) -->

<svg
   xmlns:osb="http://www.openswatchbook.org/uri/2009/osb"
   xmlns:dc="http://purl.org/dc/elements/1.1/"
   xmlns:cc="http://creativecommons.org/ns#"
   xmlns:rdf="http://www.w3.org/1999/02/22-rdf-syntax-ns#"
   xmlns:svg="http://www.w3.org/2000/svg"
   xmlns="http://www.w3.org/2000/svg"
   xmlns:sodipodi="http://sodipodi.sourceforge.net/DTD/sodipodi-0.dtd"
   xmlns:inkscape="http://www.inkscape.org/namespaces/inkscape"
   version="1.1"
   id="svg2534"
   width="442.66666"
   height="444"
   viewBox="0 0 442.66666 444"
   sodipodi:docname="orange1.svg"
   inkscape:version="0.92.3 (2405546, 2018-03-11)">
  <metadata
     id="metadata2540">
    <rdf:RDF>
      <cc:Work
         rdf:about="">
        <dc:format>image/svg+xml</dc:format>
        <dc:type
           rdf:resource="http://purl.org/dc/dcmitype/StillImage" />
        <dc:title></dc:title>
      </cc:Work>
    </rdf:RDF>
  </metadata>
  <defs
     id="defs2538">
    <linearGradient
       id="linearGradient4830"
       osb:paint="solid">
      <stop
         style="stop-color:#d45500;stop-opacity:1;"
         offset="0"
         id="stop4828" />
    </linearGradient>
  </defs>
  <sodipodi:namedview
     pagecolor="#ffffff"
     bordercolor="#666666"
     borderopacity="1"
     objecttolerance="10"
     gridtolerance="10"
     guidetolerance="10"
     inkscape:pageopacity="0"
     inkscape:pageshadow="2"
     inkscape:window-width="1366"
     inkscape:window-height="705"
     id="namedview2536"
     showgrid="false"
     inkscape:zoom="0.62274775"
     inkscape:cx="106.57121"
     inkscape:cy="324.36469"
     inkscape:window-x="-8"
     inkscape:window-y="-8"
     inkscape:window-maximized="1"
     inkscape:current-layer="g5037"
     inkscape:snap-intersection-paths="false"
     inkscape:object-paths="false"
     inkscape:object-nodes="false"
     inkscape:snap-midpoints="true"
     inkscape:snap-others="false"
     inkscape:snap-nodes="false" />
  <g
     inkscape:groupmode="layer"
     id="layer1"
     inkscape:label="Layer 1">
    <g
       id="g4977"
       transform="matrix(0.85079773,0,0,0.86533671,524.31719,31.41591)">
      <g
         id="g5037"
         transform="translate(3.8967617e-8,-17.663652)">
        <path
           style="opacity:0.40900005;fill:#ffffff;fill-opacity:0;stroke-width:1.60578656"
           d="m 727.36831,310.06553 c -39.7767,-7.4541 -81.15675,-28.0679 -110.05859,-54.82658 -29.18016,-27.01635 -50.28917,-67.63346 -52.49581,-101.01028 -1.0557,-15.96802 -0.18188,-19.78876 6.18388,-27.03897 6.1548,-7.00993 14.21863,-9.47019 42.35967,-12.92389 50.21368,-6.16263 70.55113,-17.753444 94.88962,-54.079939 18.57725,-27.727536 36.8648,-43.532783 61.38756,-53.0550019 44.88952,-17.4306531 98.28878,-1.1087231 116.33138,35.5576579 4.56158,9.270065 5.18777,12.116779 5.15338,23.427558 -0.0334,10.990713 -0.76144,14.403027 -4.97374,23.312884 -6.00191,12.695231 -17.1019,25.294291 -30.00356,34.055651 -17.40807,11.8216 -26.80634,22.07215 -26.80634,29.2373 0,4.38394 9.81264,13.72934 20.66503,19.68105 29.77618,16.32995 38.63839,22.98286 43.61849,32.74468 4.8555,9.51756 5.37191,17.14606 1.90675,28.16651 -4.28034,13.61293 -13.06443,26.39343 -29.1616,42.42904 -15.81165,15.75115 -30.71921,24.42209 -53.96866,31.39072 -12.84414,3.84981 -17.44713,4.36284 -43.27701,4.8235 -20.81825,0.37129 -32.49789,-0.15801 -41.75045,-1.89189 z"
           id="path2632"
           inkscape:connector-curvature="0"
           transform="matrix(1.1753675,0,0,1.1556195,-616.26538,-18.641187)" />
        <path
           style="opacity:0.40900005;fill:#ffffff;fill-opacity:0;stroke-width:1.60578656"
           d="m 727.36831,310.06553 c -39.7767,-7.4541 -81.15675,-28.0679 -110.05859,-54.82658 -29.18016,-27.01635 -50.28917,-67.63346 -52.49581,-101.01028 -1.0557,-15.96802 -0.18188,-19.78876 6.18388,-27.03897 6.1548,-7.00993 14.21863,-9.47019 42.35967,-12.92389 50.21368,-6.16263 70.55113,-17.753444 94.88962,-54.079939 18.57725,-27.727536 36.8648,-43.532783 61.38756,-53.0550019 44.88952,-17.4306531 98.28878,-1.1087231 116.33138,35.5576579 4.56158,9.270065 5.18777,12.116779 5.15338,23.427558 -0.0334,10.990713 -0.76144,14.403027 -4.97374,23.312884 -6.00191,12.695231 -17.1019,25.294291 -30.00356,34.055651 -17.40807,11.8216 -26.80634,22.07215 -26.80634,29.2373 0,4.38394 9.81264,13.72934 20.66503,19.68105 29.77618,16.32995 38.63839,22.98286 43.61849,32.74468 4.8555,9.51756 5.37191,17.14606 1.90675,28.16651 -4.28034,13.61293 -13.06443,26.39343 -29.1616,42.42904 -15.81165,15.75115 -30.71921,24.42209 -53.96866,31.39072 -12.84414,3.84981 -17.44713,4.36284 -43.27701,4.8235 -20.81825,0.37129 -32.49789,-0.15801 -41.75045,-1.89189 z"
           id="path2634"
           inkscape:connector-curvature="0"
           transform="matrix(1.1753675,0,0,1.1556195,-616.26538,-18.641187)" />
        <g
           id="g5534"
           transform="matrix(0.89362063,0,0,0.8757709,-41.953766,28.948265)">
          <g
             transform="matrix(0.96272916,0,0,0.96720871,-9.3394532,5.0721008)"
             id="g5529">
            <path
               style="opacity:1;fill:#fad020;fill-opacity:1;stroke-width:1.17418635"
               d="m -657.84528,222.29685 c 1.70281,-75.20433 23.18944,-158.650856 76.45783,-212.9023753 54.09941,-55.0978407 160.8581,-67.1507007 237.36621,-67.1507007 76.50815,0 167.58314,12.052865 221.68253,67.1507007 53.268418,54.2515193 72.928062,152.4953353 72.53692,234.0068753 -0.379413,79.06709 -19.268502,172.08097 -72.53692,226.33249 -54.09939,55.09783 -154.97667,74.82507 -231.48482,74.82507 -76.50811,0 -173.46451,-19.72723 -227.56392,-74.82507 -53.26839,-54.25152 -78.4084,-161.29044 -76.45783,-247.43699 z m 292.48078,132.83466 c 8.07152,-0.40719 23.56975,-0.14474 34.44053,0.5832 l 19.76505,1.32355 3.20807,-2.70011 c 1.76446,-1.48506 8.08592,-4.72242 14.04764,-7.19416 19.67058,-8.1554 45.3353,-23.0695 48.79958,-28.35802 3.99646,-6.10086 0.55368,-18.58829 -5.46225,-19.81274 -14.12569,-2.87506 -34.99089,-1.04188 -52.46905,4.60987 -10.42596,3.37134 -13.51829,3.96642 -14.8531,2.85834 -0.92719,-0.7697 -3.79977,-5.62412 -6.38354,-10.78764 -5.41552,-10.82262 -5.88341,-16.32779 -2.92069,-34.36444 1.95284,-11.88853 2.2691,-21.72519 0.69848,-21.72519 -3.35966,0 -8.34573,23.44978 -8.34573,39.25045 0,10.50573 0.14892,11.09952 5.34271,21.30189 2.93848,5.77221 6.07647,11.23683 6.97332,12.14357 2.39267,2.41912 6.58148,1.90894 22.79673,-2.77649 16.1826,-4.676 33.6586,-7.31936 40.20008,-6.08052 5.66806,1.07346 10.39188,4.90001 10.39188,8.41786 0,5.53566 -16.9039,15.68296 -49.30958,29.60013 l -20.54563,8.82371 -16.73005,-1.51243 c -13.69694,-1.2382 -19.76583,-1.23467 -33.47496,0.0196 -16.10493,1.47334 -16.92387,1.44116 -21.4262,-0.84187 -2.57469,-1.30558 -8.37945,-3.82853 -12.89951,-5.60658 -14.88035,-5.85347 -42.12878,-20.28869 -46.66799,-24.72306 -5.17045,-5.05098 -5.46738,-7.32047 -1.45146,-11.09419 6.00987,-5.6474 24.78342,-4.03785 52.59525,4.50929 l 14.84117,4.56098 4.66146,-7.16983 c 8.5159,-13.09845 11.09311,-20.13959 11.00059,-30.05447 -0.12682,-13.5857 -5.71978,-38.76793 -8.61035,-38.76793 -1.67418,0 -1.3622,10.97587 0.63419,22.31236 2.70412,15.35519 2.34678,23.58222 -1.3406,30.86533 -3.99442,7.88956 -8.48521,13.75939 -10.52675,13.75939 -0.88516,0 -7.2433,-1.58237 -14.12925,-3.51638 -16.77958,-4.71284 -35.78749,-6.82492 -44.66299,-4.96278 -10.95993,2.29945 -16.33114,9.94238 -12.84771,18.28153 2.51126,6.0118 9.99666,10.93372 37.13282,24.41616 13.23728,6.57686 25.38857,12.98114 27.00286,14.23171 2.39857,1.85816 4.11546,2.15009 9.3923,1.59708 3.55148,-0.3722 13.06117,-1.00988 21.13268,-1.41706 z m -98.40861,-57.56573 c 19.06554,-4.33748 35.88572,-13.94399 50.93968,-29.09324 10.60518,-10.67231 11.0819,-11.628 19.86935,-39.83248 2.97873,-9.56063 6.37008,-18.33742 7.53632,-19.50397 1.16626,-1.16655 5.8516,-3.54708 10.41186,-5.29013 9.50675,-3.63363 13.98006,-7.51435 15.01353,-13.02468 0.86198,-4.59597 -0.46741,-7.38749 -7.19594,-15.11032 -6.12203,-7.0267 -8.12516,-13.56866 -7.19746,-23.50579 1.28482,-13.76209 6.68396,-22.04102 15.44652,-23.68529 9.01133,-1.69099 17.32706,4.69396 21.02345,16.14207 3.81459,11.8142 2.24343,19.95597 -5.92117,30.68377 -7.1086,9.34032 -7.66692,11.17562 -5.12638,16.85154 2.8067,6.27053 7.04659,9.37058 15.08569,11.03011 3.67367,0.75835 8.66138,2.16799 11.08378,3.1325 5.35891,2.13372 6.92232,5.33177 13.74859,28.12349 6.50634,21.72347 8.03624,24.56866 18.681,34.74115 15.60578,14.91354 30.19472,23.40467 48.06842,27.97715 10.5089,2.68842 15.40898,2.83984 18.48201,0.57114 3.57126,-2.63649 0.96405,-4.0412 -11.13297,-5.99825 -19.3857,-3.13621 -33.97834,-11.0897 -51.5239,-28.08251 l -9.75606,-9.44868 -6.24608,-20.18253 c -8.13711,-26.29316 -10.01967,-30.11978 -16.28419,-33.10019 -2.70551,-1.28718 -7.94467,-2.88409 -11.64261,-3.54871 -7.96572,-1.43162 -12.41253,-4.06058 -13.37823,-7.9092 -0.5388,-2.14733 0.31248,-3.9236 3.6527,-7.62176 7.19698,-7.96821 8.76256,-12.77165 8.79201,-26.97496 0.0241,-11.54774 -0.2308,-12.95014 -3.56445,-19.62306 -4.69597,-9.39986 -8.78951,-12.76976 -16.71495,-13.76024 -11.91996,-1.48968 -19.57749,2.91325 -25.56602,14.69996 -1.99405,3.92473 -2.81915,7.93555 -3.20656,15.58731 -0.69622,13.75074 0.89997,18.9093 8.68521,28.06888 6.54315,7.69823 7.11424,9.08078 5.2163,12.62803 -1.24277,2.32272 -4.25217,3.6763 -14.48403,6.51457 -10.11115,2.80483 -12.07528,6.57401 -23.71517,45.51023 l -3.06482,10.25205 -11.1507,10.29882 c -6.13289,5.66436 -13.88494,12.02425 -17.22679,14.13311 -8.40717,5.30528 -23.15514,10.81147 -34.10931,12.73479 -10.24355,1.79853 -11.34977,2.24222 -11.34977,4.55214 0,3.20849 6.648,3.60509 17.82114,1.06318 z"
               id="path2602"
               inkscape:connector-curvature="0"
               inkscape:transform-center-y="20.073969"
               inkscape:transform-center-x="-1.6425161"
               sodipodi:nodetypes="asssasssacscccccccssssccscssccccscsscscsscscscscsccssscccsccsscccssscsscsccccccccccscscsssss" />
            <path
               style="opacity:0.40900005;fill:#ffffff;fill-opacity:1;stroke-width:1.87146664"
               d="m -376.62925,402.76965 c -46.75224,-8.6141 -95.38901,-32.43581 -129.35929,-63.35866 -34.29741,-31.22063 -59.10826,-78.15855 -61.70187,-116.72945 -1.24083,-18.45296 -0.21378,-22.86828 7.26833,-31.24677 7.23415,-8.10081 16.71212,-10.94393 49.78818,-14.93509 59.01953,-7.12166 82.92351,-20.51623 111.53018,-62.49584 21.83509,-32.042478 43.32968,-50.307329 72.15294,-61.311391 52.76168,-20.143203 115.52544,-1.281262 136.73212,41.091123 5.36154,10.712668 6.09754,14.002388 6.05712,27.073338 -0.0393,12.70109 -0.89497,16.64442 -5.84597,26.94083 -7.05445,14.67085 -20.10102,29.23057 -35.26521,39.35537 -20.46088,13.66127 -31.5073,25.50701 -31.5073,33.7872 0,5.06616 11.53345,15.86589 24.289,22.7438 34.99796,18.87121 45.41431,26.55944 51.26776,37.84039 5.70699,10.99868 6.31396,19.81432 2.24113,32.54977 -5.03097,15.73137 -15.35551,30.50076 -34.2756,49.03183 -18.5845,18.20233 -36.10636,28.22264 -63.43301,36.27572 -15.09658,4.44892 -20.50679,5.04179 -50.86639,5.57414 -24.46909,0.42907 -38.19696,-0.1826 -49.07212,-2.18631 z"
               id="path2636"
               inkscape:connector-curvature="0" />
          </g>
        </g>
      </g>
    </g>
  </g>
</svg>
