<?xml version="1.0" encoding="UTF-8" standalone="no"?>
<!-- Created with Inkscape (http://www.inkscape.org/) -->

<svg
   xmlns:osb="http://www.openswatchbook.org/uri/2009/osb"
   xmlns:dc="http://purl.org/dc/elements/1.1/"
   xmlns:cc="http://creativecommons.org/ns#"
   xmlns:rdf="http://www.w3.org/1999/02/22-rdf-syntax-ns#"
   xmlns:svg="http://www.w3.org/2000/svg"
   xmlns="http://www.w3.org/2000/svg"
   xmlns:sodipodi="http://sodipodi.sourceforge.net/DTD/sodipodi-0.dtd"
   xmlns:inkscape="http://www.inkscape.org/namespaces/inkscape"
   version="1.1"
   id="svg2534"
   width="442.66666"
   height="444"
   viewBox="0 0 442.66666 444"
   sodipodi:docname="orange.svg"
   inkscape:version="0.92.3 (2405546, 2018-03-11)">
  <metadata
     id="metadata2540">
    <rdf:RDF>
      <cc:Work
         rdf:about="">
        <dc:format>image/svg+xml</dc:format>
        <dc:type
           rdf:resource="http://purl.org/dc/dcmitype/StillImage" />
        <dc:title />
      </cc:Work>
    </rdf:RDF>
  </metadata>
  <defs
     id="defs2538">
    <linearGradient
       id="linearGradient4830"
       osb:paint="solid">
      <stop
         style="stop-color:#d45500;stop-opacity:1;"
         offset="0"
         id="stop4828" />
    </linearGradient>
  </defs>
  <sodipodi:namedview
     pagecolor="#ffffff"
     bordercolor="#666666"
     borderopacity="1"
     objecttolerance="10"
     gridtolerance="10"
     guidetolerance="10"
     inkscape:pageopacity="0"
     inkscape:pageshadow="2"
     inkscape:window-width="1366"
     inkscape:window-height="705"
     id="namedview2536"
     showgrid="false"
     inkscape:zoom="0.62274775"
     inkscape:cx="367.51153"
     inkscape:cy="257.58152"
     inkscape:window-x="-8"
     inkscape:window-y="-8"
     inkscape:window-maximized="1"
     inkscape:current-layer="g5037"
     inkscape:snap-intersection-paths="false"
     inkscape:object-paths="false"
     inkscape:object-nodes="false"
     inkscape:snap-midpoints="true"
     inkscape:snap-others="false"
     inkscape:snap-nodes="false" />
  <g
     inkscape:groupmode="layer"
     id="layer1"
     inkscape:label="Layer 1">
    <g
       id="g4977"
       transform="matrix(0.85079773,0,0,0.86533671,524.31719,31.41591)">
      <g
         id="g5037"
         transform="translate(3.8967617e-8,-17.663652)">
        <path
           style="opacity:0.40900005;fill:#ffffff;fill-opacity:0;stroke-width:1.60578656"
           d="m 727.36831,310.06553 c -39.7767,-7.4541 -81.15675,-28.0679 -110.05859,-54.82658 -29.18016,-27.01635 -50.28917,-67.63346 -52.49581,-101.01028 -1.0557,-15.96802 -0.18188,-19.78876 6.18388,-27.03897 6.1548,-7.00993 14.21863,-9.47019 42.35967,-12.92389 50.21368,-6.16263 70.55113,-17.753444 94.88962,-54.079939 18.57725,-27.727536 36.8648,-43.532783 61.38756,-53.0550019 44.88952,-17.4306531 98.28878,-1.1087231 116.33138,35.5576579 4.56158,9.270065 5.18777,12.116779 5.15338,23.427558 -0.0334,10.990713 -0.76144,14.403027 -4.97374,23.312884 -6.00191,12.695231 -17.1019,25.294291 -30.00356,34.055651 -17.40807,11.8216 -26.80634,22.07215 -26.80634,29.2373 0,4.38394 9.81264,13.72934 20.66503,19.68105 29.77618,16.32995 38.63839,22.98286 43.61849,32.74468 4.8555,9.51756 5.37191,17.14606 1.90675,28.16651 -4.28034,13.61293 -13.06443,26.39343 -29.1616,42.42904 -15.81165,15.75115 -30.71921,24.42209 -53.96866,31.39072 -12.84414,3.84981 -17.44713,4.36284 -43.27701,4.8235 -20.81825,0.37129 -32.49789,-0.15801 -41.75045,-1.89189 z"
           id="path2632"
           inkscape:connector-curvature="0"
           transform="matrix(1.1753675,0,0,1.1556195,-616.26538,-18.641187)" />
        <path
           style="opacity:0.40900005;fill:#ffffff;fill-opacity:0;stroke-width:1.60578656"
           d="m 727.36831,310.06553 c -39.7767,-7.4541 -81.15675,-28.0679 -110.05859,-54.82658 -29.18016,-27.01635 -50.28917,-67.63346 -52.49581,-101.01028 -1.0557,-15.96802 -0.18188,-19.78876 6.18388,-27.03897 6.1548,-7.00993 14.21863,-9.47019 42.35967,-12.92389 50.21368,-6.16263 70.55113,-17.753444 94.88962,-54.079939 18.57725,-27.727536 36.8648,-43.532783 61.38756,-53.0550019 44.88952,-17.4306531 98.28878,-1.1087231 116.33138,35.5576579 4.56158,9.270065 5.18777,12.116779 5.15338,23.427558 -0.0334,10.990713 -0.76144,14.403027 -4.97374,23.312884 -6.00191,12.695231 -17.1019,25.294291 -30.00356,34.055651 -17.40807,11.8216 -26.80634,22.07215 -26.80634,29.2373 0,4.38394 9.81264,13.72934 20.66503,19.68105 29.77618,16.32995 38.63839,22.98286 43.61849,32.74468 4.8555,9.51756 5.37191,17.14606 1.90675,28.16651 -4.28034,13.61293 -13.06443,26.39343 -29.1616,42.42904 -15.81165,15.75115 -30.71921,24.42209 -53.96866,31.39072 -12.84414,3.84981 -17.44713,4.36284 -43.27701,4.8235 -20.81825,0.37129 -32.49789,-0.15801 -41.75045,-1.89189 z"
           id="path2634"
           inkscape:connector-curvature="0"
           transform="matrix(1.1753675,0,0,1.1556195,-616.26538,-18.641187)" />
        <path
           style="opacity:1;fill:#e674e6;fill-opacity:1;stroke-width:1.07796037"
           d="m -109.20056,323.02786 c -49.46959,101.44088 -180.75296,2.57479 -303.36474,34.41509 -128.04034,33.25001 -251.26182,-125.03811 -171.80663,-276.868889 47.25685,-90.3030592 260.57328,-17.773949 286.37824,13.832559 35.95878,44.04314 227.566383,149.11396 188.79313,228.62124 z"
           id="path2643"
           inkscape:connector-curvature="0"
           sodipodi:nodetypes="sssss" />
      </g>
    </g>
  </g>
</svg>
