<?xml version="1.0" encoding="UTF-8" standalone="no"?>
<!-- Created with Inkscape (http://www.inkscape.org/) -->

<svg
   xmlns:dc="http://purl.org/dc/elements/1.1/"
   xmlns:cc="http://creativecommons.org/ns#"
   xmlns:rdf="http://www.w3.org/1999/02/22-rdf-syntax-ns#"
   xmlns:svg="http://www.w3.org/2000/svg"
   xmlns="http://www.w3.org/2000/svg"
   xmlns:sodipodi="http://sodipodi.sourceforge.net/DTD/sodipodi-0.dtd"
   xmlns:inkscape="http://www.inkscape.org/namespaces/inkscape"
   version="1.1"
   id="svg2641"
   width="182.66667"
   height="176"
   viewBox="0 0 182.66667 176"
   sodipodi:docname="reward5.svg"
   inkscape:version="0.92.3 (2405546, 2018-03-11)">
  <metadata
     id="metadata2647">
    <rdf:RDF>
      <cc:Work
         rdf:about="">
        <dc:format>image/svg+xml</dc:format>
        <dc:type
           rdf:resource="http://purl.org/dc/dcmitype/StillImage" />
        <dc:title></dc:title>
      </cc:Work>
    </rdf:RDF>
  </metadata>
  <defs
     id="defs2645" />
  <sodipodi:namedview
     pagecolor="#ffffff"
     bordercolor="#666666"
     borderopacity="1"
     objecttolerance="10"
     gridtolerance="10"
     guidetolerance="10"
     inkscape:pageopacity="0"
     inkscape:pageshadow="2"
     inkscape:window-width="1366"
     inkscape:window-height="705"
     id="namedview2643"
     showgrid="false"
     inkscape:zoom="1.3409091"
     inkscape:cx="91.333336"
     inkscape:cy="88"
     inkscape:window-x="-8"
     inkscape:window-y="-8"
     inkscape:window-maximized="1"
     inkscape:current-layer="svg2641" />
  <path
     style="opacity:1;fill:#036781;fill-opacity:1;stroke-width:0.99785239"
     d="M 182.71187,80.203147 C 182.64662,132.87983 126.09337,176.73953 68.237288,175.2544 22.32866,174.07596 8.2033899,150.97207 2.2372872,108.42053 -4.0839659,63.335985 13.374274,2.7735925 59.288134,3.7287663 123.96368,5.0742511 182.77078,32.64237 182.71187,80.203147 Z"
     id="path3210"
     inkscape:connector-curvature="0"
     sodipodi:nodetypes="sssss" />
  <g
     id="g3226"
     transform="matrix(1.1442866,0,0,1.1335467,244.01596,18.000095)">
    <ellipse
       ry="49.966099"
       rx="52.203388"
       cy="63.389828"
       cx="-132.74576"
       id="path3213"
       style="opacity:1;fill:#ffffff;fill-opacity:1;stroke-width:1.08079576" />
    <g
       transform="matrix(0.63405654,0,0,0.61784373,-191.41809,9.5060321)"
       id="g3194">
      <path
         inkscape:connector-curvature="0"
         id="path3208"
         d="m 80.666668,172.40325 c -7.219324,-0.9575 -18.395266,-4.5644 -25.933511,-8.36969 C 5.4934778,139.17745 -8.5678362,76.768588 25.431694,33.983767 52.242636,0.24502532 99.773715,-8.44645 137.05599,13.572285 c 9.61048,5.675912 23.69581,19.761243 29.37173,29.371735 2.43524,4.123369 6.01475,11.897797 7.95446,17.276508 3.14088,8.709483 3.52317,11.675944 3.49416,27.112805 -0.0295,15.674307 -0.3902,18.290467 -3.7689,27.333337 -5.19124,13.894 -11.19813,23.28353 -21.0286,32.87028 -20.25578,19.75357 -45.5279,28.43201 -72.412172,24.8663 z m 23.601042,-25.87669 c 28.22618,-5.88621 49.03397,-31.00512 49.03397,-59.193227 0,-33.016646 -27.61836,-60.635016 -60.635012,-60.635016 -39.143063,0 -68.431269,37.597767 -58.622789,75.255063 8.083491,31.03462 39.505466,50.97909 70.223831,44.57318 z M 58.197202,133.65241 c -0.378966,-0.61318 2.271631,-4.5844 5.890218,-8.82493 3.618587,-4.24053 6.53188,-8.41148 6.473985,-9.26877 -0.07262,-1.07542 -0.313784,-1.04194 -0.777778,0.10796 -0.377351,0.93517 -2.964523,1.66666 -5.894737,1.66666 -4.577105,0 -5.222222,-0.38306 -5.222222,-3.10091 0,-4.64193 5.556665,-9.16575 11.258405,-9.16575 5.629238,0 11.401987,3.3509 11.423047,6.63073 0.01067,1.66033 0.967394,1.09389 3.429971,-2.03073 2.895829,-3.67436 4.27758,-4.33334 9.086129,-4.33334 6.1891,0 11.3742,3.91982 11.57788,8.7526 0.0765,1.81399 0.68145,1.26962 2.03632,-1.83223 3.5737,-8.18168 15.13968,-9.72957 20.85492,-2.79104 2.89261,3.51175 3.08899,13.20847 0.37384,18.459 -4.31566,8.34555 -16.03707,7.74111 -20.69095,-1.06698 -1.96557,-3.7201 -2.57881,-4.20787 -2.62397,-2.0871 -0.0916,4.30425 -6.079146,9.09909 -11.362396,9.09909 -5.486538,0 -9.389569,-3.21986 -11.442198,-9.43938 -1.393003,-4.22084 -1.652619,-4.39275 -3.280399,-2.17211 -1.530198,2.08751 -1.411252,2.54451 0.885376,3.40163 1.938545,0.72349 2.539173,1.9803 2.230205,4.66667 -0.421361,3.6636 -0.463453,3.67787 -11.979731,4.06016 -6.356286,0.211 -11.866948,-0.118 -12.245915,-0.73123 z m 37.161549,-15.88812 c -0.959239,-3.68702 -1.002891,-3.70268 -2.126629,-0.7628 -1.40107,3.66541 -0.14866,7.78172 1.780636,5.85242 0.748556,-0.74856 0.89913,-2.96353 0.345993,-5.08962 z M 120,119.33333 c 0,-2.56666 -0.6,-4.66666 -1.33333,-4.66666 -0.73333,0 -1.33333,2.1 -1.33333,4.66666 0,2.56667 0.6,4.66667 1.33333,4.66667 C 119.4,124 120,121.9 120,119.33333 Z M 42.666667,78.702436 V 56.07154 l 24.595241,0.06112 24.59524,0.06112 1.508163,4.569779 c 1.921177,5.821221 3.362137,5.779004 5.320831,-0.155894 l 1.559608,-4.72567 18.21046,0.530742 c 10.79384,0.314586 19.64993,1.21578 21.74485,2.212755 3.47426,1.653395 3.5005,1.764464 1.54298,6.528261 -2.64281,6.431503 -4.02742,7.762868 -6.0107,5.779583 -1.83084,-1.830845 -9.60302,-2.213183 -8.49342,-0.417817 0.40184,0.6502 2.90429,1.589964 5.56099,2.088364 C 139.73707,73.905111 144,78.659061 144,85.092916 c 0,12.314569 -13.81253,19.538204 -28.13437,14.713628 -7.39848,-2.492321 -7.92667,-3.324359 -5.64078,-8.885841 2.81916,-6.858892 3.46909,-7.268602 7.88085,-4.967946 4.31738,2.251442 8.56097,2.683782 8.56097,0.872196 0,-0.646276 -2.66604,-1.846362 -5.92453,-2.666861 -6.17764,-1.555545 -10.04478,-5.424355 -10.11708,-10.121433 -0.0313,-2.031907 -0.85748,-1.378699 -3.32651,2.630008 -2.69592,4.37709 -3.28611,7.066524 -3.29172,15 L 104,101.33333 H 95.333335 86.666668 V 91.26712 c 0,-6.463449 -0.736136,-11.489744 -2.056784,-14.043595 -2.009898,-3.886716 -4.609883,-4.210985 -4.609883,-0.574942 0,1.003494 -1.542745,3.038061 -3.428324,4.521257 l -3.428324,2.696719 5.428324,7.993561 c 2.985579,4.396459 5.428325,8.32648 5.428325,8.73339 0,0.4069 -4.188501,0.73982 -9.307778,0.73982 H 65.384447 L 62.087638,95 58.790832,88.666667 58.728749,95 l -0.06208,6.33333 h -8 -8.000001 z m 21.69248,-4.369103 c 0.955112,-2.738118 -0.478226,-5 -3.168465,-5 -1.803393,0 -2.524014,0.951687 -2.524014,3.333334 0,2.396134 0.718518,3.333333 2.555556,3.333333 1.405554,0 2.817171,-0.75 3.136923,-1.666667 z"
         style="fill:#d0d0d0;stroke-width:1.33333337" />
      <path
         inkscape:connector-curvature="0"
         id="path3206"
         d="M 80.929557,171.84279 C 47.9966,167.56012 18.676967,141.76643 9.8751719,109.33333 6.6530264,97.460283 6.6791224,75.418108 9.9280534,64.666667 17.035004,41.148175 33.650002,21.159956 54.666668,10.845103 75.748291,0.49836813 97.913047,-1.2477649 118.80214,5.7925291 c 14.81446,4.9929509 22.10497,9.6029269 33.92704,21.4529359 11.49486,11.522027 18.40424,22.880592 22.76321,37.421202 3.29373,10.987257 3.29373,34.346076 0,45.333333 -6.63096,22.11953 -24.31599,43.70368 -43.49341,53.08267 -16.4399,8.04016 -33.759804,11.0111 -51.069423,8.76012 z M 107.0756,146.01111 c 27.87976,-7.26175 46.28892,-30.58536 46.24191,-58.586445 C 153.27155,60.052937 136.5489,37.285945 110.54539,29.192747 66.207507,15.393245 22.94441,55.77082 33.413191,101.18045 c 7.402051,32.10732 41.901248,53.10339 73.662409,44.83066 z M 58.666668,132.52856 c 0,-0.44262 3.021637,-4.42098 6.714749,-8.8408 3.693114,-4.41982 6.383114,-8.36768 5.977779,-8.77301 -0.405335,-0.40534 -1.446972,-0.027 -2.314751,0.84081 -0.867777,0.86777 -3.557777,1.57777 -5.977777,1.57777 -3.543704,0 -4.4,-0.53076 -4.4,-2.72727 0,-1.5 1.472726,-4.2 3.272726,-6 6.290942,-6.29094 19.304825,-2.86948 19.44613,5.11255 0.04351,2.45784 0.358035,2.24495 1.891492,-1.28029 3.35898,-7.72192 12.939338,-9.67651 18.783594,-3.83226 2.69426,2.69426 3.27273,4.59035 3.27273,10.72727 0,6.13693 -0.57847,8.03302 -3.27273,10.72728 -7.196187,7.19618 -19.393942,2.11784 -19.393942,-8.07436 v -4.80162 l -3.234219,3.74102 -3.234218,3.74102 2.900885,0.71939 c 1.928596,0.47828 3.042292,1.93068 3.322782,4.33333 l 0.421897,3.61394 H 70.755231 c -6.64871,0 -12.088563,-0.36214 -12.088563,-0.80477 z m 37.333334,-14.05169 c 0,-2.63302 -0.578399,-3.83984 -1.666667,-3.47749 -1.963355,0.65371 -2.879291,4.32137 -1.788848,7.16301 1.211533,3.15721 3.455515,0.76386 3.455515,-3.68552 z m 14.707538,11.56664 c -2.05413,-2.18652 -3.29807,-5.44872 -3.70918,-9.72724 -0.53291,-5.54613 -0.12077,-7.029 2.97674,-10.71018 3.60594,-4.28542 9.08141,-5.57441 14.63183,-3.44452 3.2078,1.23095 6.05974,7.66453 6.05974,13.66992 0,11.64585 -12.57008,18.0773 -19.95913,10.21202 z M 120,119.33333 c 0,-2.56666 -0.6,-4.66666 -1.33333,-4.66666 -0.73333,0 -1.33333,2.1 -1.33333,4.66666 0,2.56667 0.6,4.66667 1.33333,4.66667 C 119.4,124 120,121.9 120,119.33333 Z M 42.666667,78.666667 V 56 h 11.913201 c 6.552261,0 13.452261,0.585149 15.333333,1.300332 2.222223,0.844888 3.420134,0.844888 3.420134,0 C 73.333335,56.585149 77.277892,56 82.099017,56 H 90.8647 l 2.234318,5.319772 c 1.228874,2.925875 2.534317,5.319772 2.900984,5.319772 0.366666,0 1.672109,-2.393897 2.900984,-5.319772 L 101.1353,56 h 8.76569 c 4.82112,0 8.76568,0.551636 8.76568,1.225857 0,0.727024 1.95443,0.686211 4.80293,-0.100293 5.11147,-1.411344 17.12291,0.597059 18.68479,3.124236 0.44705,0.723349 -0.23588,3.64078 -1.51763,6.483179 -1.9478,4.319469 -2.7243,4.957209 -4.72928,3.884178 -3.01312,-1.612578 -9.24081,-1.679213 -9.24081,-0.09888 0,0.65172 2.19028,1.595844 4.86728,2.098053 6.26707,1.175709 12.46767,7.286763 12.46107,12.281104 -0.008,5.633172 -4.71918,12.317437 -10.33718,14.664788 -5.40024,2.256368 -14.52129,1.809718 -20.7201,-1.014653 -4.1932,-1.910552 -4.41055,-3.433263 -1.39321,-9.760695 2.15855,-4.526512 2.29984,-4.591088 5.93379,-2.711901 C 119.52574,87.133739 122.4307,88 123.93379,88 128.69095,88 126.8898,85.495776 121,83.921028 c -7.15393,-1.91274 -8.61576,-3.136283 -9.7124,-8.129244 l -0.88381,-4.023956 -3.20189,4.712015 C 104.51572,80.432903 104,82.824176 104,91.326219 v 10.134361 l -8.333332,-0.39696 -8.333333,-0.39695 -0.20592,-10.091595 C 86.977488,83.227536 86.220867,79.331392 84.34485,76.246528 c -2.621089,-4.310035 -4.344849,-4.358071 -4.344849,-0.121079 0,1.291219 -1.583564,3.593303 -3.519032,5.115742 l -3.519032,2.76807 5.185699,7.662036 c 2.852135,4.21412 5.385699,8.112036 5.630143,8.662033 0.244445,0.55 -3.655555,0.99756 -8.666667,0.99458 l -9.111111,-0.005 L 62.371565,94.994573 58.743129,88.666667 58.704898,95 l -0.03823,6.33333 h -8 -8.000001 z M 64.857681,73.98302 C 65.767005,71.613361 63.137304,68 60.503408,68 c -1.151934,0 -1.83674,1.491352 -1.83674,4 0,3.131711 0.587942,4 2.708513,4 1.489681,0 3.056807,-0.907641 3.4825,-2.01698 z"
         style="fill:#b1b1b1;stroke-width:1.33333337" />
      <path
         inkscape:connector-curvature="0"
         id="path3204"
         d="M 70.000001,169.48303 C 23.575164,155.97925 -2.8029141,108.26022 10.954161,62.666667 15.091687,48.954124 22.071062,37.662767 33.206547,26.666361 59.795157,0.40983735 96.414167,-5.5319645 130.52145,10.876042 c 16.05063,7.721489 31.03186,22.68471 38.50358,38.457291 7.12284,15.036136 8.97345,23.33969 8.76621,39.333334 -0.49872,38.488373 -26.51649,71.501723 -64.00648,81.216363 -11.05862,2.86557 -33.255125,2.6628 -43.784759,-0.4 z m 44.666669,-25.3158 c 14.60311,-5.6054 29.02488,-19.84168 34.82359,-34.37567 2.61652,-6.55811 3.114,-10.229872 3.14252,-23.194044 0.0332,-15.093405 -0.0647,-15.602001 -4.88007,-25.345195 -6.37892,-12.906878 -16.05553,-22.577506 -29.01689,-28.998949 -9.7888,-4.849664 -10.1607,-4.920039 -26.000001,-4.920039 -15.32797,0 -16.486584,0.197724 -25.11929,4.286744 -51.922665,24.594004 -45.633291,98.803863 9.716806,114.650993 8.721192,2.49693 28.208365,1.39878 37.333335,-2.10384 z M 58.666668,132.56139 c 0,-0.42456 3.094641,-4.32992 6.876981,-8.67857 3.782339,-4.34865 6.472339,-8.31128 5.977778,-8.80584 -0.494562,-0.49456 -1.609203,-0.1892 -2.476982,0.67858 -0.867777,0.86777 -3.622822,1.57777 -6.122321,1.57777 -4.279236,0 -4.493867,-0.21406 -3.676479,-3.66666 1.896897,-8.0124 11.723363,-10.95904 18.574544,-5.5699 4.443378,3.49516 4.716279,9.78402 0.61406,14.15063 l -2.899085,3.08593 h 2.899085 c 2.332318,0 2.899086,0.782 2.899086,4 v 4 H 70.000001 c -6.233333,0 -11.333333,-0.34737 -11.333333,-0.77194 z m 29.638614,-0.12045 c -5.070216,-2.03999 -7.241951,-14.80619 -3.687927,-21.67891 3.348851,-6.47597 12.048045,-7.55118 17.443255,-2.15597 2.69426,2.69426 3.27273,4.59035 3.27273,10.72727 0,6.13693 -0.57847,8.03302 -3.27273,10.72728 -3.138918,3.13891 -9.244115,4.1954 -13.755328,2.38033 z m 7.69472,-13.10761 c 0,-3.25926 -0.603175,-4.66666 -2,-4.66666 -2.0391,0 -2.913107,6.64244 -1.111111,8.44444 1.992641,1.99264 3.111111,0.6345 3.111111,-3.77778 z m 15.074348,10.78212 c -3.28137,-2.82253 -3.74101,-4.14727 -3.74101,-10.78212 0,-6.63484 0.45964,-7.95958 3.74101,-10.78211 2.08739,-1.79549 5.4434,-3.21789 7.59232,-3.21789 2.14892,0 5.50493,1.4224 7.59231,3.21789 3.28138,2.82253 3.74102,4.14727 3.74102,10.78211 0,6.63485 -0.45964,7.95959 -3.74102,10.78212 -2.08738,1.79549 -5.44339,3.21788 -7.59231,3.21788 -2.14892,0 -5.50493,-1.42239 -7.59232,-3.21788 z M 120,119.33333 c 0,-2.56666 -0.6,-4.66666 -1.33333,-4.66666 -0.73333,0 -1.33333,2.1 -1.33333,4.66666 0,2.56667 0.6,4.66667 1.33333,4.66667 C 119.4,124 120,121.9 120,119.33333 Z M 42.967762,79 43.333334,56.666667 52.532678,56.267869 c 5.059639,-0.219338 11.809639,0.157924 15.000001,0.838363 3.283965,0.700401 5.800656,0.728804 5.800656,0.06546 C 73.333335,56.527263 77.281601,56 82.107261,56 h 8.773927 l 2.094994,5.333333 c 1.152246,2.933334 2.512965,5.333334 3.02382,5.333334 0.510854,0 1.871573,-2.4 3.02382,-5.333334 L 101.11882,56 h 8.77392 c 4.82566,0 8.77393,0.488285 8.77393,1.08508 0,0.596793 3.60139,0.824579 8.00309,0.506188 6.77172,-0.489821 15.99691,1.361441 15.99691,3.210177 0,0.262859 -0.94532,2.840514 -2.10071,5.728123 l -2.10072,5.2502 -4.62464,-1.9323 c -4.44486,-1.85718 -7.17393,-1.575824 -7.17393,0.739601 0,0.602996 2.58969,1.748448 5.75486,2.545448 7.42593,1.869871 10.85121,5.682664 10.85121,12.07887 0,6.893586 -3.39596,11.439246 -10.60192,14.191229 -5.23154,1.997944 -7.10236,2.107584 -13.05538,0.765144 -10.77911,-2.430748 -11.14222,-2.864227 -8.40433,-10.033288 l 2.32825,-6.096415 3.83077,1.980971 C 119.47706,87.108563 122.4807,88 124.0449,88 c 4.71633,0 2.1895,-3.145579 -3.71662,-4.626704 -6.45884,-1.619737 -7.21383,-2.258788 -9.07249,-7.679308 l -1.41087,-4.114627 -2.92246,4.9532 C 104.62017,80.434649 104,83.591672 104,91.409547 v 9.923783 h -7.999998 -8 v -9.549519 c 0,-7.97567 -0.593342,-10.55769 -3.60016,-15.666667 L 80.799681,70 79.853069,74.570495 c -0.520637,2.513772 -2.322384,5.608241 -4.003881,6.876597 l -3.057269,2.306103 4.937374,7.436224 c 2.715556,4.089922 4.937375,8.045453 4.937375,8.790069 0,0.772822 -3.601103,1.353842 -8.390904,1.353842 h -8.390903 l -3.527968,-6.999997 -3.527969,-7 -0.08113,7 -0.08113,6.999997 H 50.634429 42.60219 Z M 64.857681,73.98302 C 65.767005,71.613361 63.137304,68 60.503408,68 c -1.151934,0 -1.83674,1.491352 -1.83674,4 0,3.131711 0.587942,4 2.708513,4 1.489681,0 3.056807,-0.907641 3.4825,-2.01698 z"
         style="fill:#8e8e8e;stroke-width:1.33333337" />
      <path
         inkscape:connector-curvature="0"
         id="path3202"
         d="M 72.000001,169.90535 C 49.086456,163.9088 28.27261,147.55369 17.734855,127.26488 10.553819,113.43891 7.846918,102.57338 7.8297827,87.505807 7.8142656,73.861309 9.2448167,66.112873 13.890082,54.680808 27.974698,20.018352 67.092519,-2.9409531 102.76207,2.5194349 c 19.23849,2.9450778 33.71928,9.5120741 46.68979,21.1736761 44.55374,40.05764 35.09182,112.645539 -18.11852,138.997759 -5.86667,2.90545 -14.24273,6.18858 -18.61347,7.29588 -9.94373,2.51916 -30.943227,2.47717 -40.719869,-0.0813 z M 110.50014,145.488 c 11.18727,-3.48187 18.35091,-7.97725 26.58328,-16.68177 C 164.9221,99.370927 156.80131,51.237508 120.94249,33.136037 88.456091,16.736953 52.142586,29.747095 36.36419,63.438144 c -3.397101,7.253712 -3.697523,9.195177 -3.697523,23.895189 0,15.236107 0.203798,16.430237 4.268602,25.011367 4.806516,10.14695 15.478459,22.22258 24.10964,27.28079 14.246346,8.34891 33.958525,10.68563 49.455231,5.86251 z M 60.158322,131 c 0.999996,-1.28333 4.179315,-5.19748 7.065154,-8.69811 3.937321,-4.77611 4.866372,-6.74538 3.722128,-7.88962 -1.144244,-1.14424 -1.737767,-0.97 -2.377877,0.69811 -0.818254,2.13233 -7.182467,3.16377 -8.903298,1.44294 -1.595863,-1.59587 1.916981,-8.23831 5.131343,-9.70287 4.937023,-2.24946 9.084839,-1.85255 13.024417,1.24632 4.32155,3.39933 4.616969,8.80699 0.749706,13.72342 l -2.76344,3.51314 h 2.76344 c 2.1816,0 2.76344,0.8422 2.76344,4 v 4 H 69.836741 c -10.752885,0 -11.378976,-0.15094 -9.678419,-2.33333 z m 28.14696,1.44094 c -4.74314,-1.90839 -7.195329,-14.23218 -4.158251,-20.89784 2.812671,-6.17314 12.529817,-8.19959 17.152389,-3.57701 5.42877,5.42876 5.309,18.68511 -0.20715,22.92893 -2.944271,2.26516 -9.138218,3.01399 -12.786988,1.54592 z m 7.458509,-13.93806 c -0.236751,-2.47659 -1.030456,-4.37153 -1.763789,-4.211 -1.61203,0.35289 -2.514394,6.44445 -1.389055,9.37704 1.359599,3.54306 3.6298,-0.17675 3.152844,-5.16604 z m 15.597299,11.64609 c -9.78428,-9.78429 -1.32862,-28.32495 10.97225,-24.05873 5.04661,1.75028 8.6551,9.09178 7.81893,15.90768 -1.24654,10.1609 -12.08146,14.86076 -18.79118,8.15105 z m 9.95183,-10.98571 c 0.0112,-1.56021 -0.81049,-3.52633 -1.82605,-4.36917 -1.47364,-1.22301 -2.01858,-0.84663 -2.69893,1.8641 -1.07164,4.26973 1.57312,9.97056 3.33496,7.18861 0.64328,-1.01574 1.17879,-3.12333 1.19002,-4.68354 z M 43.615451,100.50434 C 43.093621,99.982508 42.666667,90.065885 42.666667,78.4674 V 57.379244 l 24.494332,0.05321 24.494332,0.05321 2.289749,5.590502 2.289751,5.590504 2.158124,-5.666666 2.158125,-5.666667 h 9.13648 c 6.30403,0 8.85553,0.454595 8.23023,1.466357 -0.65898,1.066255 -0.15866,1.066255 1.83365,0 3.5184,-1.88299 13.31826,-1.884346 18.71627,-0.0025 2.30943,0.805072 4.19896,1.631797 4.19896,1.837168 0,0.205371 -0.92203,2.580117 -2.04895,5.277216 -1.74377,4.173452 -2.48846,4.759065 -5,3.931941 -4.55837,-1.501212 -7.95889,-1.336408 -8.56901,0.415294 -0.32949,0.945976 1.78009,2.213753 5.19839,3.124037 10.40164,2.769931 13.83873,9.152005 9.66533,17.946815 -2.68704,5.662424 -8.52848,9.044415 -15.91243,9.212655 -5.56174,0.12672 -16.66666,-2.933491 -16.66666,-4.592875 0,-0.526399 0.93005,-3.183023 2.06678,-5.90361 1.60998,-3.853216 2.56776,-4.725612 4.33334,-3.947044 3.91239,1.725247 12.26654,2.271831 12.26654,0.80256 0,-0.758322 -3.24119,-2.321008 -7.20264,-3.472633 -6.05589,-1.760496 -7.43318,-2.755215 -8.6507,-6.247771 -0.79643,-2.284648 -1.11983,-4.684984 -0.71867,-5.33408 0.40117,-0.649096 0.24398,-1.176381 -0.3493,-1.171744 -3.01061,0.02353 -6.35953,9.22482 -7.03354,19.324903 l -0.71181,10.666674 -7.666672,0.39987 -7.666666,0.39987 v -9.616066 c 0,-8.018905 -0.592318,-10.626775 -3.56619,-15.701303 -1.961404,-3.346884 -3.708921,-5.499598 -3.883372,-4.78381 -0.174451,0.715788 -0.686217,2.971837 -1.137261,5.013444 -0.464164,2.100996 -2.199208,4.340385 -3.997795,5.159876 l -3.177716,1.447864 4.590991,7.176876 c 7.394939,11.560149 7.436453,11.365569 -2.326578,10.904709 l -8.50208,-0.40133 -3.581073,-6.64035 -3.581074,-6.640343 -0.418926,6.640343 -0.418927,6.64035 -6.717883,0.39323 c -3.694834,0.21627 -7.144835,-0.0337 -7.666667,-0.55556 z M 65.080913,71.576452 c -0.261721,-1.838412 -1.518836,-3.066663 -3.414245,-3.335853 -2.519991,-0.357896 -3,0.193226 -3,3.444444 0,4.903128 1.023601,5.907877 4.256222,4.17783 1.600401,-0.856508 2.415757,-2.476026 2.158023,-4.286421 z"
         style="fill:#717171;stroke-width:1.33333337" />
      <path
         inkscape:connector-curvature="0"
         id="path3200"
         d="M 73.221829,170.04952 C 44.604747,162.79633 22.767635,143.05601 12.312531,114.98873 7.8840021,103.10012 6.7303161,80.957487 9.8473984,67.675596 17.359411,35.666901 42.600471,11.284018 75.831707,3.9347077 90.253551,0.74522031 95.106999,0.75136623 109.69787,3.9775925 c 30.00232,6.6338905 53.84999,27.6803265 63.84073,56.3417725 3.56514,10.227632 4.82402,32.076588 2.54148,44.109145 -2.56428,13.5177 -12.1635,31.32418 -22.55748,41.84388 -16.69049,16.8924 -34.36372,24.55922 -58.189265,25.24309 -9.578711,0.27495 -17.249327,-0.2336 -22.111506,-1.46596 z m 43.340031,-26.45664 c 21.06424,-9.7504 34.62996,-27.98853 37.41837,-50.306272 2.95635,-23.661704 -12.10797,-50.529772 -34.2579,-61.10096 C 80.63212,13.529613 37.267661,37.736091 31.382909,81.4976 c -2.779584,20.67016 10.714378,46.93681 29.933016,58.26605 11.463374,6.75758 18.105502,8.32859 33.350743,7.88823 11.933822,-0.34471 15.165202,-0.94376 21.895192,-4.059 z M 61.978328,129 c 9.963007,-12.31779 10.446468,-13.10854 8.937213,-14.61779 -1.10416,-1.10416 -1.717705,-0.91387 -2.347814,0.72817 -0.818254,2.13233 -7.182467,3.16377 -8.903298,1.44294 -1.595863,-1.59587 1.916981,-8.23831 5.131343,-9.70287 5.237385,-2.38631 9.715607,-1.79362 13.264836,1.75561 3.967351,3.96735 4.17943,8.5483 0.60606,13.0911 -1.466667,1.86457 -2.666667,3.68931 -2.666667,4.05499 0,0.36567 1.2,0.35106 2.666667,-0.0325 2.245417,-0.58719 2.666667,-0.0409 2.666667,3.45816 v 4.1555 H 69.903364 58.473393 Z m 24.422018,0.27214 c -3.721734,-3.72173 -4.006096,-4.63463 -3.402003,-10.92155 1.008009,-10.49055 7.783091,-15.33783 16.125225,-11.53689 4.081342,1.85958 6.209772,6.4359 6.209772,13.3516 0,4.16098 -0.87926,6.25242 -3.89744,9.2706 -5.113372,5.11337 -9.809573,5.06222 -15.035554,-0.16376 z m 9.363445,-10.76926 c -0.236751,-2.47659 -1.030456,-4.37153 -1.763789,-4.211 -1.61203,0.35289 -2.514394,6.44445 -1.389055,9.37704 1.359599,3.54306 3.6298,-0.17675 3.152844,-5.16604 z m 15.508939,11.55773 C 108.61776,127.40564 108,125.4482 108,119.69061 c 0,-8.6768 2.49148,-12.62011 8.71088,-13.78687 9.2804,-1.74102 15.56361,7.17365 12.65897,17.96066 -2.53149,9.40124 -11.73942,12.55391 -18.09712,6.19621 z m 9.42448,-7.49017 c 1.03865,-3.27248 -0.23091,-9.23711 -1.96609,-9.23711 -1.82734,0 -3.08147,5.08923 -2.15944,8.7629 0.99522,3.96526 2.94633,4.18953 4.12553,0.47421 z M 42.666667,78.692147 V 57.384293 l 24.488365,0.08091 24.488363,0.08091 1.725049,5.226949 c 0.948778,2.874823 2.079014,5.220848 2.511638,5.213389 0.432622,-0.0075 1.792029,-2.407458 3.020904,-5.333333 l 2.234314,-5.319779 h 8.09902 c 4.69397,0 8.09902,0.580294 8.09902,1.380246 0,0.951437 0.80123,0.951437 2.57901,0 3.37841,-1.808074 13.25667,-1.76361 18.55536,0.08352 2.30943,0.805072 4.19896,1.684716 4.19896,1.954764 0,0.270049 -1.01981,2.629569 -2.26625,5.243381 -1.63635,3.43146 -2.8408,4.499243 -4.33334,3.84164 -3.83551,-1.689901 -8.73374,-1.257999 -8.73374,0.7701 0,1.195764 2.04655,2.352561 5.33333,3.014629 6.81653,1.373079 10,5.190931 10,11.992766 0,4.271229 -0.89297,6.211928 -4.53333,9.852288 C 134.05099,99.549012 132.85294,100 126.09051,100 c -6.49224,0 -16.75717,-2.717236 -16.75717,-4.435799 0,-1.092858 4.03871,-10.230868 4.52172,-10.230868 0.26727,0 2.62568,0.894039 5.24091,1.986754 4.90343,2.04878 9.38782,1.464618 8.52926,-1.111067 -0.26811,-0.804335 -2.91626,-2.080411 -5.88477,-2.835724 C 114.62619,81.563129 112,79.171661 112,74.503407 c 0,-5.243263 -1.62678,-4.813276 -5.08781,1.3448 C 104.67666,79.8258 104,83.23364 104,90.514873 V 100 h -7.999998 -8 v -9.165396 c 0,-7.489317 -0.661588,-10.349105 -3.617799,-15.638343 l -3.6178,-6.472946 -0.94433,4.617256 c -0.519381,2.53949 -2.443982,5.907202 -4.276892,7.483805 l -3.332562,2.866549 3.013836,4.487871 c 1.65761,2.468329 4.079228,6.137871 5.381372,8.154537 L 82.973362,100 H 74.37756 65.781759 L 62.256648,93.666667 58.731537,87.333333 58.699102,93.666667 58.666668,100 h -8 -8.000001 z m 21.116657,-2.530018 c 2.853881,-1.808949 1.352223,-7.428872 -2.116656,-7.92153 -2.630391,-0.373575 -3,0.160304 -3,4.333333 0,4.795395 1.52496,5.864816 5.116656,3.588197 z"
         style="fill:#4d4d4d;stroke-width:1.33333337" />
      <path
         inkscape:connector-curvature="0"
         id="path3198"
         d="M 74.000001,169.87452 C 58.154102,166.33209 46.17906,159.50608 33.285855,146.66667 15.855922,129.30945 8.0631177,110.97232 8.0197083,87.213284 7.9595517,54.288191 26.882972,24.560235 56.926984,10.381863 61.470158,8.237848 71.070159,5.2613235 78.260317,3.7673643 90.029748,1.3219316 92.39697,1.2180661 102,2.7257487 133.32007,7.6430201 156.52043,24.053791 168.83291,50 c 7.08223,14.924417 8.94235,24.360045 8.1484,41.333333 -1.04815,22.407607 -7.19112,36.954037 -22.5306,53.351987 -16.06889,17.17769 -34.80637,25.75093 -58.450708,26.7438 -8.441056,0.35447 -15.780275,-0.16416 -22.000001,-1.5546 z M 113.33334,144.96533 C 134.81566,137.1222 149.43352,119.6727 153.47731,97.045023 159.37591,64.038472 135.51174,31.594704 101.45786,26.323656 61.500124,20.138775 25.292296,56.490008 31.851246,96.205955 38.228969,134.82453 77.212927,158.15277 113.33334,144.96533 Z M 65.217937,125.21674 c 6.398846,-7.65797 8.364256,-11.88341 5.52742,-11.88341 -0.690054,0 -1.625464,0.6 -2.078689,1.33334 C 68.213443,115.4 66.078033,116 63.921312,116 c -5.169462,0 -5.298415,-4.05656 -0.255062,-8.02366 2.781511,-2.18793 4.792509,-2.70371 8.333334,-2.13732 8.930967,1.42859 12.14169,10.14092 6.000417,16.28219 -1.833333,1.83334 -3.333333,3.60606 -3.333333,3.9394 0,0.33333 1.5,0.60606 3.333333,0.60606 2.666667,0 3.333334,0.66666 3.333334,3.33333 0,3.29675 -0.12564,3.33333 -11.448731,3.33333 H 58.435873 Z m 24.115398,6.42347 c -4.818289,-2.4837 -7.100564,-8.09922 -6.073981,-14.94496 1.051694,-7.0132 4.692704,-10.56192 10.836594,-10.56192 7.168882,0 10.570722,4.24798 10.570722,13.2 0,5.49716 -0.6473,7.89515 -2.66667,9.8789 -3.605804,3.54221 -8.634966,4.50621 -12.666665,2.42798 z m 6.666667,-12.41799 c 0,-4.29187 -0.496155,-5.94819 -1.666667,-5.56384 -1.821717,0.59818 -2.963108,6.77728 -1.807944,9.78758 1.529297,3.98529 3.474611,1.62057 3.474611,-4.22374 z M 114,131.79369 c -4.60269,-2.51748 -6,-5.4201 -6,-12.46378 0,-10.80979 7.32514,-16.48252 15.69482,-12.15439 4.7134,2.43739 5.63852,4.43213 5.63852,12.15781 0,7.66149 -0.9284,9.72212 -5.4287,12.04932 -4.4495,2.30092 -6.30833,2.37807 -9.90464,0.41104 z m 6.66667,-12.57147 c 0,-3.7317 -0.56563,-5.22222 -1.98174,-5.22222 -2.34461,0 -3.25125,3.56207 -2.08716,8.20018 1.26158,5.02654 4.0689,2.97191 4.0689,-2.97796 z M 42.666667,78.666667 V 57.333333 h 13.420989 c 7.381544,0 14.581544,0.621111 16,1.380246 1.777779,0.951437 2.579012,0.951437 2.579012,0 0,-0.800107 3.407609,-1.380246 8.10726,-1.380246 h 8.10726 l 2.094994,5.333334 C 94.128428,65.6 95.489147,68 96.000002,68 c 0.510854,0 1.871573,-2.4 3.02382,-5.333333 l 2.094998,-5.333334 h 7.99614 c 4.81414,0 8.19838,0.606678 8.50433,1.524531 0.38127,1.14382 1.21954,1.14382 3.35679,0 3.91315,-2.094255 11.51766,-1.911121 17.07582,0.411221 l 4.6329,1.935754 -2.27532,4.771394 c -1.63713,3.433106 -2.85509,4.520162 -4.3424,3.875675 -1.13689,-0.492645 -3.77585,-1.187587 -5.86435,-1.544315 -3.09626,-0.52886 -3.71162,-0.213177 -3.33333,1.71003 0.28748,1.46155 2.65968,3.006205 6.23707,4.06127 3.17523,0.936455 6.60615,2.801799 7.62427,4.14521 2.49244,3.28879 2.41538,11.1647 -0.145,14.82017 -4.69756,6.706699 -17.04984,9.026007 -26.668,5.007286 l -4.66328,-1.948443 2.08206,-4.983071 c 1.14514,-2.740689 2.2886,-5.189608 2.54103,-5.442038 0.25243,-0.252432 2.57872,0.551869 5.16952,1.787337 4.89575,2.33462 9.57567,1.736191 8.62913,-1.103421 -0.30006,-0.900172 -3.11542,-2.380718 -6.25635,-3.290103 -7.65816,-2.217244 -9.19784,-3.729541 -9.67874,-9.506636 l -0.40777,-4.898517 -4.308,6.666666 C 103.26529,81.152041 102.71411,83.144744 102.692,91 l -0.0253,9 h -7.333335 -7.333333 v -9.42924 c 0,-7.853375 -0.605534,-10.462504 -3.623227,-15.611808 l -3.623226,-6.182568 -0.938066,4.586631 c -0.526572,2.574654 -2.515368,5.844328 -4.533786,7.453757 l -3.595718,2.867127 5.540025,8.15805 L 82.766031,100 h -8.45066 -8.450662 l -2.915024,-6 c -1.603264,-3.3 -3.522824,-6 -4.265688,-6 -0.742864,0 -1.350663,2.7 -1.350663,6 v 6 h -7.333333 -7.333334 z m 21.116657,-2.504538 c 0.980828,-0.621702 1.580828,-2.562516 1.333333,-4.312916 -0.330952,-2.340658 -1.419944,-3.294152 -4.116656,-3.604442 -3.254013,-0.374416 -3.666667,0.01323 -3.666667,3.444444 0,5.510864 2.298155,7.10458 6.44999,4.472914 z"
         style="fill:#2f2f2f;stroke-width:1.33333337" />
      <g
         id="g3229">
        <path
           style="fill:#010101;stroke-width:1.33333337"
           d="M 82.666668,171.21959 C 51.703325,165.75563 29.802037,150.21703 17.294008,124.83877 7.9612143,105.90293 5.7483513,86.639201 10.674453,67.213284 15.067218,49.890565 20.292598,40.787516 33.211442,27.951965 47.369114,13.885573 58.25178,8.1452885 78.410488,4.1108023 91.525886,1.4859371 92.710096,1.4560803 104.30959,3.4578251 c 21.47999,3.7068368 35.45616,10.9826429 49.31311,25.6717339 15.03148,15.934172 21.8536,31.46373 23.2757,52.983822 2.59567,39.279069 -24.12705,76.461659 -62.23173,86.590589 -7.71476,2.05072 -26.338027,3.51476 -32.000002,2.51562 z m 21.484682,-23.22663 c 17.04693,-3.18147 35.51291,-16.8788 43.22756,-32.06451 C 160.61076,89.882564 155.67168,61.761795 134.39179,41.986061 110.46524,19.750737 75.326428,19.659185 51.115858,41.769092 24.837142,65.767697 23.960195,105.53733 49.155118,130.68884 c 14.831611,14.80605 34.768866,21.07915 54.996232,17.30412 z M 60.600553,132.15789 c -0.278841,-0.27982 2.171963,-3.64451 5.446232,-7.47708 6.065722,-7.1 7.54545,-11.34748 3.953216,-11.34748 -1.1,0 -2,0.6 -2,1.33334 0,0.73333 -1.8,1.33333 -4,1.33333 -4.496843,0 -5.066156,-1.8845 -1.924395,-6.36999 1.589039,-2.26867 3.38627,-2.95856 7.666667,-2.94293 6.758856,0.0247 8.332408,0.91561 10.174504,5.76069 1.51745,3.99119 0.03401,8.5639 -3.444756,10.61848 -2.891612,1.70781 -2.088408,3.60042 1.52798,3.60042 2.444444,0 3.333334,0.71111 3.333334,2.66666 0,1.62196 -0.914122,2.69633 -2.333334,2.74237 -1.283333,0.0416 -5.834137,0.19163 -10.112898,0.33333 -4.278762,0.1417 -8.00771,0.0287 -8.28655,-0.25114 z m 27.105621,-1.57591 c -3.409276,-1.98706 -5.263992,-10.32379 -3.620787,-16.27499 1.561537,-5.65542 4.432648,-7.64032 11.051547,-7.64032 3.836306,0 5.129056,0.78229 7.420986,4.49071 3.4803,5.63124 3.51996,10.93847 0.12336,16.50929 -2.23838,3.67121 -3.409064,4.32714 -7.66168,4.29278 -2.760778,-0.0223 -6.05182,-0.64216 -7.313426,-1.37747 z m 9.055484,-8.48575 c 1.030825,-4.10714 -0.407395,-8.7629 -2.706963,-8.7629 -2.165417,0 -3.56632,5.0302 -2.517681,9.0402 1.030717,3.94147 4.208126,3.77283 5.224644,-0.2773 z m 14.001782,6.39062 c -3.71274,-4.71998 -3.71274,-13.58705 0,-18.30704 2.13154,-2.70981 3.93873,-3.51314 7.90323,-3.51314 6.74858,0 10.66667,4.65272 10.66667,12.66666 0,8.01395 -3.91809,12.66667 -10.66667,12.66667 -3.9645,0 -5.77169,-0.80333 -7.90323,-3.51315 z m 9.90323,-9.26463 c 0,-3.75308 -0.56265,-5.22222 -2,-5.22222 -2.12273,0 -3.44882,6.03856 -2.09873,9.55684 1.44353,3.76178 4.09873,0.95377 4.09873,-4.33462 z M 44.000001,78.666667 V 57.333333 h 11.246533 c 6.185595,0 12.885814,0.623252 14.889377,1.385006 2.577757,0.980062 3.906264,0.958778 4.54381,-0.07279 0.535214,-0.865993 4.050526,-1.292929 8.659275,-1.051673 L 91.097299,58 l 2.060224,5.666667 c 1.133123,3.116666 2.386231,5.664417 2.784684,5.661669 0.398453,-0.0028 1.833895,-2.702749 3.189868,-6 l 2.465405,-5.995003 h 7.82608 c 6.30057,0 7.68099,0.378098 7.08176,1.939683 -0.63418,1.652644 0.0487,1.628161 4.6148,-0.165444 3.64141,-1.430387 7.20546,-1.825947 11.11951,-1.234109 8.83389,1.33576 9.70911,2.235357 7.66755,7.881201 -1.46672,4.056141 -2.08227,4.555333 -4.21175,3.415668 C 132.30628,67.356515 126,68.234064 126,70.519499 c 0,1.033901 2.55243,2.606473 5.77489,3.55795 7.84145,2.315303 10.89178,5.351918 10.89178,10.842779 0,8.800447 -7.49533,15.079772 -18,15.079772 -5.40411,0 -14,-3.194332 -14,-5.20256 0,-1.103757 2.4687,-7.642352 3.48762,-9.237311 0.15456,-0.241928 1.79838,0.554348 3.65294,1.769504 4.09924,2.685924 9.33885,2.176686 9.93772,-0.965848 0.34002,-1.784274 -0.82858,-2.505552 -5.18923,-3.202846 C 115.67463,82.060608 112,78.639447 112,73.333333 c 0,-5.479082 -1.36064,-4.968949 -5.66666,2.124546 -3.0673,5.052889 -3.66667,7.552456 -3.66667,15.291189 V 100 H 95.333335 88.000002 V 89.973504 c 0,-8.561623 -0.518758,-10.84826 -3.550691,-15.651153 l -3.55069,-5.624656 -1.477668,5.317818 c -0.919716,3.309867 -2.599728,5.814792 -4.449309,6.633991 -1.634404,0.723895 -2.971643,1.806816 -2.971643,2.406493 0,0.599676 2.44255,4.687135 5.427887,9.08324 l 5.427888,7.992913 -8.427888,-0.399406 -8.427887,-0.399411 -3.333333,-6.329474 c -1.833334,-3.481211 -3.783334,-6.331211 -4.333334,-6.333334 -0.55,-0.0021 -1,2.996142 -1,6.662808 V 100 h -6.666666 -6.666667 z m 21.280232,-3.26935 C 67.969368,72.157108 65.700815,68 61.243484,68 c -3.579854,0 -3.91015,0.3942 -3.91015,4.666667 0,4.0248 0.436022,4.666666 3.170074,4.666666 1.743541,0 3.893112,-0.871208 4.776825,-1.936016 z"
           id="path3196"
           inkscape:connector-curvature="0" />
      </g>
    </g>
  </g>
</svg>
