<?xml version="1.0" encoding="UTF-8" standalone="no"?>
<!-- Created with Inkscape (http://www.inkscape.org/) -->

<svg
   xmlns:dc="http://purl.org/dc/elements/1.1/"
   xmlns:cc="http://creativecommons.org/ns#"
   xmlns:rdf="http://www.w3.org/1999/02/22-rdf-syntax-ns#"
   xmlns:svg="http://www.w3.org/2000/svg"
   xmlns="http://www.w3.org/2000/svg"
   xmlns:sodipodi="http://sodipodi.sourceforge.net/DTD/sodipodi-0.dtd"
   xmlns:inkscape="http://www.inkscape.org/namespaces/inkscape"
   version="1.1"
   id="svg829"
   width="233.33333"
   height="228"
   viewBox="0 0 233.33333 228"
   sodipodi:docname="reward3.svg"
   inkscape:version="0.92.3 (2405546, 2018-03-11)">
  <metadata
     id="metadata835">
    <rdf:RDF>
      <cc:Work
         rdf:about="">
        <dc:format>image/svg+xml</dc:format>
        <dc:type
           rdf:resource="http://purl.org/dc/dcmitype/StillImage" />
        <dc:title></dc:title>
      </cc:Work>
    </rdf:RDF>
  </metadata>
  <defs
     id="defs833" />
  <sodipodi:namedview
     pagecolor="#ffffff"
     bordercolor="#666666"
     borderopacity="1"
     objecttolerance="10"
     gridtolerance="10"
     guidetolerance="10"
     inkscape:pageopacity="0"
     inkscape:pageshadow="2"
     inkscape:window-width="1366"
     inkscape:window-height="705"
     id="namedview831"
     showgrid="false"
     showguides="false"
     inkscape:zoom="1.7327303"
     inkscape:cx="83.814726"
     inkscape:cy="118.00083"
     inkscape:window-x="-8"
     inkscape:window-y="-8"
     inkscape:window-maximized="1"
     inkscape:current-layer="svg829" />
  <path
     style="opacity:1;fill:#fad028;fill-opacity:1;stroke-width:1.05365527"
     d="m 232.00446,101.99285 c -5.55023,81.1726 -54.38718,130.05835 -99.67823,123.7338 C 70.402135,217.07942 -7.3543312,196.93879 2.8786012,121.61717 10.154121,68.064191 50.140725,11.463777 100.55857,2.9513559 159.38052,-6.9799932 236.03588,43.033004 232.00446,101.99285 Z"
     id="path855"
     inkscape:connector-curvature="0"
     sodipodi:nodetypes="sssss" />
  <ellipse
     style="opacity:1;fill:#ffffff;fill-opacity:1;stroke-width:1.72247279"
     id="path860"
     cx="118.88751"
     cy="118.05791"
     rx="77.911728"
     ry="77.623161" />
  <g
     id="g870"
     transform="matrix(1,0,0,0.98222593,4.616991,3.528916)">
    <g
       transform="matrix(0.7219803,0,0,0.71889195,27.678828,35.06752)"
       id="g839">
      <path
         inkscape:connector-curvature="0"
         id="path853"
         d="M 100.71856,226.60631 C 62.456071,220.60133 30.558098,196.72451 14.377148,161.97655 6.3499498,144.73845 4.6973438,136.66651 4.6911789,114.66667 4.6847757,91.816544 7.1570191,81.16404 16.738282,62.757611 28.484248,40.192604 44.575039,24.495509 67.333332,13.400481 84.071397,5.2404096 94.125231,2.661044 112.66667,1.7699681 c 20.25093,-0.97323185 36.11801,2.3532178 54.47861,11.4211549 29.4779,14.558557 49.22026,38.091318 59.07197,70.413429 3.09265,10.1466 3.58604,14.156933 3.65743,29.728778 0.0956,20.84807 -1.87896,30.2907 -9.99363,47.79136 -18.31735,39.50448 -55.01395,64.15571 -98.46597,66.14528 -7.01163,0.32106 -16.32506,0.0224 -20.69652,-0.66366 z m 41.82154,-9.98439 c 11.45932,-2.71152 28.27292,-10.81176 38.44667,-18.52235 27.17472,-20.59544 43.3966,-55.78248 41.23025,-89.4329 C 218.46001,50.308172 169.77166,6.5885544 112.06112,9.752358 94.594808,10.709895 85.496693,13.103215 69.333332,20.992188 58.347291,26.354228 54.889474,28.95412 43.272191,40.587252 28.528664,55.350892 21.646185,66.561312 15.800962,85.333333 c -2.656888,8.532638 -3.115299,12.836903 -3.124045,29.333337 -0.0118,22.24556 2.131285,31.37261 11.740264,50 6.998945,13.56773 25.082774,32.2907 39.212083,40.59798 10.224823,6.01164 25.614392,11.48868 37.703366,13.41836 9.58698,1.53031 30.43691,0.48744 41.20747,-2.06109 z M 91.333332,214.71475 C 72.381186,209.69564 57.112327,200.74017 43.089825,186.41905 27.267733,170.26003 17.95947,150.67217 14.647792,126.56702 8.1691777,79.410279 39.098691,31.687195 85.999999,16.473229 c 15.573591,-5.051801 39.660141,-5.915866 55.382681,-1.986762 37.097,9.270641 66.73396,38.293994 76.0389,74.464576 3.33279,12.955397 3.60254,34.262607 0.61251,48.382287 -4.34561,20.5211 -18.56128,43.34875 -35.73421,57.38234 -10.35926,8.46549 -29.288,17.72972 -41.89643,20.5052 -13.30988,2.92988 -37.01918,2.68534 -49.070118,-0.50612 z m 31.675468,-9.21239 c 0.49667,-1.89927 0.0726,-2.34583 -1.77,-1.86397 -1.92404,0.50314 -2.0952,1.00714 -0.83097,2.44692 2.01803,2.29825 1.8369,2.33885 2.60097,-0.58295 z m -14.7842,-4.47776 c -0.98943,-0.98943 -1.16295,-0.46885 -0.58298,1.74895 0.47147,1.80293 1.07587,2.40733 1.40873,1.40873 0.32064,-0.96192 -0.051,-2.38288 -0.82575,-3.15768 z M 136,202.66667 c -0.78494,-1.46667 -2.15604,-2.6193 -3.04691,-2.5614 -1.22085,0.0793 -1.2093,0.27088 0.0469,0.77777 0.91667,0.36988 1.66667,1.52252 1.66667,2.5614 0,1.03889 0.62111,1.88889 1.38024,1.88889 0.9358,0 0.92069,-0.85868 -0.0469,-2.66666 z m -45.333335,0 c 0,-0.73334 -0.63541,-1.33334 -1.412022,-1.33334 -0.776612,0 -1.041203,0.6 -0.587978,1.33334 C 89.119891,203.4 89.7553,204 90.078688,204 c 0.323388,0 0.587977,-0.6 0.587977,-1.33333 z m 54.244145,-1.58334 c -0.42563,-1.06364 -0.74157,-0.7477 -0.80555,0.80556 -0.0579,1.40555 0.25723,2.19306 0.7003,1.75 0.44305,-0.44306 0.49041,-1.59306 0.1052,-2.55556 z m -70.804943,-5.41666 c -0.07557,-2.1414 0.602639,-2.94022 2.369688,-2.79111 1.819005,0.15348 2.081693,-0.18497 0.990476,-1.2762 -2.004012,-2.004 -6.132089,2.07508 -5.023537,4.96392 1.137121,2.96329 1.78722,2.61287 1.663373,-0.89661 z m 16.560798,2.41202 c 0,-1.4073 -2.558817,-1.99854 -3.319892,-0.7671 -0.460617,0.74529 0.09792,1.35508 1.241203,1.35508 1.143279,0 2.078689,-0.26459 2.078689,-0.58798 z m 67.999995,-0.74536 c 0,-0.73333 -1.05,-1.32414 -2.33333,-1.31292 -1.99407,0.0175 -2.04253,0.20835 -0.33333,1.31292 2.51628,1.62615 2.66666,1.62615 2.66666,0 z M 153.33333,196 c 0,-0.73333 -0.63541,-1.33333 -1.41203,-1.33333 -0.77661,0 -1.0412,0.6 -0.58797,1.33333 0.45323,0.73333 1.08864,1.33333 1.41203,1.33333 0.32338,0 0.58797,-0.6 0.58797,-1.33333 z m 12.35729,-5.33333 C 164.43482,189.2 163.21958,188 162.9901,188 c -0.22949,0 0.22496,1.2 1.0099,2.66667 0.78493,1.46666 2.00017,2.66666 2.70053,2.66666 0.70035,0 0.24589,-1.2 -1.00991,-2.66666 z M 61.999999,187.4 c 0,-1.88861 -0.496541,-2.77012 -1.177044,-2.08963 -0.647373,0.64738 -0.816204,2.11738 -0.375179,3.26667 1.125127,2.93204 1.552223,2.60817 1.552223,-1.17704 z m 6,-0.0667 c 0,-1.01344 -0.45,-2.12073 -1,-2.46065 -0.55,-0.33992 -1,0.76737 -1,2.46065 0,1.69328 0.45,2.80058 1,2.46066 0.55,-0.33992 1,-1.44722 1,-2.46066 z m 110.723611,-3.96481 c 1.1198,0.69208 1.35672,0.50683 0.70352,-0.55008 -0.54168,-0.87647 -2.13439,-1.22875 -3.53935,-0.78283 -1.57505,0.49991 -2.55445,0.1799 -2.55445,-0.83465 0,-0.90497 -0.38551,-1.25991 -0.85667,-0.78873 -0.47117,0.47116 -0.0741,1.79956 0.88231,2.952 1.26679,1.52638 2.00199,1.66977 2.7076,0.52806 0.5426,-0.87796 1.71121,-1.10832 2.65704,-0.52377 z m -124.314448,-5.4038 c -0.410516,-0.41052 -1.156064,0.32948 -1.656772,1.64444 -0.72358,1.90027 -0.570428,2.05341 0.746393,0.7464 0.911224,-0.90445 1.320895,-1.98032 0.910379,-2.39084 z M 110,171.96601 c 18.52182,-0.0652 19.67604,-0.21114 15.61675,-1.97482 -6.7719,-2.94226 -8.28234,-8.2168 -8.28975,-28.94836 l -0.006,-17.7095 -8.10293,-10.66666 C 95.560767,94.688676 92.846568,86.588287 98.999999,82.172339 L 102,80.019419 98.666665,80.621836 c -1.833333,0.331328 -10.833333,1.244951 -19.999999,2.030271 -9.166667,0.78532 -18.43173,1.782808 -20.589029,2.216641 l -3.922363,0.788787 3.504448,1.836165 c 2.35389,1.233328 6.591677,7.468652 12.907742,18.99198 5.171811,9.43569 12.117403,20.65105 15.434648,24.923 l 6.031356,7.7672 -0.731655,12.58988 c -0.73464,12.64125 -1.929969,16.72577 -5.852938,19.99987 -1.843834,1.53885 -1.687427,1.66962 1.21779,1.0182 1.833334,-0.41108 12.333334,-0.7791 23.333335,-0.81782 z m 30,-56.91798 c 0,-0.36667 -0.88079,-0.32868 -1.9573,0.0844 -3.03672,1.16529 -4.08032,-1.98657 -1.3249,-4.00139 2.63009,-1.92317 2.14341,-2.30034 -1.27542,-0.98841 -2.46548,0.94609 -2.73574,3.36399 -0.61324,5.48649 1.3797,1.37969 5.17086,0.95363 5.17086,-0.58112 z m 6.66666,-1.60359 c 0,-1.40555 0.75,-2.89497 1.66667,-3.30982 0.91667,-0.41484 0.52585,-0.61484 -0.86848,-0.44444 -2.59049,0.31658 -4.60712,6.30982 -2.12316,6.30982 0.72873,0 1.32497,-1.15 1.32497,-2.55556 z m 12.80426,-0.7123 c -0.20468,-4.01152 -4.80426,-4.44134 -4.80426,-0.44895 0,2.17343 0.76354,3.14538 2.47092,3.14538 1.63647,0 2.42446,-0.9106 2.33334,-2.69643 z M 156,112 c 0,-0.73333 0.6,-1.33333 1.33333,-1.33333 0.73333,0 1.33333,0.6 1.33333,1.33333 0,0.73333 -0.6,1.33333 -1.33333,1.33333 C 156.6,113.33333 156,112.73333 156,112 Z m 12.32633,0.66667 c 0.52095,-2.72519 0.1236,-3.31413 -2.17789,-3.22807 -1.54831,0.0579 -2.06511,0.40789 -1.14844,0.77777 0.91666,0.36989 1.66666,1.82252 1.66666,3.22807 0,3.5996 0.90386,3.17602 1.65967,-0.77777 z m 7.22337,-1 c -0.36988,-0.91667 -0.67252,-0.16667 -0.67252,1.66666 0,1.83334 0.30264,2.58334 0.67252,1.66667 0.36988,-0.91667 0.36988,-2.41667 0,-3.33333 z m 7.11696,1.03242 c 0,-0.99561 0.75,-2.14962 1.66667,-2.56447 0.91667,-0.41484 0.46667,-0.60871 -1,-0.43082 -1.65968,0.2013 -2.83488,1.50705 -3.11213,3.45781 -0.28342,1.99416 0.0804,2.80939 1,2.24102 0.79501,-0.49134 1.44546,-1.70793 1.44546,-2.70354 z m 7.59066,-1.67371 c -0.33806,-1.29729 -0.63688,-0.55871 -0.66406,1.64129 -0.0272,2.2 0.24942,3.26142 0.61466,2.35871 0.36522,-0.90271 0.38745,-2.70271 0.0495,-4 z m 7.63837,0.80586 c -0.32725,-0.52952 0.46233,-1.23856 1.75465,-1.57566 1.78807,-0.46642 1.63264,-0.64988 -0.65034,-0.76758 -2.42583,-0.12507 -2.9961,0.54709 -2.97959,3.512 0.0153,2.7484 0.32719,3.18173 1.24536,1.73033 0.67372,-1.06499 0.95719,-2.36958 0.62992,-2.89909 z m 9.62283,1.97893 c -0.10187,-1.2044 0.6558,-2.48473 1.68366,-2.84517 1.3517,-0.474 1.66296,0.13198 1.12483,2.18983 -0.825,3.15483 0.96339,3.95088 2.11775,0.94265 0.93566,-2.43829 -2.46218,-5.29859 -5.09446,-4.28849 -2.13221,0.8182 -2.85406,6.19101 -0.83178,6.19101 0.65185,0 1.10185,-0.98542 1,-2.18983 z M 152.23094,77.471052 c 6.12519,-2.4076 6.46031,-2.708308 2.43572,-2.185569 -2.56666,0.333374 -8.71224,0.977804 -13.65682,1.432065 -7.97152,0.732345 -8.76467,1.051429 -7,2.816096 2.57657,2.57658 2.50832,4.219516 -0.41343,9.950339 -2.30017,4.51166 -2.1038,4.414713 4.56428,-2.253367 4.37663,-4.376633 9.60911,-8.006047 14.07025,-9.759564 z M 121.64563,73.442705 C 125.49946,69.999309 126,68.759624 126,62.658235 c 0,-5.636356 -0.57417,-7.358774 -3.14771,-9.442706 -8.14453,-6.595036 -22.76357,1.187168 -22.76357,12.117804 0,11.230666 12.71167,16.012596 21.55691,8.109372 z"
         style="fill:#aadcd0;stroke-width:1.33333337" />
      <path
         inkscape:connector-curvature="0"
         id="path851"
         d="M 103.5715,226.60439 C 86.461191,224.59309 64.496912,216.14027 51.333333,206.50083 -5.6631361,164.76337 -12.166451,83.638536 37.581177,34.951175 58.552239,14.427067 82.529472,3.5475644 110.66667,1.7891452 c 31.37675,-1.96087419 60.94845,9.0171498 84.24514,31.2746838 36.76571,35.125751 45.70572,86.085741 23.08736,131.602841 -20.91043,42.08002 -67.73652,67.42617 -114.42767,61.93772 z m 41.52316,-10.56644 c 48.1376,-13.64258 79.9068,-57.8544 77.15356,-107.37128 C 219.73154,63.404199 190.94764,27.045392 146.60924,13.122182 138.096,10.44884 133.88733,10 117.33333,10 100.7907,10 96.556535,10.450945 87.999999,13.124045 51.20335,24.619485 24.097826,52.541507 14.746214,88.584449 c -3.76122,14.496481 -3.791598,37.568241 -0.06863,52.124911 10.289173,40.23028 43.102959,70.31437 85.096889,78.01791 10.108217,1.8543 34.367607,0.41473 45.320187,-2.68932 z m -51.073557,-0.84218 c -29.399569,-6.53582 -55.4697,-27.23496 -68.67827,-54.5291 -8.35756,-17.27003 -10.676167,-27.15992 -10.676167,-45.53857 0,-45.657897 26.837603,-82.867261 70.682634,-97.998911 11.926261,-4.115952 13.719639,-4.367091 31.31736,-4.385598 21.07002,-0.02216 29.76531,1.762873 45.33334,9.306342 25.26292,12.241119 43.89069,33.559318 53.54921,61.2834 3.44725,9.895056 3.71607,12.161664 3.71607,31.333337 0,19.17166 -0.26882,21.43828 -3.71607,31.33333 -11.71316,33.62173 -38.09015,58.9596 -70.88255,68.09012 -11.38876,3.17101 -38.67549,3.76672 -50.645557,1.10565 z m 26.858177,-8.86244 c 1.09952,2.70976 2.4401,1.90715 2.64095,-1.58114 0.18458,-3.20564 -2.619,-5.46656 -4.97389,-4.01116 -0.66715,0.41233 -1.20382,2.36428 -1.19259,4.33766 0.0165,2.89946 0.29184,3.20418 1.43484,1.58798 1.06441,-1.50508 1.58177,-1.58758 2.09069,-0.33334 z m -2.21262,-3.66666 c 0,-0.73334 0.56459,-1.33334 1.25465,-1.33334 0.69005,0 1.62546,0.6 2.07869,1.33334 C 122.45322,203.4 121.88864,204 120.74535,204 c -1.14327,0 -2.07869,-0.6 -2.07869,-1.33333 z m -9.00699,0.66666 c 0.39866,-2.08546 0.0269,-3.33333 -0.993,-3.33333 -1.01993,0 -1.39167,1.24787 -0.99301,3.33333 0.35047,1.83334 0.79732,3.33334 0.99301,3.33334 0.19568,0 0.64253,-1.5 0.993,-3.33334 z m 27.67271,2.24568 c 5.2e-4,-0.23154 -0.62016,-1.58154 -1.37929,-3 C 134.4741,199.81549 132,199.08512 132,201.41203 c 0,0.77661 0.6,1.0412 1.33333,0.58797 0.73333,-0.45323 1.33333,-0.18864 1.33333,0.58797 0,0.77662 -0.9,1.41203 -2,1.41203 -1.1,0 -2,0.53653 -2,1.19228 0,0.65576 1.49958,1.10576 3.33239,1 1.83283,-0.10573 3.33283,-0.38172 3.33333,-0.61327 z m -47.2102,-7.74141 c -0.935824,-2.43872 -2.949639,-1.37276 -4.855233,2.56999 -1.282651,2.65385 -1.238682,2.7089 0.473153,0.59241 2.262796,-2.79771 4.163732,-3.07655 3.161085,-0.46369 -0.394597,1.0283 -0.30879,2.28213 0.190682,2.78629 1.215166,1.22655 2.00081,-2.95592 1.030313,-5.485 z m 53.87151,1.21264 c -1.45281,-2.26572 -1.49044,-2.26281 -0.76104,0.0588 0.42204,1.34331 0.81472,3.14331 0.87261,4 0.076,1.12421 0.28772,1.10784 0.76103,-0.0588 0.36068,-0.88904 -0.032,-2.68904 -0.8726,-4 z m 12.44624,-0.95275 c 2.76644,1.06158 2.86413,-0.7643 0.22347,-4.17598 -1.86604,-2.41087 -1.94356,-2.41779 -1.13164,-0.10094 0.72552,2.07026 0.39078,2.33459 -1.99674,1.57682 -3.11242,-0.98784 -3.30132,-0.74374 -2.01614,2.6054 0.56422,1.47034 1.16348,1.71722 1.77326,0.73056 0.50659,-0.81967 1.92308,-1.10578 3.14779,-0.63582 z m -77.773264,-0.68546 c 0,-0.69006 -0.692706,-1.68276 -1.539344,-2.20602 -0.953734,-0.58944 -1.177418,-0.36576 -0.587979,0.58798 0.570715,0.92344 0.08055,1.53934 -1.225087,1.53934 -1.368973,0 -1.996238,-0.86568 -1.690705,-2.33333 0.327791,-1.57456 1.551931,-2.23047 3.764432,-2.01699 2.711895,0.26167 2.895127,0.0884 1.059939,-1.00212 -4.18568,-2.48732 -8.913319,2.4426 -5.559034,5.79688 1.344864,1.34487 5.777778,1.06426 5.777778,-0.36574 z m 90.666664,-5.51283 c 0,-0.63187 -1.05,-0.75533 -2.33333,-0.27437 -2.05458,0.76998 -2.1117,0.60205 -0.47808,-1.40571 1.62148,-1.99284 1.57946,-2.17433 -0.33334,-1.44032 -1.20372,0.46191 -2.18858,0.22564 -2.18858,-0.52504 0,-0.75068 0.75,-1.66751 1.66666,-2.03739 1.20175,-0.4849 1.2237,-0.70188 0.0787,-0.77777 -2.65991,-0.17632 -3.48617,2.642 -1.73428,5.91543 1.53419,2.86665 5.32225,3.25468 5.32225,0.54517 z M 67.557504,188.56328 c 0.443931,-1.15687 -0.1749,-3.08544 -1.37518,-4.28572 -2.020878,-2.02088 -2.343772,-2.02088 -4.36465,0 -2.725976,2.72597 -1.474762,6.38911 2.182325,6.38911 1.512697,0 3.113575,-0.94652 3.557505,-2.10339 z m -6.224172,-1.08729 c 0,-2.01124 3.238786,-3.79276 4.536312,-2.49523 1.755876,1.75587 0.640466,4.35257 -1.869645,4.35257 -1.466667,0 -2.666667,-0.83581 -2.666667,-1.85734 z m 115.143028,-2.82444 c -0.5667,-1.47682 -0.16407,-1.78135 1.50721,-1.14002 2.02721,0.77791 2.08212,0.55747 0.49439,-1.98488 -1.88482,-3.01806 -4.45494,-3.72129 -5.77778,-1.58089 -0.85474,1.38301 1.98754,6.72091 3.5787,6.72091 0.53392,0 0.62278,-0.9068 0.19748,-2.01512 z m -3.14303,-3.31822 c 0,-0.73333 0.6,-1.33333 1.33333,-1.33333 0.73334,0 1.33334,0.6 1.33334,1.33333 0,0.73334 -0.6,1.33334 -1.33334,1.33334 -0.73333,0 -1.33333,-0.6 -1.33333,-1.33334 z M 55.106491,177.88965 c -0.960964,-2.50422 -1.332249,-2.38636 -2.133404,0.67726 -0.458266,1.75242 -0.111253,2.35201 1.093636,1.88965 0.970694,-0.37248 1.438588,-1.5276 1.039768,-2.56691 z m 76.464389,-6.34942 c 0.34089,-0.3409 -1.16089,-1.01091 -3.33728,-1.48892 -2.1764,-0.47802 -4.93727,-1.9522 -6.13526,-3.27598 -2.91961,-3.22613 -4.74789,-15.25073 -4.75729,-31.28873 l -0.008,-13.18005 -8.65026,-11.61785 C 95.201392,92.581957 93.501628,86.169207 101.09156,82.047993 c 3.05401,-1.658281 3.18642,-1.950598 0.90844,-2.005529 -7.163232,-0.172732 -51.333334,4.593731 -51.333334,5.539457 0,0.596611 1.066496,1.084746 2.369992,1.084746 4.660459,0 8.160304,4.199904 16.930282,20.316773 4.893228,8.99244 11.552442,19.8007 14.798252,24.01835 l 5.901473,7.66846 -0.06013,11.66487 c -0.07343,14.24256 -1.821763,18.87664 -7.997877,21.19893 -3.965929,1.49124 -0.91638,1.65574 21.866892,1.17944 14.56154,-0.3044 26.75445,-0.83237 27.09534,-1.17326 z m -4.73261,-66.25004 c 7.19067,-14.392085 16.53121,-23.874579 27.41279,-27.829419 L 162,74.644472 150.62782,75.307379 c -6.2547,0.3646 -14.3547,1.092589 -18,1.617756 -5.9106,0.851518 -6.19496,1.034412 -2.62782,1.690097 6.10461,1.122105 5.65744,4.78696 -2.59084,21.233565 C 123.33412,107.9742 120,115.33224 120,116.20001 c 0,2.4543 0.79453,1.1867 6.83827,-10.90982 z M 139.33333,116 c 0.45323,-0.73333 -0.46136,-1.33333 -2.03243,-1.33333 -1.70985,0 -2.62045,-0.66902 -2.2685,-1.66667 0.32336,-0.91667 1.57336,-1.58333 2.77777,-1.48148 1.2044,0.10185 2.18983,-0.38988 2.18983,-1.09274 0,-2.37541 -5.96814,-0.45004 -6.45091,2.08112 -0.67898,3.55989 3.99753,6.38404 5.78424,3.4931 z M 148,115.87808 c -1.50508,-1.06441 -1.58758,-1.58177 -0.33334,-2.09069 2.67468,-1.0853 1.91835,-4.45406 -1,-4.45406 -1.90476,0 -2.66666,0.88889 -2.66666,3.11111 0,3.65532 0.99144,4.8965 3.88889,4.86848 1.85637,-0.0179 1.86977,-0.19109 0.11107,-1.43485 z m 12,-2.63748 c 0,-3.4339 -0.46259,-4.02414 -2.87366,-3.66666 -1.83253,0.2717 -3.04536,1.56663 -3.34757,3.57418 -0.35173,2.3365 0.0344,2.95307 1.49763,2.39157 1.08434,-0.41611 2.32616,-0.18276 2.75958,0.51855 1.37864,2.23069 1.96402,1.3909 1.96402,-2.81764 z M 156,112 c 0,-0.73333 0.6,-1.33333 1.33333,-1.33333 0.73333,0 1.33333,0.6 1.33333,1.33333 0,0.73333 -0.6,1.33333 -1.33333,1.33333 C 156.6,113.33333 156,112.73333 156,112 Z m 12.28441,1.33333 c 0.48755,-3.32185 0.12893,-4 -2.11533,-4 -2.10188,0 -2.34686,0.35556 -1.10242,1.6 0.88,0.88 1.6,2.68 1.6,4 0,3.7687 0.9707,2.80866 1.61775,-1.6 z M 175.63744,111 c -0.53151,-2.22222 -0.60646,-2.22222 -1.57375,0 -0.55861,1.28333 -0.55861,3.38333 0,4.66667 0.96729,2.22222 1.04224,2.22222 1.57375,0 0.30694,-1.28334 0.30694,-3.38334 0,-4.66667 z m 24.6255,5.19073 c -1.90608,-1.20899 -1.6925,-4.29691 0.40372,-5.83698 0.73334,-0.53877 -0.0167,-0.98877 -1.66666,-1 -2.2598,-0.0154 -3,0.7472 -3,3.09069 0,3.65532 0.99144,4.8965 3.88889,4.86848 1.62579,-0.0157 1.71179,-0.2737 0.37405,-1.12219 z M 212,115.33333 c 1.32425,-1.59562 1.32425,-2.40438 0,-4 -2.64694,-3.18936 -6.66667,-2.51941 -6.66667,1.11111 0,5.13403 3.53284,6.66492 6.66667,2.88889 z m -4.65323,-0.64491 c -0.9834,-1.59117 0.26476,-4.02175 2.06525,-4.02175 1.6224,0 1.63292,3.60882 0.0135,4.60972 -0.68267,0.42191 -1.61808,0.15732 -2.07869,-0.58797 z m -23.48448,-2.5121 c -0.99964,-0.33321 -0.8932,-0.88189 0.32017,-1.65064 1.334,-0.84517 1.01943,-1.15694 -1.18246,-1.17193 -2.31924,-0.0158 -3,0.73855 -3,3.32422 0,3.01633 0.26304,3.18036 2.67982,1.67105 1.4937,-0.93283 2.01707,-1.8945 1.18247,-2.1727 z M 192,113.41202 c 0,-1.42339 -0.6,-2.95879 -1.33334,-3.41202 -0.75621,-0.46736 -1.33333,0.65282 -1.33333,2.58798 0,1.87661 0.6,3.41202 1.33333,3.41202 C 191.4,116 192,114.83541 192,113.41202 Z M 123,73.358604 c 6.62375,-7.34756 4.31939,-20.782277 -3.97253,-23.160368 -5.54448,-1.590137 -11.09532,0.675085 -16.36694,6.679128 -4.769041,5.431636 -5.147037,10.630325 -1.14304,15.72058 5.76973,7.335029 15.25307,7.670819 21.48251,0.76066 z m -84.333334,0.784048 c 0,-0.288208 -0.931163,-0.881336 -2.069251,-1.318061 -1.186566,-0.455328 -1.721762,-0.231799 -1.254644,0.524014 0.783011,1.266939 3.323895,1.873931 3.323895,0.794047 z M 195.89473,67.587977 c -0.0753,-1.136588 -0.29721,-1.111858 -0.78055,0.087 -0.3714,0.921235 -1.31673,1.278531 -2.10074,0.793988 -0.84962,-0.525094 -1.03571,-0.250352 -0.46066,0.680108 1.13448,1.83562 3.49406,0.733415 3.34195,-1.561093 z M 45.333333,63.048029 c 0,-0.366666 -0.9,-0.321304 -2,0.1008 -1.1,0.422111 -2,0.08631 -2,-0.746236 0,-0.83254 -0.360082,-1.153628 -0.800182,-0.713529 -1.400678,1.40068 0.80772,3.557679 2.842882,2.776713 1.076514,-0.413092 1.9573,-1.051081 1.9573,-1.417748 z M 190,62.666667 c 0.45322,-0.733334 0.18864,-1.333334 -0.58798,-1.333334 -0.77661,0 -1.41202,0.6 -1.41202,1.333334 C 188,63.4 188.26458,64 188.58797,64 c 0.32339,0 0.9588,-0.6 1.41203,-1.333333 z m -0.66667,-4 c 0,-0.733334 -0.26459,-1.333334 -0.58797,-1.333334 -0.32339,0 -0.9588,0.6 -1.41203,1.333334 C 186.8801,59.4 187.14469,60 187.9213,60 c 0.77662,0 1.41203,-0.6 1.41203,-1.333333 z M 66.666666,43.496593 c 0,-0.276874 -1.05,-1.326874 -2.333334,-2.333333 -2.114741,-1.658495 -2.161901,-1.611335 -0.503406,0.503407 1.741825,2.220997 2.83674,2.927305 2.83674,1.829926 z M 78.639924,32.634445 c -0.927626,-1.117721 -2.033717,-1.685097 -2.457978,-1.260836 -0.424263,0.424262 0.11124,1.329574 1.19,2.011804 2.822628,1.785086 3.191436,1.566656 1.267978,-0.750968 z m 77.102566,-1.336393 c -0.41052,-0.410517 -1.15607,0.329483 -1.65677,1.644444 -0.72358,1.900264 -0.57043,2.053416 0.7464,0.746393 0.91122,-0.904445 1.32089,-1.980321 0.91037,-2.390837 z m -8,-4 c -0.41052,-0.410517 -1.15607,0.329483 -1.65677,1.644444 -0.72358,1.900264 -0.57043,2.053416 0.7464,0.746393 0.91122,-0.904445 1.32089,-1.980321 0.91037,-2.390837 z m -19.26032,-2.631385 c -0.42211,-1.1 -1.00328,-2 -1.29149,-2 -0.28821,0 -0.52402,0.9 -0.52402,2 0,1.1 0.58117,2 1.29149,2 0.71032,0 0.94613,-0.9 0.52402,-2 z"
         style="fill:#8bc6b7;stroke-width:1.33333337" />
      <path
         inkscape:connector-curvature="0"
         id="path849"
         d="M 103.5715,226.60439 C 86.461191,224.59309 64.496912,216.14027 51.333333,206.50083 -5.6631361,164.76337 -12.166451,83.638536 37.581177,34.951175 58.552239,14.427067 82.529472,3.5475644 110.66667,1.7891452 c 31.37675,-1.96087419 60.94845,9.0171498 84.24514,31.2746838 36.76571,35.125751 45.70572,86.085741 23.08736,131.602841 -20.91043,42.08002 -67.73652,67.42617 -114.42767,61.93772 z m 41.52316,-10.56644 c 48.1376,-13.64258 79.9068,-57.8544 77.15356,-107.37128 C 219.73154,63.404199 190.94764,27.045392 146.60924,13.122182 138.096,10.44884 133.88733,10 117.33333,10 100.7907,10 96.556535,10.450945 87.999999,13.124045 51.20335,24.619485 24.097826,52.541507 14.746214,88.584449 c -3.76122,14.496481 -3.791598,37.568241 -0.06863,52.124911 10.289173,40.23028 43.102959,70.31437 85.096889,78.01791 10.108217,1.8543 34.367607,0.41473 45.320187,-2.68932 z m -51.073557,-0.84218 c -29.399569,-6.53582 -55.4697,-27.23496 -68.67827,-54.5291 -8.35756,-17.27003 -10.676167,-27.15992 -10.676167,-45.53857 0,-45.657897 26.837603,-82.867261 70.682634,-97.998911 11.926261,-4.115952 13.719639,-4.367091 31.31736,-4.385598 21.07002,-0.02216 29.76531,1.762873 45.33334,9.306342 25.26292,12.241119 43.89069,33.559318 53.54921,61.2834 3.44725,9.895056 3.71607,12.161664 3.71607,31.333337 0,19.17166 -0.26882,21.43828 -3.71607,31.33333 -11.71316,33.62173 -38.09015,58.9596 -70.88255,68.09012 -11.38876,3.17101 -38.67549,3.76672 -50.645557,1.10565 z m 26.858177,-8.86244 c 1.09952,2.70976 2.4401,1.90715 2.64095,-1.58114 0.18458,-3.20564 -2.619,-5.46656 -4.97389,-4.01116 -0.66715,0.41233 -1.20382,2.36428 -1.19259,4.33766 0.0165,2.89946 0.29184,3.20418 1.43484,1.58798 1.06441,-1.50508 1.58177,-1.58758 2.09069,-0.33334 z m -2.21262,-3.66666 c 0,-0.73334 0.56459,-1.33334 1.25465,-1.33334 0.69005,0 1.62546,0.6 2.07869,1.33334 C 122.45322,203.4 121.88864,204 120.74535,204 c -1.14327,0 -2.07869,-0.6 -2.07869,-1.33333 z m -9.00699,0.66666 c 0.39866,-2.08546 0.0269,-3.33333 -0.993,-3.33333 -1.01993,0 -1.39167,1.24787 -0.99301,3.33333 0.35047,1.83334 0.79732,3.33334 0.99301,3.33334 0.19568,0 0.64253,-1.5 0.993,-3.33334 z m 27.67271,2.24568 c 5.2e-4,-0.23154 -0.62016,-1.58154 -1.37929,-3 C 134.4741,199.81549 132,199.08512 132,201.41203 c 0,0.77661 0.6,1.0412 1.33333,0.58797 0.73333,-0.45323 1.33333,-0.18864 1.33333,0.58797 0,0.77662 -0.9,1.41203 -2,1.41203 -1.1,0 -2,0.53653 -2,1.19228 0,0.65576 1.49958,1.10576 3.33239,1 1.83283,-0.10573 3.33283,-0.38172 3.33333,-0.61327 z m -47.2102,-7.74141 c -0.935824,-2.43872 -2.949639,-1.37276 -4.855233,2.56999 -1.282651,2.65385 -1.238682,2.7089 0.473153,0.59241 2.262796,-2.79771 4.163732,-3.07655 3.161085,-0.46369 -0.394597,1.0283 -0.30879,2.28213 0.190682,2.78629 1.215166,1.22655 2.00081,-2.95592 1.030313,-5.485 z m 53.87151,1.21264 c -1.45281,-2.26572 -1.49044,-2.26281 -0.76104,0.0588 0.42204,1.34331 0.81472,3.14331 0.87261,4 0.076,1.12421 0.28772,1.10784 0.76103,-0.0588 0.36068,-0.88904 -0.032,-2.68904 -0.8726,-4 z m 12.44624,-0.95275 c 2.76644,1.06158 2.86413,-0.7643 0.22347,-4.17598 -1.86604,-2.41087 -1.94356,-2.41779 -1.13164,-0.10094 0.72552,2.07026 0.39078,2.33459 -1.99674,1.57682 -3.11242,-0.98784 -3.30132,-0.74374 -2.01614,2.6054 0.56422,1.47034 1.16348,1.71722 1.77326,0.73056 0.50659,-0.81967 1.92308,-1.10578 3.14779,-0.63582 z m -77.773264,-0.68546 c 0,-0.69006 -0.692706,-1.68276 -1.539344,-2.20602 -0.953734,-0.58944 -1.177418,-0.36576 -0.587979,0.58798 0.570715,0.92344 0.08055,1.53934 -1.225087,1.53934 -1.368973,0 -1.996238,-0.86568 -1.690705,-2.33333 0.327791,-1.57456 1.551931,-2.23047 3.764432,-2.01699 2.711895,0.26167 2.895127,0.0884 1.059939,-1.00212 -4.18568,-2.48732 -8.913319,2.4426 -5.559034,5.79688 1.344864,1.34487 5.777778,1.06426 5.777778,-0.36574 z m 90.666664,-5.51283 c 0,-0.63187 -1.05,-0.75533 -2.33333,-0.27437 -2.05458,0.76998 -2.1117,0.60205 -0.47808,-1.40571 1.62148,-1.99284 1.57946,-2.17433 -0.33334,-1.44032 -1.20372,0.46191 -2.18858,0.22564 -2.18858,-0.52504 0,-0.75068 0.75,-1.66751 1.66666,-2.03739 1.20175,-0.4849 1.2237,-0.70188 0.0787,-0.77777 -2.65991,-0.17632 -3.48617,2.642 -1.73428,5.91543 1.53419,2.86665 5.32225,3.25468 5.32225,0.54517 z M 67.557504,188.56328 c 0.443931,-1.15687 -0.1749,-3.08544 -1.37518,-4.28572 -2.020878,-2.02088 -2.343772,-2.02088 -4.36465,0 -2.725976,2.72597 -1.474762,6.38911 2.182325,6.38911 1.512697,0 3.113575,-0.94652 3.557505,-2.10339 z m -6.224172,-1.08729 c 0,-2.01124 3.238786,-3.79276 4.536312,-2.49523 1.755876,1.75587 0.640466,4.35257 -1.869645,4.35257 -1.466667,0 -2.666667,-0.83581 -2.666667,-1.85734 z m 61.035248,2.22149 c -2.73062,-0.28651 -7.53062,-0.29047 -10.66667,-0.009 -3.13605,0.28166 -0.90191,0.51608 4.96475,0.52092 5.86667,0.005 8.43253,-0.22562 5.70192,-0.51211 z m -20.06303,-1.16971 c -0.44305,-0.44305 -1.59305,-0.49041 -2.555551,-0.1052 -1.063644,0.42563 -0.747702,0.74158 0.805551,0.80555 1.40556,0.0579 2.19306,-0.25724 1.75,-0.70029 z m 40.68323,-2.25924 c 10.7649,-3.90744 24.18954,-12.92913 30.94907,-20.79852 4.87511,-5.67558 4.67475,-5.56902 -2.66667,1.41815 -9.70592,9.23757 -19.62552,15.22017 -31.93785,19.26199 -5.13333,1.68513 -8.31063,3.09072 -7.06065,3.12353 1.24997,0.0328 6.07222,-1.31951 10.7161,-3.00515 z m -49.693908,-0.1906 C 82.471576,182.0888 73.477787,176.44577 64.718024,168.14779 58.50806,162.26519 56.545557,160.88556 58.817864,164 c 6.91999,9.4846 29.454828,23.93115 37.182135,23.83657 1.1,-0.0135 -0.117307,-0.80484 -2.705127,-1.75864 z m 83.181488,-1.42638 c -0.5667,-1.47682 -0.16407,-1.78135 1.50721,-1.14002 2.02721,0.77791 2.08212,0.55747 0.49439,-1.98488 -1.88482,-3.01806 -4.45494,-3.72129 -5.77778,-1.58089 -0.85474,1.38301 1.98754,6.72091 3.5787,6.72091 0.53392,0 0.62278,-0.9068 0.19748,-2.01512 z m -3.14303,-3.31822 c 0,-0.73333 0.6,-1.33333 1.33333,-1.33333 0.73334,0 1.33334,0.6 1.33334,1.33333 0,0.73334 -0.6,1.33334 -1.33334,1.33334 -0.73333,0 -1.33333,-0.6 -1.33333,-1.33334 z M 55.106491,177.88965 c -0.960964,-2.50422 -1.332249,-2.38636 -2.133404,0.67726 -0.458266,1.75242 -0.111253,2.35201 1.093636,1.88965 0.970694,-0.37248 1.438588,-1.5276 1.039768,-2.56691 z m 55.337949,-4.33977 c 16.30875,-0.16216 21.64339,-0.61971 21.24264,-1.82196 -0.29432,-0.88297 -2.43677,-2.09817 -4.761,-2.70044 -6.95334,-1.80179 -8.25942,-6.15199 -8.25942,-27.51001 v -18.61498 l -9.90867,-13.18861 c -5.44978,-7.25373 -10.314823,-14.806793 -10.811215,-16.784577 -1.387431,-5.527967 0.299848,-10.106407 4.073535,-11.05354 5.82485,-1.461946 3.62681,-3.424955 -3.020311,-2.69736 -24.564915,2.688876 -48.792412,4.806962 -49.290184,4.30919 -0.859788,-0.859788 1.881915,-5.789836 7.871479,-14.15426 4.216968,-5.888992 4.425372,-6.414208 1.058132,-2.666666 C 54.187058,71.621889 46.686358,83.767249 46.699595,86 c 0.0043,0.733333 0.58953,0.433333 1.300404,-0.666667 C 48.861666,84 49.299305,83.888889 49.312915,85 c 0.0112,0.916667 1.458263,1.666667 3.215628,1.666667 4.414811,0 10.272361,7.061269 16.880516,20.349443 3.004236,6.04114 8.362585,14.97315 11.907445,19.84891 9.783629,13.45686 9.814289,13.54825 8.832192,26.32498 -0.975527,12.69125 -3.193651,17.47667 -8.100745,17.47667 -3.191243,0 -5.310264,1.62657 -3.924423,3.01241 0.394735,0.39473 2.928423,0.57588 5.630419,0.40252 2.701994,-0.17335 14.712718,-0.41261 26.690493,-0.53172 z M 53.87739,155.33333 C 52.676143,153.5 51.426902,152 51.101297,152 c -0.653427,0 0.603985,2.41541 2.602896,5 2.295794,2.96847 2.420974,1.76388 0.173197,-1.66667 z m 129.8757,-3.66666 c 2.17184,-3.85 4.33741,-8.5 4.81237,-10.33334 C 189.04042,139.5 187.56765,141.6 185.29264,146 c -2.27502,4.4 -4.69655,8.57 -5.38119,9.26667 -1.27595,1.29837 -1.69379,3.4 -0.67597,3.4 0.31284,0 2.34577,-3.15 4.51761,-7 z M 48.15533,144.45915 c -1.487277,-2.8192 -2.730659,-4.69618 -2.763069,-4.17106 -0.09463,1.53323 4.366825,10.39727 4.943106,9.82099 0.288258,-0.28827 -0.69276,-2.83072 -2.180037,-5.64993 z m 142.08881,-10.04248 c -0.42562,-1.06364 -0.74157,-0.74771 -0.80554,0.80556 -0.0579,1.40554 0.25722,2.19305 0.70029,1.75 0.44305,-0.44307 0.49041,-1.59307 0.1052,-2.55556 z M 192,125.33333 c 0,-0.73333 -2.55,-1.24819 -5.66667,-1.14412 l -5.66667,0.1892 5.33334,0.95492 c 2.93333,0.52521 5.48333,1.04007 5.66666,1.14413 C 191.85,126.58152 192,126.06667 192,125.33333 Z m -57.69444,-0.80555 c -0.44307,-0.44306 -1.59306,-0.49043 -2.55556,-0.10527 -1.06365,0.42564 -0.7477,0.74158 0.80555,0.80556 1.40555,0.0579 2.19306,-0.25724 1.75001,-0.7003 z m -92.061409,-3.44445 c -0.425634,-1.06364 -0.741577,-0.7477 -0.805556,0.80556 -0.05789,1.40555 0.257238,2.19305 0.700294,1.75 0.443054,-0.44306 0.490424,-1.59306 0.105266,-2.55556 z m 84.843789,-14.93551 c 7.63891,-15.387805 17.02204,-24.785335 28.29562,-28.339015 8.32389,-2.623878 9.7859,-5.207529 2.2831,-4.034698 -2.75,0.429878 -10.7,1.185204 -17.66666,1.678501 -11.96953,0.847541 -21.28582,3.078076 -13.25484,3.173513 1.8765,0.02231 4.51627,0.848136 5.86615,1.835191 2.32995,1.703701 2.09881,2.565165 -4.56128,17 -3.85857,8.362948 -7.54834,15.775358 -8.19948,16.472018 -0.65114,0.69667 -1.18389,2.04667 -1.18389,3 0,4.2327 2.65196,0.83622 8.42128,-10.78551 z M 139.33333,116 c 0.45323,-0.73333 -0.46136,-1.33333 -2.03243,-1.33333 -1.70985,0 -2.62045,-0.66902 -2.2685,-1.66667 0.32336,-0.91667 1.57336,-1.58333 2.77777,-1.48148 1.2044,0.10185 2.18983,-0.38988 2.18983,-1.09274 0,-2.37541 -5.96814,-0.45004 -6.45091,2.08112 -0.67898,3.55989 3.99753,6.38404 5.78424,3.4931 z M 148,115.87808 c -1.50508,-1.06441 -1.58758,-1.58177 -0.33334,-2.09069 2.67468,-1.0853 1.91835,-4.45406 -1,-4.45406 -1.90476,0 -2.66666,0.88889 -2.66666,3.11111 0,3.65532 0.99144,4.8965 3.88889,4.86848 1.85637,-0.0179 1.86977,-0.19109 0.11107,-1.43485 z m 12,-2.63748 c 0,-3.4339 -0.46259,-4.02414 -2.87366,-3.66666 -1.83253,0.2717 -3.04536,1.56663 -3.34757,3.57418 -0.35173,2.3365 0.0344,2.95307 1.49763,2.39157 1.08434,-0.41611 2.32616,-0.18276 2.75958,0.51855 1.37864,2.23069 1.96402,1.3909 1.96402,-2.81764 z M 156,112 c 0,-0.73333 0.6,-1.33333 1.33333,-1.33333 0.73333,0 1.33333,0.6 1.33333,1.33333 0,0.73333 -0.6,1.33333 -1.33333,1.33333 C 156.6,113.33333 156,112.73333 156,112 Z m 12.28441,1.33333 c 0.48755,-3.32185 0.12893,-4 -2.11533,-4 -2.10188,0 -2.34686,0.35556 -1.10242,1.6 0.88,0.88 1.6,2.68 1.6,4 0,3.7687 0.9707,2.80866 1.61775,-1.6 z M 175.63744,111 c -0.53151,-2.22222 -0.60646,-2.22222 -1.57375,0 -0.55861,1.28333 -0.55861,3.38333 0,4.66667 0.96729,2.22222 1.04224,2.22222 1.57375,0 0.30694,-1.28334 0.30694,-3.38334 0,-4.66667 z m 24.6255,5.19073 c -1.90608,-1.20899 -1.6925,-4.29691 0.40372,-5.83698 0.73334,-0.53877 -0.0167,-0.98877 -1.66666,-1 -2.2598,-0.0154 -3,0.7472 -3,3.09069 0,3.65532 0.99144,4.8965 3.88889,4.86848 1.62579,-0.0157 1.71179,-0.2737 0.37405,-1.12219 z M 212,115.33333 c 1.32425,-1.59562 1.32425,-2.40438 0,-4 -2.64694,-3.18936 -6.66667,-2.51941 -6.66667,1.11111 0,5.13403 3.53284,6.66492 6.66667,2.88889 z m -4.65323,-0.64491 c -0.9834,-1.59117 0.26476,-4.02175 2.06525,-4.02175 1.6224,0 1.63292,3.60882 0.0135,4.60972 -0.68267,0.42191 -1.61808,0.15732 -2.07869,-0.58797 z m -23.48448,-2.5121 c -0.99964,-0.33321 -0.8932,-0.88189 0.32017,-1.65064 1.334,-0.84517 1.01943,-1.15694 -1.18246,-1.17193 -2.31924,-0.0158 -3,0.73855 -3,3.32422 0,3.01633 0.26304,3.18036 2.67982,1.67105 1.4937,-0.93283 2.01707,-1.8945 1.18247,-2.1727 z M 192,113.41202 c 0,-1.42339 -0.6,-2.95879 -1.33334,-3.41202 -0.75621,-0.46736 -1.33333,0.65282 -1.33333,2.58798 0,1.87661 0.6,3.41202 1.33333,3.41202 C 191.4,116 192,114.83541 192,113.41202 Z M 43.577485,97.083333 c -0.425635,-1.063644 -0.741578,-0.747701 -0.805556,0.805556 -0.05789,1.405555 0.257237,2.193051 0.700293,1.75 0.443055,-0.443056 0.490424,-1.593056 0.105267,-2.555556 z m 146.666655,-4 c -0.42562,-1.063644 -0.74157,-0.747701 -0.80554,0.805556 -0.0579,1.405555 0.25722,2.193055 0.70029,1.75 0.44305,-0.443056 0.49041,-1.593056 0.1052,-2.555556 z m -5.01337,-12.980769 c -1.67111,-2.973336 -3.23485,-5.209593 -3.47499,-4.969461 -0.24013,0.240132 0.90823,2.891774 2.55191,5.892538 1.64368,3.000764 3.20743,5.237022 3.47499,4.969462 0.26756,-0.26756 -0.8808,-2.919203 -2.55191,-5.892539 z m -65.85323,-3.031979 c 8.25458,-3.76104 10.69284,-17.846697 4.28207,-24.737252 -7.58357,-8.15112 -24.992945,1.07322 -24.992945,13.242486 0,10.256742 10.562135,16.118844 20.710875,11.494766 z M 38.666666,74.142652 c 0,-0.288208 -0.931163,-0.881336 -2.069251,-1.318061 -1.186566,-0.455328 -1.721762,-0.231799 -1.254644,0.524014 0.783011,1.266939 3.323895,1.873931 3.323895,0.794047 z M 195.89473,67.587977 c -0.0753,-1.136588 -0.29721,-1.111858 -0.78055,0.087 -0.3714,0.921235 -1.31673,1.278531 -2.10074,0.793988 -0.84962,-0.525094 -1.03571,-0.250352 -0.46066,0.680108 1.13448,1.83562 3.49406,0.733415 3.34195,-1.561093 z m -24.54416,-5.965754 -5.18277,-4.955556 4.58277,5.435832 c 2.52052,2.989706 4.85276,5.219706 5.18276,4.955554 0.33,-0.264152 -1.73224,-2.710276 -4.58276,-5.43583 z M 45.333333,63.048029 c 0,-0.366666 -0.9,-0.321304 -2,0.1008 -1.1,0.422111 -2,0.08631 -2,-0.746236 0,-0.83254 -0.360082,-1.153628 -0.800182,-0.713529 -1.400678,1.40068 0.80772,3.557679 2.842882,2.776713 1.076514,-0.413092 1.9573,-1.051081 1.9573,-1.417748 z M 190,62.666667 c 0.45322,-0.733334 0.18864,-1.333334 -0.58798,-1.333334 -0.77661,0 -1.41202,0.6 -1.41202,1.333334 C 188,63.4 188.26458,64 188.58797,64 188.91136,64 189.54677,63.4 190,62.666667 Z M 67.999999,58 c 1.722327,-1.833333 2.831504,-3.333333 2.464837,-3.333333 -0.366666,0 -2.075844,1.5 -3.79817,3.333333 -1.722327,1.833333 -2.831504,3.333333 -2.464838,3.333333 0.366667,0 2.075844,-1.5 3.798171,-3.333333 z m 121.333331,0.666667 c 0,-0.733334 -0.26459,-1.333334 -0.58797,-1.333334 -0.32339,0 -0.9588,0.6 -1.41203,1.333334 C 186.8801,59.4 187.14469,60 187.9213,60 c 0.77662,0 1.41203,-0.6 1.41203,-1.333333 z M 91.333332,44.777219 c 4.4,-1.859326 7.211229,-3.394832 6.247175,-3.412239 -2.265867,-0.04091 -15.176004,5.339667 -16.913841,7.049207 -1.504172,1.479678 -1.180284,1.369244 10.666666,-3.636968 z m 61.296678,2.777665 c -3.02351,-2.044532 -8.3454,-4.159156 -6.94632,-2.760079 1.38047,1.380471 6.78373,4.256979 8.27965,4.407798 0.71316,0.07191 0.1132,-0.669571 -1.33333,-1.647719 z M 66.666666,43.496593 c 0,-0.276874 -1.05,-1.326874 -2.333334,-2.333333 -2.114741,-1.658495 -2.161901,-1.611335 -0.503406,0.503407 1.741825,2.220997 2.83674,2.927305 2.83674,1.829926 z M 142,42.666667 c -1.46667,-0.630248 -3.56667,-1.145906 -4.66667,-1.145906 -1.26064,0 -1.01419,0.423619 0.66667,1.145906 1.46666,0.630248 3.56666,1.145905 4.66666,1.145905 1.26064,0 1.01419,-0.423619 -0.66666,-1.145905 z m -18.98167,-3.605242 c -1.63992,-0.316482 -4.63992,-0.324673 -6.66666,-0.0182 -2.02676,0.306472 -0.685,0.565412 2.98166,0.575423 3.66667,0.01 5.32492,-0.24074 3.685,-0.557223 z m -44.378406,-6.42698 c -0.927626,-1.117721 -2.033717,-1.685097 -2.457978,-1.260836 -0.424263,0.424262 0.11124,1.329574 1.19,2.011804 2.822628,1.785086 3.191436,1.566656 1.267978,-0.750968 z m 77.102566,-1.336393 c -0.41052,-0.410517 -1.15607,0.329483 -1.65677,1.644444 -0.72358,1.900264 -0.57043,2.053416 0.7464,0.746393 0.91122,-0.904445 1.32089,-1.980321 0.91037,-2.390837 z m -8,-4 c -0.41052,-0.410517 -1.15607,0.329483 -1.65677,1.644444 -0.72358,1.900264 -0.57043,2.053416 0.7464,0.746393 0.91122,-0.904445 1.32089,-1.980321 0.91037,-2.390837 z m -19.26032,-2.631385 c -0.42211,-1.1 -1.00328,-2 -1.29149,-2 -0.28821,0 -0.52402,0.9 -0.52402,2 0,1.1 0.58117,2 1.29149,2 0.71032,0 0.94613,-0.9 0.52402,-2 z"
         style="fill:#9da5a3;stroke-width:1.33333337" />
      <path
         inkscape:connector-curvature="0"
         id="path847"
         d="M 93.999999,224.7014 C 67.169658,218.82131 43.781035,204.04169 27.194177,182.48583 18.074514,170.63413 9.9920368,152.37891 6.6126499,136 -5.3000643,78.262551 31.252814,20.919965 89.999999,5.1855095 c 14.985961,-4.01374 39.680701,-4.01374 54.666661,0 41.46682,11.1061955 72.57014,42.6545535 81.9074,83.0793585 1.40612,6.087656 2.95572,14.198342 3.44356,18.023742 1.0901,8.5481 -1.40384,28.73284 -4.98894,40.37806 -12.07842,39.23338 -45.44096,69.69481 -85.3058,77.88784 -12.29052,2.52596 -34.54128,2.59744 -45.722881,0.14689 z m 54.407621,-9.22683 c 19.49932,-6.5503 31.80739,-14.3919 45.59238,-29.04736 14.29253,-15.19504 22.67305,-31.0477 26.88529,-50.85641 C 224.00824,120.88473 222.68853,95.849391 218.0614,82 206.40869,47.122484 178.69392,21.142456 143.33333,11.949369 128.62153,8.1245768 106.06667,8.1177916 91.405305,11.933747 37.916206,25.855511 3.2557174,78.548532 12.543356,131.82457 c 7.542324,43.2645 39.228287,76.42574 82.385781,86.22158 13.646803,3.09754 40.437323,1.80929 53.478483,-2.57158 z M 96.149061,215.35964 C 55.832225,206.20512 26.724009,177.654 17.224926,137.94608 13.540713,122.54539 14.156192,100.33639 18.66451,86 30.268129,49.100647 59.659523,22.165124 96.666665,14.515509 120.0568,9.6806185 142.22533,12.655176 164,23.550245 c 10.63438,5.32097 14.71782,8.379099 25.45093,19.060462 10.959,10.906152 13.67153,14.531112 18.9986,25.389293 8.80377,17.944776 10.82404,26.649763 10.83048,46.66667 0.009,30.08297 -8.50768,50.561 -29.94668,72 -14.20292,14.20292 -26.51931,21.6725 -44,26.68493 -13.07571,3.74933 -37.18145,4.73353 -49.184269,2.00809 z M 109.33333,205.6 c 0,-1.32 0.72,-3.12 1.6,-4 1.24445,-1.24444 0.78252,-1.6 -2.07869,-1.6 -2.61161,0 -3.37545,0.48345 -2.63327,1.66667 0.57497,0.91666 0.87267,2.71666 0.66154,4 -0.21113,1.28333 0.25385,2.33333 1.03328,2.33333 0.77943,0 1.41714,-1.08 1.41714,-2.4 z m 14.05974,-1.42475 c -0.0826,-4.85222 -5.2183,-5.00789 -5.78163,-0.17525 -0.31204,2.67681 0.22494,3.36785 2.7264,3.50859 2.53322,0.14252 3.10381,-0.48002 3.05523,-3.33334 z m 13.31105,2.02362 c 2.23372,0.85716 2.22665,0.65968 -0.11854,-3.31034 -2.95653,-5.00498 -3.99762,-5.25546 -5.07859,-1.22186 -1.39544,5.20708 -1.07753,6.85666 0.99062,5.14025 1.00705,-0.83577 2.89996,-1.1094 4.20645,-0.60805 z m -46.595621,-9.86815 c -0.861255,-0.86125 -6.1085,3.53388 -6.1085,5.11653 0,0.56867 1.35,1.22568 3,1.46002 2.288532,0.32502 3.102845,-0.31431 3.433658,-2.69583 0.238514,-1.71704 0.09219,-3.46337 -0.325158,-3.88072 z m 55.001311,3.60121 c -0.77997,-2.23742 -1.72081,-3.76537 -2.09077,-3.39542 -1.05763,1.05762 0.89098,7.46349 2.27033,7.46349 0.72331,0 0.6486,-1.69239 -0.17956,-4.06807 z m 8.64664,-0.75246 c -0.65715,-1.71252 -0.23876,-1.96732 2.04185,-1.24348 1.6112,0.51137 2.86836,0.33441 2.86836,-0.40375 0,-2.35208 -1.59085,-5.53224 -2.76746,-5.53224 -0.63187,0 -0.7767,0.9698 -0.32184,2.15511 0.7044,1.83568 0.40176,1.92753 -2.04186,0.61976 -2.32457,-1.24407 -2.86884,-1.16771 -2.86884,0.4025 0,2.89727 1.46498,6.15596 2.76747,6.15596 0.63187,0 0.77691,-0.96924 0.32232,-2.15386 z m -75.089784,-1.9101 c 0,-0.6116 -0.6,-1.48281 -1.333334,-1.93604 -0.733333,-0.45322 -1.333333,-0.0687 -1.333333,0.85464 0,1.30566 -0.355556,1.32314 -1.6,0.0787 -2.630532,-2.63053 0.838088,-5.22269 3.76032,-2.81016 1.970341,1.62668 2.185201,1.61027 1.612064,-0.1232 -0.952471,-2.88072 -6.960641,-2.56368 -7.530892,0.39739 -0.599952,3.11529 2.089117,6.31454 4.522659,5.3807 1.046384,-0.40148 1.902516,-1.2304 1.902516,-1.842 z m 90.826274,-4.79504 c 1.62958,-1.9635 1.47376,-2.0826 -1.49294,-1.141 -2.9838,0.94703 -3.1294,0.8308 -1.46762,-1.17153 1.6298,-1.9638 1.5509,-2.11251 -0.67713,-1.27601 -2.22781,0.83641 -2.30852,0.68448 -0.692,-1.30282 2.03463,-2.50129 0.23899,-3.11854 -2.14293,-0.73662 -1.12846,1.12845 -0.98782,2.31454 0.55334,4.66666 2.44463,3.73096 3.48102,3.89927 5.91928,0.96132 z M 67.215475,188.94565 c 1.809281,-2.8683 -1.712529,-6.77202 -4.978755,-5.51866 -2.612626,1.00256 -2.938109,4.67162 -0.620054,6.98968 1.961458,1.96145 3.726121,1.49781 5.598809,-1.47102 z m -5.158536,-0.85352 c -0.986055,-1.59546 1.522167,-3.1763 3.298143,-2.07869 1.491144,0.92157 0.512222,3.31989 -1.355083,3.31989 -0.646775,0 -1.521152,-0.55854 -1.94306,-1.2412 z m 60.311641,1.60535 c -2.73062,-0.28651 -7.53062,-0.29047 -10.66667,-0.009 -3.13605,0.28166 -0.90191,0.51608 4.96475,0.52092 5.86667,0.005 8.43253,-0.22562 5.70192,-0.51211 z m -20.06303,-1.16971 c -0.44305,-0.44305 -1.59305,-0.49041 -2.555551,-0.1052 -1.063644,0.42563 -0.747702,0.74158 0.805551,0.80555 1.40556,0.0579 2.19306,-0.25724 1.75,-0.70029 z m 40.68323,-2.25924 c 10.7649,-3.90744 24.18954,-12.92913 30.94907,-20.79852 4.87511,-5.67558 4.67475,-5.56902 -2.66667,1.41815 -9.70592,9.23757 -19.62552,15.22017 -31.93785,19.26199 -5.13333,1.68513 -8.31063,3.09072 -7.06065,3.12353 1.24997,0.0328 6.07222,-1.31951 10.7161,-3.00515 z m -49.693908,-0.1906 C 82.471576,182.0888 73.477787,176.44577 64.718024,168.14779 58.50806,162.26519 56.545557,160.88556 58.817864,164 c 6.91999,9.4846 29.454828,23.93115 37.182135,23.83657 1.1,-0.0135 -0.117307,-0.80484 -2.705127,-1.75864 z m 83.434148,-0.64369 c -0.41892,-0.67783 0.16207,-1.42783 1.2911,-1.66667 1.82748,-0.38657 1.81608,-0.77048 -0.10374,-3.4978 -1.71146,-2.43126 -2.54457,-2.74156 -4.03645,-1.50341 -2.30165,1.9102 -2.40237,4.1778 -0.27987,6.30031 1.87987,1.87986 4.23464,2.15649 3.12903,0.36757 z m -3.39569,-4.10091 c 0,-0.73333 0.6,-1.33333 1.33333,-1.33333 0.73334,0 1.33334,0.6 1.33334,1.33333 0,0.73334 -0.6,1.33334 -1.33334,1.33334 -0.73333,0 -1.33333,-0.6 -1.33333,-1.33334 z M 56.775715,180 c 1.040023,0 1.890951,-0.6 1.890951,-1.33333 0,-0.73334 -0.935411,-1.33334 -2.078689,-1.33334 -1.143279,0 -1.70787,-0.6 -1.254644,-1.33333 0.453225,-0.73333 0.338634,-1.32865 -0.254644,-1.32293 -0.593279,0.005 -1.796748,1.55766 -2.674376,3.44874 -1.364499,2.94019 -1.300404,3.32504 0.442382,2.65627 C 53.967634,180.35193 55.735694,180 56.775715,180 Z m 53.668725,-6.45012 c 16.30875,-0.16216 21.64339,-0.61971 21.24264,-1.82196 -0.29432,-0.88297 -2.30354,-2.06365 -4.46493,-2.62372 -7.11129,-1.84272 -8.55549,-6.48909 -8.55549,-27.52535 v -18.67636 l -9.90867,-13.18861 c -5.44978,-7.25373 -10.314823,-14.806793 -10.811215,-16.784577 -1.387431,-5.527967 0.299848,-10.106407 4.073535,-11.05354 5.82485,-1.461946 3.62681,-3.424955 -3.020311,-2.69736 -24.564915,2.688876 -48.792412,4.806962 -49.290184,4.30919 -0.859788,-0.859788 1.881915,-5.789836 7.871479,-14.15426 4.216968,-5.888992 4.425372,-6.414208 1.058132,-2.666666 C 54.187058,71.621889 46.686358,83.767249 46.699595,86 c 0.0043,0.733333 0.58953,0.433333 1.300404,-0.666667 C 48.861666,84 49.299305,83.888889 49.312915,85 c 0.0112,0.916667 1.458263,1.666667 3.215628,1.666667 4.414811,0 10.272361,7.061269 16.880516,20.349443 3.004236,6.04114 8.362585,14.97315 11.907445,19.84891 9.783629,13.45686 9.814289,13.54825 8.832192,26.32498 -0.975527,12.69125 -3.193651,17.47667 -8.100745,17.47667 -3.191243,0 -5.310264,1.62657 -3.924423,3.01241 0.394735,0.39473 2.928423,0.57588 5.630419,0.40252 2.701994,-0.17335 14.712718,-0.41261 26.690493,-0.53172 z M 53.87739,155.33333 C 52.676143,153.5 51.426902,152 51.101297,152 c -0.653427,0 0.603985,2.41541 2.602896,5 2.295794,2.96847 2.420974,1.76388 0.173197,-1.66667 z m 129.8757,-3.66666 c 2.17184,-3.85 4.33741,-8.5 4.81237,-10.33334 C 189.04042,139.5 187.56765,141.6 185.29264,146 c -2.27502,4.4 -4.69655,8.57 -5.38119,9.26667 -1.27595,1.29837 -1.69379,3.4 -0.67597,3.4 0.31284,0 2.34577,-3.15 4.51761,-7 z M 48.15533,144.45915 c -1.487277,-2.8192 -2.730659,-4.69618 -2.763069,-4.17106 -0.09463,1.53323 4.366825,10.39727 4.943106,9.82099 0.288258,-0.28827 -0.69276,-2.83072 -2.180037,-5.64993 z m 142.08881,-10.04248 c -0.42562,-1.06364 -0.74157,-0.74771 -0.80554,0.80556 -0.0579,1.40554 0.25722,2.19305 0.70029,1.75 0.44305,-0.44307 0.49041,-1.59307 0.1052,-2.55556 z m 3.08919,-9.08334 c 0,-0.73333 -2.85,-1.24819 -6.33333,-1.14412 l -6.33334,0.1892 5.33334,0.95492 c 2.93333,0.52521 5.78333,1.04007 6.33333,1.14413 0.55,0.10406 1,-0.41079 1,-1.14413 z m -59.02777,-0.80555 c -0.44307,-0.44306 -1.59306,-0.49043 -2.55556,-0.10527 -1.06365,0.42564 -0.7477,0.74158 0.80555,0.80556 1.40555,0.0579 2.19306,-0.25724 1.75001,-0.7003 z m -92.061409,-3.44445 c -0.425634,-1.06364 -0.741577,-0.7477 -0.805556,0.80556 -0.05789,1.40555 0.257238,2.19305 0.700294,1.75 0.443054,-0.44306 0.490424,-1.59306 0.105266,-2.55556 z m 84.843789,-14.93551 c 7.63891,-15.387805 17.02204,-24.785335 28.29562,-28.339015 8.32389,-2.623878 9.7859,-5.207529 2.2831,-4.034698 -2.75,0.429878 -10.7,1.185204 -17.66666,1.678501 -11.96953,0.847541 -21.28582,3.078076 -13.25484,3.173513 1.8765,0.02231 4.51627,0.848136 5.86615,1.835191 2.32995,1.703701 2.09881,2.565165 -4.56128,17 -3.85857,8.362948 -7.54834,15.775358 -8.19948,16.472018 -0.65114,0.69667 -1.18389,2.04667 -1.18389,3 0,4.2327 2.65196,0.83622 8.42128,-10.78551 z m 12.15171,10.00377 c 0.40169,-0.64996 -0.52327,-1.50958 -2.05547,-1.91026 -1.53221,-0.40068 -2.40624,-1.34269 -1.9423,-2.09335 0.46393,-0.75067 1.7243,-1.02686 2.80082,-0.61376 1.07651,0.41309 1.9573,0.0869 1.9573,-0.7249 0,-2.22258 -5.30295,-1.77326 -6.1845,0.52401 -1.61313,4.20374 3.17518,8.45717 5.42415,4.81826 z m 10.09368,-2.81826 c 0,-3.11111 -0.59259,-4 -2.66667,-4 -2.07408,0 -2.66666,0.88889 -2.66666,4 0,3.11111 0.59258,4 2.66666,4 2.07408,0 2.66667,-0.88889 2.66667,-4 z M 156,115.83674 c 0,-1.09297 0.49546,-1.08539 1.83714,0.0281 1.45016,1.20352 1.99832,0.90832 2.60235,-1.40147 1.01431,-3.87871 0.0748,-5.13005 -3.85152,-5.13005 -2.72737,0 -3.25464,0.64802 -3.25464,4 0,2.2 0.6,4 1.33333,4 0.73334,0 1.33334,-0.67346 1.33334,-1.49659 z M 169.64006,111 c 1.017,-1.25266 0.49495,-1.66667 -2.10162,-1.66667 -3.49075,0 -3.56666,0.36093 -1.3321,6.33334 0.78812,2.10643 0.93172,2.07402 1.47682,-0.33334 0.33208,-1.46666 1.21269,-3.41666 1.9569,-4.33333 z M 176,113.33333 c 0,-2.2 -0.6,-4 -1.33334,-4 -0.73333,0 -1.33333,1.8 -1.33333,4 0,2.2 0.6,4 1.33333,4 0.73334,0 1.33334,-1.8 1.33334,-4 z m 9.33333,-1.65406 c 0,-1.45705 -1.01041,-2.34594 -2.66667,-2.34594 -2.07574,0 -2.66666,0.88889 -2.66666,4.0113 0,3.67753 0.22188,3.87273 2.66666,2.34594 1.46667,-0.91595 2.66667,-2.72103 2.66667,-4.0113 z M 192,113.33333 c 0,-2.2 -0.6,-4 -1.33334,-4 -0.73333,0 -1.33333,1.8 -1.33333,4 0,2.2 0.6,4 1.33333,4 0.73334,0 1.33334,-1.8 1.33334,-4 z m 9.33333,0 c 0,-3.11111 -0.59259,-4 -2.66667,-4 -2.07408,0 -2.66666,0.88889 -2.66666,4 0,3.11111 0.59258,4 2.66666,4 2.07408,0 2.66667,-0.88889 2.66667,-4 z m 10.65257,2.01698 c 2.37146,-2.85742 0.65047,-6.01698 -3.2774,-6.01698 -2.8613,0 -3.37517,0.609 -3.37517,4 0,3.02416 0.61073,4 2.50341,4 1.37687,0 3.24399,-0.89236 4.14916,-1.98302 z M 208,112.58798 c 0,-1.14328 0.6,-1.70787 1.33333,-1.25465 0.73333,0.45323 1.33333,1.38864 1.33333,2.07869 0,0.69006 -0.6,1.25465 -1.33333,1.25465 C 208.6,114.66667 208,113.73126 208,112.58798 Z M 191.57748,99.75 c -0.42563,-1.063644 -0.74158,-0.747701 -0.80555,0.80556 -0.0579,1.40555 0.25723,2.19305 0.70029,1.75 0.44306,-0.44306 0.49042,-1.59306 0.1052,-2.55556 z M 43.577485,97.083333 c -0.425635,-1.063644 -0.741578,-0.747701 -0.805556,0.805556 -0.05789,1.405555 0.257237,2.193051 0.700293,1.75 0.443055,-0.443056 0.490424,-1.593056 0.105267,-2.555556 z m 146.666655,-4 c -0.42562,-1.063644 -0.74157,-0.747701 -0.80554,0.805556 -0.0579,1.405555 0.25722,2.193055 0.70029,1.75 0.44305,-0.443056 0.49041,-1.593056 0.1052,-2.555556 z M 32,90.16326 C 32,89.886385 31.1,88.912919 30,88 c -1.638011,-1.359428 -2,-1.268313 -2,0.503407 0,1.189793 0.9,2.16326 2,2.16326 1.1,0 2,-0.226534 2,-0.503407 z M 185.23077,80.102564 c -1.67111,-2.973336 -3.23485,-5.209593 -3.47499,-4.969461 -0.24013,0.240132 0.90823,2.891774 2.55191,5.892538 1.64368,3.000764 3.20743,5.237022 3.47499,4.969462 0.26756,-0.26756 -0.8808,-2.919203 -2.55191,-5.892539 z m 17.99129,4.373265 c 1.19442,-3.112574 -0.0683,-3.82015 -2.4919,-1.396464 -2.55488,2.554883 -2.61422,3.587302 -0.20615,3.587302 1.02155,0 2.23567,-0.985878 2.69805,-2.190838 z M 35.569469,81.865433 c 0.841762,-2.193598 -1.939273,-4.872949 -3.839141,-3.698766 -0.585014,0.361558 -1.063662,1.821968 -1.063662,3.245356 0,3.119726 3.74668,3.466218 4.902803,0.45341 z M 32,81.333333 C 32,80.6 32.6,80 33.333333,80 c 0.733333,0 1.333333,0.6 1.333333,1.333333 0,0.733334 -0.6,1.333334 -1.333333,1.333334 C 32.6,82.666667 32,82.066667 32,81.333333 Z m 87.37754,-4.262748 c 8.25458,-3.76104 10.69284,-17.846697 4.28207,-24.737252 -7.58357,-8.15112 -24.992945,1.07322 -24.992945,13.242486 0,10.256742 10.562135,16.118844 20.710875,11.494766 z M 200,74.08394 c 0,-0.425263 -1.16119,-0.04803 -2.58043,0.838296 -1.41923,0.886325 -2.28097,2.096012 -1.91499,2.688193 C 196.15073,78.655917 200,75.636308 200,74.08394 Z M 39.764431,71.556179 c 0.290674,-1.498779 -0.469384,-2.222846 -2.333333,-2.222846 -1.520437,0 -2.764432,0.8 -2.764432,1.777778 0,4.083657 4.318967,4.46073 5.097765,0.445068 z M 35.999999,72 c 0,-0.733333 0.6,-1.333333 1.333334,-1.333333 0.733333,0 1.333333,0.6 1.333333,1.333333 0,0.733333 -0.6,1.333333 -1.333333,1.333333 -0.733334,0 -1.333334,-0.6 -1.333334,-1.333333 z M 195.87388,69 c 1.59476,-2.083521 1.41041,-2.333333 -1.72192,-2.333333 -3.14692,0 -3.34042,0.26817 -1.8804,2.606029 0.89512,1.433315 1.66998,2.483315 1.72192,2.333333 0.052,-0.149982 0.89812,-1.322696 1.8804,-2.606029 z m -24.52331,-7.377777 -5.18277,-4.955556 4.58277,5.435832 c 2.52052,2.989706 4.85276,5.219706 5.18276,4.955554 0.33,-0.264152 -1.73224,-2.710276 -4.58276,-5.43583 z M 44.501535,64.616195 c 0.453095,-1.180744 -0.07633,-2.381704 -1.248185,-2.831386 -2.638559,-1.012509 -3.526276,-0.04748 -2.475417,2.69102 1.055809,2.751396 2.697904,2.813296 3.723602,0.140366 z M 190.83674,61.744056 c 1.562,-1.925644 1.55272,-2.088837 -0.0633,-1.114608 -1.41979,0.855912 -1.68033,0.586479 -1.04184,-1.077388 0.95739,-2.494932 -0.10115,-2.800723 -3.06491,-0.885393 -1.33333,0.861666 -1.44444,1.299305 -0.33333,1.312916 C 187.25,59.990783 188,60.9 188,62 c 0,2.573713 0.5842,2.521004 2.83674,-0.255944 z M 67.999999,58 c 1.722327,-1.833333 2.831504,-3.333333 2.464837,-3.333333 -0.366666,0 -2.075844,1.5 -3.79817,3.333333 -1.722327,1.833333 -2.831504,3.333333 -2.464838,3.333333 0.366667,0 2.075844,-1.5 3.798171,-3.333333 z M 184.88556,53.910377 c 1.21334,-3.161925 -1.63042,-5.391953 -4.17883,-3.276964 -1.57923,1.310644 -1.71259,2.15461 -0.55992,3.543492 1.99664,2.405804 3.75115,2.307123 4.73875,-0.266528 z m -3.55223,-1.165021 c 0,-1.143279 0.6,-2.078689 1.33333,-2.078689 0.73334,0 1.33334,0.564589 1.33334,1.254644 0,0.690054 -0.6,1.625464 -1.33334,2.078689 -0.73333,0.453225 -1.33333,-0.11136 -1.33333,-1.254644 z m -126.801823,0.08417 c 1.204482,-1.451312 0.900968,-2.00025 -1.445181,-2.613782 -3.596871,-0.940603 -4.066404,-0.58391 -2.97506,2.260088 1.025799,2.673186 2.403727,2.783445 4.420241,0.353694 z m 36.801825,-8.05231 c 4.4,-1.859326 7.211229,-3.394832 6.247175,-3.412239 -2.265867,-0.04091 -15.176004,5.339667 -16.913841,7.049207 -1.504172,1.479678 -1.180284,1.369244 10.666666,-3.636968 z m 61.296678,2.777665 c -3.02351,-2.044532 -8.3454,-4.159156 -6.94632,-2.760079 1.38047,1.380471 6.78373,4.256979 8.27965,4.407798 0.71316,0.07191 0.1132,-0.669571 -1.33333,-1.647719 z m 26.03665,-2.548069 c 0,-0.74377 -0.88434,-0.599392 -2,0.326518 -1.1,0.912919 -2,2.259852 -2,2.993186 0,0.743769 0.88435,0.599392 2,-0.326519 1.1,-0.912919 2,-2.259852 2,-2.993185 z m -119.409725,1.1022 c -2.792752,-2.04211 -4.05834,-1.817736 -2.645094,0.468944 C 57.095219,47.360081 58.469979,48 59.666862,48 c 1.819952,0 1.752853,-0.309521 -0.409927,-1.890985 z M 172.38633,42.666667 C 172.84938,40.89592 172.42726,40 171.12981,40 c -1.07463,0 -1.58304,0.6 -1.12981,1.333333 0.45322,0.733334 0.15322,1.333334 -0.66667,1.333334 -0.81989,0 -1.11989,0.6 -0.66667,1.333333 1.32056,2.136703 2.96652,1.546699 3.71967,-1.333333 z m -105.052998,0 c 0.453226,-0.733334 -0.111365,-1.333334 -1.254644,-1.333334 -1.143278,0 -2.078689,-0.7 -2.078689,-1.555556 0,-0.855554 -0.314123,-1.241432 -0.698052,-0.857504 C 62.336191,39.886031 64.033171,44 65.397295,44 c 0.611596,0 1.482812,-0.6 1.936037,-1.333333 z m 74.666668,0 c -1.46667,-0.630248 -3.56667,-1.145906 -4.66667,-1.145906 -1.26064,0 -1.01419,0.423619 0.66667,1.145906 1.46666,0.630248 3.56666,1.145905 4.66666,1.145905 1.26064,0 1.01419,-0.423619 -0.66666,-1.145905 z m -18.98167,-3.605242 c -1.63992,-0.316482 -4.63992,-0.324673 -6.66666,-0.0182 -2.02676,0.306472 -0.685,0.565412 2.98166,0.575423 3.66667,0.01 5.32492,-0.24074 3.685,-0.557223 z m 41.74357,-1.728092 c 0,-1.466666 -0.40145,-2.666666 -0.8921,-2.666666 -0.49067,0 -1.20592,1.2 -1.58947,2.666666 C 161.87098,38.89868 162.2394,40 163.17244,40 c 0.87421,0 1.58946,-1.2 1.58946,-2.666667 z M 70.91111,35.711111 c -0.95675,-0.95675 -1.577778,-1.035472 -1.577778,-0.2 0,1.779708 1.576814,3.356521 2.466667,2.466666 0.378889,-0.378888 -0.02111,-1.398888 -0.888889,-2.266666 z m 8.347204,-0.533488 c 1.658756,-0.636524 1.797168,-1.239178 0.612457,-2.666667 -2.186949,-2.635113 -3.870772,-2.277371 -3.870772,0.822377 0,2.941387 0.161341,3.03271 3.258315,1.84429 z m 76.308806,-0.05495 C 155.0846,34.640149 155.43458,33.342577 156.3449,32.239181 157.69968,30.597027 157.6371,30.352884 156,30.89366 153.53105,31.709217 152.51524,36 154.79112,36 c 0.90933,0 1.25853,-0.394795 0.776,-0.877321 z M 89.333332,29.172445 c 0,-1.599686 -0.775889,-2.053226 -2.666667,-1.558777 -1.466666,0.383541 -2.666666,1.398799 -2.666666,2.256127 0,0.857326 1.2,1.558777 2.666666,1.558777 1.61603,0 2.666667,-0.888889 2.666667,-2.256127 z m 59.555558,-0.600193 c 0,-2.629993 -2.77055,-1.628127 -3.31909,1.200227 -0.28118,1.449762 0.21921,1.968969 1.44444,1.498801 1.03105,-0.395652 1.87465,-1.610215 1.87465,-2.699028 z m -8.00333,0.0048 c 1.11128,-2.895949 -1.70992,-5.619353 -3.72927,-3.6 -1.70672,1.706703 -0.6494,5.689615 1.51037,5.689615 0.77936,0 1.77787,-0.940331 2.2189,-2.089623 z m -3.55223,-1.243719 c 0,-1.1 0.6,-2 1.33333,-2 0.73334,0 1.33334,0.9 1.33334,2 0,1.1 -0.6,2 -1.33334,2 -0.73333,0 -1.33333,-0.9 -1.33333,-2 z m -40.333331,1.080899 c -2.716756,-0.709961 -3.066563,-2.562812 -0.666667,-3.531191 1.201743,-0.484914 1.223693,-0.701878 0.07869,-0.777778 C 94.367047,23.969707 92.936628,26.279429 93.999999,28 c 0.453225,0.733333 1.838634,1.263732 3.078689,1.178665 2.032677,-0.139442 2.024931,-0.2147 -0.07869,-0.764433 z m 9.098861,-2.675287 c -0.18252,-1.24358 -1.02943,-2.49358 -1.88203,-2.777777 -1.75924,-0.586416 -1.89068,-0.06663 -0.74085,2.929783 1.08026,2.815104 3.04167,2.701433 2.62288,-0.152006 z m 24.81316,0.324716 c 1.21704,-1.694297 0.0521,-3.396994 -2.32404,-3.396994 -1.05673,0 -1.92132,1.2 -1.92132,2.666666 0,2.673766 2.53599,3.11003 4.24536,0.730328 z m -9.31937,-3.671005 c -1.68939,-1.689397 -4.25932,-0.241556 -4.25932,2.399612 0,1.588476 0.54212,1.678087 2.80981,0.464456 1.91035,-1.022387 2.37436,-1.93922 1.44951,-2.864068 z"
         style="fill:#69b7a4;stroke-width:1.33333337" />
      <path
         inkscape:connector-curvature="0"
         id="path845"
         d="M 93.999999,224.7014 C 67.169658,218.82131 43.781035,204.04169 27.194177,182.48583 18.074514,170.63413 9.9920368,152.37891 6.6126499,136 -5.3000643,78.262551 31.252814,20.919965 89.999999,5.1855095 c 14.985961,-4.01374 39.680701,-4.01374 54.666661,0 41.46682,11.1061955 72.57014,42.6545535 81.9074,83.0793585 1.40612,6.087656 2.95572,14.198342 3.44356,18.023742 1.0901,8.5481 -1.40384,28.73284 -4.98894,40.37806 -12.07842,39.23338 -45.44096,69.69481 -85.3058,77.88784 -12.29052,2.52596 -34.54128,2.59744 -45.722881,0.14689 z m 54.407621,-9.22683 c 19.49932,-6.5503 31.80739,-14.3919 45.59238,-29.04736 14.29253,-15.19504 22.67305,-31.0477 26.88529,-50.85641 C 224.00824,120.88473 222.68853,95.849391 218.0614,82 206.40869,47.122484 178.69392,21.142456 143.33333,11.949369 128.62153,8.1245768 106.06667,8.1177916 91.405305,11.933747 37.916206,25.855511 3.2557174,78.548532 12.543356,131.82457 c 7.542324,43.2645 39.228287,76.42574 82.385781,86.22158 13.646803,3.09754 40.437323,1.80929 53.478483,-2.57158 z M 96.149061,215.35964 C 55.832225,206.20512 26.724009,177.654 17.224926,137.94608 13.540713,122.54539 14.156192,100.33639 18.66451,86 30.268129,49.100647 59.659523,22.165124 96.666665,14.515509 120.0568,9.6806185 142.22533,12.655176 164,23.550245 c 10.63438,5.32097 14.71782,8.379099 25.45093,19.060462 10.959,10.906152 13.67153,14.531112 18.9986,25.389293 8.80377,17.944776 10.82404,26.649763 10.83048,46.66667 0.009,30.08297 -8.50768,50.561 -29.94668,72 -14.20292,14.20292 -26.51931,21.6725 -44,26.68493 -13.07571,3.74933 -37.18145,4.73353 -49.184269,2.00809 z M 109.33333,205.6 c 0,-1.32 0.72,-3.12 1.6,-4 1.24445,-1.24444 0.78252,-1.6 -2.07869,-1.6 -2.61161,0 -3.37545,0.48345 -2.63327,1.66667 0.57497,0.91666 0.87267,2.71666 0.66154,4 -0.21113,1.28333 0.25385,2.33333 1.03328,2.33333 0.77943,0 1.41714,-1.08 1.41714,-2.4 z m 14.05974,-1.42475 c -0.0826,-4.85222 -5.2183,-5.00789 -5.78163,-0.17525 -0.31204,2.67681 0.22494,3.36785 2.7264,3.50859 2.53322,0.14252 3.10381,-0.48002 3.05523,-3.33334 z m 13.31105,2.02362 c 2.23372,0.85716 2.22665,0.65968 -0.11854,-3.31034 -2.95653,-5.00498 -3.99762,-5.25546 -5.07859,-1.22186 -1.39544,5.20708 -1.07753,6.85666 0.99062,5.14025 1.00705,-0.83577 2.89996,-1.1094 4.20645,-0.60805 z m -46.595621,-9.86815 c -0.861255,-0.86125 -6.1085,3.53388 -6.1085,5.11653 0,0.56867 1.35,1.22568 3,1.46002 2.288532,0.32502 3.102845,-0.31431 3.433658,-2.69583 0.238514,-1.71704 0.09219,-3.46337 -0.325158,-3.88072 z m 55.001311,3.60121 c -0.77997,-2.23742 -1.72081,-3.76537 -2.09077,-3.39542 -1.05763,1.05762 0.89098,7.46349 2.27033,7.46349 0.72331,0 0.6486,-1.69239 -0.17956,-4.06807 z m 8.64664,-0.75246 c -0.65715,-1.71252 -0.23876,-1.96732 2.04185,-1.24348 1.6112,0.51137 2.86836,0.33441 2.86836,-0.40375 0,-2.35208 -1.59085,-5.53224 -2.76746,-5.53224 -0.63187,0 -0.7767,0.9698 -0.32184,2.15511 0.7044,1.83568 0.40176,1.92753 -2.04186,0.61976 -2.32457,-1.24407 -2.86884,-1.16771 -2.86884,0.4025 0,2.89727 1.46498,6.15596 2.76747,6.15596 0.63187,0 0.77691,-0.96924 0.32232,-2.15386 z m -75.089784,-1.9101 c 0,-0.6116 -0.6,-1.48281 -1.333334,-1.93604 -0.733333,-0.45322 -1.333333,-0.0687 -1.333333,0.85464 0,1.30566 -0.355556,1.32314 -1.6,0.0787 -2.630532,-2.63053 0.838088,-5.22269 3.76032,-2.81016 1.970341,1.62668 2.185201,1.61027 1.612064,-0.1232 -0.952471,-2.88072 -6.960641,-2.56368 -7.530892,0.39739 -0.599952,3.11529 2.089117,6.31454 4.522659,5.3807 1.046384,-0.40148 1.902516,-1.2304 1.902516,-1.842 z m 90.826274,-4.79504 c 1.62958,-1.9635 1.47376,-2.0826 -1.49294,-1.141 -2.9838,0.94703 -3.1294,0.8308 -1.46762,-1.17153 1.6298,-1.9638 1.5509,-2.11251 -0.67713,-1.27601 -2.22781,0.83641 -2.30852,0.68448 -0.692,-1.30282 2.03463,-2.50129 0.23899,-3.11854 -2.14293,-0.73662 -1.12846,1.12845 -0.98782,2.31454 0.55334,4.66666 2.44463,3.73096 3.48102,3.89927 5.91928,0.96132 z M 67.215475,188.94565 c 1.809281,-2.8683 -1.712529,-6.77202 -4.978755,-5.51866 -2.612626,1.00256 -2.938109,4.67162 -0.620054,6.98968 1.961458,1.96145 3.726121,1.49781 5.598809,-1.47102 z m -5.158536,-0.85352 c -0.986055,-1.59546 1.522167,-3.1763 3.298143,-2.07869 1.491144,0.92157 0.512222,3.31989 -1.355083,3.31989 -0.646775,0 -1.521152,-0.55854 -1.94306,-1.2412 z m 81.218841,-1.40525 c 17.34214,-5.96747 32.4513,-19.1466 41.26232,-35.99151 4.12698,-7.88993 5.49632,-11.82178 8.02026,-23.0287 L 193.38413,124 H 160.69206 128 v -10.66667 -10.66666 h 32.17556 32.17556 l -0.74916,-5.585405 c -0.41204,-3.07197 -3.16079,-10.45227 -6.10834,-16.400668 C 170.22453,49.866293 135.28517,33.0809 101.06563,40.12012 88.743043,42.654969 73.143083,51.070249 64.21374,59.999592 45.215375,78.997957 37.482843,102.23594 41.811929,127.32204 c 4.712776,27.30951 23.150006,49.86217 48.524688,59.35605 14.651053,5.48167 37.023563,5.48538 52.939163,0.009 z m 33.45324,-1.25264 c -0.41892,-0.67783 0.16207,-1.42783 1.2911,-1.66667 1.82748,-0.38657 1.81608,-0.77048 -0.10374,-3.4978 -1.71146,-2.43126 -2.54457,-2.74156 -4.03645,-1.50341 -2.30165,1.9102 -2.40237,4.1778 -0.27987,6.30031 1.87987,1.87986 4.23464,2.15649 3.12903,0.36757 z m -3.39569,-4.10091 c 0,-0.73333 0.6,-1.33333 1.33333,-1.33333 0.73334,0 1.33334,0.6 1.33334,1.33333 0,0.73334 -0.6,1.33334 -1.33334,1.33334 -0.73333,0 -1.33333,-0.6 -1.33333,-1.33334 z M 56.775715,180 c 1.040023,0 1.890951,-0.6 1.890951,-1.33333 0,-0.73334 -0.935411,-1.33334 -2.078689,-1.33334 -1.143279,0 -1.70787,-0.6 -1.254644,-1.33333 0.453225,-0.73333 0.338634,-1.32865 -0.254644,-1.32293 -0.593279,0.005 -1.796748,1.55766 -2.674376,3.44874 -1.364499,2.94019 -1.300404,3.32504 0.442382,2.65627 C 53.967634,180.35193 55.735694,180 56.775715,180 Z m 82.463935,-63.84841 c 0.40169,-0.64996 -0.52327,-1.50958 -2.05547,-1.91026 -1.53221,-0.40068 -2.40624,-1.34269 -1.9423,-2.09335 0.46393,-0.75067 1.7243,-1.02686 2.80082,-0.61376 1.07651,0.41309 1.9573,0.0869 1.9573,-0.7249 0,-2.22258 -5.30295,-1.77326 -6.1845,0.52401 -1.61313,4.20374 3.17518,8.45717 5.42415,4.81826 z m 10.09368,-2.81826 c 0,-3.11111 -0.59259,-4 -2.66667,-4 -2.07408,0 -2.66666,0.88889 -2.66666,4 0,3.11111 0.59258,4 2.66666,4 2.07408,0 2.66667,-0.88889 2.66667,-4 z M 156,115.83674 c 0,-1.09297 0.49546,-1.08539 1.83714,0.0281 1.45016,1.20352 1.99832,0.90832 2.60235,-1.40147 1.01431,-3.87871 0.0748,-5.13005 -3.85152,-5.13005 -2.72737,0 -3.25464,0.64802 -3.25464,4 0,2.2 0.6,4 1.33333,4 0.73334,0 1.33334,-0.67346 1.33334,-1.49659 z M 169.64006,111 c 1.017,-1.25266 0.49495,-1.66667 -2.10162,-1.66667 -3.49075,0 -3.56666,0.36093 -1.3321,6.33334 0.78812,2.10643 0.93172,2.07402 1.47682,-0.33334 0.33208,-1.46666 1.21269,-3.41666 1.9569,-4.33333 z M 176,113.33333 c 0,-2.2 -0.6,-4 -1.33334,-4 -0.73333,0 -1.33333,1.8 -1.33333,4 0,2.2 0.6,4 1.33333,4 0.73334,0 1.33334,-1.8 1.33334,-4 z m 9.33333,-1.65406 c 0,-1.45705 -1.01041,-2.34594 -2.66667,-2.34594 -2.07574,0 -2.66666,0.88889 -2.66666,4.0113 0,3.67753 0.22188,3.87273 2.66666,2.34594 1.46667,-0.91595 2.66667,-2.72103 2.66667,-4.0113 z M 192,113.33333 c 0,-2.2 -0.6,-4 -1.33334,-4 -0.73333,0 -1.33333,1.8 -1.33333,4 0,2.2 0.6,4 1.33333,4 0.73334,0 1.33334,-1.8 1.33334,-4 z m 9.33333,0 c 0,-3.11111 -0.59259,-4 -2.66667,-4 -2.07408,0 -2.66666,0.88889 -2.66666,4 0,3.11111 0.59258,4 2.66666,4 2.07408,0 2.66667,-0.88889 2.66667,-4 z m 10.65257,2.01698 c 2.37146,-2.85742 0.65047,-6.01698 -3.2774,-6.01698 -2.8613,0 -3.37517,0.609 -3.37517,4 0,3.02416 0.61073,4 2.50341,4 1.37687,0 3.24399,-0.89236 4.14916,-1.98302 z M 208,112.58798 c 0,-1.14328 0.6,-1.70787 1.33333,-1.25465 0.73333,0.45323 1.33333,1.38864 1.33333,2.07869 0,0.69006 -0.6,1.25465 -1.33333,1.25465 C 208.6,114.66667 208,113.73126 208,112.58798 Z M 32,90.16326 C 32,89.886385 31.1,88.912919 30,88 c -1.638011,-1.359428 -2,-1.268313 -2,0.503407 0,1.189793 0.9,2.16326 2,2.16326 1.1,0 2,-0.226534 2,-0.503407 z m 171.22206,-5.687431 c 1.19442,-3.112574 -0.0683,-3.82015 -2.4919,-1.396464 -2.55488,2.554883 -2.61422,3.587302 -0.20615,3.587302 1.02155,0 2.23567,-0.985878 2.69805,-2.190838 z M 35.569469,81.865433 c 0.841762,-2.193598 -1.939273,-4.872949 -3.839141,-3.698766 -0.585014,0.361558 -1.063662,1.821968 -1.063662,3.245356 0,3.119726 3.74668,3.466218 4.902803,0.45341 z M 32,81.333333 C 32,80.6 32.6,80 33.333333,80 c 0.733333,0 1.333333,0.6 1.333333,1.333333 0,0.733334 -0.6,1.333334 -1.333333,1.333334 C 32.6,82.666667 32,82.066667 32,81.333333 Z M 200,74.08394 c 0,-0.425263 -1.16119,-0.04803 -2.58043,0.838296 -1.41923,0.886325 -2.28097,2.096012 -1.91499,2.688193 C 196.15073,78.655917 200,75.636308 200,74.08394 Z M 39.764431,71.556179 c 0.290674,-1.498779 -0.469384,-2.222846 -2.333333,-2.222846 -1.520437,0 -2.764432,0.8 -2.764432,1.777778 0,4.083657 4.318967,4.46073 5.097765,0.445068 z M 35.999999,72 c 0,-0.733333 0.6,-1.333333 1.333334,-1.333333 0.733333,0 1.333333,0.6 1.333333,1.333333 0,0.733333 -0.6,1.333333 -1.333333,1.333333 -0.733334,0 -1.333334,-0.6 -1.333334,-1.333333 z M 195.87388,69 c 1.59476,-2.083521 1.41041,-2.333333 -1.72192,-2.333333 -3.14692,0 -3.34042,0.26817 -1.8804,2.606029 0.89512,1.433315 1.66998,2.483315 1.72192,2.333333 0.052,-0.149982 0.89812,-1.322696 1.8804,-2.606029 z M 44.501535,64.616195 c 0.453095,-1.180744 -0.07633,-2.381704 -1.248185,-2.831386 -2.638559,-1.012509 -3.526276,-0.04748 -2.475417,2.69102 1.055809,2.751396 2.697904,2.813296 3.723602,0.140366 z M 190.83674,61.744056 c 1.562,-1.925644 1.55272,-2.088837 -0.0633,-1.114608 -1.41979,0.855912 -1.68033,0.586479 -1.04184,-1.077388 0.95739,-2.494932 -0.10115,-2.800723 -3.06491,-0.885393 -1.33333,0.861666 -1.44444,1.299305 -0.33333,1.312916 C 187.25,59.990783 188,60.9 188,62 c 0,2.573713 0.5842,2.521004 2.83674,-0.255944 z m -5.95118,-7.833679 c 1.21334,-3.161925 -1.63042,-5.391953 -4.17883,-3.276964 -1.57923,1.310644 -1.71259,2.15461 -0.55992,3.543492 1.99664,2.405804 3.75115,2.307123 4.73875,-0.266528 z m -3.55223,-1.165021 c 0,-1.143279 0.6,-2.078689 1.33333,-2.078689 0.73334,0 1.33334,0.564589 1.33334,1.254644 0,0.690054 -0.6,1.625464 -1.33334,2.078689 -0.73333,0.453225 -1.33333,-0.11136 -1.33333,-1.254644 z m -126.801823,0.08417 c 1.204482,-1.451312 0.900968,-2.00025 -1.445181,-2.613782 -3.596871,-0.940603 -4.066404,-0.58391 -2.97506,2.260088 1.025799,2.673186 2.403727,2.783445 4.420241,0.353694 z M 178.66666,45.006815 c 0,-0.74377 -0.88434,-0.599392 -2,0.326518 -1.1,0.912919 -2,2.259852 -2,2.993186 0,0.743769 0.88435,0.599392 2,-0.326519 1.1,-0.912919 2,-2.259852 2,-2.993185 z m -119.409725,1.1022 c -2.792752,-2.04211 -4.05834,-1.817736 -2.645094,0.468944 C 57.095219,47.360081 58.469979,48 59.666862,48 c 1.819952,0 1.752853,-0.309521 -0.409927,-1.890985 z M 172.38633,42.666667 C 172.84938,40.89592 172.42726,40 171.12981,40 c -1.07463,0 -1.58304,0.6 -1.12981,1.333333 0.45322,0.733334 0.15322,1.333334 -0.66667,1.333334 -0.81989,0 -1.11989,0.6 -0.66667,1.333333 1.32056,2.136703 2.96652,1.546699 3.71967,-1.333333 z m -105.052998,0 c 0.453226,-0.733334 -0.111365,-1.333334 -1.254644,-1.333334 -1.143278,0 -2.078689,-0.7 -2.078689,-1.555556 0,-0.855554 -0.314123,-1.241432 -0.698052,-0.857504 C 62.336191,39.886031 64.033171,44 65.397295,44 c 0.611596,0 1.482812,-0.6 1.936037,-1.333333 z M 164.7619,37.333333 c 0,-1.466666 -0.40145,-2.666666 -0.8921,-2.666666 -0.49067,0 -1.20592,1.2 -1.58947,2.666666 C 161.87098,38.89868 162.2394,40 163.17244,40 c 0.87421,0 1.58946,-1.2 1.58946,-2.666667 z M 70.91111,35.711111 c -0.95675,-0.95675 -1.577778,-1.035472 -1.577778,-0.2 0,1.779708 1.576814,3.356521 2.466667,2.466666 0.378889,-0.378888 -0.02111,-1.398888 -0.888889,-2.266666 z m 8.347204,-0.533488 c 1.658756,-0.636524 1.797168,-1.239178 0.612457,-2.666667 -2.186949,-2.635113 -3.870772,-2.277371 -3.870772,0.822377 0,2.941387 0.161341,3.03271 3.258315,1.84429 z m 76.308806,-0.05495 C 155.0846,34.640149 155.43458,33.342577 156.3449,32.239181 157.69968,30.597027 157.6371,30.352884 156,30.89366 153.53105,31.709217 152.51524,36 154.79112,36 c 0.90933,0 1.25853,-0.394795 0.776,-0.877321 z M 89.333332,29.172445 c 0,-1.599686 -0.775889,-2.053226 -2.666667,-1.558777 -1.466666,0.383541 -2.666666,1.398799 -2.666666,2.256127 0,0.857326 1.2,1.558777 2.666666,1.558777 1.61603,0 2.666667,-0.888889 2.666667,-2.256127 z m 59.555558,-0.600193 c 0,-2.629993 -2.77055,-1.628127 -3.31909,1.200227 -0.28118,1.449762 0.21921,1.968969 1.44444,1.498801 1.03105,-0.395652 1.87465,-1.610215 1.87465,-2.699028 z m -8.00333,0.0048 c 1.11128,-2.895949 -1.70992,-5.619353 -3.72927,-3.6 -1.70672,1.706703 -0.6494,5.689615 1.51037,5.689615 0.77936,0 1.77787,-0.940331 2.2189,-2.089623 z m -3.55223,-1.243719 c 0,-1.1 0.6,-2 1.33333,-2 0.73334,0 1.33334,0.9 1.33334,2 0,1.1 -0.6,2 -1.33334,2 -0.73333,0 -1.33333,-0.9 -1.33333,-2 z m -40.333331,1.080899 c -2.716756,-0.709961 -3.066563,-2.562812 -0.666667,-3.531191 1.201743,-0.484914 1.223693,-0.701878 0.07869,-0.777778 C 94.367047,23.969707 92.936628,26.279429 93.999999,28 c 0.453225,0.733333 1.838634,1.263732 3.078689,1.178665 2.032677,-0.139442 2.024931,-0.2147 -0.07869,-0.764433 z m 9.098861,-2.675287 c -0.18252,-1.24358 -1.02943,-2.49358 -1.88203,-2.777777 -1.75924,-0.586416 -1.89068,-0.06663 -0.74085,2.929783 1.08026,2.815104 3.04167,2.701433 2.62288,-0.152006 z m 24.81316,0.324716 c 1.21704,-1.694297 0.0521,-3.396994 -2.32404,-3.396994 -1.05673,0 -1.92132,1.2 -1.92132,2.666666 0,2.673766 2.53599,3.11003 4.24536,0.730328 z m -9.31937,-3.671005 c -1.68939,-1.689397 -4.25932,-0.241556 -4.25932,2.399612 0,1.588476 0.54212,1.678087 2.80981,0.464456 1.91035,-1.022387 2.37436,-1.93922 1.44951,-2.864068 z"
         style="fill:#5a847a;stroke-width:1.33333337" />
      <path
         inkscape:connector-curvature="0"
         id="path843"
         d="M 97.551883,225.2624 C 53.842993,217.4388 19.626137,185.68592 7.8284594,142 c -4.0533047,-15.00908 -4.0533047,-39.65758 0,-54.666667 C 20.307776,41.123361 57.364177,8.8480491 105,2.6990536 c 33.15953,-4.2803468 70.63222,9.4029194 93.85496,34.2714264 19.18345,20.54296 28.94682,43.799352 30.13589,71.78381 1.48567,34.9648 -10.22097,63.81759 -35.48179,87.45019 -15.03996,14.07055 -28.90028,21.76703 -48.9244,27.16715 -9.48961,2.55917 -37.09786,3.66905 -47.032777,1.89077 z m 44.568167,-7.90428 c 21.14963,-5.29787 42.32145,-18.64559 57.14161,-36.02479 8.09554,-9.4934 17.36962,-28.3669 20.9055,-42.54438 C 224.14945,122.82153 223.28334,97.394913 218.23276,82 212.96558,65.944911 204.00957,51.687135 191.4317,39.333333 176.4414,24.610049 162.48157,16.769672 141.172,11.105553 129.44812,7.9893264 105.10951,8.0639124 92.666665,11.254199 36.719315,25.59884 1.7538594,80.1524 13.13962,135.33333 c 8.45452,40.97472 40.672486,73.97004 80.739713,82.68779 12.735737,2.77101 35.797067,2.45408 48.240717,-0.663 z M 97.333332,215.43076 C 50.518781,205.512 17.577461,167.56975 15.059528,120.66667 12.403214,71.185905 44.227714,28.025685 92.801983,15.232755 105.35285,11.927251 129.2881,11.930765 142,15.239976 c 36.34213,9.460727 65.74684,38.596309 74.7014,74.017708 13.63793,53.947326 -18.01648,108.302356 -72.34694,124.229726 -11.82698,3.46718 -35.25834,4.43558 -47.021128,1.94335 z M 109.33333,205.6 c 0,-1.32 0.72,-3.12 1.6,-4 1.24445,-1.24444 0.85132,-1.6 -1.76907,-1.6 -2.98499,0 -3.30215,0.45601 -2.78201,4 0.6318,4.30465 2.95108,5.56212 2.95108,1.6 z m 14.05962,-1.43333 c -0.0442,-2.59182 -0.83806,-3.61056 -3.05962,-3.92607 -2.52835,-0.35908 -3,0.19117 -3,3.5 0,3.20525 0.56174,3.92607 3.05962,3.92607 2.4287,0 3.04732,-0.72174 3,-3.5 z m 13.10471,1.95298 c 2.9164,1.11912 2.6647,-0.75078 -0.63466,-4.7151 -2.24051,-2.69206 -2.9282,-2.92507 -3.93523,-1.33334 -0.67115,1.06083 -1.22946,3.35226 -1.24069,5.09204 -0.0163,2.53174 0.34514,2.85988 1.81059,1.64367 1.00705,-0.83577 2.80705,-1.14505 3.99999,-0.68727 z m -46.444027,-9.8438 c -0.44061,-0.44061 -2.41929,0.81708 -4.397069,2.79486 -3.472225,3.47222 -3.496481,3.59596 -0.704952,3.59596 1.590055,0 3.376419,0.75 3.969697,1.66666 0.691835,1.06895 1.231959,0.0667 1.506062,-2.79485 0.235054,-2.45383 0.06687,-4.82201 -0.373738,-5.26263 z M 146.61941,203 c -0.026,-0.55 -0.90472,-2.5 -1.95275,-4.33333 -1.36092,-2.3807 -1.91901,-2.69766 -1.95274,-1.10906 -0.0665,3.13174 1.35286,6.44239 2.76206,6.44239 0.65487,0 1.16942,-0.45 1.14343,-1 z m 7.55876,-3.68316 c -0.60857,-1.58592 -0.0607,-1.83749 2.56609,-1.17823 3.1871,0.79992 3.26719,0.67866 1.75047,-2.65017 -1.70504,-3.74216 -4.29616,-4.92637 -2.91737,-1.33333 0.69146,1.80197 0.38561,1.9189 -1.86655,0.71358 -3.53704,-1.89297 -4.54423,-0.69346 -2.74093,3.26434 1.5711,3.4482 4.4906,4.52545 3.20829,1.18381 z m -75.428956,-2.86729 c 1.550265,-4.07751 0.129613,-6.27606 -3.592278,-5.55928 -2.991778,0.57617 -3.96688,4.52724 -1.770445,7.17378 2.351476,2.83336 3.842293,2.38454 5.362723,-1.6145 z m -4.82922,-0.579 c -1.220671,-1.97508 1.72401,-4.77294 3.301864,-3.13722 0.745749,0.7731 0.513441,1.91094 -0.596182,2.92006 -1.266,1.15134 -2.087568,1.21729 -2.705682,0.21716 z m 95.583416,-3.45352 c 1.61371,-1.98384 1.53669,-2.13959 -0.65187,-1.31822 -1.84229,0.69143 -2.28925,0.42968 -1.73457,-1.01578 0.53612,-1.39712 0.1072,-1.70754 -1.51821,-1.09882 -1.9769,0.74035 -2.03236,0.56188 -0.43551,-1.40124 1.00647,-1.2373 1.22993,-2.24964 0.4966,-2.24964 -3.08135,0 -4.27847,3.47526 -2.21295,6.4242 2.44999,3.49786 3.64211,3.62766 6.05651,0.6595 z M 65.89095,191.19068 c 1.159977,-0.44512 2.109049,-1.87165 2.109049,-3.17007 0,-3.07746 -3.416525,-5.86314 -5.98302,-4.87829 -2.429965,0.93247 -2.697708,7.02744 -0.350313,7.97464 0.916666,0.36988 1.767594,0.71988 1.89095,0.77777 0.12336,0.0579 1.173355,-0.25892 2.333334,-0.70405 z m -3.834011,-3.09855 c -0.986055,-1.59546 1.522167,-3.1763 3.298143,-2.07869 1.491144,0.92157 0.512222,3.31989 -1.355083,3.31989 -0.646775,0 -1.521152,-0.55854 -1.94306,-1.2412 z m 73.148381,1.27395 c 26.35204,-6.73972 46.39974,-25.16551 55.0783,-50.62232 C 191.9231,133.93469 193.27997,128.65 193.2989,127 l 0.0344,-3 h -32 -32 v -10.66667 -10.66666 h 32 c 17.93272,0 32,-0.5244 32,-1.19289 0,-3.844256 -5.93564,-19.306039 -10.03507,-26.140447 C 156.86416,31.263536 94.975216,25.318709 60.08185,63.497613 52.117671,72.211693 44.407333,87.218835 41.908958,98.868711 30.061688,154.11233 80.760982,203.29059 135.20532,189.36608 Z m 41.52026,-3.93743 c -0.42082,-0.68089 0.35062,-1.43089 1.71431,-1.66666 2.34924,-0.40615 2.33276,-0.58183 -0.31355,-3.34522 -2.48374,-2.59361 -3.07638,-2.70669 -5.35218,-1.0212 -2.47968,1.83648 -2.48362,1.97884 -0.12667,4.58323 2.43244,2.68781 5.52207,3.78625 4.07811,1.44985 z M 174,181.33333 C 174.45322,180.6 175.08864,180 175.41202,180 c 0.32339,0 0.58798,0.6 0.58798,1.33333 0,0.73334 -0.63542,1.33334 -1.41203,1.33334 -0.77661,0 -1.0412,-0.6 -0.58797,-1.33334 z M 58.628052,179.07327 c 0.345428,-0.30338 -0.0146,-0.96898 -0.800074,-1.4791 -0.785471,-0.51013 -1.710575,-1.80494 -2.055787,-2.87737 -0.421972,-1.31088 -1.32783,-0.54633 -2.764258,2.33305 l -2.1366,4.28292 3.564333,-0.85396 c 1.960383,-0.46966 3.846957,-1.10217 4.192386,-1.40554 z M 140,116 c 0,-0.73333 -0.9,-1.33333 -2,-1.33333 -1.1,0 -2,-0.88117 -2,-1.95816 0,-1.19279 0.78172,-1.65818 2,-1.19068 1.1,0.42211 2,0.10328 2,-0.70851 0,-1.94085 -4.3777,-1.89829 -6.3376,0.0616 -2.13593,2.13593 0.3531,6.4624 3.71784,6.4624 1.44086,0 2.61976,-0.6 2.61976,-1.33333 z m 9.61774,-2.66667 c 0.50879,-3.46658 0.17336,-4 -2.51533,-4 -2.55824,0 -3.10241,0.70162 -3.10241,4 0,3.0309 0.60941,4 2.51533,4 1.77547,0 2.68801,-1.17657 3.10241,-4 z m 10.87268,0.93528 c 0.96331,-3.68367 -0.0264,-4.93528 -3.90245,-4.93528 -2.69593,0 -3.25464,0.65805 -3.25464,3.83334 0,3.16448 0.56208,3.83333 3.22141,3.83333 2.12551,0 3.4644,-0.92919 3.93568,-2.73139 z M 169.64006,111 c 1.01779,-1.25362 0.48658,-1.66667 -2.14348,-1.66667 -4.02132,0 -3.99776,-0.0593 -1.9534,4.9132 1.36179,3.31226 1.61375,3.44001 2.14348,1.0868 0.33016,-1.46666 1.20919,-3.41666 1.9534,-4.33333 z M 176,113.33333 c 0,-2.2 -0.6,-4 -1.33334,-4 -0.73333,0 -1.33333,1.8 -1.33333,4 0,2.2 0.6,4 1.33333,4 0.73334,0 1.33334,-1.8 1.33334,-4 z m 7.42857,2.09524 c 2.7748,-2.77481 2.35975,-6.09524 -0.76191,-6.09524 -2.07408,0 -2.66666,0.88889 -2.66666,4 0,4.47352 0.6519,4.87191 3.42857,2.09524 z M 192,113.33333 c 0,-2.2 -0.6,-4 -1.33334,-4 -0.73333,0 -1.33333,1.8 -1.33333,4 0,2.2 0.6,4 1.33333,4 0.73334,0 1.33334,-1.8 1.33334,-4 z m 9.33333,-0.0927 c 0,-3.46987 -0.45165,-4.02789 -2.96775,-3.66667 -2.12129,0.30455 -2.92413,1.28173 -2.81481,3.42607 0.22199,4.35455 0.20673,4.33333 3.11589,4.33333 2.08751,0 2.66667,-0.88888 2.66667,-4.09273 z m 10.65257,2.10971 c 2.37146,-2.85742 0.65047,-6.01698 -3.2774,-6.01698 -2.8613,0 -3.37517,0.609 -3.37517,4 0,3.02416 0.61073,4 2.50341,4 1.37687,0 3.24399,-0.89236 4.14916,-1.98302 z M 208,113.33333 C 208,112.6 208.6,112 209.33333,112 c 0.73333,0 1.33333,0.6 1.33333,1.33333 0,0.73334 -0.6,1.33334 -1.33333,1.33334 -0.73333,0 -1.33333,-0.6 -1.33333,-1.33334 z M 30.396445,90.861888 c 1.397571,-0.886543 1.364829,-1.40016 -0.170476,-2.674351 -1.524708,-1.265394 -2.039525,-1.044504 -2.604953,1.117696 -0.754263,2.884304 0.0083,3.311988 2.775429,1.556655 z M 203.98885,85.368437 c 1.67879,-1.061364 1.70477,-1.525889 0.16667,-2.979582 -1.45079,-1.371164 -1.94731,-1.380787 -2.43607,-0.04721 -0.33764,0.921235 -1.16264,1.335826 -1.83333,0.921311 -0.6707,-0.414516 -1.21946,0.181747 -1.21946,1.325025 0,2.331304 2.32898,2.672832 5.32219,0.78046 z M 35.552222,81.910377 c 0.441025,-1.149293 0.147624,-2.743864 -0.652004,-3.543492 -1.925128,-1.925128 -5.695028,1.08108 -4.678312,3.730599 0.975363,2.541756 4.328318,2.424059 5.330316,-0.187107 z M 32,81.333333 C 32,80.6 32.63541,80 33.412022,80 34.188634,80 34.453225,80.6 34,81.333333 c -0.453226,0.733334 -1.088635,1.333334 -1.412023,1.333334 -0.323388,0 -0.587977,-0.6 -0.587977,-1.333334 z m 168,-7.285006 c 0,-0.44485 -1.2168,-0.157603 -2.70402,0.638326 -1.4872,0.795928 -2.34894,2.02164 -1.91498,2.723806 0.75249,1.217566 4.619,-1.59683 4.619,-3.362132 z M 39.825171,72.877321 c 1.761491,-2.122465 0.672859,-3.543988 -2.714061,-3.543988 -2.388778,0 -3.325021,2.674978 -1.555555,4.444444 1.346835,1.346836 2.628936,1.076443 4.269616,-0.900456 z M 35.999999,72 c 0,-0.733333 0.6,-1.333333 1.333334,-1.333333 0.733333,0 1.333333,0.6 1.333333,1.333333 0,0.733333 -0.6,1.333333 -1.333333,1.333333 -0.733334,0 -1.333334,-0.6 -1.333334,-1.333333 z M 195.73333,70.4 c 2.48549,-2.485495 1.90615,-3.733333 -1.73333,-3.733333 -3.62943,0 -3.71792,0.11304 -2.52402,3.224284 0.96834,2.523442 2.10683,2.659572 4.25735,0.509049 z M 44.501535,64.616195 c 0.453095,-1.180744 -0.07633,-2.381704 -1.248185,-2.831386 -2.638559,-1.012509 -3.526276,-0.04748 -2.475417,2.69102 1.055809,2.751396 2.697904,2.813296 3.723602,0.140366 z m 147.478045,-3.09218 c -0.0107,-0.471542 -0.5092,-1.62767 -1.1066,-2.569175 -1.16654,-1.838484 -5.53965,-0.838685 -5.53965,1.266501 0,0.698154 0.6,0.898551 1.33333,0.445326 C 187.4,60.213441 188,60.7592 188,61.879464 c 0,1.262737 0.7601,1.745164 2,1.269371 1.1,-0.42211 1.99081,-1.153279 1.97958,-1.62482 z m -7.09402,-7.613638 c 1.21334,-3.161925 -1.63042,-5.391953 -4.17883,-3.276964 -1.57923,1.310644 -1.71259,2.15461 -0.55992,3.543492 1.99664,2.405804 3.75115,2.307123 4.73875,-0.266528 z m -3.55223,-1.3224 c 0,-1.143278 0.60979,-1.70182 1.35508,-1.241202 0.74529,0.460618 1.00989,1.396028 0.58797,2.078689 -1.14297,1.849392 -1.94305,1.504548 -1.94305,-0.837487 z m -126.759724,0.19082 c 1.253749,-1.510676 0.999895,-2.067796 -1.270555,-2.788408 -3.438652,-1.091385 -4.305357,-0.416482 -3.191785,2.48544 1.031771,2.688751 2.404941,2.781982 4.46234,0.302968 z m 4.508277,-6.797784 c -2.983642,-2.181692 -4.040781,-1.409649 -1.787476,1.305419 0.920926,1.109647 2.242331,1.666545 2.936456,1.237553 0.694124,-0.428993 0.177084,-1.57333 -1.14898,-2.542972 z M 178.66666,45.006815 c 0,-0.74377 -0.88434,-0.599392 -2,0.326518 -1.1,0.912919 -2,2.259852 -2,2.993186 0,0.743769 0.88435,0.599392 2,-0.326519 1.1,-0.912919 2,-2.259852 2,-2.993185 z m -6.28068,-2.33882 c 0.38335,-1.465936 0.18343,-2.982742 -0.44426,-3.370678 -1.384,-0.85536 -4.19614,4.003826 -3.00592,5.194039 1.52521,1.525217 2.74278,0.881757 3.45018,-1.823361 z m -105.052648,-0.0013 c 0.453226,-0.733334 -0.111365,-1.333334 -1.254644,-1.333334 -1.143278,0 -2.078689,-0.7 -2.078689,-1.555556 0,-0.855554 -0.314123,-1.241432 -0.698052,-0.857504 C 62.336191,39.886031 64.033171,44 65.397295,44 c 0.611596,0 1.482812,-0.6 1.936037,-1.333333 z m 98.432148,-4.536312 c 0.8277,-2.156986 -0.14242,-3.463688 -2.57151,-3.463688 -0.9322,0 -1.60452,1.2 -1.49404,2.666666 0.22984,3.051096 2.99273,3.592742 4.06555,0.797022 z M 70.91111,35.711111 c -0.95675,-0.95675 -1.577778,-1.035472 -1.577778,-0.2 0,1.779708 1.576814,3.356521 2.466667,2.466666 0.378889,-0.378888 -0.02111,-1.398888 -0.888889,-2.266666 z m 8.857842,-3.322839 c -2.234881,-2.692867 -3.768953,-2.032248 -3.768953,1.623027 0,2.981782 0.281944,3.168554 2.598879,1.721605 1.929896,-1.20524 2.231088,-2.066189 1.170074,-3.344632 z m 77.628098,0.825989 c 1.27683,-2.385766 1.14219,-2.718585 -0.93777,-2.318022 -1.33576,0.257245 -2.62955,1.510826 -2.87507,2.78574 -0.62151,3.227201 2.00801,2.904641 3.81284,-0.467718 z M 89.333332,29.335308 c 0,-1.208324 -1.130248,-2.097213 -2.666667,-2.097213 -1.635213,0 -2.666666,0.888889 -2.666666,2.298088 0,1.476156 0.953756,2.226242 2.666666,2.097213 1.466667,-0.11048 2.666667,-1.14462 2.666667,-2.298088 z m 59.999998,-0.922404 c 0,-2.624516 -3.21617,-1.462673 -3.76353,1.359575 -0.3,1.546834 0.20442,1.974642 1.66666,1.413526 1.15328,-0.442553 2.09687,-1.690449 2.09687,-2.773101 z m -8.23479,-0.860757 c 0.54952,-2.833499 -3.64952,-4.563395 -5.15684,-2.124488 -1.29814,2.100434 1.04271,5.577217 3.25842,4.839593 0.8066,-0.268527 1.66089,-1.490324 1.89842,-2.715105 z m -3.76521,-0.88548 c 0,-0.733334 0.6,-1.333334 1.33333,-1.333334 0.73334,0 1.33334,0.6 1.33334,1.333334 C 140,27.4 139.4,28 138.66666,28 c -0.73333,0 -1.33333,-0.6 -1.33333,-1.333333 z m -39.999998,1.312916 c -1.777777,-1.167036 -1.777777,-1.458796 0,-2.625832 1.725955,-1.133018 1.691063,-1.315715 -0.254644,-1.333334 -2.637397,-0.02388 -4.258163,2.071155 -3.078689,3.979583 0.453225,0.733333 1.838634,1.324145 3.078689,1.312916 1.945707,-0.01761 1.980599,-0.200316 0.254644,-1.333333 z m 9.741568,-0.837656 c -0.87547,-0.356151 -1.26128,-1.508783 -0.85735,-2.561404 0.45036,-1.173623 -0.0943,-1.913856 -1.40823,-1.913856 -1.17846,0 -2.14265,0.8 -2.14265,1.777777 0,2.389951 1.33846,3.577461 3.88888,3.450293 1.25919,-0.06279 1.46877,-0.366576 0.51935,-0.75281 z m 23.84883,-1.09721 c 1.14779,-1.60118 -1.45841,-4.950334 -3.07481,-3.951348 -1.8197,1.124638 -1.40028,5.950235 0.48441,5.573298 0.91667,-0.183334 2.08235,-0.913211 2.5904,-1.62195 z m -9.76523,-1.167396 c 1.63155,-1.965896 0.71987,-3.543988 -2.04739,-3.543988 -0.97778,0 -1.77778,1.2 -1.77778,2.666667 0,3.076456 1.68023,3.461824 3.82517,0.877321 z"
         style="fill:#5b5f5e;stroke-width:1.33333337" />
      <path
         inkscape:connector-curvature="0"
         id="path841"
         d="M 105.33333,225.89235 C 103.5,225.5678 98.399999,224.65397 93.999999,223.86163 68.687792,219.30343 40.108377,200.80812 25.445374,179.49617 9.8762493,156.86723 1.7712793,125.80037 5.3380482,102.42353 12.695492,54.202352 43.916865,18.301435 89.333332,5.8388013 101.6611,2.4559651 133.26072,2.4343605 145.33333,5.8005143 213.49828,24.806641 247.9544,97.692561 218.65408,160.89773 c -5.94184,12.81742 -10.75083,20.07547 -20.0246,30.22244 -13.16896,14.40895 -33.59882,26.36598 -53.88106,31.5351 -10.237,2.60898 -32.59204,4.44496 -39.41509,3.23708 z m 28.41147,-6.55179 c 23.96125,-4.17849 42.16101,-13.64212 58.92186,-30.63857 C 248.59234,131.99022 225.50629,38.326507 149.37284,13.052177 137.4447,9.0923444 135.48282,8.8345949 117.33333,8.8428615 99.769969,8.8508611 96.962429,9.1929655 86.666665,12.579657 80.433332,14.630052 72.933332,17.52288 69.999999,19.008163 40.778667,33.804284 18.561553,62.973741 12.538738,94.450624 1.4049476,152.63887 39.972171,208.66392 98.445969,219.24463 c 13.610501,2.46278 21.601721,2.4845 35.298831,0.0959 z m -30.67877,-3.35055 C 92.094072,214.4674 73.761628,208.04949 64.495402,202.48701 32.624877,183.35531 12.360079,144.63967 15.253958,108.41186 18.687678,65.425923 45.642527,31.303227 87.333332,17.165105 95.571411,14.371421 99.091872,14 117.33333,14 c 22.51041,0 30.04299,1.608391 46.54476,9.938463 57.84287,29.198988 73.28401,105.722247 31.54397,156.325657 -21.341,25.87269 -58.83748,40.37737 -92.35603,35.72589 z m 6.2673,-9.05668 c 0,-1.32 0.71,-3.11 1.57778,-3.97777 1.84965,-1.84965 1.51162,-2.28873 -2.77947,-3.61045 -2.66079,-0.81956 -3.05499,-0.60387 -2.33334,1.27674 0.4776,1.2446 0.86837,3.71384 0.86837,5.4872 0,1.77335 0.6,3.22428 1.33333,3.22428 0.73333,0 1.33333,-1.08 1.33333,-2.4 z m 10.77193,0.73334 c 0.0842,-1.33334 0.23977,-1.33334 0.77778,0 1.33962,3.31992 3.11696,1.55877 3.11696,-3.08856 0,-4.40092 -0.27321,-4.7238 -3.66667,-4.33334 -3.53155,0.40635 -4.13272,1.94583 -3.15858,8.08856 0.2676,1.68747 2.81848,1.10716 2.93051,-0.66666 z m 18.40868,-1.78082 c 0.81964,-0.74844 -3.7809,-7.21918 -5.13266,-7.21918 -1.53437,0 -2.11394,1.03097 -3.25196,5.78469 -0.88468,3.69547 -0.80259,3.76252 3.48232,2.84424 2.4136,-0.51724 4.61964,-1.15163 4.9023,-1.40975 z m -46.513941,-3.11013 c 0,-6.84341 -3.420959,-8.81079 -6.565407,-3.77572 -2.155001,3.45071 -2.010759,4.48615 0.5523,3.96464 0.996611,-0.20279 2.192675,0.24721 2.65792,1 1.389791,2.24873 3.355187,1.55228 3.355187,-1.18892 z m 53.415881,-3.22527 C 144.67345,197.59771 143.45114,196 142.69966,196 c -1.69361,0 -1.6937,-0.004 0.13267,5.23539 0.904,2.59322 1.98212,3.81684 2.71621,3.08274 0.73408,-0.73408 0.68143,-2.62648 -0.13266,-4.76768 z m 8.75677,-0.24797 c -0.64425,-1.67892 -0.3026,-1.77572 1.97155,-0.55864 3.7515,2.00775 4.53046,0.77056 2.54017,-4.03443 -1.73944,-4.19937 -4.01771,-5.42852 -4.01771,-2.16757 0,1.21873 -0.93352,1.63105 -2.66666,1.17783 -2.96459,-0.77526 -3.42708,1.0348 -1.28643,5.03465 1.62572,3.03768 4.59496,3.50821 3.45908,0.54816 z m -75.604499,-1.18377 c 1.183033,-1.42547 1.186472,-2.11298 0.01419,-2.8375 -0.850932,-0.5259 -2.005067,-0.21526 -2.564744,0.69032 -0.670758,1.08531 -1.309044,1.17494 -1.872679,0.26295 -1.133459,-1.83397 1.450477,-3.34171 4.030345,-2.35172 1.277784,0.49033 1.841099,0.1588 1.49838,-0.88185 -0.809193,-2.45708 -5.654156,-2.76758 -7.549508,-0.48382 -1.227636,1.47922 -1.270512,2.67422 -0.169748,4.73102 1.711259,3.19752 4.389956,3.55012 6.613767,0.8706 z m 89.989459,-4.26136 c 1.15999,-0.44512 2.10905,-1.40932 2.10905,-2.14266 0,-0.73333 -0.98486,-0.9554 -2.18858,-0.49349 -1.66212,0.63781 -1.84902,0.43067 -0.77692,-0.86112 1.00172,-1.207 0.94674,-2.3368 -0.18931,-3.89045 -1.38437,-1.89324 -1.94227,-1.93994 -4.12337,-0.34508 -2.23314,1.63292 -2.31686,2.22841 -0.73012,5.19326 1.89962,3.5495 2.54422,3.82699 5.89925,2.53954 z M 68.092755,189.88824 c 2.338648,-2.81791 0.0053,-6.55491 -4.092756,-6.55491 -4.098089,0 -6.431404,3.737 -4.092756,6.55491 0.963935,1.16147 2.805675,2.11176 4.092756,2.11176 1.287081,0 3.128821,-0.95029 4.092756,-2.11176 z m -5.426089,-2.55491 c 0,-1.22222 0.645,-2.00722 1.433333,-1.74444 0.788333,0.26278 1.433333,1.04778 1.433333,1.74444 0,0.69667 -0.645,1.48167 -1.433333,1.74444 -0.788333,0.26279 -1.433333,-0.52221 -1.433333,-1.74444 z m 70.934374,3.22318 c 20.7025,-4.22948 42.63474,-21.10476 52.15861,-40.13228 4.97841,-9.94627 9.42928,-24.50049 8.13365,-26.59686 -0.39454,-0.63839 -15.08194,-1.1607 -32.63866,-1.1607 H 129.33333 V 113.33333 104 h 32 32 v -3.07444 c 0,-5.378788 -5.38252,-19.256284 -10.55855,-27.222601 -9.7816,-15.054675 -24.34436,-26.487071 -41.44145,-32.533346 -12.45142,-4.403361 -35.54858,-4.403361 -47.999998,0 -23.194156,8.202462 -40.951454,25.693698 -49.66499,48.920847 -2.482331,6.616999 -2.970035,10.63313 -2.984448,24.57621 -0.01479,14.305 0.435035,17.89473 3.174467,25.33333 9.132449,24.79808 28.964971,43.26387 53.570455,49.87871 8.691204,2.3365 26.426484,2.66884 36.172224,0.6778 z m 43.73229,-4.51467 c 0,-1.19279 0.78172,-1.65817 2,-1.19068 2.5686,0.98567 2.52783,-0.13941 -0.15335,-4.2314 -2.44369,-3.72955 -4.78436,-4.17297 -7.12706,-1.35019 -1.2779,1.53976 -1.10655,2.62328 0.83673,5.29143 2.76939,3.8024 4.44368,4.36036 4.44368,1.48084 z M 53.999999,181.33333 C 54.453225,180.6 55.988634,180 57.412022,180 c 1.423388,0 2.587977,-0.6 2.587977,-1.33333 0,-0.73334 -0.9,-1.33334 -2,-1.33334 -1.1,0 -2,-0.9 -2,-2 0,-1.1 -0.6,-2 -1.333333,-2 -0.733333,0 -1.333333,1.16459 -1.333333,2.58798 0,1.42338 -0.6,2.9588 -1.333334,3.41202 -1.686894,1.04256 -1.740972,3.33334 -0.07869,3.33334 0.690055,0 1.625464,-0.6 2.078689,-1.33334 z m 85.747521,-66 c -0.18446,-0.73333 -1.10311,-1.15703 -2.04146,-0.94155 -0.93833,0.21548 -1.70606,-0.23452 -1.70606,-1 0,-0.76548 1.2,-1.39178 2.66666,-1.39178 3.1728,0 3.53903,-2.04661 0.57008,-3.1859 -2.29916,-0.88227 -7.23674,1.24905 -7.23674,3.12376 0,3.48293 1.92422,5.50807 4.87845,5.13427 1.76244,-0.22301 3.05353,-1.00546 2.86907,-1.7388 z M 150.41781,113 c -0.32023,-3.32126 -1.11848,-4.43284 -3.41781,-4.7594 -1.65,-0.23434 -3.04591,0.0657 -3.10202,0.66667 -0.0561,0.601 -0.32,2.25845 -0.58642,3.68321 -0.67608,3.61544 0.3187,4.74285 4.18494,4.74285 2.96403,0 3.29219,-0.48677 2.92131,-4.33333 z m 10.52293,0.30367 c 0.19827,-2.76917 -0.44394,-4.05614 -2.3214,-4.65202 -3.65622,-1.16044 -5.28601,0.24471 -5.28601,4.55747 0,3.14277 0.56761,3.73422 3.66667,3.8206 3.11226,0.0868 3.7081,-0.47663 3.94074,-3.72605 z m 8.41079,2.363 c 0.0107,-0.91667 0.38,-3.01667 0.82219,-4.66667 0.68033,-2.53869 0.27958,-3 -2.60619,-3 -3.67689,0 -5.79341,1.95767 -3.58928,3.31989 0.74529,0.46062 1.35508,2.00208 1.35508,3.42547 0,1.42338 0.9,2.58797 2,2.58797 1.1,0 2.00819,-0.75 2.0182,-1.66666 z m 7.31513,-3 c 0,-2.07778 -0.75,-4.02778 -1.66666,-4.33334 -1.13131,-0.3771 -1.66667,1.01482 -1.66667,4.33334 0,3.31852 0.53536,4.71043 1.66667,4.33333 0.91666,-0.30556 1.66666,-2.25556 1.66666,-4.33333 z m 7.56038,2.07464 c 3.47874,-3.24094 2.35701,-7.10425 -1.88775,-6.50149 -2.30588,0.32743 -3.10327,1.43606 -3.42377,4.76018 -0.47952,4.97334 1.23798,5.53639 5.31152,1.74131 z M 192,112.66667 C 192,110.1 191.41142,108 190.69206,108 c -1.65328,0 -3.23396,6.04451 -2.07224,7.92422 1.75931,2.84662 3.38018,1.28455 3.38018,-3.25755 z M 202.21733,113 c -0.18433,-3.67538 -0.72345,-4.33333 -3.55067,-4.33333 -2.78609,0 -3.40193,0.71141 -3.75114,4.33333 -0.38682,4.01186 -0.12347,4.33333 3.55066,4.33333 3.63296,0 3.95011,-0.36637 3.75115,-4.33333 z m 10.70337,2.1521 c 1.21234,-3.15928 -1.37648,-6.48543 -5.04776,-6.48543 -3.26454,0 -4.78113,3.04345 -3.36089,6.74455 1.01359,2.64137 7.37081,2.44547 8.40865,-0.25912 z M 208,113.33333 C 208,112.6 208.63541,112 209.41202,112 c 0.77662,0 1.0412,0.6 0.58798,1.33333 -0.45323,0.73334 -1.08864,1.33334 -1.41203,1.33334 -0.32339,0 -0.58797,-0.6 -0.58797,-1.33334 z M 33.333333,90.980324 c 0,-0.788673 -4.308851,-4.207665 -5.382928,-4.271253 -0.393943,-0.02332 -0.801004,1.082596 -0.90458,2.457596 -0.136331,1.809829 0.705565,2.5 3.049595,2.5 1.780852,0 3.237913,-0.308855 3.237913,-0.686343 z M 204.8565,83.343765 c -0.46078,-1.279858 -6.02093,-1.290454 -7.29748,-0.01391 -0.33313,0.333133 0.13094,1.493326 1.03135,2.578208 1.31424,1.583558 2.14113,1.657698 4.19348,0.375986 1.40604,-0.878088 2.33873,-2.201217 2.07265,-2.940289 z M 35.284118,83.192072 c 1.653233,-1.653233 1.789675,-2.564897 0.598645,-4 -0.848438,-1.022307 -2.387979,-1.858739 -3.421203,-1.858739 -2.654491,0 -3.737506,3.659296 -1.780802,6.01698 2.03384,2.450628 1.993091,2.452028 4.60336,-0.158241 z M 200.89197,73.780861 c -0.88131,-0.8813 -6.22531,2.017766 -6.22531,3.377162 0,2.465069 1.72946,2.445853 4.22223,-0.04691 1.46667,-1.466667 2.36805,-2.965279 2.00308,-3.330249 z M 40.902802,72.5321 c 0.81248,-2.117287 -1.498384,-4.472451 -4.426817,-4.511683 -1.814976,-0.02432 -3.466053,3.710952 -2.401621,5.433239 1.238302,2.003616 5.949954,1.367739 6.828438,-0.921556 z M 195.95153,70.058407 c 1.541,-1.856795 0.90797,-4.747608 -1.03023,-4.704656 -2.39533,0.05308 -4.26004,2.414089 -3.49048,4.419516 1.05122,2.739432 2.41256,2.825297 4.52071,0.28514 z M 45.803075,62.348037 c -0.344916,-0.558086 -1.79171,-1.014704 -3.215098,-1.014704 -2.879802,0 -3.422191,2.632454 -1.034375,5.02027 1.182581,1.182581 1.950391,1.010964 3.2151,-0.718628 0.913823,-1.249728 1.379291,-2.72885 1.034373,-3.286938 z M 192,62 c 1.1468,-1.381817 1.19726,-2 0.16325,-2 -0.82312,0 -1.49659,-0.9 -1.49659,-2 0,-2.571009 -1.20317,-2.531089 -4.15222,0.137763 -1.85878,1.682172 -2.02323,2.523824 -0.77166,3.949282 2.10156,2.393526 4.22302,2.364014 6.25722,-0.08704 z M 54.180247,54.010228 c 2.396986,-2.396985 1.295791,-4.676895 -2.258937,-4.676895 -2.713051,0 -3.123749,1.052368 -1.778659,4.557618 1.001995,2.611157 1.530114,2.62676 4.037596,0.11928 z m 131.006273,0.166677 c 1.15026,-1.385989 1.03364,-2.220956 -0.48643,-3.482501 -2.34765,-1.94838 -6.03343,-0.904859 -6.03343,1.708195 0,3.806605 3.94271,4.87957 6.51986,1.774306 z M 61.503406,47.083692 C 63.102391,45.117961 63.04425,44.942343 61.042699,45.692127 59.782851,46.164069 58.39744,45.976407 57.96401,45.275101 57.530579,44.573796 56.518371,44 55.714659,44 c -0.80371,0 -0.375308,1.2 0.952007,2.666667 2.904109,3.209005 2.587841,3.181736 4.83674,0.417025 z m 115.856674,0.21742 c 2.57649,-3.104492 0.73806,-3.689537 -2.01935,-0.64262 -1.33139,1.471163 -1.80117,2.674841 -1.04397,2.674841 0.7572,0 2.13569,-0.9145 3.06332,-2.032221 z m -4.83607,-4.076828 c 1.27411,-3.320267 0.96359,-4.557617 -1.14377,-4.557617 -2.17371,0 -5.09631,4.50615 -3.77778,5.824689 1.53406,1.534051 4.10018,0.873391 4.92155,-1.267072 z M 67.999999,42.987396 c 0,-1.415869 -5.433761,-4.664745 -6.319839,-3.778668 C 60.590856,40.298032 64.054715,44 66.163259,44 c 1.010207,0 1.83674,-0.455672 1.83674,-1.012604 z m 97.348081,-4.348285 c 1.46824,-2.743434 0.80186,-5.305778 -1.37986,-5.305778 -1.7247,0 -4.24596,5.138588 -3.28453,6.694223 1.28039,2.071713 3.10291,1.529207 4.66439,-1.388445 z M 73.290928,39 C 73.213182,37.166557 69.748358,33.362752 68.915075,34.196035 67.837868,35.273241 70.38844,40 72.046911,40 c 0.707532,0 1.267339,-0.45 1.244017,-1 z m 6.709071,-2.972199 c 1.759136,-1.112388 1.734401,-1.530368 -0.205385,-3.470682 -2.712482,-2.713218 -5.123746,-1.495719 -4.1806,2.110876 0.778664,2.97761 1.482497,3.195824 4.385985,1.359806 z m 77.780171,-1.592522 c 1.40649,-5.378444 -1.96953,-7.064167 -4.53759,-2.265714 -1.18396,2.212254 -1.12094,3.087772 0.28642,3.979583 2.72965,1.729699 3.42385,1.449832 4.25117,-1.713869 z M 86.666665,32.041847 c 0,-0.710319 0.9,-0.946126 2,-0.524015 2.329936,0.89408 2.642063,-1.885547 0.544742,-4.851165 -1.010716,-1.429156 -1.60032,-1.545676 -2.065727,-0.408236 -0.358216,0.87547 -1.616703,1.221305 -2.796636,0.768521 -1.629253,-0.625203 -1.929277,-0.260204 -1.247191,1.517287 0.49398,1.28729 0.898146,2.891456 0.898146,3.56481 0,0.673356 0.6,1.224284 1.333333,1.224284 0.733333,0 1.333333,-0.581169 1.333333,-1.291486 z m 62.775715,-1.37518 c 0.67335,0 1.22428,-0.9 1.22428,-2 0,-1.111111 -1.18518,-2 -2.66666,-2 -1.46667,0 -2.66667,0.250928 -2.66667,0.557617 0,0.306688 -0.40416,1.610853 -0.89815,2.898144 -0.70452,1.835939 -0.39354,2.146899 1.44239,1.442384 1.28729,-0.49398 2.89145,-0.898145 3.56481,-0.898145 z m -49.704269,-2.5458 c 0.430259,-1.29205 -0.05593,-1.617546 -1.556179,-1.041846 -1.200064,0.460507 -2.181933,0.256118 -2.181933,-0.454201 0,-0.710317 0.63541,-1.291487 1.412022,-1.291487 0.776612,0 1.057398,-0.573796 0.623967,-1.275101 -1.205832,-1.951077 -4.702656,-0.07065 -4.702656,2.528864 0,1.265987 0.420741,2.722535 0.934981,3.236775 1.43654,1.43654 4.769926,0.398701 5.469798,-1.703004 z m 41.546749,0.604206 C 143.28372,26.316592 142.00008,24 138.66666,24 c -2.99724,0 -4.51822,2.059664 -3.49333,4.730516 0.95456,2.487523 4.04484,2.484771 6.11153,-0.0055 z m -33.30528,-2.534392 c -0.0361,-2.693434 -2.30233,-5.227278 -3.83051,-4.282812 -1.57684,0.974542 -2.01697,5.113119 -0.68538,6.444707 1.19121,1.191213 4.53934,-0.411637 4.51589,-2.161895 z m 23.27765,-3.647152 c -0.9764,-1.57984 -4.59057,-1.568748 -4.59057,0.01409 0,0.673355 -0.34405,2.120876 -0.76456,3.216714 -0.47888,1.247933 0.14389,2.17715 1.66666,2.486781 2.51003,0.510372 5.07768,-3.469799 3.68847,-5.717583 z m -8.59057,0.611727 c 0,-1.763444 -3.34427,-3.366536 -4.53631,-2.174499 -0.43836,0.438362 -0.79702,2.202106 -0.79702,3.919431 0,2.78864 0.28505,2.944391 2.66667,1.457048 1.46666,-0.915948 2.66666,-2.35684 2.66666,-3.20198 z"
         style="fill:#040505;stroke-width:1.33333337" />
    </g>
  </g>
</svg>
