<?xml version="1.0" encoding="UTF-8" standalone="no"?>
<!-- Created with Inkscape (http://www.inkscape.org/) -->

<svg
   xmlns:dc="http://purl.org/dc/elements/1.1/"
   xmlns:cc="http://creativecommons.org/ns#"
   xmlns:rdf="http://www.w3.org/1999/02/22-rdf-syntax-ns#"
   xmlns:svg="http://www.w3.org/2000/svg"
   xmlns="http://www.w3.org/2000/svg"
   xmlns:sodipodi="http://sodipodi.sourceforge.net/DTD/sodipodi-0.dtd"
   xmlns:inkscape="http://www.inkscape.org/namespaces/inkscape"
   version="1.1"
   id="svg5536"
   width="472.53333"
   height="473.60001"
   viewBox="0 0 472.53333 473.60001"
   sodipodi:docname="roundyellow.svg"
   inkscape:version="0.92.3 (2405546, 2018-03-11)">
  <metadata
     id="metadata5542">
    <rdf:RDF>
      <cc:Work
         rdf:about="">
        <dc:format>image/svg+xml</dc:format>
        <dc:type
           rdf:resource="http://purl.org/dc/dcmitype/StillImage" />
        <dc:title></dc:title>
      </cc:Work>
    </rdf:RDF>
  </metadata>
  <defs
     id="defs5540" />
  <sodipodi:namedview
     pagecolor="#ffffff"
     bordercolor="#666666"
     borderopacity="1"
     objecttolerance="10"
     gridtolerance="10"
     guidetolerance="10"
     inkscape:pageopacity="0"
     inkscape:pageshadow="2"
     inkscape:window-width="1366"
     inkscape:window-height="705"
     id="namedview5538"
     showgrid="false"
     inkscape:measure-start="0,0"
     inkscape:measure-end="0,0"
     inkscape:zoom="0.99662161"
     inkscape:cx="42.986056"
     inkscape:cy="210.84645"
     inkscape:window-x="-8"
     inkscape:window-y="-8"
     inkscape:window-maximized="1"
     inkscape:current-layer="svg5536" />
  <g
     id="g6089"
     transform="translate(2.0067798,-1.0033899)">
    <path
       style="fill:#fcf4cf;stroke-width:1.06666672"
       d="M 203.73333,470.81994 C 163.83816,465.49827 124.5301,449.01566 91.519054,423.7664 42.483757,386.26061 9.2271393,327.18825 2.1741142,265.06667 0.75928479,252.60515 0.76138914,223.76032 2.1779682,212.23869 7.5999606,168.13934 25.875981,124.95731 53.526425,90.914104 68.223512,72.819062 90.302643,53.43127 110.93333,40.504821 122.17322,33.462319 144.71641,22.580988 156.89277,18.320764 181.63139,9.6652872 207.75075,5.3333334 235.2,5.3333334 c 36.94518,0 68.56063,7.1263816 101.33333,22.8413726 48.28913,23.155338 84.83737,59.244436 108.70432,107.338714 11.90447,23.98867 19.69985,50.01081 22.98437,76.72527 1.43068,11.63622 1.43068,41.75308 0,53.38929 -5.42198,44.09935 -23.698,87.28138 -51.34844,121.32459 -14.69709,18.09504 -36.77623,37.48284 -57.40692,50.40928 -11.23988,7.04251 -33.78308,17.92383 -45.95943,22.18406 -13.49062,4.72006 -33.92199,9.53807 -48.22853,11.37296 -15.56025,1.99569 -46.21194,1.94642 -61.54537,-0.0989 z m 70.4,-146.76773 c 1.46667,-0.95788 7.16205,-3.75192 12.65641,-6.20896 13.10183,-5.85906 28.41314,-14.60488 32.85925,-18.7692 3.9927,-3.73964 4.63972,-8.00799 1.99046,-13.13109 -2.08817,-4.03806 -3.21665,-4.34295 -16.07419,-4.34295 -11.52504,0 -17.74374,0.93041 -29.14429,4.36043 -10.44781,3.14337 -11.09864,2.96222 -14.88585,-4.1433 -5.16515,-9.69083 -5.79718,-14.26492 -3.87516,-28.0452 0.91142,-6.53458 1.48857,-13.38651 1.28257,-15.22649 l -0.37456,-3.34545 -1.37337,3.20001 c -2.33761,5.44676 -4.3946,18.43557 -4.3946,27.74965 0,8.10803 0.33469,9.53944 3.7815,16.17284 6.36054,12.24084 5.13434,11.85027 23.01337,7.33021 8.43616,-2.13278 19.17846,-4.13157 23.87179,-4.44177 7.37806,-0.48765 9.00267,-0.26694 12,1.63019 5.11735,3.23897 4.67828,6.53603 -1.49849,11.25234 -5.31764,4.06032 -22.10352,12.52442 -39.08405,19.70772 l -10.44922,4.42034 -13.11933,-1.18595 c -9.50219,-0.85897 -16.53584,-0.86801 -25.51098,-0.0327 l -12.39166,1.15317 -9.37313,-3.87493 c -11.80938,-4.88208 -31.12299,-14.53099 -38.41163,-19.19012 -6.59376,-4.21494 -8.1835,-7.94299 -4.82097,-11.3055 4.57525,-4.57526 18.4442,-3.56027 40.65457,2.97526 6.74253,1.98403 12.32091,3.49453 12.3964,3.35666 0.0755,-0.13785 1.63956,-2.65065 3.47567,-5.58399 6.25808,-9.99774 7.68419,-14.29763 7.7094,-23.24497 0.0236,-8.35111 -2.24105,-21.96609 -4.53278,-27.25152 l -1.23003,-2.83689 -0.3526,3.73334 c -0.19393,2.05333 0.32002,8.92536 1.14211,15.27119 1.69998,13.12239 1.03916,18.99381 -2.89286,25.70329 -4.9647,8.47161 -5.28365,8.57363 -17.31709,5.53862 -15.97761,-4.02977 -28.43114,-5.42315 -35.11054,-3.92836 -6.96853,1.55948 -10.50945,5.07344 -10.50945,10.42941 0,5.78381 5.1676,9.65566 30.27629,22.68461 l 21.65063,11.23457 32.64987,-0.0365 c 28.36127,-0.0317 33.00015,-0.26518 35.31654,-1.77803 z m -120.2842,-44.51285 c 14.38467,-3.67898 28.11633,-12.14898 39.19052,-24.17361 5.51435,-5.98761 6.1979,-7.37944 12.27127,-24.98662 l 6.43164,-18.64579 7.99539,-3.98791 c 8.75657,-4.36756 12.79538,-8.13189 12.79538,-11.92578 0,-1.35377 -2.38734,-5.69545 -5.3052,-9.6482 -5.81164,-7.87288 -7.02813,-11.88108 -6.06753,-19.99182 1.34401,-11.34807 6.8308,-17.91296 14.97125,-17.91296 7.03291,0 14.03054,8.76013 15.25478,19.09701 0.65565,5.5359 -1.74431,12.49543 -6.45235,18.71094 -4.40285,5.81257 -5.03916,7.64306 -3.79671,10.92222 1.86502,4.92233 5.34738,7.77316 11.61304,9.50698 13.30601,3.68203 13.36679,3.75703 19.79479,24.42952 2.18905,7.04 4.86005,14.53812 5.93555,16.66251 2.64723,5.22894 13.76547,15.97358 22.76166,21.99683 12.13886,8.12735 35.05416,14.77523 37.46792,10.86969 1.07731,-1.74313 0.30958,-2.07967 -9.76823,-4.28196 -15.83815,-3.46108 -24.47734,-8.34577 -39.58561,-22.38214 L 281.96752,246.93334 277.37717,232 c -5.37067,-17.47186 -8.03238,-23.59385 -11.14477,-25.63317 -1.24382,-0.81499 -5.37494,-2.26444 -9.18027,-3.22101 -3.80535,-0.95657 -7.9988,-2.42677 -9.3188,-3.26711 -3.10319,-1.97555 -3.18099,-6.84176 -0.15316,-9.58005 5.00645,-4.52772 6.70845,-9.88286 6.74805,-21.23199 0.031,-8.89773 -0.34071,-11.37424 -2.24169,-14.93333 -5.36859,-10.05126 -13.18811,-13.30273 -22.77086,-9.46848 -6.27284,2.5099 -10.54572,9.19603 -11.95807,18.71182 -1.56045,10.51367 0.0517,17.03121 6.15792,24.8948 2.61313,3.3652 4.75115,6.94639 4.75115,7.95821 0,2.6952 -2.97557,4.85461 -9.6,6.96687 -3.22667,1.02885 -6.93109,2.83954 -8.23204,4.02376 -2.63646,2.39991 -5.78821,10.26382 -11.42767,28.51302 l -3.79071,12.26667 -8.80812,7.72226 c -4.84447,4.24724 -10.59816,8.93777 -12.78598,10.4234 -5.26783,3.5771 -17.92819,8.53475 -25.88882,10.13777 -7.39414,1.48895 -10.45533,2.86594 -9.56692,4.30341 0.98343,1.59124 6.91429,1.1951 15.68272,-1.04749 z"
       id="path6103"
       inkscape:connector-curvature="0" />
    <path
       style="fill:#fbedae;stroke-width:1.06666672"
       d="m 214.4,471.92577 c -1.46667,-0.24934 -6.98667,-0.9918 -12.26667,-1.6499 C 189.85204,468.74513 171.06301,464.14135 156.869,459.18501 85.942855,434.41861 30.647247,375.47899 9.6631084,302.27818 3.4336838,280.54753 1.6722033,266.62474 1.6488611,238.93334 1.6255289,211.25382 3.3528273,197.60121 9.6631084,175.58849 32.856124,94.682259 96.518851,32.954873 178.09574,12.276194 199.22303,6.9207048 207.94479,5.9552877 235.2,5.9552877 c 27.25521,0 35.97697,0.9654171 57.10425,6.3209063 81.5769,20.678679 145.23962,82.406065 168.43264,163.312296 6.28326,21.91845 8.02487,35.66598 8.02487,63.34485 0,21.50589 -0.34976,27.01724 -2.46222,38.79799 -9.1604,51.08585 -31.99832,93.98845 -69.11584,129.8389 -33.89135,32.7344 -76.58484,53.99407 -125.19857,62.34392 -9.60829,1.65032 -51.17021,3.1022 -57.58513,2.01162 z m 39.33426,-145.82039 c 13.02082,0.81125 17.01567,0.74635 18.26574,-0.29672 0.88,-0.7343 8.56,-4.64989 17.06666,-8.70135 16.20349,-7.71719 26.26975,-13.59603 31.2,-18.22125 3.69935,-3.47048 4.06916,-10.22106 0.78839,-14.39188 -4.22871,-5.37593 -23.62109,-4.94746 -44.04024,0.97305 -5.16185,1.49667 -10.09596,2.44847 -10.96471,2.1151 -0.86875,-0.33336 -3.24541,-4.08223 -5.28148,-8.33079 -4.11272,-8.58181 -4.63467,-14.16473 -2.56897,-27.47849 0.62314,-4.01623 0.96555,-9.38818 0.76091,-11.93765 l -0.37207,-4.6354 -1.73368,3.74101 c -2.48949,5.37192 -4.22527,16.12605 -4.30824,26.692 -0.0689,8.76953 0.11909,9.51636 4.52772,17.99032 2.52977,4.86254 5.34575,9.1273 6.25772,9.47726 0.91197,0.34995 7.67535,-0.89747 15.02973,-2.77207 16.84292,-4.29318 27.5958,-5.99902 32.27809,-5.12062 4.0581,0.7613 8.2935,4.14101 8.2935,6.61792 0,4.20676 -11.10079,10.9573 -36.99712,22.49847 l -17.26377,7.69394 -9.93623,-1.07344 c -5.61175,-0.60626 -17.17078,-0.76395 -26.55894,-0.36233 l -16.62272,0.71111 -13.68404,-5.98827 c -16.70756,-7.31139 -30.363,-14.66473 -35.3273,-19.02344 -4.80852,-4.22194 -4.47944,-7.0638 1.13531,-9.80424 3.85491,-1.88152 5.03005,-1.95204 13.86666,-0.83215 5.31015,0.67297 15.4065,2.91805 22.43633,4.98905 7.02984,2.07102 13.05434,3.76549 13.38778,3.76549 0.33344,0 2.84717,-3.72 5.58606,-8.26667 6.40128,-10.6264 7.74241,-16.75601 6.19202,-28.30052 -2.56803,-19.12205 -7.23832,-29.60386 -6.04456,-13.56615 2.16752,29.11963 2.29044,26.05649 -1.3416,33.43419 -5.32305,10.81265 -4.92284,10.67199 -19.89454,6.99239 -7.04,-1.73021 -17.18621,-3.44288 -22.54712,-3.80591 -8.64751,-0.58558 -10.28942,-0.39753 -14.5541,1.66697 -8.16825,3.95418 -9.23942,10.65534 -2.72184,17.02749 3.04054,2.97268 44.3328,25.48333 49.19383,26.81821 1.06818,0.29333 8.21716,0.11342 15.88661,-0.39982 8.45048,-0.5655 20.5106,-0.52406 30.61021,0.10517 z m -99.93554,-46.15687 c 13.63267,-3.53258 25.64798,-10.59017 36.91407,-21.6827 7.83356,-7.71288 9.15877,-10.223 15.55649,-29.46581 2.73071,-8.21333 5.34025,-15.52474 5.79899,-16.24759 0.45873,-0.72284 4.2463,-2.97489 8.41682,-5.00457 13.66487,-6.65028 15.06433,-10.70945 7.26796,-21.0809 -7.4618,-9.9264 -8.57335,-18.40423 -3.81976,-29.1336 2.49535,-5.63228 5.41462,-8.07245 10.38391,-8.67976 7.60423,-0.92931 14.05229,5.36639 16.31838,15.93278 1.51553,7.06669 0.0249,12.31915 -6.01142,21.18205 -4.08522,5.99818 -4.72414,7.6148 -4.11165,10.40347 1.1874,5.4062 5.92124,9.17662 14.09055,11.22288 3.99499,1.00066 8.35984,2.84513 9.69968,4.09881 1.62939,1.52461 4.2131,7.86066 7.80237,19.13385 3.75174,11.78345 6.40349,18.21429 8.81364,21.37421 4.87852,6.39616 18.11498,17.22148 26.28125,21.49387 13.31459,6.96587 28.9499,10.17965 31.94825,6.56685 1.38075,-1.66369 1.71183,-1.54173 -14.34825,-5.28538 -9.97154,-2.32441 -17.2536,-6.01783 -26.47505,-13.42804 -14.30217,-11.49298 -15.86965,-13.73183 -20.87514,-29.81615 -7.61368,-24.46534 -8.3328,-25.45246 -21.12664,-29.00008 -7.42148,-2.05791 -10.99663,-4.4126 -10.97948,-7.23135 0.005,-0.93574 1.68521,-3.8083 3.73228,-6.38347 4.77674,-6.00905 6.14668,-11.28991 5.69111,-21.9381 -0.57965,-13.54813 -6.07646,-22.22289 -14.99916,-23.67085 -13.08181,-2.12289 -21.8296,6.6785 -22.95484,23.09551 -0.68997,10.06637 0.50521,13.99045 6.81957,22.3904 2.63748,3.50863 4.6357,7.20863 4.4405,8.22224 -0.4082,2.11964 -3.16231,3.70569 -11.83223,6.814 -5.44504,1.95214 -6.45211,2.7864 -8.68662,7.19598 -1.39013,2.7433 -4.7695,12.04144 -7.50969,20.6625 -4.95717,15.59598 -5.01325,15.70346 -11.17126,21.40469 -15.17676,14.051 -22.81694,18.33944 -40.45358,22.70663 -10.78179,2.66978 -11.39127,2.94481 -10.3303,4.66149 1.01275,1.63866 8.32553,1.39946 15.70925,-0.51386 z"
       id="path6101"
       inkscape:connector-curvature="0" />
    <path
       style="fill:#fbe68e;stroke-width:1.06666672"
       d="M 210.66667,471.42624 C 108.33585,459.78074 25.783261,384.82017 5.9109508,285.50105 c -6.53200516,-32.64608 -6.53200516,-60.48934 0,-93.13542 C 22.970409,107.10476 87.584926,37.693664 171.94558,14.005619 194.48949,7.6754006 208.03067,5.9511411 235.2,5.9511411 c 27.16933,0 40.7105,1.7242595 63.25442,8.0544779 84.36065,23.688045 148.97517,93.099141 166.03462,178.360011 11.36689,56.81018 2.02478,114.24357 -26.54647,163.20236 -35.63102,61.05614 -94.22415,101.64374 -164.34257,113.84052 -14.62634,2.54418 -48.70607,3.63682 -62.93333,2.01773 z m 18.4,-145.569 c 3.96,-0.29851 14.87999,-0.0631 24.26666,0.523 16.28,1.01663 17.2002,0.96766 19.96365,-1.0623 1.59334,-1.17043 7.23313,-4.03621 12.53286,-6.3684 10.62651,-4.67627 24.77339,-12.42826 31.73995,-17.39237 6.54045,-4.66047 7.74162,-9.28104 4.28681,-16.49006 -3.01472,-6.29069 -23.24779,-6.08939 -46.0427,0.45808 -10.98354,3.15485 -10.33012,3.45713 -15.40208,-7.12518 -3.12848,-6.52736 -3.427,-11.82239 -1.78901,-31.73334 1.60574,-19.51873 -3.53271,-10.63906 -6.01823,10.4 -1.55578,13.16927 -0.69719,18.17962 4.76523,27.80739 3.58106,6.3118 5.06223,7.9916 7.27305,8.2483 1.5269,0.17729 8.26662,-1.10322 14.97716,-2.84558 15.88417,-4.12425 27.32012,-5.70829 31.844,-4.41086 3.95454,1.13414 7.46931,3.93381 7.46931,5.94962 0,3.94815 -18.55965,14.68213 -42.66667,24.6763 l -10.13333,4.20102 -28.26667,-0.20961 -28.26666,-0.2096 -9.06667,-3.94542 c -22.54742,-9.81165 -41.6,-21.16242 -41.6,-24.78364 0,-2.60759 3.2475,-5.00917 7.58002,-5.60552 7.21342,-0.99291 18.28202,0.64019 33.3467,4.92007 l 13.72672,3.89977 1.98369,-2.57945 c 1.09104,-1.4187 3.79402,-5.93945 6.00663,-10.04612 3.93653,-7.30634 4.01952,-7.69571 3.86505,-18.13333 -0.10368,-7.00376 -0.92864,-13.56732 -2.40245,-19.11357 -2.3748,-8.93685 -2.85162,-9.9634 -4.06448,-8.75054 -1.01651,1.01652 -0.72533,7.70013 0.84335,19.35809 0.7125,5.29502 0.97304,11.77725 0.579,14.40495 -0.81158,5.41199 -6.29507,15.73953 -8.88464,16.73325 -0.94391,0.36221 -7.19185,-0.67694 -13.88435,-2.30921 -12.76739,-3.11391 -27.29552,-4.5648 -33.69225,-3.36477 -5.72932,1.07483 -10.33632,5.91223 -10.33632,10.85325 0,6.06607 5.08224,9.91916 31.12707,23.59898 l 22.7396,11.94375 7.2,-0.47708 c 3.96,-0.26242 10.44,-0.72135 14.4,-1.01987 z M 155.2,279.8026 c 13.46575,-3.3387 31.78178,-15.3835 40.86268,-26.87169 3.15686,-3.99374 5.39273,-9.07757 9.73046,-22.12472 3.09749,-9.31673 6.17007,-17.59989 6.82795,-18.40702 0.65788,-0.80712 4.68581,-3.1239 8.95096,-5.14839 12.82036,-6.08533 14.07277,-10.66316 5.91903,-21.63559 -4.61655,-6.21246 -5.07584,-7.37955 -5.43996,-13.82363 -0.70795,-12.5291 2.88921,-20.30933 10.43525,-22.57017 3.49823,-1.0481 4.71212,-0.9336 8.20944,0.77433 8.22671,4.01752 12.74423,19.68043 8.20694,28.45459 -0.97014,1.87606 -3.37014,5.74609 -5.33333,8.60005 -4.12027,5.98981 -4.38277,8.40257 -1.43941,13.23008 2.30406,3.77897 5.75066,5.64854 15.15358,8.21992 3.74458,1.02402 6.73106,2.5805 7.76763,4.04832 0.92622,1.31156 3.80524,8.95798 6.39781,16.99204 2.59258,8.03405 5.65878,16.45971 6.81376,18.72368 2.53361,4.96628 14.36732,16.32847 22.88342,21.97162 11.54828,7.6524 30.56114,13.60437 36.38477,11.39023 5.52212,-2.09951 2.57702,-3.89716 -10.59765,-6.46864 -12.79776,-2.49793 -25.45541,-10.00567 -39.181,-23.23975 -4.72305,-4.55391 -5.36448,-5.86364 -9.9738,-20.36526 -8.00205,-25.17565 -8.62746,-26.02025 -21.77853,-29.4115 -10.95511,-2.82497 -12.85741,-5.63824 -7.83507,-11.58711 5.1806,-6.13634 6.72041,-11.04928 6.73456,-21.48732 0.0145,-10.72746 -2.46465,-17.91449 -7.91093,-22.93333 -2.55256,-2.35225 -3.84098,-2.66667 -10.92725,-2.66667 h -8.03348 l -4.52173,4.9944 c -5.62495,6.21295 -7.32563,11.94736 -6.82263,23.00467 0.40341,8.86789 -0.005,7.92597 8.99916,20.71185 3.69482,5.24614 2.44021,7.45537 -5.6338,9.92054 -11.73699,3.58355 -12.55946,4.76993 -20.06396,28.94166 -2.71321,8.73916 -5.73975,16.79078 -6.72566,17.89249 -0.9859,1.10172 -6.26662,5.74525 -11.73493,10.31898 -10.95066,9.15916 -17.75646,12.46812 -33.79095,16.42902 -6.59799,1.62987 -9.70243,2.8981 -9.92756,4.05564 -0.61373,3.15562 4.85132,3.17657 17.39423,0.0667 z"
       id="path6099"
       inkscape:connector-curvature="0" />
    <path
       style="fill:#fbe179;stroke-width:1.06666672"
       d="M 212.45385,471.38541 C 152.55132,465.60226 94.706619,435.22462 56.330034,389.3956 15.892771,341.10576 -3.7771689,278.45523 2.1995896,216.98526 9.1962112,145.02618 50.201985,78.691094 110.89565,41.147529 229.98571,-32.518571 385.06921,12.152582 445.74681,137.6 c 31.3923,64.90176 31.3923,137.76491 0,202.66667 -42.69054,88.2602 -135.70889,140.53974 -233.29296,131.11874 z M 273.2585,325.6893 c 0.77449,-0.60287 9.80816,-5.23681 20.07483,-10.29765 21.87804,-10.78453 28.92049,-15.68006 30.25733,-21.03328 1.23086,-4.92885 -1.37127,-11.30624 -5.20851,-12.76515 -7.05311,-2.68159 -27.79643,-0.75686 -44.43828,4.12331 -8.26962,2.42504 -8.30101,2.40822 -12.99557,-6.96171 -3.96433,-7.91247 -4.32602,-12.21832 -2.29388,-27.30895 1.22111,-9.0679 1.4692,-14.02421 0.765,-15.28256 -0.92111,-1.64593 -1.23971,-1.48038 -2.74197,1.42467 -2.26729,4.38444 -4.94412,20.14511 -4.94412,29.10999 0,6.43686 0.52626,8.26978 4.86005,16.92694 4.68397,9.35669 4.99053,9.70843 8.46125,9.70843 1.98065,0 9.27363,-1.48865 16.20662,-3.30811 7.46996,-1.96038 16.5876,-3.5386 22.38004,-3.87386 9.47766,-0.54857 9.85969,-0.48069 12.57468,2.23431 2.33746,2.33745 2.60579,3.16304 1.6242,4.99717 -2.24664,4.19787 -16.30045,12.04306 -38.80302,21.66077 l -12.90382,5.51517 -28.26667,-0.1737 L 209.6,320.2114 197.33333,314.72009 c -21.96695,-9.83375 -38.4,-19.90101 -38.4,-23.52471 0,-0.49897 1.32,-1.95769 2.93334,-3.24161 2.69009,-2.14083 3.77363,-2.28697 13.06666,-1.76241 8.7379,0.49322 27.85553,4.93292 37.34465,8.67256 1.14695,0.45201 2.90963,-1.46899 6.11644,-6.66578 8.16305,-13.22869 9.31999,-20.42768 6.05173,-37.65653 -2.146,-11.31286 -4.29864,-16.71578 -5.98718,-15.02725 -0.92275,0.92275 -0.75521,4.98688 0.67837,16.45552 2.09525,16.76197 1.63761,20.99945 -3.07392,28.46299 -4.47454,7.08813 -4.57474,7.11021 -17.39771,3.83264 -13.36053,-3.41497 -30.87962,-4.7071 -36.89657,-2.72132 -5.00067,1.65037 -8.16914,5.72417 -8.16914,10.50333 0,5.8495 5.38086,9.95403 30.29801,23.11144 l 22.29802,11.77438 32.82716,-0.0739 c 20.73358,-0.0467 33.34593,-0.47777 34.23531,-1.17008 z M 158.77223,278.90989 c 11.05593,-3.50684 20.19279,-9.10754 30.2628,-18.55041 9.83018,-9.21798 10.84575,-10.99129 16.85206,-29.42614 6.24414,-19.16476 6.19165,-19.08434 15.19362,-23.27673 4.24561,-1.97726 8.60592,-4.59821 9.6896,-5.82433 3.21176,-3.63395 2.72262,-9.13677 -1.22691,-13.80259 -6.53081,-7.71526 -7.98444,-11.61564 -7.44242,-19.96952 0.80625,-12.42644 5.24889,-18.6605 13.32857,-18.70311 8.97667,-0.0474 16.11788,10.7014 14.97966,22.547 -0.3866,4.02345 -1.67803,6.98529 -5.45782,12.5172 -5.99829,8.77881 -6.34997,12.31162 -1.74741,17.55365 2.55332,2.90807 4.88194,4.10251 11.46666,5.8817 4.9457,1.33633 8.98066,3.10653 10.05116,4.40959 0.98366,1.19736 4.01471,9.24729 6.73566,17.88874 5.74422,18.24306 9.08631,23.85614 19.22835,32.29417 13.06675,10.87137 24.21811,16.55458 37.67906,19.20285 5.07644,0.99873 7.3125,1.01814 9.36863,0.0813 4.09897,-1.86761 2.53016,-3.71458 -4.4772,-5.27102 -19.09552,-4.2414 -29.01499,-9.49748 -42.95316,-22.75977 l -7.45924,-7.09755 -5.00737,-15.83579 c -2.75405,-8.70968 -5.92038,-17.62933 -7.03631,-19.82144 -2.22804,-4.37676 -7.47509,-7.62688 -14.3165,-8.86786 -8.88913,-1.61242 -12.6027,-5.27617 -9.56429,-9.43596 7.64464,-10.46603 7.45975,-9.9474 7.83686,-21.98219 0.30818,-9.83504 0.0503,-12.02117 -1.90972,-16.19099 -4.42532,-9.41446 -11.99818,-13.53299 -21.10633,-11.47877 -5.52089,1.24516 -8.92979,4.18264 -12.27357,10.57624 -2.56268,4.90007 -2.93334,6.81313 -2.93334,15.13995 0,10.46016 0.94697,13.24828 7.06617,20.80475 5.90168,7.28786 4.95382,9.56881 -5.46617,13.15381 -3.39229,1.16711 -6.85512,2.69247 -7.69519,3.38966 -2.79471,2.3194 -5.97762,9.78761 -10.89888,25.57248 l -4.87259,15.62884 -9.06667,8.17291 c -4.98667,4.49511 -11.46667,9.57767 -14.4,11.29457 -5.76892,3.3766 -17.93283,7.71013 -27.00677,9.62146 -9.57118,2.01606 -8.50556,6.95915 1.24567,5.7783 2.84473,-0.34449 8.84473,-1.79123 13.33333,-3.21498 z"
       id="path6097"
       inkscape:connector-curvature="0" />
    <path
       style="fill:#f9d950;stroke-width:1.06666672"
       d="M 213.86667,471.40462 C 131.27378,462.82264 61.784574,415.15063 25.675094,342.29864 -1.8019004,286.86295 -6.0884906,224.08283 13.562511,164.90137 38.594616,89.514034 101.59593,31.531664 179.25621,12.407505 c 35.96813,-8.8572964 75.91945,-8.8572964 111.88757,0 48.96713,12.058353 94.22275,40.697502 125.74177,79.573266 C 453.8093,137.52274 472.95043,198.11127 468.44981,255.20001 459.73368,365.7609 377.89134,453.75084 268.8,469.84652 c -14.03482,2.07074 -42.28752,2.87208 -54.93333,1.5581 z M 271.46666,363.7708 c 32.20239,-1.93072 55.43496,-12.18076 77.36165,-34.13139 21.29282,-21.31605 30.13827,-41.21833 25.0833,-56.43741 -3.4433,-10.36684 -12.39593,-18.12767 -35.84699,-31.07499 -12.48619,-6.89361 -20.55115,-12.98744 -23.49729,-17.75441 -2.0248,-3.27619 -2.11244,-4.00961 -0.84607,-7.08035 2.20895,-5.35633 9.00133,-12.09633 21.7454,-21.5777 17.00238,-12.64946 25.73331,-22.7121 31.04193,-35.77672 2.15189,-5.29581 2.55794,-8.11954 2.55723,-17.7833 -7.8e-4,-10.6088 -0.25167,-12.0184 -3.27873,-18.42119 C 354.50719,99.874299 329.73153,85.274279 297.6,83.551437 c -19.68471,-1.055463 -37.65078,3.493277 -56,14.178365 -10.57048,6.155378 -28.07901,23.388278 -37.79858,37.203538 -10.94272,15.55382 -17.18933,22.78058 -25.43487,29.42588 -14.77531,11.9078 -29.60006,17.07501 -62.36222,21.73653 -29.020236,4.12909 -32.934631,5.26822 -39.095288,11.3771 C 71.952886,202.38734 70.4,206.63869 70.4,215.29269 c 0,21.85469 8.454206,45.84693 24.73407,70.19297 23.27448,34.80628 65.06284,62.35839 113.13775,74.59457 17.40104,4.42897 34.36011,5.41938 63.19484,3.69057 z"
       id="path6095"
       inkscape:connector-curvature="0" />
    <path
       style="fill:#f9d12d;stroke-width:1.06666672"
       d="M 222.4,471.88615 C 162.26847,467.46816 111.10422,444.58357 69.998862,403.72066 -7.7454824,326.43487 -20.69202,205.57276 38.807383,112.53334 62.492363,75.49705 99.827957,43.630075 140.50924,25.727953 c 19.83626,-8.729106 44.2101,-15.465735 66.42409,-18.3588017 13.02972,-1.6969409 43.50362,-1.6969409 56.53333,0 85.0154,11.0720847 156.25619,65.4637567 188.1503,143.6509787 31.80841,77.97715 18.97131,166.98311 -33.61475,233.06756 -37.06899,46.58427 -91.46093,77.60381 -150.26888,85.69782 -11.80928,1.62537 -36.33448,2.76182 -45.33333,2.10064 z m 70.91655,-110.30914 c 21.61601,-5.70517 37.63561,-14.40489 52.41917,-28.46713 21.42511,-20.37972 32.46864,-40.90979 29.80338,-55.40488 -0.94112,-5.11828 -4.58099,-12.58747 -7.90454,-16.22048 -3.76968,-4.12066 -14.23101,-11.14815 -28.95025,-19.4476 C 323.3156,233.37129 313.6,225.10007 313.6,220.6818 c 0,-6.21144 7.63664,-14.56192 23.65247,-25.86341 14.92588,-10.53237 26.166,-24.44052 30.77647,-38.0818 1.89718,-5.61331 2.24518,-8.65229 1.90252,-16.61416 -0.37493,-8.71198 -0.85679,-10.63292 -4.54866,-18.13333 -7.32474,-14.88094 -21.98986,-27.204677 -39.87296,-33.506985 -12.63057,-4.451229 -21.55407,-5.65204 -37.107,-4.993385 -21.64486,0.916642 -38.37098,6.921398 -55.74396,20.01233 -10.57077,7.96532 -17.95485,15.99815 -29.84274,32.46471 -25.3065,35.05339 -39.58331,43.06594 -89.25547,50.09259 -27.463839,3.88505 -33.444531,6.0058 -39.570452,14.03165 -2.771916,3.6316 -3.091443,4.93568 -3.427586,13.98885 -1.150143,30.9762 14.730651,65.36324 43.535938,94.26937 23.78066,23.86391 53.7235,40.84657 90.1681,51.14059 16.08709,4.54391 23.84323,5.25704 52.79999,4.8547 24.0054,-0.33356 28.26291,-0.65848 36.24989,-2.76651 z"
       id="path6093"
       inkscape:connector-curvature="0" />
    <path
       style="fill:#f9cf1f;stroke-width:1.06666672"
       d="M 225.06667,471.80757 C 176.0348,469.67365 126.14875,450.71184 87.466666,419.50546 75.847042,410.13144 56.106223,389.37317 47.107989,377.06667 23.223618,344.40105 8.269463,306.66059 3.1521367,266.13334 c -0.6666992,-5.28 -1.2121802,-17.52 -1.2121802,-27.2 0,-26.6314 3.1626543,-47.13411 10.9769365,-71.16077 C 24.299966,132.7729 41.815204,103.62982 67.186941,77.474238 87.603503,56.426923 106.69332,42.520985 132.65575,29.783614 165.24577,13.794705 198.26805,6.2001217 235.2,6.2001217 c 36.93194,0 69.95423,7.5945833 102.54424,23.5834923 25.96243,12.737371 45.05225,26.643309 65.46881,47.690624 35.6113,36.711472 57.51694,82.640132 64.03481,134.259102 1.55919,12.34815 1.55919,42.05185 0,54.4 -5.11732,40.52725 -20.07148,78.26771 -43.95585,110.93333 -8.99823,12.3065 -28.73905,33.06477 -40.35868,42.43879 -44.15351,35.62041 -101.86181,54.73949 -157.86666,52.30211 z m 58.88619,-108.08434 c 16.31236,-2.35928 37.72996,-11.11772 50.98047,-20.84779 9.40408,-6.90558 24.52191,-22.56686 30.57946,-31.67871 6.66523,-10.02594 11.47935,-23.96518 10.66152,-30.8704 -1.79734,-15.17579 -9.13234,-22.6764 -38.29033,-39.15491 C 323.01848,232.77026 313.6,224.75132 313.6,220.49596 c 0,-5.30929 8.45308,-14.29037 24.23012,-25.74356 15.21174,-11.04283 25.74819,-23.98814 30.34162,-37.27841 2.69459,-7.7963 2.61284,-22.34101 -0.17007,-30.25889 C 360.83764,106.83214 339.68701,90.368612 313.21074,84.566165 308.69793,83.577153 300.3898,82.891392 292.8,82.881443 c -35.85136,-0.047 -64.55423,16.648694 -89.90443,52.294997 -16.0538,22.57413 -25.24892,31.2068 -41.29557,38.76955 -11.18687,5.27234 -22.1811,7.98249 -47.46667,11.70085 -26.997343,3.97007 -31.20903,5.26658 -37.487581,11.54002 -6.829043,6.82348 -7.936783,11.25031 -6.442621,25.74648 2.739763,26.58085 15.421818,54.21699 35.847092,78.11632 24.88945,29.12279 71.11536,54.53236 113.14978,62.19643 9.02406,1.64534 54.36565,1.97944 64.75286,0.47714 z"
       id="path6091"
       inkscape:connector-curvature="0" />
  </g>
</svg>
