<?xml version="1.0" encoding="UTF-8" standalone="no"?>
<!-- Created with Inkscape (http://www.inkscape.org/) -->

<svg
   xmlns:dc="http://purl.org/dc/elements/1.1/"
   xmlns:cc="http://creativecommons.org/ns#"
   xmlns:rdf="http://www.w3.org/1999/02/22-rdf-syntax-ns#"
   xmlns:svg="http://www.w3.org/2000/svg"
   xmlns="http://www.w3.org/2000/svg"
   xmlns:sodipodi="http://sodipodi.sourceforge.net/DTD/sodipodi-0.dtd"
   xmlns:inkscape="http://www.inkscape.org/namespaces/inkscape"
   version="1.1"
   id="svg3226"
   width="472.53333"
   height="473.60001"
   viewBox="0 0 472.53333 473.60001"
   sodipodi:docname="roundblue.svg"
   inkscape:version="0.92.3 (2405546, 2018-03-11)">
  <metadata
     id="metadata3232">
    <rdf:RDF>
      <cc:Work
         rdf:about="">
        <dc:format>image/svg+xml</dc:format>
        <dc:type
           rdf:resource="http://purl.org/dc/dcmitype/StillImage" />
        <dc:title></dc:title>
      </cc:Work>
    </rdf:RDF>
  </metadata>
  <defs
     id="defs3230" />
  <sodipodi:namedview
     pagecolor="#ffffff"
     bordercolor="#666666"
     borderopacity="1"
     objecttolerance="10"
     gridtolerance="10"
     guidetolerance="10"
     inkscape:pageopacity="0"
     inkscape:pageshadow="2"
     inkscape:window-width="1366"
     inkscape:window-height="705"
     id="namedview3228"
     showgrid="false"
     inkscape:zoom="0.4983108"
     inkscape:cx="236.26666"
     inkscape:cy="236.8"
     inkscape:window-x="-8"
     inkscape:window-y="-8"
     inkscape:window-maximized="1"
     inkscape:current-layer="svg3226" />
  <g
     id="g3779"
     transform="translate(2.0067751)">
    <path
       style="fill:#a8ced2;stroke-width:1.06666672"
       d="M 212.26667,468.68047 C 210.21333,468.43623 203.97333,467.49674 198.4,466.59269 107.31307,451.81748 33.992254,384.18001 11.160417,293.86667 1.640317,256.20908 2.0281433,213.74508 12.243544,175.27251 33.360671,95.742565 98.449338,31.297345 177.87182,11.281576 200.45025,5.5914432 206.86479,4.8745509 235.2,4.8745509 c 28.33521,0 34.74975,0.7168923 57.32818,6.4070251 54.1236,13.640038 103.26559,48.629989 134.71358,95.918424 51.9309,78.08865 51.9309,181.11136 0,259.20001 -35.48679,53.36159 -89.34246,88.27722 -154.70843,100.30034 -9.25119,1.70161 -51.05922,3.07525 -60.26666,1.98012 z m -77.87591,-137.274 c 4.59347,-1.57034 5.04073,-3.27611 5.22811,-19.9398 0.16241,-14.44293 0.96423,-20.25039 2.89841,-20.99259 0.77441,-0.29718 5.16207,2.10523 9.75035,5.33867 13.80724,9.73024 38.68317,21.10473 56.49827,25.83375 4.2065,1.11662 17.86794,2.14282 42.96743,3.22753 20.24,0.87471 44.72,2.30925 54.4,3.18788 9.68,0.87862 23.70359,2.15191 31.16352,2.82955 9.72637,0.88351 15.61353,0.91476 20.80985,0.11045 8.37082,-1.2957 18.42663,-5.29268 18.42663,-7.32424 0,-0.78768 -2.66508,-2.13118 -6.13333,-3.09188 -3.37334,-0.93441 -10.72713,-3.36323 -16.34177,-5.39738 -13.78032,-4.99251 -15.98622,-5.32029 -24.71756,-3.67281 -7.29346,1.37618 -7.96212,1.31303 -21.13963,-1.99653 -13.93151,-3.49895 -27.74483,-5.90022 -55.93438,-9.72351 -28.79399,-3.90527 -37.86642,-7.20747 -47.89115,-17.43152 -7.51949,-7.66899 -13.76473,-10.98916 -24.52834,-13.04009 -8.32036,-1.58536 -10.51833,-3.35519 -12.34798,-9.94263 -1.70316,-6.132 -1.35764,-10.01719 2.62033,-29.46433 4.75056,-23.22414 8.42159,-36.47402 10.87442,-39.24926 1.06667,-1.20686 5.77939,-4.69565 10.47273,-7.75287 9.82218,-6.39812 11.53202,-8.09607 13.92854,-13.83175 2.15963,-5.16873 1.39118,-11.05886 -2.25443,-17.28007 -5.20839,-8.88807 -14.8565,-12.57001 -25.06797,-9.5665 -10.6242,3.12489 -24.47281,16.83417 -24.47281,24.22658 0,1.59356 1.49214,6.08598 3.31585,9.98318 2.95078,6.30567 3.17264,7.43158 2.01503,10.2263 -1.74839,4.22097 -8.59346,10.36676 -19.36208,17.38409 -10.63635,6.93113 -13.45094,9.50442 -14.36082,13.12968 -1.47878,5.89191 0.46181,23.37099 4.21464,37.9619 3.93441,15.29687 5.46681,27.83563 6.6282,54.23494 l 0.68262,15.51652 -2.98987,1.36228 c -1.64443,0.74925 -7.32946,1.81659 -12.63338,2.37186 -5.30394,0.55528 -10.84352,1.31769 -12.31019,1.69424 l -2.66667,0.68466 3.2,0.76742 c 5.17852,1.2419 21.02275,1.00558 25.05743,-0.37372 z M 329.6,326.08617 c -1.05851,-1.08473 -37.50624,-3.94943 -70.93334,-5.57517 -18.77333,-0.91305 -39.01574,-2.34004 -44.98313,-3.17109 -15.66933,-2.18218 -36.22242,-10.53477 -52.67545,-21.40684 -7.8052,-5.15764 -17.52167,-14.87281 -19.14497,-19.14241 -1.65882,-4.36305 -1.24863,-16.78165 1.07769,-32.62661 3.28677,-22.38685 5.49606,-29.76018 13.88205,-46.33034 l 7.57428,-14.96628 -3.26438,-6.90039 c -1.79543,-3.7952 -3.26299,-8.34037 -3.26125,-10.10037 0.004,-4.27275 3.0088,-8.96374 8.75959,-13.67609 6.18,-5.06404 11.30023,-7.12391 17.70794,-7.12391 12.16583,0 21.12825,13.96076 15.70056,24.45676 -0.92254,1.784 -5.60984,5.61638 -11.46666,9.37524 -5.44844,3.49678 -10.46987,7.0404 -11.15871,7.87472 -1.93326,2.34154 -8.60504,25.29339 -11.71034,40.28524 -3.41316,16.47808 -3.9672,33.06613 -1.26956,38.01056 3.10667,5.69412 5.56362,7.09123 14.16745,8.05611 10.20916,1.14491 14.69784,3.29386 19.61196,9.3892 7.31657,9.0753 9.54968,10.64289 19.87144,13.94924 13.2575,4.24676 28.21747,7.20499 46.66069,9.22684 14.40521,1.57918 19.13814,2.41342 45.1208,7.95309 9.27264,1.97699 11.79621,2.13042 19.30949,1.17402 10.31943,-1.3136 11.12257,-1.16009 23.1363,4.4218 7.77884,3.61428 9.05576,4.53876 7.48396,5.41838 -1.96711,1.10086 -29.25636,2.39164 -30.19641,1.4283 z M 134.18501,252.14599 c -2.73877,-6.96575 -4.41024,-15.52148 -4.49975,-23.03296 l -0.0852,-7.15363 5.33333,-5.46338 c 5.2779,-5.4066 10.86796,-9.18361 11.96633,-8.08525 1.38054,1.38055 -7.36849,42.79921 -9.71995,46.01503 -1.23112,1.68366 -1.52402,1.46067 -2.9947,-2.27981 z"
       id="path3793"
       inkscape:connector-curvature="0" />
    <path
       style="fill:#8abac3;stroke-width:1.06666672"
       d="M 214.4,468.67848 C 158.59454,461.92359 113.71054,441.33662 76.375467,405.3707 38.899982,369.26951 15.841443,325.2394 6.7846472,272.48753 4.4633311,258.96687 4.1360309,220.48055 6.2226176,206.4 14.423723,151.05793 37.428969,105.74757 76.375467,68.229312 110.16522,35.6787 152.46118,14.713015 200.43944,6.7320501 c 15.96359,-2.6554703 53.7998,-2.6673407 69.52111,-0.021811 48.20257,8.1113689 90.2845,28.9783529 124.06398,61.5190729 37.46937,36.095288 60.38867,79.844408 69.61488,132.883168 2.61045,15.00671 2.61045,56.36834 0,71.37505 -9.22621,53.03876 -32.14551,96.78788 -69.61488,132.88317 -33.51555,32.28647 -75.66463,53.29327 -123.0912,61.34775 -9.73979,1.65411 -48.07916,2.98335 -56.53333,1.96003 z M 135.46667,331.85081 c 3.45777,-0.95506 4.06371,-3.89064 4.88938,-23.68739 0.35717,-8.56346 1.0606,-16.23526 1.56318,-17.04846 0.71596,-1.15845 2.9452,-0.0708 10.29728,5.024 11.27684,7.81458 23.41436,14.03855 39.2313,20.11732 18.92872,7.2747 21.23017,7.62455 59.75219,9.08286 32.08012,1.21446 51.54789,2.49669 73.28726,4.82698 20.61729,2.21003 33.20405,2.048 41.53371,-0.53464 7.99539,-2.479 12.24394,-5.12656 10.70162,-6.66888 -1.95147,-1.95147 -35.44789,-12.56259 -39.65668,-12.56259 -2.2885,0 -6.59082,0.52112 -9.56072,1.15804 -4.8151,1.03267 -6.8064,0.79506 -18.38965,-2.19434 -17.06735,-4.40472 -25.49659,-5.93883 -46.9262,-8.5405 -36.31019,-4.40826 -48.13227,-8.27878 -57.91722,-18.96196 -6.26558,-6.84075 -12.96977,-10.52092 -22.96111,-12.60418 -9.83831,-2.05135 -10.0452,-2.16255 -12.12045,-6.51439 -2.48107,-5.20287 -2.34648,-15.44013 0.37615,-28.60934 3.80322,-18.3961 8.78126,-38.27822 10.36456,-41.39582 0.86112,-1.69556 5.31496,-5.45981 10.26176,-8.67292 13.23062,-8.59371 16.76778,-13.19247 16.71688,-21.73404 -0.05,-8.40263 -7.08063,-17.70398 -15.47611,-20.47474 -4.95942,-1.63676 -12.55256,-0.94693 -18.10047,1.64441 -5.99373,2.79956 -18.03062,15.0391 -19.65783,19.98877 -1.2197,3.7101 -1.06696,4.56808 1.96774,11.05309 4.0701,8.69762 4.095,10.7222 0.19627,15.96454 -3.01639,4.0559 -6.2482,6.5612 -20.26226,15.70727 -10.33415,6.74442 -11.33031,8.5454 -11.21103,20.26849 0.0773,7.59686 1.08714,13.83827 4.51699,27.91762 4.44305,18.23848 5.63705,28.65349 6.92161,60.37577 l 0.41476,10.24246 -3.61942,1.3088 c -1.99069,0.71984 -8.19061,1.74128 -13.77763,2.26985 -10.95294,1.03626 -13.84254,1.93068 -10.48506,3.24549 2.5628,1.00359 23.50265,1.01011 27.1292,0.009 z m 187.5942,-7.01917 c -15.18197,-1.9394 -36.65269,-3.48781 -74.52754,-5.37475 -35.87286,-1.78718 -39.5896,-2.27745 -52.8,-6.96479 -26.40692,-9.36976 -48.53938,-24.32693 -53.60357,-36.22543 -1.78293,-4.18905 -1.33809,-15.07574 1.35278,-33.10702 3.52083,-23.59275 6.58552,-33.26111 15.58057,-49.15289 2.86196,-5.05629 5.20356,-9.9672 5.20356,-10.91315 0,-0.94594 -1.5071,-4.7761 -3.34909,-8.51148 -2.69051,-5.45607 -3.20702,-7.5489 -2.62662,-10.6427 1.48632,-7.92274 16.2407,-18.83854 25.49534,-18.86234 12.88977,-0.0332 22.6998,16.41911 15.1443,25.39829 -1.46816,1.74483 -5.18816,4.73541 -8.26667,6.64574 -15.4562,9.59121 -15.24426,9.25965 -21.44182,33.54555 -9.45595,37.05432 -9.34685,55.77115 0.35434,60.78782 1.83924,0.95112 6.88965,2.12691 11.22312,2.6129 9.50074,1.06546 13.92236,3.54245 19.22967,10.77243 2.12374,2.89312 5.14596,6.17021 6.71605,7.28242 6.94888,4.92237 34.75668,11.67647 57.78804,14.03583 16.14056,1.65346 23.32512,2.86045 38.93333,6.54071 12.37893,2.91883 14.89664,3.18812 23.46667,2.50991 13.55636,-1.0728 13.89184,-1.0184 24.34505,3.948 8.42085,4.00082 9.15078,4.57169 6.93333,5.42253 -4.24891,1.63028 -23.29406,1.76706 -35.15084,0.25242 z M 134.29964,252.00269 c -2.38041,-6.26092 -4.13546,-16.06018 -4.15054,-23.17427 l -0.0158,-7.43825 6.47537,-6.16175 c 6.85244,-6.52056 11.04316,-8.07875 10.11712,-3.76175 -0.28314,1.32 -1.51817,7.68 -2.74451,14.13333 -1.22634,6.45334 -3.16381,15.51928 -4.3055,20.14654 -1.1417,4.62727 -2.07581,8.58727 -2.07581,8.8 0,0.21274 -0.49188,0.3868 -1.09307,0.3868 -0.60118,0 -1.59447,-1.31879 -2.20729,-2.93065 z"
       id="path3791"
       inkscape:connector-curvature="0" />
    <path
       style="fill:#6daab4;stroke-width:1.06666672"
       d="M 211.25403,468.10875 C 167.42508,463.53199 122.01468,444.26743 87.999999,415.82041 45.155506,379.98887 17.402199,331.41555 7.3490805,274.66667 3.7990885,254.62731 3.7987015,220.04365 7.3482449,200 12.015731,173.64353 17.789581,155.42854 28.311406,133.86667 70.288909,47.844196 162.88943,-4.1322536 257.22032,5.3806482 351.87565,14.926269 430.59167,80.78628 456.98426,172.51886 c 6.67099,23.18633 8.52729,37.17961 8.52729,64.28114 0,20.3364 -0.3753,26.11675 -2.45856,37.86667 -8.56225,48.29234 -29.1202,89.30818 -61.96543,123.62922 -48.76611,50.95728 -119.89614,77.11594 -189.83353,69.81286 z M 135.84966,331.7905 c 1.38933,-0.52822 2.82582,-1.74158 3.19218,-2.69633 0.36638,-0.95476 0.93711,-8.55153 1.26829,-16.88172 0.33119,-8.33017 0.83883,-16.70676 1.12809,-18.61463 l 0.52593,-3.46885 3.26625,1.68904 c 1.79644,0.92897 6.0947,3.77122 9.55169,6.31612 11.52993,8.48786 41.07789,21.38447 56.38271,24.60901 3.83269,0.8075 19.68853,1.96512 35.2352,2.57249 34.60662,1.35199 57.88122,2.83982 76.70628,4.90345 27.19706,2.98138 41.81521,1.88468 51.1053,-3.83406 4.25901,-2.62174 3.9561,-4.42031 -0.96182,-5.7109 -2.00737,-0.5268 -10.76919,-3.32529 -19.47069,-6.21889 -14.90052,-4.95502 -16.12917,-5.19499 -21.11918,-4.12482 -8.10512,1.73824 -14.4366,1.35596 -24.73689,-1.49354 -12.67934,-3.50764 -23.42256,-5.43176 -44.98967,-8.0577 -21.75668,-2.64902 -38.79374,-6.30473 -46.55692,-9.98992 -3.2966,-1.56489 -8.2838,-5.38296 -11.80024,-9.03394 -7.07244,-7.34304 -13.18758,-10.61821 -24.2409,-12.98301 -10.14554,-2.17059 -12.09592,-4.43719 -12.67769,-14.73321 -0.43391,-7.67903 1.73801,-20.39637 7.40734,-43.37242 5.04885,-20.46146 4.06312,-18.8096 15.99466,-26.80365 12.22695,-8.19197 15.88899,-12.98758 15.85033,-20.75673 -0.0421,-8.45719 -6.65956,-18.33913 -14.17935,-21.1742 -4.72554,-1.78159 -13.57908,-1.30525 -18.66845,1.0044 -6.59729,2.994 -17.8601,14.16495 -20.04223,19.87881 -1.78519,4.67444 -1.7826,4.69424 1.56265,11.95186 1.84294,3.99832 3.3508,8.3221 3.3508,9.60842 0,3.64923 -8.06229,11.53367 -19.6799,19.24575 -14.38122,9.54663 -15.00248,10.52066 -14.92351,23.39746 0.0498,8.12647 0.87949,13.59557 3.91094,25.78122 4.96813,19.97052 5.93568,27.34025 6.8188,51.93827 l 0.7279,20.27451 -3.62711,1.27241 c -1.99491,0.69983 -8.04049,1.69321 -13.43462,2.2075 -11.844,1.12925 -15.76126,2.6995 -9.36128,3.7525 2.3295,0.38328 4.95545,0.87897 5.83545,1.10153 2.56645,0.64909 17.88587,-0.50544 20.64966,-1.55623 z m 189.48367,-6.99248 c -18.16381,-2.2049 -36.19857,-3.51385 -73.17314,-5.31082 -18.24523,-0.88672 -37.02001,-2.2838 -41.72175,-3.10461 -21.42222,-3.73983 -55.12464,-21.56803 -64.26318,-33.99451 -5.33553,-7.25521 -5.81151,-10.80802 -3.81333,-28.46406 3.16754,-27.98864 5.80454,-37.92543 14.74062,-55.54586 l 7.85489,-15.4885 -3.54539,-7.42365 c -3.96406,-8.30031 -4.20912,-10.02175 -2.02728,-14.24097 1.8526,-3.58253 9.87114,-11.10739 14.24794,-13.37072 4.74327,-2.45283 11.22893,-3.19678 15.52085,-1.78031 4.88234,1.61132 11.06392,8.49096 11.97023,13.322 1.51628,8.08253 -1.9291,12.72027 -15.39157,20.71818 -4.19131,2.49002 -8.30277,5.58297 -9.13656,6.87323 -1.98333,3.06912 -7.14127,20.61248 -10.75399,36.57681 -3.30763,14.61622 -4.57404,32.84882 -2.74762,39.55791 1.57392,5.78157 6.15736,9.63759 12.37768,10.41327 2.63722,0.32886 7.07494,0.87483 9.8616,1.21327 4.68815,0.56935 5.74402,1.31842 14.13334,10.02655 l 9.06666,9.41122 10.72311,3.3243 c 13.7757,4.27063 27.94657,6.9762 47.9133,9.14782 16.01696,1.74203 21.86655,2.77481 39.26273,6.93202 7.51784,1.79655 12.04282,2.17614 22.93333,1.9238 l 13.56753,-0.31438 8.92628,4.22746 c 8.50071,4.02592 8.78041,4.26735 5.86667,5.0639 -5.99099,1.63779 -20.31042,1.77335 -32.39295,0.30665 z M 133.34628,247.96228 c -1.29113,-4.08592 -2.58292,-11.50894 -2.87062,-16.49561 -0.51076,-8.85276 -0.44778,-9.15602 2.66951,-12.85384 3.79269,-4.49899 11.65837,-10.16485 12.68551,-9.1377 1.40401,1.404 -6.49693,40.93817 -8.81511,44.10847 -1.14138,1.56094 -1.64212,0.79382 -3.66929,-5.62132 z"
       id="path3789"
       inkscape:connector-curvature="0" />
    <path
       style="fill:#5ca2ac;stroke-width:1.06666672"
       d="M 212.26667,468.14184 C 170.311,463.94001 128.62579,447.24955 94.772667,421.09809 -1.3639015,346.83282 -23.981807,210.23021 42.998581,108.40446 102.90292,17.335936 217.36966,-19.262782 318.73798,20.241653 c 68.97885,26.881873 121.9126,86.950697 139.86861,158.721867 5.50099,21.98776 6.91464,33.81207 6.91464,57.83648 0,30.5386 -4.28854,55.02034 -14.31319,81.70881 -36.99248,98.48453 -135.25142,160.01755 -238.94137,149.63303 z M 137.06443,331.29956 c 2.66191,-1.74415 3.63378,-8.39332 3.83431,-26.23289 0.18774,-16.70215 -0.24604,-16.39434 11.65381,-8.26944 5.56801,3.8017 13.48151,8.59809 17.58555,10.65866 11.26755,5.65724 32.09462,13.6293 39.94967,15.29171 3.83839,0.81234 19.2189,1.96695 34.17889,2.56578 35.56859,1.42379 58.95074,2.93056 77.33334,4.98346 22.84168,2.55087 36.85807,2.38828 45.47605,-0.52751 6.71272,-2.27117 11.65816,-5.79067 10.19406,-7.25476 -0.3698,-0.36981 -9.20686,-3.52941 -19.63791,-7.02134 -18.76565,-6.28206 -19.03428,-6.33672 -25.48852,-5.18776 -9.07511,1.61553 -12.67177,1.46665 -21.23179,-0.87879 -13.639,-3.73708 -27.53286,-6.32054 -46.27251,-8.60401 -38.76326,-4.72337 -50.97385,-8.63376 -59.77146,-19.14153 -5.31352,-6.34642 -14.18859,-11.06791 -24.99232,-13.29575 -4.02842,-0.83071 -7.92537,-2.15725 -8.6599,-2.94788 -2.15132,-2.31565 -3.74903,-8.28523 -3.74903,-14.00763 0,-9.47333 10.06428,-54.05705 13.32679,-59.03625 0.92292,-1.40857 5.76047,-5.24966 10.75011,-8.53578 4.98963,-3.28612 10.37355,-7.68109 11.96425,-9.7666 2.5298,-3.31675 2.89218,-4.75969 2.89218,-11.51633 0,-6.88384 -0.3534,-8.22783 -3.24736,-12.3497 -6.76523,-9.6357 -19.12785,-12.44658 -30.15825,-6.85706 -9.94615,5.0401 -20.46311,17.27254 -20.46022,23.79758 4.6e-4,1.04552 1.44046,4.94402 3.2,8.66337 1.75955,3.71934 3.19916,7.59294 3.19916,8.608 0,3.38053 -7.84618,11.07207 -18.11443,17.7574 -13.02077,8.47741 -15.707,11.05818 -16.62974,15.97682 -1.27491,6.79584 0.34798,20.63526 4.20275,35.8395 4.42501,17.45344 5.69935,27.44509 6.65443,52.175 l 0.72293,18.71917 -4.61357,1.38226 c -2.53746,0.76023 -8.91023,1.7853 -14.16171,2.27791 -9.75759,0.91531 -13.94981,2.56544 -9.14827,3.60093 1.40485,0.30296 3.51428,0.7865 4.68761,1.07454 4.22015,1.03595 22.15323,-0.38304 24.5311,-1.94108 z m 189.8689,-6.50859 c -20.67383,-2.33833 -37.43805,-3.57954 -72,-5.33079 -40.21472,-2.03769 -46.10157,-2.74387 -58.13666,-6.97404 -11.35233,-3.9902 -28.31399,-12.3219 -36.68647,-18.02068 -7.54872,-5.13809 -16.85244,-14.9348 -17.81127,-18.75503 -1.18379,-4.71664 0.31486,-26.67621 2.7647,-40.51043 3.02205,-17.0656 6.29878,-26.511 13.9846,-40.31163 l 6.41105,-11.51164 -3.22144,-7.15503 c -4.94673,-10.98705 -4.80788,-13.57173 1.07175,-19.95037 4.74903,-5.15211 15.60748,-11.20466 20.10143,-11.20466 4.32651,0 12.04314,4.40576 14.68773,8.38587 5.86986,8.83413 3.93894,15.74544 -6.23878,22.33041 -17.35607,11.22936 -16.82156,10.44221 -22.72109,33.46061 -7.2883,28.437 -9.12354,48.18757 -5.20898,56.0581 2.93414,5.89932 6.47658,7.91831 15.43413,8.79663 11.08941,1.08736 15.32405,3.7114 22.24197,13.78248 5.53407,8.05647 29.48495,14.98322 65.06066,18.81594 8.50667,0.91647 23.0406,3.35867 32.29762,5.42712 15.16978,3.38963 18.11753,3.72702 29.86666,3.41849 l 13.03572,-0.34231 9.50061,4.24326 c 9.39166,4.1946 9.45908,4.25177 5.87913,4.98394 -7.92474,1.62079 -18.118,1.7431 -30.31307,0.36376 z m -192.39008,-73.2261 c -4.68217,-14.4679 -5.55154,-26.00392 -2.34916,-31.1723 1.93938,-3.12999 11.62053,-11.3259 13.37837,-11.3259 0.44368,0 0.47522,2.65297 0.0701,5.89549 -1.07253,8.5842 -7.80586,38.02782 -8.96046,39.18242 -0.60243,0.60243 -1.43336,-0.39975 -2.13884,-2.57971 z"
       id="path3787"
       inkscape:connector-curvature="0" />
    <path
       style="fill:#348798;stroke-width:1.06666672"
       d="m 213.33333,468.08886 c -58.75806,-5.53443 -115.846946,-35.5203 -153.751139,-80.7576 -73.140853,-87.29099 -73.140853,-213.77152 0,-301.062512 C 106.17028,30.667527 180.09529,-0.59569453 251.36113,5.1645642 367.3552,14.540106 456.23272,104.04615 465.21755,220.53334 c 4.54624,58.94133 -15.482,120.35099 -54.39974,166.79792 -47.9201,57.19091 -122.76121,87.7958 -197.48448,80.7576 z m 87.67795,-58.31068 c 21.53985,-5.76029 33.88225,-13.01693 51.02137,-29.99767 19.16484,-18.98775 28.66648,-32.41889 37.94877,-53.64289 16.01188,-36.61126 20.8881,-79.15772 11.47592,-100.13086 -3.95565,-8.81436 -11.467,-15.40426 -35.95526,-31.54447 C 346.53184,181.959 343.83716,179.76273 327.91817,163.82999 308.9095,144.80488 302.16408,135.56712 284.26666,104.04984 273.60671,85.277706 267.91892,78.174004 259.83669,73.538323 c -5.06118,-2.902925 -6.2132,-3.118994 -16.67925,-3.128312 -13.65919,-0.01216 -21.01042,1.754643 -32.27619,7.757297 -19.6004,10.443526 -48.44142,36.198352 -68.34624,61.032692 -30.71169,38.31759 -52.146401,79.30421 -64.66486,123.64966 -8.192993,29.02289 -10.612217,47.82159 -7.582961,58.92377 4.362738,15.98938 24.439617,29.51766 72.526231,48.86992 34.29727,13.80279 87.86058,32.81095 112.65324,39.97757 10.0235,2.89741 33.15971,2.46932 45.54462,-0.84274 z"
       id="path3785"
       inkscape:connector-curvature="0" />
    <path
       style="fill:#127188;stroke-width:1.06666672"
       d="M 216.88053,468.25921 C 187.61293,465.83232 158.95227,457.65945 131.68974,443.96625 41.380526,398.60644 -9.1689204,297.9275 8.0355213,197.6851 23.530612,107.40232 89.895871,34.831298 177.6,12.264803 c 21.72109,-5.5888892 34.57941,-7.1950833 57.6,-7.1950833 37.88486,0 69.57909,7.5213663 103.51026,24.5640443 91.43716,45.926346 142.19488,149.001126 123.02666,249.832906 -16.94379,89.13049 -82.40633,159.604 -168.93692,181.86854 -24.73389,6.36409 -52.32512,8.88046 -75.91947,6.924 z m 70.0528,-55.49325 c 19.27282,-2.49306 39.21084,-10.26817 51.58921,-20.11794 8.54111,-6.79635 27.32835,-26.26458 34.60084,-35.85502 3.1112,-4.10281 8.97027,-14.17966 13.02018,-22.39299 13.31142,-26.99601 18.90625,-47.64753 19.93941,-73.6 0.99112,-24.8963 -2.14366,-36.38197 -12.69353,-46.50853 -3.11086,-2.98604 -14.68754,-11.46124 -25.72595,-18.83379 -39.92166,-26.66366 -56.80389,-45.10516 -81.77171,-89.32435 -12.9892,-23.004489 -17.66794,-28.775433 -27.75845,-34.238344 -5.56311,-3.011824 -24.44198,-2.813748 -34.6924,0.363991 -30.91514,9.584023 -78.84251,56.475963 -109.84751,107.474353 -19.545025,32.14852 -32.324654,64.23425 -41.703806,104.70548 -3.905396,16.85186 -4.223556,33.61439 -0.779754,41.0819 6.905243,14.97327 27.425882,27.88146 73.95681,46.52141 40.31306,16.14912 106.70031,38.98064 118.30877,40.68809 8.33182,1.22548 14.29055,1.23452 23.55789,0.0357 z"
       id="path3783"
       inkscape:connector-curvature="0" />
    <path
       style="fill:#00657f;stroke-width:1.06666672"
       d="M 219.73333,468.21007 C 148.38541,463.68721 82.355769,424.77942 42.427928,363.73334 -7.4958585,287.40436 -7.4958585,186.19565 42.427928,109.86667 79.418678,53.311138 136.57392,16.950046 204.26667,6.9079063 c 15.6674,-2.3242407 46.19926,-2.3242407 61.86666,0 C 342.8287,18.285575 407.75194,65.009038 441.06308,132.8 c 44.75857,91.08747 27.08987,198.17304 -44.44276,269.35642 -46.43465,46.20794 -110.79903,70.24307 -176.88699,66.05365 z m 70.05615,-55.48473 c 10.67861,-1.46071 28.84543,-7.45762 37.92047,-12.51764 14.35373,-8.0033 37.25864,-30.64391 49.4537,-48.88303 9.85344,-14.73698 19.97273,-38.23853 24.88723,-57.79931 3.27482,-13.03455 4.63,-27.56271 4.11415,-44.10576 -0.83073,-26.64125 -4.45474,-31.74648 -38.69837,-54.51521 -39.65493,-26.36675 -56.06422,-44.49155 -82.78314,-91.43772 -10.3621,-18.20662 -17.88536,-27.499682 -25.51675,-31.519447 -5.18982,-2.733697 -20.52889,-3.301672 -30.7562,-1.138841 -31.64906,6.693016 -80.20629,52.350458 -113.93177,107.127858 -20.381021,33.10315 -31.389842,60.05648 -42.122596,103.13043 -2.943959,11.81505 -3.462638,15.83938 -3.505684,27.2 -0.0471,12.43291 0.141326,13.69679 2.790323,18.71535 9.101473,17.24288 33.111067,30.58711 100.625827,55.92656 27.98384,10.50282 78.12697,27.3656 87.31743,29.36424 8.15462,1.77338 19.32566,1.94074 30.20538,0.45252 z"
       id="path3781"
       inkscape:connector-curvature="0" />
  </g>
</svg>
