<?xml version="1.0" encoding="UTF-8" standalone="no"?>
<!-- Created with Inkscape (http://www.inkscape.org/) -->

<svg
   xmlns:dc="http://purl.org/dc/elements/1.1/"
   xmlns:cc="http://creativecommons.org/ns#"
   xmlns:rdf="http://www.w3.org/1999/02/22-rdf-syntax-ns#"
   xmlns:svg="http://www.w3.org/2000/svg"
   xmlns="http://www.w3.org/2000/svg"
   xmlns:sodipodi="http://sodipodi.sourceforge.net/DTD/sodipodi-0.dtd"
   xmlns:inkscape="http://www.inkscape.org/namespaces/inkscape"
   version="1.1"
   id="svg4371"
   width="473.60001"
   height="468.26666"
   viewBox="0 0 473.60001 468.26666"
   sodipodi:docname="roundgreen.svg"
   inkscape:version="0.92.3 (2405546, 2018-03-11)">
  <metadata
     id="metadata4377">
    <rdf:RDF>
      <cc:Work
         rdf:about="">
        <dc:format>image/svg+xml</dc:format>
        <dc:type
           rdf:resource="http://purl.org/dc/dcmitype/StillImage" />
      </cc:Work>
    </rdf:RDF>
  </metadata>
  <defs
     id="defs4375" />
  <sodipodi:namedview
     pagecolor="#ffffff"
     bordercolor="#666666"
     borderopacity="1"
     objecttolerance="10"
     gridtolerance="10"
     guidetolerance="10"
     inkscape:pageopacity="0"
     inkscape:pageshadow="2"
     inkscape:window-width="1366"
     inkscape:window-height="705"
     id="namedview4373"
     showgrid="false"
     inkscape:zoom="1.0079727"
     inkscape:cx="169.0589"
     inkscape:cy="233.83856"
     inkscape:window-x="-8"
     inkscape:window-y="-8"
     inkscape:window-maximized="1"
     inkscape:current-layer="svg4371" />
  <g
     id="g4942"
     transform="translate(-0.99208807,1.9841805)">
    <path
       style="fill:#ddfdea;stroke-width:1.06666672"
       d="M 212.8,463.34655 C 179.20712,458.59724 156.93266,451.90502 131.01854,438.77583 61.322695,403.46499 14.767421,336.94387 5.360707,259.22797 c -1.407862,-11.63139 -1.407862,-40.69123 0,-52.32262 C 11.64629,154.97544 34.750885,107.25456 71.466668,70.368197 105.47093,36.205955 148.41676,14.142689 199.46667,4.6086524 c 14.57234,-2.7215178 61.16099,-2.7215178 75.73334,0 26.03871,4.8629669 46.69687,11.7287396 68.44813,22.7488396 69.69584,35.310847 116.25111,101.831968 125.65783,179.547858 1.40786,11.63139 1.40786,40.69123 0,52.32262 -6.28559,51.92991 -29.39017,99.6508 -66.10596,136.53716 -28.02164,28.15182 -65.61033,49.98804 -103.76283,60.27844 -21.7552,5.86776 -31.70821,7.13926 -58.37051,7.45683 C 227.28,463.66461 214.56,463.59533 212.8,463.34655 Z"
       id="path4956"
       inkscape:connector-curvature="0" />
    <path
       style="fill:#a3dace;stroke-width:1.06666672"
       d="M 214.4,463.32087 C 167.22488,457.48255 127.28718,441.47498 92.800002,414.58195 82.610832,406.63645 62.7434,386.92874 54.443022,376.53333 30.020264,345.94621 13.449302,308.78049 6.8839012,269.86666 4.1538847,253.68556 3.633967,221.99836 5.8162994,204.8 11.165349,162.64559 28.041078,122.66584 54.443022,89.599999 62.7434,79.204589 82.610832,59.496877 92.800002,51.551382 123.01187,27.992225 158.8508,12.190119 198.00201,5.1656943 c 11.83766,-2.1238875 17.26178,-2.4636442 39.33133,-2.4636442 22.06955,0 27.49366,0.3397567 39.33133,2.4636442 50.63005,9.0839347 92.92918,31.3710297 128.18969,67.5421927 13.20132,13.542277 19.86371,21.732559 28.49143,35.025443 53.97857,83.16575 48.69587,191.379 -13.12213,268.8 -8.30039,10.39541 -28.16781,30.10312 -38.35699,38.04862 -30.1268,23.49282 -66.36539,39.47648 -105.06666,46.34147 -9.84944,1.74713 -18.08642,2.3384 -35.73334,2.56499 -12.61333,0.16197 -24.61333,0.0866 -26.66667,-0.16754 z m 59.20001,-138.04141 c 14.063,-2.03088 41.14689,-12.631 51.50196,-20.1569 6.29374,-4.5742 8.75584,-8.97116 8.76071,-15.64538 0.006,-8.59695 -3.45184,-11.73581 -15.06999,-13.67872 -5.08911,-0.85106 -21.68343,1.07006 -32.00363,3.70505 -10.12802,2.5859 -13.98282,2.64097 -16.08888,0.22982 -1.97524,-2.26139 -3.66774,-7.54897 -4.64941,-14.52538 l -0.73059,-5.19205 4.13991,0.50269 c 2.27695,0.27647 8.69089,1.33759 14.2532,2.35804 6.13741,1.12596 13.54721,1.71147 18.84804,1.48936 7.56413,-0.31695 9.11728,-0.72338 11.58904,-3.03266 2.49336,-2.32946 2.79447,-3.29958 2.38112,-7.67184 -0.94594,-10.00598 -15.98834,-36.44446 -26.88984,-47.26149 -4.47483,-4.44015 -7.5186,-6.19317 -18.17498,-10.46752 -7.04,-2.8238 -13.75354,-5.83974 -14.91898,-6.70209 -2.36121,-1.74714 -2.41059,-1.61759 4.25232,-11.1571 3.06392,-4.38673 3.21395,-5.12922 3.52808,-17.46076 0.30533,-11.98612 0.14672,-13.21204 -2.28741,-17.6792 -4.0812,-7.48987 -9.11533,-10.97765 -16.62921,-11.52115 -7.91297,-0.57237 -13.67846,2.34552 -18.23903,9.23072 -3.94414,5.95457 -4.53408,9.17013 -4.07507,22.21184 l 0.3693,10.49282 5.00869,7.16107 5.00871,7.16106 -2.65757,2.09045 c -1.46166,1.14973 -6.49974,3.55763 -11.19574,5.35085 -14.85487,5.67255 -21.77398,11.83856 -31.28452,27.8795 -9.84343,16.6024 -13.61519,30.37107 -9.7258,35.50376 3.14221,4.14666 16.88715,4.5657 35.06889,1.06913 4.59579,-0.88383 8.63205,-1.33089 8.96947,-0.99349 0.98443,0.98443 0.34667,11.49056 -0.94475,15.56344 -2.65536,8.37445 -4.43633,8.73696 -21.08289,4.29132 -7.7901,-2.08043 -10.80413,-2.3288 -22.93333,-1.88982 -7.68047,0.27798 -15.53907,1.1034 -17.46357,1.83426 -4.23991,1.61021 -6.63426,5.87494 -6.63426,11.81673 0,9.11758 5.34004,15.35777 18.6757,21.82381 9.20669,4.46402 31.1313,11.87615 38.97653,13.17691 8.06822,1.33774 53.26144,1.40509 62.34778,0.0929 z M 222.4,320.03284 c -18.02677,-1.7637 -44.57435,-11.09447 -55.06266,-19.35307 -7.11919,-5.60572 -7.73293,-12.4322 -1.33638,-14.86417 5.95889,-2.26556 21.79087,-0.75149 41.13008,3.93344 l 11.39771,2.7611 3.12465,-2.22495 c 1.71855,-1.22371 4.26646,-4.7585 5.66201,-7.85507 2.10957,-4.6809 2.54863,-7.44189 2.60419,-16.37621 l 0.0668,-10.74611 6.02234,-6.11933 c 3.3123,-3.36564 6.32608,-7.07631 6.69731,-8.24596 0.37123,-1.16964 1.02617,-1.98019 1.4554,-1.80123 0.42924,0.17896 3.91697,3.68538 7.75052,7.79205 l 6.97007,7.46667 0.68805,11.56317 c 0.764,12.8395 2.2819,17.24187 7.19802,20.87652 4.71615,3.48679 8.64255,3.70325 22.27842,1.22822 6.7356,-1.22257 16.93791,-2.53029 22.6718,-2.90606 9.15047,-0.59967 10.68548,-0.4477 12.55345,1.24279 5.37686,4.866 0.1024,12.0855 -13.97969,19.13504 -11.4547,5.73424 -30.26607,11.96994 -40.14486,13.30744 -10.77277,1.45855 -38.03817,2.13564 -47.74725,1.18572 z m 61.86667,-63.31571 c -14.83074,-4.95616 -26.20024,-12.25958 -28.8106,-18.50704 -0.90401,-2.16359 -2.61292,-7.80597 -3.79759,-12.53862 -2.93713,-11.73359 -5.26959,-18.73814 -6.23965,-18.73814 -1.33632,0 -3.10748,4.7778 -5.99729,16.17804 -3.30974,13.05686 -5.50753,17.58872 -10.77117,22.21025 -7.48186,6.56917 -20.85585,10.62487 -35.15171,10.65986 -6.28052,0.0154 -7.90347,-0.35215 -9.53984,-2.16032 -1.92838,-2.13084 -1.89453,-2.33644 1.53692,-9.33333 5.37102,-10.95177 13.91275,-24.45907 19.1536,-30.28814 4.72564,-5.25606 10.81348,-8.98684 18.81733,-11.53176 10.77135,-3.42486 16.52004,-8.63905 16.52935,-14.99243 0.002,-1.49848 -1.55601,-5.04278 -3.46268,-7.87622 -7.20873,-10.71267 -7.35895,-11.15355 -6.93526,-20.35605 0.467,-10.14336 2.64425,-14.6754 8.49276,-17.67808 5.14466,-2.64131 9.46549,-2.57404 12.99507,0.20235 4.62992,3.64188 7.05363,9.59329 7.00061,17.19 -0.0565,8.10737 -1.48657,12.36885 -6.67616,19.89552 -7.94007,11.5158 -4.31464,17.75609 13.65631,23.50601 6.24152,1.99701 12.71085,4.90222 15.5941,7.0029 8.3052,6.05103 23.19506,27.47679 28.1969,40.57395 1.75677,4.60003 1.76273,5.0342 0.0921,6.70485 -2.96794,2.96795 -15.62158,2.90458 -24.68308,-0.1236 z"
       id="path4954"
       inkscape:connector-curvature="0" />
    <path
       style="fill:#6fc6b3;stroke-width:1.06666672"
       d="M 212.8,462.89289 C 142.6534,454.91003 80.404416,417.15966 42.43133,359.57425 -2.3693217,291.63497 -7.9892166,204.67659 27.753383,132.45782 61.508563,64.254684 122.78972,18.743547 199.13555,5.1789479 210.72718,3.1194256 216.52157,2.751141 237.33334,2.751141 c 27.16933,0 40.71051,1.7242594 63.25442,8.054478 53.89568,15.133634 101.14927,49.503383 131.64759,95.753461 44.80065,67.93927 50.42054,154.89765 14.67794,227.11642 -33.70719,68.10619 -95.52207,114.03933 -171.17995,127.19966 -14.62634,2.54418 -48.70607,3.63682 -62.93334,2.01773 z m 65.06667,-138.2395 c 16.32914,-3.1048 43.43602,-14.92338 50.93751,-22.20871 6.77077,-6.5757 7.5845,-17.46625 1.67648,-22.43752 -6.90531,-5.81044 -20.43984,-6.10852 -43.06834,-0.94852 -15.15212,3.45517 -16.6785,3.04973 -19.09,-5.07069 -1.7335,-5.83734 -2.22627,-13.73128 -0.85565,-13.70727 0.44,0.007 5.36,0.9614 10.93334,2.11932 18.36613,3.81575 35.71026,2.56819 37.7374,-2.71446 2.3585,-6.14615 -2.01468,-18.78714 -11.96825,-34.595 -12.29982,-19.53408 -16.24818,-22.79451 -38.76249,-32.0087 -10.94673,-4.48005 -11.63,-5.41991 -7.59302,-10.44451 6.11896,-7.61594 6.80174,-9.94187 6.80174,-23.17067 0,-13.17181 -0.91771,-16.39083 -6.33716,-22.22856 -4.21554,-4.5409 -7.90208,-6.0381 -14.86752,-6.0381 -11.30918,0 -18.78724,7.73584 -20.74955,21.46484 -1.73186,12.11669 -0.45072,18.89017 5.15369,27.24781 2.59517,3.87008 4.71849,7.39774 4.71849,7.83925 0,1.29047 -4.3342,3.74519 -10.98265,6.22016 -18.07505,6.72866 -27.05297,15.54021 -37.97281,37.26916 -2.44373,4.86268 -5.16811,11.67105 -6.05419,15.12973 -1.43034,5.5832 -1.43246,6.71588 -0.019,10.0989 0.98404,2.35515 2.73206,4.25853 4.577,4.9838 3.74129,1.47076 23.90106,0.45916 32.8236,-1.64706 3.5046,-0.82729 6.80442,-1.2369 7.33295,-0.91026 1.68018,1.03842 0.0819,14.79835 -2.16248,18.61735 -2.55084,4.34044 -5.38177,4.51131 -17.8767,1.07899 -6.5835,-1.80847 -11.40307,-2.32601 -21.66096,-2.32601 -22.00694,0 -26.93812,2.47677 -26.93812,13.53016 0,3.17668 0.69548,7.12069 1.54552,8.76448 3.54288,6.85116 14.03136,13.34149 32.17181,19.90807 14.93868,5.40759 22.34389,7.11736 34.01601,7.85392 16.5456,1.04409 46.98899,0.14484 56.53333,-1.6699 z m -67.2,-6.80718 c -19.87395,-4.59723 -38.94109,-12.8349 -44.85204,-19.37762 -3.84838,-4.25968 -4.87895,-9.22161 -2.34796,-11.30483 4.13253,-3.40143 22.65075,-2.29199 41.52664,2.48792 12.84164,3.25185 13.82578,3.24655 17.79811,-0.0959 4.7464,-3.99383 7.69869,-12.85179 7.72135,-23.16695 0.0107,-4.66378 -0.24927,-8.74751 -0.57671,-9.07495 -0.32745,-0.32744 1.93645,-3.27701 5.03086,-6.55459 3.09441,-3.27758 6.58494,-7.30406 7.75673,-8.94774 l 2.13053,-2.9885 3.68085,4.91259 c 2.02447,2.70192 5.19102,6.06446 7.03679,7.47229 l 3.35594,2.5597 0.46443,12.13328 c 0.52229,13.64485 2.02763,17.60871 8.2899,21.82885 4.225,2.84723 8.41263,3.01484 19.95741,0.79883 13.07382,-2.50949 31.55863,-3.98062 34.75365,-2.76587 6.33473,2.40847 4.00195,9.84333 -4.84431,15.43949 -11.99132,7.58572 -35.35226,15.85446 -49.97095,17.68748 -14.79017,1.85454 -46.93074,1.26526 -56.91122,-1.04342 z m 77.33334,-60.26257 c -11.78672,-2.89033 -27.98182,-11.97149 -31.26668,-17.53233 -0.94328,-1.59684 -3.18598,-8.38164 -4.98377,-15.07733 -6.35492,-23.66827 -6.92991,-23.73702 -12.72864,-1.52223 -1.84601,7.07202 -4.54143,14.60464 -6.03198,16.85701 -5.55318,8.39145 -19.37153,14.24921 -36.18249,15.33821 -8.56614,0.5549 -9.88969,0.39138 -12.22193,-1.50999 l -2.61549,-2.13228 4.80009,-9.46902 c 6.38266,-12.59087 16.025,-27.09004 20.80896,-31.29041 4.28752,-3.7645 6.49055,-4.86713 19.43734,-9.72852 7.00214,-2.62923 9.31538,-4.04574 10.92934,-6.6926 3.24328,-5.31892 2.68134,-10.37386 -1.80686,-16.25371 -5.90668,-7.73818 -7.15761,-11.57137 -6.4693,-19.82376 0.92726,-11.11704 5.03676,-16.91609 13.0534,-18.42002 7.79372,-1.46211 14.12124,5.33243 15.09831,16.21268 0.70317,7.83015 -0.88645,13.60133 -5.70637,20.71715 -5.32065,7.85505 -5.89452,10.37654 -3.55229,15.60808 2.21824,4.95461 4.69936,6.47348 15.97169,9.77741 10.39389,3.04648 15.32628,5.97836 22.09135,13.13141 9.953,10.52383 22.67506,31.96559 22.69823,38.25559 0.0184,5.00208 -9.17232,6.53423 -21.32291,3.55466 z"
       id="path4952"
       inkscape:connector-curvature="0" />
    <path
       style="fill:#59b3aa;stroke-width:1.06666672"
       d="M 213.86667,462.74608 C 131.06396,454.40929 57.093844,401.02921 24.134041,325.82668 10.224794,294.09073 4.9429313,268.56091 4.9429313,233.06666 c 0,-35.49425 5.2818627,-61.02406 19.1911097,-92.76002 C 63.639287,50.169748 160.33287,-6.3095556 258.74808,3.2671756 358.03798,12.929022 439.2644,82.190439 463.43439,177.80228 c 4.98961,19.73797 6.28935,31.15877 6.28935,55.26438 0,35.49425 -5.28185,61.02407 -19.1911,92.76002 -39.79523,90.79854 -136.88101,146.96601 -236.66597,136.9194 z m 49.61187,-136.26364 c 12.74885,-0.77802 15.94455,-1.39195 27.69402,-5.32034 16.15819,-5.40242 31.61546,-12.9223 37.22354,-18.10905 10.23511,-9.46613 7.85542,-23.53313 -4.55311,-26.91468 -6.37928,-1.73847 -22.67808,-0.52264 -36.76148,2.74229 -11.27141,2.61303 -12.29995,2.69051 -14.71428,1.10858 -1.42768,-0.93544 -3.06901,-2.9455 -3.64739,-4.46679 -1.17604,-3.09317 -2.64431,-15.25579 -1.8417,-15.25579 0.28345,0 5.26208,0.99123 11.06362,2.20274 13.74043,2.86935 31.17809,3.14808 35.12577,0.56147 6.3037,-4.13036 5.61185,-11.07791 -2.71808,-27.29456 -5.68523,-11.06799 -15.37665,-24.88724 -21.6956,-30.93631 -2.61613,-2.50441 -8.54164,-5.67371 -18.00097,-9.62796 -9.32605,-3.89853 -14.219,-6.50687 -14.44928,-7.70263 -0.19151,-0.99442 1.35267,-4.03558 3.43151,-6.75815 4.57504,-5.99173 5.44367,-9.67251 5.39118,-22.8446 -0.0306,-7.68526 -0.52513,-11.12955 -2.0469,-14.25702 -6.90299,-14.18669 -22.59097,-17.34543 -33.24299,-6.69341 -5.32168,5.32168 -7.87246,12.7857 -7.86378,23.0107 0.007,9.30001 1.3145,13.546 6.60768,21.47261 5.2361,7.8411 5.37345,7.62086 -7.91856,12.6966 -16.51785,6.30757 -24.51776,13.7774 -34.88178,32.57052 -10.00214,18.13692 -11.83039,28.78126 -5.76311,33.55378 2.32584,1.82951 4.24674,2.16705 11.96034,2.10169 5.05422,-0.0428 11.82948,-0.50598 15.05615,-1.02923 3.22666,-0.52323 8.22317,-1.28411 11.10333,-1.69083 l 5.23667,-0.73949 -0.65577,7.02246 c -0.74584,7.98708 -3.05773,14.3725 -5.54989,15.32883 -0.93242,0.35781 -6.26803,-0.64711 -11.8569,-2.23316 -8.66759,-2.45974 -12.22843,-2.88897 -24.21951,-2.91944 -7.73186,-0.0196 -16.0092,0.49312 -18.39407,1.1395 -14.88308,4.03386 -12.52188,22.85129 4.08729,32.57329 6.06043,3.54742 23.86603,10.50862 34.38218,13.44191 14.48147,4.03936 33.4659,5.03295 62.41187,3.26647 z m -47.12738,-7.50006 c -13.26961,-2.43623 -34.72431,-9.97389 -44.20734,-15.53131 -8.95724,-5.2493 -12.98473,-13.78425 -7.81112,-16.55308 4.97563,-2.66288 30.20832,-0.53821 44.20064,3.72182 2.93333,0.89307 6.80353,1.62895 8.60044,1.63531 8.14493,0.0288 15.31394,-15.72015 13.68996,-30.07423 l -0.7045,-6.22698 5.75507,-6.1103 c 3.16529,-3.36065 6.48607,-7.24862 7.37951,-8.63992 l 1.62444,-2.52966 2.85548,4.31494 c 1.57052,2.37321 4.79291,5.87189 7.16088,7.77483 l 4.30539,3.45991 0.006,9.68814 c 0.006,11.12339 1.35501,17.15809 4.62962,20.72282 5.28071,5.74861 12.21671,6.80625 25.23109,3.84741 3.81333,-0.86698 13.28238,-1.88155 21.04232,-2.25461 l 14.10898,-0.6783 0.9445,2.55323 c 2.77048,7.48933 -5.20165,13.8401 -28.82715,22.96427 -17.75846,6.85833 -24.43528,7.96028 -51.00198,8.41743 -13.2,0.22715 -26.24199,10e-4 -28.98218,-0.50172 z m 70.82699,-61.87307 c -9.58517,-2.58407 -23.28486,-9.59739 -27.7305,-14.19615 -2.5,-2.58611 -4.03431,-5.97617 -6.14613,-13.57983 -7.82954,-28.19051 -8.37643,-28.43638 -14.35364,-6.45348 -4.44106,16.33327 -6.28874,19.59594 -13.87357,24.49826 -7.29934,4.71778 -16.41799,7.27801 -28.97023,8.13392 -7.75354,0.5287 -9.23553,0.34157 -11.46923,-1.44827 l -2.56514,-2.05542 6.1072,-11.53889 c 7.9842,-15.08531 16.13187,-26.7669 21.26072,-30.48222 2.26733,-1.64244 8.03142,-4.49253 12.80907,-6.33353 4.77765,-1.84099 9.99851,-4.02434 11.60191,-4.85187 3.57264,-1.84388 6.15328,-6.58133 6.14578,-11.2822 -0.005,-3.46342 -0.54882,-4.53787 -6.92772,-13.7009 -2.93564,-4.21692 -3.1935,-5.30804 -3.1214,-13.20769 0.12026,-13.17587 5.02068,-19.79761 14.65819,-19.80705 5.51375,-0.005 7.79214,1.42162 10.38529,6.50463 4.76196,9.33422 3.3678,21.98148 -3.34958,30.38589 -4.74334,5.93461 -5.62857,8.74969 -4.22896,13.44826 1.64292,5.51534 4.82456,7.60482 18.51151,12.15702 11.40513,3.7933 12.26057,4.29054 18.92886,11.00318 7.69759,7.7488 14.78331,17.90959 20.64923,29.61061 5.84279,11.65488 5.16352,13.75114 -4.77005,14.7207 -3.96368,0.38687 -8.2485,-0.0952 -13.55161,-1.52497 z"
       id="path4950"
       inkscape:connector-curvature="0" />
    <path
       style="fill:#1e9e8b;stroke-width:1.06666672"
       d="m 216.88392,462.91204 c -20.90628,-2.03155 -41.92417,-6.7528 -59.93913,-13.46417 C 75.992264,419.2895 19.914488,350.6072 6.8365412,265.6 c -2.5785855,-16.76092 -2.5785855,-48.30575 0,-65.06667 C 22.626258,97.899519 101.0857,20.261828 204.8,4.6432567 c 16.6727,-2.5107782 48.39398,-2.5107782 65.06667,0 103.71431,15.6185713 182.17374,93.2562623 197.96346,195.8900733 2.57859,16.76092 2.57859,48.30575 0,65.06667 -15.72856,102.23637 -94.90007,180.82528 -197.15271,195.70196 -14.25328,2.0737 -40.83491,2.86931 -53.7935,1.61008 z M 268.86288,326.4192 c 16.59714,-1.61544 44.99186,-12.14926 57.35208,-21.27637 11.09635,-8.19383 11.58295,-23.02617 0.91431,-27.8699 -6.1649,-2.79895 -20.51817,-2.7299 -33.79593,0.16259 -5.57333,1.21412 -12.6059,2.46331 -15.62793,2.776 -4.93082,0.51016 -5.66516,0.30817 -7.15704,-1.96873 -1.90754,-2.91126 -4.20791,-12.65309 -3.6946,-15.64626 0.33795,-1.97064 0.5634,-1.97341 9.4129,-0.11553 12.76235,2.67933 27.26535,3.63013 32.74281,2.14658 6.22414,-1.68578 9.25189,-5.73108 8.37832,-11.19406 -1.15251,-7.2074 -6.87506,-19.33388 -14.75206,-31.26066 -10.33315,-15.64567 -15.2915,-20.39093 -25.84485,-24.73413 -17.7019,-7.28515 -20.79088,-8.88784 -20.79088,-10.78713 0,-1.02137 0.74766,-2.47757 1.66148,-3.23595 0.91381,-0.7584 2.95381,-3.57718 4.53333,-6.26395 2.68708,-4.57075 2.87185,-5.70855 2.87185,-17.68504 0,-12.04204 -0.17365,-13.0954 -2.93257,-17.78865 -3.57296,-6.078 -7.17167,-9.03407 -12.86417,-10.5669 -6.72472,-1.81077 -13.01438,-0.37735 -17.96356,4.09394 -6.52327,5.89339 -8.67698,10.98534 -9.22551,21.81164 -0.63043,12.44283 0.10122,15.50482 5.63704,23.58961 4.44174,6.48697 4.60747,6.9846 2.85447,8.57104 -1.02358,0.92633 -5.12319,2.9121 -9.11025,4.41282 -10.37575,3.90542 -14.39654,6.13747 -20.07659,11.1451 C 190.63617,214.21204 176,241.66564 176,252.35182 c 0,2.19249 1.02393,4.70136 2.76149,6.76633 2.75806,3.27777 2.77494,3.28177 13.6,3.21826 5.96118,-0.035 13.23851,-0.49893 16.17185,-1.03102 2.93333,-0.53209 7.44962,-1.29918 10.0362,-1.70464 l 4.70287,-0.7372 -0.67767,6.48368 c -0.80057,7.65932 -3.41861,14.76236 -5.77431,15.66632 -0.92425,0.35468 -6.04695,-0.65655 -11.38377,-2.24715 -8.4572,-2.52063 -11.62109,-2.90108 -24.63666,-2.96255 -18.17265,-0.0858 -24.32895,1.63668 -26.77528,7.49159 -3.20385,7.66787 -0.35386,16.9803 6.97251,22.78289 8.76929,6.94541 37.61158,18.02955 52.42401,20.14663 9.17244,1.31098 42.75922,1.42866 55.44164,0.19424 z M 217.6,318.86091 c -7.60816,-1.13985 -22.94471,-5.62366 -33.06666,-9.66741 -18.15738,-7.25393 -26.44779,-16.133 -20.27736,-21.71716 1.88894,-1.70946 3.5625,-1.85199 15.2,-1.29442 8.57696,0.41092 16.8633,1.56572 24.07865,3.35564 14.43054,3.5798 16.73432,3.5232 20.49587,-0.50354 4.64838,-4.97611 6.89433,-12.81483 6.8989,-24.0783 l 0.004,-9.71096 6.66667,-7.12807 c 3.66666,-3.92045 6.66666,-7.66254 6.66666,-8.31575 0,-0.65323 1.36134,0.68433 3.02519,2.97235 1.66386,2.28802 5.02386,5.95879 7.46666,8.15727 l 4.44149,3.99721 v 10.86601 c 0,8.74586 0.41927,11.71218 2.14883,15.20278 4.53811,9.15879 10.19229,10.80458 26.89831,7.82944 15.55876,-2.77084 34.7552,-3.15381 36.31079,-0.72444 1.53813,2.40216 0.0985,7.1058 -3.0752,10.04703 -4.22346,3.91417 -18.90532,10.72195 -33.30331,15.4423 -10.32156,3.3839 -15.83384,4.53458 -25.6,5.34391 -14.60492,1.21034 -36.64932,1.17412 -44.97942,-0.0739 z m 64.29276,-63.81023 c -10.50867,-3.65796 -21.30339,-10.17318 -24.35289,-14.69834 -1.21878,-1.80855 -3.56519,-8.50768 -5.21423,-14.88697 -3.45649,-13.37129 -5.73237,-19.59871 -7.16255,-19.59871 -1.48466,0 -3.61113,5.69893 -6.75654,18.10751 -3.2569,12.84842 -4.42764,15.36877 -9.24887,19.91084 -6.83648,6.44064 -17.44027,10.21501 -32.64343,11.61927 -8.18677,0.75619 -13.04758,-0.84679 -13.04758,-4.30277 0,-2.29975 8.67606,-18.46233 14.70515,-27.39414 8.92186,-13.2173 13.09929,-16.45708 27.1971,-21.09255 8.65531,-2.84592 13.14239,-6.34953 14.51954,-11.33718 1.36628,-4.9482 0.0522,-8.98978 -4.87903,-15.00529 -3.93299,-4.79786 -4.08904,-5.29976 -4.4448,-14.29615 -0.28753,-7.2708 0.046,-10.19759 1.51463,-13.29255 3.55022,-7.48153 13.11902,-10.38071 18.99821,-5.75613 4.70216,3.69872 6.41276,8.15062 6.3166,16.43914 -0.0961,8.28752 -1.69011,12.86458 -6.65512,19.11034 -5.48747,6.90297 -5.62236,11.53307 -0.51292,17.6053 2.14855,2.5534 5.06847,3.99725 13.1803,6.5174 5.73118,1.78053 12.63016,4.63878 15.33107,6.35166 8.60516,5.45721 26.19978,30.2974 29.75707,42.01119 1.11344,3.66643 1.02854,4.29403 -0.75745,5.6 -3.57429,2.61358 -15.91672,1.8438 -25.84426,-1.61187 z"
       id="path4948"
       inkscape:connector-curvature="0" />
    <path
       style="fill:#00807f;stroke-width:1.06666672"
       d="M 226.13334,463.32369 C 149.73649,458.51396 84.378807,421.27094 42.327236,358.58475 34.048896,346.24424 22.396986,322.35669 17.183753,307.03816 8.7451332,282.24216 5.0299329,259.63043 5.0299329,233.06666 c 0,-36.46872 7.4439851,-68.24664 23.7373581,-101.33333 C 41.089288,106.71125 54.162988,88.856048 74.972276,68.629569 111.93137,32.705591 157.46697,10.914526 209.6,4.2034428 c 12.35324,-1.5902317 43.11343,-1.5902317 55.46667,0 69.12382,8.8983052 128.54089,45.6075962 167.27277,103.3451272 8.27834,12.34052 19.93025,36.22807 25.14348,51.5466 8.43863,24.796 12.15383,47.40773 12.15383,73.97149 0,36.46873 -7.44399,68.24665 -23.73737,101.33334 -12.32199,25.02207 -25.39569,42.87727 -46.20498,63.10376 -42.37358,41.18682 -95.13997,63.50335 -155.42773,65.73518 -6.74666,0.24975 -14.90667,0.28789 -18.13333,0.0848 z m 83.17406,-77.19323 c 32.68287,-8.00079 65.83936,-39.9263 88.5366,-85.24955 9.48341,-18.93705 14.50438,-39.60806 13.70121,-56.40697 -0.38507,-8.05438 -0.99469,-10.6381 -3.90466,-16.54909 -3.86862,-7.85826 -7.57071,-11.21435 -18.85636,-17.09392 -10.2908,-5.36129 -19.77438,-13.3002 -25.54019,-21.38027 C 351.74613,173.33785 348.58367,159.63567 346.10695,115.2 344.32706,83.266383 337.57622,70.445286 319.5573,64.77723 299.58048,58.493295 254.95442,64.972008 217.98788,79.522853 169.47001,98.620555 131.25061,129.00677 105.31602,169.10226 c -10.240175,15.83156 -21.885153,42.06362 -24.177306,54.46302 -3.378707,18.27711 1.488035,39.31851 13.776113,59.56119 30.971783,51.02112 105.660003,96.84842 171.374473,105.15216 11.43992,1.44557 32.66817,0.3855 43.0181,-2.14817 z"
       id="path4946"
       inkscape:connector-curvature="0" />
    <path
       style="fill:#007f7e;stroke-width:1.06666672"
       d="M 223.46667,462.77161 C 168.15595,459.99921 115.04707,436.64636 74.824806,397.41133 47.466375,370.72439 28.166432,340.05985 16.593641,304.89125 8.2501159,279.53608 5.3015629,260.78147 5.3015629,233.06666 c 0,-27.7148 2.948553,-46.46941 11.2920781,-71.82458 C 28.166432,126.07348 47.466375,95.408935 74.824806,68.721998 111.42087,33.024165 158.50738,10.598114 210.13334,4.2781549 c 11.67589,-1.4293419 42.72411,-1.4293419 54.4,0 C 333.90553,12.770577 394.77062,50.52284 433.04593,108.8 c 17.93108,27.30147 30.95813,63.23883 35.18602,97.06666 1.45927,11.6759 1.45927,42.72411 0,54.4 -5.28778,42.30816 -22.33299,82.70217 -49.06148,116.26667 -9.7727,12.27215 -29.23381,31.0675 -41.57046,40.14835 -14.02083,10.32055 -23.90529,16.25956 -39.46667,23.71328 -36.39361,17.43209 -72.54942,24.48773 -114.66667,22.37665 z m 80.70617,-74.96864 c 16.0095,-3.13014 28.10516,-8.84018 41.6797,-19.67589 47.42065,-37.85294 78.5596,-108.5393 62.11223,-140.99663 -3.42535,-6.75958 -8.02544,-11.12998 -15.83278,-15.04219 -23.7894,-11.92071 -36.69036,-29.0455 -41.67429,-55.3186 -0.92916,-4.89815 -2.41198,-19.73512 -3.29513,-32.97103 C 346.2794,110.56272 345.1222,97.566688 344.59103,94.918567 341.48961,79.457115 334.18362,69.533807 322.60362,65.054324 313.8374,61.663295 294.27093,60.94673 277.3043,63.39537 c -46.20582,6.668472 -90.97678,25.793173 -126.37096,53.98157 -29.15955,23.22304 -53.6334,57.23817 -66.151326,91.94077 -3.98942,11.05961 -4.889396,16.13523 -4.863604,27.4294 0.06705,29.36147 18.425462,60.84365 52.61385,90.22557 35.44286,30.46005 85.03376,54.24987 126.59144,60.72865 12.46822,1.94377 35.36314,1.99543 45.04914,0.10165 z"
       id="path4944"
       inkscape:connector-curvature="0" />
  </g>
</svg>
