<svg xmlns="http://www.w3.org/2000/svg" xmlns:xlink="http://www.w3.org/1999/xlink" width="1203" height="483" viewBox="0 0 1203 483">
  <defs>
    <linearGradient id="linear-gradient" x1="1" x2="0" y2="1" gradientUnits="objectBoundingBox">
      <stop offset="0" stop-color="#930d3f"/>
      <stop offset="0.484" stop-color="#801c4d"/>
      <stop offset="0.797" stop-color="#4e3060"/>
      <stop offset="1" stop-color="#4a2a5d"/>
    </linearGradient>
  </defs>
  <g id="Group_106" data-name="Group 106" transform="translate(3535 -1151)">
    <rect id="Rectangle_651" data-name="Rectangle 651" width="1203" height="483" transform="translate(-3535 1151)" fill="#f1f1f1" opacity="0.65"/>
    <text id="Colors" transform="translate(-3433 1235)" font-size="35" font-family="Roboto-Medium, Roboto" font-weight="500"><tspan x="0" y="0">Colors</tspan></text>
    <g id="Rectangle_652" data-name="Rectangle 652" transform="translate(-3172 1291)" fill="#920e40" stroke="#707070" stroke-width="1">
      <rect width="131" height="125" rx="5" stroke="none"/>
      <rect x="0.5" y="0.5" width="130" height="124" rx="4.5" fill="none"/>
    </g>
    <g id="Path_3637" data-name="Path 3637" transform="translate(-3452 1285)" fill="url(#linear-gradient)">
      <path d="M 130.955078125 124.4530639648438 L 97.40085601806641 124.4530639648438 L 0.5000057220458984 124.4530639648438 L 0.5000057220458984 0.4999986588954926 L 130.955078125 0.4999986588954926 L 130.955078125 124.4530639648438 Z" stroke="none"/>
      <path d="M 1 1.000007629394531 L 1 123.9530563354492 L 97.40084838867188 123.9530563354492 L 130.455078125 123.9530563354492 L 130.455078125 1.000007629394531 L 1 1.000007629394531 M 0 7.62939453125e-06 L 131.455078125 7.62939453125e-06 L 131.455078125 124.9530563354492 L 97.40084838867188 124.9530563354492 L 0 124.9530563354492 L 0 7.62939453125e-06 Z" stroke="none" fill="#707070"/>
    </g>
    <text id="HEX_920E40" data-name="HEX#920E40" transform="translate(-3172 1429)" fill="#707070" font-size="20" font-family="SegoeUI, Segoe UI"><tspan x="0" y="22">HEX#920E40</tspan></text>
    <text id="RGB_146_14_64_" data-name="RGB 146 14  64 " transform="translate(-3172 1463)" fill="#707070" font-size="20" font-family="SegoeUI, Segoe UI"><tspan x="0" y="22" xml:space="preserve">RGB 146 14  64 </tspan></text>
    <text id="_100_" data-name="100%" transform="translate(-3127 1505)" fill="#707070" font-size="20" font-family="SegoeUI, Segoe UI"><tspan x="0" y="22">100%</tspan></text>
    <g id="Path_3638" data-name="Path 3638" transform="translate(-2958 1291)" fill="#442158">
      <path d="M 126 124.5 L 5 124.5 C 2.518683433532715 124.5 0.5 122.481315612793 0.5 120 L 0.5 5 C 0.5 2.518683433532715 2.518683433532715 0.5 5 0.5 L 126 0.5 C 128.4813232421875 0.5 130.5 2.518683433532715 130.5 5 L 130.5 120 C 130.5 122.481315612793 128.4813232421875 124.5 126 124.5 Z" stroke="none"/>
      <path d="M 5 1 C 2.794403076171875 1 1 2.794403076171875 1 5 L 1 120 C 1 122.2055969238281 2.794403076171875 124 5 124 L 126 124 C 128.2055969238281 124 130 122.2055969238281 130 120 L 130 5 C 130 2.794403076171875 128.2055969238281 1 126 1 L 5 1 M 5 0 L 126 0 C 128.7614135742188 0 131 2.238578796386719 131 5 L 131 120 C 131 122.7614212036133 128.7614135742188 125 126 125 L 5 125 C 2.238571166992188 125 0 122.7614212036133 0 120 L 0 5 C 0 2.238578796386719 2.238571166992188 0 5 0 Z" stroke="none" fill="#707070"/>
    </g>
    <text id="HEX_442158" data-name="HEX#442158" transform="translate(-2950 1429)" fill="#707070" font-size="20" font-family="SegoeUI, Segoe UI"><tspan x="0" y="22">HEX#442158</tspan></text>
    <text id="RGB_68_33_88_" data-name="RGB 68 33  88 " transform="translate(-2950 1463)" fill="#707070" font-size="20" font-family="SegoeUI, Segoe UI"><tspan x="0" y="22" xml:space="preserve">RGB 68 33  88 </tspan></text>
    <text id="_100_2" data-name="100%" transform="translate(-2917 1503)" fill="#707070" font-size="20" font-family="SegoeUI, Segoe UI"><tspan x="0" y="22">100%</tspan></text>
    <path id="Path_3639" data-name="Path 3639" d="M5,0H126a5,5,0,0,1,5,5V120a5,5,0,0,1-5,5H5a5,5,0,0,1-5-5V5A5,5,0,0,1,5,0Z" transform="translate(-2744 1293)" fill="#f3f4f4"/>
    <text id="HEX_F3F4F4" data-name="HEX#F3F4F4" transform="translate(-2736 1431)" fill="#707070" font-size="20" font-family="SegoeUI, Segoe UI"><tspan x="0" y="22">HEX#F3F4F4</tspan></text>
    <text id="RGB_243_244_244_" data-name="RGB 243 244  244 " transform="translate(-2760 1465)" fill="#707070" font-size="20" font-family="SegoeUI, Segoe UI"><tspan x="0" y="22" xml:space="preserve">RGB 243 244  244 </tspan></text>
    <text id="_100_3" data-name="100%" transform="translate(-2691 1505)" fill="#707070" font-size="20" font-family="SegoeUI, Segoe UI"><tspan x="0" y="22">100%</tspan></text>
    <text id="HEX_920E40-2" data-name="HEX#920E40" transform="translate(-3524 1423)" fill="#707070" font-size="20" font-family="SegoeUI, Segoe UI"><tspan x="0" y="22">HEX#920E40</tspan></text>
    <text id="_801C4D" data-name="#801C4D" transform="translate(-3495 1457)" fill="#707070" font-size="20" font-family="SegoeUI, Segoe UI"><tspan x="0" y="22">#801C4D</tspan></text>
    <text id="_4E3060" data-name="#4E3060" transform="translate(-3487 1500)" fill="#707070" font-size="20" font-family="SegoeUI, Segoe UI"><tspan x="0" y="22">#4E3060</tspan></text>
    <text id="_4A2A5D" data-name="#4A2A5D" transform="translate(-3495 1543)" fill="#707070" font-size="20" font-family="SegoeUI, Segoe UI"><tspan x="0" y="22">#4A2A5D</tspan></text>
    <text id="_100_4" data-name="100%" transform="translate(-3475 1581)" fill="#707070" font-size="20" font-family="SegoeUI, Segoe UI"><tspan x="0" y="22">100%</tspan></text>
    <text id="RGB_146_14_64_2" data-name="RGB 146 14  64 " transform="translate(-3379 1423)" fill="#707070" font-size="20" font-family="SegoeUI, Segoe UI"><tspan x="0" y="22" xml:space="preserve">RGB 146 14  64 </tspan></text>
    <text id="_128_28_77_" data-name="        128 28  77 " transform="translate(-3379 1457)" fill="#707070" font-size="20" font-family="SegoeUI, Segoe UI"><tspan x="0" y="22" xml:space="preserve">        128 28  77 </tspan></text>
    <text id="_78_48_96_" data-name="          78 48  96 " transform="translate(-3379 1499)" fill="#707070" font-size="20" font-family="SegoeUI, Segoe UI"><tspan x="0" y="22" xml:space="preserve">          78 48  96 </tspan></text>
    <text id="_74_42_93_" data-name="          74 42  93 " transform="translate(-3379 1541)" fill="#707070" font-size="20" font-family="SegoeUI, Segoe UI"><tspan x="0" y="22" xml:space="preserve">          74 42  93 </tspan></text>
  </g>
</svg>
