<svg xmlns="http://www.w3.org/2000/svg" xmlns:xlink="http://www.w3.org/1999/xlink" width="1124" height="486" viewBox="0 0 1124 486">
  <defs>
    <clipPath id="clip-path">
      <rect width="24" height="24" fill="none"/>
    </clipPath>
    <filter id="Surface" x="22.5" y="377.5" width="421" height="69" filterUnits="userSpaceOnUse">
      <feOffset dy="1" input="SourceAlpha"/>
      <feGaussianBlur stdDeviation="1.5" result="blur"/>
      <feFlood flood-opacity="0.2"/>
      <feComposite operator="in" in2="blur"/>
      <feComposite in="SourceGraphic"/>
    </filter>
    <filter id="Rectangle_377" x="781" y="24.5" width="186" height="50" filterUnits="userSpaceOnUse">
      <feOffset dy="1" input="SourceAlpha"/>
      <feGaussianBlur stdDeviation="1.5" result="blur-2"/>
      <feFlood flood-opacity="0.2"/>
      <feComposite operator="in" in2="blur-2"/>
      <feComposite in="SourceGraphic"/>
    </filter>
    <filter id="Path_3462" x="823.5" y="93.5" width="101" height="50" filterUnits="userSpaceOnUse">
      <feOffset dy="1" input="SourceAlpha"/>
      <feGaussianBlur stdDeviation="1.5" result="blur-3"/>
      <feFlood flood-opacity="0.2"/>
      <feComposite operator="in" in2="blur-3"/>
      <feComposite in="SourceGraphic"/>
    </filter>
    <filter id="Path_3462-2" x="818.5" y="165.5" width="111.667" height="50" filterUnits="userSpaceOnUse">
      <feOffset dy="1" input="SourceAlpha"/>
      <feGaussianBlur stdDeviation="1.5" result="blur-4"/>
      <feFlood flood-opacity="0.2"/>
      <feComposite operator="in" in2="blur-4"/>
      <feComposite in="SourceGraphic"/>
    </filter>
    <filter id="Rectangle_377-2" x="740.558" y="239.5" width="265" height="50" filterUnits="userSpaceOnUse">
      <feOffset dy="1" input="SourceAlpha"/>
      <feGaussianBlur stdDeviation="1.5" result="blur-5"/>
      <feFlood flood-opacity="0.2"/>
      <feComposite operator="in" in2="blur-5"/>
      <feComposite in="SourceGraphic"/>
    </filter>
    <filter id="Path_3462-3" x="781.5" y="321.5" width="190.333" height="50" filterUnits="userSpaceOnUse">
      <feOffset dy="1" input="SourceAlpha"/>
      <feGaussianBlur stdDeviation="1.5" result="blur-6"/>
      <feFlood flood-opacity="0.2"/>
      <feComposite operator="in" in2="blur-6"/>
      <feComposite in="SourceGraphic"/>
    </filter>
  </defs>
  <g id="Group_103" data-name="Group 103" transform="translate(3456 -51)">
    <g id="Group_91" data-name="Group 91" transform="translate(7)">
      <g id="Group_87" data-name="Group 87" transform="translate(-1394 808)">
        <path id="Path_3635" data-name="Path 3635" d="M0,0H1124V486H0Z" transform="translate(-2069 -757)" fill="#f1f1f1"/>
        <text id="Navigation_and_Buttons" data-name="Navigation and Buttons" transform="translate(-2049 -715)" font-size="35" font-family="Roboto-Medium, Roboto" font-weight="500"><tspan x="0" y="0">Navigation and Buttons</tspan></text>
        <g id="Component_809_6" data-name="Component 809 – 6" transform="translate(-2042 -651)">
          <g id="Component_798_19" data-name="Component 798 – 19">
            <g id="App_Bar_Top_App_Bar_Regular_Raised_Primary_Color" data-name="App Bar / Top App Bar / Regular / Raised / Primary Color">
              <path id="Surface-2" data-name="Surface" d="M75-1384H487v-55H75Z" transform="translate(-75 1439)" fill="#fff"/>
              <g id="Icon_Favorite_Filled" data-name="Icon / Favorite / Filled" transform="translate(314 16)" clip-path="url(#clip-path)">
                <rect id="Box" width="24" height="24" fill="none"/>
                <path id="Icon_Favorite" data-name="Icon / Favorite" d="M364-1396.65l-1.45-1.32c-5.15-4.67-8.55-7.75-8.55-11.53a5.447,5.447,0,0,1,5.5-5.5,5.989,5.989,0,0,1,4.5,2.09,5.989,5.989,0,0,1,4.5-2.09,5.447,5.447,0,0,1,5.5,5.5c0,3.78-3.4,6.86-8.55,11.54Z" transform="translate(-352 1418)" fill="#9c0538"/>
              </g>
            </g>
            <g id="Icon_Shopping_Cart_Rounded" data-name="Icon / Shopping Cart / Rounded" transform="translate(364 16)">
              <rect id="Box-2" data-name="Box" width="24" height="24" fill="none"/>
              <path id="Path_2021" data-name="Path 2021" d="M1119.9,16a2,2,0,1,0,2,2A2.006,2.006,0,0,0,1119.9,16Zm-16-15a.945.945,0,0,0,1,1h1l3.6,7.6-1.3,2.4a2.04,2.04,0,0,0,1.8,3h11a1,1,0,0,0,0-2h-11l1.1-2h7.5a2.1,2.1,0,0,0,1.8-1l3.6-6.5a1,1,0,0,0-.9-1.5h-14.8l-.7-1.4a1.149,1.149,0,0,0-.9-.6h-1.6A1.062,1.062,0,0,0,1103.9,1Zm6,15a2,2,0,1,0,2,2A2.006,2.006,0,0,0,1109.9,16Z" transform="translate(-1102 2)" fill="#9c0538"/>
            </g>
            <g id="Icon_Circle_Rounded" data-name="Icon / Circle / Rounded" transform="translate(269 16)">
              <rect id="Box-3" data-name="Box" width="24" height="24" fill="none"/>
              <path id="Path_2015" data-name="Path 2015" d="M921.9,17.2a7.3,7.3,0,0,1-6-3.2c0-2,4-3.1,6-3.1s6,1.1,6,3.1A7.3,7.3,0,0,1,921.9,17.2Zm0-14.2a2.946,2.946,0,0,1,3,3,3,3,0,0,1-6,0A2.946,2.946,0,0,1,921.9,3Zm0-3a10,10,0,1,0,10,10A10.029,10.029,0,0,0,921.9,0Z" transform="translate(-910 2)" fill="#9c0538"/>
            </g>
          </g>
        </g>
        <g id="Component_809_1" data-name="Component 809 – 1" transform="translate(-2042 -574)">
          <g id="Component_798_19-2" data-name="Component 798 – 19">
            <g id="App_Bar_Top_App_Bar_Regular_Raised_Primary_Color-2" data-name="App Bar / Top App Bar / Regular / Raised / Primary Color">
              <path id="Surface-3" data-name="Surface" d="M75-1384H487v-55H75Z" transform="translate(-75 1439)" fill="#fff"/>
              <g id="Icon_Favorite_Filled-2" data-name="Icon / Favorite / Filled" transform="translate(314 16)" clip-path="url(#clip-path)">
                <rect id="Box-4" data-name="Box" width="24" height="24" fill="none"/>
                <path id="Icon_Favorite-2" data-name="Icon / Favorite" d="M364-1396.65l-1.45-1.32c-5.15-4.67-8.55-7.75-8.55-11.53a5.447,5.447,0,0,1,5.5-5.5,5.989,5.989,0,0,1,4.5,2.09,5.989,5.989,0,0,1,4.5-2.09,5.447,5.447,0,0,1,5.5,5.5c0,3.78-3.4,6.86-8.55,11.54Z" transform="translate(-352 1418)" fill="#9c0538"/>
              </g>
            </g>
            <g id="Icon_Shopping_Cart_Rounded-2" data-name="Icon / Shopping Cart / Rounded" transform="translate(364 16)">
              <rect id="Box-5" data-name="Box" width="24" height="24" fill="none"/>
              <path id="Path_2021-2" data-name="Path 2021" d="M1119.9,16a2,2,0,1,0,2,2A2.006,2.006,0,0,0,1119.9,16Zm-16-15a.945.945,0,0,0,1,1h1l3.6,7.6-1.3,2.4a2.04,2.04,0,0,0,1.8,3h11a1,1,0,0,0,0-2h-11l1.1-2h7.5a2.1,2.1,0,0,0,1.8-1l3.6-6.5a1,1,0,0,0-.9-1.5h-14.8l-.7-1.4a1.149,1.149,0,0,0-.9-.6h-1.6A1.062,1.062,0,0,0,1103.9,1Zm6,15a2,2,0,1,0,2,2A2.006,2.006,0,0,0,1109.9,16Z" transform="translate(-1102 2)" fill="#9c0538"/>
            </g>
            <g id="Icon_Circle_Rounded-2" data-name="Icon / Circle / Rounded" transform="translate(269 16)">
              <rect id="Box-6" data-name="Box" width="24" height="24" fill="none"/>
              <path id="Path_2015-2" data-name="Path 2015" d="M921.9,17.2a7.3,7.3,0,0,1-6-3.2c0-2,4-3.1,6-3.1s6,1.1,6,3.1A7.3,7.3,0,0,1,921.9,17.2Zm0-14.2a2.946,2.946,0,0,1,3,3,3,3,0,0,1-6,0A2.946,2.946,0,0,1,921.9,3Zm0-3a10,10,0,1,0,10,10A10.029,10.029,0,0,0,921.9,0Z" transform="translate(-910 2)" fill="#9c0538"/>
            </g>
          </g>
          <g id="Icon_Keyboard_Arrow_-_Left_Outlined" data-name="Icon / Keyboard Arrow - Left / Outlined" transform="translate(14 16)">
            <rect id="Box-7" data-name="Box" width="24" height="24" fill="none"/>
            <path id="Icon_Keyboard_Arrow_-_Up_Dark" data-name="Icon / Keyboard Arrow - Up / Dark" d="M10.6,7.4,6,2.8,1.4,7.4,0,6,6,0l6,6Z" transform="translate(8.3 17.7) rotate(-90)" fill="#9c0538"/>
          </g>
        </g>
        <g id="Component_811_1" data-name="Component 811 – 1" transform="translate(-2042 -497)">
          <g id="Icon_Keyboard_Arrow_-_Left_Outlined-2" data-name="Icon / Keyboard Arrow - Left / Outlined" transform="translate(14 16)" clip-path="url(#clip-path)">
            <rect id="Box-8" data-name="Box" width="24" height="24" fill="none"/>
            <path id="Icon_Keyboard_Arrow_-_Up_Dark-2" data-name="Icon / Keyboard Arrow - Up / Dark" d="M10.6,7.4,6,2.8,1.4,7.4,0,6,6,0l6,6Z" transform="translate(8.3 17.7) rotate(-90)" fill="#bc285a"/>
          </g>
          <g id="Component_810_1" data-name="Component 810 – 1">
            <g id="Component_798_19-3" data-name="Component 798 – 19">
              <g id="App_Bar_Top_App_Bar_Regular_Raised_Primary_Color-3" data-name="App Bar / Top App Bar / Regular / Raised / Primary Color">
                <path id="Surface-4" data-name="Surface" d="M75-1384H487v-55H75Z" transform="translate(-75 1439)" fill="#fff"/>
                <g id="Icon_Favorite_Filled-3" data-name="Icon / Favorite / Filled" transform="translate(314 16)" clip-path="url(#clip-path)">
                  <rect id="Box-9" data-name="Box" width="24" height="24" fill="none"/>
                  <path id="Icon_Favorite-3" data-name="Icon / Favorite" d="M364-1396.65l-1.45-1.32c-5.15-4.67-8.55-7.75-8.55-11.53a5.447,5.447,0,0,1,5.5-5.5,5.989,5.989,0,0,1,4.5,2.09,5.989,5.989,0,0,1,4.5-2.09,5.447,5.447,0,0,1,5.5,5.5c0,3.78-3.4,6.86-8.55,11.54Z" transform="translate(-352 1418)" fill="#9c0538"/>
                </g>
              </g>
              <g id="Icon_Shopping_Cart_Rounded-3" data-name="Icon / Shopping Cart / Rounded" transform="translate(364 16)">
                <rect id="Box-10" data-name="Box" width="24" height="24" fill="none"/>
                <path id="Path_2021-3" data-name="Path 2021" d="M1119.9,16a2,2,0,1,0,2,2A2.006,2.006,0,0,0,1119.9,16Zm-16-15a.945.945,0,0,0,1,1h1l3.6,7.6-1.3,2.4a2.04,2.04,0,0,0,1.8,3h11a1,1,0,0,0,0-2h-11l1.1-2h7.5a2.1,2.1,0,0,0,1.8-1l3.6-6.5a1,1,0,0,0-.9-1.5h-14.8l-.7-1.4a1.149,1.149,0,0,0-.9-.6h-1.6A1.062,1.062,0,0,0,1103.9,1Zm6,15a2,2,0,1,0,2,2A2.006,2.006,0,0,0,1109.9,16Z" transform="translate(-1102 2)" fill="#9c0538"/>
              </g>
              <g id="Icon_Circle_Rounded-3" data-name="Icon / Circle / Rounded" transform="translate(269 16)" clip-path="url(#clip-path)">
                <rect id="Box-11" data-name="Box" width="24" height="24" fill="none"/>
                <path id="Path_2015-3" data-name="Path 2015" d="M921.9,17.2a7.3,7.3,0,0,1-6-3.2c0-2,4-3.1,6-3.1s6,1.1,6,3.1A7.3,7.3,0,0,1,921.9,17.2Zm0-14.2a2.946,2.946,0,0,1,3,3,3,3,0,0,1-6,0A2.946,2.946,0,0,1,921.9,3Zm0-3a10,10,0,1,0,10,10A10.029,10.029,0,0,0,921.9,0Z" transform="translate(-910 2)" fill="#9c0538"/>
              </g>
            </g>
            <circle id="Ellipse_76" data-name="Ellipse 76" cx="7.5" cy="7.5" r="7.5" transform="translate(379 4)" fill="#9c0538"/>
            <text id="_3" data-name="3" transform="translate(383 16)" fill="#fff" font-size="12" font-family="Roboto-Regular, Roboto" letter-spacing="0.089em"><tspan x="0" y="0">3</tspan></text>
          </g>
          <g id="Icon_Keyboard_Arrow_-_Left_Outlined-3" data-name="Icon / Keyboard Arrow - Left / Outlined" transform="translate(16 15)" clip-path="url(#clip-path)">
            <rect id="Box-12" data-name="Box" width="24" height="24" fill="none"/>
            <path id="Icon_Keyboard_Arrow_-_Up_Dark-3" data-name="Icon / Keyboard Arrow - Up / Dark" d="M10.6,7.4,6,2.8,1.4,7.4,0,6,6,0l6,6Z" transform="translate(8.3 17.7) rotate(-90)" fill="#9c0538"/>
          </g>
        </g>
        <g id="Component_805_1" data-name="Component 805 – 1" transform="translate(-2042 -376)">
          <g id="Component_798_11" data-name="Component 798 – 11">
            <g id="coffee-cup_1_" data-name="coffee-cup (1)" transform="translate(144 8)">
              <path id="Path_2116" data-name="Path 2116" d="M7.757,6a.75.75,0,0,1-.492-1.316A.606.606,0,0,0,7.5,4.167a.693.693,0,0,0-.372-.518A2.172,2.172,0,0,1,6.009,1.975,2.1,2.1,0,0,1,6.751.184a.75.75,0,1,1,.984,1.132.606.606,0,0,0-.232.517.694.694,0,0,0,.373.518A2.173,2.173,0,0,1,8.991,4.025a2.1,2.1,0,0,1-.742,1.792A.755.755,0,0,1,7.757,6Z" transform="translate(0 0.001)" fill="#fff"/>
              <path id="Path_2117" data-name="Path 2117" d="M12.757,6a.75.75,0,0,1-.492-1.316.606.606,0,0,0,.232-.517.694.694,0,0,0-.373-.518,2.173,2.173,0,0,1-1.115-1.674A2.1,2.1,0,0,1,11.751.183a.75.75,0,0,1,.983,1.133.606.606,0,0,0-.232.517.694.694,0,0,0,.373.518A2.173,2.173,0,0,1,13.99,4.025a2.1,2.1,0,0,1-.742,1.792A.751.751,0,0,1,12.757,6Z" transform="translate(0 0.001)" fill="#fff"/>
              <path id="Path_2118" data-name="Path 2118" d="M17.25,24H2.75A2.752,2.752,0,0,1,0,21.25v-1a.75.75,0,0,1,.75-.75h18.5a.75.75,0,0,1,.75.75v1A2.752,2.752,0,0,1,17.25,24Z" transform="translate(0 0.001)" fill="#fff"/>
              <path id="Path_2119" data-name="Path 2119" d="M3.792,18.5H16.219a8.872,8.872,0,0,0,1.435-1.767.768.768,0,0,0,.07-.1A9.046,9.046,0,0,0,19,12V8.25a.75.75,0,0,0-.75-.75H1.75A.75.75,0,0,0,1,8.25V12A8.969,8.969,0,0,0,3.792,18.5Z" transform="translate(0 0.001)" fill="#fff"/>
              <path id="Path_2120" data-name="Path 2120" d="M20,9.25v2a2,2,0,0,1,2,2,2,2,0,0,1-2,2h-.563a9.99,9.99,0,0,1-.854,1.9c-.021.036-.046.069-.07.1H20a4,4,0,0,0,4-4A4,4,0,0,0,20,9.25Z" transform="translate(0 0.001)" fill="#fff"/>
            </g>
            <g id="Bottom_Navigation_3-up_Primary_Color" data-name="Bottom Navigation / 3-up / Primary Color">
              <g transform="matrix(1, 0, 0, 1, -27, -381)" filter="url(#Surface)">
                <path id="Surface-5" data-name="Surface" d="M75-1379H487v-60H75Z" transform="translate(-48 1820)" fill="#9c0538"/>
              </g>
            </g>
            <g id="cake-slice1" transform="translate(247.988 9.064)">
              <path id="Path_2121" data-name="Path 2121" d="M152.81,245.71a2.52,2.52,0,1,0-1.9-2.45,2.23,2.23,0,0,0,1.9,2.45Z" transform="translate(-136.498 -240.747)" fill="#fff"/>
              <path id="Path_2122" data-name="Path 2122" d="M155.71,242.07a4.62,4.62,0,0,1,.15,1.19c0,2.16-1.37,3.92-3.05,3.92-1.51,0-2.77-1.42-3-3.27l-12.71,4.67a1.14,1.14,0,0,0-.59,1.16h24A9.53,9.53,0,0,0,155.71,242.07Z" transform="translate(-136.498 -240.747)" fill="#fff"/>
              <path id="Path_2123" data-name="Path 2123" d="M160.18,251.21H136.82a.38.38,0,0,0-.32.41v2.6a.38.38,0,0,0,.32.41h23.36a.38.38,0,0,0,.32-.41v-2.6a.38.38,0,0,0-.32-.41Z" transform="translate(-136.498 -242.267)" fill="#fff"/>
              <path id="Path_2124" data-name="Path 2124" d="M136.5,263.77a1,1,0,0,0,.82,1.05h22.36a1,1,0,0,0,.82-1.05V256.1h-24Zm20.05-5.94a.71.71,0,0,1,1.17,0,1.26,1.26,0,0,1,0,1.48.71.71,0,0,1-1.17,0A1.26,1.26,0,0,1,156.55,257.83Zm-2.29-.31a1.08,1.08,0,1,1-.83,1.05,1,1,0,0,1,.83-1.05Zm-2.88,0a1.08,1.08,0,1,1-.82,1.05A1,1,0,0,1,151.38,257.52Zm-2.88,0a1.08,1.08,0,1,1-.82,1.05A1,1,0,0,1,148.5,257.52Zm-2.88,0a1.08,1.08,0,1,1-.82,1.05A1,1,0,0,1,145.62,257.52Zm-2.88,0a1.08,1.08,0,1,1-.82,1.05,1,1,0,0,1,.82-1.05Zm-3.45.31a.73.73,0,0,1,.58-.31.76.76,0,0,1,.58.31,1.26,1.26,0,0,1,0,1.48.76.76,0,0,1-.58.31.73.73,0,0,1-.58-.31A1.22,1.22,0,0,1,139.29,257.83Z" transform="translate(-136.498 -243.747)" fill="#fff"/>
            </g>
            <g id="tea-cup_3_" data-name="tea-cup (3)" transform="translate(343.99 11)">
              <path id="Path_2125" data-name="Path 2125" d="M257.27,306.66H234.72a.72.72,0,0,0-.73.67.71.71,0,0,0,.71.73h.3a2.1,2.1,0,0,0,2.11,2.11H254.9a2.1,2.1,0,0,0,2.11-2.11h.28a.7.7,0,0,0,.7-.73A.71.71,0,0,0,257.27,306.66Z" transform="translate(-233.99 -286.086)" fill="#fff"/>
              <path id="Path_2126" data-name="Path 2126" d="M242.24,292.27a.71.71,0,0,0,.71-.71.23.23,0,0,1,.23-.23h6.1a2.11,2.11,0,1,0,0-4.22h-2.35a.23.23,0,0,1-.23-.23.71.71,0,1,0-1.41,0,1.65,1.65,0,0,0,1.64,1.64h2.35a.7.7,0,0,1,0,1.4h-6.1a1.65,1.65,0,0,0-1.64,1.64.71.71,0,0,0,.7.71Z" transform="translate(-233.99 -286.086)" fill="#fff"/>
              <path id="Path_2127" data-name="Path 2127" d="M240,305.25h.25a4.36,4.36,0,0,0,3-1.06,4.53,4.53,0,0,0,1.06-3.11.54.54,0,0,0-.51-.51,4.47,4.47,0,0,0-3.12,1.05,3.73,3.73,0,0,0-.52.7,3,3,0,0,0-.52-.7,4.44,4.44,0,0,0-3.11-1.05.54.54,0,0,0-.51.51,4.53,4.53,0,0,0,1.06,3.11,4.36,4.36,0,0,0,3,1.06Z" transform="translate(-233.99 -286.086)" fill="#fff"/>
              <path id="Path_2128" data-name="Path 2128" d="M258,297.19a2.12,2.12,0,0,0-2.11-2.11h-1.17v1.41h1.17a.7.7,0,0,1,.7.7,3,3,0,0,1-1.87,2.78v.36a6.312,6.312,0,0,1-.11,1.15,4.43,4.43,0,0,0,3.39-4.29Z" transform="translate(-233.99 -286.086)" fill="#fff"/>
              <path id="Path_2129" data-name="Path 2129" d="M243.62,299.16h.23a2,2,0,0,1,1.83,1.84,5.82,5.82,0,0,1-1.47,4.18l-.06.07h4.19a4.92,4.92,0,0,0,4.92-4.92v-3.14H238.73v2.3a5,5,0,0,1,1.4.73,6,6,0,0,1,3.49-1.06Z" transform="translate(-233.99 -286.086)" fill="#fff"/>
              <path id="Path_2130" data-name="Path 2130" d="M253.26,294.38a.71.71,0,0,0-.7-.71H239.43a.7.7,0,0,0-.7.71v1.4h14.53Z" transform="translate(-233.99 -286.086)" fill="#fff"/>
            </g>
            <g id="croissant_3_" data-name="croissant (3)" transform="translate(40 10.614)">
              <g id="Group_39" data-name="Group 39">
                <g id="Group_38" data-name="Group 38">
                  <path id="Path_2136" data-name="Path 2136" d="M262.3,383.3a3.09,3.09,0,0,0-2.4-1.3h-5.6a2.945,2.945,0,0,0-2.4,1.3,3.743,3.743,0,0,0-.5,3.1l3.6,12a2.147,2.147,0,0,0,4.2,0l3.6-12A3.743,3.743,0,0,0,262.3,383.3Z" transform="translate(-240.948 -382)" fill="#fff"/>
                  <path id="Path_2137" data-name="Path 2137" d="M250.3,386.7a4.468,4.468,0,0,1,0-2.8,7.731,7.731,0,0,0-3.8,2.4,5.323,5.323,0,0,0,.1,7l3.6,4a6.146,6.146,0,0,0,3.7,1.6.349.349,0,0,0-.1-.2Z" transform="translate(-240.948 -382)" fill="#fff"/>
                  <path id="Path_2138" data-name="Path 2138" d="M249.5,398.2l-3.7-4a6.627,6.627,0,0,1-1.6-3.5,30.116,30.116,0,0,0-2.7,4.2,4.331,4.331,0,0,0,.1,4.4,4.16,4.16,0,0,0,3.5,2,3.194,3.194,0,0,0,1.4-.3l4.3-1.8c-.4-.3-.8-.6-1.3-1Z" transform="translate(-240.948 -382)" fill="#fff"/>
                  <path id="Path_2139" data-name="Path 2139" d="M272.5,394.8a18.773,18.773,0,0,0-2.7-4.2,6.627,6.627,0,0,1-1.6,3.5l-3.6,4h0a11.318,11.318,0,0,1-1.3,1l4.3,1.8a3.178,3.178,0,0,0,1.4.2,3.968,3.968,0,0,0,3.5-2A4.386,4.386,0,0,0,272.5,394.8Z" transform="translate(-240.948 -382)" fill="#fff"/>
                  <path id="Path_2140" data-name="Path 2140" d="M267.5,393.3a5.441,5.441,0,0,0,.1-7,7.314,7.314,0,0,0-3.8-2.4,4.468,4.468,0,0,1,0,2.8l-3.6,12a.349.349,0,0,1-.1.2,5.771,5.771,0,0,0,3.8-1.7Z" transform="translate(-240.948 -382)" fill="#fff"/>
                </g>
              </g>
            </g>
            <text id="Coffee" transform="translate(136 46.846)" fill="#fff" font-size="12" font-family="Roboto-Regular, Roboto" letter-spacing="0.032em"><tspan x="0" y="0">Coffee</tspan></text>
            <text id="Cakes" transform="translate(240 46.846)" fill="#fff" font-size="12" font-family="Roboto-Regular, Roboto" letter-spacing="0.032em"><tspan x="0" y="0">Cakes</tspan></text>
            <text id="Tea" transform="translate(344 46.846)" fill="#fff" font-size="12" font-family="Roboto-Regular, Roboto" letter-spacing="0.032em"><tspan x="0" y="0">Tea</tspan></text>
            <text id="Pastry" transform="translate(36 46.846)" fill="#fff" font-size="12" font-family="Roboto-Regular, Roboto" letter-spacing="0.032em"><tspan x="0" y="0">Pastry</tspan></text>
          </g>
          <g id="coffee-cup_1_2" data-name="coffee-cup (1)" transform="translate(147 10.001)">
            <path id="Path_2141" data-name="Path 2141" d="M7.757,6a.75.75,0,0,1-.492-1.316A.606.606,0,0,0,7.5,4.167a.693.693,0,0,0-.372-.518A2.172,2.172,0,0,1,6.009,1.975,2.1,2.1,0,0,1,6.751.184a.75.75,0,1,1,.984,1.132.606.606,0,0,0-.232.517.694.694,0,0,0,.373.518A2.173,2.173,0,0,1,8.991,4.025a2.1,2.1,0,0,1-.742,1.792A.755.755,0,0,1,7.757,6Z" fill="#fff"/>
            <path id="Path_2142" data-name="Path 2142" d="M12.757,6a.75.75,0,0,1-.492-1.316.606.606,0,0,0,.232-.517.694.694,0,0,0-.373-.518,2.173,2.173,0,0,1-1.115-1.674A2.1,2.1,0,0,1,11.751.183a.75.75,0,0,1,.983,1.133.606.606,0,0,0-.232.517.694.694,0,0,0,.373.518A2.173,2.173,0,0,1,13.99,4.025a2.1,2.1,0,0,1-.742,1.792A.751.751,0,0,1,12.757,6Z" fill="#fff"/>
            <path id="Path_2143" data-name="Path 2143" d="M17.25,24H2.75A2.752,2.752,0,0,1,0,21.25v-1a.75.75,0,0,1,.75-.75h18.5a.75.75,0,0,1,.75.75v1A2.752,2.752,0,0,1,17.25,24Z" fill="#fff"/>
            <path id="Path_2144" data-name="Path 2144" d="M3.792,18.5H16.219a8.872,8.872,0,0,0,1.435-1.767.768.768,0,0,0,.07-.1A9.046,9.046,0,0,0,19,12V8.25a.75.75,0,0,0-.75-.75H1.75A.75.75,0,0,0,1,8.25V12A8.969,8.969,0,0,0,3.792,18.5Z" fill="#fff"/>
            <path id="Path_2145" data-name="Path 2145" d="M20,9.25v2a2,2,0,0,1,2,2,2,2,0,0,1-2,2h-.563a9.99,9.99,0,0,1-.854,1.9c-.021.036-.046.069-.07.1H20a4,4,0,0,0,4-4A4,4,0,0,0,20,9.25Z" fill="#fff"/>
          </g>
        </g>
        <text id="Top" transform="translate(-2042 -680)" font-size="25" font-family="Roboto-Regular, Roboto"><tspan x="0" y="0">Top</tspan></text>
        <text id="Bottom" transform="translate(-2042 -394)" font-size="25" font-family="Roboto-Regular, Roboto"><tspan x="0" y="0">Bottom</tspan></text>
        <g id="Component_797_17" data-name="Component 797 – 17" transform="translate(-1283.5 -729)">
          <g id="Buttons_Contained_Enabled" data-name="Buttons / Contained / Enabled">
            <g transform="matrix(1, 0, 0, 1, -785.5, -28)" filter="url(#Rectangle_377)">
              <rect id="Rectangle_377-3" data-name="Rectangle 377" width="177" height="41" rx="4" transform="translate(785.5 28)" fill="#9c0538"/>
            </g>
            <text id="ADD_TO_CART" data-name="ADD TO CART" transform="translate(41.378 28)" fill="#fff" font-size="18" font-family="Roboto-Medium, Roboto" font-weight="500" letter-spacing="0.089em"><tspan x="0" y="0">ADD TO CART</tspan></text>
          </g>
          <g id="Icon_Add_Filled" data-name="Icon / Add / Filled" transform="translate(6.5 5.5)">
            <rect id="Box-13" data-name="Box" width="30" height="30" fill="none"/>
            <path id="_" data-name="+" d="M8.572,21V12H0V9H8.572V0h2.856V9H20v3H11.428v9Z" transform="translate(5 5)" fill="#fff"/>
          </g>
        </g>
        <g id="Buttons_Contained_Enabled-2" data-name="Buttons / Contained / Enabled" transform="translate(-1241 -660)">
          <g transform="matrix(1, 0, 0, 1, -828, -97)" filter="url(#Path_3462)">
            <path id="Path_3462-4" data-name="Path 3462" d="M4,0H88a4,4,0,0,1,4,4V37a4,4,0,0,1-4,4H4a4,4,0,0,1-4-4V4A4,4,0,0,1,4,0Z" transform="translate(828 97)" fill="#9c0538"/>
          </g>
          <text id="ADD_" data-name="ADD  " transform="translate(41.378 27.5)" fill="#fff" font-size="18" font-family="Roboto-Medium, Roboto" font-weight="500" letter-spacing="0.089em"><tspan x="0" y="0" xml:space="preserve">ADD  </tspan></text>
        </g>
        <g id="Buttons_Contained_Enabled-3" data-name="Buttons / Contained / Enabled" transform="translate(-1246 -588)">
          <g transform="matrix(1, 0, 0, 1, -823, -169)" filter="url(#Path_3462-2)">
            <path id="Path_3462-5" data-name="Path 3462" d="M4.464,0H98.2a4.251,4.251,0,0,1,4.464,4V37A4.251,4.251,0,0,1,98.2,41H4.464A4.251,4.251,0,0,1,0,37V4A4.251,4.251,0,0,1,4.464,0Z" transform="translate(823 169)" fill="#9c0538"/>
          </g>
          <text id="SIGN_UP" data-name="SIGN UP" transform="translate(11.496 27.5)" fill="#fff" font-size="18" font-family="Roboto-Medium, Roboto" font-weight="500" letter-spacing="0.089em"><tspan x="0" y="0">SIGN UP</tspan></text>
        </g>
        <path id="_2" data-name="+" d="M8.572,21V12H0V9H8.572V0h2.856V9H20v3H11.428v9Z" transform="translate(-1228 -650.5)" fill="#fff"/>
        <g id="Component_797_33" data-name="Component 797 – 33" transform="translate(-1323.942 -514)">
          <g id="Buttons_Contained_Enabled-4" data-name="Buttons / Contained / Enabled">
            <g transform="matrix(1, 0, 0, 1, -745.06, -243)" filter="url(#Rectangle_377-2)">
              <rect id="Rectangle_377-4" data-name="Rectangle 377" width="256" height="41" rx="4" transform="translate(745.06 243)" fill="#9c0538"/>
            </g>
            <text id="CONTINUE_TO_CHECKOUT" data-name="CONTINUE TO CHECKOUT" transform="translate(7.378 28)" fill="#fff" font-size="18" font-family="Roboto-Medium, Roboto" font-weight="500" letter-spacing="0.089em"><tspan x="0" y="0">CONTINUE TO CHECKOUT</tspan></text>
          </g>
        </g>
        <g id="Buttons_Contained_Enabled-5" data-name="Buttons / Contained / Enabled" transform="translate(-1283 -432)">
          <g transform="matrix(1, 0, 0, 1, -786, -325)" filter="url(#Path_3462-3)">
            <path id="Path_3462-6" data-name="Path 3462" d="M7.884,41H173.449c4.354,0,7.884-1.791,7.884-4V4c0-2.209-3.53-4-7.884-4H7.884C3.53,0,0,1.791,0,4V37C0,39.209,3.53,41,7.884,41Z" transform="translate(786 325)" fill="#9c0538"/>
          </g>
          <text id="MAKE_AN_ORDER" data-name="MAKE AN ORDER" transform="translate(11.496 27.5)" fill="#fff" font-size="18" font-family="Roboto-Medium, Roboto" font-weight="500" letter-spacing="0.089em"><tspan x="0" y="0">MAKE AN ORDER</tspan></text>
        </g>
      </g>
    </g>
  </g>
</svg>
