<?xml version="1.0" encoding="UTF-8" standalone="no"?>
<!-- Created with Inkscape (http://www.inkscape.org/) -->

<svg
   xmlns:dc="http://purl.org/dc/elements/1.1/"
   xmlns:cc="http://creativecommons.org/ns#"
   xmlns:rdf="http://www.w3.org/1999/02/22-rdf-syntax-ns#"
   xmlns:svg="http://www.w3.org/2000/svg"
   xmlns="http://www.w3.org/2000/svg"
   xmlns:sodipodi="http://sodipodi.sourceforge.net/DTD/sodipodi-0.dtd"
   xmlns:inkscape="http://www.inkscape.org/namespaces/inkscape"
   version="1.1"
   id="svg2994"
   width="228"
   height="243"
   viewBox="0 0 228 243"
   sodipodi:docname="icons 3.svg"
   inkscape:version="0.92.3 (2405546, 2018-03-11)">
  <metadata
     id="metadata3000">
    <rdf:RDF>
      <cc:Work
         rdf:about="">
        <dc:format>image/svg+xml</dc:format>
        <dc:type
           rdf:resource="http://purl.org/dc/dcmitype/StillImage" />
        <dc:title></dc:title>
      </cc:Work>
    </rdf:RDF>
  </metadata>
  <defs
     id="defs2998" />
  <sodipodi:namedview
     pagecolor="#ffffff"
     bordercolor="#666666"
     borderopacity="1"
     objecttolerance="10"
     gridtolerance="10"
     guidetolerance="10"
     inkscape:pageopacity="0"
     inkscape:pageshadow="2"
     inkscape:window-width="1366"
     inkscape:window-height="705"
     id="namedview2996"
     showgrid="false"
     inkscape:zoom="0.97119342"
     inkscape:cx="114"
     inkscape:cy="121.5"
     inkscape:window-x="-8"
     inkscape:window-y="-8"
     inkscape:window-maximized="1"
     inkscape:current-layer="svg2994" />
  <path
     style="fill:#d70e5b;fill-opacity:1"
     d="m 66.146765,237.92496 c -9.419818,-1.85208 -16.146798,-7.95938 -19.60835,-17.80204 -0.846652,-2.40739 -3.583496,-15.23239 -6.081875,-28.5 C 30.874921,140.73987 30.347795,138.5853 25.941726,132.29543 19.074775,122.49254 15.983879,108.26081 17.950368,95.5 21.130131,74.866086 37.497753,56.54059 60.917537,47.39315 64.812892,45.871679 68,44.295327 68,43.890145 c 0,-0.405182 1.172428,-2.130047 2.605397,-3.833032 4.518328,-5.369729 10.505468,-8.072604 23.646585,-10.675174 16.272628,-3.222758 24.832288,-7.281021 33.374718,-15.823452 3.55397,-3.553973 7.03868,-6.2403873 7.74379,-5.9698094 2.37438,0.911132 11.80748,16.4183024 15.50408,25.4873134 l 3.66659,8.995352 7.72565,3.358474 c 14.96312,6.504725 29.73006,17.189144 36.91318,26.708035 15.05678,19.952844 15.81045,46.747628 1.82383,64.841978 -2.62911,3.40126 -2.81257,4.48291 -5.43092,32.02017 -4.46696,46.97894 -5.15602,51.77643 -8.33022,57.99769 -2.11355,4.14244 -3.90663,6.1138 -7.27385,7.99704 -4.35212,2.43408 -5.1609,2.51653 -30.96883,3.15719 -36.67813,0.9105 -77.638705,0.79829 -82.853235,-0.22696 z M 83.991634,234.25 c -0.0046,-0.4125 -4.877494,-20.1 -10.828652,-43.75 l -10.820287,-43 -8.921347,-0.58449 C 47.098093,146.50124 43.262306,145.69446 40.25,144.14519 36.469263,142.2007 35.693684,142.17546 35.789383,144 c 0.149393,2.84823 13.723914,71.4554 14.697935,74.28504 2.900045,8.42493 9.279191,14.18384 17.496567,15.7954 4.89515,0.96001 16.01788,1.07783 16.007749,0.16956 z m 32.236596,-1.58504 c 1.66314,-2.61419 0.21221,-64.63368 -1.71338,-73.23741 -0.37582,-1.67921 -1.74797,-2.30906 -7.23164,-3.31946 -10.574611,-1.94845 -18.092058,-6.84803 -24.452433,-15.93715 l -1.629825,-2.32905 -4.158389,3.01232 c -2.287114,1.65677 -5.482328,3.3031 -7.100476,3.65851 C 68.323939,144.86812 67,145.80624 67,146.59742 c 0,2.47222 21.071986,85.78426 21.972286,86.87155 1.21331,1.46531 26.282674,0.7258 27.255944,-0.80401 z M 152,233.18389 c 0,-0.44887 2.7,-19.65662 6,-42.68389 3.3,-23.02727 6,-42.12853 6,-42.44723 0,-0.31871 -2.26521,-1.11755 -5.0338,-1.77521 -2.76859,-0.65766 -7.7392,-2.40986 -11.0458,-3.89377 l -6.012,-2.69802 -1.68011,2.40711 c -3.2315,4.62982 -8.77973,8.91847 -15.07369,11.65163 l -6.3454,2.75549 0.59315,6.5 c 0.32623,3.575 0.87868,21.0125 1.22767,38.75 l 0.63452,32.25 h 15.36773 C 145.08452,234 152,233.63275 152,233.18389 Z m 26.21623,-2.00851 c 6.78531,-4.19355 7.52875,-7.17226 11.32595,-45.37913 1.8747,-18.86294 3.6701,-36.19471 3.98978,-38.51505 l 0.58123,-4.21881 -4.8066,2.14523 c -3.15383,1.40758 -7.59026,2.29682 -12.90214,2.58609 l -8.09554,0.44088 -5.74691,40.6327 c -3.1608,22.34799 -5.99325,41.70164 -6.29433,43.00811 l -0.54743,2.37539 9.42706,-0.4123 c 7.55486,-0.33043 10.15033,-0.85932 13.06893,-2.66311 z m -55.71188,-80.83156 c 4.78696,-1.63108 13.27209,-8.90201 16.5879,-14.21421 l 1.47957,-2.37038 7.22079,3.63633 c 9.78429,4.92729 18.78561,6.93715 28.28004,6.31449 16.11743,-1.05699 25.84307,-10.28585 29.58207,-28.07102 5.29292,-25.176647 -10.25422,-49.213694 -41.8726,-64.738166 -3.69483,-1.814145 -6.95096,-3.065352 -7.23586,-2.780461 -0.28489,0.284891 -0.0447,4.387292 0.53378,9.116447 1.87396,15.32015 -1.74998,26.331762 -10.04193,30.51315 -7.12466,3.592759 -13.34034,2.912947 -18.79484,-2.055603 l -2.25674,-2.055677 -2.74326,2.627592 c -5.92704,5.677109 -13.67456,7.083059 -20.91531,3.79552 -4.477558,-2.032956 -6.807816,-4.877577 -8.864284,-10.820913 L 92.169271,75.5 86.753952,75.834165 C 74.38348,76.597514 65.078592,67.998168 65.021962,55.75 65.00969,53.095686 64.534057,51 63.943913,51 c -1.66333,0 -12.45613,5.568315 -17.442838,8.999261 -8.131869,5.594872 -15.390013,13.978337 -19.79419,22.863127 -3.84957,7.765954 -4.17339,9.063686 -4.540153,18.195022 -0.317295,7.89974 0.0122,11.17304 1.676151,16.65123 2.637619,8.68378 7.164894,15.51261 12.900525,19.45883 11.978386,8.24135 26.882677,7.76571 39.78088,-1.26951 l 5.907854,-4.13846 1.533929,2.16744 c 6.751309,9.53961 9.279005,12.03943 15.130113,14.96326 7.312156,3.65393 15.464796,4.1602 23.408166,1.45362 z M 108.02662,131.25 c 0.0372,-2.44814 9.92553,-8.5346 11.60337,-7.14212 1.85691,1.5411 0.79573,3.08005 -4.2353,6.14212 -5.22038,3.17732 -7.4057,3.47391 -7.36807,1 z m 48.51234,-4.18696 C 155.69052,125.69024 161.18561,115 162.7397,115 c 2.47042,0 2.40404,2.78283 -0.1884,7.89877 -2.42088,4.77738 -4.67046,6.33548 -6.01234,4.16427 z m 29.14854,-3.70887 C 184.14702,121.81368 185.0401,119 187.06955,119 c 1.55552,0 1.99018,0.5394 1.75,2.17167 -0.33186,2.2553 -1.9392,3.37534 -3.13205,2.1825 z M 55.25,118.80122 c -3.718558,-1.46551 -5.25,-2.6134 -5.25,-3.93514 0,-2.47918 1.84114,-2.35336 8.471487,0.57889 3.286319,1.45337 5.528513,3.07564 5.528513,4 0,2.04854 -2.359021,1.87498 -8.75,-0.64375 z m 35,0.48117 C 89.5625,119.03541 89,118.41391 89,117.90128 89,116.11351 96.293315,106 97.582563,106 c 2.666587,0 2.489747,2.21222 -0.556279,6.95904 -3.612919,5.63025 -5.028526,6.95123 -6.776284,6.32335 z M 131.70517,111.75 c -6.29653,-8.53858 -7.08534,-10.75 -3.8345,-10.75 1.98416,0 10.42629,11.7105 9.51043,13.19239 -1.04353,1.68846 -3.36706,0.68862 -5.67593,-2.44239 z m 54.12393,-10.95007 c -0.35366,-7.947759 -0.84151,-10.083274 -3.35532,-14.687594 -1.61782,-2.963215 -5.05516,-7.169938 -7.63854,-9.348274 C 170.39749,73.022097 169.35362,70 172.49884,70 c 2.65036,0 11.43565,9.16854 14.0202,14.63183 4.55878,9.636473 5.34277,24.38594 1.33721,25.15734 -1.3681,0.26347 -1.67623,-1.1029 -2.02715,-8.98924 z M 35.666667,98.333333 C 34.102524,96.769191 35.304465,95.013116 40.002675,91.998283 44.65417,89.013427 48,88.571532 48,90.942048 48,91.884931 38.225344,99 36.930015,99 36.60184,99 36.033333,98.7 35.666667,98.333333 Z M 66.97023,97.466462 C 65.160466,95.280897 67.731584,94.142894 75.012796,93.90674 81.811102,93.686248 82.5,93.840384 82.5,95.581952 82.5,97.252969 81.55505,97.564396 75.163027,98 70.708508,98.303567 67.48983,98.093957 66.97023,97.466462 Z M 153.18853,95.25 c 0.35856,-1.872078 10.29322,-5.66285 12.56062,-4.792764 2.96957,1.139529 1.02605,3.466198 -4.15306,4.971806 -7.05528,2.051025 -8.82746,2.013286 -8.40756,-0.179042 z M 52.15425,76.864076 c -4.785027,-3.670974 -5.186179,-4.260718 -3.824459,-5.622439 1.361721,-1.36172 2.058788,-1.126731 6.645622,2.240314 4.739202,3.478895 6.146409,6.340667 3.524587,7.167794 -0.55,0.173513 -3.405587,-1.530038 -6.34575,-3.785669 z m 65.53193,8.185697 c 4.69745,-2.864243 5.51717,-5.003165 4.22552,-11.025902 -1.36726,-6.375312 -0.0806,-12.294573 5.11013,-23.509868 3.4911,-7.542941 5.1181,-12.008945 6.28942,-17.264003 0.80989,-3.633531 -0.74815,-2.588188 -2.98091,2 -3.52749,7.248771 -10.02951,14.493554 -18.09259,20.159407 -9.36112,6.57797 -14.063495,11.302647 -15.112641,15.184304 -1.236134,4.573482 0.398277,9.565597 4.307351,13.156289 2.95985,2.718779 4.31697,3.249389 8.30285,3.246262 2.95221,-0.0023 5.97671,-0.742759 7.95087,-1.946489 z M 146,83.149869 c 1.375,-1.00487 3.58,-3.760918 4.9,-6.12455 4.39103,-7.862719 2.68403,-26.058872 -3.95494,-42.158539 -3.12851,-7.586719 -8.10575,-16.864175 -9.04827,-16.865763 -0.33176,-5.59e-4 -0.39094,2.208061 -0.13151,4.908045 0.74913,7.796337 -1.42596,17.160553 -6.90004,29.706148 -4.70026,10.772139 -5.05121,12.123234 -4.67671,18.004662 0.46321,7.274498 2.54466,10.88401 7.88255,13.66936 3.92347,2.047293 8.11651,1.646805 11.92892,-1.139363 z M 88.886759,70.889631 c 2.05601,-0.716729 3.850408,-2.400663 5.061594,-4.75 2.429875,-4.713228 6.807757,-8.751807 15.902177,-14.669709 7.75544,-5.0466 13.45993,-11.348344 17.12354,-18.916361 2.31669,-4.785636 5.24205,-14.670774 4.54723,-15.365598 -0.22278,-0.222773 -2.5687,1.393351 -5.21317,3.591386 -8.11877,6.748167 -14.62792,9.399504 -29.889482,12.174708 -5.544744,1.008271 -11.87544,2.748495 -14.068214,3.867165 -5.101258,2.602468 -10.761863,8.865359 -12.343021,13.656316 -2.48075,7.516746 1.324192,16.406403 8.397124,19.61858 4.800398,2.180105 6.200584,2.2861 10.482222,0.793513 z"
     id="path3547"
     inkscape:connector-curvature="0" />
  <path
     style="fill:#d70e5b;fill-opacity:1;stroke-width:1.02966106"
     d="m 88.985937,231.00445 c -1.17485,-3.13204 -13.623429,-51.27742 -17.966927,-69.48781 -3.739167,-15.6767 -3.772497,-15.36687 1.897515,-17.63901 1.698941,-0.68082 4.208495,-2.09274 5.576786,-3.1376 l 2.487802,-1.89975 3.961214,5.01131 c 4.808033,6.08262 12.68566,10.78586 20.741153,12.38325 3.29767,0.65393 6.61039,1.80358 7.3616,2.55479 1.7895,1.78951 2.78896,18.14653 2.97311,48.65787 0.12196,20.2068 -0.0932,24.02563 -1.40039,24.85832 -0.84947,0.54111 -6.76862,0.99093 -13.15367,0.9996 -11.102108,0.0151 -11.647124,-0.0854 -12.478193,-2.30097 z"
     id="path3549"
     inkscape:connector-curvature="0" />
  <path
     style="fill:#d70e5b;fill-opacity:1;stroke-width:1.02966106"
     d="m 121.427,209.8964 c -0.35765,-12.88364 -0.91002,-30.14333 -1.22747,-38.35487 l -0.5772,-14.93009 5.99244,-2.55273 c 3.53177,-1.50451 8.25995,-4.74577 11.51449,-7.89342 l 5.52206,-5.34068 4.57388,1.9606 c 2.51564,1.07833 7.09676,2.69402 10.18028,3.59042 3.91618,1.13846 5.60621,2.15103 5.60579,3.35866 -3.2e-4,0.95087 -2.54549,19.56772 -5.65592,41.37079 -3.11044,21.80308 -5.65858,40.22114 -5.66255,40.92903 -0.005,0.96965 -3.65832,1.28708 -14.81136,1.28708 h -14.80415 z"
     id="path3551"
     inkscape:connector-curvature="0" />
  <path
     style="fill:#d70e5b;fill-opacity:1;stroke-width:1.02966106"
     d="m 156.89604,232.16323 c 0.0342,-0.77891 2.7136,-19.71842 5.95428,-42.08781 l 5.89215,-40.67161 7.17389,-0.86994 c 3.94564,-0.47848 9.2217,-1.51966 11.72457,-2.31374 2.50286,-0.79408 4.7631,-1.23135 5.02274,-0.97171 0.54359,0.54359 -4.34995,49.35215 -6.55093,65.33959 -2.50741,18.21327 -5.76109,21.75705 -20.69567,22.54092 -6.83533,0.35876 -8.57052,0.16211 -8.52103,-0.9657 z"
     id="path3553"
     inkscape:connector-curvature="0" />
  <path
     style="fill:#d70e5b;fill-opacity:1;stroke-width:1.02966106"
     d="m 67.495972,233.3428 c -1.848677,-0.43849 -5.182334,-2.0024 -7.408126,-3.47536 -7.343233,-4.85952 -8.551578,-8.29175 -15.821638,-44.94032 -8.313427,-41.90822 -8.189959,-41.18644 -7.045391,-41.18644 0.522814,0 2.513745,0.65313 4.42429,1.45141 1.910544,0.79828 7.251788,1.78098 11.869429,2.18378 l 8.395713,0.73237 10.7824,43.1213 10.7824,43.12131 -6.308923,-0.1054 c -3.469907,-0.058 -7.821477,-0.46416 -9.670154,-0.90265 z"
     id="path3555"
     inkscape:connector-curvature="0" />
  <path
     style="fill:#d70e5b;fill-opacity:1;stroke-width:1.02966106"
     d="m 133.4591,83.085443 c -7.8586,-4.918212 -8.62498,-14.528177 -2.35922,-29.583276 5.2011,-12.496981 7.19145,-20.14937 7.23226,-27.806301 l 0.0321,-6.029341 2.43885,3.968369 c 6.45577,10.504484 11.93594,29.717984 11.88952,41.684709 -0.0542,13.96509 -10.25335,23.385982 -19.23354,17.76584 z"
     id="path3557"
     inkscape:connector-curvature="0" />
  <path
     style="fill:#d70e5b;fill-opacity:1;stroke-width:1.02966106"
     d="m 102.49031,83.539727 c -1.8377,-1.546318 -3.824085,-4.575348 -4.516914,-6.887806 -1.840323,-6.142449 0.620317,-9.766075 13.516354,-19.904672 10.46407,-8.226635 13.37345,-11.256845 18.28341,-19.042708 3.82135,-6.059625 2.63536,-1.515744 -3.04429,11.663556 -5.20249,12.0721 -5.3936,12.850133 -5.40572,22.007353 -0.0155,11.737871 -1.41294,13.751842 -10.03813,14.46711 -4.8403,0.401395 -5.91551,0.119859 -8.79471,-2.302833 z"
     id="path3559"
     inkscape:connector-curvature="0" />
  <path
     style="fill:#d70e5b;fill-opacity:1;stroke-width:1.02966106"
     d="M 80.639511,70.507631 C 72.008524,67.065989 67.657638,56.160626 71.754623,48.23793 c 1.812674,-3.505324 9.042761,-10.273873 12.284586,-11.50039 1.244601,-0.470884 7.823079,-2.101606 14.618842,-3.623828 14.395509,-3.224532 19.504639,-5.296387 26.981669,-10.9416 2.99896,-2.264234 5.45265,-3.855489 5.45265,-3.536122 0,2.024893 -4.63791,13.748631 -6.85524,17.328739 -3.8088,6.149678 -7.16352,9.527537 -14.76764,14.869521 -8.4222,5.916695 -14.146593,11.24238 -16.112998,14.990721 -0.840407,1.601974 -3.104073,3.571201 -5.030368,4.376059 -4.019313,1.679376 -4.223524,1.687522 -7.686613,0.306601 z"
     id="path3561"
     inkscape:connector-curvature="0" />
</svg>
