<?xml version="1.0" encoding="UTF-8" standalone="no"?>
<!-- Created with Inkscape (http://www.inkscape.org/) -->

<svg
   xmlns:dc="http://purl.org/dc/elements/1.1/"
   xmlns:cc="http://creativecommons.org/ns#"
   xmlns:rdf="http://www.w3.org/1999/02/22-rdf-syntax-ns#"
   xmlns:svg="http://www.w3.org/2000/svg"
   xmlns="http://www.w3.org/2000/svg"
   xmlns:sodipodi="http://sodipodi.sourceforge.net/DTD/sodipodi-0.dtd"
   xmlns:inkscape="http://www.inkscape.org/namespaces/inkscape"
   version="1.1"
   id="svg2415"
   width="218"
   height="276"
   viewBox="0 0 218 276"
   sodipodi:docname="icons1.svg"
   inkscape:version="0.92.3 (2405546, 2018-03-11)">
  <metadata
     id="metadata2421">
    <rdf:RDF>
      <cc:Work
         rdf:about="">
        <dc:format>image/svg+xml</dc:format>
        <dc:type
           rdf:resource="http://purl.org/dc/dcmitype/StillImage" />
        <dc:title />
      </cc:Work>
    </rdf:RDF>
  </metadata>
  <defs
     id="defs2419" />
  <sodipodi:namedview
     pagecolor="#ffffff"
     bordercolor="#666666"
     borderopacity="1"
     objecttolerance="10"
     gridtolerance="10"
     guidetolerance="10"
     inkscape:pageopacity="0"
     inkscape:pageshadow="2"
     inkscape:window-width="1366"
     inkscape:window-height="705"
     id="namedview2417"
     showgrid="false"
     inkscape:zoom="1.7101449"
     inkscape:cx="109"
     inkscape:cy="138"
     inkscape:window-x="-8"
     inkscape:window-y="-8"
     inkscape:window-maximized="1"
     inkscape:current-layer="svg2415" />
  <path
     style="fill:#93215a;fill-opacity:1"
     d="m 79.161017,273.80908 c -16.232426,-0.76991 -22.374006,-1.85569 -28.835859,-5.09795 -8.22371,-4.12628 -11.78816,-9.24785 -13.51432,-19.41804 -0.55503,-3.2701 -3.37768,-23.94563 -6.27255,-45.94563 l -5.26341,-40 -3.30217,-3.92443 c -9.58042,-11.38579 -10.64739,-26.61475 -2.80253,-40.00099 3.36991,-5.75031 12.79131,-14.59833 19.69011,-18.49177 l 5.6068,-3.164283 -1.61001,-3.20926 c -0.95156,-1.89676 -1.56891,-5.45863 -1.50953,-8.70927 0.0825,-4.518443 -0.33019,-5.959595 -2.31272,-8.075276 -3.32069,-3.543715 -4.58407,-8.430184 -3.35739,-12.985707 2.68634,-9.976324 14.95962,-13.231526 22.463947,-5.958044 l 3.035339,2.941967 5.242147,-1.53669 c 3.614803,-1.059649 5.245179,-2.0566 5.251915,-3.21147 0.01972,-3.380389 4.874311,-11.786823 9.122928,-15.797674 5.500344,-5.192527 10.650282,-8.092489 23.867306,-13.439824 12.57308,-5.086808 19.42976,-9.282633 25.26744,-15.461967 l 4.34464,-4.5989159 6.10886,4.4970879 c 3.35988,2.473399 8.26488,6.56291 10.9,9.087802 4.42964,4.244337 5.0132,4.5133 7.73432,3.564712 7.5454,-2.630341 14.9866,-0.04004 17.97478,6.257069 2.09729,4.41972 2.11565,7.975456 0.0635,12.300039 -1.57794,3.325253 -6.79193,7.400358 -9.51157,7.433973 -1.84957,0.02286 -6.27352,11.330677 -4.6496,11.884578 2.95572,1.00816 11.28905,10.083402 13.40491,14.598341 2.53407,5.407319 3.07044,12.508369 1.29711,17.172559 -0.90598,2.38291 -0.76321,3.02932 0.95304,4.3151 1.11026,0.83179 4.0467,3.013513 6.52542,4.848283 5.0086,3.7074 10.62908,11.57256 12.59498,17.62509 2.1801,6.712 1.5201,17.4633 -1.51675,24.70782 -2.34145,5.58561 -2.63994,7.5676 -2.53483,16.83115 0.17825,15.71013 -4.76178,57.13933 -10.0162,84 -3.60378,18.42257 -8.18451,24.96025 -18.9146,26.99517 -5.87304,1.1138 -61.79785,1.09186 -85.525453,-0.0335 z m 43.525053,-4.71162 c 0.42566,-29.74097 -0.31909,-108.93089 -1.03707,-110.27245 -0.52947,-0.98934 -2.65388,-2.84402 -4.72091,-4.12151 -7.43224,-4.59338 -18.449333,-2.52656 -23.638089,4.43454 l -2.080077,2.79057 2.193244,19.20943 c 6.876122,60.22415 10.530892,88.262 11.593182,88.93783 0.64057,0.40753 4.87717,0.74786 9.41467,0.75628 7.18687,0.0133 8.25323,-0.2102 8.27505,-1.73469 z m 20.90649,-2 c 1.61118,-5.99026 6.81062,-37.99407 7.59516,-46.75 0.39424,-4.4 0.90301,-8.32041 1.1306,-8.71203 0.22759,-0.39161 0.6357,-4.66661 0.90691,-9.5 2.4566,-43.77971 2.33269,-46.99897 -1.9161,-49.78288 -5.8044,-3.80319 -15.16122,-2.56528 -20.56836,2.7212 l -3.07975,3.01102 v 56.38135 56.38134 h 7.46146 7.46145 z m 25.15037,1.12917 c 6.41754,-3.75804 7.7203,-7.19443 12.38259,-32.66253 4.08889,-22.3359 7.59957,-50.19177 8.23774,-65.36344 l 0.59507,-14.1468 -2.5337,-2.5337 c -3.1573,-3.1573 -9.61658,-4.97127 -14.52843,-4.08003 -4.89841,0.8888 -10.93363,3.96583 -12.08325,6.1606 -0.50321,0.9607 -1.22631,8.04673 -1.60689,15.74673 -0.38057,7.7 -1.11707,19.175 -1.63665,25.5 -0.51959,6.325 -1.17443,14.425 -1.4552,18 -0.69223,8.81398 -4.18602,32.37905 -6.5235,44 -1.05098,5.225 -1.9151,10.12492 -1.92028,10.88871 -0.0147,2.16607 16.86002,0.95725 21.0725,-1.50954 z m 7.41809,-61.37917 c -0.83704,-1.35436 0.29243,-3 2.05902,-3 0.79254,0 1.44098,0.9 1.44098,2 0,2.07031 -2.41251,2.7596 -3.5,1 z m 1.5,-13.21645 c 0,-6.45893 2.33945,-30.40848 3.0444,-31.16633 0.45164,-0.48553 1.43056,-0.64894 2.17537,-0.36313 1.12982,0.43355 1.1533,2.81672 0.14168,14.38279 -0.66689,7.62471 -1.24604,15.10062 -1.28699,16.61312 -0.0961,3.54782 -4.07446,4.06878 -4.07446,0.53355 z M 73.822912,267.78807 c -9.8233,-41.85545 -15.161895,-76.36734 -15.161895,-98.01561 0,-8.5075 -1.084224,-11.39613 -5.225074,-13.9208 -7.134875,-4.35013 -18.627105,-1.64147 -22.045635,5.19606 -1.74205,3.48434 -1.68057,4.21931 3.79932,45.4207 6.15411,46.27061 6.00178,45.37434 8.59065,50.54483 2.99045,5.97252 10.062655,9.68402 22.455742,11.78478 6.203024,1.05148 8.01412,0.81039 7.586892,-1.00996 z m 25.425225,-1.69061 c -0.32378,-2.0625 -3.068032,-25.125 -6.098348,-51.25 -3.030316,-26.125 -5.752788,-49.38083 -6.049937,-51.67962 -0.708805,-5.48341 -3.620424,-9.02292 -8.504047,-10.33794 -3.310838,-0.89152 -4.678049,-0.74725 -8.36204,0.88236 -7.311363,3.23416 -7.983205,5.11159 -7.220675,20.17788 1.245912,24.61711 5.631099,53.61342 12.281192,81.20732 l 3.55473,14.75 h 10.4939 10.493905 z M 30.293418,154.71913 c 4.15841,-4.03049 11.36385,-5.9878 17.69126,-4.80571 4.92488,0.92007 10.119972,3.2248 11.196947,4.96738 0.387545,0.62707 2.188094,-0.34432 4.485546,-2.41993 6.815531,-6.15743 18.703596,-5.61174 23.983756,1.10089 l 2.011415,2.5571 2.563593,-2.56359 c 7.018552,-7.01855 20.536565,-7.44358 29.312475,-0.92165 3.00851,2.23582 3.47694,2.33207 4.28884,0.88129 1.48131,-2.64695 9.1437,-6.61113 14.08886,-7.28894 6.27958,-0.86071 11.10595,0.21296 14.75332,3.28202 2.76123,2.32342 3.23812,2.43126 4.77944,1.0808 6.08885,-5.33491 15.90103,-6.89856 24.66526,-3.93059 6.99957,2.37037 7.63812,1.96028 9.61805,-6.17683 2.86249,-11.76427 -0.94118,-23.73536 -10.18127,-32.043 -14.06314,-12.643973 -38.55514,-18.982713 -72.88989,-18.864523 -26.682932,0.0919 -49.205058,4.68881 -66.500002,13.573233 -10.86674,5.58225 -20.33504,14.95167 -23.44519,23.20038 -2.70326,7.16954 -2.99862,16.32784 -0.70333,21.80801 1.73927,4.15259 5.408,9.69199 6.41901,9.69199 0.34886,0 2.08672,-1.40775 3.86191,-3.12833 z m 55.786264,-10.02068 c -4.847538,-1.29122 -6.918665,-4.29749 -6.918665,-10.04256 0,-4.21836 0.429874,-5.35136 2.805764,-7.39501 3.920915,-3.37263 10.826157,-3.37241 14.199023,4.6e-4 7.875126,7.87512 0.684706,20.30608 -10.086122,17.43711 z m 7.667993,-5.93765 c 3.637392,-3.63739 0.612664,-9.91334 -4.777788,-9.91334 -2.838987,0 -6.30887,3.3 -6.30887,6 0,2.77182 3.497191,6 6.5,6 1.375,0 3.438996,-0.939 4.586658,-2.08666 z m 46.975005,-0.74061 c -12.29875,-6.59589 -7.29582,-25.15688 6.78405,-25.16899 7.79424,-0.007 13.22783,5.24157 13.33323,12.8785 0.14944,10.82804 -10.59943,17.39497 -20.11728,12.29049 z m 10.95836,-3.68308 c 5.83152,-3.0156 6.79373,-9.82975 2.0569,-14.56657 -4.50754,-4.50755 -11.73906,-3.4109 -14.65192,2.22195 -2.19786,4.2502 -1.72463,6.75534 1.975,10.45497 3.73654,3.73654 6.20066,4.17499 10.62002,1.88965 z M 49.959568,128.88794 c -9.89118,-6.031 -7.41974,-21.04585 3.968909,-24.1125 14.231681,-3.83219 22.920372,15.39352 10.843258,23.99318 -3.777443,2.68978 -10.507567,2.74399 -14.812167,0.11932 z m 11.75684,-3.07012 c 2.869939,-1.53595 5.221236,-6.72675 4.451855,-9.82806 -1.842987,-7.42895 -10.130656,-9.67274 -15.584165,-4.21922 -3.10233,3.10232 -3.62714,5.83169 -1.80604,9.39266 2.56262,5.01095 8.369273,7.09991 12.93835,4.65462 z m 114.944612,-0.97036 c 0,-1.33333 0.66667,-2 2,-2 1.33333,0 2,0.66667 2,2 0,1.33333 -0.66667,2 -2,2 -1.33333,0 -2,-0.66667 -2,-2 z m -4.25909,-10.54167 c -1.2325,-1.91723 -3.94345,-4.24792 -6.02433,-5.1793 -4.51525,-2.02097 -4.71893,-4.89271 -0.32461,-4.57669 4.91371,0.35336 9.38159,4.37401 11.03371,9.92924 1.14348,3.84497 -2.18067,3.72204 -4.68477,-0.17325 z m -59.42954,-2.41005 c -6.20714,-3.78475 -6.1375,-13.495203 0.12621,-17.599343 3.70874,-2.43006 10.33758,-1.41165 13.31086,2.04499 4.46779,5.194123 2.28233,14.253893 -3.96365,16.431253 -4.29116,1.4959 -5.81296,1.35504 -9.47342,-0.8769 z m 9.05377,-4.12086 c 1.55363,-1.22208 2.63486,-3.06869 2.63486,-4.5 0,-2.94053 -3.25501,-6.427423 -6,-6.427423 -2.7,0 -6,3.469883 -6,6.308873 0,3.33964 2.61058,6.16241 6.11514,6.61218 0.33833,0.0434 1.80083,-0.85371 3.25,-1.99363 z m -65.690857,-14.364713 6.174287,-1.84851 -1.86239,-2.6071 c -3.33284,-4.66554 -2.961626,-10.285502 0.936894,-14.184022 4.170353,-4.170353 10.033936,-4.11991 14.276665,0.122819 2.775437,2.775437 3.002943,3.492921 2.562158,8.080263 -0.455131,4.73663 -0.3589,5.00085 1.627181,4.46776 1.161005,-0.31164 3.312664,-0.57275 4.781464,-0.58026 2.144126,-0.011 2.799258,-0.59969 3.323511,-2.9866 0.904786,-4.11946 5.406074,-8.629362 9.832834,-9.85165 6.530023,-1.803024 13.684873,1.449674 15.749783,7.160068 l 1.22447,3.386212 12.49204,1.14928 c 15.32538,1.40995 30.73292,4.46484 38.68208,7.66957 3.47996,1.40296 6.34599,2.03821 6.86303,1.52117 1.51162,-1.51162 1.95513,-9.64262 0.72866,-13.358841 -1.1071,-3.354539 -8.43036,-12.702868 -9.95114,-12.702868 -0.39281,0 -0.53728,1.51556 -0.32102,3.367912 0.44939,3.849387 -1.88688,9.075819 -4.7394,10.602447 -6.81144,3.64537 -16.06389,-1.640782 -16.05165,-9.170699 0.005,-3.149675 3.40967,-8.478707 5.92726,-9.277761 11.41517,-3.623034 -24.30282,-6.796397 -51.867794,-4.608193 -24.215634,1.922322 -35.541184,5.298995 -44.676899,13.320259 -3.878799,3.405631 -7.327049,9.718434 -7.364349,13.482104 -0.0297,3.00096 3.1274,9.43258 4.4297,9.02403 0.57658,-0.18088 3.826768,-1.16071 7.222625,-2.17739 z m 16.496973,-7.2177 c 2.400012,-2.17198 2.324547,-5.849203 -0.171259,-8.345009 -5.541368,-5.541368 -13.60724,2.356563 -8.345012,8.171259 2.060668,2.27701 6.101105,2.35945 8.516271,0.17375 z m 34.078744,-1.33632 c 4.44133,-0.0103 4.65129,-0.83467 1.11364,-4.372325 -3.53021,-3.530204 -9.021353,-3.609699 -12.71762,-0.184113 -1.455313,1.348738 -2.646023,3.211418 -2.646023,4.139288 0,1.44857 0.742113,1.5979 5.25,1.05644 2.887503,-0.34683 6.937503,-0.63451 9.000003,-0.63929 z m 50.71104,-7.19725 c 2.4429,-2.62214 2.56918,-4.609425 0.48226,-7.588933 -2.7534,-3.93103 -9.42818,-2.474133 -10.85984,2.370366 -0.83864,2.837801 2.83192,7.407128 5.95017,7.407128 1.31365,0 3.30599,-0.984853 4.42741,-2.188561 z M 53.559552,65.786182 56.958087,63.499737 54.253788,61.173598 c -3.5507,-3.054184 -7.68623,-2.959827 -11.51605,0.262754 -2.41164,2.029266 -3.07672,3.386238 -3.07672,6.277493 0,2.02873 0.73402,4.736569 1.63117,6.01742 l 1.63117,2.328819 3.61883,-3.993728 c 1.99035,-2.196551 5.14817,-5.022629 7.017364,-6.280174 z M 159.66102,56.273616 c 2.36675,-4.616998 1.7481,-13.024883 -1.41774,-19.267753 -2.81614,-5.553299 -12.32065,-15.651437 -19.20975,-20.409533 l -3.98327,-2.751128 -4.91981,4.58155 c -4.88242,4.546723 -11.90422,8.300002 -30.793533,16.459695 -11.363587,4.908778 -19.500065,11.565045 -22.109865,18.087576 -0.90735,2.267692 -1.490907,4.281897 -1.296792,4.476011 0.194114,0.194114 4.150445,-0.08364 8.791846,-0.617231 4.641401,-0.533592 10.576411,-0.973582 13.188911,-0.977756 5.098243,-0.0081 5.497173,-0.43565 3.218203,-3.448719 -2.117153,-2.799122 -1.839153,-8.817561 0.54744,-11.85162 5.27522,-6.706363 15.14862,-5.071037 17.92827,2.969451 1.46162,4.227917 1.42045,4.480942 -1.69678,10.428183 -0.17438,0.332686 5.43618,0.868087 12.46791,1.18978 8.19844,0.375068 15.11679,1.281104 19.28496,2.52558 3.575,1.067377 6.95,1.848747 7.5,1.736378 0.55,-0.112368 1.675,-1.521077 2.5,-3.130464 z M 146.25879,45.11189 c -0.32878,-0.328771 -0.59777,-1.890692 -0.59777,-3.470937 0,-1.580244 -0.83753,-4.542744 -1.86119,-6.583333 -1.9697,-3.926465 -1.83903,-6.210162 0.35532,-6.210162 1.90268,0 5.50587,7.989728 5.50587,12.208736 0,3.319589 -1.88787,5.57006 -3.40223,4.055696 z m -31.65283,5.07844 c 3.39567,-4.3169 0.66324,-9.342872 -5.07937,-9.342872 -2.94028,0 -5.86557,3.103298 -5.86557,6.222506 0,2.552352 3.58795,5.777494 6.42742,5.777494 1.43646,0 3.28067,-1.084735 4.51752,-2.657128 z m 56.23928,-6.216168 c 2.53952,-2.269058 3.21578,-3.662617 3.21578,-6.626704 0,-6.355363 -8.26048,-11.778749 -13.18302,-8.655261 -1.00098,0.635146 -0.72819,2.005725 1.2409,6.234687 1.38816,2.981316 2.8031,6.883074 3.14431,8.670574 0.76073,3.985187 1.48847,4.034299 5.58203,0.376704 z"
     id="path2984"
     inkscape:connector-curvature="0" />
  <path
     style="fill:#93215a;fill-opacity:1;stroke-width:1.16949153"
     d="m 150.82329,269.89628 c -2.18016,-0.31989 -2.60142,-0.93076 -2.07854,-3.01409 3.63757,-14.49325 8.26295,-51.45536 10.04003,-80.23134 1.94652,-31.51994 1.80639,-30.82918 6.8217,-33.62668 7.45749,-4.15971 15.16751,-3.87782 20.33985,0.74367 l 3.77306,3.37123 -1.37348,18.01916 c -2.23827,29.36456 -9.49288,74.22136 -13.70705,84.75361 -1.07479,2.68618 -3.3441,5.51184 -5.40365,6.72845 -3.69657,2.18362 -13.68375,3.94977 -18.41192,3.25599 z m 28.83686,-64.3328 c 0.2429,-1.6507 -0.24467,-2.53975 -1.39284,-2.53975 -2.27419,0 -3.47013,1.95904 -2.59236,4.24648 0.95234,2.48177 3.53141,1.37724 3.9852,-1.70673 z m 3.10906,-18.03551 c 1.5068,-16.8415 1.33927,-26.02119 -0.4749,-26.02119 -2.38333,0 -3.44352,5.07881 -4.33327,20.75847 -0.75797,13.35723 -0.71225,13.74153 1.6349,13.74153 2.1481,0 2.49841,-0.93601 3.17327,-8.47881 z"
     id="path825"
     inkscape:connector-curvature="0" />
  <path
     style="fill:#93215a;fill-opacity:1;stroke-width:1.16949153"
     d="m 128.41356,214.15049 v -56.70374 l 4.38559,-2.83339 c 6.05737,-3.91346 10.88494,-4.70873 15.88972,-2.6176 5.48645,2.29238 5.98545,5.28401 4.97859,29.8475 -0.88673,21.63277 -4.03921,48.89032 -8.36029,72.28632 -1.57284,8.51595 -2.85971,15.76281 -2.85971,16.1041 0,0.34131 -3.15763,0.62056 -7.01695,0.62056 h -7.01695 z"
     id="path827"
     inkscape:connector-curvature="0" />
  <path
     style="fill:#93215a;fill-opacity:1;stroke-width:1.16949153"
     d="m 110.12812,269.91642 c -4.31227,-0.3148 -4.91128,-0.72796 -5.5283,-3.81309 -0.74895,-3.74476 -7.600299,-58.76722 -10.80931,-86.80845 l -1.979411,-17.29665 3.341649,-3.48793 c 6.309392,-6.58558 16.816702,-7.19395 23.768932,-1.37621 2.376,1.98828 2.44796,3.26479 3.22126,57.14276 l 0.79097,55.10906 -3.98475,0.44179 c -2.19162,0.24299 -6.16108,0.28292 -8.82104,0.0888 z"
     id="path829"
     inkscape:connector-curvature="0" />
  <path
     style="fill:#93215a;fill-opacity:1;stroke-width:1.16949153"
     d="m 75.801493,254.18898 c -6.802028,-28.58781 -11.512521,-61.05445 -12.028496,-82.90531 -0.303497,-12.85269 0.847145,-15.22242 8.505481,-17.51691 5.260984,-1.57623 11.168206,0.94104 12.900509,5.49734 0.608093,1.5994 3.74151,25.38797 6.963152,52.86348 3.221641,27.47551 6.146111,51.66585 6.498824,53.75632 l 0.641294,3.80085 h -9.896893 -9.896895 z"
     id="path831"
     inkscape:connector-curvature="0" />
  <path
     style="fill:#93215a;fill-opacity:1;stroke-width:1.16949153"
     d="m 60.512223,266.91913 c -8.021661,-2.16315 -13.087089,-5.59924 -15.994846,-10.84996 -2.130414,-3.84702 -3.597003,-12.03996 -7.894067,-44.09932 -6.399023,-47.74156 -6.442622,-49.02105 -1.817637,-53.34143 4.185754,-3.91008 10.689897,-5.19519 15.698129,-3.10169 6.363539,2.66004 6.969223,4.30803 7.926039,21.56574 0.486309,8.77136 1.997521,23.32532 3.35825,32.34214 2.396965,15.88339 9.745221,53.44033 11.195297,57.21917 0.568871,1.48245 -0.08507,1.8454 -3.211655,1.78254 -2.159284,-0.0434 -6.326063,-0.72615 -9.25951,-1.51719 z"
     id="path833"
     inkscape:connector-curvature="0" />
  <path
     style="fill:#93215a;fill-opacity:1;stroke-width:1.16949153"
     d="M 41.43053,72.579202 C 38.250998,64.293473 45.308588,56.929543 52.40921,61.123984 l 3.310036,1.955287 -5.921775,5.357822 c -7.075675,6.401832 -7.432094,6.578279 -8.366941,4.142109 z"
     id="path835"
     inkscape:connector-curvature="0" />
  <path
     style="fill:#93215a;fill-opacity:1;stroke-width:1.16949153"
     d="m 164.02273,38.417796 c -1.23295,-3.698517 -2.42019,-7.382415 -2.63831,-8.186441 -0.63999,-2.359002 4.98675,-1.713713 8.38837,0.962001 3.73544,2.938296 4.21521,9.051991 0.94275,12.013522 -3.37141,3.051086 -4.30093,2.385963 -6.69281,-4.789082 z"
     id="path839"
     inkscape:connector-curvature="0" />
  <path
     style="fill:#93215a;fill-opacity:1;stroke-width:1.16949153"
     d="m 150.13269,77.219854 c -3.93713,-3.937131 -0.85394,-9.57486 4.5013,-8.230781 3.80345,0.954607 4.99315,4.899651 2.35626,7.813381 -2.47561,2.73552 -4.42103,2.853933 -6.85756,0.4174 z"
     id="path841"
     inkscape:connector-curvature="0" />
  <path
     style="fill:#93215a;fill-opacity:1;stroke-width:1.16949153"
     d="m 142.08151,131.91313 c -4.06239,-4.24023 -4.08526,-8.673 -0.0611,-11.83842 1.69479,-1.33312 4.1035,-2.42386 5.35267,-2.42386 2.77157,0 9.10826,6.10218 9.10826,8.77118 0,2.64023 -6.32387,8.77119 -9.04717,8.77119 -1.21558,0 -3.62428,-1.47604 -5.35268,-3.28009 z"
     id="path843"
     inkscape:connector-curvature="0" />
  <path
     style="fill:#93215a;fill-opacity:1;stroke-width:1.16949153"
     d="m 115.55525,107.13152 c -1.28979,-1.28979 -2.34508,-3.05292 -2.34508,-3.91806 0,-2.63515 4.28709,-5.725647 6.8251,-4.920113 4.4446,1.410661 4.56593,6.998503 0.21102,9.718193 -1.98779,1.24139 -2.70399,1.10703 -4.69104,-0.88002 z"
     id="path845"
     inkscape:connector-curvature="0" />
  <path
     style="fill:#93215a;fill-opacity:1;stroke-width:1.16949153"
     d="m 84.679562,137.35139 c -2.093744,-2.98924 -0.822882,-6.27045 2.884363,-7.44709 2.79904,-0.88838 6.93438,2.23429 6.93438,5.23628 0,4.88918 -6.860735,6.43396 -9.818743,2.21081 z"
     id="path847"
     inkscape:connector-curvature="0" />
  <path
     style="fill:#93215a;fill-opacity:1;stroke-width:1.16949153"
     d="m 51.430977,123.13056 c -3.487253,-3.71201 -3.270015,-8.24643 0.538603,-11.24229 4.021293,-3.16315 7.5997,-3.06898 10.748595,0.28287 2.990069,3.18278 3.267474,7.43319 0.72229,11.06695 -2.497523,3.56571 -8.610072,3.51098 -12.009488,-0.10754 z"
     id="path849"
     inkscape:connector-curvature="0" />
  <path
     style="fill:#93215a;fill-opacity:1;stroke-width:1.16949153"
     d="m 64.614318,84.836627 c -2.346785,-2.593168 -1.627599,-5.043087 2.186721,-7.449098 4.164879,-2.627138 8.706243,4.211214 5.423504,8.166673 -1.981301,2.387321 -5.063329,2.096714 -7.610225,-0.717575 z"
     id="path851"
     inkscape:connector-curvature="0" />
  <path
     style="fill:#93215a;fill-opacity:1;stroke-width:1.16949153"
     d="m 106.16642,49.793536 c -1.90792,-1.907915 -2.11945,-2.826067 -1.09299,-4.744027 1.71231,-3.19949 4.19446,-3.988709 7.62657,-2.424933 3.37727,1.538785 3.69163,4.901325 0.71046,7.599252 -2.80099,2.534862 -4.37222,2.441531 -7.24404,-0.430292 z"
     id="path861"
     inkscape:connector-curvature="0" />
  <path
     style="fill:#93215a;fill-opacity:1;stroke-width:0.58474576"
     d="m 93.210936,84.902666 c -0.501023,-1.305645 2.162427,-4.642432 4.646548,-5.821224 2.467136,-1.170731 4.499816,-1.215665 6.980366,-0.154308 2.21297,0.946867 5.37366,4.122845 4.88686,4.910501 -0.18625,0.301358 -3.30684,0.732439 -6.93464,0.957958 -3.6278,0.225518 -7.185606,0.554518 -7.906232,0.731108 -0.880985,0.215888 -1.429044,0.01145 -1.672902,-0.624035 z"
     id="path865"
     inkscape:connector-curvature="0" />
</svg>
