<?xml version="1.0" encoding="UTF-8" standalone="no"?>
<!-- Created with Inkscape (http://www.inkscape.org/) -->

<svg
   xmlns:dc="http://purl.org/dc/elements/1.1/"
   xmlns:cc="http://creativecommons.org/ns#"
   xmlns:rdf="http://www.w3.org/1999/02/22-rdf-syntax-ns#"
   xmlns:svg="http://www.w3.org/2000/svg"
   xmlns="http://www.w3.org/2000/svg"
   xmlns:sodipodi="http://sodipodi.sourceforge.net/DTD/sodipodi-0.dtd"
   xmlns:inkscape="http://www.inkscape.org/namespaces/inkscape"
   version="1.1"
   id="svg815"
   width="257.33334"
   height="334.66666"
   viewBox="0 0 257.33334 334.66666"
   sodipodi:docname="icons2.svg"
   inkscape:version="0.92.3 (2405546, 2018-03-11)">
  <metadata
     id="metadata821">
    <rdf:RDF>
      <cc:Work
         rdf:about="">
        <dc:format>image/svg+xml</dc:format>
        <dc:type
           rdf:resource="http://purl.org/dc/dcmitype/StillImage" />
        <dc:title></dc:title>
      </cc:Work>
    </rdf:RDF>
  </metadata>
  <defs
     id="defs819" />
  <sodipodi:namedview
     pagecolor="#ffffff"
     bordercolor="#666666"
     borderopacity="1"
     objecttolerance="10"
     gridtolerance="10"
     guidetolerance="10"
     inkscape:pageopacity="0"
     inkscape:pageshadow="2"
     inkscape:window-width="1366"
     inkscape:window-height="705"
     id="namedview817"
     showgrid="false"
     inkscape:zoom="1.6523905"
     inkscape:cx="128.66667"
     inkscape:cy="167.33333"
     inkscape:window-x="-8"
     inkscape:window-y="-8"
     inkscape:window-maximized="1"
     inkscape:current-layer="svg815" />
  <path
     style="fill:#ff8080;stroke-width:1.33333337"
     d="M 112.82199,327.95411 C 78.489174,324.05814 47.298641,313.4743 38.166526,302.62141 32.536905,295.93098 29.234118,284.30969 25.106133,256.66666 21.937374,235.44709 21.119937,225.50614 21.104306,208 21.085329,186.74597 20.978277,185.88697 17.947151,182.66666 8.2804605,172.39665 5.8084714,153.23161 12.41008,139.73841 c 2.018136,-4.12493 5.944778,-9.55559 8.72587,-12.06814 l 5.056531,-4.56827 -2.381199,-4.44 c -8.48794,-15.82668 -5.312934,-37.608066 9.765707,-66.995334 4.128159,-8.045507 7.463711,-13 8.752093,-13 1.144978,0 4.177034,2.447835 6.737902,5.439634 5.020609,5.865452 11.796054,10.600416 18.417978,12.871255 l 4.151627,1.423705 2.096892,-7.533964 C 79.168497,31.339715 97.393716,14.042868 117.3897,9.4348755 c 9.64717,-2.2231494 24.12366,-1.7043379 33.53245,1.2017425 28.35093,8.756712 47.13243,39.374321 42.6556,69.537227 -0.79481,5.355109 -1.24973,9.931948 -1.01092,10.170752 0.2388,0.238804 4.53664,-2.37446 9.55075,-5.807252 l 9.11655,-6.24144 4.8656,5.48284 c 6.79994,7.662584 13.869,21.803725 16.60944,33.226005 2.89178,12.05313 2.11588,30.52615 -1.79615,42.76322 l -2.69644,8.43463 5.23571,4.73014 c 8.00669,7.23356 9.80258,15.08646 8.78194,38.40059 -0.77638,17.73469 -5.89814,59.93446 -8.89984,73.32864 -1.9844,8.85477 -5.73317,15.57456 -11.52601,20.66074 -17.38891,15.26767 -72.68711,26.75052 -108.98639,22.6314 z m 53.37779,-7.91642 8.19978,-1.60891 0.9341,-6.2144 c 4.97694,-33.1108 6.22718,-47.77699 6.93589,-81.36338 l 0.76981,-36.48232 -2.83233,0.89894 c -11.78937,3.7418 -23.50301,-2.01929 -26.23463,-12.90292 l -0.8148,-3.24638 -6.24546,3.20669 c -7.67511,3.94073 -15.81623,3.33587 -22.36867,-1.66192 -4.88166,-3.72343 -5.8768,-4.02636 -5.8768,-1.78895 0,0.84744 -1.58035,3.61276 -3.51188,6.14514 -6.58778,8.63701 -20.223193,12.02228 -30.734382,7.63042 l -4.827278,-2.01697 0.859551,16.35031 c 0.758754,14.43293 13.224499,111.13858 14.489237,112.40331 3.184861,3.18487 55.890542,3.66662 71.257862,0.65134 z M 83.802013,280.99999 C 79.365195,248.55909 75.791206,219.1824 73.840559,199.121 l -0.66887,-6.879 -3.585845,1.87078 c -5.297778,2.76392 -11.278588,2.2956 -16.573751,-1.29778 l -4.693365,-3.18502 -4.035492,4.0355 c -3.159998,3.16 -5.542232,4.18028 -10.980638,4.70284 l -6.945144,0.66733 0.694259,20.81551 c 0.855117,25.6384 7.309977,65.53255 11.975477,74.01423 4.154867,7.55338 13.259015,13.22072 30.069484,18.71831 22.201258,7.26055 20.513643,10.88516 14.705339,-31.58371 z m 108.720907,32.1807 c 18.34099,-5.4562 29.3393,-12.91712 33.07761,-22.43887 4.24418,-10.81025 9.54166,-48.19117 11.20622,-79.07516 l 0.91626,-17 h -5.44138 c -6.45274,0 -11.92237,-1.88353 -15.67512,-5.39793 -2.69985,-2.52837 -2.74949,-2.51527 -5.01776,1.32461 -3.65565,6.18851 -12.46769,8.08898 -21.43333,4.62244 -2.35284,-0.90972 -2.4539,-0.43198 -1.60195,7.5733 1.78403,16.76376 -3.79783,93.11114 -8.04455,110.03139 -0.99124,3.9494 -0.13712,3.97502 12.014,0.36022 z M 41.666668,188.06129 c 4.740049,-5.30459 5.337513,-14.72796 0.933786,-14.72796 -7.31762,0 -15.807419,9.52415 -15.904504,17.84223 -0.0492,4.21592 10.354539,2.05169 14.970718,-3.11427 z m 162.448882,2.22964 c 3.54035,-2.7182 5.23818,-7.18901 4.37295,-11.51512 -0.452,-2.26003 -1.37073,-4.10915 -2.04161,-4.10915 -1.83003,0 -10.6572,4.86934 -14.44689,7.96935 l -3.33333,2.72671 3.74101,3.31864 c 4.04839,3.59129 8.35551,4.18342 11.70787,1.60957 z m -135.1899,-2.9606 c 3.699523,-3.29933 3.711439,-3.36011 1.074352,-5.47915 -3.90968,-3.14161 -15.641218,-8.48494 -16.908933,-7.70145 -2.463012,1.52221 -1.067285,9.99527 2.181659,13.2442 4.181642,4.18165 8.917483,4.15959 13.652922,-0.0636 z m 110.93359,2.11821 c 1.534,-0.97134 1.32844,-2.03613 -1.17514,-6.08702 C 175.84231,178.76341 163.71015,168 161.36911,168 c -1.33473,0 -2.66047,4.8402 -2.68424,9.8 -0.0284,5.92565 7.64043,12.87226 14.1818,12.84625 2.82333,-0.0107 5.96999,-0.5502 6.99257,-1.19771 z m -75.83126,-2.12968 c 5.91151,-3.05696 10.63869,-10.88993 10.63869,-17.62837 0,-3.86793 -0.57236,-5.69049 -1.78704,-5.69049 -5.53435,0 -30.212961,16.3864 -30.212961,20.06116 0,2.12782 7.214119,5.16414 12.399547,5.21878 2.786417,0.0293 6.819214,-0.85312 8.961764,-1.96108 z m 131.97203,0.61492 c 0,-2.75337 -4.00878,-9.08046 -7.48651,-11.81605 -4.50232,-3.54153 -12.51573,-3.83049 -12.50851,-0.45107 0.008,3.59311 4.99786,10.95252 8.33678,12.29491 4.1705,1.67671 11.65824,1.65887 11.65824,-0.0277 z m -35.88923,-16.51746 c 4.03236,-1.84608 10.60705,-3.60223 14.6104,-3.90256 l 7.27883,-0.54606 3.27309,-7.81718 c 2.85649,-6.82222 3.27428,-9.85367 3.28241,-23.81719 0.008,-13.92433 -0.42602,-17.12432 -3.34648,-24.66667 -1.84569,-4.76666 -5.08046,-11.366662 -7.18838,-14.666662 l -3.83258,-6 -1.19389,4.571568 c -2.30264,8.817144 -13.0966,21.300134 -26.55058,30.705184 -6.00249,4.19606 -9.11026,4.47638 -9.11026,0.82174 0,-0.95927 2.54958,-3.43137 5.66574,-5.49354 12.79321,-8.46614 25.00093,-22.733269 25.00093,-29.218501 0,-2.851903 -1.14595,-2.620291 -9.54607,1.929409 -16.63546,9.010152 -30.06628,11.487542 -72.15703,13.309762 -17.02997,0.73727 -36.363574,2.23028 -42.963575,3.31778 -38.104424,6.2786 -60.250557,17.73736 -66.646044,34.4837 -3.456379,9.0504 -2.296569,23.00992 2.515951,30.28214 l 3.5595,5.37876 4.392924,-4.65786 c 5.496647,-5.82814 9.659548,-7.43213 19.264469,-7.4227 10.098417,0.009 16.058721,1.8159 24.303073,7.36394 l 6.86177,4.61763 7.343319,-6.545 c 14.002506,-12.48023 34.184773,-19.64799 51.741403,-18.37603 16.80797,1.21772 33.96888,9.39196 43.46602,20.70414 l 4.42427,5.2698 4.1096,-3.13454 c 2.26028,-1.724 7.40882,-4.64498 11.44119,-6.49106 z M 148,141.65988 c 0,-1.61714 2.38491,-3.2649 7.71927,-5.33334 9.34377,-3.62312 9.61407,-3.6373 9.61407,-0.50432 0,1.73702 -2.06771,3.3482 -6.84447,5.33334 C 150.17286,144.61154 148,144.71601 148,141.65988 Z m -1.63342,34.33452 c 3.8236,-2.33124 6.96676,-7.13367 6.96676,-10.64447 0,-2.28659 -10.25383,-4.55341 -20.88731,-4.61757 -5.98801,-0.0361 -11.25103,0.29732 -11.69558,0.741 -0.44455,0.44368 -0.0453,3.12174 0.88731,5.95125 3.29781,10.00589 15.46028,14.22081 24.72882,8.56979 z M 39.14225,116.58264 c 10.318627,-4.72402 35.516365,-10.88673 54.037882,-13.21624 8.517598,-1.07128 28.086538,-2.54192 43.486538,-3.26809 20.33228,-0.958732 30.89145,-2.066639 38.55863,-4.045707 5.80724,-1.498978 10.80585,-2.972645 11.10802,-3.274814 1.16811,-1.168101 -2.54202,-6.051652 -9.02744,-11.882597 C 164.762,69.617164 150.34998,66.657771 109.33334,66.937571 90.462286,67.066303 82.549253,66.588189 75.654759,64.902677 66.473078,62.658013 54.547879,57.352686 50.32516,53.633951 c -3.5674,-3.141629 -3.993733,-1.299477 -1.1982,5.177334 5.491976,12.724044 16.998142,24.797457 29.873042,31.345768 6.159099,3.132582 8.518188,7.176278 4.186636,7.176278 -4.357004,0 -18.117702,-8.615221 -25.259826,-15.81453 -6.787697,-6.842045 -16.593478,-23.209919 -16.593478,-27.697945 0,-4.36222 -2.343909,-0.997577 -6.989302,10.033027 C 27.193469,80.833074 24.906678,90.835869 25.629341,101.97334 26.131267,109.70888 29.315147,120 31.20645,120 c 0.259217,0 3.830327,-1.53781 7.9358,-3.41736 z m 149.41763,-39.8157 c 1.27548,-6.798836 -1.50756,-21.699542 -5.74638,-30.766941 -5.57067,-11.916361 -14.51215,-21.046429 -26.33342,-26.888815 -8.46809,-4.185159 -11.6477,-5.018835 -21.0173,-5.510614 -13.97119,-0.733299 -23.12086,1.790902 -34.3526,9.47715 -9.466534,6.478266 -18.147946,17.996686 -21.759653,28.870518 -1.258885,3.790149 -2.076522,7.103541 -1.81697,7.363093 0.25955,0.259552 2.120681,0.885726 4.135845,1.3915 2.733443,0.68605 3.663934,0.429046 3.663934,-1.011992 0,-4.608701 8.557086,-18.611257 14.808004,-24.231373 9.70944,-8.729616 19.00942,-11.855642 33.192,-11.156912 8.81981,0.434524 12.82192,1.322627 18.0453,4.004408 14.19566,7.288312 24.08122,21.433482 25.53462,36.537277 0.60822,6.320762 1.53889,8.654293 4.84796,12.155759 2.25237,2.383334 4.51076,4.333334 5.01862,4.333334 0.50786,0 1.30888,-2.054876 1.78004,-4.566392 z m -17.0895,-12.877133 c -0.91268,-5.707521 -6.43162,-17.757111 -8.80492,-19.223889 -1.52798,-0.944343 -21.53575,15.259249 -20.63711,16.713274 0.30824,0.498744 3.45003,1.249035 6.98173,1.667315 3.53172,0.41828 9.69926,1.951828 13.70562,3.407884 9.84829,3.579217 9.74208,3.610329 8.75468,-2.564584 z m -46.78096,-8.223141 c -1.90394,-3.116667 -5.38795,-9.109548 -7.74224,-13.317514 -2.35428,-4.207965 -4.92251,-7.657965 -5.70718,-7.666666 -4.58635,-0.05086 -17.30693,15.099285 -19.85806,23.650846 l -0.894971,3 h 18.832091 18.83209 z m 21.87432,-6.89044 c 10.17402,-8.707 10.65542,-9.359075 8.59237,-11.638725 -4.33935,-4.794928 -16.29451,-8.120458 -26.84625,-7.467739 -5.32958,0.329681 -10.04235,0.951619 -10.47281,1.382083 -0.67222,0.672216 10.74857,21.040242 14.57459,25.992561 1.77923,2.302999 1.84407,2.265119 14.1521,-8.26818 z"
     id="path825"
     inkscape:connector-curvature="0" />
  <path
     style="fill:#ff8080;fill-opacity:1;stroke-width:0.60518384"
     d="m 114.20278,321.40781 c -11.95959,-0.51465 -17.810305,-1.35042 -18.8021,-2.6859 -2.442731,-3.28918 -17.107742,-125.30289 -15.280019,-127.13061 0.13778,-0.13779 1.898461,0.41512 3.912623,1.22868 12.783934,5.16366 28.276866,-0.16263 33.899136,-11.65413 0.85605,-1.74971 1.6727,-3.18129 1.81478,-3.18129 0.14207,0 2.05216,1.22828 4.24464,2.7295 7.92766,5.42819 14.65111,5.85422 23.71936,1.50297 2.80212,-1.34455 5.13778,-2.37031 5.19037,-2.27948 0.0526,0.0908 0.56877,1.72081 1.1471,3.62217 1.36503,4.48784 5.8114,9.47522 10.08726,11.31465 4.20058,1.80704 9.65724,2.20947 14.51538,1.07051 2.16158,-0.50677 3.97378,-0.87442 4.02711,-0.81699 0.26681,0.28729 -1.05762,50.15301 -1.61818,60.92539 -0.81416,15.64614 -1.77232,25.16043 -4.60882,45.76458 l -2.25954,16.41317 -5.57088,0.99506 c -11.81022,2.10951 -34.73637,3.02866 -54.41822,2.18172 z"
     id="path937"
     inkscape:connector-curvature="0" />
  <path
     style="fill:#ff8080;fill-opacity:1;stroke-width:0.60518384"
     d="M 72.985837,313.57352 C 52.28868,306.53035 43.691804,301.41791 39.583264,293.7095 33.971726,283.18117 28.222119,245.18037 27.008355,210.59832 l -0.395277,-11.26207 4.457901,-0.42847 c 7.680289,-0.7382 9.394589,-1.40477 13.507377,-5.25208 l 3.755827,-3.51339 3.162577,2.1298 c 6.30845,4.24836 11.861416,4.98728 17.556482,2.33619 1.795844,-0.83598 3.408004,-1.37713 3.582578,-1.20255 0.174573,0.17457 0.955546,6.37595 1.735494,13.78084 1.853675,17.59894 6.798213,57.30753 9.89048,79.42847 3.219679,23.03239 3.47963,26.42685 2.176161,28.4162 -1.428538,2.18022 -3.384406,1.96828 -13.452118,-1.45774 z"
     id="path939"
     inkscape:connector-curvature="0" />
  <path
     style="fill:#ff8080;fill-opacity:1;stroke-width:0.60518384"
     d="m 180.4709,314.9074 c 2.8e-4,-0.24963 0.40039,-2.37067 0.88915,-4.71341 1.07019,-5.12965 2.97174,-20.50778 4.22518,-34.16965 2.29515,-25.01594 2.97585,-38.38117 3.01498,-59.19804 l 0.0402,-21.37405 1.51296,0.34073 c 12.43307,2.80002 17.57124,1.28515 22.99698,-6.78015 l 0.90778,-1.3494 3.02592,2.41274 c 4.05584,3.23395 7.33635,4.30467 14.37311,4.69123 5.50424,0.30236 5.90036,0.41015 5.89773,1.60489 -0.002,0.70441 -0.27323,5.77424 -0.60375,11.26628 -2.27453,37.79421 -7.70602,75.42405 -12.16415,84.27417 -4.46801,8.86975 -15.1078,15.71602 -32.61807,20.98839 -7.80031,2.34869 -11.49908,2.99409 -11.498,2.00627 z"
     id="path941"
     inkscape:connector-curvature="0" />
  <path
     style="fill:#ff8080;fill-opacity:1;stroke-width:0.60518384"
     d="m 226.63083,188.29028 c -3.07308,-0.73014 -4.90685,-2.2411 -7.39843,-6.09607 -4.0563,-6.27589 -3.71837,-8.44593 1.31525,-8.44593 4.54331,0 8.43309,2.4904 12.06295,7.72319 2.49459,3.59618 3.34172,6.16992 2.25691,6.85694 -0.99868,0.63248 -5.50187,0.61163 -8.23668,-0.0381 z"
     id="path943"
     inkscape:connector-curvature="0" />
  <path
     style="fill:#ff8080;fill-opacity:1;stroke-width:0.60518384"
     d="m 194.29611,189.49578 c -1.49697,-0.99155 -3.22379,-2.35755 -3.83736,-3.03554 -1.08489,-1.19878 -1.08362,-1.25838 0.046,-2.16464 3.70435,-2.97198 14.40479,-9.33696 15.69675,-9.33696 0.67995,0 2.10727,4.21477 2.09409,6.1837 -0.0186,2.78474 -1.8838,6.58214 -4.18331,8.51705 -2.73615,2.30232 -6.17994,2.24492 -9.81615,-0.16361 z"
     id="path945"
     inkscape:connector-curvature="0" />
  <path
     style="fill:#ff8080;fill-opacity:1;stroke-width:0.60518384"
     d="m 167.15636,188.523 c -5.55639,-3.16379 -7.86951,-6.65701 -7.86401,-11.87599 0.004,-3.48638 0.91242,-7.48672 1.8295,-8.0535 1.64027,-1.01375 15.71438,11.8256 18.06253,16.47785 1.6735,3.31559 1.63792,3.56544 -0.61983,4.35249 -3.45447,1.20424 -8.39653,0.81399 -11.40819,-0.90085 z"
     id="path947"
     inkscape:connector-curvature="0" />
  <path
     style="fill:#ff8080;fill-opacity:1;stroke-width:0.60518384"
     d="m 130.84533,176.75853 c -5.18913,-2.40691 -8.7402,-7.0356 -9.46728,-12.34024 l -0.3669,-2.67685 2.89473,-0.43409 c 7.61978,-1.14266 25.32242,0.91128 28.08132,3.25812 1.0964,0.93265 1.12477,1.19834 0.35835,3.3564 -2.12279,5.97724 -7.47178,9.63486 -14.51381,9.9245 -3.31527,0.13635 -4.86856,-0.10551 -6.98641,-1.08784 z"
     id="path949"
     inkscape:connector-curvature="0" />
  <path
     style="fill:#ff8080;fill-opacity:1;stroke-width:0.60518384"
     d="m 89.312816,187.76575 c -3.522774,-1.21757 -6.277005,-2.86453 -6.277005,-3.75348 0,-2.93784 23.425999,-18.63755 28.999459,-19.43494 1.18459,-0.16948 1.56341,0.1367 1.98717,1.60615 1.43283,4.96858 -1.67876,13.32602 -6.71555,18.03734 -4.76391,4.45608 -11.511699,5.78543 -17.994074,3.54493 z"
     id="path951"
     inkscape:connector-curvature="0" />
  <path
     style="fill:#ff8080;fill-opacity:1;stroke-width:0.60518384"
     d="m 57.556291,188.70315 c -2.700718,-1.81911 -4.786627,-5.70237 -5.19656,-9.67423 -0.431702,-4.18279 0.427057,-5.04522 3.828675,-3.84506 3.575972,1.26167 11.781356,5.55861 13.832709,7.24381 l 1.812308,1.48883 -1.207124,1.36189 c -0.663918,0.74905 -2.417855,2.13769 -3.897639,3.08587 -3.334566,2.13666 -6.338564,2.24765 -9.172369,0.33889 z"
     id="path953"
     inkscape:connector-curvature="0" />
  <path
     style="fill:#ff8080;fill-opacity:1;stroke-width:0.60518384"
     d="m 27.832309,192.29075 c -1.874386,-1.87439 0.695834,-8.68787 5.065559,-13.42846 3.973715,-4.31098 9.61115,-6.36911 11.432941,-4.17399 2.17908,2.62563 -0.494205,11.45245 -4.341234,14.33416 -4.753916,3.56103 -10.357966,5.06759 -12.157266,3.26829 z"
     id="path955"
     inkscape:connector-curvature="0" />
  <path
     style="fill:#ff8080;fill-opacity:1;stroke-width:0.60518384"
     d="m 166.55118,67.474131 c -3.52082,-1.537192 -11.78618,-3.777287 -17.71024,-4.799865 -3.07414,-0.53064 -5.81217,-1.183293 -6.08452,-1.45034 -0.85165,-0.835068 13.24352,-12.809459 18.01453,-15.304034 1.68015,-0.878481 1.84364,-0.857576 2.79391,0.357237 3.0489,3.897688 7.82779,16.111664 7.82779,20.006427 0,1.846399 -0.19917,2.15927 -1.36166,2.139047 -0.74892,-0.01303 -2.31483,-0.439841 -3.47981,-0.948472 z"
     id="path957"
     inkscape:connector-curvature="0" />
  <path
     style="fill:#ff8080;fill-opacity:1;stroke-width:0.60518384"
     d="m 132.44622,56.194734 c -3.77424,-4.984598 -14.78202,-24.394113 -14.17754,-24.998595 0.14971,-0.149707 3.12498,-0.55931 6.61171,-0.910228 7.55634,-0.7605 13.73725,-0.136027 20.82971,2.10448 4.78011,1.510038 9.94777,4.94862 9.94777,6.619291 0,0.962074 -5.48844,6.254008 -13.16352,12.69223 -8.29703,6.95994 -8.20966,6.920873 -10.04813,4.492822 z"
     id="path959"
     inkscape:connector-curvature="0" />
  <path
     style="fill:#ff8080;fill-opacity:1;stroke-width:0.60518384"
     d="m 91.208058,59.822421 c 0.873529,-3.078132 4.086895,-8.952883 7.054178,-12.896613 3.793284,-5.041539 9.618584,-10.896109 11.406164,-11.463465 1.90601,-0.604943 3.21135,0.873896 8.01402,9.079187 2.33787,3.994213 5.43892,9.205578 6.89124,11.580811 1.45231,2.375232 2.64057,4.48581 2.64057,4.690174 0,0.204364 -8.18833,0.37157 -18.1963,0.37157 H 90.821637 Z"
     id="path961"
     inkscape:connector-curvature="0" />
  <path
     style="fill:#ff8080;fill-opacity:1;stroke-width:0.60518384"
     d="m 182.94899,77.583435 c -3.8064,-3.90789 -4.57092,-5.698507 -5.96826,-13.978615 -1.9911,-11.798488 -5.46655,-18.657964 -13.49135,-26.62773 -8.86741,-8.806606 -15.60332,-11.891618 -27.67384,-12.674463 -15.52317,-1.006772 -23.85735,1.243178 -33.8058,9.126435 -6.27339,4.971103 -14.931214,17.567095 -16.629611,24.193893 -0.836107,3.262317 -1.354658,3.482359 -5.370882,2.279069 l -2.259215,-0.676877 0.542561,-2.414759 c 2.364512,-10.523671 10.638738,-23.373522 19.963906,-31.003892 4.814751,-3.939693 12.085391,-7.954124 17.761831,-9.80706 4.03562,-1.31733 6.3128,-1.628997 13.68101,-1.872458 10.7591,-0.355503 16.62283,0.648145 24.02848,4.112761 16.98681,7.947009 27.89324,21.021595 32.5415,39.010651 2.55206,9.876592 2.64809,23.299577 0.1667,23.299577 -0.32865,0 -1.89781,-1.334938 -3.48703,-2.966532 z"
     id="path963"
     inkscape:connector-curvature="0" />
</svg>
