<?xml version="1.0" encoding="utf-8"?>
<!-- Generator: Adobe Illustrator 22.1.0, SVG Export Plug-In . SVG Version: 6.00 Build 0)  -->
<svg version="1.1" id="Layer_1" xmlns="http://www.w3.org/2000/svg" xmlns:xlink="http://www.w3.org/1999/xlink" x="0px" y="0px"
	 viewBox="0 0 512.1 512.1" style="enable-background:new 0 0 512.1 512.1;" xml:space="preserve">
<g transform="translate(-1)">
	<g>
		<g>
			<path d="M262.3,383.3c-0.6-0.8-1.5-1.3-2.4-1.3h-5.6c-1,0-1.8,0.5-2.4,1.3c-0.6,0.9-0.8,2-0.5,3.1l3.6,12c0.3,1,1.1,1.7,2.1,1.7
				s1.8-0.7,2.1-1.7l3.6-12C263.1,385.3,262.9,384.2,262.3,383.3z"/>
			<path d="M250.3,386.7c-0.3-0.9-0.3-1.9,0-2.8c-1.4,0.4-2.8,1.2-3.8,2.4c-1.7,2-1.7,5.1,0.1,7l3.6,4c1.1,1,2.4,1.5,3.7,1.6
				c0-0.1-0.1-0.2-0.1-0.2L250.3,386.7z"/>
			<path d="M249.5,398.2l-3.7-4c-0.9-1-1.4-2.2-1.6-3.5c-1,1.3-1.9,2.7-2.7,4.2c-0.8,1.4-0.7,3.1,0.1,4.4c0.7,1.2,2.1,2,3.5,2
				c0.5,0,1-0.1,1.4-0.3l4.3-1.8C250.4,398.9,250,398.6,249.5,398.2L249.5,398.2z"/>
			<path d="M272.5,394.8c-0.7-1.5-1.6-2.9-2.7-4.2c-0.2,1.3-0.7,2.5-1.6,3.5l-3.6,4l0,0c-0.4,0.4-0.9,0.7-1.3,1l4.3,1.8
				c0.4,0.2,0.9,0.2,1.4,0.2c1.3,0,2.7-0.6,3.5-2C273.2,397.9,273.3,396.2,272.5,394.8z"/>
			<path d="M267.5,393.3c1.7-1.9,1.8-5,0.1-7c-1-1.2-2.3-2-3.8-2.4c0.3,0.9,0.3,1.9,0,2.8l-3.6,12c0,0.1-0.1,0.2-0.1,0.2
				c1.4-0.1,2.7-0.6,3.8-1.7L267.5,393.3z"/>
		</g>
	</g>
</g>
</svg>
