<svg id="Слой_1" data-name="Слой 1" xmlns="http://www.w3.org/2000/svg" viewBox="0 0 355 310"><defs><style>.cls-1{fill:#fff;}.cls-2{fill:#07085b;}.cls-3{fill:#daeef7;}.cls-4{fill:#c4dfe8;}.cls-5{fill:#adcfd8;}.cls-6{fill:#bc4a71;}.cls-7{fill:#9c0538;}.cls-8{fill:#806a8e;}.cls-9{fill:#4b2b5e;}.cls-10{fill:#ffc0bb;}.cls-11{fill:#fc8d84;opacity:0.6;}.cls-11,.cls-13,.cls-22{isolation:isolate;}.cls-12,.cls-13{fill:#4c2816;}.cls-13{opacity:0.5;}.cls-14{fill:#2d1203;}.cls-15{fill:#94009f;}.cls-16{fill:#d5d6f4;}.cls-17{fill:#bcd6f4;}.cls-18{fill:#844f3d;}.cls-19{fill:#06bfad;}.cls-20,.cls-22{fill:#f99893;}.cls-21{fill:#333;}.cls-22{opacity:0.3;}</style></defs><title>main screen5</title><g id="Layer_1" data-name="Layer 1"><rect class="cls-1" width="355" height="310"/><path class="cls-2" d="M281.52,303.7v2.84a.49.49,0,0,0,.52.43h8.13c.59,0,.81-.63.31-.89L286,303.7A5.13,5.13,0,0,1,281.52,303.7Z"/><path class="cls-2" d="M260.34,303.9v2.68a.45.45,0,0,0,.49.41h7.68c.56,0,.77-.6.3-.84l-4.31-2.25A4.88,4.88,0,0,1,260.34,303.9Z"/><polygon class="cls-3" points="107.5 108.42 107.5 108.42 107.5 108.42 88.04 107.31 70.16 114.52 70.14 114.53 70.14 114.53 70.14 114.53 70.14 114.53 89.6 115.63 107.48 108.42 107.5 108.42 107.5 108.42"/><polygon class="cls-4" points="74.29 140.21 70.16 114.52 89.6 115.63 93.75 141.31 74.29 140.21"/><polygon class="cls-5" points="107.48 108.42 111.65 134.1 93.75 141.31 89.6 115.63 107.48 108.42"/><path class="cls-6" d="M276.07,224.7l18.14-7.54c1.83-14,2.56-25.91,2.56-25.91-22.5,3.36-39.14,12.18-51.46,23.5l-.37,22.65-7.58-14.34c-28.33,33.65-27,80.73-27,80.73s60.87-31.84,71.88-43.44c4.25-4.48,7.39-15.8,9.64-28C285.17,229.61,276.07,224.7,276.07,224.7Z"/><path class="cls-7" d="M296.77,191.26s-68.09,66.62-86.43,112.54c0,0,60.87-31.84,71.88-43.44,4.25-4.48,7.39-15.8,9.64-28-6.69-2.74-15.79-7.64-15.79-7.64l18.14-7.54C296,203.13,296.77,191.26,296.77,191.26Z"/><path class="cls-8" d="M346,240.41a81.55,81.55,0,0,0-34.07,1.08c-1.47,4.71-3.34,10.3-3.34,10.3l-3.65-8.24c-38.19,13.07-59.4,50.56-59.4,50.56,27.1,5.19,47.11,1.68,61.82-5.54-.25-3.29-.69-8.17-.69-8.17l5.32,5.68a70.39,70.39,0,0,0,16.81-13.79C326,269.35,323,266,323,266l9.89,1.42A76.69,76.69,0,0,0,346,240.41Z"/><path class="cls-9" d="M307.36,288.57c-.25-3.29-.69-8.17-.69-8.17l5.32,5.68a70.39,70.39,0,0,0,16.81-13.79C326,269.35,323,266,323,266l9.89,1.42a76.62,76.62,0,0,0,13.15-27c-45.68,12.16-100.46,53.7-100.46,53.7C272.64,299.3,292.65,295.79,307.36,288.57Z"/><path class="cls-8" d="M62.63,220.19l-20.34-9.45c-.17-13.86.65-25.49.65-25.49,26.08,5.92,44.47,16.45,57.4,28.9l-2.77,22.06,11-13c28.67,36,20.45,81.65,20.45,81.65s-67.34-38.12-78.69-50.69c-4.38-4.85-6.47-16.22-7.4-28.36C51.19,223.89,62.63,220.19,62.63,220.19Z"/><path class="cls-9" d="M43,185.25S113.87,258,129,304.81c0,0-67.34-38.12-78.69-50.69-4.38-4.85-6.47-16.22-7.4-28.36,8.28-1.87,19.72-5.57,19.72-5.57L42.3,210.74C42.12,196.88,43,185.25,43,185.25Z"/><path class="cls-6" d="M12.64,237.57a127.51,127.51,0,0,1,44,5.54c1.16,5.21,2.72,11.42,2.72,11.42l6-8.32c47.4,18.87,69,61.57,69,61.57-35.89,2-61.25-4.3-79.16-13.89.83-3.47,2.16-8.61,2.16-8.61l-7.76,5.36A84.46,84.46,0,0,1,30,273.77c4.06-2.77,8.55-6,8.55-6l-13,.25C14.28,252.12,12.64,237.57,12.64,237.57Z"/><path class="cls-7" d="M55.18,293.89c.83-3.47,2.16-8.61,2.16-8.61l-7.76,5.36A84.46,84.46,0,0,1,30,273.77c4.06-2.77,8.55-6,8.55-6l-13,.25c-11.2-15.89-12.84-30.44-12.84-30.44,57.25,18.86,121.7,70.21,121.7,70.21C98.45,309.81,73.09,303.48,55.18,293.89Z"/><path class="cls-1" d="M191.49,290.62a4.53,4.53,0,0,1,1.22.57,5.42,5.42,0,0,1,1,.85,6.11,6.11,0,0,1,1.35,2.34,8.51,8.51,0,0,1,.32,2.7,12.17,12.17,0,0,1-.42,2.68,14.4,14.4,0,0,1-.93,2.55,12.93,12.93,0,0,1-1.45,2.28,11.34,11.34,0,0,1-4.19,3.3,10.91,10.91,0,0,0,2.17-1.53,12.26,12.26,0,0,0,1.8-1.94,13.34,13.34,0,0,0,1.37-2.26,14.47,14.47,0,0,0,.89-2.49,12.7,12.7,0,0,0,.42-2.6,8.19,8.19,0,0,0-.25-2.61,5.92,5.92,0,0,0-1.21-2.3A5.5,5.5,0,0,0,191.49,290.62Z"/><path class="cls-1" d="M194,292.23a11.94,11.94,0,0,0,.2-3.77,9.39,9.39,0,0,0-1.11-3.54c-.08-.13-.15-.27-.24-.4l-.26-.38a8.06,8.06,0,0,0-.59-.72q-.31-.35-.66-.66l-.36-.3-.18-.16-.19-.13a14,14,0,0,0-3.31-1.79,11.31,11.31,0,0,1,3.47,1.56,8.2,8.2,0,0,1,1.47,1.25,9.09,9.09,0,0,1,.63.74l.27.4a2.91,2.91,0,0,1,.25.42,8.27,8.27,0,0,1,.75,1.79,8.8,8.8,0,0,1,.33,1.9A9.94,9.94,0,0,1,194,292.23Z"/><path class="cls-10" d="M166.46,164.77s6.69,4.15,6.88,3.94,1.93-.78,1.91-1,.92-4.48.92-4.48l-5.14-5-4.57,6.52Z"/><path class="cls-10" d="M219,147.07s-8,2.55-9.27,3.83S208,155,208,155l1.79,2.12Z"/><path class="cls-11" d="M175.67,165.49c-1.26.16-4,0-6.78-4.19l2.14-3,5.14,5S176,164.35,175.67,165.49Z"/><path class="cls-9" d="M208.1,151.56S189.78,168.93,182.48,167a28.13,28.13,0,0,1-5.8-1.37s-3.88,3.15-9.89-2.91l-4.08-.89s-5.14-1.22-11.58,6.08c-1.46,1.91-2.76,3.68-3.92,5.34l-.36.5c-13.74,19.72-7.23,21.28-7.16,21.22l35.55,4.85,1.25-5.18,1.65-8.48s23.33-7.4,35.71-28.09Z"/><path class="cls-1" d="M181.26,157.7a2.8,2.8,0,0,1-5.32-.83Z"/><path class="cls-2" d="M175.24,199.85c.33-1.08.61-2.18.9-3.28s.53-2.2.78-3.31.47-2.22.68-3.33.4-2.24.57-3.36c.31-2.25.57-4.51.66-6.78a25.22,25.22,0,0,0-.52-6.77,20,20,0,0,1,.32,3.37c0,1.13,0,2.26-.07,3.39s-.17,2.25-.3,3.38-.28,2.24-.44,3.36c-.32,2.24-.73,4.47-1.17,6.69-.21,1.11-.44,2.22-.68,3.32S175.49,198.75,175.24,199.85Z"/><path class="cls-3" d="M92.4,220.52l-16.54,1.34a18.46,18.46,0,0,0-14,8.34h0a18.75,18.75,0,0,0-2.74,13.45l.82,4.6a34.11,34.11,0,0,0,14.09,22l3.31,2.31a53.83,53.83,0,0,0,20.25,8.6l14.56,2.89ZM94,271.2a36.73,36.73,0,0,1-13.78-5.86L78,263.77a23.26,23.26,0,0,1-9.59-15l-.55-3.14a12.66,12.66,0,0,1,1.86-9.15h0a12.62,12.62,0,0,1,9.54-5.69l11.26-.9,13.43,43.28Z"/><path class="cls-3" d="M100.64,281.82l8,1.59c.45-2.47.91-5,.91-5.17s-5.26-11.1-5.26-11.1l-2,.69,1.65,5.33-8-1.58Z"/><path class="cls-3" d="M92.4,220.52l-11,.89,3.54,8.91,5.54-.44,2.31,7.43a11.15,11.15,0,0,0,1.06-.51,68.94,68.94,0,0,0,1.31-7.28Z"/><path class="cls-3" d="M240.45,209.87l-.81-.1-74.46,1.83-75.26-1.85-.14.08a.53.53,0,0,0-.23.49c0,6.52,3.39,70,34.74,96.82,0,0,21.46,2.76,40.89,2.41,19.44.35,43.89-5.51,43.89-5.51,31.23-26.7,31.78-86.76,31.74-93.65A.51.51,0,0,0,240.45,209.87Z"/><path class="cls-3" d="M240.81,210.39a.51.51,0,0,0-.36-.52l-.81-.1-74.46,1.83-4.53-.11c15.92,8.28,30.7,20.48,31.46,37.33,1.22,27.35-17.75,54-45.55,59.63a143.16,143.16,0,0,0,18.62,1.1c19.44.35,43.89-5.51,43.89-5.51C240.3,277.34,240.85,217.28,240.81,210.39Z"/><path class="cls-4" d="M240.81,210.39c0,9.37-34,17-75.7,17s-75.56-7.6-75.56-17,33.83-17,75.56-17S240.81,201,240.81,210.39Z"/><path class="cls-12" d="M98.87,218.39l23.37,5.28L140.76,226l25.16.53,24.63-1.06,15.89-1.69,14-2.75,9.89-3.49s2.56-2,4.42-3.31c-10.79-6.42-38.49-11-70.86-11-32.83,0-60.76,4.7-71.18,11.27Z"/><path class="cls-13" d="M225.59,212.21a1.22,1.22,0,0,0-.85-.73,265.57,265.57,0,0,0-58-6.34h-.3a265.57,265.57,0,0,0-58,6.34,1.22,1.22,0,0,0-.85.73c-.29.67-.18,1.82,2.62,3.15a49.88,49.88,0,0,0,23.32,1.11,160.23,160.23,0,0,1,66,0,49.88,49.88,0,0,0,23.32-1.11C225.77,214,225.89,212.88,225.59,212.21Z"/><path class="cls-1" d="M102,210.9a78.78,78.78,0,0,1,7.83-2.28c2.67-.67,5.33-1.24,8-1.72s5.36-.93,8-1.31c1.35-.2,2.7-.37,4-.55s2.7-.33,4-.47c5.41-.6,10.84-1,16.27-1.24S161,203,166.41,203A283.59,283.59,0,0,1,199,204.82c5.4.66,10.78,1.49,16.11,2.59,2.66.56,5.31,1.18,7.94,1.9a68,68,0,0,1,7.75,2.52q-.94-.37-1.92-.69l-1.94-.61c-1.3-.39-2.61-.75-3.93-1.09q-3.94-1-8-1.77c-5.33-1-10.71-1.83-16.11-2.44s-10.81-1-16.23-1.32-10.86-.41-16.29-.41A315.55,315.55,0,0,0,133.82,205c-1.35.12-2.7.28-4,.43s-2.7.32-4,.51c-2.69.36-5.38.77-8,1.24s-5.34,1-8,1.6c-1.33.3-2.65.62-4,1S103.26,210.45,102,210.9Z"/><path class="cls-1" d="M165.11,193.43c-41.73,0-75.56,7.59-75.56,17s33.83,17,75.56,17,75.7-7.6,75.7-17S206.84,193.43,165.11,193.43Zm0,32.68c-40,0-72.4-7-72.4-15.72s32.41-15.71,72.4-15.71,72.55,7,72.55,15.71S205.1,226.11,165.11,226.11Z"/><path class="cls-14" d="M173.25,279.36s-3.9,7.49-2.52,10.86,39.93,11.7,39.93,11.7l1.82-3.65s1.93-1.88,3.36-7.84-29-13.25-29-13.25Z"/><path class="cls-12" d="M173.21,279.41A19.75,19.75,0,0,1,189.43,283c6.58,5.13,11.44,15.12,20.8,13a7.51,7.51,0,0,0,5.75-8.93c0-.15-.07-.29-.11-.43-.67-2.36-2.3-5.12-5.73-8C200.36,270.24,173.66,264.5,173.21,279.41Z"/><path class="cls-12" d="M212.48,298.27a17.78,17.78,0,0,1-15.33-3.71c-6.51-5.2-11.25-15.25-20.64-13.19a7.5,7.5,0,0,0-5.85,8.84c0,.15.06.3.1.45.64,2.36,2.24,5.14,5.63,8.09C186.07,307.19,211.85,313.18,212.48,298.27Z"/><path class="cls-10" d="M260,242.81a.2.2,0,0,0,.25.09.2.2,0,0,0,.09-.09c.67-1,2.82-4.05,3.1-3.94s-1.5,2.94-1.3,3.21,1.94-2.5,2.29-2.29-1.33,2.68-1.21,2.82,2-2.07,2.23-2.07-1.41,2.59-1.32,2.8,1.85-1.19,2-1.05.26.2-2.8,4.49a7.19,7.19,0,0,0-1.43,1.9l-1.61.51-1.64-1.63s-.16-6.79.07-7S259.08,240.61,260,242.81Z"/><path class="cls-2" d="M221.25,229.18a12.16,12.16,0,0,1-1.87,5.1s-.35,2.56,3,3.5,3.52-4.43,3.55-4.74-.34-3.23-.34-3.23Z"/><path class="cls-2" d="M218.79,234.8a10.92,10.92,0,0,1-4.09,1.5c-3,.63-13.28,2.7-12.21,10,0,0-9.79,10.88,1,15.3,0,0-.78,7.24,6.76,7.34S220.72,243,220.72,243l2.19-4.63-2.14-.66-1.15-1.45Z"/><path class="cls-15" d="M220.25,234.38a1.47,1.47,0,0,1-.58-1c0-.13-.12-.25-.32-.32a1,1,0,0,0-.3,0h0c-.34,0-.58.2-.56.4a1.91,1.91,0,0,0,.77,1.35,6.42,6.42,0,0,0,3.16,1.13l.52-.63A5.33,5.33,0,0,1,220.25,234.38Z"/><polygon class="cls-16" points="254.2 283.42 260.35 304.53 265.42 304.36 265.47 284.74 257.67 279.36 254.2 283.42"/><path class="cls-7" d="M229.82,239.44s13.1,16.19,15.32,18.76l13.27-13.15a17.4,17.4,0,0,1,4,3.09s-5.35,12.41-10,15.67L243.18,270l1.76,4.23-3.3,2.58L240,272.7l-4.75-10.58-4.5-14.07-.86-7Z"/><path class="cls-1" d="M229.87,241s5.53,9,6.67,12.53.23,3.77.74,8,4.38,15.55,4.38,15.55l-6.43,4.35s-3.48-11.15-3.48-11.61S228.51,249,228.51,249l-2.68-7.6Z"/><path class="cls-17" d="M235.85,281s11-10,19.6-12S286,303.62,286,303.62l-4.55,2.18S261.6,291.44,257.84,285c0,0-16.23,20.77-21.64,21.28s-12.36,2.46-18.63-8.69S235.85,281,235.85,281Z"/><path class="cls-10" d="M224.86,232.24l-2.45,6.63s1.78,4,7.71,2.55c0,0-.62-1.41.39-4.24S224.86,232.24,224.86,232.24Z"/><path class="cls-11" d="M224.86,232.24l-1.15,3.09c.54,2.32,2.48,4,6.23,4.58a8.81,8.81,0,0,1,.57-2.73C231.53,234.28,224.86,232.24,224.86,232.24Z"/><path class="cls-10" d="M253.85,261.81l1.27-.39.34-2.56a.23.23,0,0,1,.28-.19.18.18,0,0,1,.1,0c.72.63.55,2.62.55,2.62h5.36a.55.55,0,0,1,0,1.09l-1,.17c.26.36-.09.93-.09.93.15.34-.19.83-.19.83,0,.71-.5,1-2,1.21a30.08,30.08,0,0,0-4.33,1.53Z"/><path class="cls-6" d="M222.58,237.75s-11.27,13.65-9.74,37.67,1.8,24.19,1.8,24.19,6.92-.74,12-4.86a60.19,60.19,0,0,1,11.4-6.92l-4.16-13.56s5.41.18,9.34-1.48,12.13-6.07,12.13-6.07-.68-4.06-1.54-5.31c0,0-10.42,3.2-15.66,3.26C238.19,264.7,232.1,245.79,222.58,237.75Z"/><path class="cls-2" d="M223.4,242.13a47.58,47.58,0,0,1,4.78,4.85,56.08,56.08,0,0,1,4.14,5.44l.47.71c.16.24.32.47.46.72l.89,1.46c.15.24.28.5.42.75l.4.75.41.75c.13.25.25.52.37.77l.73,1.55.64,1.58.32.8.26.81c.18.54.36,1.08.53,1.62-.21-.52-.42-1-.62-1.58l-.31-.8-.35-.77-.7-1.56-.77-1.51c-.13-.25-.25-.51-.39-.76l-.41-.74-.42-.74c-.14-.24-.27-.49-.42-.73l-.89-1.45-.46-.71-.48-.71q-1.89-2.82-4-5.45l-1.09-1.31c-.37-.42-.74-.85-1.12-1.27C225,243.75,224.2,242.93,223.4,242.13Z"/><path class="cls-2" d="M218.53,251.7c.92,2.1,1.92,4.17,2.94,6.22.52,1,1,2,1.59,3s1.1,2,1.68,3,1.19,2,1.82,2.9a13.34,13.34,0,0,0,1,1.42c.36.42.67.92,1,1.36a26.16,26.16,0,0,0,2.27,2.55,11.92,11.92,0,0,0,2.73,2,11,11,0,0,1-2.86-1.9,20.74,20.74,0,0,1-2.37-2.5,31,31,0,0,1-2.07-2.76c-.65-1-1.26-1.93-1.85-2.92-1.16-2-2.23-4-3.21-6.09S219.32,253.81,218.53,251.7Z"/><path class="cls-2" d="M236.74,264.7a19.6,19.6,0,0,0,2.17-.14c.73-.09,1.45-.18,2.16-.3,1.44-.23,2.87-.49,4.29-.81s2.83-.64,4.25-1l4.24-1.06-2.07.71-2.09.64-2.12.57c-.71.16-1.42.34-2.13.49-1.43.31-2.87.56-4.33.73A20.61,20.61,0,0,1,236.74,264.7Z"/><path class="cls-2" d="M245.14,258.2c-.29.3-.58.58-.85.87l-.41.45-.41.46a3.23,3.23,0,0,1,.68-1,3,3,0,0,1,.46-.41A2.8,2.8,0,0,1,245.14,258.2Z"/><path class="cls-1" d="M260.14,282.7c-.23.29-.47.56-.72.83s-.51.53-.78.77a5.68,5.68,0,0,1-.6.5,11.47,11.47,0,0,0,.43-1.29,11.28,11.28,0,0,0,.36-1.63,10.23,10.23,0,0,0,.13-1.66,7.71,7.71,0,0,0-.15-1.66,10.24,10.24,0,0,1,.05,1.66,11.28,11.28,0,0,1-.19,1.64,14.82,14.82,0,0,1-.37,1.6,14.38,14.38,0,0,1-.54,1.56l-.12.28.25-.17a7.2,7.2,0,0,0,.86-.71,9.58,9.58,0,0,0,.76-.8c.24-.28.48-.57.69-.87s.41-.61.6-.93A7.2,7.2,0,0,1,260.14,282.7Z"/><path class="cls-14" d="M177.24,287.54a6.69,6.69,0,0,1,3.64,5.71c.1,2.53-.09,5.59-1.34,7.07-2.34,2.78-41.57-1.27-41.57-1.27l-.61-4s-1.25-2.39-.78-8.51S168.24,283,168.24,283Z"/><path class="cls-12" d="M179.84,289.91A17,17,0,0,0,164,287.64c-7.83,2.84-15.53,10.83-23.76,5.86a7.54,7.54,0,0,1-2.71-10.3c.07-.12.14-.24.22-.35,1.37-2,3.77-4.15,7.92-5.86C157.51,272.12,184,275.59,179.84,289.91Z"/><path class="cls-12" d="M137.36,295a17.85,17.85,0,0,0,15.72,1.23c7.79-2.93,15.4-11,23.69-6.15a7.53,7.53,0,0,1,2.83,10.27c-.07.12-.14.24-.22.36-1.34,2-3.71,4.19-7.85,6C159.73,311.7,133.37,309.38,137.36,295Z"/><path class="cls-1" d="M177.41,288.26a4.47,4.47,0,0,1,1.2.59,5.53,5.53,0,0,1,1,.87,6,6,0,0,1,1.31,2.37,8.2,8.2,0,0,1,.27,2.7,12.76,12.76,0,0,1-.46,2.67,13.73,13.73,0,0,1-1,2.53,12.44,12.44,0,0,1-1.49,2.26,11.31,11.31,0,0,1-4.25,3.22A10.94,10.94,0,0,0,176.2,304a13.29,13.29,0,0,0,1.83-1.92,12.86,12.86,0,0,0,1.4-2.23,13.66,13.66,0,0,0,.94-2.47,12.79,12.79,0,0,0,.47-2.6,8.17,8.17,0,0,0-.21-2.61,5.81,5.81,0,0,0-1.18-2.32A5.62,5.62,0,0,0,177.41,288.26Z"/><path class="cls-1" d="M179.84,289.91a12.18,12.18,0,0,0,.26-3.76,8.82,8.82,0,0,0-2.12-5.08,12.15,12.15,0,0,0-4.64-3.13,10.73,10.73,0,0,1,4.89,2.9,8.43,8.43,0,0,1,2.15,5.29A10.11,10.11,0,0,1,179.84,289.91Z"/><path class="cls-5" d="M235.07,138.7c-17.16.11-29.35,25-36.56,38.15-6.15,11.23-12.76,35.43-14.56,42.25l8.36.36,1.72-1.6c4.06-8.58,15-31,23.31-41.79a161.31,161.31,0,0,1,22.91-24.18,9.57,9.57,0,0,0,3.06-4.61C245.62,139.46,235.07,138.7,235.07,138.7Z"/><path class="cls-3" d="M183.36,219.08s7.83-30.94,15-44.08,19.4-38,36.56-38.15c0,0,10.55.76,8.24,8.58A9.57,9.57,0,0,1,240.1,150a161.31,161.31,0,0,0-22.91,24.18c-10.44,13.58-24.92,45.24-24.92,45.24Z"/><path class="cls-12" d="M174.56,214.64a54.48,54.48,0,0,0,23.28,2.2c9.81-.93-11.78,4.21-11.9,4.33a25.43,25.43,0,0,1-6.91-1.75c-3.21-1.26-4.4,2.64-5.8,1.3s-1.14-1.69-.74-2.2S174.56,214.64,174.56,214.64Z"/><path class="cls-18" d="M170.59,212.09c.75.4,1.52.77,2.3,1.1s1.57.64,2.37.91a40.83,40.83,0,0,0,4.86,1.39,45.48,45.48,0,0,0,10,1.11,57.86,57.86,0,0,0,10-.93c.84-.13,1.66-.29,2.47-.49a10,10,0,0,0,1.18-.35c.8-.32,1-.53-.27-1-.38-.14-.79-.26-1.2-.37-.82-.21-1.65-.39-2.49-.55a24.2,24.2,0,0,1,2.55.26,11,11,0,0,1,1.27.27c1.55.43,1.88,1.21.39,1.94a10.9,10.9,0,0,1-1.24.47c-.83.26-1.66.45-2.5.63a45.57,45.57,0,0,1-10.21,1.18,38.58,38.58,0,0,1-10.2-1.37,34.45,34.45,0,0,1-4.85-1.71c-.79-.35-1.56-.72-2.31-1.13A19.57,19.57,0,0,1,170.59,212.09Z"/><path class="cls-10" d="M209.1,152.28h-.22v.12l1.2,1.42.34.07a9.55,9.55,0,0,1,3.74.61C215.56,155.22,214,151.86,209.1,152.28Z"/><path class="cls-2" d="M160.27,171.29c-.63,1.36-1.26,2.71-1.92,4.06s-1.31,2.68-2,4l-2,4-1,2-1,2c.5-1.42,1.13-2.78,1.75-4.14s1.29-2.7,2-4,1.35-2.66,2-4S159.53,172.59,160.27,171.29Z"/><path class="cls-2" d="M149.56,187.49a33.11,33.11,0,0,1,5.63-.31,39.55,39.55,0,0,1,5.64.52,27.65,27.65,0,0,1,10.59,3.78A32.52,32.52,0,0,0,160.77,188a47.55,47.55,0,0,0-5.58-.59c-.94,0-1.88-.08-2.82-.06S150.49,187.42,149.56,187.49Z"/><path class="cls-10" d="M175.12,192.47a10,10,0,0,0-6.46-.88l-.29.06c-1.59.34-1.53,1.21-1.42,1.61a.34.34,0,0,0,.29.21,5.81,5.81,0,0,1,1,.07c2.49.29,0,3.17,1,3.21,1.23.06,1-2.64,1.64-2.56,1.2.13-.33,2.47.46,2.64s.25-2.73,1.64-2.6c.74.07-.29,2.68.58,2.52s.24-2.52,1.08-2.45c1.25.11-.38,2.37.54,2.53C175.67,196.92,176.49,193.29,175.12,192.47Z"/><path class="cls-2" d="M156.52,165.89a3.12,3.12,0,0,1-.4.62,6.33,6.33,0,0,1-.47.56c-.17.17-.34.34-.53.5a4.12,4.12,0,0,1-.6.43,3.12,3.12,0,0,1,.4-.62c.15-.2.31-.38.47-.56l.53-.5A3.64,3.64,0,0,1,156.52,165.89Z"/><path class="cls-2" d="M159.11,168.5a3.65,3.65,0,0,1,.08.74,7,7,0,0,1-.12,1.45,3.47,3.47,0,0,1-.19.72,3.05,3.05,0,0,1-.08-.74,7,7,0,0,1,.12-1.45A3.47,3.47,0,0,1,159.11,168.5Z"/><path class="cls-2" d="M180,169a3.05,3.05,0,0,1,.74,0,5.57,5.57,0,0,1,.71.14,6.12,6.12,0,0,1,.69.22,3.39,3.39,0,0,1,.67.31,4.57,4.57,0,0,1-.74,0,3,3,0,0,1-.71-.15l-.69-.21A3.39,3.39,0,0,1,180,169Z"/><path class="cls-2" d="M186.71,175.34a3.64,3.64,0,0,1,.56-.48c.2-.15.4-.28.61-.41s.42-.23.64-.33a3.43,3.43,0,0,1,.7-.25,3.71,3.71,0,0,1-.56.49,6.25,6.25,0,0,1-.6.4c-.21.12-.43.23-.65.33A3.43,3.43,0,0,1,186.71,175.34Z"/><path class="cls-2" d="M86.14,302.52v3.88a.58.58,0,0,1-.57.59h-9a.66.66,0,0,1-.35-1.22l5.06-3.25A4.78,4.78,0,0,0,86.14,302.52Z"/><path class="cls-2" d="M192.09,166.89a3.26,3.26,0,0,1,.52-.53c.18-.15.37-.3.57-.44a4.9,4.9,0,0,1,.62-.38.37.37,0,0,1,.27-.45.37.37,0,0,1,.45.27.38.38,0,0,1-.27.45.42.42,0,0,1-.29-.05c-.19.16-.38.31-.58.45a4.9,4.9,0,0,1-.62.38A2.87,2.87,0,0,1,192.09,166.89Z"/><path class="cls-2" d="M194.45,170.88a4.45,4.45,0,0,1,.73,0,4.45,4.45,0,0,1,.73,0,3.42,3.42,0,0,1,.71.13,4.41,4.41,0,0,1,.7.23,4.45,4.45,0,0,1-.73,0h-.73a5.57,5.57,0,0,1-.71-.14A3.55,3.55,0,0,1,194.45,170.88Z"/><path class="cls-2" d="M201.16,167.17a2.9,2.9,0,0,1,.24-.7c.1-.22.21-.44.33-.65s.26-.41.4-.61a.38.38,0,0,1,.6-.47.37.37,0,0,1-.07.53.34.34,0,0,1-.29.08c-.1.22-.21.44-.33.65s-.26.41-.4.61A5.23,5.23,0,0,1,201.16,167.17Z"/><path class="cls-2" d="M181,179.78a3.05,3.05,0,0,1,.74,0,3.59,3.59,0,0,1,.73.12,5.64,5.64,0,0,1,.7.21,3.55,3.55,0,0,1,.69.31,3.05,3.05,0,0,1-.74,0,6,6,0,0,1-.72-.13,4.44,4.44,0,0,1-.71-.21A4.23,4.23,0,0,1,181,179.78Z"/><path class="cls-2" d="M154.39,173.08a4.41,4.41,0,0,1,.08.73c0,.24,0,.49,0,.73a5.83,5.83,0,0,1-.1.73,4.38,4.38,0,0,1-.19.71,3.05,3.05,0,0,1-.08-.74c0-.24,0-.49,0-.73a3,3,0,0,1,.09-.72A4.41,4.41,0,0,1,154.39,173.08Z"/><path class="cls-2" d="M145.51,189a4.53,4.53,0,0,1,.08.74v.73a5.93,5.93,0,0,1-.1.72,3.55,3.55,0,0,1-.19.71,3,3,0,0,1-.08-.73c0-.24,0-.49,0-.73a4.42,4.42,0,0,1,.1-.73A4.38,4.38,0,0,1,145.51,189Z"/><path class="cls-2" d="M149.42,175.05a5,5,0,0,1-.46.57c-.17.18-.35.34-.53.5s-.39.3-.59.44a.38.38,0,1,1-.47-.26.39.39,0,0,1,.3,0,6.15,6.15,0,0,1,.53-.49,4.92,4.92,0,0,1,.58-.44A2.7,2.7,0,0,1,149.42,175.05Z"/><path class="cls-2" d="M143,185.11a3.44,3.44,0,0,1-.17.72,5.54,5.54,0,0,1-.25.68c-.1.22-.21.44-.33.65a3.75,3.75,0,0,1-.42.62,4.55,4.55,0,0,1,.17-.73c.07-.23.16-.46.25-.68a5.67,5.67,0,0,1,.33-.65A3.67,3.67,0,0,1,143,185.11Z"/><path class="cls-2" d="M150.55,180.81a3.19,3.19,0,0,1-.46.57c-.17.18-.35.34-.53.5a6.31,6.31,0,0,1-.58.44,4.13,4.13,0,0,1-.65.36,4.41,4.41,0,0,1,.47-.58,6.15,6.15,0,0,1,.53-.49,4.92,4.92,0,0,1,.58-.44A3.63,3.63,0,0,1,150.55,180.81Z"/><path class="cls-10" d="M103.87,137.82a.18.18,0,0,0,.23-.11.14.14,0,0,0,0-.09c-.22-1.08-.92-4.48-.65-4.6s1,2.88,1.31,2.91-.43-2.89-.08-3,1,2.6,1.11,2.61-.12-2.64,0-2.82.83,2.6,1,2.67.38-2,.56-2,.3,0,1.22,4.75a6.57,6.57,0,0,0,.36,2.16l-.69,1.41-2.13.07c-1.6-1.41-3.14-2.9-4.59-4.46C101.63,137.08,101.84,137,103.87,137.82Z"/><path class="cls-10" d="M82,138.88a.2.2,0,0,1-.27,0,.25.25,0,0,1,0-.07c-.29-1.07-1.22-4.41-1.5-4.4s.41,3,.15,3.2-.93-2.77-1.29-2.7.34,2.74.19,2.83-1.08-2.4-1.31-2.49.44,2.7.29,2.85-1.24-1.61-1.4-1.53-.29.1,1.07,4.78a6.38,6.38,0,0,1,.66,2.09l1.25.94,1.93-.91s2.21-5.87,2.06-6.08S83.38,137.24,82,138.88Z"/><polygon class="cls-10" points="98.87 177.19 98.84 185.37 106.75 184.14 105.43 174.94 98.87 177.19"/><path class="cls-11" d="M106,179.18l-.61-4.23-6.57,3v1.62A11.83,11.83,0,0,0,106,179.18Z"/><path class="cls-2" d="M113.17,302.09v4.26a.64.64,0,0,0,.63.64h9.94a.74.74,0,0,0,.72-.74.73.73,0,0,0-.33-.6l-5.58-3.56A5.29,5.29,0,0,1,113.17,302.09Z"/><path class="cls-8" d="M122.24,229.7c0-.91,2.35,1.78,2.3,1-.92-15.13-30.37-2.45-30.37-2.45L87,233.55l-8.11,70.14s4.41,1.28,7.3.23l18-60.1,2.21-.86S116.18,236.11,122.24,229.7Z"/><path class="cls-19" d="M124.58,231.35v.54C124.59,231.7,124.58,231.52,124.58,231.35Z"/><path class="cls-19" d="M124.6,231.9v.58A5.61,5.61,0,0,0,124.6,231.9Z"/><path class="cls-19" d="M124.62,232.56v.63Q124.64,232.88,124.62,232.56Z"/><path class="cls-19" d="M124.54,230.7v0Z"/><path class="cls-9" d="M124.54,227.29c-6.07,6.43-18.19,15.7-18.19,15.7l-2.21.86,2.21-.86,6.83,60.73s4.87.93,7.65-.59C120.83,303.13,125,245.33,124.54,227.29Z"/><path class="cls-19" d="M78.87,303.7a19.38,19.38,0,0,0,4,.63A19.38,19.38,0,0,1,78.87,303.7Z"/><path class="cls-19" d="M85.32,304.19a5.58,5.58,0,0,1-.59.09A5.58,5.58,0,0,0,85.32,304.19Z"/><path class="cls-19" d="M82.89,304.35a13,13,0,0,0,1.53,0A13,13,0,0,1,82.89,304.35Z"/><path class="cls-9" d="M87,233.58l-1.15,10c3.06,1.19,10.53,2.46,16.16-9.9,1.77-3.9,2.23-6.7,1.9-8.72a81.2,81.2,0,0,0-9.72,3.31Z"/><path class="cls-3" d="M114,192.7c-.34,0-5.44-11.6-5.44-11.6-4.36,3.07-10.28.93-10.28.93s-23.83,43.79-7.85,50.62,31-1.48,31-1.48,3.4-8.88,3.4-9.22S114.34,192.7,114,192.7Z"/><path class="cls-7" d="M83,143.56s-1,20.78.91,24.58c6.43,12.63,14.42,13.91,14.42,13.91s2.74,44.19.48,54.77c0,0-7.54,2.33-18.64-2.9,0,0,8.5-34.25,8-38.58,0,0-13.6-12.18-14-26.51a97.49,97.49,0,0,1,3.29-27.09Z"/><path class="cls-7" d="M119.61,235.23a202.06,202.06,0,0,0-4.59-32c-3.74-15.59-6.46-22.07-6.46-22.07,5-5.55,4.18-10.57,3.74-17.07-.51-7.52-7.82-22.54-7.82-22.54l4.93-3.24C133,166.82,120,189.52,120,189.52s8.84,31.41,10,41A71.34,71.34,0,0,1,119.61,235.23Z"/><path class="cls-1" d="M88.39,195.29a5.36,5.36,0,0,0,1-.9,9.65,9.65,0,0,0,1.88-4.11,12,12,0,0,1-2,4,5.5,5.5,0,0,1-1.1,1l.06.06v.09A2.56,2.56,0,0,0,90,195a8.53,8.53,0,0,0,1.51-1.09,10.7,10.7,0,0,1-1.57,1A3.34,3.34,0,0,1,88.39,195.29Z"/><path class="cls-1" d="M119.77,189.37a4.89,4.89,0,0,1-1.08-1,11.58,11.58,0,0,1-2-4,9.53,9.53,0,0,0,1.88,4.11,5,5,0,0,0,1,.9,2.15,2.15,0,0,1-.67-.07,5.12,5.12,0,0,1-.85-.32,10.7,10.7,0,0,1-1.57-1,8.53,8.53,0,0,0,1.51,1.09,4.7,4.7,0,0,0,.87.36,1.7,1.7,0,0,0,1,0H120Z"/><polygon class="cls-3" points="107.5 108.42 107.5 108.42 107.5 108.42 88.04 107.31 70.16 114.52 70.14 114.53 70.14 114.53 70.14 114.53 70.14 114.53 89.6 115.63 107.48 108.42 107.5 108.42 107.5 108.42"/><polygon class="cls-4" points="74.29 140.21 70.16 114.52 89.6 115.63 93.75 141.31 74.29 140.21"/><polygon class="cls-5" points="107.48 108.42 111.65 134.1 93.75 141.31 89.6 115.63 107.48 108.42"/><polygon class="cls-3" points="169.41 96.01 169.41 96.01 169.41 96.01 158.05 83.54 142.67 77.18 142.65 77.17 142.65 77.17 142.65 77.17 142.65 77.17 154.02 89.64 169.39 96 169.41 96.01 169.41 96.01"/><polygon class="cls-4" points="129.8 95.56 142.67 77.18 154.02 89.64 141.17 108.02 129.8 95.56"/><polygon class="cls-5" points="169.39 96 156.56 114.39 141.17 108.02 154.02 89.64 169.39 96"/><polygon class="cls-3" points="180.9 10.1 180.9 10.1 180.9 10.1 161.34 17.8 147.06 32.94 147.05 32.96 147.05 32.96 147.05 32.96 147.05 32.96 166.6 25.25 180.88 10.11 180.9 10.1 180.9 10.1"/><polygon class="cls-4" points="162.62 56.24 147.06 32.94 166.6 25.25 182.18 48.53 162.62 56.24"/><polygon class="cls-5" points="180.88 10.11 196.47 33.37 182.18 48.53 166.6 25.25 180.88 10.11"/><rect class="cls-4" x="28.69" y="306.92" width="286.99" height="3.08" rx="1.25" ry="1.25"/><path class="cls-2" d="M240.3,217.76c.07,0,2.65,1.78.34,10.08a11.4,11.4,0,0,1-1.7.59l.37-4.2-1.47-5.45,1.79-1.44Z"/><path class="cls-20" d="M238.48,227.81a1.77,1.77,0,1,0,2.49-1.19A2,2,0,0,0,238.48,227.81Z"/><path class="cls-10" d="M237.76,234.24a8.28,8.28,0,0,0,.78-1.47,17.16,17.16,0,0,0,1.19-4.17,4,4,0,0,1,.17-.83A9.19,9.19,0,1,0,221.81,225a2,2,0,0,0-1.77-.25,2.78,2.78,0,0,0,1.89,5.08,1.76,1.76,0,0,0,.42-.24,8.64,8.64,0,0,0,8,8.46,8.25,8.25,0,0,0,5.73-2l.33-.27A8.36,8.36,0,0,0,237.76,234.24Z"/><path class="cls-20" d="M233,225.64v1.55a6.34,6.34,0,0,0,.07.75,2,2,0,0,0,.21.67v.06l.06.08a.94.94,0,0,1,.12.18,2,2,0,0,1,.1.21.89.89,0,0,1,0,.23,1,1,0,0,1-.36.8,1.71,1.71,0,0,1-.74.36,2.1,2.1,0,0,1-.79,0,3.16,3.16,0,0,0,.74-.16,1.49,1.49,0,0,0,.6-.39.76.76,0,0,0,.23-.59v-.15l-.06-.14a.64.64,0,0,0-.1-.13l-.13-.18a1.91,1.91,0,0,1-.24-.8,3.57,3.57,0,0,1,0-.8A6.24,6.24,0,0,1,233,225.64Z"/><path class="cls-21" d="M230,226.34a.8.8,0,1,1-.76-.84.8.8,0,0,1,.76.84Z"/><path class="cls-21" d="M236.84,227.12a.8.8,0,1,1-.76-.84.79.79,0,0,1,.76.82Z"/><path class="cls-20" d="M229.63,232.45a2.7,2.7,0,0,1,2.21.38,2,2,0,0,1,2.08,0,2.21,2.21,0,0,1-2.4,1.54A2,2,0,0,1,229.63,232.45Z"/><path class="cls-21" d="M228.65,231.79a8.27,8.27,0,0,0,.66.51,7.24,7.24,0,0,0,.71.41,5.33,5.33,0,0,0,1.56.48,4.16,4.16,0,0,0,1.61-.12,6.34,6.34,0,0,0,1.5-.68,4.63,4.63,0,0,1-.68.48,3.6,3.6,0,0,1-.77.36,4,4,0,0,1-.83.18,3.88,3.88,0,0,1-2.46-.55A5,5,0,0,1,228.65,231.79Z"/><path class="cls-2" d="M231,224.52a9.63,9.63,0,0,0-1.18-.28,4,4,0,0,0-2.18.26c-.18.06-.35.17-.53.25s-.35.2-.55.29a3.84,3.84,0,0,1,.35-.54,2.85,2.85,0,0,1,.49-.43,2.43,2.43,0,0,1,1.24-.48,2.7,2.7,0,0,1,1.32.17A2.6,2.6,0,0,1,231,224.52Z"/><path class="cls-2" d="M234.53,224.92a2.39,2.39,0,0,1,1.16-.54,2.73,2.73,0,0,1,1.33.08,2.52,2.52,0,0,1,1.12.72,2.25,2.25,0,0,1,.4.52,3.13,3.13,0,0,1,.24.6c-.18-.13-.32-.28-.48-.4a3.82,3.82,0,0,0-.48-.34,3.72,3.72,0,0,0-1-.49,3.81,3.81,0,0,0-1.1-.2A9.48,9.48,0,0,0,234.53,224.92Z"/><path class="cls-20" d="M183.86,152.75a1.91,1.91,0,1,0,2.66-1.35A2.14,2.14,0,0,0,183.86,152.75Z"/><path class="cls-10" d="M183.22,159.7a9.19,9.19,0,0,0,.82-1.59,19.23,19.23,0,0,0,1.19-4.54c0-.3.1-.6.17-.9a10.13,10.13,0,0,0,.08-3.84,9.92,9.92,0,0,0-19.69,1.26,2.15,2.15,0,0,0-1.92-.23,3,3,0,0,0,2.15,5.45,2.51,2.51,0,0,0,.45-.26,9.34,9.34,0,0,0,8.88,9,8.89,8.89,0,0,0,6.14-2.27,3.27,3.27,0,0,0,.35-.3A8.49,8.49,0,0,0,183.22,159.7Z"/><path class="cls-21" d="M174.65,151.34a.87.87,0,0,1-1.73.19.6.6,0,0,1,0-.19.88.88,0,0,1,.89-.85A.87.87,0,0,1,174.65,151.34Z"/><path class="cls-21" d="M182.08,152a.87.87,0,0,1-1.73.19.6.6,0,0,1,0-.19.86.86,0,0,1,.88-.84h0A.87.87,0,0,1,182.08,152Z"/><path class="cls-7" d="M175.75,149.7a9.06,9.06,0,0,0-1.23-.45,4.87,4.87,0,0,0-1.2-.15,4,4,0,0,0-1.19.21H172l-.15.06-.3.12c-.2.08-.39.19-.61.27a4.51,4.51,0,0,1,.44-.54,2.58,2.58,0,0,1,.57-.41,2.68,2.68,0,0,1,1.38-.38,2.93,2.93,0,0,1,1.39.32A2.75,2.75,0,0,1,175.75,149.7Z"/><path class="cls-7" d="M179.23,149.92a2.63,2.63,0,0,1,1.17-.74,3.11,3.11,0,0,1,1.42-.1,2.79,2.79,0,0,1,1.31.59,3.86,3.86,0,0,1,.49.5,3.58,3.58,0,0,1,.36.59c-.21-.11-.38-.25-.56-.36l-.28-.16-.14-.08-.14-.07a3.62,3.62,0,0,0-1.15-.38,4.09,4.09,0,0,0-1.21,0A6.87,6.87,0,0,0,179.23,149.92Z"/><path class="cls-20" d="M177.51,150.62a11.6,11.6,0,0,1,.8,1.47,12.35,12.35,0,0,1,.62,1.56,3.93,3.93,0,0,1,.18.84v.36a.34.34,0,0,1-.05.14v.07h0l-.08.07-.18.13a4.2,4.2,0,0,1-.77.37,4.55,4.55,0,0,1-.8.23,10,10,0,0,0,1.41-.82l.15-.13.07-.06h0a.86.86,0,0,0,0-.32,6.66,6.66,0,0,0-.19-.77c-.15-.52-.35-1-.53-1.56S177.68,151.15,177.51,150.62Z"/><path class="cls-7" d="M169.63,137.76s3-2.22,9.33-1.3,7.28,4.48,7.25,9.43l-.59,5.39s-1.76-1.46-3.53-6.53c0,0-3.9,3.85-5.41,3.23s.86-3.43.86-3.43-7.47,6-11.76,5.61c0,0-2-7.87,1.44-10.39,0,0-2.4-.08-2.49-.58s1.24-1.12,3.52-.66c0,0-1.38-3.46-.43-3.73S169.63,137.76,169.63,137.76Z"/><path class="cls-1" d="M179.57,158a3.35,3.35,0,0,1-4.63,1,3.31,3.31,0,0,1-1.31-1.68Z"/><polygon class="cls-2" points="110.22 160.49 110.7 166.11 109.82 166.67 108.19 159.83 110.22 160.49"/><path class="cls-20" d="M109,165.53a1.92,1.92,0,1,0,2.28-1.95A2.17,2.17,0,0,0,109,165.53Z"/><path class="cls-10" d="M110.48,170.7a18.11,18.11,0,0,0,.08-4.71v-.93a10,10,0,0,0-20,0,9.84,9.84,0,0,0,.25,2.23,2.14,2.14,0,0,0-1.93.23,3,3,0,0,0,3.4,4.81,2.22,2.22,0,0,0,.38-.37,9.35,9.35,0,0,0,10.8,6.61A9.18,9.18,0,0,0,110.48,170.7Z"/><path class="cls-21" d="M99.71,166.38a.87.87,0,1,1-1.7.37.86.86,0,0,1,.66-1h0a.85.85,0,0,1,1,.67Z"/><path class="cls-21" d="M107.12,165.26a.87.87,0,0,1-.65,1.05.86.86,0,0,1-1-.65v0a.87.87,0,0,1,1.7-.37Z"/><path class="cls-20" d="M100.82,172.35a5.65,5.65,0,0,0,1.4.48,4.47,4.47,0,0,0,1.46.06,3.93,3.93,0,0,0,1.37-.48,5.67,5.67,0,0,0,1.13-1,4.11,4.11,0,0,1-1.06,1.06,3.47,3.47,0,0,1-1.42.54,3.84,3.84,0,0,1-1.51-.1A4.55,4.55,0,0,1,100.82,172.35Z"/><path class="cls-2" d="M100.37,164.46a8.08,8.08,0,0,0-1.3-.14,4.45,4.45,0,0,0-1.21.14,4.08,4.08,0,0,0-1.11.49,10,10,0,0,0-1.07.77,2.88,2.88,0,0,1,.77-1.17,2.78,2.78,0,0,1,1.25-.7,2.89,2.89,0,0,1,1.43,0A2.63,2.63,0,0,1,100.37,164.46Z"/><path class="cls-2" d="M103.83,163.89a2.67,2.67,0,0,1,1-1,2.88,2.88,0,0,1,1.37-.44,2.75,2.75,0,0,1,1.41.26,2.89,2.89,0,0,1,1.1.86c-.32-.08-.71-.28-1.26-.39a4.1,4.1,0,0,0-1.21-.1,4.35,4.35,0,0,0-1.19.25A9,9,0,0,0,103.83,163.89Z"/><path class="cls-20" d="M102.32,165a11.07,11.07,0,0,1,1.14,1.23,12.09,12.09,0,0,1,1,1.38,3.29,3.29,0,0,1,.43,1,.8.8,0,0,1-.29.66,3.44,3.44,0,0,1-.66.55,4.77,4.77,0,0,1-.73.42,9.16,9.16,0,0,0,1.19-1.14c.07-.1.13-.2.19-.3a.56.56,0,0,0-.06-.31,4.84,4.84,0,0,0-.36-.72c-.28-.47-.59-.93-.89-1.39S102.62,165.46,102.32,165Z"/><path class="cls-2" d="M109.18,154.5s2.94-.56-.68-2.34S96,149.34,91.38,153.33c0,0-1.56-2-3-1.13s1.46,1.86,1.46,1.86-2,.38-2.33,1.47c-.28.81.91.57,1.56.39-1.07.44-4.19,3.4-.13,11.51.72-.34,5.37-7,5.37-7s9.34,3.08,7.64.53c0,0,10.89,2.75,8.25-2.21C110.24,158.75,114.26,158.14,109.18,154.5Z"/><path class="cls-2" d="M89,167.43a1.91,1.91,0,0,1,1.78-.14c1.08.4,1.76,2.83,1.76,2.83S96,173,94.3,160.38c-1.69-12.42-4,2.06-4,2.06Z"/><path class="cls-20" d="M238.48,227.81a1.77,1.77,0,1,0,2.49-1.19A2,2,0,0,0,238.48,227.81Z"/><path class="cls-10" d="M238.54,232.77a17.16,17.16,0,0,0,1.19-4.17,4,4,0,0,1,.17-.83A9.19,9.19,0,1,0,221.81,225a2,2,0,0,0-1.77-.25,2.78,2.78,0,0,0,1.89,5.08,1.76,1.76,0,0,0,.42-.24,8.64,8.64,0,0,0,8,8.46A8.43,8.43,0,0,0,238.54,232.77Z"/><path class="cls-20" d="M233,225.64v1.55a6.34,6.34,0,0,0,.07.75,2,2,0,0,0,.21.67,2.2,2.2,0,0,1,.32.53,1,1,0,0,1-.33,1,1.71,1.71,0,0,1-.74.36,2.1,2.1,0,0,1-.79,0,3.16,3.16,0,0,0,.74-.16,1.49,1.49,0,0,0,.6-.39.73.73,0,0,0,.2-.74,2.16,2.16,0,0,0-.29-.45,1.91,1.91,0,0,1-.24-.8,3.57,3.57,0,0,1,0-.8A6,6,0,0,1,233,225.64Z"/><path class="cls-21" d="M230,226.34a.8.8,0,1,1-.76-.84.8.8,0,0,1,.76.84Z"/><path class="cls-21" d="M236.84,227.12a.8.8,0,1,1-.76-.84.79.79,0,0,1,.76.82Z"/><path class="cls-22" d="M229.63,232.45a2.7,2.7,0,0,1,2.21.38,2,2,0,0,1,2.08,0,2.21,2.21,0,0,1-2.4,1.54A2,2,0,0,1,229.63,232.45Z"/><path class="cls-20" d="M228.65,231.79a8.27,8.27,0,0,0,.66.51,7.24,7.24,0,0,0,.71.41,5.33,5.33,0,0,0,1.56.48,4.16,4.16,0,0,0,1.61-.12,6.34,6.34,0,0,0,1.5-.68,4.63,4.63,0,0,1-.68.48,3.6,3.6,0,0,1-.77.36,4,4,0,0,1-.83.18,3.88,3.88,0,0,1-2.46-.55A5,5,0,0,1,228.65,231.79Z"/><path class="cls-2" d="M231,224.52a9.63,9.63,0,0,0-1.18-.28,4,4,0,0,0-2.18.26c-.18.06-.35.17-.53.25s-.35.2-.55.29a3.84,3.84,0,0,1,.35-.54,2.85,2.85,0,0,1,.49-.43,2.43,2.43,0,0,1,1.24-.48,2.7,2.7,0,0,1,1.32.17A2.6,2.6,0,0,1,231,224.52Z"/><path class="cls-2" d="M234.53,224.92a2.39,2.39,0,0,1,1.16-.54,2.73,2.73,0,0,1,1.33.08,2.52,2.52,0,0,1,1.12.72,2.25,2.25,0,0,1,.4.52,3.13,3.13,0,0,1,.24.6c-.18-.13-.32-.28-.48-.4a3.82,3.82,0,0,0-.48-.34,3.72,3.72,0,0,0-1-.49,3.81,3.81,0,0,0-1.1-.2A9.48,9.48,0,0,0,234.53,224.92Z"/><path class="cls-2" d="M225.12,220.85c.12-.1,11.15,5.37,12.06,2.23,0,0,6.15,1.48,6.45-1.09s-2.33-3.37-2.33-3.37a2,2,0,0,0,2.2-1.68c.12-.65-.48-1.52-1.26-2.34a12.86,12.86,0,0,0-6.84-3.75,12.71,12.71,0,0,0-7.82.66s.55-2.14-.86-1.78-8,5.53-6.52,15c0,0,1.59-.52,3.07,1.78C223.27,226.5,223.57,222.18,225.12,220.85Z"/></g></svg>