<svg xmlns="http://www.w3.org/2000/svg" viewBox="0 0 355 310"><defs><style>.cls-1{isolation:isolate;}.cls-2{fill:#fff;}.cls-3{fill:#07085b;}.cls-16,.cls-4{fill:#daeef7;}.cls-5{fill:#c4dfe8;}.cls-6{fill:#adcfd8;}.cls-7{fill:#f4a640;}.cls-8{fill:#feb546;}.cls-9{fill:#806a8e;}.cls-10{fill:#4b2b5e;}.cls-11{fill:#d85b85;}.cls-12{fill:#bc285a;}.cls-13{fill:#ffc0bb;}.cls-14{fill:#fc8d84;opacity:0.6;}.cls-15{fill:#55769f;}.cls-16,.cls-24{mix-blend-mode:multiply;}.cls-17,.cls-18{fill:#4c2816;}.cls-18{opacity:0.5;mix-blend-mode:screen;}.cls-19{fill:#2d1203;}.cls-20{fill:#844f3d;}.cls-21{fill:#06bfad;}.cls-22,.cls-24{fill:#f99893;}.cls-23{fill:#333;}.cls-24{opacity:0.3;}</style></defs><title>main screen3</title><g class="cls-1"><g id="Layer_1" data-name="Layer 1"><rect class="cls-2" width="355" height="310"/><path class="cls-3" d="M1310.57,1235v2.84a.48.48,0,0,0,.52.43h8.13c.59,0,.81-.63.31-.89L1315,1235A5.13,5.13,0,0,1,1310.57,1235Z" transform="translate(-1029.05 -931.3)"/><path class="cls-3" d="M1289.39,1235.2v2.68a.45.45,0,0,0,.49.41h7.68c.56,0,.77-.6.3-.84l-4.31-2.25A4.86,4.86,0,0,1,1289.39,1235.2Z" transform="translate(-1029.05 -931.3)"/><polygon class="cls-4" points="107.5 108.42 107.5 108.42 107.5 108.42 88.04 107.31 70.16 114.52 70.14 114.53 70.14 114.53 70.14 114.53 70.14 114.53 89.6 115.63 107.48 108.42 107.5 108.42 107.5 108.42"/><polygon class="cls-5" points="74.29 140.21 70.16 114.52 89.6 115.63 93.75 141.31 74.29 140.21"/><polygon class="cls-6" points="107.48 108.42 111.65 134.1 93.75 141.31 89.6 115.63 107.48 108.42"/><path class="cls-7" d="M1305.12,1156l18.14-7.54c1.83-14,2.56-25.91,2.56-25.91-22.5,3.36-39.14,12.18-51.46,23.5l-.37,22.65-7.58-14.34c-28.33,33.65-27,80.73-27,80.73s60.87-31.84,71.88-43.44c4.25-4.48,7.39-15.8,9.64-28C1314.22,1160.91,1305.12,1156,1305.12,1156Z" transform="translate(-1029.05 -931.3)"/><path class="cls-8" d="M1325.82,1122.56s-68.09,66.62-86.43,112.54c0,0,60.87-31.84,71.88-43.44,4.25-4.48,7.39-15.8,9.64-28-6.69-2.74-15.79-7.64-15.79-7.64l18.14-7.54C1325.09,1134.43,1325.82,1122.56,1325.82,1122.56Z" transform="translate(-1029.05 -931.3)"/><path class="cls-9" d="M1375.05,1171.71a81.53,81.53,0,0,0-34.07,1.08c-1.47,4.71-3.34,10.3-3.34,10.3l-3.65-8.24c-38.19,13.07-59.4,50.56-59.4,50.56,27.1,5.19,47.11,1.68,61.82-5.54-.25-3.29-.69-8.17-.69-8.17l5.32,5.68a70.28,70.28,0,0,0,16.81-13.79c-2.78-2.94-5.84-6.34-5.84-6.34l9.89,1.42A76.66,76.66,0,0,0,1375.05,1171.71Z" transform="translate(-1029.05 -931.3)"/><path class="cls-10" d="M1336.41,1219.87c-.25-3.29-.69-8.17-.69-8.17l5.32,5.68a70.28,70.28,0,0,0,16.81-13.79c-2.78-2.94-5.84-6.34-5.84-6.34l9.89,1.42a76.66,76.66,0,0,0,13.15-27c-45.68,12.16-100.46,53.7-100.46,53.7C1301.69,1230.6,1321.7,1227.09,1336.41,1219.87Z" transform="translate(-1029.05 -931.3)"/><path class="cls-9" d="M1091.68,1151.49l-20.34-9.45c-.17-13.86.65-25.49.65-25.49,26.08,5.92,44.47,16.45,57.4,28.9l-2.77,22.06,11-13c28.67,36,20.45,81.65,20.45,81.65s-67.34-38.12-78.69-50.69c-4.38-4.85-6.47-16.22-7.4-28.36C1080.24,1155.19,1091.68,1151.49,1091.68,1151.49Z" transform="translate(-1029.05 -931.3)"/><path class="cls-10" d="M1072,1116.55s70.92,72.77,86.06,119.56c0,0-67.34-38.12-78.69-50.69-4.38-4.85-6.47-16.22-7.4-28.36,8.28-1.87,19.72-5.57,19.72-5.57l-20.34-9.45C1071.17,1128.18,1072,1116.55,1072,1116.55Z" transform="translate(-1029.05 -931.3)"/><path class="cls-11" d="M1041.69,1168.87a127.52,127.52,0,0,1,44,5.54c1.16,5.21,2.72,11.42,2.72,11.42l6-8.32c47.4,18.87,69,61.57,69,61.57-35.89,2-61.25-4.3-79.16-13.89.83-3.47,2.16-8.61,2.16-8.61l-7.76,5.36a84.45,84.45,0,0,1-19.63-16.87c4.06-2.77,8.55-6,8.55-6l-13,.25C1043.33,1183.42,1041.69,1168.87,1041.69,1168.87Z" transform="translate(-1029.05 -931.3)"/><path class="cls-12" d="M1084.23,1225.19c.83-3.47,2.16-8.61,2.16-8.61l-7.76,5.36a84.45,84.45,0,0,1-19.63-16.87c4.06-2.77,8.55-6,8.55-6l-13,.25c-11.2-15.89-12.84-30.44-12.84-30.44,57.25,18.86,121.7,70.21,121.7,70.21C1127.5,1241.11,1102.14,1234.78,1084.23,1225.19Z" transform="translate(-1029.05 -931.3)"/><path class="cls-2" d="M1220.54,1221.92a4.38,4.38,0,0,1,1.22.57,5.29,5.29,0,0,1,1,.85,6,6,0,0,1,1.35,2.34,8.26,8.26,0,0,1,.32,2.7,12.69,12.69,0,0,1-.42,2.68,14.4,14.4,0,0,1-.93,2.55,12.93,12.93,0,0,1-1.45,2.28,11.4,11.4,0,0,1-4.19,3.3,11,11,0,0,0,2.17-1.53,12.71,12.71,0,0,0,1.8-1.94,13.75,13.75,0,0,0,1.37-2.26,14.47,14.47,0,0,0,.89-2.49,12.7,12.7,0,0,0,.42-2.6,8.19,8.19,0,0,0-.25-2.61,5.92,5.92,0,0,0-1.21-2.3A5.5,5.5,0,0,0,1220.54,1221.92Z" transform="translate(-1029.05 -931.3)"/><path class="cls-2" d="M1223,1223.53a11.95,11.95,0,0,0,.2-3.77,9.34,9.34,0,0,0-1.11-3.54c-.08-.13-.15-.27-.24-.4l-.26-.38a8.38,8.38,0,0,0-.59-.72,8.22,8.22,0,0,0-.66-.66l-.36-.3-.18-.16-.19-.13a13.92,13.92,0,0,0-3.31-1.79,11.29,11.29,0,0,1,3.47,1.56,7.38,7.38,0,0,1,.77.58,8.9,8.9,0,0,1,.7.67,8.8,8.8,0,0,1,.63.74l.27.4a3.58,3.58,0,0,1,.25.42,8.07,8.07,0,0,1,.75,1.79,8.8,8.8,0,0,1,.33,1.9A9.92,9.92,0,0,1,1223,1223.53Z" transform="translate(-1029.05 -931.3)"/><path class="cls-13" d="M1195.51,1096.07s6.69,4.15,6.88,3.94,1.93-.78,1.91-1,.92-4.48.92-4.48l-5.14-5-4.57,6.52Z" transform="translate(-1029.05 -931.3)"/><path class="cls-13" d="M1248.07,1078.37s-8,2.55-9.27,3.83-1.77,4.14-1.77,4.14l1.79,2.12Z" transform="translate(-1029.05 -931.3)"/><path class="cls-14" d="M1204.72,1096.79c-1.26.16-4,0-6.78-4.19l2.14-3,5.14,5S1205,1095.65,1204.72,1096.79Z" transform="translate(-1029.05 -931.3)"/><path class="cls-15" d="M1237.15,1082.86s-18.32,17.37-25.62,15.47a28.69,28.69,0,0,1-5.8-1.37s-3.88,3.15-9.89-2.91l-4.08-.89s-5.14-1.22-11.58,6.08c-1.46,1.91-2.76,3.68-3.92,5.34l-.36.5c-13.74,19.72-7.23,21.28-7.16,21.22l35.55,4.85,1.25-5.18,1.65-8.48s23.33-7.4,35.71-28.09Z" transform="translate(-1029.05 -931.3)"/><path class="cls-2" d="M1210.31,1089a2.8,2.8,0,0,1-5.32-.83Z" transform="translate(-1029.05 -931.3)"/><path class="cls-3" d="M1204.29,1131.15c.33-1.08.61-2.18.9-3.28s.53-2.2.78-3.31.47-2.22.68-3.33.4-2.24.57-3.36c.31-2.25.57-4.51.66-6.78a25.19,25.19,0,0,0-.52-6.77,20,20,0,0,1,.32,3.37c0,1.13,0,2.26-.07,3.39s-.17,2.25-.3,3.38-.28,2.24-.44,3.36c-.32,2.24-.73,4.47-1.17,6.69-.21,1.11-.44,2.22-.68,3.32S1204.54,1130.05,1204.29,1131.15Z" transform="translate(-1029.05 -931.3)"/><path class="cls-4" d="M1121.45,1151.82l-16.54,1.34a18.5,18.5,0,0,0-14,8.34h0a18.74,18.74,0,0,0-2.74,13.45l.82,4.6a34.06,34.06,0,0,0,14.09,22l3.31,2.31a53.83,53.83,0,0,0,20.25,8.6l14.56,2.89Zm1.63,50.68a36.73,36.73,0,0,1-13.78-5.86l-2.26-1.57a23.24,23.24,0,0,1-9.59-15l-.55-3.14a12.66,12.66,0,0,1,1.86-9.15h0a12.62,12.62,0,0,1,9.54-5.69l11.26-.9,13.43,43.28Z" transform="translate(-1029.05 -931.3)"/><path class="cls-16" d="M1129.69,1213.12l8,1.59c.45-2.47.91-5,.91-5.17,0-.32-5.26-11.1-5.26-11.1l-2,.69,1.65,5.33-8-1.58Z" transform="translate(-1029.05 -931.3)"/><path class="cls-16" d="M1121.45,1151.82l-11,.89,3.54,8.91,5.54-.44,2.31,7.43c.56-.26,1-.45,1.06-.51a69.22,69.22,0,0,0,1.31-7.28Z" transform="translate(-1029.05 -931.3)"/><path class="cls-4" d="M1269.5,1141.17l-.81-.1-74.46,1.83-75.26-1.85-.14.08a.54.54,0,0,0-.23.49c0,6.52,3.39,70,34.74,96.82,0,0,21.46,2.76,40.89,2.41,19.44.35,43.89-5.51,43.89-5.51,31.23-26.7,31.78-86.76,31.74-93.65A.51.51,0,0,0,1269.5,1141.17Z" transform="translate(-1029.05 -931.3)"/><path class="cls-16" d="M1269.86,1141.69a.51.51,0,0,0-.36-.52l-.81-.1-74.46,1.83-4.53-.11c15.92,8.28,30.7,20.48,31.46,37.33,1.22,27.35-17.75,54-45.55,59.63a142.85,142.85,0,0,0,18.62,1.1c19.44.35,43.89-5.51,43.89-5.51C1269.35,1208.64,1269.9,1148.58,1269.86,1141.69Z" transform="translate(-1029.05 -931.3)"/><path class="cls-5" d="M1269.86,1141.69c0,9.37-34,17-75.7,17s-75.56-7.6-75.56-17,33.83-17,75.56-17S1269.86,1132.32,1269.86,1141.69Z" transform="translate(-1029.05 -931.3)"/><path class="cls-17" d="M1127.92,1149.69l23.37,5.28,18.52,2.33,25.16.53,24.63-1.06,15.89-1.69,14-2.75,9.89-3.49s2.56-2,4.42-3.31c-10.79-6.42-38.49-11-70.86-11-32.83,0-60.76,4.7-71.18,11.27Z" transform="translate(-1029.05 -931.3)"/><path class="cls-18" d="M1254.64,1143.51a1.23,1.23,0,0,0-.85-.73,265.4,265.4,0,0,0-58-6.34h-.3a265.47,265.47,0,0,0-58,6.34,1.23,1.23,0,0,0-.85.73c-.29.67-.18,1.82,2.62,3.15a50,50,0,0,0,23.32,1.11,160.2,160.2,0,0,1,66,0,50,50,0,0,0,23.32-1.11C1254.82,1145.33,1254.94,1144.18,1254.64,1143.51Z" transform="translate(-1029.05 -931.3)"/><path class="cls-2" d="M1131,1142.2a78.78,78.78,0,0,1,7.83-2.28q4-1,8-1.72c2.67-.5,5.36-.93,8.05-1.31,1.35-.2,2.7-.37,4-.55s2.7-.33,4-.47c5.41-.6,10.84-1,16.27-1.24s10.87-.37,16.31-.37a283.59,283.59,0,0,1,32.57,1.86c5.4.66,10.78,1.49,16.11,2.59,2.66.56,5.31,1.18,7.94,1.9a68,68,0,0,1,7.75,2.52q-.95-.37-1.92-.69l-1.94-.61c-1.3-.39-2.61-.75-3.93-1.09q-3.95-1-8-1.77c-5.33-1-10.71-1.83-16.11-2.44s-10.81-1-16.23-1.32-10.86-.41-16.29-.41a315.68,315.68,0,0,0-32.54,1.48c-1.35.12-2.7.28-4,.43s-2.7.32-4,.51c-2.69.36-5.38.77-8,1.24s-5.34,1-8,1.6c-1.33.3-2.65.62-4,1S1132.31,1141.75,1131,1142.2Z" transform="translate(-1029.05 -931.3)"/><path class="cls-2" d="M1194.16,1124.73c-41.73,0-75.56,7.59-75.56,17s33.83,17,75.56,17,75.7-7.6,75.7-17S1235.89,1124.73,1194.16,1124.73Zm0,32.68c-40,0-72.4-7-72.4-15.72s32.41-15.71,72.4-15.71,72.55,7,72.55,15.71S1234.15,1157.41,1194.16,1157.41Z" transform="translate(-1029.05 -931.3)"/><path class="cls-19" d="M1202.3,1210.66s-3.9,7.49-2.52,10.86,39.93,11.7,39.93,11.7l1.82-3.65s1.93-1.88,3.36-7.84-29-13.25-29-13.25Z" transform="translate(-1029.05 -931.3)"/><path class="cls-17" d="M1202.26,1210.71a19.74,19.74,0,0,1,16.22,3.58c6.58,5.13,11.44,15.12,20.8,13a7.51,7.51,0,0,0,5.64-9.36c-.67-2.36-2.3-5.12-5.73-8C1229.41,1201.54,1202.71,1195.8,1202.26,1210.71Z" transform="translate(-1029.05 -931.3)"/><path class="cls-17" d="M1241.53,1229.57a17.81,17.81,0,0,1-15.33-3.71c-6.51-5.2-11.25-15.25-20.64-13.19a7.5,7.5,0,0,0-5.75,9.29c.64,2.36,2.24,5.14,5.63,8.09C1215.12,1238.49,1240.9,1244.48,1241.53,1229.57Z" transform="translate(-1029.05 -931.3)"/><path class="cls-13" d="M1289,1174.11a.19.19,0,0,0,.34,0c.67-1,2.82-4.05,3.1-3.94s-1.5,2.94-1.3,3.21,1.94-2.5,2.29-2.29-1.33,2.68-1.21,2.82,2-2.07,2.23-2.07-1.41,2.59-1.32,2.8,1.85-1.19,2-1.05.26.2-2.8,4.49a7.38,7.38,0,0,0-1.43,1.9l-1.61.51-1.64-1.63s-.16-6.79.07-7S1288.13,1171.91,1289,1174.11Z" transform="translate(-1029.05 -931.3)"/><path class="cls-3" d="M1250.3,1160.48a12.22,12.22,0,0,1-1.87,5.1s-.35,2.56,3,3.5,3.52-4.43,3.55-4.74-.34-3.23-.34-3.23Z" transform="translate(-1029.05 -931.3)"/><path class="cls-3" d="M1247.84,1166.1a11,11,0,0,1-4.09,1.5c-3,.63-13.28,2.7-12.21,10,0,0-9.79,10.88,1,15.3,0,0-.78,7.24,6.76,7.34s10.47-25.91,10.47-25.91l2.19-4.63-2.14-.66-1.15-1.45Z" transform="translate(-1029.05 -931.3)"/><path class="cls-8" d="M1249.3,1167.35a3.31,3.31,0,0,1-.58-1.79.66.66,0,0,0-.32-.56.56.56,0,0,0-.3-.06h0a.67.67,0,0,0-.56.7,4.46,4.46,0,0,0,.77,2.38,5.15,5.15,0,0,0,3.16,2l.52-1.11A4.12,4.12,0,0,1,1249.3,1167.35Z" transform="translate(-1029.05 -931.3)"/><polygon class="cls-7" points="254.2 283.42 260.35 304.53 265.42 304.36 265.47 284.74 257.67 279.36 254.2 283.42"/><path class="cls-12" d="M1258.87,1170.74s13.1,16.19,15.32,18.76l13.27-13.15a17.4,17.4,0,0,1,4,3.09s-5.35,12.41-10,15.67l-9.23,6.23,1.76,4.23-3.3,2.58L1269,1204l-4.75-10.58-4.5-14.07-.86-7Z" transform="translate(-1029.05 -931.3)"/><path class="cls-2" d="M1258.92,1172.34s5.53,9,6.67,12.53.23,3.77.74,8,4.38,15.55,4.38,15.55l-6.43,4.35s-3.48-11.15-3.48-11.61-3.24-20.88-3.24-20.88l-2.68-7.6Z" transform="translate(-1029.05 -931.3)"/><path class="cls-8" d="M1264.9,1212.32s11-10,19.6-12,30.58,34.6,30.58,34.6l-4.55,2.18s-19.88-14.36-23.64-20.77c0,0-16.23,20.77-21.64,21.28s-12.36,2.46-18.63-8.69S1264.9,1212.32,1264.9,1212.32Z" transform="translate(-1029.05 -931.3)"/><path class="cls-13" d="M1253.91,1163.54l-2.45,6.63s1.78,4,7.71,2.55c0,0-.62-1.41.39-4.24S1253.91,1163.54,1253.91,1163.54Z" transform="translate(-1029.05 -931.3)"/><path class="cls-14" d="M1253.91,1163.54l-1.15,3.09c.54,2.32,2.48,4,6.23,4.58a8.88,8.88,0,0,1,.57-2.73C1260.58,1165.58,1253.91,1163.54,1253.91,1163.54Z" transform="translate(-1029.05 -931.3)"/><path class="cls-13" d="M1282.9,1193.11l1.27-.39.34-2.56a.24.24,0,0,1,.38-.15c.72.63.55,2.62.55,2.62h5.36a.55.55,0,0,1,0,1.09l-1,.17c.26.36-.09.93-.09.93.15.34-.19.83-.19.83,0,.71-.5,1-2,1.21a30.36,30.36,0,0,0-4.33,1.53Z" transform="translate(-1029.05 -931.3)"/><path class="cls-11" d="M1251.63,1169.05s-11.27,13.65-9.74,37.67,1.8,24.19,1.8,24.19,6.92-.74,12-4.86a59.87,59.87,0,0,1,11.4-6.92l-4.16-13.56s5.41.18,9.34-1.48,12.13-6.07,12.13-6.07-.68-4.06-1.54-5.31c0,0-10.42,3.2-15.66,3.26C1267.24,1196,1261.15,1177.09,1251.63,1169.05Z" transform="translate(-1029.05 -931.3)"/><path class="cls-3" d="M1252.45,1173.43a47.58,47.58,0,0,1,4.78,4.85,56.08,56.08,0,0,1,4.14,5.44l.47.71c.16.24.32.47.46.72l.89,1.46c.15.24.28.5.42.75l.4.75.41.75c.13.25.25.52.37.77l.73,1.55.64,1.58.32.8.26.81c.18.54.36,1.08.53,1.62-.21-.52-.42-1-.62-1.58l-.31-.8-.35-.77-.7-1.56-.77-1.51c-.13-.25-.25-.51-.39-.76l-.41-.74-.42-.74c-.14-.24-.27-.49-.42-.73l-.89-1.45-.46-.71-.48-.71q-1.89-2.82-4-5.45l-1.09-1.31c-.37-.42-.74-.85-1.12-1.27C1254,1175.05,1253.25,1174.23,1252.45,1173.43Z" transform="translate(-1029.05 -931.3)"/><path class="cls-3" d="M1247.58,1183c.92,2.1,1.92,4.17,2.94,6.22.52,1,1,2,1.59,3s1.1,2,1.68,3,1.19,2,1.82,2.9c.31.48.64,1,1,1.42s.67.92,1,1.36a25,25,0,0,0,2.27,2.55,11.79,11.79,0,0,0,2.73,2,11,11,0,0,1-2.86-1.9,21.56,21.56,0,0,1-2.37-2.5,32.54,32.54,0,0,1-2.07-2.76c-.65-1-1.26-1.93-1.85-2.92-1.16-2-2.23-4-3.21-6.09S1248.37,1185.11,1247.58,1183Z" transform="translate(-1029.05 -931.3)"/><path class="cls-3" d="M1265.79,1196a19.6,19.6,0,0,0,2.17-.14c.73-.09,1.45-.18,2.16-.3,1.44-.23,2.87-.49,4.29-.81s2.83-.64,4.25-1l4.24-1.06-2.07.71-2.09.64-2.12.57c-.71.16-1.42.34-2.13.49-1.43.31-2.87.56-4.33.73A20.62,20.62,0,0,1,1265.79,1196Z" transform="translate(-1029.05 -931.3)"/><path class="cls-3" d="M1274.19,1189.5c-.29.3-.58.58-.85.87l-.41.45-.41.46a3.29,3.29,0,0,1,.68-1,3.55,3.55,0,0,1,.46-.41A2.62,2.62,0,0,1,1274.19,1189.5Z" transform="translate(-1029.05 -931.3)"/><path class="cls-2" d="M1289.19,1214c-.23.29-.47.56-.72.83s-.51.53-.78.77a5.68,5.68,0,0,1-.6.5,11.47,11.47,0,0,0,.43-1.29,12.8,12.8,0,0,0,.36-1.63,10.23,10.23,0,0,0,.13-1.66,7.71,7.71,0,0,0-.15-1.66,10.24,10.24,0,0,1,.05,1.66,11.45,11.45,0,0,1-.19,1.64,14.82,14.82,0,0,1-.37,1.6,15.93,15.93,0,0,1-.54,1.56l-.12.28.25-.17a7.37,7.37,0,0,0,.86-.71,9.58,9.58,0,0,0,.76-.8c.24-.28.48-.57.69-.87s.41-.61.6-.93C1289.63,1213.45,1289.42,1213.75,1289.19,1214Z" transform="translate(-1029.05 -931.3)"/><path class="cls-19" d="M1206.29,1218.84a6.69,6.69,0,0,1,3.64,5.71c.1,2.53-.09,5.59-1.34,7.07-2.34,2.78-41.57-1.27-41.57-1.27l-.61-4s-1.25-2.39-.78-8.51,31.66-3.59,31.66-3.59Z" transform="translate(-1029.05 -931.3)"/><path class="cls-17" d="M1208.89,1221.21a17,17,0,0,0-15.86-2.27c-7.83,2.84-15.53,10.83-23.76,5.86a7.53,7.53,0,0,1-2.49-10.65c1.37-2,3.77-4.15,7.92-5.86C1186.56,1203.42,1213.05,1206.89,1208.89,1221.21Z" transform="translate(-1029.05 -931.3)"/><path class="cls-17" d="M1166.41,1226.32a17.85,17.85,0,0,0,15.72,1.23c7.79-2.93,15.4-11,23.69-6.15a7.53,7.53,0,0,1,2.61,10.63c-1.34,2-3.71,4.19-7.85,6C1188.78,1243,1162.42,1240.68,1166.41,1226.32Z" transform="translate(-1029.05 -931.3)"/><path class="cls-2" d="M1206.46,1219.56a4.47,4.47,0,0,1,1.2.59,5.4,5.4,0,0,1,1,.87,5.88,5.88,0,0,1,1.31,2.37,8.2,8.2,0,0,1,.27,2.7,12.65,12.65,0,0,1-.46,2.67,13.65,13.65,0,0,1-1,2.53,12.62,12.62,0,0,1-1.49,2.26,11.28,11.28,0,0,1-4.25,3.22,11.08,11.08,0,0,0,2.21-1.48,13.29,13.29,0,0,0,1.83-1.92,12.86,12.86,0,0,0,1.4-2.23,13.66,13.66,0,0,0,.94-2.47,12.79,12.79,0,0,0,.47-2.6,8.17,8.17,0,0,0-.21-2.61,5.81,5.81,0,0,0-1.18-2.32A5.56,5.56,0,0,0,1206.46,1219.56Z" transform="translate(-1029.05 -931.3)"/><path class="cls-2" d="M1208.89,1221.21a12,12,0,0,0,.26-3.76,8.83,8.83,0,0,0-2.12-5.08,12.13,12.13,0,0,0-4.64-3.13,10.73,10.73,0,0,1,4.89,2.9,8.4,8.4,0,0,1,2.15,5.29A10.05,10.05,0,0,1,1208.89,1221.21Z" transform="translate(-1029.05 -931.3)"/><path class="cls-6" d="M1264.12,1070c-17.16.11-29.35,25-36.56,38.15-6.15,11.23-12.76,35.43-14.56,42.25l8.36.36,1.72-1.6c4.06-8.58,15-31,23.31-41.79a161.34,161.34,0,0,1,22.91-24.18,9.57,9.57,0,0,0,3.06-4.61C1274.67,1070.76,1264.12,1070,1264.12,1070Z" transform="translate(-1029.05 -931.3)"/><path class="cls-4" d="M1212.41,1150.38s7.83-30.94,15-44.08,19.4-38,36.56-38.15c0,0,10.55.76,8.24,8.58a9.57,9.57,0,0,1-3.06,4.61,161.34,161.34,0,0,0-22.91,24.18c-10.44,13.58-24.92,45.24-24.92,45.24Z" transform="translate(-1029.05 -931.3)"/><path class="cls-17" d="M1203.61,1145.94a54.42,54.42,0,0,0,23.28,2.2c9.81-.93-11.78,4.21-11.9,4.33a25.36,25.36,0,0,1-6.91-1.75c-3.21-1.26-4.4,2.64-5.8,1.3s-1.14-1.69-.74-2.2S1203.61,1145.94,1203.61,1145.94Z" transform="translate(-1029.05 -931.3)"/><path class="cls-20" d="M1199.64,1143.39a25.47,25.47,0,0,0,2.3,1.1c.78.33,1.57.64,2.37.91a41.38,41.38,0,0,0,4.86,1.39,45.87,45.87,0,0,0,10,1.11,58.44,58.44,0,0,0,10-.93c.84-.13,1.66-.29,2.47-.49a10.16,10.16,0,0,0,1.18-.35c.8-.32,1-.53-.27-1-.38-.14-.79-.26-1.2-.37-.82-.21-1.65-.39-2.49-.55a23.93,23.93,0,0,1,2.55.26,11,11,0,0,1,1.27.27c1.55.43,1.88,1.21.39,1.94a11.66,11.66,0,0,1-1.24.47c-.83.26-1.66.45-2.5.63a45.71,45.71,0,0,1-10.21,1.18,38.8,38.8,0,0,1-10.2-1.37,34.42,34.42,0,0,1-4.85-1.71c-.79-.35-1.56-.72-2.31-1.13A19.37,19.37,0,0,1,1199.64,1143.39Z" transform="translate(-1029.05 -931.3)"/><path class="cls-13" d="M1238.15,1083.58l-.22,0v.12l1.2,1.42.34.07a9.49,9.49,0,0,1,3.74.61C1244.61,1086.52,1243.07,1083.16,1238.15,1083.58Z" transform="translate(-1029.05 -931.3)"/><path class="cls-3" d="M1189.32,1102.59c-.63,1.36-1.26,2.71-1.92,4.06s-1.31,2.68-2,4l-2,4-1,2c-.34.67-.67,1.33-1,2,.5-1.42,1.13-2.78,1.75-4.14s1.29-2.7,1.95-4,1.35-2.66,2.05-4S1188.58,1103.89,1189.32,1102.59Z" transform="translate(-1029.05 -931.3)"/><path class="cls-3" d="M1178.61,1118.79a33.11,33.11,0,0,1,5.63-.31,39.55,39.55,0,0,1,5.64.52,27.57,27.57,0,0,1,10.59,3.78,32.46,32.46,0,0,0-10.65-3.44,47.33,47.33,0,0,0-5.58-.59c-.94,0-1.88-.08-2.82-.06S1179.54,1118.72,1178.61,1118.79Z" transform="translate(-1029.05 -931.3)"/><path class="cls-13" d="M1204.17,1123.77a10,10,0,0,0-6.46-.88l-.29.06c-1.59.34-1.53,1.21-1.42,1.61a.33.33,0,0,0,.29.21c.25,0,.56,0,1,.07,2.49.29,0,3.17,1,3.21,1.23.06,1-2.64,1.64-2.56,1.2.13-.33,2.47.46,2.64s.25-2.73,1.64-2.6c.74.07-.29,2.68.58,2.52s.24-2.52,1.08-2.45c1.25.11-.38,2.37.54,2.53C1204.72,1128.22,1205.54,1124.59,1204.17,1123.77Z" transform="translate(-1029.05 -931.3)"/><path class="cls-3" d="M1185.57,1097.19a3.29,3.29,0,0,1-.4.62,6.33,6.33,0,0,1-.47.56c-.17.17-.34.34-.53.5a3.82,3.82,0,0,1-.6.43,3.29,3.29,0,0,1,.4-.62c.15-.2.31-.38.47-.56l.53-.5A3.64,3.64,0,0,1,1185.57,1097.19Z" transform="translate(-1029.05 -931.3)"/><path class="cls-3" d="M1188.16,1099.8a3.81,3.81,0,0,1,.08.74,6.59,6.59,0,0,1-.12,1.45,3.83,3.83,0,0,1-.19.72,3.11,3.11,0,0,1-.08-.74,6.59,6.59,0,0,1,.12-1.45A3.83,3.83,0,0,1,1188.16,1099.8Z" transform="translate(-1029.05 -931.3)"/><path class="cls-3" d="M1209,1100.32a3.64,3.64,0,0,1,.74,0,5.57,5.57,0,0,1,.71.14,6.12,6.12,0,0,1,.69.22,3.39,3.39,0,0,1,.67.31,4.59,4.59,0,0,1-.74,0c-.24,0-.47-.09-.71-.15a6,6,0,0,1-.69-.21A3.73,3.73,0,0,1,1209,1100.32Z" transform="translate(-1029.05 -931.3)"/><path class="cls-3" d="M1215.76,1106.64a4.19,4.19,0,0,1,.56-.48c.2-.15.4-.28.61-.41a6.42,6.42,0,0,1,.64-.33,3.86,3.86,0,0,1,.7-.25,3.71,3.71,0,0,1-.56.49,6.25,6.25,0,0,1-.6.4c-.21.12-.43.23-.65.33A3.86,3.86,0,0,1,1215.76,1106.64Z" transform="translate(-1029.05 -931.3)"/><path class="cls-3" d="M1115.19,1233.82v3.88a.58.58,0,0,1-.58.59h-9a.66.66,0,0,1-.35-1.22l5.06-3.25A4.79,4.79,0,0,0,1115.19,1233.82Z" transform="translate(-1029.05 -931.3)"/><path class="cls-3" d="M1221.14,1098.19a3.26,3.26,0,0,1,.52-.53c.18-.15.37-.3.57-.44a4.9,4.9,0,0,1,.62-.38.37.37,0,1,1,.16.22c-.19.16-.38.31-.58.45a4.9,4.9,0,0,1-.62.38A3.11,3.11,0,0,1,1221.14,1098.19Z" transform="translate(-1029.05 -931.3)"/><path class="cls-3" d="M1223.5,1102.18a3.64,3.64,0,0,1,.73,0,5.84,5.84,0,0,1,.73,0c.24,0,.48.08.71.13a4.41,4.41,0,0,1,.7.23,4.48,4.48,0,0,1-.73,0c-.25,0-.49,0-.73,0a5.57,5.57,0,0,1-.71-.14A3.55,3.55,0,0,1,1223.5,1102.18Z" transform="translate(-1029.05 -931.3)"/><path class="cls-3" d="M1230.21,1098.47a3.21,3.21,0,0,1,.24-.7,6.59,6.59,0,0,1,.33-.65,6.41,6.41,0,0,1,.4-.61.38.38,0,1,1,.24.14c-.1.22-.21.44-.33.65s-.26.41-.4.61A4.92,4.92,0,0,1,1230.21,1098.47Z" transform="translate(-1029.05 -931.3)"/><path class="cls-3" d="M1210,1111.08a3.61,3.61,0,0,1,.74,0c.25,0,.49.07.73.12s.47.13.7.21a3.55,3.55,0,0,1,.69.31,3.64,3.64,0,0,1-.74,0,5.4,5.4,0,0,1-.72-.13,4.44,4.44,0,0,1-.71-.21A4.12,4.12,0,0,1,1210,1111.08Z" transform="translate(-1029.05 -931.3)"/><path class="cls-3" d="M1183.44,1104.38a4.53,4.53,0,0,1,.08.73,5.88,5.88,0,0,1,0,.73,6.09,6.09,0,0,1-.1.73,4,4,0,0,1-.19.71,3.11,3.11,0,0,1-.08-.74,6,6,0,0,1,0-.73q0-.36.09-.72A4.41,4.41,0,0,1,1183.44,1104.38Z" transform="translate(-1029.05 -931.3)"/><path class="cls-3" d="M1174.56,1120.34a4.65,4.65,0,0,1,.08.74c0,.24,0,.48,0,.73a5.93,5.93,0,0,1-.1.72,3.55,3.55,0,0,1-.19.71,3,3,0,0,1-.08-.73,5.9,5.9,0,0,1,0-.73c0-.25.06-.49.1-.73A4.72,4.72,0,0,1,1174.56,1120.34Z" transform="translate(-1029.05 -931.3)"/><path class="cls-3" d="M1178.47,1106.35a5.2,5.2,0,0,1-.46.57c-.17.18-.35.34-.53.5a6.46,6.46,0,0,1-.59.44.38.38,0,1,1-.17-.22,6.15,6.15,0,0,1,.53-.49,4.92,4.92,0,0,1,.58-.44A3.09,3.09,0,0,1,1178.47,1106.35Z" transform="translate(-1029.05 -931.3)"/><path class="cls-3" d="M1172.08,1116.41a3.44,3.44,0,0,1-.17.72,5.54,5.54,0,0,1-.25.68,6.59,6.59,0,0,1-.33.65,3.56,3.56,0,0,1-.42.62,4.31,4.31,0,0,1,.17-.73c.07-.23.16-.46.25-.68s.21-.44.33-.65A3.49,3.49,0,0,1,1172.08,1116.41Z" transform="translate(-1029.05 -931.3)"/><path class="cls-3" d="M1179.6,1112.11a3.59,3.59,0,0,1-.46.57c-.17.18-.35.34-.53.5s-.38.3-.58.44a5.13,5.13,0,0,1-.65.36,4.41,4.41,0,0,1,.47-.58,6.15,6.15,0,0,1,.53-.49,4.92,4.92,0,0,1,.58-.44A3.63,3.63,0,0,1,1179.6,1112.11Z" transform="translate(-1029.05 -931.3)"/><path class="cls-13" d="M1132.92,1069.12a.18.18,0,0,0,.24-.2c-.22-1.08-.92-4.48-.65-4.6s1,2.88,1.31,2.91-.43-2.89-.08-3,1,2.6,1.11,2.61-.12-2.64.05-2.82.83,2.6,1,2.67.38-2,.56-2,.3,0,1.22,4.75a6.59,6.59,0,0,0,.36,2.16l-.69,1.41-2.13.07a63.72,63.72,0,0,1-4.59-4.46C1130.68,1068.38,1130.89,1068.32,1132.92,1069.12Z" transform="translate(-1029.05 -931.3)"/><path class="cls-13" d="M1111,1070.18a.19.19,0,0,1-.31-.07c-.29-1.07-1.22-4.41-1.5-4.4s.41,3,.15,3.2-.93-2.77-1.29-2.7.34,2.74.19,2.83-1.08-2.4-1.31-2.49.44,2.7.29,2.85-1.24-1.61-1.4-1.53-.29.1,1.07,4.78a6.57,6.57,0,0,1,.66,2.09l1.25.94,1.93-.91s2.21-5.87,2.06-6.08S1112.43,1068.54,1111,1070.18Z" transform="translate(-1029.05 -931.3)"/><polygon class="cls-13" points="98.87 177.19 98.84 185.37 106.75 184.14 105.43 174.94 98.87 177.19"/><path class="cls-14" d="M1135.09,1110.48l-.61-4.23-6.57,3v1.62A11.85,11.85,0,0,0,1135.09,1110.48Z" transform="translate(-1029.05 -931.3)"/><path class="cls-3" d="M1142.22,1233.39v4.26a.64.64,0,0,0,.63.64h9.94a.73.73,0,0,0,.39-1.34l-5.58-3.56A5.27,5.27,0,0,1,1142.22,1233.39Z" transform="translate(-1029.05 -931.3)"/><path class="cls-9" d="M1151.29,1161c0-.91,2.35,1.78,2.3,1-.92-15.13-30.37-2.45-30.37-2.45l-7.19,5.3-8.11,70.14s4.41,1.28,7.3.23l18-60.1,2.21-.86S1145.23,1167.41,1151.29,1161Z" transform="translate(-1029.05 -931.3)"/><path class="cls-21" d="M1153.63,1162.65c0,.17,0,.35,0,.54C1153.64,1163,1153.63,1162.82,1153.63,1162.65Z" transform="translate(-1029.05 -931.3)"/><path class="cls-21" d="M1153.65,1163.2c0,.19,0,.38,0,.58C1153.66,1163.58,1153.66,1163.39,1153.65,1163.2Z" transform="translate(-1029.05 -931.3)"/><path class="cls-21" d="M1153.67,1163.86c0,.21,0,.42,0,.63C1153.68,1164.28,1153.68,1164.07,1153.67,1163.86Z" transform="translate(-1029.05 -931.3)"/><path class="cls-21" d="M1153.59,1162l0,.51Z" transform="translate(-1029.05 -931.3)"/><path class="cls-10" d="M1153.59,1158.59c-6.07,6.43-18.19,15.7-18.19,15.7l-2.21.86,2.21-.86,6.83,60.73s4.87.93,7.65-.59C1149.88,1234.43,1154,1176.63,1153.59,1158.59Z" transform="translate(-1029.05 -931.3)"/><path class="cls-21" d="M1107.92,1235a18.87,18.87,0,0,0,4,.63,18.87,18.87,0,0,1-4-.63Z" transform="translate(-1029.05 -931.3)"/><path class="cls-21" d="M1114.37,1235.49a5.58,5.58,0,0,1-.59.09A5.58,5.58,0,0,0,1114.37,1235.49Z" transform="translate(-1029.05 -931.3)"/><path class="cls-21" d="M1111.94,1235.65a13,13,0,0,0,1.53,0A13,13,0,0,1,1111.94,1235.65Z" transform="translate(-1029.05 -931.3)"/><path class="cls-10" d="M1116,1164.88l-1.15,10c3.06,1.19,10.53,2.46,16.16-9.9,1.77-3.9,2.23-6.7,1.9-8.72a80.47,80.47,0,0,0-9.72,3.31Z" transform="translate(-1029.05 -931.3)"/><path class="cls-4" d="M1143.05,1124c-.34,0-5.44-11.6-5.44-11.6-4.36,3.07-10.28.93-10.28.93s-23.83,43.79-7.85,50.62,31-1.48,31-1.48,3.4-8.88,3.4-9.22S1143.39,1124,1143.05,1124Z" transform="translate(-1029.05 -931.3)"/><path class="cls-8" d="M1112,1074.86s-1,20.78.91,24.58c6.43,12.63,14.42,13.91,14.42,13.91s2.74,44.19.48,54.77c0,0-7.54,2.33-18.64-2.9,0,0,8.5-34.25,8-38.58,0,0-13.6-12.18-14-26.51a97.32,97.32,0,0,1,3.29-27.09Z" transform="translate(-1029.05 -931.3)"/><path class="cls-8" d="M1148.66,1166.53a202.49,202.49,0,0,0-4.59-32c-3.74-15.59-6.46-22.07-6.46-22.07,5-5.55,4.18-10.57,3.74-17.07-.51-7.52-7.82-22.54-7.82-22.54l4.93-3.24c23.63,28.51,10.54,51.21,10.54,51.21s8.84,31.41,10,41A71.83,71.83,0,0,1,1148.66,1166.53Z" transform="translate(-1029.05 -931.3)"/><path class="cls-2" d="M1117.44,1126.59a5.15,5.15,0,0,0,1-.9,9.71,9.71,0,0,0,1.88-4.11,12,12,0,0,1-2,4,5.15,5.15,0,0,1-1.1,1l.06.06a.28.28,0,0,1,0,.09,2.54,2.54,0,0,0,1.8-.42,8.67,8.67,0,0,0,1.51-1.09,11.34,11.34,0,0,1-1.57,1A3.27,3.27,0,0,1,1117.44,1126.59Z" transform="translate(-1029.05 -931.3)"/><path class="cls-2" d="M1148.82,1120.67a4.82,4.82,0,0,1-1.08-1,11.67,11.67,0,0,1-2-4,9.53,9.53,0,0,0,1.88,4.11,5.15,5.15,0,0,0,1,.9,2.06,2.06,0,0,1-.67-.07,5.12,5.12,0,0,1-.85-.32,11.11,11.11,0,0,1-1.57-1,8.4,8.4,0,0,0,1.51,1.09,4.7,4.7,0,0,0,.87.36,1.76,1.76,0,0,0,1,0l.18,0Z" transform="translate(-1029.05 -931.3)"/><polygon class="cls-4" points="107.5 108.42 107.5 108.42 107.5 108.42 88.04 107.31 70.16 114.52 70.14 114.53 70.14 114.53 70.14 114.53 70.14 114.53 89.6 115.63 107.48 108.42 107.5 108.42 107.5 108.42"/><polygon class="cls-5" points="74.29 140.21 70.16 114.52 89.6 115.63 93.75 141.31 74.29 140.21"/><polygon class="cls-6" points="107.48 108.42 111.65 134.1 93.75 141.31 89.6 115.63 107.48 108.42"/><polygon class="cls-4" points="169.41 96.01 169.41 96.01 169.41 96.01 158.05 83.54 142.67 77.18 142.65 77.17 142.65 77.17 142.65 77.17 142.65 77.17 154.02 89.64 169.39 96 169.41 96.01 169.41 96.01"/><polygon class="cls-5" points="129.8 95.56 142.67 77.18 154.02 89.64 141.17 108.02 129.8 95.56"/><polygon class="cls-6" points="169.39 96 156.56 114.39 141.17 108.02 154.02 89.64 169.39 96"/><polygon class="cls-4" points="180.9 10.1 180.9 10.1 180.9 10.1 161.34 17.8 147.06 32.94 147.05 32.96 147.05 32.96 147.05 32.96 147.05 32.96 166.6 25.25 180.88 10.11 180.9 10.1 180.9 10.1"/><polygon class="cls-5" points="162.62 56.24 147.06 32.94 166.6 25.25 182.18 48.53 162.62 56.24"/><polygon class="cls-6" points="180.88 10.11 196.47 33.37 182.18 48.53 166.6 25.25 180.88 10.11"/><rect class="cls-5" x="28.69" y="306.92" width="286.99" height="3.08" rx="1.25" ry="1.25"/><path class="cls-3" d="M1269.35,1149.06c.07,0,2.65,1.78.34,10.08a10.74,10.74,0,0,1-1.7.59l.37-4.2-1.47-5.45,1.79-1.44Z" transform="translate(-1029.05 -931.3)"/><path class="cls-22" d="M1267.53,1159.11a1.77,1.77,0,1,0,2.49-1.19A2,2,0,0,0,1267.53,1159.11Z" transform="translate(-1029.05 -931.3)"/><path class="cls-13" d="M1266.81,1165.54a8.6,8.6,0,0,0,.78-1.47,16.89,16.89,0,0,0,1.19-4.17c0-.28.11-.56.17-.83a9.19,9.19,0,1,0-18.09-2.75,2,2,0,0,0-1.77-.25,2.78,2.78,0,0,0,1.89,5.08,1.76,1.76,0,0,0,.42-.24,8.63,8.63,0,0,0,8,8.46,8.25,8.25,0,0,0,5.73-2l.33-.27A8.28,8.28,0,0,0,1266.81,1165.54Z" transform="translate(-1029.05 -931.3)"/><path class="cls-22" d="M1262.09,1156.94c0,.52,0,1,0,1.55a6.15,6.15,0,0,0,.07.75,2,2,0,0,0,.21.67l0,.06.06.08a1.13,1.13,0,0,1,.12.18,1,1,0,0,1,.1.21,1,1,0,0,1,0,.23,1,1,0,0,1-.36.8,1.65,1.65,0,0,1-.74.36,2.1,2.1,0,0,1-.79,0,3,3,0,0,0,.74-.16,1.49,1.49,0,0,0,.6-.39.77.77,0,0,0,.23-.59.8.8,0,0,0,0-.15.84.84,0,0,0-.06-.14,1.47,1.47,0,0,0-.1-.13l-.13-.18a2,2,0,0,1-.24-.8,4.29,4.29,0,0,1,0-.8A6.24,6.24,0,0,1,1262.09,1156.94Z" transform="translate(-1029.05 -931.3)"/><path class="cls-23" d="M1259,1157.64a.8.8,0,1,1-.76-.84A.8.8,0,0,1,1259,1157.64Z" transform="translate(-1029.05 -931.3)"/><path class="cls-23" d="M1265.89,1158.42a.8.8,0,1,1-.76-.84A.79.79,0,0,1,1265.89,1158.42Z" transform="translate(-1029.05 -931.3)"/><path class="cls-22" d="M1258.68,1163.75a2.68,2.68,0,0,1,2.21.38,2,2,0,0,1,2.08,0,2.22,2.22,0,0,1-2.4,1.54A2,2,0,0,1,1258.68,1163.75Z" transform="translate(-1029.05 -931.3)"/><path class="cls-23" d="M1257.7,1163.09a8.27,8.27,0,0,0,.66.51,7.24,7.24,0,0,0,.71.41,5.13,5.13,0,0,0,1.56.48,4.17,4.17,0,0,0,1.61-.12,6,6,0,0,0,1.5-.68,4.63,4.63,0,0,1-.68.48,4.16,4.16,0,0,1-.77.36,4,4,0,0,1-.83.18,4.12,4.12,0,0,1-.86,0,4.18,4.18,0,0,1-1.6-.55A4.76,4.76,0,0,1,1257.7,1163.09Z" transform="translate(-1029.05 -931.3)"/><path class="cls-3" d="M1260.05,1155.82a9.53,9.53,0,0,0-1.18-.28,4.06,4.06,0,0,0-2.18.26c-.18.06-.35.17-.53.25s-.35.2-.55.29a4.51,4.51,0,0,1,.35-.54,2.85,2.85,0,0,1,.49-.43,2.49,2.49,0,0,1,1.24-.48,2.69,2.69,0,0,1,1.32.17A2.63,2.63,0,0,1,1260.05,1155.82Z" transform="translate(-1029.05 -931.3)"/><path class="cls-3" d="M1263.58,1156.22a2.44,2.44,0,0,1,1.16-.54,2.73,2.73,0,0,1,1.33.08,2.55,2.55,0,0,1,1.12.72,2.49,2.49,0,0,1,.4.52,3.13,3.13,0,0,1,.24.6c-.18-.13-.32-.28-.48-.4s-.31-.25-.48-.34a3.66,3.66,0,0,0-1-.49,4,4,0,0,0-1.1-.2A10,10,0,0,0,1263.58,1156.22Z" transform="translate(-1029.05 -931.3)"/><path class="cls-22" d="M1212.91,1084.05a1.91,1.91,0,1,0,2.66-1.35A2.14,2.14,0,0,0,1212.91,1084.05Z" transform="translate(-1029.05 -931.3)"/><path class="cls-13" d="M1212.27,1091a9.19,9.19,0,0,0,.82-1.59,18.85,18.85,0,0,0,1.19-4.54,8.43,8.43,0,0,1,.17-.9,10.07,10.07,0,0,0,.08-3.84,9.92,9.92,0,0,0-19.69,1.26,2.14,2.14,0,0,0-1.92-.23,3,3,0,0,0,2.15,5.45,2.51,2.51,0,0,0,.45-.26,9.34,9.34,0,0,0,8.88,9,8.86,8.86,0,0,0,6.14-2.27,3,3,0,0,0,.35-.3A8.33,8.33,0,0,0,1212.27,1091Z" transform="translate(-1029.05 -931.3)"/><path class="cls-23" d="M1203.7,1082.64a.87.87,0,1,1-1.73,0,.88.88,0,0,1,.89-.85A.86.86,0,0,1,1203.7,1082.64Z" transform="translate(-1029.05 -931.3)"/><path class="cls-23" d="M1211.13,1083.33a.87.87,0,1,1-1.73,0,.86.86,0,0,1,.89-.84A.87.87,0,0,1,1211.13,1083.33Z" transform="translate(-1029.05 -931.3)"/><path class="cls-8" d="M1204.8,1081a8.38,8.38,0,0,0-1.23-.45,4.49,4.49,0,0,0-1.2-.15,4.08,4.08,0,0,0-1.19.21l-.15,0-.15.06-.3.12c-.2.08-.39.19-.61.27a4.51,4.51,0,0,1,.44-.54,3,3,0,0,1,.57-.41,2.72,2.72,0,0,1,1.38-.38,2.9,2.9,0,0,1,1.39.32A2.72,2.72,0,0,1,1204.8,1081Z" transform="translate(-1029.05 -931.3)"/><path class="cls-8" d="M1208.28,1081.22a2.67,2.67,0,0,1,1.17-.74,3.09,3.09,0,0,1,1.42-.1,2.85,2.85,0,0,1,1.31.59,3.31,3.31,0,0,1,.49.5,4.05,4.05,0,0,1,.36.59c-.21-.11-.38-.25-.56-.36l-.28-.16-.14-.08-.14-.07a3.79,3.79,0,0,0-1.15-.38,4.06,4.06,0,0,0-1.21,0A7.69,7.69,0,0,0,1208.28,1081.22Z" transform="translate(-1029.05 -931.3)"/><path class="cls-22" d="M1206.56,1081.92a13,13,0,0,1,.8,1.47,11.78,11.78,0,0,1,.62,1.56,4.47,4.47,0,0,1,.18.84v.24l0,.12a.39.39,0,0,1-.05.14l0,.07,0,0-.08.07-.18.13a4.17,4.17,0,0,1-.77.37,4.55,4.55,0,0,1-.8.23,9.28,9.28,0,0,0,1.41-.82.93.93,0,0,0,.15-.13l.07-.06,0,0h0a.78.78,0,0,0,0-.32,5.76,5.76,0,0,0-.19-.77c-.15-.52-.35-1-.53-1.56S1206.73,1082.45,1206.56,1081.92Z" transform="translate(-1029.05 -931.3)"/><path class="cls-8" d="M1198.68,1069.06s3-2.22,9.33-1.3,7.28,4.48,7.25,9.43l-.59,5.39s-1.76-1.46-3.53-6.53c0,0-3.9,3.85-5.41,3.23s.86-3.43.86-3.43-7.47,6-11.76,5.61c0,0-2-7.87,1.44-10.39,0,0-2.4-.08-2.49-.58s1.24-1.12,3.52-.66c0,0-1.38-3.46-.43-3.73S1198.68,1069.06,1198.68,1069.06Z" transform="translate(-1029.05 -931.3)"/><path class="cls-2" d="M1208.62,1089.3a3.34,3.34,0,0,1-5.94-.72Z" transform="translate(-1029.05 -931.3)"/><polygon class="cls-3" points="110.22 160.49 110.7 166.11 109.82 166.67 108.19 159.83 110.22 160.49"/><path class="cls-22" d="M1138.08,1096.83a1.92,1.92,0,1,0,2.28-1.95A2.17,2.17,0,0,0,1138.08,1096.83Z" transform="translate(-1029.05 -931.3)"/><path class="cls-13" d="M1139.53,1102a18.25,18.25,0,0,0,.08-4.71c0-.31,0-.62,0-.93a10,10,0,1,0-19.75,2.21,2.14,2.14,0,0,0-1.93.23,3,3,0,0,0,3.4,4.81,2.22,2.22,0,0,0,.38-.37,9.35,9.35,0,0,0,10.8,6.61A9.19,9.19,0,0,0,1139.53,1102Z" transform="translate(-1029.05 -931.3)"/><path class="cls-23" d="M1128.76,1097.68a.87.87,0,1,1-1-.67A.85.85,0,0,1,1128.76,1097.68Z" transform="translate(-1029.05 -931.3)"/><path class="cls-23" d="M1136.17,1096.56a.87.87,0,1,1-1.7.37.88.88,0,0,1,.67-1A.87.87,0,0,1,1136.17,1096.56Z" transform="translate(-1029.05 -931.3)"/><path class="cls-22" d="M1129.87,1103.65a5.68,5.68,0,0,0,1.4.48,4.76,4.76,0,0,0,1.46.06,4,4,0,0,0,1.37-.48,5.38,5.38,0,0,0,1.13-1,4.1,4.1,0,0,1-1.06,1.06,3.48,3.48,0,0,1-1.42.54,3.85,3.85,0,0,1-1.51-.1A4.45,4.45,0,0,1,1129.87,1103.65Z" transform="translate(-1029.05 -931.3)"/><path class="cls-3" d="M1129.42,1095.76a7.48,7.48,0,0,0-1.3-.14,4.41,4.41,0,0,0-1.21.14,4,4,0,0,0-1.11.49,10.69,10.69,0,0,0-1.07.77,2.88,2.88,0,0,1,.77-1.17,2.77,2.77,0,0,1,1.25-.7,2.89,2.89,0,0,1,1.43,0A2.71,2.71,0,0,1,1129.42,1095.76Z" transform="translate(-1029.05 -931.3)"/><path class="cls-3" d="M1132.88,1095.19a2.66,2.66,0,0,1,1-1,3,3,0,0,1,1.37-.44,2.84,2.84,0,0,1,1.41.26,2.89,2.89,0,0,1,1.1.86c-.32-.08-.71-.28-1.26-.39a4.13,4.13,0,0,0-1.21-.1,4.51,4.51,0,0,0-1.19.25A9,9,0,0,0,1132.88,1095.19Z" transform="translate(-1029.05 -931.3)"/><path class="cls-22" d="M1131.37,1096.29a12,12,0,0,1,1.14,1.23,12.2,12.2,0,0,1,1,1.38,3.21,3.21,0,0,1,.43,1c0,.18,0,.36-.29.66a3.44,3.44,0,0,1-.66.55,4.77,4.77,0,0,1-.73.42,9.22,9.22,0,0,0,1.19-1.14,3,3,0,0,0,.19-.3.56.56,0,0,0-.06-.31,4.84,4.84,0,0,0-.36-.72c-.28-.47-.59-.93-.89-1.39S1131.67,1096.76,1131.37,1096.29Z" transform="translate(-1029.05 -931.3)"/><path class="cls-3" d="M1138.23,1085.8s2.94-.56-.68-2.34-12.48-2.82-17.12,1.17c0,0-1.56-2-3-1.13s1.46,1.86,1.46,1.86-2,.38-2.33,1.47c-.28.81.91.57,1.56.39-1.07.44-4.19,3.4-.13,11.51.72-.34,5.37-7,5.37-7s9.34,3.08,7.64.53c0,0,10.89,2.75,8.25-2.21C1139.29,1090.05,1143.31,1089.44,1138.23,1085.8Z" transform="translate(-1029.05 -931.3)"/><path class="cls-3" d="M1118,1098.73a1.91,1.91,0,0,1,1.78-.14c1.08.4,1.76,2.83,1.76,2.83s3.53,2.9,1.81-9.74c-1.69-12.42-4,2.06-4,2.06Z" transform="translate(-1029.05 -931.3)"/><path class="cls-22" d="M1267.53,1159.11a1.77,1.77,0,1,0,2.49-1.19A2,2,0,0,0,1267.53,1159.11Z" transform="translate(-1029.05 -931.3)"/><path class="cls-13" d="M1267.59,1164.07a16.89,16.89,0,0,0,1.19-4.17c0-.28.11-.56.17-.83a9.19,9.19,0,1,0-18.09-2.75,2,2,0,0,0-1.77-.25,2.78,2.78,0,0,0,1.89,5.08,1.76,1.76,0,0,0,.42-.24,8.63,8.63,0,0,0,8,8.46A8.43,8.43,0,0,0,1267.59,1164.07Z" transform="translate(-1029.05 -931.3)"/><path class="cls-22" d="M1262.09,1156.94c0,.52,0,1,0,1.55a6.15,6.15,0,0,0,.07.75,2,2,0,0,0,.21.67,1.92,1.92,0,0,1,.32.53,1,1,0,0,1-.33,1,1.65,1.65,0,0,1-.74.36,2.1,2.1,0,0,1-.79,0,3,3,0,0,0,.74-.16,1.49,1.49,0,0,0,.6-.39.74.74,0,0,0,.2-.74,2.08,2.08,0,0,0-.29-.45,2,2,0,0,1-.24-.8,4.29,4.29,0,0,1,0-.8A6.24,6.24,0,0,1,1262.09,1156.94Z" transform="translate(-1029.05 -931.3)"/><path class="cls-23" d="M1259,1157.64a.8.8,0,1,1-.76-.84A.8.8,0,0,1,1259,1157.64Z" transform="translate(-1029.05 -931.3)"/><path class="cls-23" d="M1265.89,1158.42a.8.8,0,1,1-.76-.84A.79.79,0,0,1,1265.89,1158.42Z" transform="translate(-1029.05 -931.3)"/><path class="cls-24" d="M1258.68,1163.75a2.68,2.68,0,0,1,2.21.38,2,2,0,0,1,2.08,0,2.22,2.22,0,0,1-2.4,1.54A2,2,0,0,1,1258.68,1163.75Z" transform="translate(-1029.05 -931.3)"/><path class="cls-22" d="M1257.7,1163.09a8.27,8.27,0,0,0,.66.51,7.24,7.24,0,0,0,.71.41,5.13,5.13,0,0,0,1.56.48,4.17,4.17,0,0,0,1.61-.12,6,6,0,0,0,1.5-.68,4.63,4.63,0,0,1-.68.48,4.16,4.16,0,0,1-.77.36,4,4,0,0,1-.83.18,4.12,4.12,0,0,1-.86,0,4.18,4.18,0,0,1-1.6-.55A4.76,4.76,0,0,1,1257.7,1163.09Z" transform="translate(-1029.05 -931.3)"/><path class="cls-3" d="M1260.05,1155.82a9.53,9.53,0,0,0-1.18-.28,4.06,4.06,0,0,0-2.18.26c-.18.06-.35.17-.53.25s-.35.2-.55.29a4.51,4.51,0,0,1,.35-.54,2.85,2.85,0,0,1,.49-.43,2.49,2.49,0,0,1,1.24-.48,2.69,2.69,0,0,1,1.32.17A2.63,2.63,0,0,1,1260.05,1155.82Z" transform="translate(-1029.05 -931.3)"/><path class="cls-3" d="M1263.58,1156.22a2.44,2.44,0,0,1,1.16-.54,2.73,2.73,0,0,1,1.33.08,2.55,2.55,0,0,1,1.12.72,2.49,2.49,0,0,1,.4.52,3.13,3.13,0,0,1,.24.6c-.18-.13-.32-.28-.48-.4s-.31-.25-.48-.34a3.66,3.66,0,0,0-1-.49,4,4,0,0,0-1.1-.2A10,10,0,0,0,1263.58,1156.22Z" transform="translate(-1029.05 -931.3)"/><path class="cls-3" d="M1254.17,1152.15c.12-.1,11.15,5.37,12.06,2.23,0,0,6.15,1.48,6.45-1.09s-2.33-3.37-2.33-3.37a2.05,2.05,0,0,0,2.2-1.68c.12-.65-.48-1.52-1.26-2.34a12.89,12.89,0,0,0-6.84-3.75,12.74,12.74,0,0,0-7.82.66s.55-2.14-.86-1.78-8,5.53-6.52,15c0,0,1.59-.52,3.07,1.78C1252.32,1157.8,1252.62,1153.48,1254.17,1152.15Z" transform="translate(-1029.05 -931.3)"/></g></g></svg>