<?xml version="1.0" encoding="UTF-8" standalone="no"?>
<!-- Created with Inkscape (http://www.inkscape.org/) -->

<svg
   xmlns:dc="http://purl.org/dc/elements/1.1/"
   xmlns:cc="http://creativecommons.org/ns#"
   xmlns:rdf="http://www.w3.org/1999/02/22-rdf-syntax-ns#"
   xmlns:svg="http://www.w3.org/2000/svg"
   xmlns="http://www.w3.org/2000/svg"
   xmlns:sodipodi="http://sodipodi.sourceforge.net/DTD/sodipodi-0.dtd"
   xmlns:inkscape="http://www.inkscape.org/namespaces/inkscape"
   version="1.1"
   id="svg9204"
   width="304"
   height="270"
   viewBox="0 0 304 270"
   sodipodi:docname="bike.svg"
   inkscape:version="0.92.3 (2405546, 2018-03-11)">
  <metadata
     id="metadata9210">
    <rdf:RDF>
      <cc:Work
         rdf:about="">
        <dc:format>image/svg+xml</dc:format>
        <dc:type
           rdf:resource="http://purl.org/dc/dcmitype/StillImage" />
        <dc:title></dc:title>
      </cc:Work>
    </rdf:RDF>
  </metadata>
  <defs
     id="defs9208" />
  <sodipodi:namedview
     pagecolor="#ffffff"
     bordercolor="#666666"
     borderopacity="1"
     objecttolerance="10"
     gridtolerance="10"
     guidetolerance="10"
     inkscape:pageopacity="0"
     inkscape:pageshadow="2"
     inkscape:window-width="1366"
     inkscape:window-height="705"
     id="namedview9206"
     showgrid="false"
     inkscape:zoom="0.87407407"
     inkscape:cx="152"
     inkscape:cy="135"
     inkscape:window-x="-8"
     inkscape:window-y="-8"
     inkscape:window-maximized="1"
     inkscape:current-layer="svg9204" />
  <path
     style="fill:#000000"
     d="m 213.29272,225.68065 c -5.40011,-2.93611 -18.09132,-13.12897 -20.84952,-16.74516 -3.14613,-4.12478 -5.43472,-11.30683 -5.43472,-17.05523 0,-4.37654 -1.01391,-5.44806 -5.15511,-5.44806 -3.07492,0 -1.84291,-3.32516 1.66729,-4.5 2.25863,-0.75595 2.91299,-1.52504 2.6812,-3.15133 -0.16864,-1.18322 0.40137,-4.58674 1.2667,-7.56336 2.03659,-7.0056 6.72666,-11.57293 16.76444,-16.3257 l 7.72453,-3.65746 -1.60507,-3.15108 c -2.37944,-4.67132 -9.67227,-15.65107 -10.39556,-15.65107 -0.77688,0 -1.73791,2.0425 -9.00864,19.14627 -6.81239,16.02557 -9.83681,22.09172 -13.36078,26.79801 -1.41845,1.89435 -2.579,4.20983 -2.579,5.1455 0,1.87739 -11.39188,7.91022 -14.93699,7.91022 -1.38832,0 -2.06301,0.64654 -2.06301,1.97695 0,2.74637 -4.18683,5.22477 -8.17923,4.84169 -3.05625,-0.29326 -3.30883,-0.57934 -3.17084,-3.59144 0.18222,-3.97776 3.00258,-8.57452 4.83055,-7.87306 0.73239,0.28104 2.12457,-0.36523 3.09374,-1.43615 0.96917,-1.07092 3.71064,-3.17807 6.09217,-4.68256 2.38152,-1.50449 4.33084,-3.08292 4.33182,-3.50763 9.9e-4,-0.42471 -1.7964,-4.34861 -3.99418,-8.71979 -10.60245,-21.08722 -13.91922,-33.54018 -10.61482,-39.85372 0.76407,-1.45986 2.98442,-6.02929 4.93411,-10.15429 2.03739,-4.31054 6.70824,-11.30163 10.98347,-16.43949 l 7.43857,-8.939495 -6.27349,-3.78372 -6.27349,-3.78372 -7.34919,1.57032 c -9.79934,2.09384 -12.83596,1.06844 -12.8796,-4.34914 -0.0483,-5.99799 -1.51365,-1.98047 -3.36477,9.22525 -2.13719,12.937395 -4.97602,18.924255 -9.10482,19.201285 -1.65,0.11071 -7.8375,0.5072 -13.75,0.88108 -12.84309,0.81215 -14.45506,2.61926 -3.25,3.64342 2.94955,0.2696 3,0.36986 3,5.96175 v 5.68754 l 3.5,0.70573 c 1.925,0.38815 9.12014,0.97875 15.9892,1.31246 10.71034,0.52031 12.53582,0.8509 12.81645,2.321 0.40813,2.13805 -1.31731,2.5593 -14.47167,3.53313 l -10.16602,0.7526 6.16602,7.14191 c 3.39131,3.92806 10.90849,12.47806 16.70485,19 14.40812,16.21175 16.11631,18.82699 11.873,18.17764 -1.14849,-0.17575 -11.00197,-9.28479 -21.89662,-20.2423 l -19.80844,-19.92275 -2.9609,5.85552 -2.96089,5.85553 5.37961,5.25218 c 14.13737,13.80248 16.30084,35.29532 5.27068,52.36112 -6.4777,10.02227 -15.6145,14.52358 -31.551205,15.54396 l -9.88407,0.63285 -6,-3.61475 c -4.37623,-2.63648 -7.55726,-5.70212 -11.75422,-11.32782 -7.11979,-9.54352 -9.8659,-16.43858 -10.50163,-26.368 -1.13338,-17.70204 8.20433,-30.5826 26.11449,-36.02264 5.86158,-1.7804 8.33071,-1.99201 16.59895,-1.42254 l 9.713095,0.66898 2.70577,-6.36641 c 2.51991,-5.92913 2.62108,-6.70421 1.47295,-11.28445 -1.26626,-5.0515 -6.55289,-11.87176 -10.066705,-12.987 -1.12952,-0.35849 -2.96102,0.38267 -4.82834,1.95392 -4.86048,4.08983 -7.95436,1.42526 -7.95436,-6.85059 0,-2.8326 0.47979,-4.72555 1.25,-4.93171 0.6875,-0.18401 9.31178,-1.29417 19.165085,-2.46702 9.85329,-1.17285 18.12727,-2.34464 18.38662,-2.60399 0.25934,-0.25935 0.38806,-4.259335 0.28602,-8.888865 -0.22806,-10.34738 1.5508,-21.25577 4.04374,-24.79714 2.11257,-3.00103 2.40759,-4.29682 0.74423,-3.2688 -0.61837,0.38217 -2.41837,3.54885 -4,7.03706 -2.57978,5.68958 -2.87569,7.41797 -2.87569,16.79676 0,11.834125 0.85784,10.75542 -10,12.574685 -3.575,0.599 -8.81443,1.5832 -11.643175,2.1871 -6.27699,1.34006 -11.13469,0.46975 -9.35398,-1.67588 1.77431,-2.137905 10.768095,-5.207325 17.514735,-5.977475 9.73733,-1.11154 9.48242,-0.91254 9.48242,-7.40281 0,-13.21956 4.46625,-28.27178 9.09967,-30.66781 3.46442,-1.79152 13.32121,-4.05715 21.54189,-4.9515 8.9866,-0.97768 16.35012,1.31268 32.71586,10.17601 24.26179,13.13966 26.60208,15.54852 25.97234,26.73327 -0.31303,5.5598 -0.22981,5.81562 1.41885,4.3613 2.96274,-2.61352 8.10019,-3.21435 10.31855,-1.20676 3.51402,3.18015 1.77891,7.026435 -4.19415,9.297395 -1.8815,0.71534 -2.80388,1.95978 -3.26179,4.40067 -0.35115,1.8718 -2.43233,7.11277 -4.62484,11.6466 -2.19251,4.53383 -3.98638,8.67309 -3.98638,9.19836 0,0.52526 1.6875,3.16898 3.75,5.87491 2.0625,2.70594 5.43803,7.39148 7.50117,10.41231 l 3.75117,5.49241 6.74882,-0.55239 c 7.84723,-0.64229 16.11452,0.6952 23.23734,3.75935 4.04839,1.74157 6.04429,3.55019 10.15545,9.20253 8.34074,11.46747 10.36448,16.71077 10.30808,26.70707 -0.0563,9.97299 -2.33574,16.75951 -8.19492,24.39825 -3.33907,4.35322 -4.81417,5.30699 -13.25712,8.57172 -16.68964,6.45357 -26.38364,7.72133 -32.71575,4.27848 z m 13.44492,-5.85262 c -0.3323,-0.33229 -1.1948,-0.36781 -1.91667,-0.0789 -0.79773,0.31922 -0.56078,0.55618 0.60417,0.60416 1.05416,0.0434 1.64479,-0.19293 1.3125,-0.52522 z m -12.27651,-3.3097 c -8.54627,-4.90205 -15.21451,-13.85494 -18.49831,-24.83613 -0.89757,-3.00153 -1.81193,-4.25 -3.11263,-4.25 -2.33295,0 -2.30871,0.73814 0.23691,7.21298 4.01879,10.22188 18.01189,24.7982 23.78626,24.77764 2.29675,-0.008 1.98699,-0.38115 -2.41223,-2.90449 z M 91.014155,216.6822 c 0.003,-0.9625 -0.52978,-6.475 -1.18423,-12.25 -1.05943,-9.34855 -1.90334,-11.93272 -3.91383,-11.98469 -0.73369,-0.019 -5.74045,16.1502 -6.54901,21.1498 -0.65532,4.05206 -0.0539,4.41017 7.89139,4.69871 2.95472,0.1073 3.7512,-0.23495 3.75568,-1.61382 z m 9.994325,-1.75884 c 0,-0.17226 -0.87622,-2.71573 -1.947155,-5.65218 -1.07093,-2.93644 -2.6585,-7.92648 -3.52793,-11.08898 -1.53492,-5.58314 -3.03756,-7.18362 -4.11307,-4.38088 -0.28896,0.75302 0.1895,5.36552 1.06325,10.25 2.59506,14.50706 2.10492,13.42325 5.53041,12.22911 1.64697,-0.57413 2.994495,-1.18482 2.994495,-1.35707 z m 152.31691,-6.42019 c 5.73277,-6.3455 10.05339,-15.66215 10.00646,-21.57719 -0.0715,-9.00568 -2.76036,-15.77165 -8.90592,-22.40959 -5.63369,-6.08506 -15.64219,-12.15123 -19.82718,-12.01729 -1.1751,0.0376 -0.24282,0.64422 2.12931,1.38552 2.32078,0.72524 5.55518,2.38264 7.18755,3.6831 1.63238,1.30046 4.15184,3.1962 5.5988,4.21275 4.23859,2.97778 2.29461,2.88757 -4.59812,-0.21337 -11.4391,-5.1463 -10.52745,-5.58382 -11.3367,5.4408 -0.38849,5.29233 -0.47979,9.84896 -0.20291,10.12584 0.27688,0.27689 2.0961,-2.65921 4.04271,-6.52465 3.27928,-6.51178 5.14715,-8.95215 6.11286,-7.98644 0.21489,0.21489 -1.3852,4.19745 -3.55576,8.85013 -2.17055,4.65268 -3.95132,9.0744 -3.95724,9.82605 -0.0125,1.58308 1.04263,1.33126 9.48922,-2.26475 3.3,-1.40492 6.84375,-2.56509 7.875,-2.57814 1.93378,-0.0245 1.93077,-1.01606 -0.0243,-8.02374 -0.61056,-2.18842 -0.50116,-2.3391 0.87781,-1.20898 0.86642,0.71006 1.88013,2.50555 2.2527,3.98998 0.37257,1.48443 1.19485,3.01877 1.82729,3.40964 0.63244,0.39087 1.01228,2.30788 0.8441,4.26002 -0.18624,2.16168 0.13819,3.54934 0.82984,3.54934 0.67031,0 0.80645,0.51219 0.33225,1.25 -0.44185,0.6875 -1.32403,4.27874 -1.96038,7.98052 -1.50905,8.77846 -4.43231,14.64157 -10.18336,20.42449 -3.41045,3.42935 -3.83538,4.12079 -1.57466,2.56228 1.70293,-1.17398 4.72723,-3.93983 6.72067,-6.14632 z m -176.415665,0.75542 c 1.14667,-3.39549 1.95058,-6.3079 1.78645,-6.47202 -0.16412,-0.16413 -1.68839,2.1216 -3.38726,5.0794 -2.23654,3.89389 -2.78693,5.67974 -1.99465,6.47202 0.60182,0.60182 1.1879,1.09421 1.30241,1.09421 0.1145,0 1.14638,-2.77812 2.29305,-6.17361 z M 232.5236,214.2504 c 0.4575,-0.45749 -1.41709,-15.87697 -2.01874,-16.60524 -0.30521,-0.36944 -13.89879,13.66571 -14.29638,14.76077 -0.80158,2.20774 14.25021,3.90939 16.31512,1.84447 z m -115.18442,-6.52506 c 7.76578,-11.7922 8.86251,-26.37311 2.89421,-38.47847 -3.33197,-6.75815 -10.33983,-14.47971 -12.13464,-13.37046 -1.57074,0.97077 -1.34494,2.59075 0.27448,1.96932 2.04444,-0.78453 6.25801,4.84652 8.75891,11.70548 1.21799,3.34044 2.81085,6.30236 3.53969,6.58205 0.72884,0.27968 1.05251,0.94968 0.71926,1.48888 -0.33325,0.53921 -0.68656,4.65455 -0.78514,9.14522 -0.14643,6.67041 -0.77919,9.62859 -3.45708,16.16205 -1.80282,4.39846 -4.00919,8.80533 -4.90305,9.79303 -1.34088,1.48165 -1.36241,1.69498 -0.12306,1.2194 0.82618,-0.31703 3.17357,-3.11446 5.21642,-6.2165 z m 121.25132,3.45686 c -0.25085,-1.2375 -0.72766,-4.275 -1.0596,-6.75 -0.90078,-6.71652 -2.50909,-12.12628 -3.43499,-11.55404 -0.91133,0.56323 -0.66345,2.70297 1.54122,13.30404 0.82927,3.9875 1.93564,7.25 2.4586,7.25 0.52297,0 0.74561,-1.0125 0.49477,-2.25 z m -130.49195,-1.99391 c 4.13879,-4.1388 7.81484,-12.15755 8.59563,-18.75009 l 0.60974,-5.14836 -9.53492,0.69991 c -5.24421,0.38495 -10.143655,0.3237 -10.887645,-0.13612 -2.12213,-1.31154 2.46383,-2.20801 11.877125,-2.32175 6.62236,-0.08 8.25,-0.39561 8.25,-1.59968 0,-0.825 -0.7875,-1.49193 -1.75,-1.48206 -2.9104,0.0298 -20.433255,2.83198 -20.951755,3.35048 -1.08489,1.08489 8.266235,28.63158 9.719405,28.63158 0.45568,0 2.28826,-1.45976 4.07242,-3.24391 z m 139.36353,-1.83642 c 4.26869,-4.72493 7.37763,-11.40925 8.24298,-17.72271 0.54982,-4.01138 0.42798,-4.37821 -1.29483,-3.89821 -1.04597,0.29142 -5.38926,1.27412 -9.65176,2.18376 -4.2625,0.90965 -7.75747,1.96072 -7.7666,2.3357 -0.0759,3.11837 4.72554,21.18179 5.63033,21.18179 0.63445,0 2.8124,-1.83615 4.83988,-4.08033 z M 74.098055,203.6822 c 2.37847,-3.7125 5.58133,-8.22816 7.11746,-10.0348 1.53613,-1.80663 2.79296,-3.92417 2.79296,-4.70564 0,-1.21497 -0.54336,-1.22542 -3.75,-0.0721 -3.6183,1.30135 -16.38279,6.6595 -17.10188,7.17886 -1.07682,0.77769 4.87415,14.38368 6.29113,14.38368 0.17921,0 2.27186,-3.0375 4.65033,-6.75 z M 227.57628,193.61564 c -0.82368,-0.17411 -5.2259,2.51893 -9.78269,5.98453 -4.55681,3.46561 -8.46985,6.4178 -8.69565,6.56043 -0.22579,0.14264 0.42226,1.17956 1.44011,2.30427 1.84161,2.03496 1.89137,2.00447 10.19323,-6.24387 5.41539,-5.38046 7.81713,-8.39987 6.845,-8.60536 z m -8.05315,1.26403 c 4.74663,-3.03638 6.90345,-5.44747 4.87299,-5.44747 -1.87744,0 -20.38764,9.48849 -20.38764,10.45087 0,0.63202 0.50863,1.65776 1.13029,2.27942 1.16964,1.16964 1.17635,1.16625 14.38436,-7.28282 z m -6.46086,-3.4383 11.4462,-4.99082 -7.99999,-4.8e-4 c -4.4,-2.7e-4 -10.31062,0.27714 -13.1347,0.61646 l -5.13471,0.61694 0.99175,3.62437 c 0.96115,3.51259 1.6344,5.12436 2.14047,5.12436 0.13463,0 5.39557,-2.24587 11.69098,-4.99083 z m -145.053795,-0.10132 3.5,-2.00832 -4.40462,0.58678 c -5.07259,0.67576 -6.36092,1.27502 -5.55268,2.58279 0.85465,1.38284 2.55716,1.07667 6.4573,-1.16125 z m 5.75,-5.12425 c 3.9875,-0.67896 7.25,-1.4818 7.25,-1.78407 0,-1.38075 -14.90868,-15.174 -15.8034,-14.62103 -1.67814,1.03714 -4.1966,9.68861 -4.1966,14.41622 0,4.32254 0.0718,4.42257 2.75,3.8309 1.5125,-0.33415 6.0125,-1.16306 10,-1.84202 z m 170.249995,-0.85321 c 9.77533,-2.21729 12,-3.04578 12,-4.46893 0,-1.96618 -0.71419,-1.87729 -9.1904,1.14395 -10.56324,3.76512 -11.94162,5.39636 -2.8096,3.32498 z M 83.371485,173.6822 c -1.29753,-5.3625 -2.3669,-10.425 -2.37639,-11.25 -0.041,-3.56626 -1.55043,-4.30082 -5.23998,-2.55001 -1.92713,0.91448 -4.57099,2.7989 -5.87526,4.18759 l -2.37138,2.5249 8.70686,8.41876 c 4.78878,4.63032 8.88876,8.41876 9.11108,8.41876 0.22232,0 -0.6574,-4.3875 -1.95493,-9.75 z m 110.111435,3.03456 c 0.84993,-4.53054 2.827,-8.50916 6.84988,-13.78456 l 3.05028,-4 -3.22116,2.96953 c -4.57978,4.22202 -10.97617,18.53047 -8.28378,18.53047 0.49927,0 1.22142,-1.67195 1.60478,-3.71544 z m -87.03915,1.19665 c 4.3644,-0.83515 8.14187,-1.72504 8.39437,-1.97754 0.87447,-0.87447 -3.16365,-9.92857 -5.4461,-12.21102 -3.23285,-3.23285 -4.18751,-2.90457 -6.4191,2.20735 -1.08045,2.475 -2.84847,6.525 -3.928925,9 -1.08046,2.475 -1.64296,4.49992 -1.25,4.49983 0.39295,-1e-4 4.285345,-0.68347 8.649755,-1.51862 z M 225.2217,176.1822 c -1.07244,-1.7875 -3.63988,-6.5125 -5.70543,-10.5 -2.06553,-3.9875 -4.39713,-7.25 -5.18132,-7.25 -2.31722,0 -7.58938,2.99894 -11.05763,6.28986 -3.03976,2.88434 -4.25202,5.42883 -5.69808,11.96014 l -0.60886,2.75 h 15.10061 15.1006 z m -136.938185,-9.55944 0.54275,-10.30945 -3.1589,0.67626 c -1.73739,0.37194 -3.25814,0.76044 -3.37944,0.86333 -0.1213,0.10288 0.95895,4.55757 2.40055,9.8993 1.4416,5.34173 2.71811,9.59248 2.83669,9.44612 0.11858,-0.14637 0.45984,-4.90537 0.75835,-10.57556 z M 189.03732,140.55688 c 1.65321,-3.53283 2.83145,-6.59773 2.6183,-6.81087 -0.41107,-0.41107 -27.93117,1.70117 -28.45445,2.18395 -0.16903,0.15594 1.32125,4.63167 3.31172,9.94606 1.99048,5.31439 4.55057,14.0261 5.6891,19.35936 1.13854,5.33325 2.27483,10.37182 2.5251,11.19682 0.25027,0.825 2.89614,-5.4642 5.87971,-13.97599 2.98357,-8.5118 6.77731,-18.3665 8.43052,-21.89933 z m -91.623985,16.72137 c -0.28759,-0.46533 -1.84634,-0.84605 -3.46388,-0.84605 h -2.94098 l 0.0499,10.25 0.0499,10.25 3.41394,-9.40395 c 1.87767,-5.17217 3.17865,-9.78467 2.89106,-10.25 z m 133.595135,9.77895 c 0,-2.40625 0.28125,-5.78125 0.625,-7.5 l 0.625,-3.125 h -5.11681 -5.11682 l 3.7111,7.5 c 2.04111,4.125 4.06242,7.5 4.49182,7.5 0.42939,0 0.78071,-1.96875 0.78071,-4.375 z m -140.577755,-15.67574 7.07776,-0.81617 -8.5,0.24228 c -4.675,0.13325 -9.4,0.79788 -10.5,1.47695 -1.7501,1.0804 -1.57239,1.15211 1.42224,0.57389 1.88224,-0.36343 6.60724,-1.02806 10.5,-1.47695 z m 140.327755,0.36141 c -0.9625,-0.25152 -2.5375,-0.25152 -3.5,0 -0.9625,0.25153 -0.175,0.45733 1.75,0.45733 1.925,0 2.7125,-0.2058 1.75,-0.45733 z m -48.51272,-23.01823 12.73727,-0.55698 6.09713,-11.45 c 3.35342,-6.29749 5.94665,-11.52547 5.76273,-11.61773 -0.18392,-0.0923 -1.75552,-0.91055 -3.49244,-1.81844 -3.12028,-1.63098 -3.192,-1.61462 -6,1.36918 -1.56308,1.66094 -9.47946,7.97279 -17.59196,14.02632 -8.1125,6.05353 -14.75,11.22739 -14.75,11.49745 0,0.27006 1.0125,0.17966 2.25,-0.2009 1.2375,-0.38056 7.98177,-0.94257 14.98727,-1.2489 z m 9.26273,-25.29244 c 0.33992,-0.55 0.16803,-1 -0.38197,-1 -0.55,0 -1.27811,0.45 -1.61803,1 -0.33992,0.55 -0.16803,1 0.38197,1 0.55,0 1.27811,-0.45 1.61803,-1 z M 108.3847,71.519925 c -1.71808,-1.04764 -4.86808,-3.99327 -7,-6.54584 -2.543725,-3.04561 -4.461835,-4.48846 -5.579745,-4.19723 -3.03206,0.78991 -5.03179,-1.73817 -5.53743,-7.00044 -0.51266,-5.33539 1.65198,-11.1476 5.42114,-14.556073 5.045255,-4.562456 14.906585,-6.16673 19.241695,-3.130301 2.29814,1.609677 2.31186,1.700735 0.47251,3.134533 -1.6341,1.273793 -1.65393,1.393821 -0.14439,0.873547 1.19119,-0.410552 1.75,-0.08968 1.75,1.004864 0,0.88441 1.38741,3.86285 3.08313,6.61874 2.53805,4.12486 2.96606,5.64716 2.42097,8.6106 -1.37712,7.48691 -6.96357,17.10644 -9.92841,17.09614 -0.59163,-0.002 -2.48139,-0.8609 -4.19947,-1.90854 z m 2.79826,-21.43008 c 5.52869,-7.19166 5.38015,-7.31781 -1.23159,-1.04595 -3.54359,3.36143 -7.25891,6.39575 -8.25627,6.74294 -0.99736,0.34718 -1.54727,1.06182 -1.22203,1.58808 0.94632,1.53117 7.20525,-2.72626 10.70989,-7.28507 z"
     id="path9757"
     inkscape:connector-curvature="0" />
</svg>
