<?xml version="1.0" encoding="UTF-8" standalone="no"?>
<!-- Created with Inkscape (http://www.inkscape.org/) -->

<svg
   xmlns:dc="http://purl.org/dc/elements/1.1/"
   xmlns:cc="http://creativecommons.org/ns#"
   xmlns:rdf="http://www.w3.org/1999/02/22-rdf-syntax-ns#"
   xmlns:svg="http://www.w3.org/2000/svg"
   xmlns="http://www.w3.org/2000/svg"
   xmlns:sodipodi="http://sodipodi.sourceforge.net/DTD/sodipodi-0.dtd"
   xmlns:inkscape="http://www.inkscape.org/namespaces/inkscape"
   version="1.1"
   id="svg815"
   width="252"
   height="241"
   viewBox="0 0 252 241"
   sodipodi:docname="boat.svg"
   inkscape:version="0.92.3 (2405546, 2018-03-11)">
  <metadata
     id="metadata821">
    <rdf:RDF>
      <cc:Work
         rdf:about="">
        <dc:format>image/svg+xml</dc:format>
        <dc:type
           rdf:resource="http://purl.org/dc/dcmitype/StillImage" />
        <dc:title></dc:title>
      </cc:Work>
    </rdf:RDF>
  </metadata>
  <defs
     id="defs819" />
  <sodipodi:namedview
     pagecolor="#ffffff"
     bordercolor="#666666"
     borderopacity="1"
     objecttolerance="10"
     gridtolerance="10"
     guidetolerance="10"
     inkscape:pageopacity="0"
     inkscape:pageshadow="2"
     inkscape:window-width="1366"
     inkscape:window-height="705"
     id="namedview817"
     showgrid="false"
     inkscape:zoom="2.2946058"
     inkscape:cx="126"
     inkscape:cy="120.5"
     inkscape:window-x="-8"
     inkscape:window-y="-8"
     inkscape:window-maximized="1"
     inkscape:current-layer="svg815" />
  <path
     style="fill:#000000"
     d="m 107.89066,213.65837 c -2.17315,-1.47669 -3.92673,-2.08966 -4.29116,-1.5 -0.33895,0.54843 -1.36698,0.99715 -2.28452,0.99715 -1.30823,0 -1.09298,-0.57528 0.99741,-2.66567 l 2.66568,-2.66568 3.65202,2.78554 c 3.10079,2.36509 4.32908,2.70922 8.13761,2.27994 3.10673,-0.35017 5.39544,-1.37728 7.44544,-3.34131 l 2.95985,-2.83571 2.27666,2.8552 c 2.15448,2.70198 2.61031,2.83106 8.49442,2.40544 5.38599,-0.38959 6.02685,-0.25882 4.79055,0.97747 -2.26263,2.26263 -10.14205,2.75671 -13.09604,0.82118 -2.34756,-1.53818 -2.73333,-1.51523 -6.25478,0.37216 -5.19826,2.7861 -10.9433,2.60599 -15.49314,-0.48571 z m -47.789394,0.80317 c -0.825,-0.29485 -1.981522,-1.13459 -2.570049,-1.86609 -0.888003,-1.10372 -1.786691,-1.08309 -5.282398,0.12128 -4.972054,1.71301 -11.619887,0.51068 -15.099268,-2.73085 -2.110905,-1.96661 -2.136179,-1.96622 -6.399504,0.0976 -4.584724,2.21944 -6.648781,2.59442 -6.648781,1.2079 0,-0.47528 2.023052,-1.63675 4.49567,-2.58106 2.472619,-0.9443 4.890543,-2.42251 5.373165,-3.2849 0.751504,-1.34287 1.436165,-1.11904 4.768479,1.55888 4.997632,4.01621 8.933097,4.79538 13.848109,2.74176 3.664237,-1.53102 3.948493,-1.51153 5.995052,0.41112 2.350234,2.20793 5.287266,2.51893 10.276127,1.08815 4.426279,-1.26944 4.256329,0.60901 -0.224483,2.48122 -3.560313,1.48759 -5.902376,1.69484 -8.532119,0.75499 z m 97.542714,-1.23692 c -0.31644,-0.512 -0.0924,-1.22936 0.49781,-1.59414 1.52179,-0.94052 6.16376,0.38549 5.44136,1.55436 -0.7653,1.23829 -5.18018,1.26786 -5.93917,0.0398 z m -69.939689,-6.49165 c -2.143337,-0.79356 -4.596001,-2.14186 -5.450366,-2.99622 -1.404521,-1.40452 -1.781498,-1.33909 -3.933589,0.68269 -3.397365,3.19166 -10.66195,3.14232 -13.27948,-0.0902 -1.764015,-2.17846 -2.026696,-2.22612 -4.134153,-0.75 -5.122593,3.58801 -16.902504,1.00046 -19.760977,-4.34065 -1.058089,-1.97705 -1.229486,-1.94352 -7.398153,1.4472 -6.114138,3.36075 -12.853194,4.69597 -15.486669,3.06839 -2.329513,-1.43972 -1.062776,-2.59866 2.840362,-2.59866 2.2,0 4,-0.17004 4,-0.37788 0,-0.20783 -0.675,-1.99337 -1.5,-3.96788 -2.069889,-4.95394 -1.952722,-10.34572 0.25,-11.50445 3.224622,-1.6963 13.667505,-2.23965 22.75,-1.18369 4.95,0.5755 13.725,1.47916 19.5,2.00814 5.775,0.52897 12.3,1.2242 14.5,1.54495 2.6383,0.38465 3.659575,0.24682 3,-0.40487 -0.55,-0.54343 -3.025,-1.12897 -5.5,-1.30119 -4.27014,-0.29714 -4.516006,-0.47914 -4.813358,-3.56313 l -0.313359,-3.25 5.313359,-0.0634 c 4.57721,-0.0546 4.966991,-0.20211 2.813358,-1.06471 -1.375,-0.55074 -3.51197,-0.80972 -4.748823,-0.57552 -1.236853,0.23421 -2.96233,-0.0959 -3.834395,-0.73357 -4.079737,-2.98318 -5.804062,-26.05198 -2.875863,-38.47461 2.173593,-9.22128 6.652678,-17.94072 12.004545,-23.36927 5.670811,-5.75207 8.689182,-6.06676 16.877207,-1.75961 3.413743,1.79574 6.304333,2.69768 7.351543,2.29389 1.29545,-0.4995 0.88366,-0.83839 -1.65141,-1.35904 -7.947237,-1.63218 -12.618761,-8.62552 -12.621237,-18.894165 -0.0018,-7.498582 2.508009,-12.927683 6.64968,-14.384231 4.320397,-1.519401 9.931267,0.191962 13.687597,4.174833 l 3.41444,3.620357 -0.64947,8.044521 c -0.43549,5.394235 -1.43731,9.654105 -3.04085,12.930155 l -2.39138,4.88562 7.04879,-0.65511 c 3.87684,-0.36032 9.03959,-1.15641 11.47279,-1.7691 4.37514,-1.10167 4.48535,-1.23676 9.97803,-12.230515 6.55731,-13.124636 11.57206,-19.836669 14.11018,-18.885877 1.3768,0.515756 1.49761,0.357947 0.60739,-0.793422 -0.61118,-0.790477 -1.37028,-3.124095 -1.6869,-5.185817 -0.4619,-3.007773 -0.20587,-3.946491 1.2955,-4.75 2.41595,-1.292978 5.30143,-1.293883 4.50264,-0.0014 -0.33992,0.55 0.35065,1 1.5346,1 1.31164,0 2.35697,0.781371 2.67565,2 0.28766,1.1 1.14553,2 1.90638,2 2.6751,0 1.33859,3.402588 -2.91848,7.430113 -5.6091,5.306639 -7.88018,8.66692 -11.19894,16.569883 -1.50129,3.575005 -3.62655,8.410855 -4.72281,10.746325 -1.09626,2.33548 -1.73389,4.92209 -1.41695,5.74802 0.73336,1.9111 -2.26307,3.89212 -9.81949,6.49191 -8.24473,2.8366 -14.13578,2.58014 -23.47652,-1.02203 -8.27737,-3.1921 -18.063444,-4.96124 -18.063444,-3.26555 0,0.53749 1.4625,1.03282 3.25,1.10072 1.7875,0.0679 8.370574,1.69623 14.629064,3.6185 13.15098,4.03927 19.75504,5.09933 41.12094,6.60058 8.525,0.599 15.81296,1.40239 16.19548,1.78531 0.38251,0.38291 4.76966,0.55178 9.74922,0.37526 l 9.05375,-0.32095 -2.86628,-4.17905 c -1.57645,-2.29848 -4.32285,-7.10405 -6.10311,-10.67905 -1.78026,-3.575 -6.16466,-11.78378 -9.74311,-18.241725 -5.79478,-10.457699 -7.12623,-14.759777 -4.56733,-14.757622 1.19117,0.001 10.24696,15.817552 18.27403,31.916867 3.9537,7.92964 8.5322,15.76118 10.17445,17.40343 2.07502,2.07502 2.81984,3.62101 2.4415,5.06775 -0.63428,2.42551 6.15722,14.56628 8.16374,14.59383 4.21862,0.0579 15.63412,14.91576 20.69098,26.93031 2.28965,5.43998 2.44678,6.50402 1.31184,8.88369 -1.73423,3.63623 -7.93014,4.34596 -11.1916,1.28197 -3.37465,-3.17032 -15.54737,-28.9044 -16.00154,-33.82852 -0.2156,-2.33751 -1.55975,-6.24264 -2.98701,-8.67807 -1.42726,-2.43543 -2.59501,-5.15125 -2.59501,-6.03516 0,-1.33234 -0.36593,-1.41128 -2.14022,-0.4617 -2.52223,1.34985 -10.88542,0.48017 -14.78765,-1.53775 -1.89724,-0.9811 -3.84449,-1.11516 -7.09362,-0.48836 -2.46318,0.47518 -7.55925,0.88356 -11.3246,0.90751 -3.76535,0.024 -9.30572,0.75858 -12.31192,1.63251 -3.65149,1.06151 -7.35395,1.39746 -11.15391,1.01206 -19.39977,-1.96759 -30.75041,-2.28416 -33.438084,-0.93258 -3.60776,1.81427 -3.523487,2.44979 0.141415,1.06644 1.962606,-0.7408 4.773369,-0.7932 8.750009,-0.16313 l 5.85858,0.92825 -0.29799,6 c -0.16389,3.3 -1.01626,9.825 -1.89416,14.5 -0.87789,4.675 -1.6438,9.52901 -1.70201,10.78669 -0.0582,1.25767 -0.78084,2.71328 -1.60584,3.23468 -1.90529,1.20415 -2.0021,1.21068 7.5,-0.50616 8.24844,-1.49032 24.19391,-1.97136 28.36209,-0.85561 2.1027,0.56285 2.30411,1.0646 1.83408,4.56893 -0.62974,4.69512 -0.68985,4.76713 -4.89542,5.86487 -2.03997,0.53248 2.2524,0.66013 11.23745,0.33419 7.99601,-0.29005 15.22278,-0.26467 16.0595,0.0564 1.32509,0.50848 1.23817,1.44994 -0.67395,7.29989 -1.32456,4.05232 -1.84534,7.15169 -1.31303,7.81432 0.55372,0.68929 0.099,1.80634 -1.22133,3 -2.47462,2.23728 -11.75821,2.58548 -14.2304,0.53374 -1.2455,-1.03367 -1.9994,-0.95501 -4.11165,0.42899 -3.65299,2.39353 -10.8472,1.469 -14.37335,-1.84712 l -2.67399,-2.51471 -4.9815,3.40045 c -6.18205,4.21997 -11.09512,4.5347 -15.21274,0.97453 l -2.80576,-2.42592 -2.21737,2.06958 c -2.83227,2.6435 -10.432156,3.30255 -15.679609,1.35971 z m 56.349699,-9.38246 1.22361,-2.69499 -2.58816,2.42431 c -2.80764,2.62989 -3.40218,4.32528 -1.22362,3.48929 0.7505,-0.28799 1.91518,-1.73637 2.58817,-3.21861 z m -45.145852,-3.72145 c -0.307887,-0.30789 -0.867048,0.24711 -1.242579,1.23333 -0.542685,1.4252 -0.427821,1.54006 0.559795,0.5598 0.683418,-0.67834 0.990671,-1.48524 0.682784,-1.79313 z m 78.443132,-59.13582 c -0.6875,-0.27741 -1.8125,-0.27741 -2.5,0 -0.6875,0.27741 -0.125,0.50439 1.25,0.50439 1.375,0 1.9375,-0.22698 1.25,-0.50439 z M 149.16633,64.283044 c -1.08657,-2.129859 -4.95685,-7.121096 -8.60061,-11.091637 -8.12313,-8.851622 -14.45102,-21.024924 -13.91998,-26.7786 0.4948,-5.360987 4.35919,-8.543915 9.29456,-7.655513 2.01353,0.362451 4.19436,1.081264 4.84627,1.597363 3.6983,2.927803 12.03012,30.473747 10.91056,36.071535 -0.33515,1.675783 0.0457,4.069297 0.91501,5.750335 0.81902,1.583817 1.48913,3.577015 1.48913,4.429328 0,2.936211 -2.96363,1.541268 -4.93494,-2.322811 z m -1.06506,-9.02054 c 0,-0.491156 -0.7118,-1.166156 -1.58179,-1.5 -2.44628,-0.938726 -2.7695,-0.735198 -1.41821,0.893011 1.37965,1.662377 3,1.990222 3,0.606989 z M 144.2353,32.50189 c -0.94083,-1.618622 -1.07696,-1.482488 -1.10362,1.103625 -0.0222,2.151326 0.26838,2.651208 1.07321,1.846375 0.79095,-0.790945 0.79957,-1.626739 0.0304,-2.95 z"
     id="path825"
     inkscape:connector-curvature="0" />
</svg>
