<?xml version="1.0" encoding="UTF-8" standalone="no"?>
<!-- Created with Inkscape (http://www.inkscape.org/) -->

<svg
   xmlns:dc="http://purl.org/dc/elements/1.1/"
   xmlns:cc="http://creativecommons.org/ns#"
   xmlns:rdf="http://www.w3.org/1999/02/22-rdf-syntax-ns#"
   xmlns:svg="http://www.w3.org/2000/svg"
   xmlns="http://www.w3.org/2000/svg"
   xmlns:sodipodi="http://sodipodi.sourceforge.net/DTD/sodipodi-0.dtd"
   xmlns:inkscape="http://www.inkscape.org/namespaces/inkscape"
   version="1.1"
   id="svg8094"
   width="368"
   height="389.33334"
   viewBox="0 0 368 389.33334"
   sodipodi:docname="images1.svg"
   inkscape:version="0.92.3 (2405546, 2018-03-11)">
  <metadata
     id="metadata8100">
    <rdf:RDF>
      <cc:Work
         rdf:about="">
        <dc:format>image/svg+xml</dc:format>
        <dc:type
           rdf:resource="http://purl.org/dc/dcmitype/StillImage" />
        <dc:title></dc:title>
      </cc:Work>
    </rdf:RDF>
  </metadata>
  <defs
     id="defs8098" />
  <sodipodi:namedview
     pagecolor="#ffffff"
     bordercolor="#666666"
     borderopacity="1"
     objecttolerance="10"
     gridtolerance="10"
     guidetolerance="10"
     inkscape:pageopacity="0"
     inkscape:pageshadow="2"
     inkscape:window-width="1366"
     inkscape:window-height="705"
     id="namedview8096"
     showgrid="false"
     inkscape:zoom="0.60616437"
     inkscape:cx="-84.079103"
     inkscape:cy="194.66667"
     inkscape:window-x="-8"
     inkscape:window-y="-8"
     inkscape:window-maximized="1"
     inkscape:current-layer="svg8094" />
  <path
     style="fill:#000000;stroke-width:1.6111269"
     d="m 182.79279,379.12709 c -2.10153,-1.12015 -2.94731,-3.5204 -2.94731,-8.36427 0,-5.98214 -0.72643,-7.30727 -6.08368,-11.09743 -3.34604,-2.36728 -6.75638,-4.99769 -7.5786,-5.84537 -4.58737,-4.72959 -21.56582,-27.90633 -28.22652,-38.5311 -7.42589,-11.84542 -7.71937,-12.78421 -7.4681,-23.88928 0.25437,-11.24268 0.19076,-11.43701 -2.32164,-7.09348 -3.04076,5.25693 -1.96472,16.5674 2.36699,24.88019 1.51704,2.91128 2.27878,5.73202 1.69274,6.26829 -2.34613,2.14704 -10.75982,-1.50878 -16.76262,-7.28348 -8.7028,-8.37209 -8.62443,-14.09068 0.34531,-25.2021 3.68464,-4.56442 7.52552,-8.7662 8.53526,-9.33731 1.00977,-0.57108 1.59767,-3.56916 1.30646,-6.66238 -0.7064,-7.50327 3.75235,-7.66028 6.52131,-0.22965 l 2.01017,5.39435 0.0951,-4.93032 c 0.0882,-4.58028 -0.68904,-5.27275 -10.94928,-9.75392 -14.70865,-6.42405 -34.8342,-24.82111 -38.466298,-35.16268 -3.735518,-10.63603 -4.614722,-19.75502 -3.083653,-31.98346 l 1.368885,-10.93315 -8.005048,7.85066 c -9.141476,8.96519 -12.235811,16.15632 -14.912303,34.65569 -2.715749,18.77071 -9.953657,35.04019 -18.425218,41.41645 -1.423463,1.07139 -4.861751,1.67459 -7.640644,1.34047 -2.778895,-0.33413 -6.416303,0.0458 -8.083133,0.84422 -1.666833,0.79845 -5.075601,1.23557 -7.575039,0.9714 -4.059207,-0.42904 -3.248906,-1.18285 7.588743,-7.05957 11.187587,-6.06647 17.332479,-11.30175 17.332479,-14.7668 0,-0.76703 -3.323999,1.40934 -7.386664,4.83635 -11.139577,9.39665 -20.161017,14.15859 -24.833489,13.10824 -5.2263035,-1.17487 -8.405384,-3.52458 -7.1945062,-5.31755 0.5327017,-0.78878 0.082737,-2.41078 -0.9997689,-3.60452 -1.0825711,-1.19372 -1.4959295,-3.53241 -0.918577,-5.19713 0.5773665,-1.6647 0.2610391,-3.47281 -0.7029474,-4.01803 -0.96397224,-0.5452 -1.75268574,-2.4224 -1.75268574,-4.17153 0,-2.48749 0.4928878,-2.80591 2.26272704,-1.46173 2.9162851,2.21489 17.2545972,-1.49825 23.6991052,-6.13727 6.265561,-4.51022 4.563815,-5.08446 -4.237787,-1.43003 -9.858786,4.09339 -14.9873234,4.09123 -14.9873234,-0.005 0,-1.73254 0.9473506,-3.03748 2.1052146,-2.89988 5.5249718,0.65658 7.8876258,-0.57883 12.0103938,-6.28001 4.235148,-5.85717 4.288453,-6.16555 1.065895,-6.16555 -6.83824,0 -3.816382,-5.82197 6.006553,-11.57232 5.169337,-3.02616 13.31655,-9.34187 18.104913,-14.03493 4.788364,-4.69306 13.836367,-11.34165 20.106675,-14.77469 10.229678,-5.60079 12.26283,-6.16603 19.796086,-5.50361 7.02587,0.61778 9.287317,0.12699 13.862105,-3.00871 11.32053,-7.7594 33.39213,-15.33488 38.97096,-13.37579 1.22376,0.42977 3.07494,3.37736 4.1137,6.5502 2.67535,8.17163 12.13087,17.62279 27.47495,27.46217 13.18883,8.45732 18.88708,13.77276 17.29378,16.13197 -1.4875,2.20256 2.54885,32.0082 5.08761,37.5687 2.14939,4.7076 3.20229,5.38192 8.40374,5.38192 5.46653,0 20.37448,-4.32634 19.05831,-5.53078 -0.31324,-0.28663 -4.26824,0.4975 -8.78894,1.74258 -6.62524,1.82466 -9.1161,1.9005 -12.84254,0.39103 -5.40153,-2.18803 -4.93973,0.35808 -5.96973,-32.91345 l -0.81397,-26.29251 -13.43507,-15.32107 c -13.76612,-15.69861 -20.47879,-26.56342 -22.35721,-36.18627 -0.92851,-4.75678 -0.008,-6.92067 7.21182,-16.95368 15.48824,-21.52313 36.84058,-39.769342 60.99873,-52.12518 11.50232,-5.882961 15.35256,-6.065099 18.39074,-0.870024 1.27774,2.184839 3.71746,4.655334 5.42164,5.489965 2.52607,1.237184 3.03421,3.147421 2.75058,10.340259 -0.31819,8.069481 0.19712,9.475881 6.03587,16.47277 3.5111,4.20751 7.14576,9.17845 8.07704,11.04651 1.62698,3.26359 2.16132,3.00556 13.65251,-6.59214 15.53483,-12.975021 23.75328,-16.594722 37.99232,-16.73311 7.18688,-0.06982 10.9331,0.486451 10.71335,1.590876 -0.18585,0.934064 3.74891,4.927152 8.74391,8.873519 14.69889,11.613115 36.22472,37.124605 36.22472,42.931995 0,0.97811 -1.62986,4.85949 -3.62192,8.62529 l -3.62191,6.84689 -10.04932,-0.96122 c -6.77071,-0.64764 -13.35679,-0.17694 -20.18705,1.44278 -5.57575,1.32221 -19.20901,3.37691 -30.29615,4.56608 -11.08715,1.18912 -21.02534,2.77926 -22.08492,3.53366 -6.05394,4.31022 -15.75307,2.41743 -23.82076,-4.64864 -1.8526,-1.62262 -9.43141,-6.98212 -16.8418,-11.91001 -7.41037,-4.92791 -16.04788,-11.44367 -19.19445,-14.47946 -5.20624,-5.02291 -5.78902,-6.53213 -6.4765,-16.77192 -0.4155,-6.18878 -0.0546,-15.93385 0.80177,-21.655717 1.72248,-11.507488 -0.0602,-13.956497 -2.96744,-4.07641 -1.69465,5.759389 -0.98483,30.123357 1.07874,37.026177 0.52383,1.75221 -1.67992,3.6871 -7.29809,6.40766 -7.07147,3.42434 -8.01905,4.47003 -7.80602,8.61432 0.13338,2.59427 3.74193,10.26906 8.01908,17.05504 8.93697,14.17909 12.65311,25.95593 9.87511,31.2954 -1.66208,3.19464 -6.67335,29.73085 -7.62559,40.37979 -0.39806,4.45155 -0.25784,4.53384 7.17281,4.20839 9.07104,-0.39731 14.09036,1.83654 10.10507,4.49727 -2.1098,1.40859 -2.01768,1.53563 0.5588,0.77063 1.69678,-0.5038 3.40201,-0.91601 3.7894,-0.91601 0.38736,0 0.70433,-1.32204 0.70433,-2.93785 0,-2.35664 -1.66602,-3.14757 -8.42089,-3.99774 -9.09507,-1.14475 -9.0723,-1.10968 -8.50855,-13.1006 0.70614,-15.01975 3.78243,-23.78257 10.64897,-30.33367 6.23574,-5.94931 6.83992,-7.29525 7.86393,-17.51891 1.09411,-10.92371 3.80737,-15.33842 9.42685,-15.33842 3.82397,0 12.27859,4.76032 14.86137,8.36759 4.13208,5.77115 13.47758,6.47337 24.68986,1.85513 10.90391,-4.49121 33.16052,-6.36708 32.31947,-2.72398 -5.78525,25.05966 -13.00946,50.20658 -16.33039,56.84486 -6.41538,12.8237 -5.96469,14.19838 7.97428,24.32215 6.71565,4.87756 17.32598,13.60132 23.57849,19.38612 9.5516,8.83711 11.3682,11.35513 11.3682,15.7574 0,2.97654 -1.51622,7.00352 -3.51055,9.32372 -1.93082,2.24632 -6.17014,10.14239 -9.4207,17.54686 -11.18227,25.47201 -18.54882,36.78052 -26.86458,41.24029 -4.12281,2.21106 -8.79194,3.79555 -10.37589,3.52107 -3.87349,-0.67126 -4.59923,-8.66956 -1.4187,-15.63557 2.242,-4.91054 3.21999,-5.50425 9.77798,-5.93597 l 7.2868,-0.4797 5.34796,-12.32996 c 6.35199,-14.64479 9.92121,-29.44967 8.41974,-34.92435 -0.89215,-3.25288 -3.38099,-4.7124 -14.16176,-8.30478 -7.19365,-2.39707 -20.99184,-7.2662 -30.66265,-10.82027 l -17.58327,-6.46193 -9.20618,2.89859 c -5.06341,1.59419 -10.60331,2.89859 -12.31091,2.89859 -1.70758,0 -3.10469,0.7957 -3.10469,1.76822 0,2.39554 -32.28185,0.48189 -43.25161,-2.56396 -10.61638,-2.94769 -10.09861,-3.06946 -12.24405,2.87961 -1.02476,2.84147 -4.08285,7.44153 -6.79577,10.22233 -2.71292,2.78077 -8.08731,10.6051 -11.94309,17.3874 l -7.01048,12.33145 4.78473,9.16119 c 5.23502,10.02337 8.5739,13.37965 6.77112,6.80644 -1.74097,-6.34788 1.86103,-6.3676 18.96247,-0.10367 17.59536,6.4447 25.46401,13.15353 25.46401,21.71057 0,3.92077 -1.14974,5.56777 -5.67237,8.12568 -10.04216,5.67968 -14.92275,3.15128 -11.46066,-5.9372 l 1.73712,-4.5602 -13.35428,-5.92574 c -7.34486,-3.25914 -13.35428,-5.6519 -13.35428,-5.31721 0,3.32797 13.42195,22.69102 17.49988,25.24603 10.28677,6.44516 14.2625,10.8111 15.3859,16.89608 1.98796,10.76803 -6.77081,17.1338 -16.46505,11.96663 z M 12.269742,246.70356 c 0.572491,-0.8477 -0.519601,-1.54124 -2.4268716,-1.54124 -1.9072558,0 -3.4677426,0.69354 -3.4677426,1.54124 0,0.84766 1.0920924,1.54122 2.4268714,1.54122 1.3347788,0 2.8952648,-0.69356 3.4677428,-1.54122 z m 100.208608,-4.62373 c 0,-0.84769 -0.80259,-1.54124 -1.78357,-1.54124 -0.98096,0 -1.31517,0.69355 -0.74268,1.54124 0.57246,0.84766 1.37507,1.54124 1.78357,1.54124 0.40848,0 0.74268,-0.69358 0.74268,-1.54124 z M 224.47621,220.5024 c -0.57248,-0.84769 -1.75405,-1.54125 -2.62567,-1.54125 -0.87162,0 -1.58478,0.69356 -1.58478,1.54125 0,0.84768 1.18156,1.54126 2.62567,1.54126 1.44411,0 2.15727,-0.69358 1.58478,-1.54126 z M 40.719126,209.63018 c 4.821926,-5.2442 6.012895,-9.23113 1.802189,-6.03313 -1.424448,1.08185 -4.982102,4.73106 -7.905903,8.10937 -4.174,4.82283 -4.561151,5.77264 -1.802188,4.42142 1.932582,-0.94651 5.490237,-3.87047 7.905902,-6.49766 z m 55.13228,-25.73233 c 2.094887,-2.44451 2.035329,-2.49901 -0.635889,-0.58191 -1.621006,1.16341 -2.947289,2.37714 -2.947289,2.69718 0,1.26851 1.383009,0.45206 3.583178,-2.11527 z m 229.078374,-36.81521 16.94786,-4.16778 -5.64911,-2.75523 c -7.36402,-3.59163 -11.07761,-3.57391 -12.33754,0.0589 -1.49486,4.31017 -4.91542,6.40216 -12.15056,7.43113 -21.78166,3.09781 -40.37712,-1.60174 -50.333,-12.72044 l -6.05455,-6.76171 3.08762,-4.79728 c 3.02119,-4.69402 3.01555,-4.8343 -0.26201,-6.5175 -1.84229,-0.9461 -7.0343,-4.87425 -11.53777,-8.7292 -7.56295,-6.47388 -8.12313,-7.45252 -7.33678,-12.81766 1.37882,-9.407475 -1.77456,-8.193399 -3.87243,1.49094 -1.05836,4.88561 -2.31833,10.14341 -2.79992,11.68402 -1.34974,4.31769 36.21788,38.56283 44.92233,40.9494 3.61306,0.99063 6.94366,2.35564 7.40133,3.03329 1.29034,1.91062 21.24953,-0.77603 39.97453,-5.38086 z m -44.0336,-8.17521 c 0,-2.14774 -3.09609,-3.50938 -5.23234,-2.30114 -1.29938,0.73491 -1.17186,1.45555 0.42105,2.37923 3.00641,1.7433 4.81129,1.71397 4.81129,-0.0782 z m 31.67276,-10.15108 c -0.54454,-0.49835 -2.7023,1.38793 -4.79501,4.1917 l -3.80491,5.09778 4.79501,-4.19171 c 2.63724,-2.30546 4.34946,-4.59945 3.80491,-5.09777 z m -43.15324,0.4787 c -1.2085,-1.10592 -1.99296,-1.19691 -1.99296,-0.23119 0,2.05722 1.99175,3.87992 3.11573,2.85131 0.4786,-0.43796 -0.0266,-1.61702 -1.12277,-2.62012 z m -102.57311,-2.80967 c -0.49408,-1.72899 -1.27465,-2.79925 -1.73458,-2.37834 -0.91114,0.8338 0.69826,5.52196 1.89561,5.52196 0.40551,0 0.33304,-1.41462 -0.161,-3.14362 z m 31.05096,-28.8372 c -0.38586,-2.33113 -0.7016,-0.42384 -0.7016,4.23842 0,4.66227 0.31574,6.56956 0.7016,4.23842 0.3859,-2.33113 0.3859,-6.1457 0,-8.47684 z m 40.05609,250.94735 c -12.41718,-2.74231 -14.6879,-5.87096 -10.12356,-13.94837 3.51726,-6.22435 9.00987,-7.53125 12.72242,-3.02713 l 2.91134,3.53209 7.34997,-5.21867 c 4.04248,-2.87026 11.99618,-8.89846 17.67488,-13.39598 l 10.32494,-8.17731 -2.22275,-10.37682 c -1.22249,-5.70726 -4.5384,-16.56473 -7.36868,-24.12772 -2.83031,-7.56301 -4.8954,-13.98023 -4.58916,-14.26051 0.76999,-0.70462 17.9713,4.79666 24.16935,7.72978 4.40133,2.08285 5.22596,3.49956 6.15424,10.57275 3.11818,23.76012 -0.39981,32.8959 -19.62955,50.97555 -8.31184,7.81469 -17.37437,14.66497 -22.61782,17.09651 -4.81197,2.23146 -8.96368,3.9862 -9.22606,3.89945 -0.26236,-0.0869 -2.75067,-0.65989 -5.52956,-1.27362 z M 171.80975,186.67316 c -3.77132,-2.50006 -10.70594,-8.7781 -15.41029,-13.95119 -8.17108,-8.98525 -8.55336,-9.81538 -8.55336,-18.5731 0,-9.00421 0.0837,-9.16744 4.69668,-9.16744 3.89834,0 5.66568,1.46313 10.39712,8.60741 3.13522,4.73406 8.83791,11.84306 12.67264,15.79775 9.7393,10.04397 12.65385,14.26406 12.65385,18.32201 0,5.13245 -7.90256,4.63522 -16.45664,-1.03544 z m 48.45242,-7.34482 c -0.003,-5.22992 -1.48841,-9.95288 -5.10828,-16.23727 -5.62278,-9.76173 -5.80553,-9.52327 6.79605,-8.86793 7.31276,0.38029 8.3627,1.84614 8.39512,11.72042 0.0317,9.64855 -2.64959,17.12112 -6.88807,19.19699 -2.92535,1.43272 -3.19154,0.94845 -3.19482,-5.81221 z M 248.47574,63.708347 c -4.08902,-2.355561 -4.6156,-3.573971 -4.49594,-10.402613 0.23609,-13.472822 3.29478,-20.898429 9.94326,-24.139416 8.48184,-4.134707 15.76842,-3.767705 18.51729,0.932657 2.88334,4.930344 1.28856,21.557058 -2.83982,29.60722 -2.69456,5.254246 -3.76449,5.943309 -9.75982,6.285686 -4.12166,0.235371 -8.52996,-0.650387 -11.36497,-2.283534 z"
     id="path8647"
     inkscape:connector-curvature="0" />
</svg>
