<?xml version="1.0" encoding="UTF-8" standalone="no"?>
<!-- Created with Inkscape (http://www.inkscape.org/) -->

<svg
   xmlns:dc="http://purl.org/dc/elements/1.1/"
   xmlns:cc="http://creativecommons.org/ns#"
   xmlns:rdf="http://www.w3.org/1999/02/22-rdf-syntax-ns#"
   xmlns:svg="http://www.w3.org/2000/svg"
   xmlns="http://www.w3.org/2000/svg"
   xmlns:sodipodi="http://sodipodi.sourceforge.net/DTD/sodipodi-0.dtd"
   xmlns:inkscape="http://www.inkscape.org/namespaces/inkscape"
   version="1.1"
   id="svg2776"
   width="610.66669"
   height="492"
   viewBox="0 0 610.66669 492"
   sodipodi:docname="mointains4.svg"
   inkscape:version="0.92.3 (2405546, 2018-03-11)">
  <metadata
     id="metadata2782">
    <rdf:RDF>
      <cc:Work
         rdf:about="">
        <dc:format>image/svg+xml</dc:format>
        <dc:type
           rdf:resource="http://purl.org/dc/dcmitype/StillImage" />
        <dc:title></dc:title>
      </cc:Work>
    </rdf:RDF>
  </metadata>
  <defs
     id="defs2780" />
  <sodipodi:namedview
     pagecolor="#ffffff"
     bordercolor="#666666"
     borderopacity="1"
     objecttolerance="10"
     gridtolerance="10"
     guidetolerance="10"
     inkscape:pageopacity="0"
     inkscape:pageshadow="2"
     inkscape:window-width="1366"
     inkscape:window-height="705"
     id="namedview2778"
     showgrid="false"
     inkscape:zoom="0.4796748"
     inkscape:cx="305.33334"
     inkscape:cy="246"
     inkscape:window-x="-8"
     inkscape:window-y="-8"
     inkscape:window-maximized="1"
     inkscape:current-layer="svg2776" />
  <path
     style="fill:#000000;stroke-width:1.33333337"
     d="m 126.9958,431.76541 -0.41388,-6.51682 -6.54622,-0.66666 -6.54622,-0.66667 5.55006,-5 c 3.05253,-2.75 6.18375,-5 6.95825,-5 0.7745,0 1.03372,-0.60588 0.57605,-1.3464 -0.81337,-1.31607 5.2482,-7.26501 10.24662,-10.05623 1.38146,-0.77144 2.17709,-1.7373 1.76805,-2.14634 -0.92419,-0.92419 9.47617,-10.45103 11.40928,-10.45103 0.77449,0 1.09612,-0.50493 0.71471,-1.12207 -1.18858,-1.92314 7.43014,-8.99642 17.86942,-14.66518 5.5,-2.98664 12.96975,-8.44848 16.59943,-12.13746 l 6.59944,-6.70721 -3.84889,-4.01737 -3.84888,-4.01738 h 3.69626 c 2.60979,0 6.30835,2.29955 12.58279,7.82328 22.35076,19.67655 50.35158,33.27962 78.66775,38.21755 14.41148,2.51315 42.04594,2.51283 56.37746,-6.5e-4 28.27613,-4.95912 59.14744,-20.08316 80.12087,-39.2517 5.22334,-4.77384 8.5344,-6.78848 11.15685,-6.78848 h 3.72917 l -3.84888,4.01738 -3.84889,4.01737 6.59944,6.72436 c 3.62968,3.6984 11.09943,9.17635 16.59943,12.17321 10.49562,5.7189 19.04509,12.71002 17.86942,14.61228 -0.38141,0.61714 -0.0597,1.12207 0.71471,1.12207 2.20905,0 12.14583,9.48556 11.32615,10.81184 -0.40388,0.65349 -0.10064,1.18816 0.67385,1.18816 2.11484,0 12.16323,9.45741 11.38547,10.71585 -0.37124,0.60068 0.42033,1.4398 1.75905,1.8647 1.33872,0.42489 4.46514,2.86809 6.94759,5.42932 l 4.51353,4.6568 h -6.92821 -6.92823 v 6.92822 6.92822 l -4.6568,-4.51354 c -2.56122,-2.48245 -5.00443,-5.60886 -5.42932,-6.94758 -0.42489,-1.33872 -1.3144,-2.09915 -1.97669,-1.68984 -1.36226,0.84192 -8.80355,-6.84582 -9.97382,-10.30411 -0.4216,-1.24592 -1.48584,-2.01636 -2.36496,-1.71209 -0.87913,0.30425 -3.69562,-2.12636 -6.25889,-5.40138 -2.56325,-3.27501 -5.14204,-5.95457 -5.73061,-5.95457 -2.08647,0 -7.71694,-7.47469 -13.55887,-18 -3.25621,-5.86667 -8.93445,-13.62923 -12.61831,-17.25013 l -6.6979,-6.58348 -5.03359,4.00749 c -21.48003,17.10132 -46.72908,28.94517 -74.11136,34.76424 -15.27687,3.24652 -48.13026,3.17628 -63.5349,-0.13584 -27.92964,-6.00511 -52.49996,-17.70168 -75.0672,-35.73539 l -3.67988,-2.94062 -6.72852,6.60353 c -3.7007,3.63195 -9.18051,11.10353 -12.17738,16.60353 -5.71889,10.49563 -12.71001,19.0451 -14.61228,17.86943 -0.61713,-0.38141 -1.12206,-0.012 -1.12206,0.82224 0,2.03652 -21.58128,23.97913 -22.82703,23.20923 -0.53955,-0.33346 -1.32863,0.48904 -1.75352,1.82776 -0.42489,1.33872 -2.83184,4.43 -5.34877,6.8695 l -4.57625,4.43548 z m 154.91946,-42.49723 c -13.48877,-2.30257 -23.74889,-5.39919 -37.61087,-11.35136 -12.31302,-5.28708 -35.48269,-19.97188 -41.0558,-26.02092 l -3.33333,-3.618 5.33333,0.78356 c 37.11875,5.45336 156.92391,5.50036 203.33334,0.0797 l 6,-0.7008 -5.33333,4.88164 c -13.56861,12.41946 -37.03782,25.42608 -56.05751,31.06707 -22.54095,6.68533 -49.77371,8.54949 -71.27583,4.87904 z m -34,-44.14097 c -2.93333,-0.27006 -14.63333,-1.1482 -26,-1.95142 -24.06059,-1.70024 -66.13014,-6.58562 -92.33334,-10.72233 l -18.33333,-2.89429 v -39.1553 -39.15528 h 14.55172 14.55173 l 0.0429,-17 c 0.0941,-37.21457 11.1849,-70.78749 32.89224,-99.56788 l 8.35245,-11.07392 -19.80441,-19.77139 c -19.0745,-19.042704 -19.89788,-19.686794 -22.34079,-17.475994 -2.42771,2.19704 -2.73235,2.07851 -7.10911,-2.76604 -2.51499,-2.78379 -7.77246,-11.2907 -11.68327,-18.90424 l -7.11056,-13.842803 14.4952,7.641706 c 7.97235,4.202937 16.43799,9.504167 18.81251,11.780497 4.08728,3.91827 4.19782,4.27086 2.07438,6.61723 -2.14099,2.36577 -1.34183,3.38105 17.58134,22.33583 l 19.8243,19.857404 7.13689,-6.87374 C 254.79238,53.188353 357.50634,52.522519 419.2222,110.74214 l 8.86747,8.36512 19.8384,-19.871534 c 18.93669,-18.96831 19.73646,-19.98419 17.59546,-22.34997 -2.12341,-2.34634 -2.01285,-2.69965 2.07438,-6.62922 3.99206,-3.83809 31.54859,-19.554466 32.54281,-18.560229 0.82162,0.821606 -14.87162,28.566849 -18.60866,32.899679 -3.62246,4.19994 -3.78423,4.24774 -6.39114,1.88852 -2.62692,-2.37733 -3.02861,-2.0671 -22.5232,17.394994 l -19.84857,19.81548 4.37326,5.44347 c 24.5599,30.57006 36.89608,65.7777 36.94571,105.44348 l 0.0217,17.33333 14.56939,-0.41651 14.56938,-0.41652 v 39.17847 39.17848 l -18.33334,2.94236 c -60.80596,9.75893 -96.00166,12.43883 -169,12.86813 -34.46667,0.20271 -65.06667,0.1476 -68.00001,-0.12253 z m 30.60132,-20.87862 c 0.35868,-1.65 0.82011,-4.5 1.02541,-6.33333 0.28167,-2.51535 1.25907,-3.43552 3.98299,-3.74973 3.40715,-0.39304 3.65997,-0.0376 4.50511,6.33333 0.7908,5.96129 1.26469,6.74973 4.05694,6.74973 3.84216,0 3.87744,1.70408 -0.60745,-29.33333 l -3.56432,-24.66667 -4.33333,-0.41781 c -2.38334,-0.2298 -4.33334,0.0763 -4.33334,0.68007 0,0.60382 -1.49194,11.59184 -3.31544,24.41781 -4.08134,28.70717 -4.09618,29.31993 -0.70996,29.31993 1.65698,0 2.88428,-1.11797 3.29339,-3 z m 3.2574,-18 c -0.29525,-2.08976 0.25169,-9.20601 1.10163,-14.33333 l 0.88409,-5.33333 0.97895,6 c 1.65348,10.13417 1.39902,14.66666 -0.82339,14.66666 -1.1,0 -2.06357,-0.45 -2.14128,-1 z m 25.47462,-6.33333 c 0,-26.44444 -0.0867,-27.33333 -2.66667,-27.33333 -2.57995,0 -2.66667,0.88889 -2.66667,27.33333 0,26.44444 0.0867,27.33333 2.66667,27.33333 2.57995,0 2.66667,-0.88889 2.66667,-27.33333 z m 13.43586,10.33333 0.10254,-17 3.68145,13.33334 c 2.0248,7.33333 4.09008,14.98333 4.58952,17 0.68619,2.77069 1.7164,3.66666 4.21601,3.66666 h 3.30794 v -27.42606 -27.42607 l -3,0.42607 c -2.92468,0.41537 -3,0.8362 -3,16.76084 0,8.98412 -0.32408,16.33412 -0.72019,16.33333 -0.39611,-7.9e-4 -2.51963,-7.35144 -4.71893,-16.33477 -3.7655,-15.38064 -4.19012,-16.33334 -7.27982,-16.33334 h -3.28106 l -0.36095,27 -0.36093,27 h 3.36093 3.36095 l 0.10253,-17 z m -74.7692,-11 c 0,-25.46784 -0.11587,-26.66666 -2.57681,-26.66666 -3.48516,0 -3.95524,2.38161 -3.64052,18.4444 0.14846,7.57774 -0.0424,13.97073 -0.42403,14.20662 -0.38169,0.2359 -2.44672,-7.01408 -4.58896,-16.11106 -3.84957,-16.34712 -3.93895,-16.53996 -7.66567,-16.53996 h -3.77068 v 26 26 h 3.33334 3.33333 l 0.10253,-16.33334 0.10254,-16.33333 3.68145,13.33333 c 2.0248,7.33334 4.09008,14.98334 4.58952,17 0.68619,2.7707 1.7164,3.66667 4.21601,3.66667 h 3.30794 v -26.66667 z m 18.66667,4 v -22.66666 h 4.08856 c 3.67364,0 4.04574,-0.37211 3.66666,-3.66667 -0.41214,-3.58192 -0.6453,-3.67572 -10.08856,-4.05841 l -9.66666,-0.39175 v 4.05841 c 0,3.44008 0.50785,4.05842 3.33333,4.05842 h 3.33333 v 22.66666 c 0,21.77778 0.10454,22.66667 2.66667,22.66667 2.56209,0 2.66667,-0.88889 2.66667,-22.66667 z m 92,11.33334 v -11.33334 h 4.66667 4.66666 v 11.33334 c 0,10.44444 0.20915,11.33333 2.66667,11.33333 2.57777,0 2.66667,-0.88889 2.66667,-26.66667 0,-25.77777 -0.0889,-26.66666 -2.66667,-26.66666 -2.45752,0 -2.66667,0.88889 -2.66667,11.33333 v 11.33333 h -4.66666 -4.66667 v -11.33333 c 0,-10.44444 -0.20915,-11.33333 -2.66667,-11.33333 -2.57777,0 -2.66666,0.88889 -2.66666,26.66666 0,25.77778 0.0889,26.66667 2.66666,26.66667 2.45752,0 2.66667,-0.88889 2.66667,-11.33333 z m 28,-16 v -26 h -3.33333 -3.33334 v 26 26 h 3.33334 3.33333 z m 12.09372,17.66666 c 0.0947,-8.41736 1.50932,-14.53593 2.83111,-12.24482 0.395,0.68465 2.04741,5.29482 3.67205,10.24482 2.7386,8.34412 3.23372,9 6.79402,9 h 3.84014 l -5.39156,-15.14938 -5.39156,-15.1494 4.10938,-9.65688 c 2.26016,-5.3113 4.10937,-10.11087 4.10937,-10.66572 0,-0.55486 -1.45523,-0.73064 -3.23384,-0.39064 -2.47875,0.47385 -3.92829,2.3765 -6.20791,8.14844 -4.32326,10.94645 -5.22492,11.14149 -5.22492,1.13025 0,-8.04444 -0.26533,-8.93333 -2.66666,-8.93333 -2.5755,0 -2.66667,0.88889 -2.66667,26 0,25.1111 0.0912,26 2.66667,26 2.37222,0 2.67701,-0.92014 2.76038,-8.33334 z m -182.16933,4.03666 c 1.67835,-2.39619 2.07561,-7.2447 2.07561,-25.33334 0,-21.38521 -0.11591,-22.36998 -2.63282,-22.36998 -2.49367,0 -2.65221,1.10226 -3,20.85653 -0.31755,18.03705 -0.67765,21.05213 -2.66383,22.30337 -4.78233,3.01276 -5.70336,-0.68501 -5.70336,-22.89808 0,-20.68849 -0.0344,-20.93337 -3,-21.35456 l -3,-0.42606 v 22.5647 c 0,22.10383 0.0668,22.63676 3.26967,26.09274 4.27219,4.60976 11.62305,4.89301 14.65473,0.56468 z m -27.8638,-1.64272 c 3.16107,-3.16106 3.27274,-3.9056 3.27274,-21.82019 0,-16.74504 -0.26855,-18.88887 -2.76344,-22.0606 -2.00428,-2.54804 -3.99227,-3.51315 -7.23656,-3.51315 -3.2443,0 -5.23228,0.96511 -7.23656,3.51315 -2.48442,3.15841 -2.76344,5.32285 -2.76344,21.43589 v 17.92276 l 3.89744,3.89743 c 4.75657,4.75659 8.51496,4.93959 12.82982,0.62471 z m -9.94234,-6.58478 c -1.01906,-1.22789 -1.41335,-6.94194 -1.16326,-16.8578 0.32252,-12.78746 0.73407,-15.21796 2.78976,-16.47582 3.93484,-2.40771 6.06975,1.94981 5.69026,11.6143 -0.17804,4.53392 -0.42375,11.6935 -0.54603,15.91016 -0.18943,6.53218 -0.59276,7.66667 -2.72573,7.66667 -1.37687,0 -3.19712,-0.83588 -4.045,-1.85751 z m 248.91118,-15.14249 c -0.34811,-23.99019 -0.47047,-25 -3.02943,-25 -2.55896,0 -2.68132,1.00981 -3.02942,25 l -0.36275,25 h 3.39217 3.39218 z m 12.30391,8.73333 c 0,-8.2273 0.50536,-14.36452 1.12536,-13.66666 0.61894,0.69666 2.81834,7.11666 4.88756,14.26666 3.37362,11.65728 4.08368,13 6.87464,13 h 3.11244 v -24 c 0,-23.1111 -0.0988,-24 -2.66667,-24 -2.51428,0 -2.66667,0.8889 -2.66667,15.55556 0,8.55555 -0.32501,15.23055 -0.72225,14.83331 -0.66895,-0.66896 -3.74959,-11.17404 -7.24984,-24.7222 -1.22341,-4.73537 -2.0034,-5.66667 -4.74596,-5.66667 h -3.28195 v 24.66667 c 0,23.77777 0.0961,24.66667 2.66667,24.66667 2.50793,0 2.66667,-0.8889 2.66667,-14.93334 z m -274.66668,-10.4 v -24 h -4.40663 -4.40662 l -2.49138,15.33334 c -1.37026,8.43333 -2.8994,15.33333 -3.39809,15.33333 -0.49868,0 -1.96084,-6.42357 -3.24921,-14.27461 -2.98804,-18.20826 -2.87218,-17.95163 -7.88494,-17.46384 l -4.16313,0.40512 -0.40784,22.33333 c -0.25353,13.88315 0.0836,22.33333 0.89095,22.33333 0.71433,0 2.24786,0.36419 3.40784,0.80932 1.8356,0.70439 2.1227,-0.98116 2.21432,-13 0.1148,-15.05493 0.79608,-14.57072 4.633,3.29259 1.31308,6.11321 3.02877,10.73737 4.14241,11.16472 1.04555,0.40121 2.11327,0.50535 2.37271,0.23143 0.25944,-0.27394 1.54525,-5.89806 2.85737,-12.49806 3.34012,-16.80089 4.8418,-17.24442 4.51417,-1.33333 -0.33621,16.32837 -0.51197,15.33333 2.7084,15.33333 2.56791,0 2.66667,-0.88889 2.66667,-24 z m 311.20636,21.14859 c 4.89688,-2.23117 7.58516,-9.0188 7.30252,-18.43815 l -0.24136,-8.04377 h -5.13375 c -4.58712,0 -5.13376,0.35493 -5.13376,3.33333 0,2.07408 0.75556,3.33334 2,3.33334 1.47915,0 2,1.55034 2,5.95309 0,4.68957 -0.59637,6.27225 -2.80981,7.45685 -1.72312,0.92219 -3.28723,1.02635 -4.04424,0.26934 -0.67894,-0.67894 -1.06452,-8.37727 -0.85686,-17.10742 0.34043,-14.31134 0.62422,-15.92028 2.88447,-16.35361 2.92304,-0.56041 4.77715,1.83449 4.80603,6.20781 0.0161,2.44016 0.65341,3.00284 3.02041,2.66667 2.56784,-0.36469 2.93272,-1.09831 2.53296,-5.09273 -0.63849,-6.3798 -2.34574,-9.15188 -6.23811,-10.1288 -5.27969,-1.32512 -9.74645,0.512 -12.04306,4.95316 -1.69918,3.28584 -2.04123,7.48689 -1.69092,20.76814 0.41212,15.62515 0.63272,16.80566 3.58684,19.19496 3.63882,2.94308 5.44906,3.12806 10.05864,1.02779 z m -7.79155,-66.0872 c 1.99339,-1.99337 2.18379,-4.48651 1.55288,-20.33333 C 466.4648,185.98383 451.38053,151.20066 420.70335,120.41551 380.1666,79.736106 323.05053,64.224056 266.56391,78.553056 207.90718,93.432556 162.27732,141.45547 149.14334,202.13175 c -2.33031,10.76554 -4.10742,41.43179 -2.72107,46.95544 l 0.87712,3.49474 h 158.54603 c 147.58654,0 158.70309,-0.15706 160.81798,-2.27195 z M 164.91526,234.17873 c -2.38334,-1.14434 -4.29048,-3.02175 -4.2381,-4.17204 0.0524,-1.15028 2.72982,-7.49143 5.94986,-14.09143 l 5.85462,-12 -0.78881,9.66667 c -0.43384,5.31666 -0.49979,9.66666 -0.14655,9.66666 0.35324,0 3.49707,-3.6337 6.98627,-8.0749 3.4892,-4.4412 6.62689,-7.79202 6.97264,-7.44627 0.34576,0.34576 -0.60805,5.02947 -2.11957,10.40824 -1.96351,6.98724 -3.80307,10.65501 -6.44262,12.84552 -6.11628,5.07577 -7.4033,5.41792 -12.02774,3.19755 z m 256.90401,-0.96923 c -7.17668,-3.34496 -7.57188,-3.80904 -11.62114,-13.64624 -2.30548,-5.60093 -3.92984,-10.44547 -3.60968,-10.76563 0.32016,-0.32016 4.64967,2.7055 9.62114,6.72367 13.22181,10.68653 12.82322,10.61089 11.7578,2.23113 -0.50143,-3.94377 -1.23099,-8.3705 -1.62124,-9.83717 l -0.70956,-2.66667 2.60326,2.66667 c 1.43179,1.46667 6.03535,7.61599 10.23011,13.66516 l 7.62685,10.99848 -3.75744,1.46979 c -7.57806,2.96428 -12.8196,2.74992 -20.5201,-0.83919 z m 22.1227,-17.94567 -17.30662,-21.24257 -5.85482,3.43115 c -3.34718,1.96158 -6.21396,2.88592 -6.69337,2.15814 -0.4612,-0.70016 -6.53856,-10.06092 -13.50523,-20.80172 -6.96666,-10.74078 -13.07459,-19.3858 -13.57316,-19.21113 -1.10565,0.38733 -12.85057,11.29431 -26.76392,24.85445 l -10.33708,10.07467 -13.88585,-13.8386 -13.88584,-13.83859 -5.37002,4.25314 -5.37002,4.25312 -16.40706,-24.38698 c -9.02388,-13.41284 -17.30705,-24.53558 -18.40705,-24.7172 -1.43402,-0.23676 -5.36116,7.59278 -13.8771,27.66667 -6.5324,15.39828 -12.24569,27.99688 -12.6962,27.99688 -0.45052,0 -3.03925,-1.83001 -5.75273,-4.06669 l -4.93361,-4.06671 -3.61512,6.40004 c -1.98832,3.52001 -5.52583,8.04005 -7.86114,10.04452 l -4.246,3.64449 -12.37883,-18.66361 c -6.80834,-10.26499 -12.52266,-18.505 -12.69846,-18.31116 -0.1758,0.19385 -4.05488,9.05245 -8.62016,19.68579 -4.5653,10.63333 -8.82211,19.89538 -9.4596,20.58234 -0.70331,0.75788 -2.39803,0.0851 -4.30995,-1.71109 -3.89797,-3.66196 -3.30653,-4.36809 -14.90513,17.79541 -4.98899,9.53334 -9.27528,17.58334 -9.5251,17.8889 -2.7003,3.3028 -0.31541,-20.1251 3.6118,-35.48035 24.92023,-97.437134 134.90553,-146.660111 223.97104,-100.236314 43.79687,22.828334 74.26403,64.371484 82.50181,112.494434 1.93875,11.32559 2.3989,27.63373 0.79448,28.15661 -0.73333,0.239 -9.12132,-9.12462 -18.63996,-20.80804 z M 251.77261,149.13954 c 1.3558,-3.53315 0.91073,-5.89095 -1.11199,-5.89095 -5.35339,0 -3.53427,-3.87061 8.03769,-17.10208 5.62472,-6.43136 8.63428,-11.89794 5.53502,-10.0538 -6.70892,3.99194 -16.20728,12.04528 -18.6811,15.83908 -2.40425,3.68712 -3.73258,4.50074 -6.9703,4.26934 -3.15262,-0.22531 -3.917,0.20844 -3.60822,2.04746 0.26003,1.54868 -0.46988,2.33334 -2.1705,2.33334 -1.40926,0 -4.71628,0.9 -7.34896,2 -2.63267,1.1 -6.72595,2 -9.09616,2 -2.51765,0 -3.78283,0.4807 -3.04283,1.15613 1.07929,0.98511 18.12795,0.114 26.59936,-1.35919 1.90899,-0.33197 2.78413,0.36498 3.08199,2.45442 0.59036,4.14137 7.38646,5.92733 8.776,2.30625 z m 108.83103,-2.55761 c 0.6372,-3.63512 1.12428,-3.96735 5.33972,-3.64208 29.68215,2.29033 36.73957,2.6055 39.06668,1.74465 1.95557,-0.72341 0.46417,-1.24148 -5.31199,-1.84521 -4.41701,-0.46167 -10.87485,-2.05844 -14.35073,-3.54838 -3.4759,-1.48994 -8.07006,-2.70898 -10.20927,-2.70898 -2.1392,0 -3.88945,-0.6 -3.88945,-1.33334 0,-0.73333 0.6,-1.33333 1.33333,-1.33333 2.10445,0 1.55239,-3.63064 -0.68247,-4.48823 -1.10869,-0.42545 -3.59504,-0.054 -5.52521,0.82546 -3.15375,1.43694 -3.72036,1.26441 -5.59096,-1.70245 -4.15203,-6.58535 -33.53469,-32.763134 -33.53469,-29.876934 0,2.219074 5.09873,10.048244 9.94785,15.275054 3.07833,3.3181 6.70744,7.8181 8.06469,10 1.35724,2.18191 4.23902,5.87755 6.40396,8.21255 4.26179,4.59656 4.12736,8.42122 -0.29597,8.42122 -3.52525,0 -4.497,1.9173 -3.43119,6.76993 0.83359,3.79527 1.22014,4.01388 6.42574,3.63413 4.98908,-0.36396 5.60838,-0.80105 6.23996,-4.40406 z m -133.02171,85.6546 c -3.11667,-1.56566 -5.66667,-3.33275 -5.66667,-3.92688 0,-0.59414 3.89413,-9.62592 8.65364,-20.07066 9.34588,-20.50956 9.64928,-20.49562 7.46816,0.34294 -0.57568,5.5 -0.94044,10.14814 -0.81059,10.3292 0.12987,0.18106 4.92314,-5.68375 10.65175,-13.03291 5.72861,-7.34916 10.63787,-13.13992 10.90944,-12.86835 0.44113,0.44114 -4.1288,17.43783 -7.64087,28.41823 -0.9075,2.83732 -3.6683,5.72755 -8.59698,9 -3.99311,2.65127 -7.71942,4.78327 -8.28071,4.73779 -0.56128,-0.0455 -3.57051,-1.36371 -6.68717,-2.92936 z m 57,-1.48083 c 0,-0.85823 50.17507,-32.84044 51.52149,-32.84044 0.70758,0 3.88596,1.91167 7.06308,4.24815 l 5.77658,4.24813 17.8517,-18.24813 c 9.81844,-10.03648 18.13718,-18.24815 18.4861,-18.24815 0.3489,0 0.60553,9.75 0.57025,21.66667 l -0.0641,21.66666 -3.95724,-7.66666 c -2.17651,-4.21667 -4.22614,-7.66667 -4.55475,-7.66667 -0.3286,0 -3.87728,6.9 -7.88594,15.33333 -4.00865,8.43334 -7.89964,15.33334 -8.64662,15.33334 -0.747,0 -2.95992,-2.1 -4.91762,-4.66667 -1.95769,-2.56667 -4.67821,-4.66667 -6.04561,-4.66667 -2.04128,0 -25.00705,5.81344 -35.14563,8.8966 -2.51214,0.76395 -2.52569,0.6702 -0.34438,-2.38402 1.24882,-1.74859 2.89637,-4.2287 3.66122,-5.51135 1.53691,-2.57739 3.46419,-3.18599 -21.73657,6.86403 -10.45875,4.17092 -11.63196,4.53824 -11.63196,3.64185 z m -75.48149,-22.18609 c -1.99405,-6.64436 -4.02532,-11.60974 -4.51392,-11.03418 -0.48861,0.57558 -1.73953,3.7465 -2.77982,7.0465 l -1.89144,6 -0.38726,-11 c -0.213,-6.05 -0.213,-15.90447 0,-21.89882 l 0.38726,-10.89881 11,18.06473 c 6.05,9.9356 11,18.76002 11,19.6098 0,2.11655 -6.31148,14.41287 -7.90263,15.39624 -0.7102,0.43894 -2.91099,-4.61724 -4.91219,-11.28546 z m 87.12459,4.43654 c -0.34464,-0.59998 -2.94452,-8.8392 -5.77749,-18.30936 l -5.15088,-17.21845 -3.63364,11.21845 -3.63365,11.21847 -0.0571,-30.6 c -0.0313,-16.83 0.44543,-30.03 1.05956,-29.33333 0.61415,0.69666 7.88807,12.22694 16.16428,25.62284 8.27623,13.39589 15.52339,24.65018 16.10483,25.00953 0.58144,0.35936 3.4886,-2.19117 6.46035,-5.66781 l 5.40318,-6.32119 5.37538,5.24891 c 2.95645,2.8869 5.37537,5.65712 5.37537,6.15602 0,0.90294 -32.11811,22.16907 -35.36155,23.41368 -0.93613,0.35923 -1.98404,0.16224 -2.32868,-0.43776 z"
     id="path3329"
     inkscape:connector-curvature="0" />
</svg>
