<?xml version="1.0" encoding="UTF-8" standalone="no"?>
<!-- Created with Inkscape (http://www.inkscape.org/) -->

<svg
   xmlns:dc="http://purl.org/dc/elements/1.1/"
   xmlns:cc="http://creativecommons.org/ns#"
   xmlns:rdf="http://www.w3.org/1999/02/22-rdf-syntax-ns#"
   xmlns:svg="http://www.w3.org/2000/svg"
   xmlns="http://www.w3.org/2000/svg"
   xmlns:sodipodi="http://sodipodi.sourceforge.net/DTD/sodipodi-0.dtd"
   xmlns:inkscape="http://www.inkscape.org/namespaces/inkscape"
   version="1.1"
   id="svg8649"
   width="248"
   height="245"
   viewBox="0 0 248 245"
   sodipodi:docname="ski.svg"
   inkscape:version="0.92.3 (2405546, 2018-03-11)">
  <metadata
     id="metadata8655">
    <rdf:RDF>
      <cc:Work
         rdf:about="">
        <dc:format>image/svg+xml</dc:format>
        <dc:type
           rdf:resource="http://purl.org/dc/dcmitype/StillImage" />
        <dc:title></dc:title>
      </cc:Work>
    </rdf:RDF>
  </metadata>
  <defs
     id="defs8653" />
  <sodipodi:namedview
     pagecolor="#ffffff"
     bordercolor="#666666"
     borderopacity="1"
     objecttolerance="10"
     gridtolerance="10"
     guidetolerance="10"
     inkscape:pageopacity="0"
     inkscape:pageshadow="2"
     inkscape:window-width="1366"
     inkscape:window-height="705"
     id="namedview8651"
     showgrid="false"
     inkscape:zoom="0.96326531"
     inkscape:cx="124"
     inkscape:cy="122.5"
     inkscape:window-x="-8"
     inkscape:window-y="-8"
     inkscape:window-maximized="1"
     inkscape:current-layer="svg8649" />
  <path
     style="fill:#000000"
     d="m 50.920036,222.51768 c -3.04766,-3.87447 -2.67467,-7.02838 1.10289,-9.32566 5.54165,-3.37007 24.469685,-9.94284 41.679893,-14.47335 19.113841,-5.03163 40.796281,-13.17578 102.160261,-38.37245 18.58706,-7.63203 34.8163,-13.19541 36.55111,-12.5297 1.71873,0.65954 2.74022,3.79354 1.99833,6.13103 -0.58061,1.82935 -14.34906,9.18224 -29.06506,15.52189 -4.4,1.89551 -17,7.69624 -28,12.89051 -23.27694,10.99151 -23.24387,10.97795 -34.94452,14.33233 -4.91949,1.41033 -15.94449,5.2996 -24.5,8.64281 -8.55552,3.34322 -19.380482,7.11272 -24.055482,8.37668 -4.675,1.26396 -14.994446,4.35521 -22.932103,6.86944 -7.937657,2.51423 -15.217499,4.57133 -16.177419,4.57133 -0.95993,0 -2.67798,-1.18569 -3.8179,-2.63486 z M 169.76413,175.51709 c 1.37232,-1.20066 -1.88254,-0.0856 -3.47554,1.19062 -1.83031,1.46637 -1.7984,1.48719 0.55887,0.36454 1.375,-0.65484 2.6875,-1.35466 2.91667,-1.55516 z m -97.534585,26.18877 c -0.736252,-1.91864 4.134423,-11.71821 9.410137,-18.93275 4.770554,-6.52374 9.266181,-11.66927 24.805438,-28.39138 11.92329,-12.83089 23.39867,-27.56619 22.31309,-28.65177 -0.88105,-0.88105 -18.97165,7.27596 -38.410752,17.31932 -16.85816,8.7099 -21.045097,11.3362 -26.652769,16.71821 -3.659023,3.51178 -7.121003,6.38505 -7.693293,6.38505 -0.57229,0 -1.74105,-1.00013 -2.59723,-2.22251 -0.85619,-1.22237 -1.55671,-1.74891 -1.55671,-1.17007 0,0.57884 -3.38793,6.19146 -7.52873,12.47251 -4.1408,6.28104 -8.66507,13.80601 -10.05393,16.72215 -2.90413,6.0977 -4.48329,7.09163 -7.18973,4.52524 -1.05987,-1.00503 -2.91961,-2.63177 -4.13275,-3.61499 -1.57196,-1.27403 -2.02641,-2.42334 -1.58165,-4 1.30037,-4.60983 7.85139,-16.23426 13.8425,-24.56276 3.42213,-4.75726 9.77391,-14.49957 14.11505,-21.64957 7.78095,-12.81545 22.632604,-34.84762 33.367434,-49.500001 7.404526,-10.10672 39.81478,-42.665807 49.27388,-49.500155 7.87246,-5.68797 10.52857,-6.599896 11.54072,-3.962284 1.27363,3.319045 -2.78633,9.006302 -18.30705,25.644789 -8.88485,9.52471 -19.57314,21.32066 -23.75176,26.21322 -7.816253,9.151701 -45.143404,63.388341 -44.244364,64.287391 0.27655,0.27654 2.898514,-2.97215 5.826596,-7.21932 13.356353,-19.37332 13.557771,-19.58211 23.823786,-24.69534 5.225,-2.60244 10.21836,-4.73994 11.09636,-4.75 0.878,-0.0101 3.043552,0.70365 4.812332,1.58604 3.33052,1.66148 5.91579,0.99619 2.83298,-0.72903 -0.95792,-0.53608 -1.74167,-1.49341 -1.74167,-2.12739 0,-2.08494 6.15548,-7.61968 7.87081,-7.07709 0.93029,0.29427 0.58954,-0.33331 -0.79433,-1.46293 l -2.42352,-1.97828 2.65702,-5.43076 c 1.46137,-2.986921 6.04323,-9.075691 10.18193,-13.530601 6.48703,-6.98266 8.45474,-8.45415 14.2665,-10.66877 17.92977,-6.832298 42.77385,-12.423357 46.55336,-10.476648 4.46125,2.297849 6.41761,4.834558 5.91101,7.664498 -0.43275,2.41741 -0.10204,2.21749 3.03848,-1.83679 3.78711,-4.88899 8.25147,-8.630497 13.56141,-11.365594 3.27268,-1.685722 3.37584,-1.670922 6.85611,0.983609 4.38149,3.341928 6.69105,8.497028 5.72788,12.785025 -0.38871,1.73053 -0.90675,2.56886 -1.15119,1.86296 -0.27443,-0.79249 -1.93216,0.40669 -4.33361,3.13488 -4.84195,5.50075 -10.75521,8.05061 -16.62759,7.16999 -2.71692,-0.40742 -4.84201,-1.43412 -5.8584,-2.83038 -1.47639,-2.02819 -1.56978,-2.04425 -1.25654,-0.21615 0.42258,2.46627 4.29045,4.49102 8.61612,4.51037 3.60415,0.0161 8.20455,3.70951 8.20455,6.58694 0,0.9147 -1.8,3.4631 -4,5.663101 -2.2,2.2 -4,4.34898 -4,4.77551 0,0.42653 -9,8.26325 -20,17.41492 -11,9.15168 -20,17.08137 -20,17.62154 0,0.54017 -1.4625,1.87383 -3.25,2.96369 -3.93024,2.39632 -9.56385,2.63772 -10.40494,0.44587 -0.52992,-1.38094 -0.77814,-1.37487 -2.36117,0.0577 -0.97294,0.8805 -2.84352,1.91243 -4.15684,2.29317 -2.99192,0.86742 -42.827052,41.41494 -42.827052,43.59299 0,0.93264 0.833695,1.59931 2,1.59931 1.43793,0 2,0.66667 2,2.37219 0,2.01904 -0.6327,2.47195 -4.25,3.04225 -3.733007,0.58854 -15.544754,3.8021 -19.369131,5.26965 -0.750205,0.28788 -1.649657,-0.22097 -1.998782,-1.13077 z m -10.450065,-66.05332 2.229804,-4 -3.153702,3.5 c -1.734536,1.925 -3.842596,4.85 -4.684576,6.5 l -1.53088,3 2.45477,-2.5 c 1.35013,-1.375 3.458192,-4.3 4.684584,-6.5 z m 102.56798,-9.35305 c 2.75,-2.45546 8.36996,-6.67549 12.4888,-9.37784 8.93089,-5.85952 9.87765,-6.70367 4.45092,-3.9685 -5.03308,2.53677 -18.4209,12.46769 -24.43972,18.12909 -4.06076,3.81961 -4.15837,4.01066 -1,1.95725 1.925,-1.25154 5.75,-4.28454 8.5,-6.74 z m -64.500002,6.85305 c 0.825002,-0.53316 1.050002,-0.96937 0.500002,-0.96937 -0.550002,0 -1.675002,0.43621 -2.500002,0.96937 -0.825,0.53316 -1.05,0.96937 -0.5,0.96937 0.55,0 1.675,-0.43621 2.5,-0.96937 z m 22.000002,-25.06307 c 0,-0.55331 9.79449,-5.11334 21.69211,-10.099221 1.75567,-0.73574 6.34598,-4.03771 10.2007,-7.33771 6.99463,-5.98805 7.00254,-6.00063 3.97191,-6.31977 -1.67017,-0.17587 -7.16048,0.83487 -12.20069,2.24609 l -9.16403,2.56586 -8.80049,9.25391 c -4.84027,5.089651 -9.62988,10.828911 -10.64359,12.753911 -1.01371,1.925 -2.79099,4.35724 -3.94951,5.40499 -1.15853,1.04774 -2.10624,2.39774 -2.10603,3 2.1e-4,0.60225 2.47521,-1.58514 5.5,-4.86089 3.02479,-3.27574 5.49962,-6.24897 5.49962,-6.60717 z m 35,-10.936931 c 0,-0.55 -0.19844,-1 -0.44098,-1 -0.24254,0 -0.7191,0.45 -1.05902,1 -0.33992,0.55 -0.14148,1 0.44098,1 0.58246,0 1.05902,-0.45 1.05902,-1 z m -56.14778,-11.1307 4.35222,-5.3693 -4.60595,4.85087 c -2.533272,2.66797 -5.541459,6.26797 -6.684863,8 l -2.078915,3.14913 2.332643,-2.6307 c 1.282954,-1.44689 4.291143,-5.04689 6.684865,-8 z m 81.4568,4.82169 c -0.30746,-0.49748 -0.92308,-0.31545 -1.36804,0.40451 -0.44496,0.71995 -0.55746,1.71604 -0.25,2.21352 0.30746,0.49748 0.92308,0.31545 1.36804,-0.40451 0.44496,-0.71996 0.55746,-1.71604 0.25,-2.21352 z m 31.29515,-23.420154 c -1.01652,-1.016515 -1.85525,0.513892 -1.02122,1.863382 0.63003,1.019417 0.86558,1.020206 1.2043,0.004 0.2316,-0.694785 0.14921,-1.535121 -0.18308,-1.867413 z m -4.60417,-4.270833 c 0,-0.55 -0.19844,-1 -0.44098,-1 -0.24254,0 -0.7191,0.45 -1.05902,1 -0.33992,0.55 -0.14148,1 0.44098,1 0.58246,0 1.05902,-0.45 1.05902,-1 z m -72.87244,-18.75 c 1.24387,-1.586056 1.2085,-1.621426 -0.37756,-0.377555 -1.66575,1.306369 -2.19548,2.127555 -1.37244,2.127555 0.20765,0 0.99515,-0.7875 1.75,-1.75 z"
     id="path9202"
     inkscape:connector-curvature="0" />
</svg>
