<svg id="Capa_1" data-name="Capa 1" xmlns="http://www.w3.org/2000/svg" viewBox="0 0 24 24"><title>cake-slice1</title><path d="M152.81,245.71a2.52,2.52,0,1,0-1.9-2.45A2.23,2.23,0,0,0,152.81,245.71Z" transform="translate(-136.5 -240.82)"/><path d="M155.71,242.07a4.62,4.62,0,0,1,.15,1.19c0,2.16-1.37,3.92-3.05,3.92-1.51,0-2.77-1.42-3-3.27l-12.71,4.67a1.14,1.14,0,0,0-.59,1.16h24A9.53,9.53,0,0,0,155.71,242.07Z" transform="translate(-136.5 -240.82)"/><path d="M160.18,251.21H136.82a.38.38,0,0,0-.32.41v2.6a.38.38,0,0,0,.32.41h23.36a.38.38,0,0,0,.32-.41v-2.6A.38.38,0,0,0,160.18,251.21Z" transform="translate(-136.5 -240.82)"/><path d="M136.5,263.77a1,1,0,0,0,.82,1.05h22.36a1,1,0,0,0,.82-1.05V256.1h-24Zm20.05-5.94a.71.71,0,0,1,1.17,0,1.26,1.26,0,0,1,0,1.48.71.71,0,0,1-1.17,0,1.26,1.26,0,0,1,0-1.48Zm-2.29-.31a1.08,1.08,0,1,1-.83,1.05A1,1,0,0,1,154.26,257.52Zm-2.88,0a1.08,1.08,0,1,1-.82,1.05A1,1,0,0,1,151.38,257.52Zm-2.88,0a1.08,1.08,0,1,1-.82,1.05A1,1,0,0,1,148.5,257.52Zm-2.88,0a1.08,1.08,0,1,1-.82,1.05A1,1,0,0,1,145.62,257.52Zm-2.88,0a1.08,1.08,0,1,1-.82,1.05A1,1,0,0,1,142.74,257.52Zm-3.45.31a.73.73,0,0,1,.58-.31.76.76,0,0,1,.58.31,1.26,1.26,0,0,1,0,1.48.76.76,0,0,1-.58.31.73.73,0,0,1-.58-.31,1.22,1.22,0,0,1,0-1.48Z" transform="translate(-136.5 -240.82)"/></svg>