<svg height="512" viewBox="0 0 60 60" width="512" xmlns="http://www.w3.org/2000/svg"><g id="Page-1" fill="none" fill-rule="evenodd"><g id="008---Coffee-and-Beans" fill="rgb(0,0,0)" fill-rule="nonzero"><path id="Shape" d="m2.063 21.835.486 6.182c-.5282735.0374859-1.01957233.2848335-1.36430997.6868709-.34473764.4020373-.51423685.9253207-.47069003 1.4531291l1.578 20c.08651946 1.0378989.95151426 1.8377912 1.993 1.843h.151l.418 5.247c.12546208 1.5597529 1.43122331 2.7596062 2.996 2.753h16.3c1.5678361.0049827 2.875103-1.1981386 3-2.761l.414-5.239h.151c1.0414857-.0052088 1.9064805-.8051011 1.993-1.843l1.578-20c.0435468-.5278084-.1259524-1.0510918-.47069-1.4531291-.3447377-.4020374-.8360365-.649385-1.36431-.6868709l.487-6.182c1.2265505-.4017656 2.0575816-1.5443327 2.062-2.835v-2.133c-.005065-1.5771582-1.2266762-2.8829733-2.8-2.993l-.2-.014v-2.86c0-1.65685425-1.3431458-3-3-3h-20c-1.65685425 0-3 1.34314575-3 3v1.156c-.79526335-.0061489-1.55992551.3061577-2.12349817.8672882-.56357266.5611306-.87919704 1.3244293-.87650183 2.1197118v3.857c.00424942 1.2910359.83586168 2.4338477 2.063 2.835zm25.383 6.165h-22.892l-.472-6h23.836zm-2.292 29.073c-.0383224.5235899-.4750114.9284006-1 .927h-16.304c-.52213898.0017155-.95770933-.3985737-1-.919l-.407-5.081h19.114zm2.561-7.073h-23.429l-1.578-20h26.584zm-21.715-40h20c.5522847 0 1 .4477153 1 1v2.727l-22-1.458v-1.269c0-.5522847.44771525-1 1-1zm-4 5.143c0-.5522847.44771525-1 1-1h.072l.908.06h.021.011l25.058 1.661c.5251705.0363218.9322545.4735764.931 1v2.136c0 .5522847-.4477153 1-1 1h-26.001c-.55228475 0-1-.4477153-1-1z"/><path id="Shape" d="m11.1 35.1c-3.48 3.468-4.111 8.5-1.406 11.214 1.1624096 1.1165101 2.7238219 1.7205443 4.335 1.677 2.6066384-.0912264 5.0735609-1.2010004 6.871-3.091 3.479-3.468 4.11-8.5 1.405-11.213s-7.741-2.069-11.205 1.413zm1.414 1.414c1.4211769-1.5147716 3.3753731-2.4180046 5.45-2.519 1.0204486-.0249715 2.0135158.3316056 2.785 1-.370871.1528808-.761931.2512353-1.161.292-2.4409111.1996588-4.377941 2.1379586-4.576 4.579-.0720724 1.56026-1.3198159 2.8093032-2.88 2.883-.6773168.068103-1.3366597.2585196-1.946.562-.598-2.026.247-4.729 2.326-6.801zm6.978 6.978c-2.627 2.636-6.278 3.292-8.242 1.526.372741-.1560643.7661874-.2571208 1.168-.3 2.4409111-.1996588 4.377941-2.1379586 4.576-4.579.0720724-1.56026 1.3198159-2.8093032 2.88-2.883.6773168-.068103 1.3366597-.2585196 1.946-.562.593 2.021-.253 4.723-2.33 6.794z"/><path id="Shape" d="m16.363 5.992c.2635349.03535557.5302488-.03634816.7405284-.1990846.2102795-.16273645.3465925-.40293744.3784716-.6669154l.398-3.126h33.984l-.764 6h-1.1c-.5522847 0-1 .44771525-1 1s.4477153 1 1 1h.843l-4.724 37h-13.229c-.5522847 0-1 .4477153-1 1s.4477153 1 1 1h14.11c.1105991-.0017035.2201251-.0219861.324-.06.036-.013.068-.032.1-.048.0441301-.0167164.0869209-.0367746.128-.06l5.888-3.925 5.078-1.693c.9200617-.3063353 1.4878108-1.228559 1.347-2.188l-5.876-40.171c-.0075058-.02551296-.0165217-.05055714-.027-.075-.0146385-.05933054-.0354173-.11697492-.062-.172-.0287295-.07093233-.0660049-.13809507-.111-.2-.016-.022-.021-.049-.039-.07s-.05-.032-.073-.053c-.0571211-.0548395-.1209632-.10221712-.19-.141-.0474183-.02746734-.0969008-.05120557-.148-.071-.073397-.02548756-.1496248-.04194201-.227-.049-.0368744-.01000894-.0742621-.01802059-.112-.024h-35.12c-1.0042504.00178192-1.8514573.74800861-1.98 1.744l-.4 3.13c-.0696522.54683067.3163561 1.04689702.863 1.118zm41.526 35.324-3.889 1.296v-12.612c0-.5522847-.4477153-1-1-1s-1 .4477153-1 1v13.465l-3.73 2.487 4.8-37.584z"/><path id="Shape" d="m46 8h-2c-.5522847 0-1 .44771525-1 1s.4477153 1 1 1h2c.5522847 0 1-.44771525 1-1s-.4477153-1-1-1z"/><path id="Shape" d="m40 10c.5522847 0 1-.44771525 1-1s-.4477153-1-1-1h-2c-.5522847 0-1 .44771525-1 1s.4477153 1 1 1z"/><path id="Shape" d="m35 9c0-.55228475-.4477153-1-1-1h-2c-.5522847 0-1 .44771525-1 1s.4477153 1 1 1h2c.5522847 0 1-.44771525 1-1z"/><path id="Shape" d="m40.13 31h-5.98c-.5522847 0-1 .4477153-1 1s.4477153 1 1 1h5.98c.9938529-.0047168 1.8352065-.7347398 1.98-1.718l1.721-12.01c.0785807-.5724307-.0942421-1.1508743-.4739649-1.5863768-.3797229-.4355024-.929236-.6855025-1.5070351-.6856232h-6.85c-.5522847 0-1 .4477153-1 1s.4477153 1 1 1h6.85z"/></g></g></svg>