<svg id="Слой_1" data-name="Слой 1" xmlns="http://www.w3.org/2000/svg" viewBox="0 0 827.88 482.67"><defs><style>.cls-1{fill:#f3f4f4;stroke:#f3f4f4;}.cls-1,.cls-2,.cls-3{stroke-miterlimit:10;}.cls-1,.cls-3{stroke-width:3px;opacity:0.5;}.cls-2,.cls-3{fill:none;}.cls-2{stroke:#000;}.cls-3{stroke:#9c0538;}.cls-4,.cls-8{font-size:19.1px;}.cls-11,.cls-12,.cls-4{fill:#9c0538;}.cls-12,.cls-15,.cls-18,.cls-20,.cls-4{font-family:Roboto-Medium, Roboto;}.cls-4{opacity:0.7;}.cls-5{letter-spacing:-0.06em;}.cls-6{letter-spacing:-0.01em;}.cls-7{letter-spacing:0em;}.cls-8{font-family:ArialRoundedMTBold, Arial Rounded MT Bold;}.cls-9{letter-spacing:-0.02em;}.cls-10{letter-spacing:-0.01em;}.cls-12,.cls-15{font-size:14.32px;}.cls-12{opacity:0.6;}.cls-13{letter-spacing:-0.01em;}.cls-14{letter-spacing:-0.03em;}.cls-16{letter-spacing:-0.01em;}.cls-17{letter-spacing:0.01em;}.cls-18{font-size:14.32px;}.cls-19{letter-spacing:-0.02em;}.cls-20{font-size:15.52px;}.cls-21{letter-spacing:-0.01em;}.cls-22{letter-spacing:-0.02em;}.cls-23{letter-spacing:-0.01em;}.cls-24{letter-spacing:0em;}.cls-25{letter-spacing:0em;}.cls-26{letter-spacing:-0.03em;}</style></defs><title>double dimond</title><path class="cls-1" d="M709.59,632.26,500.5,415.89,705.28,204.32,911.51,415.89Q810.56,524.09,709.59,632.26Z" transform="translate(-85.71 -151.77)"/><path class="cls-1" d="M293.24,629.81q-102.72-107-205.45-214L293.42,204.32,500.5,415.84Z" transform="translate(-85.71 -151.77)"/><path class="cls-2" d="M500.75,610.36q-.09,9.74-.25,19.45" transform="translate(-85.71 -151.77)"/><path class="cls-2" d="M501,569.31q0,13.32-.1,26.65" transform="translate(-85.71 -151.77)"/><path class="cls-2" d="M501,537q0,9,0,17.94" transform="translate(-85.71 -151.77)"/><path class="cls-2" d="M501,490.15q0,16.22,0,32.43" transform="translate(-85.71 -151.77)"/><path class="cls-2" d="M500.94,449.77q0,12.62,0,25.24" transform="translate(-85.71 -151.77)"/><path class="cls-2" d="M500.89,398.8q0,18.3,0,36.6" transform="translate(-85.71 -151.77)"/><path class="cls-2" d="M500.84,365.2l0,19.29" transform="translate(-85.71 -151.77)"/><path class="cls-2" d="M500.75,323.29l.06,27.48" transform="translate(-85.71 -151.77)"/><path class="cls-2" d="M500.65,286.4q0,11.22.07,22.43" transform="translate(-85.71 -151.77)"/><path class="cls-2" d="M500.5,241.59q.06,15.18.11,30.36" transform="translate(-85.71 -151.77)"/><path class="cls-2" d="M500.5,202a216.07,216.07,0,0,1,0,25.45" transform="translate(-85.71 -151.77)"/><line class="cls-3" x1="207.39" y1="52.66" x2="1.44" y2="264.13"/><line class="cls-3" x1="620.74" y1="52.66" x2="414.79" y2="264.13"/><line class="cls-3" x1="414.79" y1="264.13" x2="207.39" y2="52.66"/><line class="cls-3" x1="1.44" y1="264.13" x2="207.21" y2="478.04"/><line class="cls-3" x1="414.79" y1="264.13" x2="207.21" y2="478.04"/><line class="cls-3" x1="414.88" y1="264.13" x2="623.88" y2="480.49"/><line class="cls-3" x1="825.8" y1="264.13" x2="623.88" y2="480.49"/><line class="cls-3" x1="620.74" y1="52.66" x2="825.8" y2="264.13"/><text x="-85.71" y="-151.77"></text><text class="cls-4" transform="translate(135.42 41.64) scale(0.93 1)">UNDERS<tspan class="cls-5" x="72.72" y="0">T</tspan><tspan x="83.19" y="0">ANDING</tspan></text><text class="cls-4" transform="translate(580.55 41.64) scale(1.03 1)">SO<tspan class="cls-6" x="24.71" y="0">L</tspan><tspan class="cls-7" x="34.82" y="0">UTION</tspan></text><text class="cls-8" transform="translate(72.6 16.5) scale(1.05 1)">A<tspan class="cls-9" x="13.73" y="0">r</tspan><tspan x="21.62" y="0">e </tspan><tspan class="cls-10" x="37.75" y="0">w</tspan><tspan x="53.02" y="0">e </tspan><tspan class="cls-10" x="69.14" y="0">b</tspan><tspan x="80.82" y="0">uilding </tspan><tspan class="cls-11" x="148.06" y="0">the right thing</tspan><tspan x="277.96" y="0">?</tspan></text><text class="cls-8" transform="translate(479.57 16.5) scale(1.05 1)">A<tspan class="cls-9" x="13.73" y="0">r</tspan><tspan x="21.62" y="0">e </tspan><tspan class="cls-10" x="37.75" y="0">w</tspan><tspan x="53.02" y="0">e </tspan><tspan class="cls-10" x="69.14" y="0">b</tspan><tspan x="80.82" y="0">uilding </tspan><tspan class="cls-11" x="148.06" y="0">the thing right</tspan><tspan x="277.96" y="0">?</tspan></text><text class="cls-12" transform="translate(41.14 478.05) scale(0.93 1)">DISC<tspan class="cls-13" x="31.39" y="0">O</tspan><tspan x="41.13" y="0">VER</tspan></text><text class="cls-12" transform="translate(311.09 478.05) scale(0.93 1)">DEFINE</text><text class="cls-12" transform="translate(458.5 478.05) scale(0.93 1)">DEVE<tspan class="cls-14" x="34.82" y="0">L</tspan><tspan x="42.12" y="0">OP</tspan></text><text class="cls-12" transform="translate(730.96 474.98) scale(0.93 1)">REFINE</text><text class="cls-15" transform="translate(243.11 173.69) scale(1.05 1)">Brief</text><text class="cls-15" transform="translate(69.57 214.55) scale(1.05 1)">Qualitative Resea<tspan class="cls-16" x="111.63" y="0">r</tspan><tspan x="116.53" y="0">ch </tspan><tspan x="-19.22" y="17.19">(semi-structured inte</tspan><tspan class="cls-17" x="115.48" y="17.19">r</tspan><tspan x="120.64" y="17.19">view)</tspan></text><text x="-85.71" y="-151.77"></text><text class="cls-18" transform="matrix(1.05, -0.01, 0.01, 1, 165.6, 145.01)">Persona</text><text class="cls-15" transform="translate(221.32 296.72) scale(1.05 1)">P<tspan class="cls-19" x="9.15" y="0">r</tspan><tspan x="13.94" y="0">oblem Statement</tspan></text><text class="cls-20" transform="translate(271.13 233.63) scale(0.97 1)">Sinthesis</text><text class="cls-20" transform="translate(68.38 284.96) scale(0.97 1)">Affinity Mapping</text><text class="cls-20" transform="translate(130.74 357.21) scale(0.97 1)">Cus<tspan class="cls-21" x="26.76" y="0">t</tspan><tspan x="31.69" y="0">omer Journey</tspan><tspan x="48.5" y="18.62">Map</tspan></text><text class="cls-15" transform="translate(602.57 137.45) scale(1.05 1)">Sketching</text><text class="cls-20" transform="translate(502.12 195.47) scale(0.97 1)">Low- Fidelity P<tspan class="cls-22" x="101.71" y="0">r</tspan><tspan x="106.89" y="0">o</tspan><tspan class="cls-23" x="115.72" y="0">t</tspan><tspan class="cls-24" x="120.66" y="0">otyping</tspan></text><text class="cls-20" transform="translate(476.09 282.13) scale(0.97 1)">Hi- Fidelity P<tspan class="cls-22" x="87.93" y="0">r</tspan><tspan x="93.11" y="0">o</tspan><tspan class="cls-21" x="101.95" y="0">t</tspan><tspan class="cls-25" x="106.88" y="0">otyping</tspan></text><text class="cls-20" transform="translate(655.41 245.2) scale(0.97 1)">User -<tspan class="cls-26" x="40.86" y="0"> </tspan><tspan class="cls-25" x="44.27" y="0">Testing</tspan></text><text class="cls-20" transform="translate(576.02 345.33) scale(0.97 1)">Clickable P<tspan class="cls-22" x="77.48" y="0">r</tspan><tspan x="82.66" y="0">o</tspan><tspan class="cls-21" x="91.49" y="0">t</tspan><tspan class="cls-25" x="96.42" y="0">otyping</tspan></text><text class="cls-20" transform="translate(573.84 399.21) scale(0.97 1)">Ite<tspan class="cls-21" x="17.87" y="0">r</tspan><tspan x="23.09" y="0">ations</tspan></text></svg>