<svg xmlns="http://www.w3.org/2000/svg" xmlns:xlink="http://www.w3.org/1999/xlink" viewBox="0 0 587.51 561.48"><defs><style>.cls-1,.cls-13{fill:#9b774f;}.cls-1{opacity:0;}.cls-2{isolation:isolate;}.cls-3{fill:#a4afaf;}.cls-10,.cls-19,.cls-38,.cls-4,.cls-51,.cls-9{fill:#fff;}.cls-5{fill:#424243;opacity:0.4;}.cls-6{fill:#dbdbda;}.cls-40,.cls-7{fill:#cad6d6;}.cls-12,.cls-23,.cls-26,.cls-27,.cls-30,.cls-33,.cls-36,.cls-40,.cls-41,.cls-42,.cls-44,.cls-7,.cls-76,.cls-8{mix-blend-mode:multiply;}.cls-8{fill:#a8b8b8;}.cls-19,.cls-26,.cls-30,.cls-37,.cls-40,.cls-50,.cls-60,.cls-8{opacity:0.5;}.cls-76,.cls-80,.cls-9{opacity:0.3;}.cls-21,.cls-29,.cls-37,.cls-9{mix-blend-mode:screen;}.cls-10,.cls-44,.cls-59,.cls-66,.cls-74,.cls-75{opacity:0.2;}.cls-11{fill:#c9c9c9;}.cls-12{fill:#878d8a;}.cls-14{clip-path:url(#clip-path);}.cls-15{fill:#b38d62;}.cls-16{fill:url(#radial-gradient);}.cls-17{fill:#1a1b1c;}.cls-18{fill:#a48463;}.cls-20,.cls-21,.cls-37{fill:#484041;}.cls-22{fill:#191414;}.cls-23{fill:#402218;}.cls-23,.cls-27,.cls-46,.cls-51{opacity:0.7;}.cls-24,.cls-26,.cls-27{fill:#6c3c29;}.cls-25{fill:#804d3a;}.cls-28{fill:#b9846a;}.cls-29{fill:#9c705e;}.cls-29,.cls-34{opacity:0.8;}.cls-30{fill:#5b3124;}.cls-31,.cls-33{fill:#dac27e;}.cls-32,.cls-34{fill:#eddfb8;}.cls-35{fill:#ceb46e;}.cls-36{fill:url(#radial-gradient-2);}.cls-38,.cls-84{opacity:0.1;}.cls-39{fill:#f7e5ce;}.cls-42{fill:#e5a86a;}.cls-43{fill:url(#radial-gradient-3);}.cls-44{fill:#38281b;}.cls-45{fill:#533d20;}.cls-47{fill:#e2d5a9;}.cls-48{fill:#d8c28e;}.cls-49{fill:#fbf4e8;}.cls-52{fill:#b4956d;}.cls-53,.cls-60{fill:#442a21;}.cls-54,.cls-76{fill:#704935;}.cls-55{fill:#83624f;}.cls-56,.cls-80{fill:#f4e3d3;}.cls-57{fill:#372413;}.cls-58{fill:url(#radial-gradient-4);}.cls-59{fill:#a88060;}.cls-61{fill:#e7e5da;}.cls-62{fill:#c8b8aa;}.cls-63{fill:#856e60;}.cls-64{fill:#7f5e40;}.cls-65{fill:url(#radial-gradient-5);}.cls-67{fill:url(#radial-gradient-6);}.cls-68{fill:#b47843;}.cls-69{fill:url(#radial-gradient-7);}.cls-70{fill:#3a2a22;}.cls-71{fill:url(#linear-gradient);}.cls-72{fill:url(#radial-gradient-8);}.cls-73{fill:#39291c;}.cls-74,.cls-91{fill:#b7986e;}.cls-75{fill:#202020;}.cls-77{fill:#cfd1d2;}.cls-78{fill:#d2cfba;}.cls-79{fill:url(#Orange);}.cls-81{fill:url(#linear-gradient-2);}.cls-82{fill:url(#radial-gradient-9);}.cls-83{fill:url(#radial-gradient-10);}.cls-85{fill:url(#radial-gradient-11);}.cls-86{fill:#9b7b53;}.cls-87{fill:url(#radial-gradient-12);}.cls-88{fill:url(#radial-gradient-13);}.cls-89{fill:url(#radial-gradient-14);}.cls-90{fill:url(#radial-gradient-15);}</style><clipPath id="clip-path" transform="translate(-106.67 -45.67)"><path id="_Обтравочный_контур_" data-name="&lt;Обтравочный контур&gt;" class="cls-1" d="M295.13,195.35c0,11.61-33.88,21-75.69,21s-75.69-9.42-75.69-21,33.89-21,75.69-21S295.13,183.73,295.13,195.35Z"/></clipPath><radialGradient id="radial-gradient" cx="124.15" cy="661.52" r="96.98" gradientTransform="translate(116.74 58.84) scale(0.84 0.2)" gradientUnits="userSpaceOnUse"><stop offset="0.27" stop-color="#1a1b1c"/><stop offset="0.46" stop-color="#1c1d1d"/><stop offset="0.56" stop-color="#242321"/><stop offset="0.65" stop-color="#322d27"/><stop offset="0.72" stop-color="#463b30"/><stop offset="0.79" stop-color="#5f4e3c"/><stop offset="0.85" stop-color="#7e654a"/><stop offset="0.9" stop-color="#a2805a"/><stop offset="0.93" stop-color="#b38d62"/></radialGradient><radialGradient id="radial-gradient-2" cx="392.85" cy="36.74" r="92.47" gradientTransform="translate(92.48 134.59) scale(0.83 0.25)" gradientUnits="userSpaceOnUse"><stop offset="0.01" stop-color="#b8755d" stop-opacity="0"/><stop offset="0.35" stop-color="#b6745c" stop-opacity="0.02"/><stop offset="0.52" stop-color="#b17058" stop-opacity="0.09"/><stop offset="0.65" stop-color="#a76952" stop-opacity="0.22"/><stop offset="0.77" stop-color="#9a5f49" stop-opacity="0.39"/><stop offset="0.88" stop-color="#89523d" stop-opacity="0.62"/><stop offset="0.97" stop-color="#74422e" stop-opacity="0.9"/><stop offset="1" stop-color="#6c3c29"/></radialGradient><radialGradient id="radial-gradient-3" cx="614.77" cy="295.53" fx="554.4774897267257" fy="286.1291672363357" r="61.02" gradientTransform="matrix(0.82, -0.03, 0.01, 0.32, 102.07, 87.57)" gradientUnits="userSpaceOnUse"><stop offset="0.27" stop-color="#ddbe94"/><stop offset="0.51" stop-color="#cca478"/><stop offset="0.83" stop-color="#866032"/></radialGradient><radialGradient id="radial-gradient-4" cx="158.74" cy="294.16" r="108.8" gradientTransform="translate(111.09 282.5) scale(0.85 0.32)" gradientUnits="userSpaceOnUse"><stop offset="0" stop-color="#7e5d3f"/><stop offset="0.61" stop-color="#624033"/><stop offset="1" stop-color="#35261b"/></radialGradient><radialGradient id="radial-gradient-5" cx="146.78" cy="255.39" r="8.74" gradientTransform="translate(111.09 140.77) scale(0.85 0.8)" gradientUnits="userSpaceOnUse"><stop offset="0" stop-color="#d87d61"/><stop offset="0.5" stop-color="#ca2228"/><stop offset="1" stop-color="#b1282e"/></radialGradient><radialGradient id="radial-gradient-6" cx="145.79" cy="256.4" r="4.94" gradientTransform="translate(111.09 140.77) scale(0.85 0.8)" gradientUnits="userSpaceOnUse"><stop offset="0" stop-color="#fff"/><stop offset="0.25" stop-color="#fff" stop-opacity="0.99"/><stop offset="0.39" stop-color="#fff" stop-opacity="0.96"/><stop offset="0.5" stop-color="#fff" stop-opacity="0.91"/><stop offset="0.59" stop-color="#fff" stop-opacity="0.83"/><stop offset="0.68" stop-color="#fff" stop-opacity="0.73"/><stop offset="0.75" stop-color="#fff" stop-opacity="0.61"/><stop offset="0.83" stop-color="#fff" stop-opacity="0.47"/><stop offset="0.89" stop-color="#fff" stop-opacity="0.3"/><stop offset="0.96" stop-color="#fff" stop-opacity="0.12"/><stop offset="0.99" stop-color="#fff" stop-opacity="0"/></radialGradient><radialGradient id="radial-gradient-7" cx="177.34" cy="499.46" r="1.49" gradientTransform="matrix(152.13, -2.21, -2.15, -131.74, -25723, 66635.36)" gradientUnits="userSpaceOnUse"><stop offset="0" stop-color="#fff"/><stop offset="0.14" stop-color="#cbb4a6"/><stop offset="0.28" stop-color="#986a4c"/><stop offset="0.35" stop-color="#834c29"/><stop offset="0.65" stop-color="#4c2417"/><stop offset="0.99" stop-color="#331c1c"/><stop offset="1" stop-color="#331c1c"/></radialGradient><linearGradient id="linear-gradient" x1="433.01" y1="413.16" x2="433.01" y2="449.5" gradientTransform="matrix(1, 0, 0, 1, 0, 0)" xlink:href="#radial-gradient-4"/><radialGradient id="radial-gradient-8" cx="375.7" cy="335.95" r="56" gradientTransform="translate(111.09 140.77) scale(0.85 0.8)" xlink:href="#radial-gradient-4"/><linearGradient id="Orange" x1="385.89" y1="557.32" x2="477.47" y2="557.32" gradientUnits="userSpaceOnUse"><stop offset="0" stop-color="#de9257"/><stop offset="0.5" stop-color="#d7742d"/><stop offset="1" stop-color="#ba6232"/></linearGradient><linearGradient id="linear-gradient-2" x1="386.39" y1="439.91" x2="405.66" y2="457.96" gradientTransform="translate(18.44 496.89) rotate(-55.64)" gradientUnits="userSpaceOnUse"><stop offset="0" stop-color="#c4873f"/><stop offset="1" stop-color="#b67239"/></linearGradient><radialGradient id="radial-gradient-9" cx="603.57" cy="240.04" r="113.57" gradientTransform="translate(111.09 140.77) scale(0.85 0.8)" xlink:href="#radial-gradient-4"/><radialGradient id="radial-gradient-10" cx="600.51" cy="269.1" r="31.75" gradientTransform="translate(111.09 140.77) scale(0.85 0.8)" xlink:href="#radial-gradient-7"/><radialGradient id="radial-gradient-11" cx="590.68" cy="287.89" r="11.16" xlink:href="#radial-gradient-6"/><radialGradient id="radial-gradient-12" cx="583.82" cy="486.81" r="101.15" gradientTransform="translate(111.09 323.18) scale(0.85 0.43)" gradientUnits="userSpaceOnUse"><stop offset="0" stop-color="#834c29"/><stop offset="0.65" stop-color="#4c2417"/><stop offset="0.99" stop-color="#331c1c"/><stop offset="1" stop-color="#331c1c"/></radialGradient><radialGradient id="radial-gradient-13" cx="585.85" cy="451.42" r="124.13" gradientTransform="translate(111.09 384.1) scale(0.85 0.26)" xlink:href="#radial-gradient-12"/><radialGradient id="radial-gradient-14" cx="587.45" cy="547.24" r="96.49" gradientTransform="translate(111.09 384.16) scale(0.85 0.36)" xlink:href="#radial-gradient-4"/><radialGradient id="radial-gradient-15" cx="586.85" cy="522.55" r="91.63" gradientTransform="translate(111.09 140.77) scale(0.85 0.8)" xlink:href="#radial-gradient-4"/></defs><title>image 1</title><g class="cls-2"><g id="Слой_1" data-name="Слой 1"><path class="cls-3" d="M296.26,278.14c-.64,16-36.89,28.8-81,28.59S136,293.4,136.62,277.41s36.9-28.79,81-28.59S296.9,262.15,296.26,278.14Z" transform="translate(-106.67 -45.67)"/><path class="cls-4" d="M295.25,276.76c-.63,15.62-36.48,28.12-80.07,27.92s-78.42-13-77.8-28.64,36.48-28.11,80.07-27.92S295.87,261.15,295.25,276.76Z" transform="translate(-106.67 -45.67)"/><path class="cls-5" d="M266.38,271.69c-.38,9.66-22.57,17.4-49.56,17.28s-48.54-8.06-48.15-17.73,22.57-17.4,49.56-17.28S266.77,262,266.38,271.69Z" transform="translate(-106.67 -45.67)"/><path class="cls-6" d="M174.48,240.47h0a12.57,12.57,0,0,0-1.63-1,13.57,13.57,0,0,0-3.63-1c-2.13-.24-4.27-.52-6.4-.8A124.27,124.27,0,0,1,149.11,235c-7.89-2-23.08-5.95-26.46-12.31-2.87-5.4,2-12.36,10.36-10.8,4.29.81,7.93,4.37,12.33,5.47,15.9,3.94,5.94-13.76-.33-17.1-5.85-3.13-14.13-3.23-20.88-1.64-17.56,4.13-20.26,17.64-15.16,27.63,4.88,9.58,17.1,15.42,29.13,19.12a118.21,118.21,0,0,0,18,3.92c6.26.91,12.78,1.93,18.35-.9C178.42,246.42,178.33,242.49,174.48,240.47Z" transform="translate(-106.67 -45.67)"/><path class="cls-7" d="M141.68,233.06a7.29,7.29,0,0,1,.09,5.1A5.28,5.28,0,0,1,140.6,240a16.69,16.69,0,0,1-7.12,1.92,40.27,40.27,0,0,1-8.68-1.71,87.32,87.32,0,0,0,13.3,5.19,118.53,118.53,0,0,0,17.66,3.87c.64-4.42-2.55-9.59-4.93-13.05l-.65-.93-1.07-.26C147,234.52,144.43,233.86,141.68,233.06Z" transform="translate(-106.67 -45.67)"/><path class="cls-8" d="M125.22,225.7a10.18,10.18,0,0,1-2.57-3c-2.87-5.4,2-12.36,10.36-10.8,4.29.81,7.93,4.37,12.33,5.47,1.19.29,4.67,1.17,5.81.31s-.35-2.32-.55-3.25A40.72,40.72,0,0,0,147,204c-1.28-2.48-3-8-7.71-7.83-3.63.12-4.25,4-4.38,6.05-.14,2.27.58,3.81-2.95,4.71-2.12.53-4.44.17-6.55.82a10.21,10.21,0,0,0-7.4,7.84C117.44,219.2,120.62,224,125.22,225.7Z" transform="translate(-106.67 -45.67)"/><path class="cls-6" d="M296.84,193.17c-1.73-5.19-7.32-10.37-12-13.2-8.08-4.87-17.9-6.88-27.17-8.71a217.7,217.7,0,0,0-62.72-3c-16.13,1.54-34.7,3.44-47.88,13.29a26.82,26.82,0,0,0-10.48,17.62c-.61,4,.28,8.15,1.28,12.06,1.34,5.24,2.87,10.46,4.17,15.71,5,20,13.75,39.5,37.68,50.78,22.35,10.53,51.11,10.16,73.6.34,9.57-4.17,18-9.8,23.71-17a95.7,95.7,0,0,0,12.07-20.76C295.54,225.84,302,208.48,296.84,193.17Z" transform="translate(-106.67 -45.67)"/><path class="cls-9" d="M290.12,238c1.79-4.12,3.52-8.43,5-12.85-80.69,42.68-141.26,7.08-153.93-1.52q.45,1.68.87,3.36c.76,3.06,1.61,6.1,2.59,9.1C162.05,246.82,217.49,273.87,290.12,238Z" transform="translate(-106.67 -45.67)"/><path class="cls-9" d="M131,201.71c-8.22-1.84-16.89,2.89-19.56,8.63a16.27,16.27,0,0,0-1.06,10.82c.7,3.06,2.85,7.05,6.27,8.88,1.31.69,3-.25,3-1.32.11-2.44-2.37-4.71-3.38-6.95a11.92,11.92,0,0,1,.13-9.37c1.15-3,3.88-5.2,7.62-6.38,2.67-.85,5.26-1.29,7.52-2.74C132.29,202.81,131.84,201.89,131,201.71Z" transform="translate(-106.67 -45.67)"/><path class="cls-10" d="M256.51,222.3S283,218.37,295,206.71c0,0-8.4,69.84-68.4,74C226.6,280.73,248.8,265.72,256.51,222.3Z" transform="translate(-106.67 -45.67)"/><path class="cls-11" d="M143.11,198c.24.61,4.86-3.5,5.15-4.1,1.18-2.42,2.52-2.62,6.28-4.47,4.1-2,9.82-3.3,15.38-4.23,12.57-2.12,26.38-4.83,39.66-5.12a262.2,262.2,0,0,1,45.12,2.46,178.72,178.72,0,0,1,22.75,5,46.45,46.45,0,0,1,9.14,3.54c2.54,1.39,2.7,2.85,2.88,4.57.12,1.14,4.26,3,5.4,1.75,0,0,10.78-25.9-74.39-25.9C134.66,171.53,142,196.19,143.11,198Z" transform="translate(-106.67 -45.67)"/><path class="cls-12" d="M291.2,195c-4.3,8.72-22.58,12.56-33.78,17.23a.8.8,0,0,0-.52.55q5.39-1,10.45-2.52c9.08-2.66,18.42-5.81,24.14-10.42s4.15-9-.81-12.63A7.84,7.84,0,0,1,291.2,195Z" transform="translate(-106.67 -45.67)"/><path class="cls-13" d="M295.13,195.35c0,11.61-33.88,21-75.69,21s-75.69-9.42-75.69-21,33.89-21,75.69-21S295.13,183.73,295.13,195.35Z" transform="translate(-106.67 -45.67)"/><path id="_Обтравочный_контур_2" data-name="&lt;Обтравочный контур&gt;" class="cls-1" d="M295.13,195.35c0,11.61-33.88,21-75.69,21s-75.69-9.42-75.69-21,33.89-21,75.69-21S295.13,183.73,295.13,195.35Z" transform="translate(-106.67 -45.67)"/><g class="cls-14"><path class="cls-13" d="M155,183a82.86,82.86,0,0,1,18.55-5.57,255.11,255.11,0,0,1,42.17-3.61,307.75,307.75,0,0,1,51.38,3.5c12.65,2,27.39,6.49,29.76,14.51,2.32,7.83-7,13.65-18.05,17.71-19.8,7.29-46.37,10-69.75,9-13.21-.56-26.22-2.35-37.81-6-9.3-2.89-18.87-6.33-24.73-11.37C138.32,194.11,144.83,187.56,155,183Z" transform="translate(-106.67 -45.67)"/><path class="cls-15" d="M217.53,210.9c-3.06,0-6.14-.06-9.14-.2-13.88-.61-26.15-2.64-36.49-6-8.4-2.74-17.67-6.18-22.81-10.81a6.25,6.25,0,0,1-1.64-2c.31-.84,2.38-3.48,8.8-6.51a75.1,75.1,0,0,1,17.32-5.46,237.33,237.33,0,0,1,41.29-3.69l3.28,0a283.3,283.3,0,0,1,47.25,3.62c17.11,2.88,24.51,8.13,25.31,11,.63,2.25-3.66,6.59-14.57,10.81C260.8,207.5,239.44,210.9,217.53,210.9Z" transform="translate(-106.67 -45.67)"/><path class="cls-16" d="M217.24,212.57c-3.42,0-6.83-.1-10.17-.28-15.32-.86-29.85-1.79-41.18-6.49-7.24-3-16-3.44-20.46-13.59a38.75,38.75,0,0,1,4.27-2.93,68.47,68.47,0,0,1,18.54-7.4,210.85,210.85,0,0,1,46-5.22l3.68,0a251.25,251.25,0,0,1,52.8,5.12c13.31,2.85,20.33,7.11,23.31,9.78-1.86,1.92-4.71,7-11.17,10.18C266,210,241.54,212.57,217.24,212.57Z" transform="translate(-106.67 -45.67)"/><path class="cls-17" d="M215.75,215.7c-3.4,0-6.8-.11-10.09-.33a144,144,0,0,1-40.1-8.91,64.89,64.89,0,0,1-10-4.37c-2.47-1.33-8.13-4.79-6.49-8.82,1-2.33,11-5.78,14.07-6.6a189.19,189.19,0,0,1,36.42-6.57q6.58-.47,13.19-.56c1.23,0,2.46,0,3.67,0a217.1,217.1,0,0,1,47.66,4.9c4.23,1,8.43,1.86,12.59,3.15,2.52.78,11.56,2.81,10.87,7-.5,3-3.9,5.13-6,6.36C264.9,210.64,239.85,215.7,215.75,215.7Z" transform="translate(-106.67 -45.67)"/></g><path class="cls-18" d="M158.22,183s-8.28,2.91-11.72,6.48l.55.56S154.74,184.19,158.22,183Z" transform="translate(-106.67 -45.67)"/><path class="cls-18" d="M284.86,184.76a34.76,34.76,0,0,1,5.65,3.29l-.15.42Z" transform="translate(-106.67 -45.67)"/><path class="cls-6" d="M218.24,169.85c-43.21,0-78.23,10.3-78.23,23,0,16.08,35,24.94,78.23,24.94s78.22-5.41,78.22-24.94C296.46,180.15,261.44,169.85,218.24,169.85Zm0,41.1c-39.58,0-71.65-8.78-71.65-19.59s32.07-19.59,71.65-19.59,71.65,8.77,71.65,19.59S257.81,211,218.24,211Z" transform="translate(-106.67 -45.67)"/><path class="cls-19" d="M206.75,212.91a2,2,0,0,1-.23.52c-1.3,2-8.59.42-10.53.2-7.34-.8-14.59-1.6-21.83-3-3.65-.72-7.27-1.63-10.82-2.67-14-4.1-22-9.6-22-15.09,0-4.49,5.37-9,15-12.73-7.25,3.28-11.13,7.14-11.13,11.25,0,5.81,7.8,11.15,22,15,11,3,22.54,4.4,34,5.22C202.08,211.66,207.08,211.56,206.75,212.91Z" transform="translate(-106.67 -45.67)"/><path class="cls-10" d="M278.87,193.92c0,5.74-18.86,10.4-42.12,10.4s-13.25-9.35-8-10.4c28.29-5.67-15.28-10.4,8-10.4S278.88,190.4,278.87,193.92Z" transform="translate(-106.67 -45.67)"/><path class="cls-19" d="M244.57,211.14s-6.35.49-7.67,1.67,4.43,2.61,16.92.36,26.8-6.22,30.05-10.08-2.37-.94-9.73,1.9S244.57,211.14,244.57,211.14Z" transform="translate(-106.67 -45.67)"/><path class="cls-3" d="M497.51,287c-.64,16-36.89,28.8-81,28.59s-79.3-13.33-78.66-29.32,36.9-28.79,81-28.59S498.15,271,497.51,287Z" transform="translate(-106.67 -45.67)"/><path class="cls-4" d="M496.5,285.6c-.63,15.62-36.48,28.12-80.07,27.92s-78.42-13-77.8-28.64S375.11,256.76,418.7,257,497.12,270,496.5,285.6Z" transform="translate(-106.67 -45.67)"/><path class="cls-5" d="M467.63,280.53c-.39,9.67-22.58,17.4-49.56,17.28s-48.54-8.06-48.15-17.73,22.57-17.4,49.56-17.28S468,270.86,467.63,280.53Z" transform="translate(-106.67 -45.67)"/><path class="cls-20" d="M375.73,196.27h0a12.57,12.57,0,0,0-1.63-1,13.57,13.57,0,0,0-3.63-1c-2.13-.24-4.27-.52-6.4-.8a124.27,124.27,0,0,1-13.68-2.66c-7.89-2-23.08-6-26.46-12.31-2.87-5.4,2-12.36,10.36-10.8,4.29.81,7.93,4.37,12.33,5.47,15.9,3.94,5.94-13.76-.33-17.1-5.85-3.13-14.13-3.23-20.88-1.64-17.56,4.13-20.26,17.64-15.16,27.63,4.88,9.58,17.1,15.42,29.13,19.12a119.42,119.42,0,0,0,18,3.92c6.26.91,12.78,1.93,18.35-.9C379.67,202.22,379.58,198.29,375.73,196.27Z" transform="translate(-106.67 -45.67)"/><path class="cls-7" d="M342.93,188.86A7.29,7.29,0,0,1,343,194a5.28,5.28,0,0,1-1.17,1.85,16.83,16.83,0,0,1-7.12,1.92,40.27,40.27,0,0,1-8.68-1.71,88.38,88.38,0,0,0,13.3,5.19A118.53,118.53,0,0,0,357,205.08c.64-4.42-2.55-9.59-4.92-13.05l-.66-.94-1.07-.25C348.28,190.32,345.68,189.66,342.93,188.86Z" transform="translate(-106.67 -45.67)"/><path class="cls-8" d="M326.47,181.49a10.15,10.15,0,0,1-2.57-3c-2.87-5.4,2-12.36,10.36-10.8,4.29.81,7.93,4.37,12.33,5.47,1.19.29,4.67,1.17,5.81.31s-.35-2.33-.55-3.25a40.59,40.59,0,0,0-3.59-10.47c-1.28-2.48-3-8-7.71-7.83-3.63.12-4.25,4-4.38,6-.14,2.27.57,3.81-2.95,4.71-2.12.53-4.44.17-6.55.82a10.2,10.2,0,0,0-7.4,7.84C318.69,175,321.87,179.78,326.47,181.49Z" transform="translate(-106.67 -45.67)"/><path class="cls-20" d="M465.66,278.49l10.15-37c6.57-21.8,13.83-38.72,18.82-58.76,1.3-5.26,2.83-10.47,4.17-15.72,1-3.9,1.89-8.06,1.28-12.06a26.84,26.84,0,0,0-10.48-17.61c-13.18-9.85-31.75-11.75-47.88-13.29a259.74,259.74,0,0,0-45.54,0c-16.13,1.54-34.7,3.44-47.88,13.29A26.8,26.8,0,0,0,337.82,155c-.61,4,.28,8.16,1.28,12.06,1.33,5.25,2.87,10.46,4.17,15.72,5,20,12.25,37,18.81,58.76l10.16,37s8,14.93,45.31,14.93C417.55,293.42,459.39,293.81,465.66,278.49Z" transform="translate(-106.67 -45.67)"/><path class="cls-21" d="M332.25,157.51c-8.22-1.84-16.89,2.89-19.56,8.62A16.3,16.3,0,0,0,311.63,177c.7,3.06,2.85,7,6.27,8.87,1.31.7,3-.24,3-1.31.11-2.44-2.38-4.71-3.38-7a11.92,11.92,0,0,1,.13-9.37c1.15-3,3.88-5.2,7.62-6.39,2.67-.84,5.26-1.28,7.52-2.73C333.54,158.61,333.09,157.69,332.25,157.51Z" transform="translate(-106.67 -45.67)"/><path class="cls-22" d="M343.83,146.91c-.35,1.7-2.59,4.34-1.84,5.75.31.58,4.32-1,4.6-1.65a12.45,12.45,0,0,1,6.25-6.5c4.08-2,9.77-3.29,15.3-4.22,12.5-2.12,26.23-2.81,39.44-3.09a259.19,259.19,0,0,1,44.86,2.45,176.81,176.81,0,0,1,22.63,5,45.94,45.94,0,0,1,9.09,3.54c2.53,1.39,2.68,2.85,2.86,4.57.12,1.14,4.68,1.8,5.94.64,0,0,9-27.41-79.94-27.41C413,126,347.68,128.29,343.83,146.91Z" transform="translate(-106.67 -45.67)"/><path class="cls-23" d="M345.32,146c-1.21,1.39-2.57,4.76-1.82,6.3.3.63,4.27-1.15,4.56-1.8a13,13,0,0,1,6.19-7.13c4-2.23,9.66-3.62,15.14-4.64,12.37-2.32,26-3.08,39-3.39A231.15,231.15,0,0,1,452.85,138a162.29,162.29,0,0,1,22.4,5.47,43,43,0,0,1,9,3.89c2.51,1.52,2.66,3.13,2.84,5,.12,1.26,4.63,2,5.88.71,0,0,4.87-23.28-79.14-23.28C413.82,129.82,358.93,130.35,345.32,146Z" transform="translate(-106.67 -45.67)"/><path class="cls-24" d="M479.75,139.79a79.79,79.79,0,0,0-17.55-5.24A236.9,236.9,0,0,0,423,131.2a284.21,284.21,0,0,0-47.78,3.26c-11.76,1.89-25.48,6-27.68,13.53-2.15,7.3,6.53,12.72,16.78,16.51,18.42,6.8,43.12,9.32,64.86,8.4,12.29-.52,24.38-2.19,35.16-5.56,8.65-2.7,17.55-5.9,23-10.6C495,150.14,489.24,144.06,479.75,139.79Z" transform="translate(-106.67 -45.67)"/><path class="cls-25" d="M479.45,139.53a76.86,76.86,0,0,0-17.25-5.2A235.82,235.82,0,0,0,423,131a284.21,284.21,0,0,0-47.78,3.26c-11.76,1.89-25.48,6.06-27.68,13.53-2.15,7.3,6.53,12.73,16.78,16.52,18.42,6.8,43.12,9.32,64.86,8.4,12.29-.52,24.38-2.19,35.16-5.56,8.65-2.7,17.55-5.91,23-10.61C495,149.91,488.93,143.81,479.45,139.53Z" transform="translate(-106.67 -45.67)"/><path class="cls-26" d="M487.06,151.82c-4.1,8.87-21.51,12.78-32.17,17.53a.76.76,0,0,0-.5.56c3.41-.72,6.74-1.57,9.95-2.57,8.65-2.7,17.55-5.9,23-10.6s4.21-9.16-.5-12.87A8.47,8.47,0,0,1,487.06,151.82Z" transform="translate(-106.67 -45.67)"/><path class="cls-27" d="M364.32,164.5c17.13,6.33,39.7,8.94,60.27,8.54-7-.55-12.76-1.27-20.29-2.15-18.4-2.14-33.53-7.26-40.72-11.79-6.56-4.14-9.72-13.78,4.8-20,8.82-3.78,24.24-6.14,40-7.74.14,0,.67-.24.81-.28a269.41,269.41,0,0,0-34.26,3.15c-11.76,1.89-25.19,6.26-27.39,13.74C345.39,155.29,354.07,160.71,364.32,164.5Z" transform="translate(-106.67 -45.67)"/><path class="cls-28" d="M459.42,157.5a115.74,115.74,0,0,1-34.82,7.43,142.83,142.83,0,0,1-22.4-.82c-13.21-1.4-34-5-32.77-14.38.77-5.8,10.71-9.8,19.55-11.36,9.65-1.69,20.11-1.89,30.18-1.62,9,.24,28.84,3.44,29.88,10.76.44,3.09-6,5.23-10.2,6.38a78.53,78.53,0,0,1-16,2.23c-8.48.42-24.71-.34-28.05-5.65-4-6.38,14.55-8.93,22.53-8.29a50.69,50.69,0,0,1,12.73,2.55c6.92,2.47-2.34,6-6.73,6.71a33,33,0,0,1-8.71.13c-3.24-.38-9.29-2.55-4.43-4.23a17,17,0,0,1,8.07-.33c1.31.32,2.59.85,2.65,1.66,0,.34-1.15.66-.68,1s1.59-.16,2-.31c3-1.05,1.14-3.12-1.38-3.88a25.08,25.08,0,0,0-7.94-.69c-5.49.27-10.94,2.19-7.75,5.54s10.88,4.11,17.07,3.6,14.38-2.37,14.76-6.1c.72-7-20.05-8.24-24.06-8.15-7.37.17-16.75.53-21.7,4-4.74,3.35-3.31,8.2,1.79,11.16,5.86,3.4,14.94,3.76,23,4.14,15.57.73,47.56-5.24,34-16.41-10.34-8.52-37.44-9.64-56-7.28-15.95,2-34.44,7.84-29.22,18.51,3.95,8,22.18,11.33,35.13,12.83,21.19,2.45,45.87,1.5,61.58-7.67C462.8,158.23,461.09,156.89,459.42,157.5Z" transform="translate(-106.67 -45.67)"/><path class="cls-28" d="M476.37,146.64c-4.94-6.21-16.83-10.43-28.76-11.38-.46,0-.8.3-.34.44,9.2,2.86,18.44,4.37,24.57,9.53,3.07,2.59,4,5.68,2.54,8.65s-5.93,5.1-9.79,7.17c-.84.46.22,1.09,1.18.85C475.93,159.37,480.89,152.31,476.37,146.64Z" transform="translate(-106.67 -45.67)"/><path class="cls-29" d="M460.44,143c-.83-.49-2.46,0-2.06.66,1.67,2.68,3.26,4.52.72,7.28-2.13,2.31-6.58,4.23-10.35,5.66-.36.14-.14.52.31.42C458.06,154.91,469.57,148.34,460.44,143Z" transform="translate(-106.67 -45.67)"/><path class="cls-30" d="M384.92,148.11c-.17-.92-1.49-.58-1.3.34a1.75,1.75,0,0,1,.06.72h-.09c-.48,0-1-.4-1.49-.08a.47.47,0,0,0-.19.43c.06.89,1.62,1.53,2.25,1.4C385.21,150.72,385.08,149,384.92,148.11Z" transform="translate(-106.67 -45.67)"/><path class="cls-31" d="M384.6,147.66a.85.85,0,0,0-1-.95,8.67,8.67,0,0,0-1.62.57.85.85,0,0,0-.45.65,1.1,1.1,0,0,0-.27.91c.13.72,1,1.08,1.51,1.42a.84.84,0,0,0,1.23-.32A5.17,5.17,0,0,0,384.6,147.66Z" transform="translate(-106.67 -45.67)"/><path class="cls-32" d="M383.73,147.29a.35.35,0,0,0-.37-.13,2.85,2.85,0,0,0-1.31.63c-.33.25,0,.77.35.59a3.8,3.8,0,0,1,.85-.32c.19-.05.39-.05.51-.25A.45.45,0,0,0,383.73,147.29Z" transform="translate(-106.67 -45.67)"/><path class="cls-33" d="M381.32,149l0,0c.21.64,1,1,1.47,1.29a.84.84,0,0,0,1.23-.32,4.88,4.88,0,0,0,.47-1.26,6.19,6.19,0,0,1-1,.6A1.77,1.77,0,0,1,381.32,149Z" transform="translate(-106.67 -45.67)"/><path class="cls-25" d="M380.67,149.4c-.11-.21,3.07.5,4.94-.18s.82,2.18.82,2.18-2,2.41-2.21,2.11-1.34-.69-1.65-.91A16.66,16.66,0,0,1,380.67,149.4Z" transform="translate(-106.67 -45.67)"/><path class="cls-30" d="M417.32,148.23a.4.4,0,1,0-.79,0,1.12,1.12,0,0,1-.06.45h-.05c-.28-.09-.55-.44-.85-.33a.24.24,0,0,0-.16.22c-.08.55.75,1.23,1.13,1.27C417.17,149.86,417.3,148.8,417.32,148.23Z" transform="translate(-106.67 -45.67)"/><path class="cls-31" d="M417.2,147.9a.59.59,0,0,0-.47-.76,4.36,4.36,0,0,0-1,0,.48.48,0,0,0-.34.31.6.6,0,0,0-.26.5c0,.46.43.83.69,1.14a.5.5,0,0,0,.76,0A3.25,3.25,0,0,0,417.2,147.9Z" transform="translate(-106.67 -45.67)"/><path class="cls-32" d="M416.74,147.51a.24.24,0,0,0-.2-.14,1.51,1.51,0,0,0-.84.13c-.22.09-.08.47.13.42a1.89,1.89,0,0,1,.53,0c.12,0,.23,0,.32-.06A.29.29,0,0,0,416.74,147.51Z" transform="translate(-106.67 -45.67)"/><path class="cls-33" d="M415.13,148.1l0,0c.05.42.45.77.69,1.06a.5.5,0,0,0,.76,0,3.14,3.14,0,0,0,.43-.68,3.14,3.14,0,0,1-.67.17A1.11,1.11,0,0,1,415.13,148.1Z" transform="translate(-106.67 -45.67)"/><path class="cls-25" d="M414.7,148.22c0-.15,1.72.87,2.88.81s.21,1.47.21,1.47-1.47,1.08-1.54.86-.69-.67-.84-.86A12.38,12.38,0,0,1,414.7,148.22Z" transform="translate(-106.67 -45.67)"/><path class="cls-30" d="M446.72,158.85a.78.78,0,0,0-.09-.68c-.33-.38-.71-.28-1,.12a.86.86,0,0,1-.69.42c-.49.06-1.22-.26-1.19-.92,0-.32-.32-.48-.51-.23-.67.89.23,2.07.95,2.42A1.85,1.85,0,0,0,446.72,158.85Z" transform="translate(-106.67 -45.67)"/><path class="cls-31" d="M446,159.11a1.94,1.94,0,0,0,.81-.75,2.85,2.85,0,0,0,.35-1.09,2.56,2.56,0,0,0-.44-1.84,1.67,1.67,0,0,0-2.13-.53,2.23,2.23,0,0,0-.78.72,1.36,1.36,0,0,0-.29.49.7.7,0,0,0,0,.14,1.59,1.59,0,0,0-.34.86,1.81,1.81,0,0,0,.58,1.57l.45.3a1.27,1.27,0,0,0,.31.15,2,2,0,0,0,.95.15A1.82,1.82,0,0,0,446,159.11Z" transform="translate(-106.67 -45.67)"/><path class="cls-32" d="M446.48,156a1.65,1.65,0,0,0-2.59,0,.45.45,0,0,0-.1.48.31.31,0,0,0,.19.2.31.31,0,0,0,.35-.06,1.25,1.25,0,0,1,1.77-.16C446.35,156.66,446.68,156.26,446.48,156Z" transform="translate(-106.67 -45.67)"/><path class="cls-33" d="M446,159.11a1.94,1.94,0,0,0,.81-.75,2.85,2.85,0,0,0,.35-1.09,2.49,2.49,0,0,0,0-.55c0,.24-.77.64-.9.72a2.67,2.67,0,0,1-1.76.43c-.47-.09-1.21-.42-1-1.12a.59.59,0,0,0-.05-.46,1.65,1.65,0,0,0-.31.82,1.81,1.81,0,0,0,.58,1.57l.45.3a1.27,1.27,0,0,0,.31.15,2,2,0,0,0,.95.15A1.82,1.82,0,0,0,446,159.11Z" transform="translate(-106.67 -45.67)"/><path class="cls-25" d="M442.33,157.84c-.11-.18,2.61.31,4.13-.35s.83,1.84.83,1.84-1.54,2.17-1.72,1.92-1.17-.55-1.44-.73A15.19,15.19,0,0,1,442.33,157.84Z" transform="translate(-106.67 -45.67)"/><path class="cls-30" d="M468.09,151.18c-.1-.59-.61-1.16-1.16-1a.5.5,0,0,0-.31.47c0,.37.18.57.28.88s-.14.68-.28.92a4.86,4.86,0,0,1-1.42,1.5.34.34,0,0,0,.14.61,2.85,2.85,0,0,0,2.46-1.68A2.53,2.53,0,0,0,468.09,151.18Z" transform="translate(-106.67 -45.67)"/><path class="cls-31" d="M467.52,150.47a1.76,1.76,0,0,0-.6-.69,1.64,1.64,0,0,0-1.31-.2,1.85,1.85,0,0,0-.95.8.21.21,0,0,0,0-.06l-.08.12,0,0v0c-.18.26-.37.51-.54.78l.25-.38a7,7,0,0,1-.46.61,2,2,0,0,0-.24,2.11,1.44,1.44,0,0,0,2.08.63,5.87,5.87,0,0,0,1.58-1.41,2.06,2.06,0,0,0,.43-.86A2.1,2.1,0,0,0,467.52,150.47Z" transform="translate(-106.67 -45.67)"/><path class="cls-34" d="M465.55,150.74c-.39,0-.75.48-1,.75a1.94,1.94,0,0,0-.61,1.15c0,.17.12.32.26.22a2.39,2.39,0,0,0,.47-.31l.43-.43c.3-.28.76-.53.78-1A.34.34,0,0,0,465.55,150.74Z" transform="translate(-106.67 -45.67)"/><path class="cls-33" d="M467.69,152a2.1,2.1,0,0,0-.17-1.5l0,0a5.07,5.07,0,0,1-.73,1.56,3.07,3.07,0,0,1-3.21,1.51s0,.06,0,.09a1.44,1.44,0,0,0,2.08.63,5.87,5.87,0,0,0,1.58-1.41A2.06,2.06,0,0,0,467.69,152Z" transform="translate(-106.67 -45.67)"/><path class="cls-25" d="M463,154c-.15-.17,2.9-.23,4.46-1.28s1.21,1.83,1.21,1.83-1.33,2.7-1.56,2.47-1.37-.35-1.7-.48A15.52,15.52,0,0,1,463,154Z" transform="translate(-106.67 -45.67)"/><path class="cls-30" d="M402.35,147.38c-.27-.59-1.16-1-1.43-.18-.17.53.28.9.16,1.35s-.62.68-.93.85a2.62,2.62,0,0,1-1.38.22c-.39,0-.56.56-.31.85C400,152.21,403.42,149.69,402.35,147.38Z" transform="translate(-106.67 -45.67)"/><path class="cls-31" d="M402,145.92c0-.07,0-.14,0-.22s-.11-.46-.12-.53a.92.92,0,0,0-1.1-.67c-.53.08-1,.77-1.44,1.14a3.36,3.36,0,0,0-.95,1.12,6.53,6.53,0,0,0-.81,1.12,1.37,1.37,0,0,0,.17,1.5,3,3,0,0,0,2,1.18,2,2,0,0,0,1.7-1.16,5.44,5.44,0,0,0,.55-2.07c0-.32.05-.64.05-1C402,146.22,402,146.07,402,145.92Z" transform="translate(-106.67 -45.67)"/><path class="cls-34" d="M400.92,145.16a.33.33,0,0,0-.41-.26c-.46.11-.73.76-1,1.14a7.94,7.94,0,0,0-.89,1.49c-.13.28.16.5.36.32a15.83,15.83,0,0,0,1.26-1.2C400.56,146.24,401,145.78,400.92,145.16Z" transform="translate(-106.67 -45.67)"/><path class="cls-33" d="M401.44,149.4a5.44,5.44,0,0,0,.55-2.07v-.09a7,7,0,0,1-1.47,1.5c-.87.59-2.59.48-3-.74a1.4,1.4,0,0,0,.22,1.38,3,3,0,0,0,2,1.18A2,2,0,0,0,401.44,149.4Z" transform="translate(-106.67 -45.67)"/><path class="cls-25" d="M396.78,149.38c-.16-.19,3.21-.26,4.93-1.43s1.35,2,1.35,2-1.48,3-1.73,2.72-1.52-.38-1.88-.53A17.39,17.39,0,0,1,396.78,149.38Z" transform="translate(-106.67 -45.67)"/><path class="cls-30" d="M436.65,140a.41.41,0,0,0-.56-.08.84.84,0,0,0-.28.44s0,.1,0,.15a.26.26,0,0,0,0,.08.36.36,0,0,1,0,.09l0,.07-.06.08c-.06.07,0,0,0,0a.42.42,0,0,0,.09.8.9.9,0,0,0,.83-.37A1.07,1.07,0,0,0,436.65,140Z" transform="translate(-106.67 -45.67)"/><path class="cls-31" d="M435.74,139.5c-.81-.3-1.95-.12-1.64,1,.19.67,1.16,1.56,1.75,1a2.48,2.48,0,0,0,.61-1C436.6,140.05,436.23,139.68,435.74,139.5Z" transform="translate(-106.67 -45.67)"/><path class="cls-32" d="M435.12,140.13a1.22,1.22,0,0,0-.51-.36.32.32,0,0,0-.38.18.43.43,0,0,0,.12.53,2,2,0,0,0,.33.31A.4.4,0,0,0,435.12,140.13Z" transform="translate(-106.67 -45.67)"/><path class="cls-33" d="M435.87,139.56c-.16.91-.38,1.88-1.09,1.89a.79.79,0,0,0,1.07.06,2.48,2.48,0,0,0,.61-1C436.59,140.08,436.29,139.75,435.87,139.56Z" transform="translate(-106.67 -45.67)"/><path class="cls-25" d="M432.68,141.63c-.13-.15,2.56-.2,3.93-1.14s1.07,1.62,1.07,1.62-1.17,2.39-1.37,2.18-1.21-.31-1.5-.43A14,14,0,0,1,432.68,141.63Z" transform="translate(-106.67 -45.67)"/><path class="cls-30" d="M377.4,151.14a.57.57,0,0,0-.42.84c.38.74,1.77,1.32,1.54,2.34s-1.69,1-2.36.65c-.45-.21-.68.51-.43.85,1.06,1.41,3.19.66,3.94-.73C380.5,153.55,378.9,151,377.4,151.14Z" transform="translate(-106.67 -45.67)"/><path class="cls-35" d="M378.81,152.91c-.68-1.08-1.92-3.45-3.28-3.32-1.94.17-2.82,2.69-1.71,4.46.84,1.33,2.51,2.44,4,1.77a2,2,0,0,0,1-.91A2.2,2.2,0,0,0,378.81,152.91Z" transform="translate(-106.67 -45.67)"/><path class="cls-34" d="M375.33,150.07a2.14,2.14,0,0,0-1.05.84,2.36,2.36,0,0,0-.37.68,1.75,1.75,0,0,0-.06.33c0,.11,0,.23,0,.35a.34.34,0,0,0,.63.22,3.65,3.65,0,0,0,.61-.63c.24-.27.57-.42.78-.69A.66.66,0,0,0,375.33,150.07Z" transform="translate(-106.67 -45.67)"/><path class="cls-33" d="M378.81,154.91a2.2,2.2,0,0,0,0-2,18.12,18.12,0,0,0-1.59-2.36c.46,1.17,1,2.32.49,3.58a2.84,2.84,0,0,1-2.57,1.3,2.68,2.68,0,0,0,2.64.39A2,2,0,0,0,378.81,154.91Z" transform="translate(-106.67 -45.67)"/><path class="cls-25" d="M373.48,154.5c-.18-.2,3.48-.27,5.35-1.54s1.46,2.2,1.46,2.2-1.6,3.25-1.88,3-1.64-.41-2-.57A19.09,19.09,0,0,1,373.48,154.5Z" transform="translate(-106.67 -45.67)"/><path class="cls-31" d="M419.39,159.84a2.09,2.09,0,0,0-.09-1,2,2,0,0,0-.89-1.08,1.56,1.56,0,0,0-1.16-.06l.06,0-.13,0h0l-.84.21.4-.11c-.23.06-.46.1-.68.14a1.62,1.62,0,0,0-1.33,1.44,1.73,1.73,0,0,0,1.25,2,4.85,4.85,0,0,0,2,.05,1.56,1.56,0,0,0,.8-.35A1.9,1.9,0,0,0,419.39,159.84Z" transform="translate(-106.67 -45.67)"/><path class="cls-34" d="M417.73,158.64c-.27-.31-.83-.17-1.18-.15a1.52,1.52,0,0,0-1.09.44.22.22,0,0,0,.08.37,2.94,2.94,0,0,0,.53.08l.56,0c.38,0,.87.14,1.15-.22A.39.39,0,0,0,417.73,158.64Z" transform="translate(-106.67 -45.67)"/><path class="cls-33" d="M418.71,161.11a1.9,1.9,0,0,0,.68-1.27v0a3.92,3.92,0,0,1-1.41.68,3,3,0,0,1-3.27-1.14.36.36,0,0,0,0,.1,1.73,1.73,0,0,0,1.25,2,4.85,4.85,0,0,0,2,.05A1.56,1.56,0,0,0,418.71,161.11Z" transform="translate(-106.67 -45.67)"/><path class="cls-25" d="M414.65,161.13c-.14-.16,2.8-.22,4.31-1.24s1.17,1.77,1.17,1.77-1.28,2.62-1.51,2.39-1.32-.34-1.64-.47A14.72,14.72,0,0,1,414.65,161.13Z" transform="translate(-106.67 -45.67)"/><path class="cls-30" d="M395,157.61a.35.35,0,0,0-.3.45c.16.62.86,1,.56,1.77s-1.38.63-2,.68a.24.24,0,0,0-.06.46,2,2,0,0,0,2.71-.82C396.31,159.35,395.9,157.62,395,157.61Z" transform="translate(-106.67 -45.67)"/><path class="cls-31" d="M395.31,158a1.56,1.56,0,0,0-.27-.34,1,1,0,0,0-.72-.41,2.24,2.24,0,0,0-1.57.46,2.14,2.14,0,0,0-.74,1.1,1.85,1.85,0,0,0,.37,1.61,2,2,0,0,0,1,.68,1.58,1.58,0,0,0,1.37-.29,2.19,2.19,0,0,0,.76-1.22A2.29,2.29,0,0,0,395.31,158Z" transform="translate(-106.67 -45.67)"/><path class="cls-32" d="M393.37,157.9a1.28,1.28,0,0,0-.34.19l-.33.28a1,1,0,0,0-.3.81c.07.22.31.38.5.23a.54.54,0,0,0,.14-.16c-.06.1.08-.06,0,0a2,2,0,0,0,.23-.18l.25-.19a1.1,1.1,0,0,0,.27-.34C394,158.23,393.69,157.76,393.37,157.9Z" transform="translate(-106.67 -45.67)"/><path class="cls-33" d="M395.23,157.89a3,3,0,0,1-1.11,1.83,2.39,2.39,0,0,1-1.9.45,2.26,2.26,0,0,0,.16.26,2,2,0,0,0,1,.68,1.58,1.58,0,0,0,1.37-.29,2.19,2.19,0,0,0,.76-1.22,2.29,2.29,0,0,0-.23-1.59S395.25,157.93,395.23,157.89Z" transform="translate(-106.67 -45.67)"/><path class="cls-25" d="M391.68,160.34c-.12-.14,2.52-.16,3.87-1s1.07,1.57,1.07,1.57-1.14,2.27-1.34,2.07-1.19-.31-1.48-.43A13.46,13.46,0,0,1,391.68,160.34Z" transform="translate(-106.67 -45.67)"/><path class="cls-30" d="M366.16,142.42a.49.49,0,0,0-.66-.09.92.92,0,0,0-.33.52l0,.17s0,.09,0,.11a.93.93,0,0,0-.05.1s0,.07,0,.08l-.08.09c-.07.09,0,0,0,0a.5.5,0,0,0,.11,1,1.09,1.09,0,0,0,1-.43A1.29,1.29,0,0,0,366.16,142.42Z" transform="translate(-106.67 -45.67)"/><path class="cls-31" d="M365.09,141.86c-1-.36-2.31-.14-1.94,1.2.22.79,1.37,1.84,2.06,1.17a2.9,2.9,0,0,0,.72-1.21C366.1,142.5,365.67,142.08,365.09,141.86Z" transform="translate(-106.67 -45.67)"/><path class="cls-32" d="M364.36,142.6a1.53,1.53,0,0,0-.6-.42.39.39,0,0,0-.46.21.51.51,0,0,0,.15.63,2.21,2.21,0,0,0,.38.36C364.27,143.61,364.7,143,364.36,142.6Z" transform="translate(-106.67 -45.67)"/><path class="cls-33" d="M365.23,141.93c-.18,1.07-.44,2.21-1.28,2.23.42.3.9.42,1.26.07a2.9,2.9,0,0,0,.72-1.21C366.09,142.55,365.73,142.16,365.23,141.93Z" transform="translate(-106.67 -45.67)"/><path class="cls-25" d="M362.69,144c-.12-.14,2.35-.15,3.61-1s1.5.09,1.5.09-1.81,2.05-1.93,1.79c-.65-1.38-.94,1.24-1.21,1.13A13.29,13.29,0,0,1,362.69,144Z" transform="translate(-106.67 -45.67)"/><path class="cls-30" d="M477.32,139.74a.49.49,0,0,0-.67-.1.94.94,0,0,0-.33.54s0,.11,0,.17a.45.45,0,0,1,0,.11l0,.1,0,.09-.08.09c-.07.09,0,0,0,0a.51.51,0,0,0,.11,1,1.12,1.12,0,0,0,1-.44A1.3,1.3,0,0,0,477.32,139.74Z" transform="translate(-106.67 -45.67)"/><path class="cls-31" d="M476.23,139.17c-1-.37-2.35-.15-2,1.22.23.81,1.4,1.88,2.11,1.2a3,3,0,0,0,.73-1.24C477.27,139.82,476.82,139.39,476.23,139.17Z" transform="translate(-106.67 -45.67)"/><path class="cls-32" d="M475.49,139.92a1.52,1.52,0,0,0-.62-.43.38.38,0,0,0-.46.22.51.51,0,0,0,.15.64,2,2,0,0,0,.39.37C475.4,141,475.84,140.37,475.49,139.92Z" transform="translate(-106.67 -45.67)"/><path class="cls-33" d="M476.38,139.23c-.19,1.1-.45,2.27-1.31,2.28a1,1,0,0,0,1.29.08,3,3,0,0,0,.73-1.24C477.25,139.87,476.89,139.47,476.38,139.23Z" transform="translate(-106.67 -45.67)"/><path class="cls-25" d="M474,141.15c-.13-.14,2.4-.15,3.68-1s1,1.49,1,1.49-1.08,2.18-1.27,2a7.36,7.36,0,0,0-1.42-.4A13.6,13.6,0,0,1,474,141.15Z" transform="translate(-106.67 -45.67)"/><path class="cls-30" d="M444.14,134c-.19-.56-.71-1.08-1.27-.88a.56.56,0,0,0-.27.77c.1.27.39.45.47.62,0,0,0,0,0,0a.79.79,0,0,1-.08.16,1,1,0,0,1-.49.36c-.19,0-.57.23-.54.53.06.57.6.62,1,.52a1.7,1.7,0,0,0,1-.79A1.59,1.59,0,0,0,444.14,134Z" transform="translate(-106.67 -45.67)"/><path class="cls-35" d="M443.69,134.32a3.38,3.38,0,0,0-.66-1.19c-.35-.37-1-.67-1.42-.37a.69.69,0,0,0-.17.17.6.6,0,0,0-.47.6,2.24,2.24,0,0,0,.07.73l.09.37s0,.06,0,.09c-.14.57.27,1.25.81,1.21a3.28,3.28,0,0,0,1.35-.51A1,1,0,0,0,443.69,134.32Z" transform="translate(-106.67 -45.67)"/><path class="cls-34" d="M442.26,133.14c-.32-.42-.9.25-.53.62.18.18.45.42.67.16S442.43,133.36,442.26,133.14Z" transform="translate(-106.67 -45.67)"/><path class="cls-33" d="M443.31,135.42a1,1,0,0,0,.38-1.1c-.05-.14-.1-.27-.16-.4a4.16,4.16,0,0,1-.88.63,2.46,2.46,0,0,1-1.51.24c-.09.56.3,1.18.82,1.14A3.28,3.28,0,0,0,443.31,135.42Z" transform="translate(-106.67 -45.67)"/><path class="cls-25" d="M440,135.68c-.12-.13,2.27-.14,3.49-.94s1,1.42,1,1.42-1,2.05-1.22,1.87a6.46,6.46,0,0,0-1.33-.38A12.51,12.51,0,0,1,440,135.68Z" transform="translate(-106.67 -45.67)"/><path class="cls-36" d="M480.48,140a92.17,92.17,0,0,0-18.11-4.84c-13-2-27-2.65-40.55-2.74a353,353,0,0,0-50.4,2.94c-12.23,1.7-25.72,5.42-28,12.13-2.24,6.55,6.79,11.42,17.44,14.81,19.14,6.11,44.81,8.36,67.4,7.54,12.76-.46,25.33-2,36.53-5,9-2.42,18.24-5.29,23.9-9.51C496.63,149.38,490.34,143.8,480.48,140Z" transform="translate(-106.67 -45.67)"/><path class="cls-12" d="M492,153.06c-4.32,8-22.7,11.49-33.95,15.76-.37.14-.48.33-.52.5,3.6-.64,7.11-1.4,10.5-2.31,9.12-2.43,18.51-5.3,24.26-9.53s4.17-8.2-.81-11.54A6.6,6.6,0,0,1,492,153.06Z" transform="translate(-106.67 -45.67)"/><path class="cls-20" d="M419.1,124.92c-43.19,0-78.2,12.34-78.2,25.35,0,14.92,35,23,78.2,23s78.21-7.91,78.21-23.78C497.31,136.48,462.29,124.92,419.1,124.92Zm0,42.1c-39.56,0-71.62-9-71.62-20.07s32.06-20.06,71.62-20.06,71.63,9,71.63,20.06S458.66,167,419.1,167Z" transform="translate(-106.67 -45.67)"/><path class="cls-37" d="M407.62,169a2.07,2.07,0,0,1-.23.53c-1.3,2.08-8.58.43-10.53.21-7.34-.82-14.59-1.64-21.82-3.11-3.64-.73-7.27-1.66-10.82-2.73-14-4.2-22-9.84-22-15.46,0-4.6,5.37-9.21,15-13-7.25,3.36-11.13,7.32-11.13,11.52,0,6,7.8,11.43,21.95,15.39,11.05,3.1,22.54,4.51,34,5.35C403,167.75,408,167.65,407.62,169Z" transform="translate(-106.67 -45.67)"/><path class="cls-37" d="M443.38,167.81s-6.45.43-7.8,1.49,4.51,2.33,17.2.32,27.24-5.55,30.53-9-2.4-.83-9.87,1.7S443.38,167.81,443.38,167.81Z" transform="translate(-106.67 -45.67)"/><path class="cls-38" d="M407.55,183s57.5,4.72,85-12.37l-30.62,89.28S476.62,197.16,407.55,183Z" transform="translate(-106.67 -45.67)"/><path class="cls-3" d="M694.18,283.64c-.64,16-36.9,28.8-81,28.59s-79.3-13.33-78.66-29.32,36.89-28.79,81-28.59S694.82,267.65,694.18,283.64Z" transform="translate(-106.67 -45.67)"/><path class="cls-4" d="M693.16,282.26c-.62,15.62-36.47,28.12-80.06,27.92s-78.43-13-77.8-28.64,36.47-28.11,80.06-27.92S693.79,266.65,693.16,282.26Z" transform="translate(-106.67 -45.67)"/><path class="cls-5" d="M680.85,280.22c-.52,13.19-30.8,23.74-67.62,23.57s-66.23-11-65.7-24.18,30.8-23.75,67.62-23.58S681.38,267,680.85,280.22Z" transform="translate(-106.67 -45.67)"/><path class="cls-39" d="M579.45,253l0,0a16.34,16.34,0,0,0-1.57-1.66A14.28,14.28,0,0,0,574,249.2q-3.54-1.24-7-2.57a126.55,126.55,0,0,1-14.8-6.7c-8.41-4.43-24.51-13.23-26.43-22.29-1.63-7.7,6-15.58,15.11-11.55,4.65,2.06,7.71,7.56,12.4,10,16.93,8.91,11-16.45,4.84-22.28-5.73-5.45-15.14-7.55-23.33-7.1C513.47,187.92,506.27,204.81,509,219c2.65,13.6,14.81,24.1,27.41,31.77a122,122,0,0,0,19.37,9.39c6.86,2.66,14,5.54,21.21,3.19C582.13,261.69,583.23,256.56,579.45,253Z" transform="translate(-106.67 -45.67)"/><path class="cls-40" d="M544.29,235.58a11,11,0,0,1-1.46,6.65,7.28,7.28,0,0,1-1.9,2.12,18,18,0,0,1-8.7.8,41.06,41.06,0,0,1-9.38-4.29,92.46,92.46,0,0,0,13.59,9.91,122.31,122.31,0,0,0,19,9.23c2.07-5.59,0-13.07-1.64-18.12-.15-.45-.31-.91-.47-1.37l-1.14-.58C549.94,238.76,547.18,237.28,544.29,235.58Z" transform="translate(-106.67 -45.67)"/><path class="cls-40" d="M559.23,199.11a58.6,58.6,0,0,1,.9,14.44c0,1.26,1,3.59-.36,4.36s-5.26-1.12-6.53-1.79c-4.69-2.47-7.75-8-12.4-10-9.07-4-16.74,3.85-15.11,11.55a12.7,12.7,0,0,0,2,4.46c-4.74-3.32-6.9-10.29-5.13-14.84a13.47,13.47,0,0,1,10.83-8.42c2.61-.34,5.14.68,7.72.49,4.3-.33,5.32-2.33,6.18-5.25l1.11-5.67s3.48,1.11,4.7,2.26S559.23,199.11,559.23,199.11Z" transform="translate(-106.67 -45.67)"/><path class="cls-21" d="M541.66,192.33c-8.82-4.34-20.15-.27-24.94,6.55a24.76,24.76,0,0,0-4.51,13.79c-.13,4.15,1.1,9.85,4.44,13a2.44,2.44,0,0,0,3.85-1c.86-3.14-1.28-6.68-1.75-9.83-.64-4.28.74-8.48,3-12.14a14.45,14.45,0,0,1,10.65-6.47c3.3-.47,6.39-.42,9.41-1.76A1.2,1.2,0,0,0,541.66,192.33Z" transform="translate(-106.67 -45.67)"/><path class="cls-39" d="M679.17,281.39l1.51-96.52-.5-19.3c0-5.43-3.73-10.69-8.45-14.22-10.63-7.94-25.61-9.47-38.62-10.71a208.71,208.71,0,0,0-36.74,0c-13,1.24-28.1,2.77-38.73,10.71-4.72,3.53-8.56,8.32-8.56,14.22l1.51,115.82s10.71,19.49,60,19.49C662.91,300.88,679.17,281.39,679.17,281.39Z" transform="translate(-106.67 -45.67)"/><g class="cls-41"><path class="cls-40" d="M549.19,174.15l.2,15.64c4.83,4.89,20.43,16.33,61,16.33,45.47,0,64.92-12.76,70.22-17.09l.07-4.16-.29-11.09c-5.61,4.49-25.14,16.91-70,16.91C569.24,190.69,553.77,178.92,549.19,174.15Z" transform="translate(-106.67 -45.67)"/><path class="cls-40" d="M679.35,269.41l.25-15.61c-6.52,4.91-26.26,16.29-69.21,16.29-38.45,0-54.48-10.27-60.15-15.51l.2,15.62c5.85,5.29,22,15.32,59.95,15.32C652.82,285.52,672.59,274.42,679.35,269.41Z" transform="translate(-106.67 -45.67)"/><path class="cls-40" d="M610.39,245.11c43.86,0,63.51-11.87,69.61-16.6l.24-15.62c-5.8,4.59-25.39,16.78-69.85,16.78-39.73,0-55.52-11-60.69-16l.21,15.63C555.28,234.42,571.17,245.11,610.39,245.11Z" transform="translate(-106.67 -45.67)"/></g><path class="cls-42" d="M553.44,166c.2.49,3.3-2.82,3.54-3.3a10.08,10.08,0,0,1,5.12-5.25c3.35-1.63,8-2.65,12.54-3.41,10.25-1.7,21.51-2.26,32.34-2.49a216.42,216.42,0,0,1,36.79,2,146.44,146.44,0,0,1,18.55,4,37.71,37.71,0,0,1,7.45,2.85,3.89,3.89,0,0,1,2.35,3.69c.1.92,2.69,4,3.63,3,0,0,12.91-23.64-59.88-23.64S552.51,164.52,553.44,166" transform="translate(-106.67 -45.67)"/><path class="cls-43" d="M664.7,154a65.31,65.31,0,0,0-14.42-4.29,201,201,0,0,0-32.76-2.77,241.51,241.51,0,0,0-39.93,2.69c-9.83,1.56-21.28,5-23.13,11.15s5.46,10.49,14,13.61c15.39,5.6,36,7.68,54.2,6.92a117.1,117.1,0,0,0,29.38-4.58c7.23-2.23,14.66-4.86,19.22-8.74C677.68,162.54,672.62,157.51,664.7,154Z" transform="translate(-106.67 -45.67)"/><path class="cls-44" d="M671.92,158.65c3.23,3,3.35,6.14-.61,9.5-4.55,3.87-12.44,6.68-19.67,8.9-9,2.78-18.82,3.8-29.09,4.22-11.52.48-32.83,1.46-54.23-6.34-8.56-3.12-15.81-7.58-14-13.61,1.21-4.06,6-7,12-8.9-2.21.94-5.9,2.86-6.47,4.78-1.65,5.52,7.26,10,15.11,12.9,14.11,5.14,33,7,49.71,6.35a108,108,0,0,0,26.94-4.2s30.37-10.32,4.69-21c0,0,9.86,2,15.61,7.38" transform="translate(-106.67 -45.67)"/><path class="cls-45" d="M554.46,161c1.85-6.16,13.3-9.59,23.13-11.15a240.43,240.43,0,0,1,39.93-2.69,199.94,199.94,0,0,1,32.76,2.77,64.78,64.78,0,0,1,14.42,4.29c5,2.23,8.89,5.07,9.42,8.24.63-3.76-3.63-7.14-9.42-9.72a65.31,65.31,0,0,0-14.42-4.29,201,201,0,0,0-32.76-2.77,241.51,241.51,0,0,0-39.93,2.69c-9.83,1.56-21.28,5-23.13,11.15a6.07,6.07,0,0,0-.22,2.55A6,6,0,0,1,554.46,161Z" transform="translate(-106.67 -45.67)"/><path class="cls-12" d="M671.05,164.12c-3.42,7.31-18,10.52-26.88,14.44a.63.63,0,0,0-.41.46c2.85-.59,5.63-1.29,8.31-2.11,7.23-2.23,14.64-4.9,19.22-8.74,4.79-4,3.3-7.53-.64-10.58C672,159.11,672.11,161.87,671.05,164.12Z" transform="translate(-106.67 -45.67)"/><path class="cls-12" d="M568.49,174.56c14.31,5.22,32.72,7.11,49.9,6.78-5.81-.45-10.2-.78-16.49-1.51-15.38-1.76-28-6-34-9.72-5.48-3.41-8.13-11.35,4-16.47,7.37-3.11,20.46-5,33.64-6.32a1.77,1.77,0,0,0,.33-.08,223.8,223.8,0,0,0-28.26,2.57c-9.83,1.55-21.28,5-23.13,11.15C552.66,167,559.92,171.44,568.49,174.56Z" transform="translate(-106.67 -45.67)"/><path class="cls-12" d="M673.34,163.58c-3.48,7.11-18.27,10.24-27.33,14a.64.64,0,0,0-.42.45c2.9-.57,5.73-1.25,8.45-2.06,7.35-2.16,14.91-4.73,19.54-8.49s3.36-7.32-.65-10.29A6.41,6.41,0,0,1,673.34,163.58Z" transform="translate(-106.67 -45.67)"/><path class="cls-39" d="M614.67,142.58c-35.23,0-63.78,8.51-63.78,19,0,12.08,28.55,20.56,63.78,20.56s63.78-7.75,63.78-20.56C678.45,151.09,649.9,142.58,614.67,142.58Zm0,34c-32.27,0-58.42-7.25-58.42-16.19s26.15-16.19,58.42-16.19,58.42,7.25,58.42,16.19S646.94,176.55,614.67,176.55Z" transform="translate(-106.67 -45.67)"/><path class="cls-19" d="M605.31,178.17a1.6,1.6,0,0,1-.2.43c-1.05,1.68-7,.34-8.58.17-6-.66-11.9-1.33-17.8-2.51-3-.59-5.92-1.34-8.82-2.21-11.38-3.39-17.92-7.93-17.92-12.46,0-3.72,4.38-7.44,12.22-10.53-5.91,2.71-9.07,5.91-9.07,9.3,0,4.81,6.36,9.22,17.9,12.41a142.19,142.19,0,0,0,27.74,4.32C601.5,177.14,605.58,177.05,605.31,178.17Z" transform="translate(-106.67 -45.67)"/><path class="cls-19" d="M635.91,176.94s-5.21.36-6.29,1.21,3.63,1.88,13.86.26,22-4.48,24.64-7.26-1.94-.68-8,1.37S635.91,176.94,635.91,176.94Z" transform="translate(-106.67 -45.67)"/><g class="cls-46"><path class="cls-29" d="M623.51,148.26c-4.32,0-7.78,2-7.78,3.2,0-1.2-3.46-3.2-7.78-3.2s-7.82,1-7.82,2.17c0,2.78,15.6,3,15.6,4.18,0-1.22,15.6-1.4,15.6-4.18C631.33,149.23,627.83,148.26,623.51,148.26Zm-7.78,6.08c0-1-13.11-1.4-13.11-3.73,0-1,2.94-1.83,6.57-1.83s6.54,1.84,6.54,2.85c0-1,2.91-2.85,6.54-2.85s6.57.82,6.57,1.83C628.84,152.94,615.73,153.32,615.73,154.34Z" transform="translate(-106.67 -45.67)"/><path class="cls-47" d="M622.27,148.78c-3.63,0-6.54,1.84-6.54,2.85,0-1-2.91-2.85-6.54-2.85s-6.57.82-6.57,1.83c0,2.33,13.11,2.71,13.11,3.73,0-1,13.11-1.4,13.11-3.73C628.84,149.6,625.9,148.78,622.27,148.78Zm-6.54,5.29c0-.85-10.91-1.38-10.91-3.32,0-.84,2.45-1.52,5.47-1.52s5.44,1.7,5.44,2.54c0-.84,2.42-2.54,5.44-2.54s5.48.68,5.48,1.52C626.65,152.69,615.73,153.22,615.73,154.07Z" transform="translate(-106.67 -45.67)"/><path class="cls-48" d="M621.17,149.23c-3,0-5.44,1.7-5.44,2.54,0-.84-2.42-2.54-5.44-2.54s-5.47.68-5.47,1.52c0,1.94,10.91,2.47,10.91,3.32,0-.85,10.92-1.38,10.92-3.32C626.65,149.91,624.19,149.23,621.17,149.23Zm-5.44,4.55c0-.65-8.33-1.41-8.33-2.89,0-.65,1.87-1.16,4.18-1.16s4.15,1.54,4.15,2.18c0-.64,1.85-2.18,4.16-2.18s4.18.51,4.18,1.16C624.07,152.37,615.73,153.13,615.73,153.78Z" transform="translate(-106.67 -45.67)"/><path class="cls-49" d="M615.73,153.78c0-.65-8.33-1.41-8.33-2.89,0-.65,1.87-1.16,4.18-1.16s4.15,1.54,4.15,2.18c0-.64,1.85-2.18,4.16-2.18s4.18.51,4.18,1.16C624.07,152.37,615.73,153.13,615.73,153.78Z" transform="translate(-106.67 -45.67)"/></g><g class="cls-46"><path class="cls-29" d="M626.79,153.74c-6.14,0-11.06,2.84-11.06,4.55,0-1.71-4.91-4.55-11.05-4.55s-11.12,1.38-11.12,3.09c0,3.95,22.17,4.2,22.17,5.94,0-1.74,22.18-2,22.18-5.94C637.91,155.12,632.93,153.74,626.79,153.74Zm-11.06,8.65c0-1.46-18.64-2-18.64-5.32,0-1.43,4.19-2.59,9.35-2.59s9.29,2.62,9.29,4.05c0-1.43,4.13-4.05,9.3-4.05s9.34,1.16,9.34,2.59C634.37,160.39,615.73,160.93,615.73,162.39Z" transform="translate(-106.67 -45.67)"/><path class="cls-47" d="M625,154.48c-5.17,0-9.3,2.62-9.3,4.05,0-1.43-4.13-4.05-9.29-4.05s-9.35,1.16-9.35,2.59c0,3.32,18.64,3.86,18.64,5.32,0-1.46,18.64-2,18.64-5.32C634.37,155.64,630.19,154.48,625,154.48Zm-9.3,7.52c0-1.21-15.51-2-15.51-4.73,0-1.19,3.48-2.16,7.77-2.16s7.74,2.43,7.74,3.62c0-1.19,3.44-3.62,7.74-3.62s7.78,1,7.78,2.16C631.25,160,615.73,160.79,615.73,162Z" transform="translate(-106.67 -45.67)"/><path class="cls-48" d="M623.47,155.11c-4.3,0-7.74,2.43-7.74,3.62,0-1.19-3.44-3.62-7.74-3.62s-7.77,1-7.77,2.16c0,2.77,15.51,3.52,15.51,4.73,0-1.21,15.52-2,15.52-4.73C631.25,156.08,627.76,155.11,623.47,155.11Zm-7.74,6.48c0-.93-11.85-2-11.85-4.12,0-.91,2.66-1.65,5.94-1.65s5.91,2.2,5.91,3.11c0-.91,2.63-3.11,5.91-3.11s5.94.74,5.94,1.65C627.58,159.58,615.73,160.66,615.73,161.59Z" transform="translate(-106.67 -45.67)"/><path class="cls-49" d="M615.73,161.59c0-.93-11.85-2-11.85-4.12,0-.91,2.66-1.65,5.94-1.65s5.91,2.2,5.91,3.11c0-.91,2.63-3.11,5.91-3.11s5.94.74,5.94,1.65C627.58,159.58,615.73,160.66,615.73,161.59Z" transform="translate(-106.67 -45.67)"/></g><g class="cls-46"><path class="cls-29" d="M631.73,160.81c-8.88,0-16,4.12-16,6.58,0-2.46-7.11-6.58-16-6.58s-16.08,2-16.08,4.47c0,5.72,32.08,6.09,32.08,8.6,0-2.51,32.09-2.88,32.09-8.6C647.82,162.81,640.62,160.81,631.73,160.81Zm-16,12.51c0-2.11-27-2.88-27-7.69,0-2.07,6.06-3.75,13.52-3.75s13.45,3.8,13.45,5.87c0-2.07,6-5.87,13.45-5.87s13.52,1.68,13.52,3.75C642.7,170.44,615.73,171.21,615.73,173.32Z" transform="translate(-106.67 -45.67)"/><path class="cls-47" d="M629.18,161.88c-7.47,0-13.45,3.8-13.45,5.87,0-2.07-6-5.87-13.45-5.87s-13.52,1.68-13.52,3.75c0,4.81,27,5.58,27,7.69,0-2.11,27-2.88,27-7.69C642.7,163.56,636.65,161.88,629.18,161.88Zm-13.45,10.89c0-1.76-22.45-2.84-22.45-6.85,0-1.72,5-3.12,11.26-3.12s11.19,3.51,11.19,5.24c0-1.73,5-5.24,11.2-5.24s11.25,1.4,11.25,3.12C638.18,169.93,615.73,171,615.73,172.77Z" transform="translate(-106.67 -45.67)"/><path class="cls-48" d="M626.93,162.8c-6.22,0-11.2,3.51-11.2,5.24,0-1.73-5-5.24-11.19-5.24s-11.26,1.4-11.26,3.12c0,4,22.45,5.09,22.45,6.85,0-1.76,22.45-2.84,22.45-6.85C638.18,164.2,633.14,162.8,626.93,162.8Zm-11.2,9.37c0-1.34-17.14-2.9-17.14-6,0-1.31,3.84-2.38,8.59-2.38s8.55,3.18,8.55,4.5c0-1.32,3.8-4.5,8.55-4.5s8.6,1.07,8.6,2.38C632.88,169.27,615.73,170.83,615.73,172.17Z" transform="translate(-106.67 -45.67)"/><path class="cls-49" d="M615.73,172.17c0-1.34-17.14-2.9-17.14-6,0-1.31,3.84-2.38,8.59-2.38s8.55,3.18,8.55,4.5c0-1.32,3.8-4.5,8.55-4.5s8.6,1.07,8.6,2.38C632.88,169.27,615.73,170.83,615.73,172.17Z" transform="translate(-106.67 -45.67)"/></g><path class="cls-10" d="M633.43,161.35c0,5.61-14.67,10.16-32.78,10.16s-32.78-4.55-32.78-10.16,14.68-11,32.78-11S633.43,155.74,633.43,161.35Z" transform="translate(-106.67 -45.67)"/><g class="cls-50"><path class="cls-4" d="M193.39,74.87s26.25,17.11,14.16,38,0,40.07,0,40.07c-1.81-3.07-1.24-9.09-1.09-12.37a56.47,56.47,0,0,1,5.63-22.89c2.42-4.78,6.06-9.3,6.63-14.65,1-9.12-7.3-16.07-14.72-21.22C200.54,79.42,197,77.09,193.39,74.87Z" transform="translate(-106.67 -45.67)"/><path class="cls-4" d="M221.68,89.27s11.51,10.81,3.71,21.38-.93,21.39-.93,21.39c-.79-1.76-.11-5,.18-6.71a30.76,30.76,0,0,1,4.44-12c1.6-2.44,3.84-4.67,4.48-7.51,1.09-4.86-2.93-9-6.6-12.23C225.25,92.11,223.48,90.66,221.68,89.27Z" transform="translate(-106.67 -45.67)"/><path class="cls-4" d="M219.74,112.29s-11.42,24.72-2.5,39.78c8.44,14.24-1.25,22.69-1.25,22.69s15.23-6.33,7-22.2C212.76,132.92,219.74,112.29,219.74,112.29Z" transform="translate(-106.67 -45.67)"/></g><g class="cls-50"><path class="cls-4" d="M397.76,45.67s23,12.07,12.41,26.82,0,28.27,0,28.27c-1.59-2.17-1.09-6.42-.95-8.73a33.6,33.6,0,0,1,4.93-16.15c2.12-3.37,5.31-6.56,5.81-10.33.85-6.44-6.4-11.35-12.9-15C404,48.88,400.92,47.24,397.76,45.67Z" transform="translate(-106.67 -45.67)"/><path class="cls-4" d="M422.55,55.83s10.08,7.63,3.25,15.08S425,86,425,86c-.69-1.23-.09-3.5.16-4.73A19.36,19.36,0,0,1,429,72.8c1.41-1.72,3.36-3.29,3.92-5.3,1-3.42-2.56-6.38-5.78-8.62Q424.92,57.3,422.55,55.83Z" transform="translate(-106.67 -45.67)"/><path class="cls-4" d="M410.59,102.59s7.24,5.48,2.33,10.84-.59,10.85-.59,10.85c-.49-.89-.06-2.52.12-3.4a13.89,13.89,0,0,1,2.8-6.09c1-1.24,2.41-2.37,2.81-3.81.69-2.46-1.84-4.59-4.15-6.2C412.83,104,411.72,103.3,410.59,102.59Z" transform="translate(-106.67 -45.67)"/><path class="cls-4" d="M420.85,72.07s-10,17.44-2.19,28.07c7.39,10-1.1,16-1.1,16s13.34-4.47,6.12-15.67C414.74,86.62,420.85,72.07,420.85,72.07Z" transform="translate(-106.67 -45.67)"/></g><g class="cls-50"><path class="cls-4" d="M593.39,70.74S613.29,81.19,604.13,94s0,24.47,0,24.47c-1.38-1.88-1-5.55-.83-7.55a29.11,29.11,0,0,1,4.27-14c1.84-2.92,4.59-5.68,5-9,.73-5.57-5.54-9.81-11.17-13C598.81,73.52,596.12,72.1,593.39,70.74Z" transform="translate(-106.67 -45.67)"/><path class="cls-4" d="M614.84,79.53s8.72,6.61,2.81,13.06-.71,13.06-.71,13.06c-.59-1.07-.07-3,.14-4.1a16.7,16.7,0,0,1,3.37-7.32c1.22-1.49,2.91-2.85,3.4-4.59.82-3-2.22-5.53-5-7.47C617.55,81.27,616.21,80.39,614.84,79.53Z" transform="translate(-106.67 -45.67)"/><path class="cls-4" d="M605.06,118.63s6.66,5.05,2.15,10-.54,10-.54,10c-.46-.82-.06-2.31.1-3.13a12.82,12.82,0,0,1,2.58-5.59c.92-1.14,2.22-2.18,2.59-3.5.63-2.26-1.7-4.22-3.82-5.7C607.13,120,606.1,119.28,605.06,118.63Z" transform="translate(-106.67 -45.67)"/><path class="cls-4" d="M613.37,93.59s-8.66,15.1-1.9,24.29c6.4,8.7-.94,13.86-.94,13.86s11.54-3.87,5.29-13.56C608.08,106.19,613.37,93.59,613.37,93.59Z" transform="translate(-106.67 -45.67)"/></g><path class="cls-51" d="M209.45,154.31s8.49,6.43,2.74,12.72-.69,12.71-.69,12.71c-.58-1-.08-3,.13-4a16.29,16.29,0,0,1,3.28-7.13c1.19-1.45,2.84-2.78,3.31-4.47.8-2.88-2.16-5.38-4.87-7.27Q211.45,155.56,209.45,154.31Z" transform="translate(-106.67 -45.67)"/><path class="cls-3" d="M329.56,447.31c-.81,11.38-46.53,20.49-102.12,20.35s-100-9.49-99.19-20.87,46.53-20.49,102.12-20.34S330.36,435.93,329.56,447.31Z" transform="translate(-106.67 -45.67)"/><path class="cls-4" d="M328.27,446.33c-.78,11.12-46,20-101,19.87s-98.89-9.27-98.1-20.38,46-20,101-19.87S329.06,435.22,328.27,446.33Z" transform="translate(-106.67 -45.67)"/><path class="cls-5" d="M291.88,442.72c-.49,6.88-28.47,12.38-62.5,12.3s-61.21-5.74-60.72-12.62,28.47-12.38,62.49-12.29S292.36,435.84,291.88,442.72Z" transform="translate(-106.67 -45.67)"/><path class="cls-52" d="M308.67,389.75l-157.17-4.6-1.15,35.45h0l-.54,16.65h0c0,.2,0,.52,0,.72v.37h0c1.51,9.62,35.71,18.75,77.95,20s77-5.73,79.13-15.58v0l.36-13.65h0Z" transform="translate(-106.67 -45.67)"/><path class="cls-53" d="M172.7,397.61s-5.53-2.15-8.86-.26-2.08,8.81,10.56,12.76,25.18,4.62,29.75,6.94a24.42,24.42,0,0,0,12.58,2.51c3.17-.26,32.4-3.09,32.4-3.09s14.36-.17,20.44-2.28,12.95-5.27,17.27-5a26.16,26.16,0,0,0,12.22-2.59c2.58-1.42.95-9.53-5.41-8.82S275,402.66,262.54,403s-43.32,5-50.89,4a115.15,115.15,0,0,1-14.53-2.51Z" transform="translate(-106.67 -45.67)"/><path class="cls-54" d="M214.5,416.34a21.24,21.24,0,0,1-8.7-2.18c-2.69-1.37-7-2.14-12.41-3.12a147.51,147.51,0,0,1-17.9-4.05c-7.1-2.22-9-5.05-9.46-5.87a2.13,2.13,0,0,1-.29-1,4.28,4.28,0,0,1,1.77-.25,13.53,13.53,0,0,1,3.86.79c.12,0,.21.08.33.11l24.42,6.86.23.06,1,.22a114.39,114.39,0,0,0,13.7,2.32l.11,0c.6.07,1.29.12,2.11.15,5.56.16,16.47-1,27-2.12,8.45-.9,17.19-1.83,22.33-2,8.42-.23,16.57-2.1,23.13-3.6,3.35-.77,6.25-1.43,8.29-1.66a3.47,3.47,0,0,1,.44,0,1.87,1.87,0,0,1,1.58.88,3.59,3.59,0,0,1,.67,2.14,23.19,23.19,0,0,1-9.28,1.89h-.41l-.37,0c-4-.12-8.89,1.71-14.05,3.65-1.42.53-2.89,1.09-4.27,1.57-4.52,1.57-15.46,2-19.29,2.08l-.31,0c-.29,0-29.23,2.83-32.34,3.08A17.37,17.37,0,0,1,214.5,416.34Z" transform="translate(-106.67 -45.67)"/><path class="cls-55" d="M215.07,414.66h-.51a19,19,0,0,1-7.92-2c-2.93-1.49-7.33-2.28-12.91-3.29a145.81,145.81,0,0,1-17.68-4,19.44,19.44,0,0,1-7.31-3.72,13.77,13.77,0,0,1,2,.53,4.29,4.29,0,0,0,.47.16l24.44,6.86.32.08,1,.23a118.59,118.59,0,0,0,13.85,2.35h.1c.69.09,1.44.14,2.3.17h1.18c5.91,0,16.15-1.08,26.05-2.14h.13c8.39-.89,17-1.81,22.1-1.95a89.25,89.25,0,0,0,13.41-1.52c-1.35.48-2.72,1-4.12,1.52s-2.85,1.07-4.22,1.55c-3.81,1.32-13.49,1.91-18.7,2a3.75,3.75,0,0,0-.48,0c-.27,0-29.2,2.82-32.31,3.08C215.9,414.65,215.49,414.66,215.07,414.66Zm72.83-10.41h-.72l-.44,0h0c3.09-.71,5.74-1.3,7.57-1.51h.23l.11.15.12.18A22.1,22.1,0,0,1,287.9,404.25Z" transform="translate(-106.67 -45.67)"/><path class="cls-53" d="M157.38,409s-4.72,1.65-4,7.49,6.34,4.6,11.14,7.76,14.41,4.94,19.28,6.12,15.18,8.86,21.75,9.55,15.14-.26,25.61-.7,21.64-2,29.39-2.56,4.3-1.38,17.06-4.29,19-3.85,22.63-4.38,6.05-10.75,5.46-12c0,0-11.88.81-15.63,2.49s-13.48,5.22-17.74,6.57-29.14.28-32.26,2-17.8,2.18-26.46,2.28-23.91-1.49-28.87-4.75-7.68-4.13-12.46-6.31S160.38,408.7,157.38,409Z" transform="translate(-106.67 -45.67)"/><path class="cls-54" d="M209,436.81c-1.14,0-2.15-.1-3.1-.19-3.11-.33-8.13-3.06-12.16-5.25l-1.39-.76a111.93,111.93,0,0,0,17.86,1.95c1.21,0,2.35.05,3.41,0,22.85-.26,26.8-2,28.05-2.66a29.61,29.61,0,0,1,5.44-.53c3-.14,6.6-.2,10.12-.25,8.48-.14,13.79-.26,16.17-1,4.55-1.44,14.34-5,18.13-6.72,1.6-.71,6.08-1.38,10.19-1.81-.12.45-.27.93-.44,1.42a10.29,10.29,0,0,1-1.93,3.71c-3.17.46-9.54,1.41-22.59,4.39a71.19,71.19,0,0,0-10.59,3.07c-1.71.65-2.35.89-5.9,1.13-3.15.21-6.85.6-10.76,1-5.79.61-12.35,1.29-18.54,1.55-3,.13-5.9.3-8.66.46C217.18,436.66,212.77,436.93,209,436.81Zm-27.65-10.42c-4.72-1.07-11.51-2.66-14.86-4.87a23.21,23.21,0,0,0-6-2.62,11.85,11.85,0,0,1-2.94-1.18c-.21-.15-.59-.44-.73-1.62a4,4,0,0,1,.9-3.38,1.88,1.88,0,0,1,.25-.24,51.77,51.77,0,0,1,5.13,3.62,43.85,43.85,0,0,0,7.64,5.11c1.11.51,2.08.94,3,1.35A54.06,54.06,0,0,1,181.33,426.39Z" transform="translate(-106.67 -45.67)"/><path class="cls-55" d="M210.87,435.16c-.63,0-1.24,0-1.84,0-1.07,0-2-.09-2.95-.18a15,15,0,0,1-3.92-1.22c3.71.36,6.71.48,8,.51.93,0,1.82,0,2.66,0h.82c22.9-.26,27.19-2,28.7-2.76a35.6,35.6,0,0,1,4.85-.43c2.93-.14,6.54-.2,10-.25,3.23,0,6-.1,8.26-.18-1.58.6-2.08.78-5.34,1s-6.87.61-10.79,1c-5.79.6-12.31,1.28-18.46,1.54-3,.13-5.83.3-8.54.46h-.15C217.88,434.94,214.17,435.16,210.87,435.16Zm75.52-9.84c2.39-.91,4.52-1.76,5.89-2.37a33.85,33.85,0,0,1,6.87-1.34,10,10,0,0,1-.81,1.59C296.22,423.51,292.52,424.08,286.39,425.32Zm-124-7.57-1.36-.44a13.9,13.9,0,0,1-2.36-.88,2.4,2.4,0,0,1-.11-.51,4.42,4.42,0,0,1,0-1c1.16.81,2.52,1.85,3.38,2.51Z" transform="translate(-106.67 -45.67)"/><g class="cls-46"><path class="cls-56" d="M153,421.55A91,91,0,0,0,179.65,435c4.36,1.37,9.11,1.64,13.26,3.4,2.91,1.23,4.39,3.4,7.79,3.72,3.86.38,7.76,1.37,11.55,1.87,4.3.56,8.88.14,13.22.07,2.46,0,5-.77,7.39-1,1.9-.18,4.07.31,6,.27,3.9-.09,8-1.67,12-2.16,3.23-.41,6.64-.49,9.92-1a37.88,37.88,0,0,1,8.57-.25c3.32.26,3.9-1.66,6.33-3.22,2.19-1.4,5-1.25,7.34-2,1.43-.44,2.8-1.55,4.21-1.8s3,.25,4.55.33c5.13.28,9.45-4.42,14.85-4.31-3.88,6.35-14.6,5.79-20.88,8.52-8.86,3.84-18.32,4.25-27.93,4.85-4.45.27-8.92.28-13.25,1.33a76.21,76.21,0,0,1-11.43,1.83c-3.91.33-7.82,1.74-11.71,1.84s-8.15-.65-12.15-.89c-3.21-.19-6.47-1.2-9.64-1.23-2.72,0-5.63.26-8.34-.18-4.85-.79-8.39-4.48-12.54-6.86s-9.4-2.67-13.16-5.86a50.39,50.39,0,0,0-7.72-5.7c-1.73-1-7.88-1.59-5.62-4.74Z" transform="translate(-106.67 -45.67)"/></g><g class="cls-46"><path class="cls-56" d="M153.65,400.66a90.77,90.77,0,0,0,26.68,13.45c4.37,1.38,9.12,1.63,13.27,3.4,2.91,1.23,4.39,3.4,7.79,3.72,3.85.38,7.76,1.37,11.55,1.87,4.3.56,8.88.14,13.22.07,2.46,0,5-.77,7.39-1,1.9-.18,4.07.31,6,.27,3.9-.09,8-1.67,11.94-2.17,3.24-.4,6.65-.48,9.93-1a38.44,38.44,0,0,1,8.57-.26c3.32.27,3.9-1.66,6.33-3.21,2.19-1.4,5-1.25,7.34-2,1.43-.44,2.8-1.56,4.21-1.8s3,.25,4.55.33c5.12.28,9.44-4.42,14.85-4.31-3.88,6.35-14.6,5.79-20.88,8.52-8.86,3.84-18.32,4.25-27.93,4.84-4.46.28-8.92.29-13.26,1.34a76.08,76.08,0,0,1-11.42,1.83c-3.91.32-7.83,1.74-11.72,1.84s-8.14-.65-12.14-.89c-3.22-.19-6.47-1.2-9.64-1.24-2.72,0-5.63.27-8.34-.17-4.86-.79-8.39-4.48-12.54-6.86s-9.4-2.67-13.17-5.87a50.91,50.91,0,0,0-7.71-5.69c-1.73-1-7.88-1.6-5.62-4.74Z" transform="translate(-106.67 -45.67)"/></g><path class="cls-57" d="M308.61,393.05c-.72-10.53-35.22-20-78-21.22-34.59-1-64.14,3.64-74.91,11-4,2.42-6.58,6.28-6.55,14,0,9.61,9.35-.89,22.05,1.66,5.29,1.06,6.49,16,14.07,17,5.8.74,17-11,23.89-9.1,9.88,2.78,13,21.18,18,26,14.11,13.79,15.31-23.39,21.55-23.49,7.36-.12,14.54,6.62,20.58,6.21,7.8-.54,13.06-15.11,18.6-15.85,13.06-1.76,13.19,10.3,20.53,3.52C308.51,400.09,309.82,396.36,308.61,393.05Z" transform="translate(-106.67 -45.67)"/><path class="cls-58" d="M308.73,389.28c-.73-10.11-35.24-19.22-78-20.47-34.59-1-64.14,3.42-74.89,10.48-4,2.31-6.57,6-6.53,13.41.05,9.23,9.34-.83,22,1.62,5.3,1,6.52,15.37,14.1,16.31,5.8.72,17-10.58,23.87-8.71,9.89,2.68,13.05,20.36,18,25,14.13,13.25,15.27-22.44,21.52-22.53,7.36-.11,14.55,6.37,20.59,6,7.8-.5,13-14.48,18.57-15.19,13.06-1.68,13.58,9.86,20.92,3.36C310,397.3,310,392.45,308.73,389.28Z" transform="translate(-106.67 -45.67)"/><path class="cls-59" d="M259.47,402.47l0,.26c-.17,2.42,5.43,4.21,7.33,4.36,3.72.31,7.83-2.33,10.38-4.68,1.27-1.19-6.33-2-6.83-2C268.11,400.29,260.11,399.2,259.47,402.47Z" transform="translate(-106.67 -45.67)"/><path class="cls-59" d="M182.56,400.17s-2.27.49-1.29,3.57,5.41,6.51,12.12,1.5S186.69,399.74,182.56,400.17Z" transform="translate(-106.67 -45.67)"/><path class="cls-59" d="M224.59,410.8s-1.41,3.67,2.5,10.49,6.88,9.26,11.52-3.93S226.06,407,224.59,410.8Z" transform="translate(-106.67 -45.67)"/><path class="cls-59" d="M292.59,378.85s29.13,12.75-44.69,12C247.9,390.82,337.77,395.1,292.59,378.85Z" transform="translate(-106.67 -45.67)"/><path class="cls-53" d="M158.71,431.09s-7.15.69-5.43,6.26,8.27,3.68,14,6.83,21.14,7.19,28.07,8.14,22.74,1.71,29.37,2.5,13.83.7,25.77,0,20.35-1.65,26.55-2.51,22.56-4.36,25.22-9.61-1.21-8-6.21-5S282.9,443.38,276.2,445s-24.09.64-30,2.56a82.82,82.82,0,0,1-28.8,2.89c-10.21-1.05-20.29-2.55-25.31-3.89s-13.69-2.63-18.18-5.6S163.85,433.48,158.71,431.09Z" transform="translate(-106.67 -45.67)"/><path class="cls-54" d="M234.27,452.69a74.13,74.13,0,0,0,12.84-2.61c2.73-.89,9.19-1.1,14.89-1.29,5.88-.2,11.44-.38,14.89-1.2,6.32-1.51,15.07-4.31,20.7-7.66a4.6,4.6,0,0,1,2.36-.81,1.29,1.29,0,0,1,.28,0c.08.16.22.93-.52,2.39-.59,1.17-3.43,3.11-9.61,5.06a89.67,89.67,0,0,1-13.45,3.05c-7.89,1.1-16.5,1.91-26.32,2.49C243.34,452.56,238.36,452.73,234.27,452.69ZM173.68,444a38,38,0,0,1-5-2.12,24.93,24.93,0,0,0-7.45-2.4c-3.73-.76-4.74-1.14-5.27-2.86-.32-1,0-1.42,0-1.55a4.16,4.16,0,0,1,2.22-1.15,80.65,80.65,0,0,1,9.65,6.22c1.52,1.08,3,2.11,4.34,3C172.71,443.44,173.18,443.71,173.68,444Z" transform="translate(-106.67 -45.67)"/><path class="cls-60" d="M261.72,378.1c0,3.82-12.94,6.92-28.89,6.92s-28.9-3.1-28.9-6.92,12.94-6.91,28.9-6.91S261.72,374.29,261.72,378.1Z" transform="translate(-106.67 -45.67)"/><path class="cls-61" d="M241.74,355.44a8.24,8.24,0,0,0-2.4-6.79c-3.07-3.1-3.08-4.21-3.08-4.21s-2.12,6-7.29,7.58-6.64,4.7-6.2,6.64c0,0-7.34,1.21-6.46,7.26,0,0-10.08,2.47-7.38,10.6,0,0,.89,6.63,26.3,6.63s27-9,18.33-13.71c0,0,.45-5.82-4.06-6C249.5,363.42,250.38,356.35,241.74,355.44Z" transform="translate(-106.67 -45.67)"/><path class="cls-62" d="M216.67,381.28c8.14,2.12,34,1.22,34.32-3s-7-3.51-7-3.51c-5.08,1.16-9.66,1.08-17.12-.65s-8.67-5.71-8.67-5.71c2.6,2.61,6,4.5,13.46,5.8,6.61,1.14,17.14-1.68,17.56-5.07a2.69,2.69,0,0,0-2.84-3.26c-17,4.06-21.43-4.86-21.43-4.86,7.18,6.15,16.78,2.54,20,1.22,3.43-1.42.12-7.69-6.5-5.21s-9.7-1.68-9.7-1.68a3.76,3.76,0,0,0,1.17.63,4.92,4.92,0,0,0,1.26.36,5.31,5.31,0,0,0,2.53-.32c2.55-.9,5.47-3,4.47-5.91a23.58,23.58,0,0,0-1.37-2.51,7.22,7.22,0,0,1-.6-3.11.41.41,0,0,1,0-.09s0,1.11,3.08,4.21a8.24,8.24,0,0,1,2.4,6.79c8.64.91,7.76,8,7.76,8,4.51.2,4.06,6,4.06,6,8.87,4.76,7.07,13.76-18.34,13.77-9.43,0-15.48-1-19.36-2.12Z" transform="translate(-106.67 -45.67)"/><path class="cls-63" d="M230.16,364.67l-.11,0Z" transform="translate(-106.67 -45.67)"/><path class="cls-63" d="M228,373.87a29.9,29.9,0,0,0,23.08-3s2.79-1.46,2.27-4.06a9,9,0,0,1,.25,2.63l.57.33C239.47,378.77,228,373.87,228,373.87Z" transform="translate(-106.67 -45.67)"/><path class="cls-63" d="M231.4,356.82a16.84,16.84,0,0,0,8.11-1s2.24-.71,2.23-2.29a6.92,6.92,0,0,1,0,1.9C235,358.31,231.4,356.82,231.4,356.82Z" transform="translate(-106.67 -45.67)"/><path class="cls-63" d="M230.16,364.67a29.37,29.37,0,0,0,16.65-.81s3.1-.81,2.24-3.6c0-.05,0-.1-.05-.14a7.44,7.44,0,0,1,.5,3.3S241.35,368.06,230.16,364.67Z" transform="translate(-106.67 -45.67)"/><path class="cls-63" d="M243.28,352.76" transform="translate(-106.67 -45.67)"/><path class="cls-19" d="M233.53,354c2.52.57,3.65-2.37,2.48-3.54-.71-.71-1-.15-1.49.32s-1,.76-1.37,1.19C232.44,352.71,232,353.65,233.53,354Z" transform="translate(-106.67 -45.67)"/><path class="cls-19" d="M228.85,359.72a3.39,3.39,0,0,1-1.4-1.38,6.83,6.83,0,0,1-.48-2,2.51,2.51,0,0,0-.72-1.45c-.51-.41-1.1.1-1.35.48a4.2,4.2,0,0,0,1.11,5.32,6.19,6.19,0,0,0,1.49.77,8.09,8.09,0,0,0,2.07.41C233.19,362.09,229.9,360.29,228.85,359.72Z" transform="translate(-106.67 -45.67)"/><path class="cls-19" d="M220.37,360.94a1,1,0,0,1,.62.14.69.69,0,0,1,.26.85,2.91,2.91,0,0,1-.58,1c-1.59,2,.4,5.58,2.24,6.5s-2.35,1.34-4.69-2.75a4.11,4.11,0,0,1-.59-3,3.64,3.64,0,0,1,1.19-1.84,4.38,4.38,0,0,1,.94-.65A1.65,1.65,0,0,1,220.37,360.94Z" transform="translate(-106.67 -45.67)"/><path class="cls-19" d="M213.13,369.11c1.93.17.86,2.47.74,3.6a6.85,6.85,0,0,0,.26,3.24c.18.48,1.72,2,.78,2.37-.53.23-2-.46-2.49-.75a3.37,3.37,0,0,1-1.3-1.83,7,7,0,0,1,.22-4.19C211.54,370.9,212.13,369,213.13,369.11Z" transform="translate(-106.67 -45.67)"/><path class="cls-64" d="M235.73,343.45s1.15-3.78-1.51-5.76l-.49.31.49.44-.62,0,.09.21S236.35,339.25,235.73,343.45Z" transform="translate(-106.67 -45.67)"/><path class="cls-65" d="M239.78,346.82a5.25,5.25,0,1,1-5.25-4.95A5.11,5.11,0,0,1,239.78,346.82Z" transform="translate(-106.67 -45.67)"/><g class="cls-66"><path class="cls-67" d="M239.1,345.46a4,4,0,0,1-3.31,4.65,4.19,4.19,0,0,1-4.93-3.11,4,4,0,0,1,3.3-4.66A4.2,4.2,0,0,1,239.1,345.46Z" transform="translate(-106.67 -45.67)"/></g><g class="cls-50"><path class="cls-4" d="M237.67,344.3A1.41,1.41,0,0,1,236.5,346a1.5,1.5,0,0,1-1.75-1.11,1.4,1.4,0,0,1,1.17-1.64A1.48,1.48,0,0,1,237.67,344.3Z" transform="translate(-106.67 -45.67)"/></g><path class="cls-61" d="M231,351.12a6.57,6.57,0,0,0,1.22-1.11c.43-.56,1.39,0,1.71.88s2.54-.58,3.1-.91a2.41,2.41,0,0,0,.8-1.87c-.06-.41.43-.64.92-.14s.65.62.75.43a1.18,1.18,0,0,0,.31.76,16,16,0,0,0-.81,1.47c-.15.38-.69.1-.69.1s-.18-.11-.8.42a6.27,6.27,0,0,1-3.06.87A22.85,22.85,0,0,1,231,351.12Z" transform="translate(-106.67 -45.67)"/><path class="cls-62" d="M239.51,348.4c-.1.19-.26.08-.75-.43s-1-.27-.92.14A2.42,2.42,0,0,1,237,350l.07,0c.77-.59,1.09.21,1.21.79h0s1,.6,1.1.21a17.13,17.13,0,0,0,.4-1.78A1.18,1.18,0,0,1,239.51,348.4Z" transform="translate(-106.67 -45.67)"/><path class="cls-62" d="M236.89,350.07,237,350Z" transform="translate(-106.67 -45.67)"/><path class="cls-3" d="M301,578.56c-.64,16-36.9,28.79-81,28.59s-79.3-13.33-78.66-29.32,36.89-28.8,81-28.59S301.59,562.57,301,578.56Z" transform="translate(-106.67 -45.67)"/><path class="cls-4" d="M299.93,577.18c-.62,15.62-36.47,28.11-80.06,27.92s-78.43-13-77.8-28.64,36.47-28.12,80.07-27.92S300.56,561.56,299.93,577.18Z" transform="translate(-106.67 -45.67)"/><path class="cls-5" d="M279.68,576.56c-.46,11.37-26.56,20.47-58.29,20.32s-57.1-9.48-56.65-20.85,26.56-20.47,58.3-20.32S280.14,565.19,279.68,576.56Z" transform="translate(-106.67 -45.67)"/><path class="cls-68" d="M274.23,530.49h.52c-6-6.41-29.36-6.13-52.49-4.88-23.13-1.25-46.51-1.53-52.49,4.88h.53c-12.25,8-12.72,21.35-10.82,33,2.74,16.75,30.69,29.9,62.78,29.91s60-13.11,62.78-29.86C286.94,551.89,286.47,538.51,274.23,530.49Z" transform="translate(-106.67 -45.67)"/><path class="cls-56" d="M166.1,561.27A53.22,53.22,0,0,0,185,574.89c3.62,1.7,6.79,1.76,10.17,3.59,2.56,1.39,2.51,3,6,3.39,3.21.34,6.19,1.32,9.21,1.78,3.44.53,7.19,0,10.63,0a38.85,38.85,0,0,0,5.9-1c1.58-.25,3.19.14,4.81,0,3.23-.29,6.21-1.78,9.37-2.45,2.79-.6,5-.76,7.75-1.57a27.84,27.84,0,0,1,6.68-1c3.34-.19,2.45-1.39,4.53-3.33,1.59-1.48,3.68-1.65,5.36-2.51,1.05-.54,1.83-1.54,2.95-2s2.19-.14,3.47-.37c4-.71,6.32-5,10.33-5.83-1.57,5.25-10,7.05-14.28,10.1-6.59,4.66-13.12,5.6-21.18,7-3.76.65-6.81.76-10.44,2a39.77,39.77,0,0,1-9.08,2c-3.14.33-6.41,1.73-9.44,1.78s-6.67-.6-9.84-.77c-2.62-.14-5.06-1.15-7.74-1.26a32.21,32.21,0,0,1-6.69-.51c-4.15-1.08-6.35-4.13-9.47-6.44s-6.87-2.71-9.65-6a44.59,44.59,0,0,0-5.21-5.48c-1.6-1.33-5.61-2.08-3.61-4.54Z" transform="translate(-106.67 -45.67)"/><path class="cls-69" d="M226.48,586.71c-11,0-10.74-9.34-24.92-7-11.18,1.82-11.59-7-14.77-11.11-3.68-4.75-7.51,2.41-10.81,1.53a21.56,21.56,0,0,1-12.74-9.4,29.28,29.28,0,0,1-4.31-15.47c-.11-6.72,1.78-13.1,7.93-18.3,4.28-3.6,12.85-7.66,19.92-10.07,10.18-3.47,14.4-5,36.16-4.79a99.64,99.64,0,0,1,29.26,4.29c8.31,2.66,17.48,6.46,23.9,12.25s11.27,15.54,8.56,23.9A14.85,14.85,0,0,1,280.4,559a28.22,28.22,0,0,0-4.34,4.26,13.88,13.88,0,0,0-2.54,3.86c-.59,1.72.64,4.7-.9,6-1.3,1.13-3.95.5-5.32-.16-2.34-1.11-4.07-4.26-6.72-1.59a15.6,15.6,0,0,0-3.48,6.43c-.35,1.25-.49,3-1.22,4.11a5.5,5.5,0,0,1-4.23,2.09,8.42,8.42,0,0,1-7.48-3.53c-1.38-1.85-2.38-4.47-5.2-2.67a25.23,25.23,0,0,0-5.38,5.24,17,17,0,0,1-1.86,2.12C230.16,586.58,228.53,586.71,226.48,586.71Z" transform="translate(-106.67 -45.67)"/><path class="cls-10" d="M279.18,535a12.48,12.48,0,0,1,1.77,6.06c.22,13.68-24.07,25.13-54.26,25.56-23.24.34-43.18-5.94-51.24-15.09,6.16,10.65,27.75,18.28,53.29,17.91,30.19-.44,54.48-11.89,54.26-25.56A13.78,13.78,0,0,0,279.18,535Z" transform="translate(-106.67 -45.67)"/><path class="cls-70" d="M184,529.49c0,.74-1.14,1.34-2.55,1.34s-2.56-.6-2.56-1.34,1.15-1.34,2.56-1.34S184,528.75,184,529.49Z" transform="translate(-106.67 -45.67)"/><path class="cls-70" d="M198.51,519.05c0,.74-1.14,1.34-2.55,1.34s-2.56-.6-2.56-1.34,1.14-1.34,2.56-1.34S198.51,518.31,198.51,519.05Z" transform="translate(-106.67 -45.67)"/><path class="cls-70" d="M196.81,527.88c0,.74-1.15,1.34-2.56,1.34s-2.55-.6-2.55-1.34,1.14-1.33,2.55-1.33S196.81,527.14,196.81,527.88Z" transform="translate(-106.67 -45.67)"/><path class="cls-70" d="M187.44,542.34c0,.74-1.14,1.34-2.56,1.34s-2.55-.6-2.55-1.34,1.14-1.34,2.55-1.34S187.44,541.6,187.44,542.34Z" transform="translate(-106.67 -45.67)"/><path class="cls-70" d="M207.88,545.55c0,.74-1.14,1.34-2.56,1.34s-2.55-.6-2.55-1.34,1.14-1.34,2.55-1.34S207.88,544.81,207.88,545.55Z" transform="translate(-106.67 -45.67)"/><path class="cls-70" d="M225.77,520.66c0,.74-1.15,1.33-2.56,1.33s-2.55-.59-2.55-1.33,1.14-1.34,2.55-1.34S225.77,519.92,225.77,520.66Z" transform="translate(-106.67 -45.67)"/><path class="cls-70" d="M213,532.7c0,.74-1.14,1.34-2.55,1.34s-2.56-.6-2.56-1.34,1.14-1.33,2.56-1.33S213,532,213,532.7Z" transform="translate(-106.67 -45.67)"/><path class="cls-70" d="M241.1,531.1c0,.74-1.15,1.33-2.56,1.33s-2.55-.59-2.55-1.33,1.14-1.34,2.55-1.34S241.1,530.36,241.1,531.1Z" transform="translate(-106.67 -45.67)"/><path class="cls-70" d="M242,519.85c0,.74-1.14,1.34-2.56,1.34s-2.55-.6-2.55-1.34,1.14-1.34,2.55-1.34S242,519.11,242,519.85Z" transform="translate(-106.67 -45.67)"/><path class="cls-70" d="M264.09,534.31c0,.74-1.14,1.34-2.55,1.34s-2.56-.6-2.56-1.34,1.15-1.34,2.56-1.34S264.09,533.57,264.09,534.31Z" transform="translate(-106.67 -45.67)"/><path class="cls-70" d="M233.43,546.36c0,.74-1.14,1.33-2.55,1.33s-2.56-.59-2.56-1.33,1.15-1.34,2.56-1.34S233.43,545.62,233.43,546.36Z" transform="translate(-106.67 -45.67)"/><path class="cls-70" d="M259.84,545.55c0,.74-1.15,1.34-2.56,1.34s-2.55-.6-2.55-1.34,1.14-1.34,2.55-1.34S259.84,544.81,259.84,545.55Z" transform="translate(-106.67 -45.67)"/><path class="cls-70" d="M241.1,555.19c0,.74-1.15,1.34-2.56,1.34s-2.55-.6-2.55-1.34,1.14-1.34,2.55-1.34S241.1,554.45,241.1,555.19Z" transform="translate(-106.67 -45.67)"/><path class="cls-70" d="M173,541.54c0,.74-1.14,1.34-2.56,1.34s-2.55-.6-2.55-1.34,1.14-1.34,2.55-1.34S173,540.8,173,541.54Z" transform="translate(-106.67 -45.67)"/><path class="cls-71" d="M413.74,452c17.94,8.69,12.65,23.23,9.88,30-.12.27-.24.52-.34.78a.37.37,0,0,0,0,.11h0a10.28,10.28,0,0,0-1,3.44,6.17,6.17,0,0,0,12.31,0,11,11,0,0,0-1.08-3.67h0c-.11-.22-.21-.47-.31-.72a.36.36,0,0,1,0-.09c-2.32-5.6-2.81-17.73,4.3-25.84,7.33-7.11,6.85,10,6.11,14.43a18.4,18.4,0,0,0-.38,2.88c0,2.1.75,3.79,1.67,3.79s1.67-1.69,1.67-3.79a16.28,16.28,0,0,0-.29-2.41.36.36,0,0,1,0-.11c0-.15-.05-.3-.09-.45-.63-3.73-2.81-15.92,6.18-20.65" transform="translate(-106.67 -45.67)"/><path class="cls-72" d="M477.93,409.55c.26,24.77-20.83,45.06-47.12,45.3s-47.78-19.67-48-44.43,20.85-45.08,47.12-45.32S477.68,384.75,477.93,409.55Z" transform="translate(-106.67 -45.67)"/><path class="cls-4" d="M448.61,383.67" transform="translate(-106.67 -45.67)"/><polygon class="cls-4" points="295.13 337.99 293.87 338 293.84 335.18 295.11 335.17 295.13 337.99"/><polygon class="cls-73" points="304.73 335.39 302.59 332.08 303.67 331.46 305.81 334.77 304.73 335.39"/><polygon class="cls-73" points="287.25 351.9 285.83 345.85 287.06 345.59 288.48 351.64 287.25 351.9"/><rect class="cls-4" x="419.55" y="380.67" width="1.26" height="2.83" transform="translate(-109.98 -42) rotate(-0.5)"/><polygon class="cls-4" points="335.48 334 334.21 334.01 334.18 331.18 335.44 331.17 335.48 334"/><rect class="cls-73" x="454" y="379.55" width="1.26" height="2.82" transform="translate(-110.66 -40.86) rotate(-0.6)"/><polygon class="cls-4" points="300.36 345.87 299.12 345.65 300.24 340.09 301.49 340.31 300.36 345.87"/><polygon class="cls-73" points="328.03 340.26 325.65 336.61 326.72 335.98 329.11 339.64 328.03 340.26"/><polyline class="cls-4" points="326.31 329.56 325.23 330.18 322.85 326.52 323.92 325.9"/><polygon class="cls-73" points="352.14 349.44 348.7 345.71 349.65 344.93 353.09 348.65 352.14 349.44"/><rect class="cls-4" x="446.6" y="383.68" width="1.26" height="4.74" transform="translate(-110.71 -40.94) rotate(-0.6)"/><polygon class="cls-73" points="364.32 358.83 362.62 353.32 363.83 352.99 365.53 358.5 364.32 358.83"/><polygon class="cls-4" points="357.75 357.19 356.57 356.76 358.12 352.98 359.29 353.4 357.75 357.19"/><polygon class="cls-4" points="338.69 326.51 335.56 324.43 336.29 323.46 339.42 325.54 338.69 326.51"/><rect class="cls-4" x="416.27" y="369.84" width="1.26" height="3.99" transform="translate(-109.45 -42.54) rotate(-0.43)"/><polygon class="cls-73" points="321.07 353.74 319.37 349.55 320.55 349.13 322.25 353.31 321.07 353.74"/><polygon class="cls-4" points="309.93 356.54 308.58 351.68 309.81 351.38 311.15 356.24 309.93 356.54"/><polygon class="cls-73" points="336.83 359.21 335.73 358.64 337.35 355.86 338.46 356.43 336.83 359.21"/><polygon class="cls-4" points="331.42 353.97 330.23 353.57 331.14 351.13 332.33 351.52 331.42 353.97"/><polygon class="cls-4" points="328.44 361.71 324.9 359.52 325.59 358.52 329.13 360.72 328.44 361.71"/><polygon class="cls-4" points="325.95 373.75 323.78 377.18 322.69 376.57 324.86 373.14 325.95 373.75"/><polygon class="cls-4" points="302.36 382.95 298.18 383.6 297.97 382.42 302.16 381.77 302.36 382.95"/><polygon class="cls-4" points="302.92 368.22 298.74 368.87 298.54 367.7 302.72 367.05 302.92 368.22"/><polygon class="cls-4" points="311.19 389.29 314.36 386.63 315.2 387.52 312.04 390.18 311.19 389.29"/><polygon class="cls-4" points="326.93 397.37 325.47 393.62 326.66 393.21 328.11 396.96 326.93 397.37"/><polygon class="cls-4" points="335.35 379.05 333.9 375.29 335.08 374.88 336.54 378.64 335.35 379.05"/><polygon class="cls-4" points="342.88 392.29 341.42 388.53 342.61 388.12 344.06 391.88 342.88 392.29"/><polygon class="cls-4" points="358.16 381.59 356.7 377.83 357.89 377.42 359.34 381.18 358.16 381.59"/><polygon class="cls-4" points="366.69 373.96 365.24 370.21 366.43 369.8 367.88 373.55 366.69 373.96"/><polygon class="cls-4" points="288.84 385.19 287.39 381.44 288.57 381.03 290.03 384.78 288.84 385.19"/><polygon class="cls-73" points="300.47 362.67 299.85 359.35 301.09 359.14 301.72 362.46 300.47 362.67"/><polygon class="cls-73" points="292.03 372.94 295.36 371.71 295.82 372.81 292.5 374.05 292.03 372.94"/><polygon class="cls-73" points="314.6 362.46 317.25 364.72 316.4 365.61 313.75 363.34 314.6 362.46"/><polygon class="cls-73" points="309.68 377.37 311.6 374.52 312.66 375.16 310.75 378.01 309.68 377.37"/><polygon class="cls-73" points="329.34 368.21 332.83 368.97 332.55 370.13 329.06 369.37 329.34 368.21"/><polygon class="cls-73" points="346.65 364.18 349.54 362.19 350.29 363.15 347.4 365.14 346.65 364.18"/><polygon class="cls-73" points="358.8 369.46 361.61 371.55 360.83 372.48 358.02 370.39 358.8 369.46"/><polygon class="cls-73" points="342.99 376.31 346.46 375.5 346.76 376.65 343.29 377.46 342.99 376.31"/><polygon class="cls-73" points="319.96 385.1 323.43 384.29 323.73 385.44 320.26 386.25 319.96 385.1"/><polygon class="cls-73" points="337.37 395.69 340.84 394.88 341.14 396.04 337.67 396.85 337.37 395.69"/><polygon class="cls-73" points="302.43 391.03 305.9 390.22 306.21 391.38 302.74 392.19 302.43 391.03"/><polygon class="cls-73" points="319.13 399.85 318.38 403.15 317.14 402.9 317.9 399.6 319.13 399.85"/><polygon class="cls-73" points="355.59 389.39 352.09 388.67 352.36 387.5 355.86 388.23 355.59 389.39"/><polygon class="cls-4" points="285.26 363.58 281.34 358.6 282.36 357.89 286.28 362.86 285.26 363.58"/><path class="cls-74" d="M435.25,446.31a40.57,40.57,0,0,1-32.8-16.16c-11.36-15.48-7.25-36.8,9.17-47.52,14.94-9.76,35.52-6.23,45.87,7.86a26.88,26.88,0,0,1,4.85,21.19,28,28,0,0,1-12.45,18.22,28.56,28.56,0,0,1-20.48,4.17,27.41,27.41,0,0,1-17.62-10.71,22.35,22.35,0,0,1-4-17.62,23.36,23.36,0,0,1,10.37-15.16c10.34-6.75,24.59-4.31,31.75,5.45a18.63,18.63,0,0,1,3.38,14.72,19.48,19.48,0,0,1-8.66,12.66,19.84,19.84,0,0,1-14.29,2.91,19.11,19.11,0,0,1-12.3-7.47,15.67,15.67,0,0,1-2.83-12.36,16.38,16.38,0,0,1,7.26-10.62,2.83,2.83,0,0,1,3.77.64,2.47,2.47,0,0,1-.68,3.55,11.29,11.29,0,0,0-5,7.35,10.82,10.82,0,0,0,1.95,8.54,13.67,13.67,0,0,0,8.81,5.35,14.21,14.21,0,0,0,10.25-2.09,14.4,14.4,0,0,0,6.41-9.37,13.84,13.84,0,0,0-2.5-10.91c-5.46-7.44-16.33-9.31-24.22-4.15a18.24,18.24,0,0,0-8.12,11.87,17.52,17.52,0,0,0,3.16,13.81,22,22,0,0,0,14.14,8.59A23.21,23.21,0,0,0,457,410.76a22,22,0,0,0-4-17.36c-8.65-11.78-25.85-14.73-38.34-6.58-14,9.12-17.47,27.26-7.8,40.42,10.8,14.71,32.28,18.4,47.88,8.21a2.81,2.81,0,0,1,3.76.65,2.46,2.46,0,0,1-.68,3.55A41.32,41.32,0,0,1,435.25,446.31Z" transform="translate(-106.67 -45.67)"/><path class="cls-38" d="M432.64,489.3a5,5,0,0,1-.58-2.6,17.79,17.79,0,0,1,.37-2.69c0-.29.11-.78.17-1.42.06.34.22,1.3.22,1.3,0,.18.11.58.11.58a14,14,0,0,1,.28,2.23A5.11,5.11,0,0,1,432.64,489.3Z" transform="translate(-106.67 -45.67)"/><path class="cls-38" d="M445,475.88s2.21-1.35.3-6.32C445.27,469.56,446.1,473.37,445,475.88Z" transform="translate(-106.67 -45.67)"/><path class="cls-38" d="M434.49,457.94s-4.05,3.11-4.27,15.18C430.22,473.12,428.35,461.89,434.49,457.94Z" transform="translate(-106.67 -45.67)"/><path class="cls-75" d="M450.17,369.9c0,1.62-8.61,4.27-18.78,4.15s-18.07-3-18.05-4.6,8.29-2.84,18.46-2.71S450.19,368.27,450.17,369.9Z" transform="translate(-106.67 -45.67)"/><path class="cls-54" d="M437.36,353.76a5.74,5.74,0,0,0-1.67-4.71c-2.12-2.15-2.14-2.92-2.14-2.92s-1.47,4.17-5.05,5.26-4.6,3.26-4.3,4.6c0,0-5.09.85-4.48,5,0,0-7,1.71-5.11,7.35,0,0,.61,4.6,18.23,4.6s18.72-6.24,12.71-9.51c0,0,.32-4-2.82-4.17C442.73,359.3,443.35,354.4,437.36,353.76Z" transform="translate(-106.67 -45.67)"/><path class="cls-76" d="M420,371.68c5.64,1.47,23.55.84,23.8-2.05s-4.83-2.44-4.83-2.44c-3.52.81-6.7.75-11.87-.45s-6-3.95-6-3.95c1.81,1.8,4.16,3.12,9.34,4,4.58.8,11.89-1.16,12.18-3.51a1.86,1.86,0,0,0-2-2.26c-11.81,2.81-14.86-3.38-14.86-3.38,5,4.27,11.64,1.77,13.85.85,2.38-1,.08-5.33-4.51-3.61s-6.73-1.16-6.73-1.16a2.57,2.57,0,0,0,.82.43,3.12,3.12,0,0,0,.87.25,3.78,3.78,0,0,0,1.76-.22c1.76-.62,3.79-2.06,3.09-4.1a16.43,16.43,0,0,0-.95-1.74,5.16,5.16,0,0,1-.41-2.16l0-.06s0,.77,2.14,2.92a5.74,5.74,0,0,1,1.67,4.71c6,.64,5.37,5.54,5.37,5.54,3.14.14,2.82,4.17,2.82,4.17,6,3.27,4.91,9.51-12.71,9.51-6.54,0-10.74-.64-13.43-1.43Z" transform="translate(-106.67 -45.67)"/><path class="cls-63" d="M429.33,360.16l-.08,0Z" transform="translate(-106.67 -45.67)"/><path class="cls-53" d="M427.8,366.54a20.69,20.69,0,0,0,16-2.08s1.94-1,1.58-2.81a6.27,6.27,0,0,1,.17,1.82l.39.23C435.78,369.94,427.8,366.54,427.8,366.54Z" transform="translate(-106.67 -45.67)"/><path class="cls-53" d="M430.18,354.72a11.75,11.75,0,0,0,5.63-.69s1.55-.49,1.54-1.59a5,5,0,0,1,0,1.32C432.68,355.75,430.18,354.72,430.18,354.72Z" transform="translate(-106.67 -45.67)"/><path class="cls-53" d="M429.33,360.16a20.27,20.27,0,0,0,11.54-.56s2.15-.56,1.55-2.5l0-.1a5.12,5.12,0,0,1,.34,2.3A18.06,18.06,0,0,1,429.33,360.16Z" transform="translate(-106.67 -45.67)"/><path class="cls-63" d="M438.43,351.9" transform="translate(-106.67 -45.67)"/><path class="cls-19" d="M431.66,352.77a1.59,1.59,0,0,0,1.72-2.46c-.49-.49-.68-.1-1,.23s-.67.53-1,.82C430.91,351.87,430.57,352.52,431.66,352.77Z" transform="translate(-106.67 -45.67)"/><path class="cls-19" d="M428.42,356.73a2.33,2.33,0,0,1-1-1,5,5,0,0,1-.33-1.37,1.74,1.74,0,0,0-.5-1c-.35-.28-.76.07-.93.33a2.57,2.57,0,0,0-.33,1,2.65,2.65,0,0,0,1.1,2.7,4.18,4.18,0,0,0,1,.53,5.33,5.33,0,0,0,1.44.28C431.43,358.37,429.15,357.12,428.42,356.73Z" transform="translate(-106.67 -45.67)"/><path class="cls-19" d="M422.53,357.57a.65.65,0,0,1,.43.1.47.47,0,0,1,.18.59,2,2,0,0,1-.4.68c-1.1,1.37.28,3.87,1.55,4.5s-1.62.93-3.25-1.9a3,3,0,0,1-.41-2.08,2.62,2.62,0,0,1,.83-1.28,3.23,3.23,0,0,1,.65-.44A1.28,1.28,0,0,1,422.53,357.57Z" transform="translate(-106.67 -45.67)"/><path class="cls-19" d="M417.51,363.24c1.34.12.6,1.71.52,2.5a4.6,4.6,0,0,0,.18,2.24c.12.34,1.19,1.36.54,1.65-.37.16-1.43-.32-1.73-.52a2.4,2.4,0,0,1-.9-1.27,4.91,4.91,0,0,1,.15-2.91C416.41,364.48,416.82,363.18,417.51,363.24Z" transform="translate(-106.67 -45.67)"/><path class="cls-75" d="M460.26,600.47c0,1.74-13.48,3.14-30.1,3.14s-30.11-1.4-30.11-3.14,13.48-3.14,30.11-3.14S460.26,598.73,460.26,600.47Z" transform="translate(-106.67 -45.67)"/><path class="cls-77" d="M483.07,564.82s-14-22-51.28-22-56.55,22-56.55,22Z" transform="translate(-106.67 -45.67)"/><path class="cls-78" d="M403.33,553.84a57.11,57.11,0,0,0-1.68-5.71,78.79,78.79,0,0,0-8.49,3.73,6.92,6.92,0,0,1,.3,3.94c-.53,1.91-5.59-.49-8.66,1a55.36,55.36,0,0,0-9.56,8h31.21C405.73,562.51,404,556.83,403.33,553.84Z" transform="translate(-106.67 -45.67)"/><path class="cls-78" d="M454.66,553.84a57.11,57.11,0,0,1,1.68-5.71,78.79,78.79,0,0,1,8.49,3.73,7,7,0,0,0-.29,3.94c.52,1.91,7.51-.47,10.59,1,6.34,4.34,7.62,8,7.62,8H451.54C452.27,562.51,454,556.83,454.66,553.84Z" transform="translate(-106.67 -45.67)"/><path class="cls-79" d="M477.47,557.33c0,23.84-20.49,43.18-45.79,43.18s-45.79-19.34-45.79-43.18,20.51-43.2,45.79-43.2S477.47,533.46,477.47,557.33Z" transform="translate(-106.67 -45.67)"/><g class="cls-66"><path class="cls-61" d="M465.5,568.62c0,17.62-15.15,31.89-33.82,31.89s-33.82-14.27-33.82-31.89,15.15-31.89,33.82-31.89S465.5,551,465.5,568.62Z" transform="translate(-106.67 -45.67)"/></g><path class="cls-4" d="M449.5,532.16" transform="translate(-106.67 -45.67)"/><path class="cls-80" d="M436.1,592.15A40.57,40.57,0,0,1,403.3,576c-11.36-15.48-7.25-36.8,9.17-47.52,14.94-9.76,35.52-6.23,45.87,7.86a26.88,26.88,0,0,1,4.85,21.19,28,28,0,0,1-12.45,18.22,28.56,28.56,0,0,1-20.48,4.17,27.41,27.41,0,0,1-17.62-10.71,22.35,22.35,0,0,1-4-17.62A23.36,23.36,0,0,1,419,536.42c10.34-6.75,24.59-4.31,31.75,5.44a18.66,18.66,0,0,1,3.38,14.73,19.48,19.48,0,0,1-8.66,12.66,19.84,19.84,0,0,1-14.29,2.91,19.11,19.11,0,0,1-12.3-7.47A15.67,15.67,0,0,1,416,552.33a16.38,16.38,0,0,1,7.26-10.62,2.83,2.83,0,0,1,3.77.64,2.47,2.47,0,0,1-.68,3.55,11.29,11.29,0,0,0-5,7.35,10.82,10.82,0,0,0,1.95,8.54,13.71,13.71,0,0,0,8.81,5.35,14.21,14.21,0,0,0,10.25-2.09,14.4,14.4,0,0,0,6.41-9.37,13.84,13.84,0,0,0-2.5-10.91c-5.46-7.44-16.33-9.31-24.22-4.15a18.24,18.24,0,0,0-8.12,11.87,17.52,17.52,0,0,0,3.16,13.81,22,22,0,0,0,14.14,8.59,23.21,23.21,0,0,0,26.64-18.29,22,22,0,0,0-4-17.36c-8.65-11.78-25.85-14.73-38.34-6.58-14,9.12-17.47,27.25-7.8,40.42,10.8,14.71,32.28,18.4,47.88,8.21a2.81,2.81,0,0,1,3.76.65,2.46,2.46,0,0,1-.68,3.55A41.32,41.32,0,0,1,436.1,592.15Z" transform="translate(-106.67 -45.67)"/><path class="cls-61" d="M374.74,565.23s6.18-7.81,15.41-.43,21.2,1.78,25.81-3.6c5.32-6.21,8.67,7.22,10.89,9.52,4.36,4.51,17.62,0,20.47-4.35s6.46,1,9.92,3.59,19.37-9.52,25.83-4.93c0,0-22.73,36-38.58,36h-29.4C412.45,601,392.36,589.28,374.74,565.23Z" transform="translate(-106.67 -45.67)"/><g class="cls-41"><path class="cls-61" d="M449,583.63l15.56-15.09c-3.36,1.39-6.14,2.33-7.36,1.42-.5-.38-1-.8-1.51-1.25Z" transform="translate(-106.67 -45.67)"/><path class="cls-61" d="M404.7,567.91l-.3-.1a16.42,16.42,0,0,1-14.25-3.09l19.07,15Z" transform="translate(-106.67 -45.67)"/><path class="cls-61" d="M431.41,572.52a7.11,7.11,0,0,1-4.55-2.06c-1.14-1.18-2.59-5.06-4.44-8,0,0,0,0,0,.07L429,587.12Z" transform="translate(-106.67 -45.67)"/></g><polygon class="cls-61" points="310.92 476.2 308.02 477 307.6 475.63 310.5 474.83 310.92 476.2"/><polygon class="cls-61" points="325.71 472.61 322.75 472.06 323.04 470.67 326 471.21 325.71 472.61"/><polygon class="cls-61" points="315.89 483.3 312.92 482.75 313.21 481.36 316.18 481.9 315.89 483.3"/><polygon class="cls-61" points="294.72 489.72 291.76 489.17 292.05 487.77 295.01 488.32 294.72 489.72"/><polygon class="cls-61" points="290.19 502.55 287.22 502 287.51 500.6 290.48 501.15 290.19 502.55"/><polygon class="cls-61" points="311.35 496.13 308.38 495.58 308.68 494.19 311.64 494.73 311.35 496.13"/><polygon class="cls-61" points="307.15 508.22 304.27 509.11 303.81 507.75 306.68 506.87 307.15 508.22"/><polygon class="cls-61" points="326.04 510.36 323.17 511.24 322.7 509.89 325.58 509.01 326.04 510.36"/><polygon class="cls-61" points="328.21 492.27 325.72 490.66 326.58 489.49 329.07 491.1 328.21 492.27"/><polygon class="cls-61" points="336.86 479.25 337.64 476.49 339.1 476.86 338.32 479.61 336.86 479.25"/><polygon class="cls-61" points="352.73 489.22 353.51 486.47 354.97 486.84 354.19 489.59 352.73 489.22"/><polygon class="cls-61" points="341.28 496.24 342.33 493.57 343.75 494.07 342.7 496.74 341.28 496.24"/><polygon class="cls-61" points="350.7 509.02 353.65 508.41 353.98 509.8 351.02 510.41 350.7 509.02"/><polygon class="cls-61" points="357.5 501.89 360.46 501.28 360.78 502.68 357.82 503.29 357.5 501.89"/><path class="cls-75" d="M637.76,458.44c0,1.73-13.48,3.14-30.11,3.14s-30.1-1.41-30.1-3.14,13.47-3.15,30.1-3.15S637.76,456.7,637.76,458.44Z" transform="translate(-106.67 -45.67)"/><path class="cls-81" d="M631.13,385c-1.34.68-2.08,2.35-.69,3.59,6.06,5.38,10.84,14.06,11,21.71.16,9.58-7.43,16.78-15.12,21.74a43.14,43.14,0,0,1-26.81,6.63c-9.62-.68-18.84-4.37-28.31-6a2,2,0,0,0-2.6,1.85,2,2,0,0,0-.33,2.6c4.66,10.23,19.09,20,31.62,21.19,12.69,1.25,23.87-.93,34-7.21,10.42-6.44,19.16-21.89,18.68-34.09-.51-13-7.34-23.42-16.93-32.8A2.79,2.79,0,0,0,631.13,385Z" transform="translate(-106.67 -45.67)"/><path class="cls-82" d="M570.14,436.25c-3.83,6-7.44-3.31-8.45-6.32a41.85,41.85,0,0,1-1.23-19.54c1.23-8,4.75-15.79,11.33-21.22a58.65,58.65,0,0,1,25.68-12.57c19-3.91,44.18.78,52.6,19.07,4.89,10.6,6.7,26.21.06,36.55-1.31,2-3.41,3.19-5.63,1.5-2.59-2-5.36-3.74-7,.37-1,2.52-.29,6.43-3.17,8-2.29,1.24-5.13-.14-7.37-.8a14.39,14.39,0,0,0-7.83-.46c-4.55,1.21-5.37,5.29-7.23,8.79-1.49,2.81-3.49,1.72-4.8-.68-1.61-2.93-4-6.83-7.56-7.92-3.88-1.2-8.87,1.45-10.09,5.07-1,3-4.68,4.05-6.37.84-1.6-3-.13-6.88-2-9.73C579,434,572.59,432.4,570.14,436.25Z" transform="translate(-106.67 -45.67)"/><path class="cls-75" d="M624.1,382.55c0,1.91-5.3,3.47-11.84,3.47s-11.84-1.56-11.84-3.47,5.3-3.48,11.84-3.48S624.1,380.63,624.1,382.55Z" transform="translate(-106.67 -45.67)"/><path class="cls-83" d="M623.89,372.8C623.89,379,618.58,384,612,384s-11.85-5-11.85-11.17,5.3-11.18,11.85-11.18S623.89,366.63,623.89,372.8Z" transform="translate(-106.67 -45.67)"/><g class="cls-84"><path class="cls-85" d="M622.34,369.72a9,9,0,0,1-7.46,10.51,9.47,9.47,0,0,1-11.14-7,9,9,0,0,1,7.46-10.51A9.47,9.47,0,0,1,622.34,369.72Z" transform="translate(-106.67 -45.67)"/></g><g class="cls-50"><path class="cls-4" d="M619.12,367.1a3.17,3.17,0,0,1-2.64,3.72,3.35,3.35,0,0,1-4-2.49,3.18,3.18,0,0,1,2.64-3.72A3.35,3.35,0,0,1,619.12,367.1Z" transform="translate(-106.67 -45.67)"/></g><path class="cls-70" d="M591.12,386.88a1.49,1.49,0,1,1-1.47-1.26A1.38,1.38,0,0,1,591.12,386.88Z" transform="translate(-106.67 -45.67)"/><path class="cls-70" d="M600.39,390.06a1.49,1.49,0,1,1-1.48-1.26A1.38,1.38,0,0,1,600.39,390.06Z" transform="translate(-106.67 -45.67)"/><path class="cls-70" d="M632.38,386.09a1.49,1.49,0,1,1-1.47-1.26A1.37,1.37,0,0,1,632.38,386.09Z" transform="translate(-106.67 -45.67)"/><path class="cls-70" d="M620.59,393.23a1.49,1.49,0,1,1-1.47-1.26A1.38,1.38,0,0,1,620.59,393.23Z" transform="translate(-106.67 -45.67)"/><path class="cls-70" d="M638.27,396.41a1.49,1.49,0,1,1-1.47-1.26A1.37,1.37,0,0,1,638.27,396.41Z" transform="translate(-106.67 -45.67)"/><path class="cls-70" d="M607.12,405.93a1.5,1.5,0,1,1-1.47-1.25A1.38,1.38,0,0,1,607.12,405.93Z" transform="translate(-106.67 -45.67)"/><path class="cls-70" d="M584.39,400.38a1.49,1.49,0,1,1-1.47-1.26A1.37,1.37,0,0,1,584.39,400.38Z" transform="translate(-106.67 -45.67)"/><path class="cls-70" d="M606.28,396.41a1.49,1.49,0,1,1-1.47-1.26A1.37,1.37,0,0,1,606.28,396.41Z" transform="translate(-106.67 -45.67)"/><path class="cls-70" d="M576.81,394a1.5,1.5,0,1,1-1.47-1.25A1.38,1.38,0,0,1,576.81,394Z" transform="translate(-106.67 -45.67)"/><path class="cls-70" d="M573.44,402a1.49,1.49,0,1,1-1.47-1.25A1.38,1.38,0,0,1,573.44,402Z" transform="translate(-106.67 -45.67)"/><path class="cls-70" d="M597,402a1.5,1.5,0,1,1-1.48-1.25A1.38,1.38,0,0,1,597,402Z" transform="translate(-106.67 -45.67)"/><path class="cls-70" d="M621.43,402a1.49,1.49,0,1,1-1.47-1.25A1.38,1.38,0,0,1,621.43,402Z" transform="translate(-106.67 -45.67)"/><path class="cls-70" d="M619.75,409.11a1.49,1.49,0,1,1-1.47-1.26A1.38,1.38,0,0,1,619.75,409.11Z" transform="translate(-106.67 -45.67)"/><path class="cls-70" d="M640,406.73a1.49,1.49,0,1,1-1.48-1.26A1.38,1.38,0,0,1,640,406.73Z" transform="translate(-106.67 -45.67)"/><path class="cls-70" d="M645,393.23a1.49,1.49,0,1,1-1.47-1.26A1.38,1.38,0,0,1,645,393.23Z" transform="translate(-106.67 -45.67)"/><path class="cls-70" d="M630.69,402.76a1.49,1.49,0,1,1-1.47-1.26A1.37,1.37,0,0,1,630.69,402.76Z" transform="translate(-106.67 -45.67)"/><path class="cls-86" d="M634.72,498.76c0,.37-.88.69-2,.73s-2-.22-2.06-.59.89-.69,2-.73S634.71,498.39,634.72,498.76Z" transform="translate(-106.67 -45.67)"/><path class="cls-75" d="M662.75,596.93c0,1.74-23.21,3.15-51.83,3.15s-51.82-1.41-51.82-3.15,23.2-3.14,51.82-3.14S662.75,595.2,662.75,596.93Z" transform="translate(-106.67 -45.67)"/><path class="cls-87" d="M559.74,516.22s-15.21,26.72,33.47,30.57,55,3.12,60.46-6.53,4.73-21.8-7.55-26S559.74,516.22,559.74,516.22Z" transform="translate(-106.67 -45.67)"/><path class="cls-88" d="M563.6,519.16s-9.64-.77-6.54-11.54,11.43-17.39,27.55-13.78,19.94,3.28,26.6,2.41,29.1-1.73,40.39,6.46,9.06,25.54-3.33,20.52S627,516.12,623,518.59s-15.23,8.57-21.3,4.67S577.4,512,563.6,519.16Z" transform="translate(-106.67 -45.67)"/><path class="cls-86" d="M560.69,520.28s6.77-8.06,20.57-5,23.43,9.65,29.89,6.55,18.58-8.71,37.53,1.52c0,0-16.33-6.93-23.74-2.64s-17,6.34-26.39,2.57S570.48,512.91,560.69,520.28Z" transform="translate(-106.67 -45.67)"/><path class="cls-89" d="M562.13,569.31S549,597,597.82,597.56,652.91,597,657.64,587s3.08-22.07-9.49-25.47S562.13,569.31,562.13,569.31Z" transform="translate(-106.67 -45.67)"/><path class="cls-90" d="M566.2,572s-9.67-.12-7.39-11.07,10.08-18.11,26.44-15.59,20.13,1.93,26.71.62,28.9-3.67,40.76,3.73,11,24.86-1.75,20.69-21.73-5.67-25.53-2.93-14.55,9.56-20.9,6.09S579.42,564,566.2,572Z" transform="translate(-106.67 -45.67)"/><path class="cls-91" d="M563.39,573.31s6.14-8.52,20.13-6.38,24.11,8.05,30.31,4.53,18-11.38,37.65-2.44c0,0-16.91-4.38-24,.4s-16.45,7.46-26.12,4.33S572.6,565.29,563.39,573.31Z" transform="translate(-106.67 -45.67)"/><path class="cls-91" d="M627.22,547.68c0,.36-.88.69-2,.73s-2-.23-2.06-.59.89-.7,2-.73S627.21,547.31,627.22,547.68Z" transform="translate(-106.67 -45.67)"/><path class="cls-91" d="M646,549.45c0,.36-.88.69-2,.73s-2-.23-2.06-.59.89-.7,2-.74S646,549.08,646,549.45Z" transform="translate(-106.67 -45.67)"/><path class="cls-91" d="M656,554.75c0,.36-.88.69-2,.73s-2-.22-2.06-.59.89-.69,2-.73S656,554.38,656,554.75Z" transform="translate(-106.67 -45.67)"/><path class="cls-91" d="M658.47,562.41c0,.37-.88.7-2,.73s-2-.22-2.06-.59.88-.69,2-.73S658.46,562,658.47,562.41Z" transform="translate(-106.67 -45.67)"/><path class="cls-91" d="M637.22,552.39c0,.37-.88.7-2,.73s-2-.22-2.06-.59.89-.69,2-.73S637.21,552,637.22,552.39Z" transform="translate(-106.67 -45.67)"/><path class="cls-86" d="M635.35,504.06c0,.37-.89.7-2,.74s-2-.23-2.05-.59.88-.7,2-.74S635.33,503.7,635.35,504.06Z" transform="translate(-106.67 -45.67)"/><path class="cls-86" d="M649.72,503.48c0,.36-.88.69-2,.73s-2-.23-2.06-.59.89-.7,2-.74S649.71,503.11,649.72,503.48Z" transform="translate(-106.67 -45.67)"/><path class="cls-86" d="M656.6,510.55c0,.36-.89.69-2,.73s-2-.22-2.05-.59.88-.7,2-.73S656.58,510.18,656.6,510.55Z" transform="translate(-106.67 -45.67)"/><path class="cls-86" d="M573.47,497c0,.37-.88.7-2,.74s-2-.23-2.06-.6.88-.69,2-.73S573.46,496.63,573.47,497Z" transform="translate(-106.67 -45.67)"/><path class="cls-86" d="M584.72,495.81c0,.37-.88.7-2,.74s-2-.23-2.06-.59.89-.7,2-.74S584.71,495.45,584.72,495.81Z" transform="translate(-106.67 -45.67)"/><path class="cls-86" d="M592.22,502.3c0,.36-.88.69-2,.73s-2-.23-2.06-.59.89-.7,2-.73S592.21,501.93,592.22,502.3Z" transform="translate(-106.67 -45.67)"/><path class="cls-91" d="M577.85,549.45c0,.36-.89.69-2,.73s-2-.23-2.05-.59.88-.7,2-.74S577.83,549.08,577.85,549.45Z" transform="translate(-106.67 -45.67)"/><path class="cls-91" d="M589.72,550c0,.37-.88.7-2,.74s-2-.23-2.06-.59.89-.7,2-.74S589.71,549.67,589.72,550Z" transform="translate(-106.67 -45.67)"/><path class="cls-91" d="M569.72,554.75c0,.36-.88.69-2,.73s-2-.22-2.06-.59.89-.69,2-.73S569.71,554.38,569.72,554.75Z" transform="translate(-106.67 -45.67)"/><path class="cls-91" d="M606.6,550.62c0,.37-.89.7-2,.74s-2-.23-2.05-.59.88-.7,2-.74S606.58,550.26,606.6,550.62Z" transform="translate(-106.67 -45.67)"/><path class="cls-91" d="M596.6,555.34c0,.36-.89.69-2,.73s-2-.22-2.05-.59.88-.69,2-.73S596.58,555,596.6,555.34Z" transform="translate(-106.67 -45.67)"/><path class="cls-86" d="M614.72,498.76c0,.37-.88.69-2,.73s-2-.22-2.06-.59.88-.69,2-.73S614.71,498.39,614.72,498.76Z" transform="translate(-106.67 -45.67)"/></g></g></svg>