<svg xmlns="http://www.w3.org/2000/svg" xmlns:xlink="http://www.w3.org/1999/xlink" width="412" height="812" viewBox="0 0 412 812">
  <defs>
    <filter id="Path_3462" x="110.5" y="660.5" width="190.333" height="50" filterUnits="userSpaceOnUse">
      <feOffset dy="1" input="SourceAlpha"/>
      <feGaussianBlur stdDeviation="1.5" result="blur"/>
      <feFlood flood-opacity="0.2"/>
      <feComposite operator="in" in2="blur"/>
      <feComposite in="SourceGraphic"/>
    </filter>
    <clipPath id="clip-path">
      <rect width="24" height="24" fill="none"/>
    </clipPath>
    <clipPath id="clip-path-3">
      <rect width="35" height="42" fill="none"/>
    </clipPath>
    <clipPath id="clip-path-4">
      <rect width="15" height="16" fill="none"/>
    </clipPath>
    <clipPath id="clip-Google_Pixel_3XL_12">
      <rect width="412" height="812"/>
    </clipPath>
  </defs>
  <g id="Google_Pixel_3XL_12" data-name="Google Pixel 3XL – 12" clip-path="url(#clip-Google_Pixel_3XL_12)">
    <rect width="412" height="812" fill="#fff"/>
    <g id="Group_95" data-name="Group 95">
      <g id="Group_75" data-name="Group 75" transform="translate(-2684 -2482)">
        <g id="Group_59" data-name="Group 59" transform="translate(2987 2370)">
          <text id="_17" data-name="17" transform="translate(-100.836 214)" font-size="30" font-family="Roboto-Bold, Roboto" font-weight="700" letter-spacing="0.017em"><tspan x="0" y="0">17</tspan></text>
        </g>
        <g id="euro-currency-symbol" transform="translate(2981.333 2377.333)">
          <path id="Path_2113" data-name="Path 2113" d="M37.688,19.794A7.551,7.551,0,0,1,32.266,22.2c-3.265,0-6.093-2.252-7.424-5.507h9.07a1.4,1.4,0,1,0,0-2.8H24.119a11.5,11.5,0,0,1-.087-1.4,11.357,11.357,0,0,1,.11-1.573h9.771a1.4,1.4,0,1,0,0-2.8H24.918A8.22,8.22,0,0,1,32.266,2.8a7.552,7.552,0,0,1,5.422,2.409,1.443,1.443,0,0,0,2.013.05,1.381,1.381,0,0,0,.051-1.977A10.394,10.394,0,0,0,32.266,0C27.518,0,23.46,3.386,21.885,8.129H18.068a1.4,1.4,0,1,0,0,2.8h3.206a14.139,14.139,0,0,0-.091,1.573c0,.473.025.939.071,1.4H18.068a1.4,1.4,0,1,0,0,2.8h3.76C23.36,21.53,27.46,25,32.266,25a10.394,10.394,0,0,0,7.486-3.279,1.381,1.381,0,0,0-.051-1.977A1.442,1.442,0,0,0,37.688,19.794Z" transform="translate(-139.644 183)"/>
        </g>
      </g>
      <text id="User_s_Name" data-name="User&apos;s Name" transform="translate(143 163)" font-size="22" font-family="Roboto-Medium, Roboto" font-weight="500" letter-spacing="0.017em"><tspan x="0" y="0">User&apos;s Name</tspan></text>
      <text id="Deliver_to" data-name="Deliver to" transform="translate(34 214)" font-size="18" font-family="Roboto-Regular, Roboto" letter-spacing="0.017em" opacity="0.6"><tspan x="0" y="0">Deliver to</tspan></text>
      <path id="Path_3617" data-name="Path 3617" d="M0,0H202.333" transform="translate(34 259)" fill="none" stroke="#1d1b1b" stroke-width="1"/>
      <path id="Path_3618" data-name="Path 3618" d="M0,0H202.333" transform="translate(34 301)" fill="none" stroke="#1d1b1b" stroke-width="1"/>
      <text id="Address_1" data-name="Address 1" transform="translate(34 256)" font-size="15" font-family="Roboto-Light, Roboto" font-weight="300" letter-spacing="0.017em"><tspan x="0" y="0">Address 1</tspan></text>
      <text id="Address_2" data-name="Address 2" transform="translate(34 298)" font-size="15" font-family="Roboto-Light, Roboto" font-weight="300" letter-spacing="0.017em"><tspan x="0" y="0">Address 2</tspan></text>
      <text id="_" data-name="
" transform="translate(270 282)" font-size="18" font-family="Roboto-Regular, Roboto" letter-spacing="0.017em"><tspan x="0" y="0"></tspan><tspan x="0" y="24"></tspan></text>
      <g id="Group_83" data-name="Group 83" transform="translate(1495 -1253)">
        <rect id="Rectangle_640" data-name="Rectangle 640" width="268" height="171" transform="translate(-1463 1635)" fill="#fff"/>
        <text id="Card_Name" data-name="Card Name" transform="translate(-1463 1653)" font-size="18" font-family="Roboto-Regular, Roboto" letter-spacing="0.017em" opacity="0.6"><tspan x="0" y="0">Card Name</tspan></text>
        <path id="Path_3619" data-name="Path 3619" d="M0,0H268" transform="translate(-1463 1682)" fill="none" stroke="#1d1b1b" stroke-width="1"/>
        <text id="Card_Number" data-name="Card Number" transform="translate(-1463 1712)" font-size="18" font-family="Roboto-Regular, Roboto" letter-spacing="0.017em" opacity="0.6"><tspan x="0" y="0">Card Number</tspan></text>
        <path id="Path_3621" data-name="Path 3621" d="M0,0H268" transform="translate(-1463 1741)" fill="none" stroke="#1d1b1b" stroke-width="1"/>
        <text id="Expiry_Date" data-name="Expiry Date" transform="translate(-1463 1777)" font-size="18" font-family="Roboto-Regular, Roboto" letter-spacing="0.017em" opacity="0.6"><tspan x="0" y="0">Expiry Date</tspan></text>
        <path id="Path_3622" data-name="Path 3622" d="M0,0H112" transform="translate(-1463 1806)" fill="none" stroke="#1d1b1b" stroke-width="1"/>
        <text id="CVV" transform="translate(-1250 1777)" font-size="18" font-family="Roboto-Regular, Roboto" letter-spacing="0.017em" opacity="0.6"><tspan x="0" y="0">CVV</tspan></text>
        <path id="Path_3623" data-name="Path 3623" d="M0,0H75" transform="translate(-1270 1806)" fill="none" stroke="#1d1b1b" stroke-width="1"/>
      </g>
      <g id="Buttons_Contained_Enabled" data-name="Buttons / Contained / Enabled" transform="translate(115 664)">
        <g transform="matrix(1, 0, 0, 1, -115, -664)" filter="url(#Path_3462)">
          <path id="Path_3462-2" data-name="Path 3462" d="M7.884,0H173.449c4.354,0,7.884,1.791,7.884,4V37c0,2.209-3.53,4-7.884,4H7.884C3.53,41,0,39.209,0,37V4C0,1.791,3.53,0,7.884,0Z" transform="translate(115 664)" fill="#6200ee"/>
        </g>
        <text id="MAKE_AN_ORDER" data-name="MAKE AN ORDER" transform="translate(11.496 27.5)" fill="#fff" font-size="18" font-family="Roboto-Medium, Roboto" font-weight="500" letter-spacing="0.089em"><tspan x="0" y="0">MAKE AN ORDER</tspan></text>
      </g>
      <g id="Component_811_5" data-name="Component 811 – 5">
        <g id="Icon_Keyboard_Arrow_-_Left_Outlined" data-name="Icon / Keyboard Arrow - Left / Outlined" transform="translate(14 16)" clip-path="url(#clip-path)">
          <rect id="Box" width="24" height="24" fill="none"/>
          <path id="Icon_Keyboard_Arrow_-_Up_Dark" data-name="Icon / Keyboard Arrow - Up / Dark" d="M10.6,7.4,6,2.8,1.4,7.4,0,6,6,0l6,6Z" transform="translate(8.3 17.7) rotate(-90)" fill="#bc285a"/>
        </g>
        <g id="Component_810_1" data-name="Component 810 – 1">
          <g id="Component_798_19" data-name="Component 798 – 19">
            <g id="App_Bar_Top_App_Bar_Regular_Raised_Primary_Color" data-name="App Bar / Top App Bar / Regular / Raised / Primary Color">
              <path id="Surface" d="M75-1384H487v-55H75Z" transform="translate(-75 1439)" fill="#6200ee"/>
            </g>
          </g>
        </g>
        <g id="Icon_Keyboard_Arrow_-_Left_Outlined-2" data-name="Icon / Keyboard Arrow - Left / Outlined" transform="translate(16 15)" clip-path="url(#clip-path)">
          <rect id="Box-2" data-name="Box" width="24" height="24" fill="none"/>
          <path id="Icon_Keyboard_Arrow_-_Up_Dark-2" data-name="Icon / Keyboard Arrow - Up / Dark" d="M10.6,7.4,6,2.8,1.4,7.4,0,6,6,0l6,6Z" transform="translate(8.3 17.7) rotate(-90)" fill="#fff"/>
        </g>
      </g>
      <g id="Group_84" data-name="Group 84" transform="translate(14 1)">
        <line id="Line_3" data-name="Line 3" x2="11" y2="11" transform="translate(357.5 20.5)" fill="none" stroke="#fff" stroke-width="2"/>
        <line id="Line_4" data-name="Line 4" x1="11" y2="11" transform="translate(357.5 20.5)" fill="none" stroke="#fff" stroke-width="2"/>
      </g>
      <g id="Icon_Location_On_Filled" data-name="Icon / Location On / Filled" transform="translate(224 219)" clip-path="url(#clip-path-3)">
        <rect id="Box-3" data-name="Box" width="35" height="35" fill="none"/>
        <path id="Path_1996" data-name="Path 1996" d="M305.5-22C298.589-22,293-16.053,293-8.7,293,1.275,305.5,16,305.5,16S318,1.275,318-8.7C318-16.053,312.411-22,305.5-22Zm0,18.05a4.615,4.615,0,0,1-4.464-4.75,4.615,4.615,0,0,1,4.464-4.75,4.616,4.616,0,0,1,4.464,4.75A4.616,4.616,0,0,1,305.5-3.95Z" transform="translate(-288 24)"/>
      </g>
      <circle id="Ellipse_81" data-name="Ellipse 81" cx="5.5" cy="5.5" r="5.5" transform="translate(236 229)"/>
      <g id="Icon_Circle_Rounded" data-name="Icon / Circle / Rounded" transform="translate(233.615 229)" clip-path="url(#clip-path-4)">
        <rect id="Box-4" data-name="Box" width="15" height="15" fill="none"/>
        <path id="Path_2015" data-name="Path 2015" d="M917.4,10.32a3.936,3.936,0,0,1-3.3-1.92c0-1.2,2.2-1.86,3.3-1.86s3.3.66,3.3,1.86A3.936,3.936,0,0,1,917.4,10.32Zm0-8.52a1.7,1.7,0,0,1,1.65,1.8,1.656,1.656,0,1,1-3.3,0A1.7,1.7,0,0,1,917.4,1.8Zm0-1.8a5.783,5.783,0,0,0-5.5,6,5.521,5.521,0,1,0,11,0A5.783,5.783,0,0,0,917.4,0Z" transform="translate(-910 2)" fill="#fff"/>
      </g>
    </g>
  </g>
</svg>
