<?xml version="1.0" encoding="UTF-8" standalone="no"?>
<!-- Created with Inkscape (http://www.inkscape.org/) -->

<svg
   xmlns:dc="http://purl.org/dc/elements/1.1/"
   xmlns:cc="http://creativecommons.org/ns#"
   xmlns:rdf="http://www.w3.org/1999/02/22-rdf-syntax-ns#"
   xmlns:svg="http://www.w3.org/2000/svg"
   xmlns="http://www.w3.org/2000/svg"
   xmlns:sodipodi="http://sodipodi.sourceforge.net/DTD/sodipodi-0.dtd"
   xmlns:inkscape="http://www.inkscape.org/namespaces/inkscape"
   version="1.1"
   id="svg8905"
   width="640"
   height="637.44"
   viewBox="0 0 640 637.44"
   sodipodi:docname="дщпщ.svg"
   inkscape:version="0.92.3 (2405546, 2018-03-11)">
  <metadata
     id="metadata8911">
    <rdf:RDF>
      <cc:Work
         rdf:about="">
        <dc:format>image/svg+xml</dc:format>
        <dc:type
           rdf:resource="http://purl.org/dc/dcmitype/StillImage" />
        <dc:title></dc:title>
      </cc:Work>
    </rdf:RDF>
  </metadata>
  <defs
     id="defs8909" />
  <sodipodi:namedview
     pagecolor="#ffffff"
     bordercolor="#666666"
     borderopacity="1"
     objecttolerance="10"
     gridtolerance="10"
     guidetolerance="10"
     inkscape:pageopacity="0"
     inkscape:pageshadow="2"
     inkscape:window-width="1366"
     inkscape:window-height="705"
     id="namedview8907"
     showgrid="false"
     inkscape:zoom="0.37023092"
     inkscape:cx="320"
     inkscape:cy="318.72"
     inkscape:window-x="-8"
     inkscape:window-y="-8"
     inkscape:window-maximized="1"
     inkscape:current-layer="svg8905" />
  <path
     style="fill:#000000;stroke-width:0.63999999"
     d="m 311.14305,558.47562 c -28.8868,-2.86954 -47.24568,-7.12346 -70.72,-16.38647 -56.6102,-22.33845 -103.71382,-67.79486 -128.52259,-124.02813 -9.047,-20.50657 -15.050608,-42.2746 -18.445438,-66.88 -1.64181,-11.89971 -1.64181,-45.06029 0,-56.96 6.654908,-48.23404 24.545458,-89.07978 54.382458,-124.16 35.3645,-41.57908 83.26857,-69.45978 136.74557,-79.587455 16.05713,-3.04095 22.49082,-3.56849 43.52,-3.56849 21.00823,0 27.35326,0.519 43.52,3.5598 83.21592,15.652065 152.25338,75.125175 179.69015,154.796145 4.05215,11.76665 6.01101,19.0011 8.40461,31.04 3.62713,18.24308 4.18119,24.39169 4.18119,46.4 0,22.00831 -0.55406,28.15692 -4.18119,46.4 -17.61287,88.586 -84.85375,159.72597 -172.35587,182.35025 -9.20262,2.3794 -18.92859,4.24315 -30.45889,5.83671 -7.01414,0.9694 -39.47579,1.8119 -45.76,1.18764 z m 143.04,-99.4546 c 0,-1.27584 -0.42667,-1.28 -131.2,-1.28 -130.77333,0 -131.2,0.004 -131.2,1.28 0,1.27584 0.42667,1.28 131.2,1.28 130.77333,0 131.2,-0.004 131.2,-1.28 z m -128.25422,-7.07184 c 3.70851,-1.79526 7.65017,-6.25745 10.04146,-11.36753 1.66608,-3.56032 2.0024,-5.06731 2.0253,-9.07495 0.0266,-4.65232 -1.08841,-8.96568 -2.3176,-8.96568 -1.07865,0 -6.80737,5.79812 -7.78057,7.87483 -0.52714,1.12484 -1.30303,4.34846 -1.72421,7.1636 -0.9025,6.03219 -2.15353,8.70343 -5.66942,12.10558 -1.42325,1.37719 -2.43866,2.74519 -2.25646,3.04 0.61016,0.98725 4.94353,0.54958 7.6815,-0.77585 z m -7.86302,-3.58425 c 3.04982,-3.04982 4.67453,-6.55027 5.5994,-12.06391 0.99668,-5.94172 3.20747,-10.4928 6.62933,-13.64696 2.08548,-1.92232 2.56018,-2.67744 1.85362,-2.94857 -1.9479,-0.74748 -4.52999,-0.31653 -7.76631,1.2962 -9.31265,4.64069 -15.05646,20.65936 -10.19758,28.43964 1.04336,1.67069 1.1694,1.63573 3.88154,-1.0764 z m -121.50632,0.17784 c 2.01585,-2.01586 3.87249,-8.70411 2.42356,-8.73049 -0.264,-0.005 -1.128,-0.1824 -1.92,-0.39465 -1.31432,-0.35221 -1.44,-0.16662 -1.44,2.12642 0,3.28346 -1.39377,5.27364 -3.00252,4.28732 -1.47042,-0.90151 -2.03597,-4.11176 -2.07355,-11.77035 -0.0373,-7.59639 0.45647,-10.68948 1.78792,-11.20041 1.40307,-0.53841 3.28815,1.88737 3.28815,4.23131 0,1.54571 0.26252,1.8491 1.6,1.8491 1.56444,0 1.6,-0.10667 1.6,-4.8 0,-4.69333 -0.0356,-4.8 -1.6,-4.8 -0.88,0 -1.6,0.32326 -1.6,0.71836 0,0.51087 -0.26522,0.49825 -0.9182,-0.0437 -0.505,-0.41911 -1.85899,-0.67038 -3.00887,-0.55836 -2.83609,0.27628 -4.20064,2.7827 -5.14307,9.44692 -0.85262,6.02902 -0.0385,14.57535 1.71076,17.95795 1.73933,3.36349 5.79191,4.18445 8.29582,1.68055 z m 21.44263,-0.28236 c 2.44832,-2.44832 3.45412,-7.60881 3.0879,-15.84317 -0.45894,-10.31916 -3.52963,-14.89267 -8.57475,-12.77136 -3.39906,1.4292 -4.41222,4.95549 -4.41222,15.35671 0,7.33289 0.2046,9.35252 1.11635,11.01958 2.3431,4.28419 5.84447,5.17649 8.78272,2.23824 z m -5.07655,-3.27732 c -0.3722,-0.69545 -0.66252,-5.44317 -0.66252,-10.83428 0,-8.16217 0.1619,-9.75826 1.08329,-10.67965 1.01772,-1.01772 1.15331,-0.99682 2.24,0.34518 0.99094,1.22377 1.15671,2.6964 1.15671,10.27592 0,4.86609 -0.28087,9.58618 -0.62416,10.4891 -0.73941,1.9448 -2.26532,2.13773 -3.19332,0.40373 z m 24.29748,2.91257 c 0,-0.98711 -0.45167,-1.64347 -1.28,-1.86008 -1.13824,-0.29766 -1.28,-0.87297 -1.28,-5.19464 0,-4.75724 0.0338,-4.85992 1.6,-4.85992 1.35111,0 1.6,-0.29867 1.6,-1.92 0,-1.62133 -0.24889,-1.92 -1.6,-1.92 -1.55428,0 -1.6,-0.128 -1.6,-4.48 v -4.48 h 2.24 c 2.18667,0 2.24,0.0609 2.24,2.56 0,2.304 0.16,2.56 1.6,2.56 1.55428,0 1.6,-0.128 1.6,-4.48 v -4.48 h -6.72 -6.72 v 1.92 c 0,1.28 0.32,1.92 0.96,1.92 0.81778,0 0.96,1.70667 0.96,11.52 0,9.81333 -0.14222,11.52 -0.96,11.52 -0.59733,0 -0.96,0.60444 -0.96,1.6 0,1.54257 0.14933,1.6 4.16,1.6 3.95638,0 4.16,-0.0747 4.16,-1.52536 z m 20.48,-0.0746 c 0,-1.17333 -0.34133,-1.6 -1.28,-1.6 -1.17333,0 -1.28,-0.42667 -1.28,-5.12 0,-5.03467 0.0267,-5.12 1.6,-5.12 1.35111,0 1.6,-0.29867 1.6,-1.92 0,-1.62133 -0.24889,-1.92 -1.6,-1.92 -1.55428,0 -1.6,-0.128 -1.6,-4.48 v -4.48 h 1.92 c 1.81856,0 1.92,0.1375 1.92,2.60251 0,2.46153 0.0953,2.59154 1.76,2.4 1.71872,-0.19776 1.76,-0.30009 1.76,-4.36251 v -4.16 l -6.88,-0.18165 -6.88,-0.18165 v 1.68157 c 0,1.14332 0.40971,1.78871 1.28,2.01629 1.21841,0.31862 1.28,0.87297 1.28,11.52 0,10.64703 -0.0616,11.20138 -1.28,11.52 -0.82833,0.21661 -1.28,0.87297 -1.28,1.86008 0,1.46187 0.18646,1.52536 4.48,1.52536 4.352,0 4.48,-0.0457 4.48,-1.6 z m 24.96,-2.88 c 0,-4.32388 -0.0545,-4.48 -1.5632,-4.48 -1.38152,0 -1.58607,0.31612 -1.76,2.72 -0.18463,2.55182 -0.31551,2.72 -2.1168,2.72 h -1.92 l -0.18692,-4.96 c -0.18598,-4.93491 -0.17869,-4.96 1.44,-4.96 1.38102,0 1.62692,-0.2902 1.62692,-1.92 0,-1.62133 -0.24889,-1.92 -1.6,-1.92 -1.55428,0 -1.6,-0.128 -1.6,-4.48 v -4.48 h 2.24 c 2.18667,0 2.24,0.0609 2.24,2.56 0,2.304 0.16,2.56 1.6,2.56 1.55428,0 1.6,-0.128 1.6,-4.48 v -4.48 h -6.72 -6.72 v 1.92 c 0,1.28 0.32,1.92 0.96,1.92 0.81778,0 0.96,1.70667 0.96,11.52 0,9.81333 -0.14222,11.52 -0.96,11.52 -0.59733,0 -0.96,0.60444 -0.96,1.6 v 1.6 h 6.72 6.72 z m 21.12,0 v -4.48 h -1.92 c -1.84889,0 -1.92,0.10667 -1.92,2.88 0,2.77333 -0.0711,2.88 -1.92,2.88 h -1.92 v -5.12 c 0,-5.03467 0.0267,-5.12 1.6,-5.12 1.35111,0 1.6,-0.29867 1.6,-1.92 0,-1.62133 -0.24889,-1.92 -1.6,-1.92 -1.55428,0 -1.6,-0.128 -1.6,-4.48 v -4.48 h 1.92 c 1.81856,0 1.92,0.1375 1.92,2.60251 0,2.46153 0.0953,2.59154 1.76,2.4 1.71872,-0.19776 1.76,-0.30009 1.76,-4.36251 v -4.16 l -6.88,-0.18165 -6.88,-0.18165 v 1.68157 c 0,1.14332 0.40971,1.78871 1.28,2.01629 1.21981,0.31899 1.28,0.87297 1.28,11.78008 0,11.01869 -0.0477,11.44536 -1.28,11.44536 -0.93867,0 -1.28,0.42667 -1.28,1.6 v 1.6 h 7.04 7.04 z m 54.69805,3.57042 c 2.70505,-1.13024 4.18195,-3.87171 4.18195,-7.76264 0,-2.51879 -0.32738,-3.30316 -2.13181,-5.10759 l -2.13182,-2.13182 1.55423,-1.16418 c 1.12278,-0.84101 1.64553,-1.97866 1.8831,-4.09814 0.67973,-6.06421 -2.9034,-9.12789 -10.26316,-8.7753 -3.58073,0.17153 -3.97026,0.32842 -4.16117,1.67593 -0.15141,1.06867 0.1635,1.58451 1.12,1.83464 1.28493,0.33602 1.33063,0.74105 1.33063,11.79332 0,11.01869 -0.0477,11.44536 -1.28,11.44536 -0.93867,0 -1.28,0.42667 -1.28,1.6 0,1.55498 0.12663,1.6 4.50056,1.6 2.4753,0 5.48018,-0.40931 6.67749,-0.90958 z m -4.35138,-2.71709 c -0.23467,-0.23466 -0.42667,-2.68266 -0.42667,-5.44 0,-5.48968 0.4911,-6.05555 3.2891,-3.78987 1.19808,0.97015 1.5109,1.84314 1.5109,4.21654 0,2.3734 -0.31282,3.24639 -1.5109,4.21654 -1.61948,1.31138 -2.18925,1.46998 -2.86243,0.79679 z m -0.42667,-18.13133 v -4.56702 l 1.76,0.20251 c 3.69956,0.42568 3.3959,8.18824 -0.34139,8.72702 -1.35139,0.19482 -1.41861,-0.0119 -1.41861,-4.36251 z m 24.32,20.158 c 0,-0.99556 -0.36267,-1.6 -0.96,-1.6 -0.77333,0 -0.96,-0.99556 -0.96,-5.12 0,-4.08126 0.19114,-5.12 0.94212,-5.12 0.905,0 1.28372,1.02259 3.67383,9.92 0.81935,3.05007 0.97123,3.20931 3.24184,3.39864 2.15626,0.17979 2.38221,0.0497 2.38221,-1.37154 0,-0.86358 -0.37908,-1.71562 -0.84241,-1.89342 -0.76287,-0.29274 -3.63759,-8.79394 -3.63759,-10.75719 0,-0.4477 0.648,-1.50375 1.44,-2.3468 1.15248,-1.22676 1.44,-2.27582 1.44,-5.25406 0,-5.91966 -3.14747,-8.33563 -10.85944,-8.33563 h -4.18056 v 1.92 c 0,1.49333 0.28444,1.92 1.28,1.92 1.23149,0 1.28,0.42667 1.28,11.25992 0,10.72167 -0.0612,11.27591 -1.28,11.59464 -0.82833,0.21661 -1.28,0.87297 -1.28,1.86008 0,1.4507 0.20362,1.52536 4.16,1.52536 4.01067,0 4.16,-0.0574 4.16,-1.6 z m -1.92,-20.16 c 0,-4.24812 0.0762,-4.48 1.472,-4.48 2.15916,0 3.008,1.19715 3.008,4.24228 0,2.938 -1.22442,4.71772 -3.24572,4.71772 -1.10149,0 -1.23428,-0.48198 -1.23428,-4.48 z m 30.58924,17.12 0.18924,-4.32 h -1.94924 c -1.88354,0 -1.94924,0.0971 -1.94924,2.88 0,2.77333 -0.0711,2.88 -1.92,2.88 h -1.92 v -5.07549 c 0,-4.7762 0.0849,-5.08754 1.44,-5.28 1.03105,-0.14643 1.49751,-0.70434 1.64251,-1.96451 0.17437,-1.51542 -0.0257,-1.76 -1.44,-1.76 -1.60692,0 -1.64251,-0.0971 -1.64251,-4.48 v -4.48 h 1.92 c 1.81856,0 1.92,0.1375 1.92,2.60251 0,2.46153 0.0953,2.59154 1.76,2.4 1.60675,-0.18488 1.77103,-0.45328 1.88664,-3.08251 0.25872,-5.88344 0.41258,-5.76 -7.17883,-5.76 h -6.70781 v 1.65992 c 0,1.12167 0.41505,1.76845 1.28,1.99464 1.21841,0.31862 1.28,0.87297 1.28,11.52 0,10.64703 -0.0616,11.20138 -1.28,11.52 -0.83466,0.21827 -1.28,0.87297 -1.28,1.88173 v 1.54701 l 6.88,-0.18165 6.88,-0.18165 z m 14.85076,3.04 c 0,-0.99556 -0.36267,-1.6 -0.96,-1.6 -1.03738,0 -1.22689,-1.70557 -0.56,-5.04 0.33139,-1.65694 0.70125,-2 2.15626,-2 1.53226,0 1.80686,0.3061 2.15296,2.4 0.60864,3.6823 0.49529,4.64 -0.54922,4.64 -0.59733,0 -0.96,0.60444 -0.96,1.6 0,1.52889 0.17067,1.6 3.84,1.6 3.49693,0 3.84,-0.12235 3.84,-1.36945 0,-0.75319 -0.39795,-1.68919 -0.88434,-2.08 -0.55218,-0.44367 -1.4116,-4.43644 -2.28817,-10.63055 -0.7721,-5.456 -1.54556,-10.424 -1.71879,-11.04 -0.19826,-0.70502 0.0369,-1.12 0.63484,-1.12 1.11556,0 1.60854,-1.13583 1.19122,-2.74458 -0.25969,-1.00111 -0.94853,-1.12143 -5.49583,-0.96 -4.88948,0.17359 -5.21147,0.27307 -5.40956,1.67126 -0.14588,1.02967 0.16161,1.58401 1.00031,1.80334 1.17867,0.30823 1.16976,0.60965 -0.33436,11.31332 -0.99364,7.07098 -1.8648,11.25032 -2.44031,11.70721 -0.49225,0.39081 -0.89501,1.32681 -0.89501,2.08 0,1.2471 0.34307,1.36945 3.84,1.36945 3.66933,0 3.84,-0.0711 3.84,-1.6 z m -0.54434,-17.12 c 0.25587,-2.552 0.48301,-5.576 0.50478,-6.72 0.0218,-1.144 0.28218,-2.08 0.57873,-2.08 0.29654,0 0.80057,3.024 1.12008,6.72 l 0.58092,6.72 h -1.62485 -1.62486 z m 24.22434,17.18847 c 0,-0.84234 -0.432,-1.6973 -0.96,-1.89991 -0.80282,-0.30807 -0.96,-2.20546 -0.96,-11.58848 0,-9.54674 0.14317,-11.22008 0.96,-11.22008 0.64,0 0.96,-0.64 0.96,-1.92 v -1.92 h -3.84 -3.84 v 1.92 c 0,1.28 0.32,1.92 0.96,1.92 0.81778,0 0.96,1.70667 0.96,11.52 0,9.81333 -0.14222,11.52 -0.96,11.52 -0.59733,0 -0.96,0.60444 -0.96,1.6 0,1.52889 0.17067,1.6 3.84,1.6 3.62355,0 3.84,-0.0863 3.84,-1.53153 z m 9.35016,-0.17732 c 0.0401,-0.79345 -0.38145,-1.50695 -0.98329,-1.66433 -0.65557,-0.17144 -1.93311,-2.63855 -3.38247,-6.53206 l -2.32902,-6.25657 1.97244,-5.0391 c 1.10109,-2.81299 2.35231,-5.03909 2.83231,-5.03909 0.52875,0 0.85987,-0.73937 0.85987,-1.92 0,-1.90061 -0.0356,-1.92 -3.52,-1.92 -3.46209,0 -3.52,0.0307 -3.52,1.86667 0,1.02666 0.33,1.97666 0.73334,2.11111 0.49675,0.16559 0.13542,1.9356 -1.12,5.48644 l -1.85334,5.24199 1.71401,4.96689 c 0.94271,2.7318 1.90952,5.4709 2.14847,6.0869 0.30345,0.78227 0.12434,1.12 -0.59401,1.12 -0.6755,0 -1.02847,0.55959 -1.02847,1.63054 0,1.59379 0.0902,1.62624 4,1.44 3.59356,-0.17118 4.00713,-0.33166 4.07016,-1.57939 z m -28.20107,-58.1021 c 0.864,-0.864 1.57091,-2.31709 1.57091,-3.22909 0,-0.912 -0.70691,-2.36509 -1.57091,-3.22909 l -1.57091,-1.57091 H 319.24304 c -101.65123,0 -105.61216,0.0437 -107.01651,1.18088 -1.94864,1.57791 -1.8989,5.67393 0.0886,7.29912 1.29218,1.0566 7.34474,1.12 106.92789,1.12 H 424.80121 Z M 361.9263,374.21296 c 8.57793,-4.29412 15.65853,-9.45206 22.35466,-16.2845 3.6852,-3.76023 5.48263,-5.14744 6.66958,-5.14744 0.89366,0 4.04244,-0.42159 6.99728,-0.93688 16.50762,-2.87868 30.66822,-9.53808 40.78831,-19.18178 13.40023,-12.76944 20.58165,-33.37506 14.36372,-41.21376 -1.0242,-1.29117 -3.28747,-3.0659 -5.02949,-3.94384 -4.55599,-2.29612 -15.18696,-2.59673 -25.05644,-0.7085 -3.86585,0.73962 -7.20018,1.34476 -7.40961,1.34476 -0.20943,0 -0.21721,-1.008 -0.0173,-2.24 l 0.3635,-2.24 h -96.4864 -96.4864 l 0.44568,4 c 2.19885,19.73475 11.32856,44.39075 21.96957,59.33178 5.29966,7.44125 14.27528,16.52754 20.68001,20.93499 4.05455,2.79016 13.86365,8.11793 17.23007,9.35843 0.528,0.19456 16.84851,0.37648 36.2678,0.40427 l 35.30781,0.0505 z m 35.1813,-32.79194 c 4.14367,-5.82633 11.04339,-21.99978 13.92802,-32.6483 2.7323,-10.08623 3.5863,-10.93315 12.75745,-12.65167 7.23449,-1.35562 17.556,-1.08244 20.62395,0.54586 4.77879,2.53631 5.48379,7.13403 2.17736,14.19971 -5.37523,11.4866 -14.66789,20.61118 -27.01717,26.52852 -5.9927,2.87148 -16.51003,5.78588 -20.8798,5.78588 h -2.84152 z m -69.53719,-74.51659 c 4.30076,-4.40626 6.54657,-9.35238 6.83579,-15.05496 0.31131,-6.1382 -1.07534,-10.36499 -5.81171,-17.71538 -7.89644,-12.25449 -12.30832,-24.16315 -13.06786,-35.27307 -0.94297,-13.79302 5.72522,-26.30643 19.00619,-35.66668 4.67522,-3.29504 -10.45072,4.2488 -16.2501,8.1045 -12.31664,8.18866 -17.55625,17.79355 -18.18855,33.34199 -0.50489,12.4153 1.34535,18.0873 11.68139,35.80969 5.83487,10.00459 8.1129,16.52023 8.18808,23.41958 0.045,4.12888 -0.20213,5.30526 -1.66387,7.9206 -0.9442,1.68935 -1.71672,3.18999 -1.71672,3.33477 0,0.72064 8.37923,-5.54893 10.98736,-8.22104 z m 16.45098,-7.96091 c 3.54594,-5.35338 4.79589,-9.50928 4.78893,-15.9225 -0.006,-5.20076 -0.2721,-6.47459 -2.74442,-13.12 -2.13468,-5.73784 -2.74914,-8.27688 -2.78793,-11.52 -0.0544,-4.54692 0.52598,-6.03441 4.84112,-12.4079 l 2.55104,-3.76791 -2.80354,1.52791 c -1.54195,0.84034 -4.71909,3.41365 -7.06031,5.71846 -4.84724,4.77185 -6.30878,8.24612 -6.29563,14.9656 0.009,4.76422 0.94921,8.31837 4.49668,17.00384 2.37553,5.81615 2.74761,7.36561 2.76634,11.52 0.0128,2.83862 -0.38856,5.90266 -0.98222,7.49849 -0.94848,2.5496 -0.94166,2.6652 0.12354,2.09512 0.62007,-0.33186 2.01795,-1.94785 3.1064,-3.59111 z"
     id="path9464"
     inkscape:connector-curvature="0" />
</svg>
