<?xml version="1.0" encoding="UTF-8" standalone="no"?>
<!-- Created with Inkscape (http://www.inkscape.org/) -->

<svg
   xmlns:dc="http://purl.org/dc/elements/1.1/"
   xmlns:cc="http://creativecommons.org/ns#"
   xmlns:rdf="http://www.w3.org/1999/02/22-rdf-syntax-ns#"
   xmlns:svg="http://www.w3.org/2000/svg"
   xmlns="http://www.w3.org/2000/svg"
   xmlns:sodipodi="http://sodipodi.sourceforge.net/DTD/sodipodi-0.dtd"
   xmlns:inkscape="http://www.inkscape.org/namespaces/inkscape"
   version="1.1"
   id="svg10093"
   width="193"
   height="174"
   viewBox="0 0 193 174"
   sodipodi:docname="logo3.svg"
   inkscape:version="0.92.3 (2405546, 2018-03-11)">
  <metadata
     id="metadata10099">
    <rdf:RDF>
      <cc:Work
         rdf:about="">
        <dc:format>image/svg+xml</dc:format>
        <dc:type
           rdf:resource="http://purl.org/dc/dcmitype/StillImage" />
        <dc:title></dc:title>
      </cc:Work>
    </rdf:RDF>
  </metadata>
  <defs
     id="defs10097" />
  <sodipodi:namedview
     pagecolor="#ffffff"
     bordercolor="#666666"
     borderopacity="1"
     objecttolerance="10"
     gridtolerance="10"
     guidetolerance="10"
     inkscape:pageopacity="0"
     inkscape:pageshadow="2"
     inkscape:window-width="1366"
     inkscape:window-height="705"
     id="namedview10095"
     showgrid="false"
     inkscape:zoom="1.3563218"
     inkscape:cx="96.5"
     inkscape:cy="87"
     inkscape:window-x="-8"
     inkscape:window-y="-8"
     inkscape:window-maximized="1"
     inkscape:current-layer="svg10093" />
  <path
     style="fill:#000000"
     d="M 82.5,168.9543 C 51.144245,164.1934 26.244729,143.3353 15.864493,113.13434 12.674291,103.85256 12.552914,102.93279 12.547631,88 12.54235,73.074266 12.66367,72.14803 15.822171,63 25.195903,35.850668 46.172473,16.18244 73.5,8.9196275 c 16.604516,-4.4129672 38.32349,-2.4017857 54.17764,5.0168605 13.69095,6.406423 27.95816,19.117644 35.62647,31.741035 12.8264,21.114538 15.19145,48.084619 6.28678,71.691877 -7.08911,18.79399 -23.1395,35.90929 -41.91325,44.69411 -12.69466,5.94022 -32.022387,8.88821 -45.17764,6.89079 z M 93,166 c 0,-1.65591 -0.666667,-2 -3.875,-2 -2.13125,0 -5.28125,-0.28125 -7,-0.625 -2.69038,-0.53808 -3.125,-0.3387 -3.125,1.43358 0,2.20742 1.772412,2.76034 9.75,3.04159 C 92.383277,167.97826 93,167.70978 93,166 Z m 10.36043,1.36408 c 3.75127,-0.51417 4.63957,-1.01676 4.63957,-2.625 0,-1.69444 -0.46291,-1.8965 -3.125,-1.36408 -1.71875,0.34375 -4.86875,0.625 -7,0.625 -3.208333,0 -3.875,0.34409 -3.875,2 0,2.21746 1.519156,2.43884 9.36043,1.36408 z M 77,165 c 0,-0.55 0.02415,-1.30305 0.05367,-1.67345 0.07337,-0.92065 -11.210953,-4.34738 -12.233983,-3.71511 -2.04641,1.26475 -0.426065,3.16835 3.930317,4.61738 C 74.423132,166.11583 77,166.3567 77,165 Z m 40.66211,-0.68262 c 4.85925,-1.53175 6.64489,-3.39158 4.51821,-4.70594 -1.02303,-0.63227 -12.30735,2.79446 -12.23399,3.71511 C 109.97585,163.69695 110,164.45 110,165 c 0,1.39234 1.5049,1.25827 7.66211,-0.68262 z m -4.38234,-4.46213 c 20.27712,-5.61907 37.94815,-20.27233 47.15305,-39.10048 5.68229,-11.62285 7.07459,-18.32183 7.01546,-33.75477 -0.0462,-12.070402 -0.34447,-14.347169 -2.81625,-21.5 -8.67428,-25.101627 -27.579,-43.029982 -52.34531,-49.641869 -10.72644,-2.863647 -26.847,-2.863647 -37.573438,0 C 49.553157,22.575154 29.638893,41.832842 21.827772,67 c -3.36609,10.845423 -3.36609,31.154577 0,42 8.754555,28.20687 32.241884,48.42452 61.648781,53.06663 7.253573,1.14503 21.507907,0.0874 29.803217,-2.21138 z M 89.542705,154.0691 c -0.316431,-0.512 -0.117988,-1.21356 0.440983,-1.55902 0.558972,-0.34546 0.998295,-1.38906 0.976274,-2.3191 -0.02712,-1.14527 -0.521499,-0.80351 -1.531937,1.05902 -1.805768,3.32855 -4.130089,3.57465 -4.722292,0.5 l -0.433369,-2.25 -0.136182,2.32332 c -0.09721,1.6584 -0.63703,2.2138 -1.886182,1.94061 -0.982114,-0.21478 -1.551331,-1.01484 -1.297236,-1.82332 0.24902,-0.79234 0.440258,-2.90311 0.424974,-4.69061 -0.02485,-2.90627 0.270993,-3.25 2.797236,-3.25 2.398773,0 2.835238,0.41493 2.892706,2.75 0.06646,2.70054 0.0872,2.70953 1.152815,0.5 0.751204,-1.5576 1.967165,-2.25 3.951371,-2.25 2.636776,0 2.807906,0.22016 2.137607,2.75 -0.400747,1.5125 -0.681924,3.7625 -0.624839,5 0.07167,1.55369 -0.464151,2.25 -1.731404,2.25 -1.009358,0 -2.094094,-0.41891 -2.410525,-0.9309 z m 15.708625,-0.7924 c -4.05883,-0.50377 -5.939531,-3.47085 -4.37565,-6.90319 2.30939,-5.06857 10.23104,-1.71362 8.80748,3.7301 -0.27316,1.04453 -0.0886,1.64697 0.4101,1.33875 0.49871,-0.30822 0.90674,0.14116 0.90674,0.99862 0,0.85746 -0.5625,1.487 -1.25,1.39898 -0.6875,-0.088 -2.7119,-0.34148 -4.49867,-0.56326 z m 0.56117,-6.2142 c 0.25,-0.75 -0.125,-1.125 -0.875,-0.875 -0.72187,0.24062 -1.50938,1.02812 -1.75,1.75 -0.25,0.75 0.125,1.125 0.875,0.875 0.72187,-0.24063 1.50938,-1.02813 1.75,-1.75 z m -34.172659,3.66341 c -1.50414,-1.09985 -1.701861,-2.12952 -1.134907,-5.91024 0.586072,-3.90822 0.97357,-4.5033 2.647373,-4.06559 1.350982,0.35329 1.74772,1.01615 1.275655,2.13134 C 73.020064,146.20738 72.785852,149 73.914808,149 c 1.201843,0 2.055206,-1.58994 2.507544,-4.67191 0.147569,-1.00545 0.574158,-1.74934 0.947977,-1.65309 2.646702,0.68147 2.737761,1.12887 0.986657,4.84779 -2.041746,4.33617 -3.933753,5.23839 -6.717145,3.20312 z M 113.31429,148.75 c -2.86256,-4.45191 -3.36294,-6.10209 -2.09441,-6.90705 2.0048,-1.27218 2.30395,-1.05551 3.32332,2.40705 0.52624,1.7875 1.4068,3.025 1.9568,2.75 1.31361,-0.6568 0.78716,-4.19447 -0.77476,-5.20629 -0.93401,-0.60505 -0.8687,-1.02776 0.27476,-1.7784 2.31688,-1.52093 2.59788,-1.30085 3.90368,3.05755 0.94109,3.14106 0.94929,4.39938 0.0359,5.5 -1.4609,1.76028 -5.53721,1.86926 -6.62524,0.17714 z m -50.226469,-1.67456 c -1.193821,-0.75571 -1.155397,-1.15072 0.248498,-2.55462 0.913373,-0.91337 1.935137,-2.75421 2.270588,-4.09075 0.656812,-2.61695 1.162901,-2.8624 3.216826,-1.56017 1.061333,0.67291 0.922935,1.49833 -0.698175,4.16403 -1.112049,1.82862 -1.793671,3.69406 -1.514716,4.14542 0.675479,1.09294 -1.745093,1.02155 -3.523021,-0.10391 z M 123.99384,144.75 c -0.003,-1.2375 -0.62662,-3.43916 -1.38497,-4.89258 -1.27762,-2.44865 -1.20288,-2.73674 1.01829,-3.92547 2.14381,-1.14734 2.69217,-1.00019 5.18969,1.39258 1.53592,1.47151 3.44296,2.69044 4.23787,2.70874 0.94639,0.0218 0.59647,0.73961 -1.01373,2.07954 -2.1069,1.75326 -2.53652,1.82533 -3.00024,0.50335 -0.35295,-1.00618 -1.01312,-1.25127 -1.89775,-0.70454 -0.99005,0.61189 -1.04441,1.03128 -0.2012,1.55241 0.87189,0.53886 0.86804,1.06017 -0.0157,2.125 -1.71717,2.06906 -2.92525,1.72338 -2.93227,-0.83903 z M 127,140 c 0,-0.55 -0.45,-1 -1,-1 -0.55,0 -1,0.45 -1,1 0,0.55 0.45,1 1,1 0.55,0 1,-0.45 1,-1 z m -70.02594,3.46874 c -1.050793,-1.26612 -0.942135,-1.78005 0.627555,-2.96819 1.044112,-0.79032 1.390985,-1.45125 0.77083,-1.46875 -0.620156,-0.0175 -1.692361,0.64875 -2.382679,1.48053 -1.893267,2.28125 -4.333028,-0.002 -2.887732,-2.70298 0.583003,-1.08935 0.780699,-2.25995 0.439323,-2.60133 -0.341376,-0.34137 -0.880319,0.37217 -1.197652,1.58565 -0.615479,2.3536 -1.824449,2.85552 -2.856357,1.18586 -0.346877,-0.56126 0.526566,-2.39579 1.940983,-4.07673 C 52.842749,132.22186 54,130.36133 54,129.76829 c 0,-0.59305 0.925489,-0.24071 2.056643,0.78297 1.489502,1.34798 1.882465,2.55522 1.425017,4.37783 -0.604685,2.40926 -0.551381,2.44398 1.249739,0.81399 1.71981,-1.55641 2.073757,-1.56786 4.12183,-0.13333 l 2.240465,1.56928 -2.546847,2.54685 C 61.146081,141.12665 60,142.88636 60,143.63636 c 0,1.81081 -1.450688,1.73045 -3.02594,-0.16762 z M 133.5,136 c -1.1,-1.64684 -2.63224,-2.99554 -3.40499,-2.99712 -1.07036,-0.002 -0.97222,-0.48107 0.41206,-2.01069 1.80764,-1.99743 1.82783,-1.99235 3.90498,0.98272 2.51114,3.59665 3.1586,3.72251 3.9873,0.77509 0.59331,-2.11019 0.69974,-2.1361 1.71285,-0.41687 0.86185,1.46255 0.62122,2.32173 -1.1903,4.25 -1.24879,1.32928 -2.52959,2.41558 -2.84621,2.41399 C 135.75906,138.99554 134.6,137.64684 133.5,136 Z M 43.25,131.03651 C 40.624184,127.70717 40.480073,127 42.42742,127 c 0.785081,0 2.39998,-1.23641 3.588666,-2.74758 l 2.161246,-2.74758 2.457997,2.85759 c 2.408669,2.80025 2.775939,4.86151 0.839671,4.71257 -0.53625,-0.0412 -0.975,-0.6 -0.975,-1.24167 0,-0.64166 -0.609722,-1.3699 -1.354939,-1.61831 -0.99391,-0.3313 -1.167446,0.13909 -0.651279,1.76539 0.607928,1.91541 0.418134,2.12641 -1.395062,1.55092 C 45.861871,129.13877 45,129.30356 45,129.93261 45,130.51968 45.675,131 46.5,131 c 0.825,0 1.5,0.675 1.5,1.5 0,2.36161 -2.289529,1.6562 -4.75,-1.46349 z M 85.211103,132.75 c -1.389663,-1.68031 -0.378556,-6.47176 1.51938,-7.20007 C 88.793006,124.75846 91,126.76024 91,129.42244 c 0,3.86107 -3.62458,5.94454 -5.788897,3.32756 z M 89,129.41667 c 0,-3.13272 -2.348466,-2.78984 -2.819551,0.41166 C 85.968235,131.27054 86.38811,132 87.430449,132 88.451472,132 89,131.09717 89,129.41667 Z M 92.82861,130 c -0.360379,-3.77892 -0.231273,-4 2.335947,-4 3.072539,0 4.591799,1.64364 2.995115,3.24033 -0.718218,0.71822 -0.743566,1.66865 -0.07768,2.91287 0.584811,1.09273 0.609385,1.8468 0.06019,1.8468 -0.510508,0 -1.187217,-0.675 -1.503799,-1.5 -0.316583,-0.825 -1.025604,-1.5 -1.575604,-1.5 -0.55,0 -0.740979,0.675 -0.424396,1.5 0.316582,0.825 0.124725,1.5 -0.42635,1.5 -0.551074,0 -1.173611,-1.8 -1.383414,-4 z M 97,128 c 0,-0.55 -0.675,-1 -1.5,-1 -0.825,0 -1.5,0.45 -1.5,1 0,0.55 0.675,1 1.5,1 0.825,0 1.5,-0.45 1.5,-1 z m 4.03518,3.06574 c -2.077365,-3.8816 -0.0666,-7.78251 3.33807,-6.476 2.35092,0.90213 2.00636,2.66552 -0.37325,1.91026 -1.6455,-0.52226 -2,-0.1797 -2,1.93261 0,1.61546 0.55617,2.56739 1.5,2.56739 1.81631,0 1.99117,-1.63514 0.25,-2.33772 -0.6875,-0.27741 -0.2375,-0.53991 1,-0.58333 2.43931,-0.0856 2.97131,1.79974 1.05,3.72105 -1.75226,1.75226 -3.58524,1.46979 -4.76482,-0.73426 z m -24.858504,-1.61856 c 0.452271,-2.17211 2.22702,-2.30502 2.632953,-0.19718 C 79.02043,130.3446 78.529958,131 77.5,131 c -0.960727,0 -1.511966,-0.64684 -1.323324,-1.55282 z M 109,129.625 c 0,-0.75625 -0.28125,-2.78125 -0.625,-4.5 -0.82314,-4.1157 1.25315,-4.16634 5.125,-0.125 2.77975,2.90144 2.8013,3 0.65571,3 -1.22017,0 -2.4775,0.675 -2.79408,1.5 C 110.64031,131.37973 109,131.46655 109,129.625 Z m 3,-3.56598 c 0,-0.51754 -0.45,-1.2191 -1,-1.55902 -0.55,-0.33992 -1,0.0835 -1,0.94098 0,0.85746 0.45,1.55902 1,1.55902 0.55,0 1,-0.42344 1,-0.94098 z m 28.07404,2.43027 c -1.33428,-1.3144 -2.79678,-2.16065 -3.25,-1.88054 -1.78956,1.10601 -0.65139,-1.66433 2.77657,-6.75826 1.98034,-2.94277 4.23034,-5.35049 5,-5.35049 0.76967,0 1.28689,0.45 1.14939,1 -0.1375,0.55 -0.7,0.88103 -1.25,0.73561 -0.55,-0.14541 0.0345,0.61953 1.29887,1.69987 1.26437,1.08033 2.95187,1.71366 3.75,1.40739 1.81912,-0.69806 1.8657,0.70792 0.10329,3.11816 -1.29879,1.77619 -1.42618,1.76495 -3.5,-0.30887 -2.54077,-2.54077 -4.34566,-2.82 -3.4695,-0.53676 0.49804,1.29787 0.18015,1.47583 -1.61722,0.90537 -2.03711,-0.64655 -2.13459,-0.5185 -1.09047,1.43247 0.63065,1.17837 2.29318,2.57841 3.69452,3.1112 2.10967,0.8021 2.33614,1.22385 1.31676,2.45213 -1.59344,1.91997 -2.00851,1.83317 -4.91221,-1.02728 z m -66.344006,-1.41668 c 1.926064,-1.60721 2.029795,-2.02704 0.761011,-3.08004 C 72.826331,122.61098 73.401249,121 75.559017,121 76.351558,121 77,121.72314 77,122.60699 c 0,1.09845 0.553791,1.41206 1.75,0.99102 0.9625,-0.33878 0.175,0.72597 -1.75,2.36611 -1.925,1.64014 -3.95,2.97921 -4.5,2.97571 -0.55,-0.004 0.0035,-0.84375 1.230034,-1.86722 z m 2.615043,-3.61574 c -0.325685,-0.84872 -0.806623,-1.32866 -1.068751,-1.06653 -0.262128,0.26213 -0.179978,0.95654 0.182555,1.54313 0.98605,1.59546 1.56238,1.28551 0.886196,-0.4766 z M 115.1,122.92139 c -2.67204,-3.61413 -2.35962,-4.35079 1.26131,-2.97412 2.5411,0.96612 3.77721,-0.12559 1.63869,-1.44727 -0.55,-0.33992 -1,-1.06803 -1,-1.61803 0,-1.5059 1.64435,-0.19017 4.13663,3.30991 l 2.22975,3.1314 -3.40194,-0.68039 c -2.67503,-0.53501 -3.14152,-0.41997 -2.18319,0.53836 C 118.45156,123.85156 119,124.76 119,125.2 c 0,1.68072 -1.71245,0.68021 -3.9,-2.27861 z M 38,123.2 c 0,-0.99 0.54,-2.34 1.2,-3 0.833831,-0.83383 0.859259,-1.2 0.08333,-1.2 -0.614166,0 -1.344907,0.5625 -1.623869,1.25 -0.38169,0.94068 -0.769712,0.87881 -1.56802,-0.25 -1.569101,-2.21871 -1.42914,-2.45765 2.658556,-4.5387 2.0625,-1.05002 4.009959,-2.04502 4.327686,-2.21111 C 43.707033,112.9212 46,117.48908 46,119.0718 46,119.60954 44.875,120.47723 43.5,121 42.125,121.52277 41,122.63664 41,123.47525 41,124.31386 40.325,125 39.5,125 38.675,125 38,124.19 38,123.2 Z m 5.5,-5.2 c 0.339919,-0.55 -0.110081,-1 -1,-1 -0.889919,0 -1.339919,0.45 -1,1 0.339919,0.55 0.789919,1 1,1 0.210081,0 0.660081,-0.45 1,-1 z m 21.892628,5.58079 C 64.727287,121.84694 67.747008,117 69.492565,117 c 0.6944,0 1.797752,0.64488 2.451893,1.43308 0.93378,1.12513 0.827938,1.98465 -0.492565,4 -1.826058,2.78691 -5.186024,3.42334 -6.059265,1.14771 z m 4.627428,-2.10496 c 0.69572,-0.83829 0.986695,-1.80241 0.646611,-2.1425 C 69.940377,118.60704 67,120.84369 67,122.12244 c 0,1.37745 1.629848,1.02849 3.020056,-0.64661 z M 61.25,119.33772 c -1.83327,-0.73974 -1.523633,-3.78011 0.578741,-5.68273 2.272837,-2.05689 3.566844,-2.08819 5.195588,-0.12567 1.052907,1.26867 0.873637,1.95039 -1.051869,4 -2.404222,2.55917 -2.639021,2.64909 -4.72246,1.8084 z m 3.770056,-2.86189 c 0.69572,-0.83829 1.014361,-1.77475 0.708091,-2.08102 C 64.962872,113.62954 61,115.84255 61,117.03518 c 0,1.49955 2.613074,1.13596 4.020056,-0.55935 z M 121.5,117.58467 c -1.65,-1.32297 -2.64808,-2.76016 -2.21795,-3.19375 0.43013,-0.4336 2.22148,0.65107 3.98077,2.41036 3.74606,3.74606 2.57904,4.26468 -1.76282,0.78339 z m 2.08239,-2.90077 c -2.26957,-1.65955 -1.69844,-5.04803 0.92909,-5.51226 1.97702,-0.3493 1.97696,-0.3425 -0.0115,1.17669 l -2,1.52801 2,1.53003 c 2.74247,2.09802 3.5,1.96678 3.5,-0.60637 0,-1.63859 0.28907,-1.91093 1.13278,-1.06722 1.55309,1.55309 0.33807,4.26722 -1.91027,4.26722 -1.01214,0 -2.65019,-0.59224 -3.64012,-1.3161 z M 57,113.16052 c 0,-0.46172 1.125,-1.35207 2.5,-1.97857 1.375,-0.62649 2.5,-1.62528 2.5,-2.21953 0,-0.59425 0.45,-0.80234 1,-0.46242 1.642785,1.0153 1.160331,1.97408 -1.904292,3.78439 C 57.844025,114.20521 57,114.38576 57,113.16052 Z M 83.444392,111.6263 C 75.177603,107.77684 69.069447,98.967735 66.542075,87.25 L 65.841089,84 H 93.420545 C 120.84545,84 121,84.011869 121,86.117985 c 0,1.164892 1.35,3.65555 3,5.534796 1.65,1.879246 3,4.346153 3,5.482015 0,4.485044 -9.47104,10.837464 -16.19098,10.859624 -0.93004,0.003 -1.99806,0.50244 -2.37337,1.10971 -0.37532,0.60727 -2.53937,1.94738 -4.80902,2.97803 -5.844563,2.65403 -13.894145,2.47221 -20.182238,-0.45586 z m 17.283898,-2.15724 c 6.06477,-2.53402 9.72454,-5.96526 13.08265,-12.265726 C 119.04788,87.377831 120.42551,88 93.432612,88 H 69.865225 l 0.696895,2.25 c 4.833694,15.60609 18.291949,24.18043 30.16617,19.21906 z m 20.07394,-8.26242 c 1.73279,-1.13283 2.22747,-2.27003 2,-4.597682 -0.48818,-4.995297 -2.98289,-4.170117 -6.02292,1.992211 -2.69533,5.463611 -2.69999,5.508461 -0.5,4.812781 1.22138,-0.38622 3.25669,-1.37951 4.52292,-2.20731 z m -84.201204,9.63413 C 35.416809,109.15007 34.787829,108.9312 33.702312,109.8321 32.210015,111.07059 31,110.43507 31,108.41279 c 0,-0.68963 1.34484,-1.54926 2.988532,-1.91027 1.643693,-0.36102 3.245251,-1.07177 3.559017,-1.57946 1.064243,-1.72198 2.253241,-0.93327 3.354212,2.22498 0.803258,2.30422 0.796659,3.51042 -0.02462,4.5 -1.559069,1.87856 -2.52225,1.69673 -4.276115,-0.80727 z M 39.5,109 c 0.339919,-0.55 -0.08352,-1 -0.940983,-1 C 37.701558,108 37,108.45 37,109 c 0,0.55 0.423442,1 0.940983,1 0.517541,0 1.219098,-0.45 1.559017,-1 z m 104.98142,2.18782 c 0.28522,-0.74327 0.51858,-1.79492 0.51858,-2.337 0,-0.54208 1.0125,-0.70697 2.25,-0.36643 2.18943,0.6025 2.19761,0.57729 0.30375,-0.93636 -1.48373,-1.18585 -1.66878,-1.833 -0.77868,-2.7231 0.89009,-0.89009 1.66694,-0.53273 3.26883,1.50375 1.15569,1.46923 2.7766,2.67132 3.602,2.67132 0.84283,0 1.359,0.70013 1.17742,1.59703 -0.24125,1.19166 -1.66064,1.64084 -5.5919,1.76961 -4.06275,0.13308 -5.14989,-0.13672 -4.75,-1.17882 z M 31.175244,93.25 c -1.125478,-0.9625 -2.746942,-3.484344 -3.603253,-5.604099 -1.459386,-3.612638 -1.447762,-3.811864 0.18554,-3.179969 0.958358,0.370771 2.926266,0.913125 4.37313,1.205231 2.431545,0.490902 2.591482,0.315299 2.113038,-2.320031 L 33.726077,80.5 36.613038,82.989838 C 40.832925,86.629246 42,88.173917 42,90.119701 42,94.615955 35.104259,96.610063 31.175244,93.25 Z M 39,93.606989 C 39,93.390833 38.301628,92.945987 37.448062,92.618443 36.558137,92.276947 36.15674,92.444594 36.507079,93.011454 37.094337,93.961658 39,94.416902 39,93.606989 Z m 0.612405,-5.075781 C 38.700224,87.139044 37.514268,86 36.976947,86 36.439626,86 36.9,86.9 38,88 c 1.1,1.1 2,2.525 2,3.166667 0,0.641666 0.285956,0.88071 0.635458,0.531208 0.349502,-0.349502 -0.110871,-1.774502 -1.023053,-3.166667 z m 108.959025,4.897363 c -2.51451,-2.514511 -1.84329,-5.280621 2.17857,-8.977867 3.09253,-2.842927 3.81384,-3.147477 4.11414,-1.737064 0.20028,0.940646 -0.11464,1.869859 -0.69981,2.064918 -2.45371,0.817902 -6.15969,4.489312 -6.10094,6.044022 0.0473,1.251588 0.28336,1.132209 0.92992,-0.470253 0.47659,-1.18122 1.38808,-2.470005 2.02552,-2.863966 C 152.49325,86.57712 162,84.05084 162,84.570276 c 0,1.907829 -3.6267,8.694757 -5.05451,9.458897 -2.71245,1.451657 -6.60067,1.172787 -8.37406,-0.600602 z m 3.92149,-0.417117 c 0.35034,-0.56686 -0.0511,-0.734507 -0.94098,-0.393011 C 149.81952,93.283234 149.50255,94 150.94098,94 c 0.51754,0 1.21592,-0.444846 1.55194,-0.988546 z M 89.872804,80.316287 C 86.277962,78.08525 84,73.907655 84,69.546048 c 0,-4.6266 1.846555,-8.182202 6.398385,-12.320299 4.0603,-3.691244 4.181529,-4.076774 2.133418,-6.784619 C 90.209652,47.370971 90.693753,46 94.1,46 c 2.192157,0 4.095699,0.995699 6.5,3.4 5.07215,5.072146 4.54529,9.646106 -2.015641,17.499029 -3.918619,4.690281 -3.981186,6.244287 -0.453163,11.255341 1.027842,1.459904 1.868804,2.922404 1.868804,3.25 0,1.276022 -7.640696,0.455092 -10.127196,-1.088083 z M 88.93395,74.326276 C 87.454894,70.436064 88.564038,66.990913 93.038916,61.575692 95.217512,58.939289 96.964474,55.81873 96.921053,54.641116 96.86685,53.171104 96.666017,52.970155 96.280308,54 95.971319,54.825 93.756845,57.618222 91.359255,60.207159 86.499668,65.454581 85.472442,70.25079 88.137463,75.25 c 1.42662,2.676142 1.939158,2.081727 0.796487,-0.923724 z m 4.370176,-1.095511 c -0.442822,-3.301489 0.0033,-4.385051 3.595157,-8.731669 C 101.08752,59.430749 102.12112,55.201976 99.95431,52 c -0.759594,-1.122482 -0.860178,-0.831325 -0.399656,1.156859 0.716616,3.093802 -0.163332,4.98861 -5.011664,10.791685 -3.612091,4.323392 -4.362768,7.65117 -2.507806,11.117197 1.520848,2.841731 1.835241,2.387097 1.268942,-1.834976 z m -20.08162,3.212531 c -1.378957,-0.965859 -2.212296,-2.578941 -2.195605,-4.25 L 71.053801,69.5 73.7769,72.759015 c 1.497704,1.792458 3.312157,3.254958 4.032116,3.25 C 78.528976,76.004057 78.839919,76.45 78.5,77 c -0.883858,1.430113 -2.716991,1.236742 -5.277494,-0.556704 z m 31.343424,-0.336622 c -0.30366,-0.49133 0.56978,-1.174903 1.94098,-1.519053 C 107.87811,74.243472 109,73.322027 109,72.539965 c 0,-1.751738 1.65194,-2.873109 3.0027,-2.038294 1.09736,0.678205 -0.48409,4.452123 -2.4024,5.733016 -1.52611,1.019009 -4.37017,0.946691 -5.03437,-0.128013 z M 75.097639,72.137122 C 73.191163,69.459723 73.215519,68 75.166667,68 76.567069,68 80,71.906439 80,73.5 c 0,2.46029 -2.718089,1.704649 -4.902361,-1.362878 z M 103,72.654988 C 103,70.841891 106.25839,68 108.33721,68 c 1.44816,0 1.50624,0.310192 0.42126,2.25 C 106.67919,73.967504 103,75.504094 103,72.654988 Z m 40.5622,-5.131296 c -1.6147,-4.228035 -1.41965,-7.17166 0.40066,-6.046643 C 145.11041,62.18627 152,59.194171 152,57.98658 c 0,-2.575264 1.94549,-0.476124 3.88573,4.192626 1.68327,4.050408 1.87579,5.354553 0.88333,5.983744 -2.08006,1.318687 -3.28772,0.298735 -2.98121,-2.517842 C 153.99256,63.763951 153.61208,63 152.47046,63 c -1.12666,0 -1.42395,0.571182 -0.99717,1.915843 0.78232,2.464885 -1.05863,3.647531 -2.28015,1.464791 -0.51138,-0.913786 -1.43904,-1.346693 -2.06146,-0.962015 C 145.55406,66.393639 145.71669,68 147.39301,68 c 1.9997,0 2.76679,2.724703 0.96206,3.417241 -2.64027,1.013168 -3.04434,0.684919 -4.79287,-3.893549 z m -110.576416,1.66588 c -2.435253,-1.971949 -3.055432,-6.910459 -1.025374,-8.165104 0.665726,-0.411441 1.138226,-1.046513 1.05,-1.411271 -0.414546,-1.713892 0.690951,-2.509262 2.73959,-1.971049 2.788674,0.732634 2.950256,3.36197 0.25,4.068103 -2.600006,0.679917 -2.559598,2.919894 0.07814,4.331569 C 38.956085,67.582049 41,66.539533 41,63.531385 41,61.947932 41.561707,61 42.5,61 c 2.208291,0 1.961188,6.272656 -0.328741,8.345012 -2.398937,2.171009 -6.395963,2.10337 -9.185475,-0.15544 z m 8.93902,-10.539742 c -3.736866,-1.86303 -5.582828,-5.910209 -4.140029,-9.076808 2.573625,-5.648491 11.347108,-4.880058 12.8545,1.125873 1.360267,5.419732 -3.993625,10.304532 -8.714471,7.950935 z m 5.410711,-4.318678 C 48.359271,53.307396 44.93019,50 42.845012,50 c -2.339703,0 -2.402144,2.57612 -0.09501,3.919901 2.057729,1.198517 3.654998,1.341768 4.585515,0.411251 z m 89.911095,1.379149 c -2.91058,-4.312665 -2.93027,-4.426765 -0.97458,-5.648112 2.20699,-1.378288 3.68311,-0.134306 3.71266,3.128794 0.008,0.930041 0.37943,1.91602 0.82446,2.191065 0.44503,0.275045 0.78253,-1.610898 0.75,-4.190983 -0.0524,-4.157681 0.20294,-4.728219 2.24589,-5.017829 2.76604,-0.392114 5.19496,1.404331 5.19496,3.84222 0,0.973811 0.72568,2.049036 1.61262,2.389388 1.30599,0.501156 1.37778,0.901791 0.37756,2.106989 C 149.08755,56.804367 147,56.305881 147,53.559017 c 0,-1.342541 -0.44923,-2.71862 -0.99828,-3.057955 -0.62335,-0.385247 -0.90503,1.188816 -0.75,4.190983 0.23378,4.527164 0.094,4.825822 -2.39312,5.113898 -2.15814,0.249969 -3.18488,-0.499348 -5.61199,-4.095642 z M 52.080856,48.712668 c -0.539183,-1.418161 -2.352951,-3.593294 -4.030595,-4.833629 -1.677644,-1.240336 -3.042149,-2.50803 -3.032235,-2.817097 0.0099,-0.309068 1.827699,-2.064782 4.039521,-3.901587 3.286921,-2.729618 4.290522,-3.116373 5.494306,-2.117321 1.802167,1.495666 0.09335,4.141785 -2.124966,3.290536 C 51.598048,38.015515 51,38.389702 51,39.226345 c 0,2.194308 1.160683,2.885189 2.700372,1.607361 0.96246,-0.798771 1.702808,-0.830526 2.429142,-0.104192 0.726334,0.726334 0.713417,1.249526 -0.04238,1.716635 C 54.502989,43.425203 54.757578,45 56.5,45 c 2.171229,0 1.847903,1.324534 -0.969405,3.971257 l -2.469404,2.319886 z M 129,47 c -2.66626,-2.666259 -2.52103,-5.227335 0.5,-8.817631 1.375,-1.634094 2.5,-3.468621 2.5,-4.076725 0,-1.690653 1.49513,-1.320999 3.46617,0.856971 1.71702,1.897285 1.67224,2.050037 -1.34502,4.588894 C 130.89977,42.262123 129.99755,45 132.32569,45 c 1.43303,0 5.45182,-3.868434 5.71376,-5.5 0.18319,-1.141038 1.86721,-0.822356 3.70228,0.700617 0.95198,0.790072 0.24012,1.948584 -2.99657,4.876797 C 133.91796,49.444541 131.85211,49.852106 129,47 Z M 61.253183,41.25 C 61.399466,39.263792 58.227981,34 56.88499,34 56.398246,34 56,33.436727 56,32.748283 c 0,-1.616528 8.525784,-6.159399 9.930394,-5.291302 2.022576,1.250021 1.184045,3.684824 -1.155744,3.355877 -1.535647,-0.215894 -2.341906,0.27474 -2.601423,1.583051 -0.284626,1.434889 0.03528,1.738057 1.315591,1.246755 2.42888,-0.932048 3.855288,0.237788 2.411356,1.97762 -0.951707,1.146735 -0.837282,1.705219 0.558482,2.725826 1.632873,1.193986 1.575874,1.401245 -0.816432,2.968744 -3.284485,2.152078 -4.550937,2.133364 -4.389041,-0.06485 z m 56.441377,-1.361124 c -2.9739,-1.730052 -3.90906,-5.573401 -2.17299,-8.930591 3.08707,-5.969741 11.66679,-4.621862 12.29995,1.932331 0.56935,5.893705 -5.18732,9.871872 -10.12696,6.99826 z M 124,32.555883 c 0,-2.213976 -1.30832,-2.58683 -3.16885,-0.903077 -1.87889,1.700376 -2.40174,4.443267 -1.0959,5.749114 C 120.58579,38.252456 124,34.372883 124,32.555883 Z m -52,2.557691 c 0,-1.47988 -0.820638,-4.300325 -1.823641,-6.267656 L 68.352718,25.268953 73.337322,23.67494 C 78.579877,21.998438 80,22.186875 80,24.559017 80,26.012432 78.957845,26.378603 75.75,26.052296 74.7875,25.954389 74,26.35257 74,26.937142 74,27.521714 74.825,28 75.833333,28 c 2.811986,0 3.455634,1.274982 1.24178,2.459801 -1.468055,0.785679 -1.732685,1.452761 -1.012361,2.551969 0.847621,1.293463 1.150784,1.259205 2.316494,-0.26177 C 79.862738,30.814394 82,30.40652 82,32.059017 82,32.641476 82.45,32.839919 83,32.5 83.55,32.160081 84,30.108524 84,27.940983 84,25.773442 83.55,24 83,24 82.45,24 82,23.366647 82,22.59255 82,20.642678 93.032918,19.915355 93.761177,21.817217 94.600123,24.008137 92.335882,25.523647 90.5,24 89.274528,22.982948 88.645361,22.954639 87.724865,23.875135 86.80437,24.79563 87.040694,25.197881 88.767247,25.649385 91.277841,26.30592 91.805934,28 89.5,28 88.675,28 88,28.675 88,29.5 c 0,1.792665 2.129126,1.970874 3.783333,0.316667 1.393945,-1.393945 1.903001,-1.032623 2.371598,1.683333 0.307085,1.779849 -0.37042,2.070223 -6.154931,2.637954 -3.575,0.350874 -8.6375,1.319333 -11.25,2.152132 L 72,37.804264 Z M 107.5,33 c 0.5234,-2.383012 0.32115,-3 -0.9834,-3 -1.12918,0 -1.54456,0.703013 -1.32946,2.25 0.27234,1.958612 -0.0747,2.207798 -2.67968,1.924129 -3.840618,-0.418222 -3.810982,-0.363145 -2.03151,-3.775348 0.83145,-1.594329 1.5145,-4.361281 1.51789,-6.148781 0.006,-3.394884 1.85943,-4.26138 4.94186,-2.310903 1.21982,0.771873 1.22949,1.156934 0.0643,2.560903 -1.16275,1.401034 -1.16024,1.782935 0.0166,2.510232 1.95534,1.208466 3.175,0.168688 2.45673,-2.094389 C 108.98444,23.375629 109.35703,23 111.3736,23 c 3.06463,0 4.21697,1.583481 2.58412,3.550946 -0.66796,0.804835 -1.26158,3.260123 -1.31916,5.456195 C 112.54161,35.704577 112.32327,36 109.68748,36 107.04507,36 106.88831,35.785015 107.5,33 Z M 63,159.57511 c 0,-2.13332 -11.154091,-7.93432 -12.172309,-6.33055 -1.273974,2.00661 -1.097233,2.20595 4.422309,4.98777 6.0434,3.04585 7.75,3.34154 7.75,1.34278 z m 68.47785,-1.28343 c 5.79607,-2.84266 5.97317,-3.03306 4.69446,-5.04712 C 135.15409,151.64079 124,157.44179 124,159.57511 c 0,2.00536 1.1878,1.8015 7.47785,-1.28343 z m -82.0613,-5.93481 c 0.34679,-0.90372 0.507435,-1.72002 0.356989,-1.814 -0.150447,-0.094 -2.430711,-1.89989 -5.067255,-4.01315 -3.801344,-3.04688 -5.043435,-3.58442 -6,-2.59662 -0.9503,0.98132 -0.151051,2.18164 3.766334,5.65628 5.540444,4.91427 6.043239,5.11466 6.943932,2.76749 z M 144.5,149.55915 c 3.93048,-3.4586 4.74197,-4.6641 3.79372,-5.63572 -0.95297,-0.97644 -2.21295,-0.42913 -6,2.60629 -2.63655,2.11326 -4.91681,3.91918 -5.06726,4.01315 -0.50795,0.3173 0.98188,3.45731 1.63053,3.43656 0.35365,-0.0113 2.89301,-2.00044 5.64301,-4.42028 z M 34.756731,136.52946 c -2.398187,-3.09947 -4.672432,-5.1153 -5.439116,-4.8211 -2.157694,0.82799 -1.530085,2.52868 2.795585,7.57549 3.183883,3.71468 4.39807,4.53672 5.43266,3.67809 1.073676,-0.89107 0.532134,-2.14001 -2.789129,-6.43248 z M 159,133.38437 c 0,-3.11401 -2.97808,-1.73852 -6.72742,3.1072 -3.12074,4.03331 -3.81686,5.57048 -2.93238,6.47528 0.88879,0.90921 2.15288,0.065 5.4098,-3.61282 2.3375,-2.6396 4.25,-5.32594 4.25,-5.96966 z M 26.324845,123.69226 c -3.040204,-6.01254 -3.134123,-6.09919 -5.195526,-4.79335 -1.104156,0.69946 -0.731715,2.06712 1.915388,7.03359 2.82713,5.30424 3.482916,5.96845 4.695526,4.75584 1.21261,-1.21261 1.014935,-2.1897 -1.415388,-6.99608 z m 138.049645,1.37846 c 2.33077,-4.29652 2.6145,-5.46349 1.5,-6.16945 -0.75597,-0.47885 -1.59949,-0.8655 -1.87449,-0.85921 -1.04596,0.0239 -6.04241,11.0803 -5.44447,12.04778 1.14827,1.85795 2.91496,0.3341 5.81896,-5.01912 z M 22,115.7309 c 0,-0.58031 -0.75718,-3.45717 -1.682622,-6.39301 C 19.09583,105.4627 18.136755,104 16.817378,104 c -2.218976,0 -2.235044,-0.56292 0.209878,7.35282 1.515715,4.90732 2.398876,6.42089 3.5,5.99835 C 21.337265,117.04034 22,116.31122 22,115.7309 Z m 147.95982,-4.33624 C 172.42093,103.42651 172.40554,104 170.15833,104 c -2.60968,0 -6.2685,11.68482 -4.09041,13.06314 0.78764,0.49843 1.5265,0.91313 1.6419,0.92155 0.1154,0.008 1.1279,-2.95709 2.25,-6.59003 z M 18,100.03258 C 18,99.06819 17.713834,96.191335 17.364076,93.639571 16.884402,90.139967 16.30032,89 14.986913,89 c -1.471782,0 -1.67378,0.735063 -1.305321,4.75 0.714725,7.78805 1.190626,9.23626 2.828601,8.60771 C 17.329587,102.04328 18,100.99697 18,100.03258 Z M 172.98469,94.75 c 0.0114,-4.272729 -0.34484,-5.75 -1.3865,-5.75 -2.01283,0 -3.36747,11.90652 -1.48688,13.06879 2.01655,1.2463 2.85626,-0.89255 2.87338,-7.31879 z M 17.514111,80.878421 c 0.540674,-4.65848 0.38832,-6.320688 -0.637443,-6.954645 C 15.022932,72.778105 14.326213,74.431077 13.788704,81.25 13.397438,86.213672 13.572596,87 15.06954,87 c 1.379224,0 1.879479,-1.252717 2.444571,-6.121579 z M 173.21747,82.25 c -0.46345,-7.413602 -1.0463,-9.252914 -2.72766,-8.607715 C 167.82894,74.663357 169.12029,87 171.88805,87 c 1.31523,0 1.56956,-0.908698 1.32942,-4.75 z M 20.317378,66.662108 c 2.056597,-6.524277 2.076832,-7.296858 0.209878,-8.013275 -1.101124,-0.422541 -1.984285,1.091031 -3.5,5.998346 C 14.582334,72.562916 14.598402,72 16.817378,72 c 1.319377,0 2.278452,-1.462697 3.5,-5.337892 z M 172,71.605335 c 0,-0.217066 -0.91227,-3.348236 -2.02726,-6.958156 -1.51571,-4.907315 -2.39887,-6.420887 -3.5,-5.998346 -1.84294,0.707202 -1.83567,1.294905 0.0982,7.94726 C 167.77102,70.724159 168.59736,72 170.07096,72 171.13193,72 172,71.822401 172,71.605335 Z M 26.319906,52.31709 c 1.846984,-3.653011 2.48083,-5.916354 1.837132,-6.560052 -1.490483,-1.490483 -2.939585,-0.119673 -5.76258,5.451238 -2.056433,4.058175 -2.301467,5.235374 -1.230984,5.913918 2.022422,1.281948 2.128995,1.182636 5.156432,-4.805104 z m 139.516624,4.805104 c 1.07048,-0.678544 0.82544,-1.855743 -1.23099,-5.913918 -2.81719,-5.559457 -4.27228,-6.941537 -5.75119,-5.462622 -0.62852,0.62852 0.005,2.962655 1.79545,6.612868 2.92121,5.956237 3.07805,6.10029 5.18673,4.763672 z M 35.280151,38.855953 c 3.02938,-3.822873 3.437261,-4.845591 2.306722,-5.783855 -1.088706,-0.903545 -2.223304,-0.148197 -5.473673,3.644047 -2.255158,2.63112 -4.103193,5.308855 -4.106744,5.950522 -0.0074,1.332917 2.216283,2.39839 3.043566,1.458333 0.302513,-0.34375 2.206071,-2.714821 4.230129,-5.269047 z m 123.713389,3.787058 c -0.004,-0.628656 -1.85158,-3.295746 -4.10674,-5.926866 -3.2464,-3.787613 -4.38577,-4.546924 -5.47115,-3.646138 -1.12522,0.933844 -0.62883,2.087823 2.7701,6.439784 3.78965,4.852245 6.8254,6.249417 6.80779,3.13322 z M 44.897008,29.313998 c 2.531646,-2.027302 4.726084,-3.762894 4.876531,-3.856872 0.507949,-0.317298 -0.981876,-3.457306 -1.630528,-3.436559 -1.753375,0.05608 -10.402708,8.750217 -9.752218,9.802732 1.052344,1.702729 1.426567,1.5584 6.506215,-2.509301 z m 103.831372,2.00085 c 0.19437,-0.583083 -1.95458,-2.992491 -4.77543,-5.354239 -4.10017,-3.432858 -5.30867,-4.009944 -6.02557,-2.877348 -1.29479,2.045571 -1.28349,2.063455 3.86871,6.123687 4.66102,3.67315 6.24954,4.156169 6.93229,2.1079 z M 57.75,20.727424 C 62.399815,18.281961 64.812346,15 61.960162,15 c -1.169892,0 -8.82226,3.731896 -10.650721,5.194128 -1.170114,0.935748 -0.661761,4.175055 0.563766,3.592407 C 52.217943,23.622638 54.8625,22.246038 57.75,20.727424 Z m 78.58357,1.845689 c 0.64422,-1.678798 -0.37007,-2.593794 -6.04373,-5.452098 C 125.33985,14.627285 124,14.481478 124,16.436531 c 0,0.790092 2.3625,2.765049 5.25,4.388793 6.28422,3.533837 6.38834,3.559529 7.08357,1.747789 z M 72.145913,14.902749 c 5.306342,-1.511077 6.004927,-2.04065 4.947954,-3.750869 -0.676584,-1.094736 -1.913478,-1.025387 -6.958359,0.390135 -5.632795,1.580482 -7.247601,3.012559 -5.437742,4.822417 0.383771,0.383771 1.236932,0.490869 1.895912,0.237994 0.658981,-0.252875 3.157487,-1.01773 5.552235,-1.699677 z m 50.649577,-0.09108 c 0.36354,-1.873244 -11.98362,-5.7472755 -12.58334,-3.948134 -0.71389,2.141694 -0.2527,2.531853 4.98173,4.214401 6.01234,1.932597 7.18283,1.891597 7.60161,-0.266267 z M 89.125,12 C 92.333333,12 93,11.655914 93,10 93,7.7825415 91.480844,7.561158 83.639571,8.635924 79.888299,9.150093 79,9.6526793 79,11.260924 79,12.955356 79.46291,13.157418 82.125,12.625 83.84375,12.28125 86.99375,12 89.125,12 Z M 108,11.135924 c 0,-1.4595394 -1.00687,-2.0020825 -4.63957,-2.5 C 95.595572,7.5716319 93.813143,7.7880619 94.185357,9.75 c 0.243936,1.285786 1.65603,1.907275 5.323324,2.342896 C 108.0099,13.102718 108,13.103834 108,11.135924 Z"
     id="path10646"
     inkscape:connector-curvature="0" />
</svg>
