<?xml version="1.0" encoding="UTF-8" standalone="no"?>
<!-- Created with Inkscape (http://www.inkscape.org/) -->

<svg
   xmlns:dc="http://purl.org/dc/elements/1.1/"
   xmlns:cc="http://creativecommons.org/ns#"
   xmlns:rdf="http://www.w3.org/1999/02/22-rdf-syntax-ns#"
   xmlns:svg="http://www.w3.org/2000/svg"
   xmlns="http://www.w3.org/2000/svg"
   xmlns:sodipodi="http://sodipodi.sourceforge.net/DTD/sodipodi-0.dtd"
   xmlns:inkscape="http://www.inkscape.org/namespaces/inkscape"
   version="1.1"
   id="svg4267"
   width="88"
   height="97.919998"
   viewBox="0 0 88 97.919998"
   sodipodi:docname="4444.svg"
   inkscape:version="0.92.3 (2405546, 2018-03-11)">
  <metadata
     id="metadata4273">
    <rdf:RDF>
      <cc:Work
         rdf:about="">
        <dc:format>image/svg+xml</dc:format>
        <dc:type
           rdf:resource="http://purl.org/dc/dcmitype/StillImage" />
        <dc:title></dc:title>
      </cc:Work>
    </rdf:RDF>
  </metadata>
  <defs
     id="defs4271" />
  <sodipodi:namedview
     pagecolor="#ffffff"
     bordercolor="#666666"
     borderopacity="1"
     objecttolerance="10"
     gridtolerance="10"
     guidetolerance="10"
     inkscape:pageopacity="0"
     inkscape:pageshadow="2"
     inkscape:window-width="1366"
     inkscape:window-height="705"
     id="namedview4269"
     showgrid="false"
     inkscape:zoom="9.640523"
     inkscape:cx="47.955324"
     inkscape:cy="44.373202"
     inkscape:window-x="-8"
     inkscape:window-y="-8"
     inkscape:window-maximized="1"
     inkscape:current-layer="svg4267" />
  <g
     id="g4820"
     transform="translate(-0.41491838,-3.7342372)">
    <path
       style="fill:#a6c4c6;stroke-width:0.31999999"
       d="M 2.8379436,95.822884 C 1.5868981,95.16388 1.519483,94.570536 2.4470476,92.382472 3.2027773,90.599758 3.3150992,89.803483 3.5617648,84.479998 4.0395939,74.167595 4.753297,70.758479 7.7396064,64.523874 9.560015,60.723352 9.728977,60.18356 9.9432166,57.483874 10.324589,52.678105 11.431288,46.728601 14.081578,35.236428 c 1.153001,-4.999633 3.267447,-8.389214 6.371656,-10.214137 1.273058,-0.748413 1.804851,-0.859985 4.026766,-0.844826 3.141364,0.02143 4.788913,0.694147 7.325098,2.990927 0.982108,0.8894 2.183731,1.704385 2.670275,1.811077 0.486544,0.106692 1.100627,0.282332 1.364627,0.390312 0.264,0.107979 2.745766,0.275952 5.515037,0.373272 l 5.03504,0.176946 0.392035,-0.96 c 0.597117,-1.462186 2.871664,-5.425986 3.182845,-5.546666 C 50.11623,23.354666 50.24,23.135476 50.24,22.926243 50.24,22.375161 52.134691,20.16 52.606048,20.16 c 0.219702,0 1.045696,-0.619208 1.835546,-1.376017 1.671404,-1.601488 6.18648,-4.01429 9.398406,-5.022397 3.032384,-0.951755 8.442298,-1.202476 11.570317,-0.536222 4.527216,0.964275 10.096416,4.274969 11.554048,6.868473 0.760976,1.353975 0.93047,3.226814 0.384377,4.2472 -0.463872,0.866753 -0.705785,0.795974 -2.44928,-0.716615 L 83.36,22.288845 83.257184,23.384422 c -0.160144,1.706485 -0.579907,1.773001 -1.274829,0.202013 -0.927782,-2.09741 -2.881683,-3.171713 -6.108307,-3.358499 -2.113174,-0.12233 -2.843187,-0.0064 -5.440019,0.863575 -3.974179,1.331472 -6.735043,2.917418 -8.504189,4.885136 -1.125779,1.252137 -1.44984,1.858402 -1.44984,2.712413 0,1.147266 -1.982966,4.43596 -4.531491,7.515349 -0.67568,0.816425 -1.228509,1.633974 -1.228509,1.816774 0,0.599648 1.612867,1.617143 3.375738,2.129623 1.676096,0.487254 1.751596,0.481859 2.405385,-0.17193 2.312887,-2.312886 7.224295,-2.037427 9.641901,0.540771 3.22209,3.436119 1.931939,9.68104 -2.279955,11.036029 -1.47761,0.475353 -1.943069,0.861238 -1.943069,1.610883 0,0.575283 -0.04332,0.579811 -0.800467,0.08371 C 64.679277,52.961801 64.20369,52.280524 64.062672,51.736319 63.820678,50.802437 63.65049,50.708937 61.032803,50.071772 58.377661,49.425487 56.96,48.650802 56.96,47.846185 c 0,-0.771367 -1.504714,-1.76537 -2.978112,-1.967322 C 52.516544,45.678018 52.48,45.693781 52.48,46.52678 c 0,1.273008 -0.706189,2.734061 -2.540355,5.255811 -0.906109,1.245789 -1.877619,2.956345 -2.158909,3.801238 -0.281293,0.844893 -0.633853,1.693504 -0.783469,1.885802 -0.149616,0.192297 -0.856294,1.905113 -1.570397,3.806259 l -1.298368,3.456627 1.294804,4.445194 c 1.777737,6.103142 3.205606,9.830665 5.932323,15.486604 2.526966,5.24161 3.739677,6.683946 5.91599,7.036186 2.523888,0.408496 2.888381,0.529225 2.888381,0.956707 0,0.686169 -1.857069,1.491702 -4.16,1.80447 -1.144,0.15537 -2.609021,0.36313 -3.255603,0.46169 -1.051895,0.160342 -1.224701,0.08331 -1.642163,-0.732084 -0.256605,-0.501209 -0.569085,-1.528284 -0.694397,-2.28239 -0.275802,-1.659702 -1.454522,-3.149229 -2.710391,-3.425065 -1.036688,-0.227693 -5.434035,-3.962224 -6.760995,-5.741901 -0.848339,-1.137766 -0.866422,-1.144509 -1.054931,-0.39343 -0.105488,0.420297 -0.146608,2.005279 -0.09138,3.522179 0.115597,3.174806 0.337174,3.549913 2.770093,4.68943 1.316784,0.616749 1.656208,0.952029 1.918054,1.894624 0.530528,1.909814 0.340621,3.865267 -0.375382,3.865267 -0.406813,0 -1.222906,-0.826832 -1.222906,-1.238998 0,-0.465357 -1.313923,-1.321002 -2.028525,-1.321002 -0.436736,0 -0.561936,0.168954 -0.448019,0.604576 0.08696,0.332518 0.02902,0.800518 -0.128758,1.04 -0.231146,0.350858 -0.381581,0.311123 -0.774554,-0.204576 -0.26823,-0.352 -0.613494,-0.64 -0.767251,-0.64 -0.153757,0 -0.399559,-0.131088 -0.546227,-0.291306 -0.154932,-0.169244 -0.09906,-0.194851 0.133334,-0.06111 0.753107,0.433392 0.399958,-0.216055 -0.861837,-1.584941 -2.097785,-2.27583 -3.329446,-5.180531 -3.995421,-9.42264 -0.261062,-1.662921 -0.263958,-8.170937 -0.006,-13.439999 l 0.227178,-4.64 -1.206438,-0.857424 c -1.658575,-1.178762 -4.693659,-5.293491 -6.399469,-8.675911 l -1.418811,-2.813334 -1.687469,3.293334 c -2.780719,5.426967 -3.153296,6.339799 -4.103627,10.054071 -1.16982,4.572131 -2.041215,6.684473 -4.576716,11.094399 -1.133621,1.971677 -2.683196,5.024864 -3.4435,6.784864 -0.760304,1.76 -1.7102039,3.685277 -2.1108887,4.278394 -0.7355706,1.088832 -1.5260583,3.422061 -1.8571447,5.481606 -0.099026,0.616 -0.3700166,1.370131 -0.6022003,1.675846 -0.5586934,0.735629 -2.3873587,0.941392 -3.4397287,0.38704 z M 46.24,56.959999 c -0.879709,-0.378023 -1.38495,-0.378023 -0.8,0 0.264,0.170611 0.696,0.302285 0.96,0.292608 0.316499,-0.01158 0.261997,-0.111271 -0.16,-0.292608 z m -5.409443,-1.969443 c 0.139981,-0.226493 0.08794,-0.282676 -0.134499,-0.1452 -0.199559,0.123331 -0.689808,0.06564 -1.089444,-0.128212 -0.696489,-0.33784 -0.70086,-0.331817 -0.105452,0.1452 0.741532,0.59409 1.024595,0.621389 1.329395,0.128212 z M 58.410192,45.762508 C 58.626906,45.048719 58.597094,45.010847 58.12616,45.401692 57.836771,45.641861 57.6,46.137532 57.6,46.50318 c 0,0.81168 0.469082,0.382845 0.810192,-0.740672 z M 52.64,31.999999 c -0.108774,-0.176 -0.34177,-0.32 -0.51777,-0.32 -0.176,0 -0.231004,0.144 -0.12223,0.32 0.108774,0.176 0.34177,0.32 0.51777,0.32 0.176,0 0.231004,-0.144 0.12223,-0.32 z m 5.6,-6.184219 c 0,-0.05732 -0.384435,-0.453321 -0.854304,-0.88 L 56.531392,24.16 57.145696,25.029943 C 57.667408,25.768762 58.24,26.17995 58.24,25.81578 Z m -1.92,-1.936598 c 0,-0.06645 -0.252,-0.31845 -0.56,-0.56 C 55.252461,22.921143 55.241142,22.932462 55.639181,23.44 56.057219,23.973039 56.32,24.142553 56.32,23.879182 Z M 54.11648,21.253697 C 53.744416,20.780693 53.44,20.494022 53.44,20.61665 c 0,0.317011 1.096275,1.74344 1.23648,1.608861 0.06407,-0.06149 -0.187933,-0.498811 -0.56,-0.971814 z"
       id="path4834"
       inkscape:connector-curvature="0" />
    <path
       style="fill:#dda08b;stroke-width:0.31999999"
       d="M 2.64,95.512993 C 1.8026865,94.920728 1.7112645,93.811867 2.3913229,92.496779 3.1532701,91.023336 3.4702278,89.062257 3.6611702,84.639998 4.0766685,75.016987 5.0599859,70.180984 7.651015,65.017759 9.4791542,61.374767 10.24,58.879906 10.24,56.528316 c 0,-0.867469 0.288959,-3.270832 0.642131,-5.340807 0.723858,-4.242601 3.336683,-16.517919 3.87976,-18.22751 0.712773,-2.243788 2.643564,-5.497513 3.900945,-6.573784 C 20.071097,25.180795 22.859751,24 24.298297,24 c 1.839291,0 5.069973,1.267713 6.744515,2.646536 0.904059,0.744405 2.037466,1.644376 2.518682,1.999937 l 0.874938,0.646473 -0.708179,0.754784 c -0.797248,0.849714 -1.107411,1.894572 -2.038024,6.865559 -1.363712,7.284451 -0.80543,9.38896 2.822065,10.638083 2.615664,0.900701 2.78858,1.090637 2.138087,2.348553 -0.325517,0.629479 -0.487389,1.575984 -0.427232,2.498138 l 0.09685,1.484669 3.2,1.240755 c 1.76,0.682413 4.1,1.5256 5.2,1.87375 1.1,0.348151 2,0.691354 2,0.762679 0,0.07132 -0.590557,1.658595 -1.312349,3.527273 -1.51776,3.929386 -1.570662,3.256928 0.864087,10.98393 2.492364,7.909862 6.265273,15.910796 8.561328,18.155394 1.114268,1.0893 1.616256,1.339655 3.019324,1.505828 1.965626,0.2328 2.340173,0.410457 2.113066,1.002284 -0.239098,0.623079 -2.894496,1.562602 -3.784845,1.339139 -0.414368,-0.104 -1.368531,0.02794 -2.120361,0.2932 -2.243021,0.791386 -2.991888,0.27362 -3.503111,-2.422054 -0.378944,-1.998157 -1.213315,-3.026131 -3.131693,-3.858345 -0.817388,-0.354596 -2.599398,-1.80729 -4.396297,-3.583869 l -3.021747,-2.987568 -0.206852,1.102611 c -0.325148,1.73319 0.08644,5.846394 0.640461,6.400413 0.265751,0.26575 1.171159,0.856381 2.012016,1.312515 1.332855,0.723021 1.584752,1.028045 1.965024,2.379498 0.447866,1.591663 0.30937,3.089833 -0.285635,3.089833 -0.184467,0 -0.810726,-0.504 -1.39169,-1.12 C 41.491514,93.555444 40.32,93.374772 40.32,94.506664 c 0,1.245894 -0.388512,1.237769 -1.25512,-0.02624 -0.453683,-0.661735 -1.299507,-1.706538 -1.87961,-2.321786 -1.510441,-1.601965 -2.870262,-4.559097 -3.457398,-7.518637 -0.419267,-2.113369 -0.47681,-4.067379 -0.329818,-11.199999 l 0.178058,-8.64 -1.01657,-0.64 c -1.476865,-0.929792 -4.501114,-4.990547 -6.237072,-8.374717 -0.827972,-1.614093 -1.621523,-2.86295 -1.763446,-2.775238 -0.296294,0.18312 -3.216932,5.8392 -4.324113,8.374038 -0.409375,0.937245 -1.166471,3.375616 -1.682434,5.418605 -0.930953,3.686169 -1.181979,4.254915 -5.966091,13.517312 -1.045415,2.024 -2.227153,4.399999 -2.6260842,5.279999 -0.3989319,0.88 -1.1687501,2.464 -1.7107079,3.52 -0.5419574,1.056 -1.0987446,2.601447 -1.2373049,3.434327 C 6.5818864,95.141457 6.0999155,95.826827 4.6376102,95.931144 3.8533504,95.987086 3.0819713,95.82562 2.64,95.512993 Z M 64.874528,52.879999 c -0.277565,-0.308 -0.596278,-0.927245 -0.70825,-1.376096 -0.181465,-0.727443 -0.486291,-0.875533 -2.805993,-1.363206 -2.737104,-0.575428 -3.988691,-1.17993 -4.305168,-2.079344 -0.429581,-1.220861 -1.487571,-1.974228 -3.066682,-2.183706 l -1.587779,-0.210624 0.15159,-2.118669 c 0.152752,-2.134908 1.215434,-5.148355 1.815549,-5.148355 0.17808,0 0.82144,0.337719 1.429687,0.750487 0.608249,0.412768 1.761369,0.934006 2.562492,1.158307 1.389524,0.389043 1.502,0.369609 2.442858,-0.422071 3.000982,-2.525161 8.091072,-1.541113 10.147507,1.961783 0.710317,1.209945 0.884695,1.894544 0.874045,3.431494 -0.02144,3.095606 -1.450272,5.273606 -4.096378,6.24423 -0.75638,0.27745 -1.463974,0.794602 -1.643888,1.20145 -0.380732,0.86097 -0.552963,0.882944 -1.20959,0.15432 z M 58.410192,45.762508 C 58.626906,45.048719 58.597094,45.010847 58.12616,45.401692 57.836771,45.641861 57.6,46.137532 57.6,46.50318 c 0,0.81168 0.469082,0.382845 0.810192,-0.740672 z M 59.84,27.517129 c 0,-0.177578 -1.45551,-1.907182 -3.234467,-3.843563 -3.188058,-3.470177 -3.227159,-3.531852 -2.724909,-4.29838 1.080474,-1.649013 6.825491,-4.786413 10.599376,-5.788404 3.040554,-0.807286 7.87784,-0.960257 10.855619,-0.343291 4.499527,0.932259 9.603981,3.892461 11.448931,6.639525 1.001648,1.491415 1.205735,3.570319 0.451735,4.601478 -0.428087,0.585442 -0.485712,0.573507 -1.635965,-0.338838 C 83.090515,22.154956 83.2,22.185274 83.2,23.480968 c 0,1.505973 -0.467712,1.471245 -1.266253,-0.09402 C 80.82479,21.21321 78.632634,20.165253 75.187232,20.161784 70.541334,20.157107 63.05239,23.724805 61.008576,26.91643 60.420307,27.835071 59.84,28.133375 59.84,27.517129 Z"
       id="path4832"
       inkscape:connector-curvature="0" />
    <path
       style="fill:#d8907a;stroke-width:0.31999999"
       d="M 43.564902,95.259166 C 43.364208,94.76371 43.2,94.22371 43.2,94.059166 c 0,-0.164541 -0.152499,-0.299168 -0.338886,-0.299168 -0.186388,0 -0.236138,0.16625 -0.110557,0.369443 0.145907,0.23608 0.08728,0.282269 -0.162403,0.127955 -0.214903,-0.132816 -0.308839,-0.323379 -0.208746,-0.423472 0.100093,-0.100096 -0.05664,-0.445676 -0.348307,-0.767958 -0.440864,-0.487149 -0.451155,-0.585968 -0.06104,-0.585968 0.566355,0 1.869936,1.16127 1.869936,1.665798 0,0.198477 0.08367,0.2772 0.185926,0.174941 0.49321,-0.493206 -1.31487,-2.607177 -2.003808,-2.342806 -0.25224,0.09679 -0.36815,0.03363 -0.259852,-0.141597 0.107526,-0.173984 -0.118624,-0.316336 -0.502564,-0.316336 -0.599222,0 -0.638793,0.07142 -0.279462,0.504391 0.346922,0.418012 0.339933,0.554169 -0.04082,0.795097 -0.693878,0.439069 -0.901459,0.374451 -1.754704,-0.546214 C 38.753123,91.807569 38.4,91.583073 38.4,91.774385 c 0,0.191312 0.126806,0.426212 0.281792,0.522 0.154986,0.09579 0.351258,0.537543 0.43616,0.981683 0.124403,0.650775 0.07039,0.737828 -0.278269,0.448471 -0.237949,-0.197482 -0.339971,-0.508989 -0.226717,-0.692243 0.113255,-0.183251 0.05597,-0.240509 -0.127305,-0.127239 -0.321907,0.198947 -2.487984,-2.37718 -3.266051,-3.884339 -1.546925,-2.996454 -2.176356,-9.70815 -1.638461,-17.471075 0.207075,-2.988521 0.462278,-5.57247 0.56712,-5.742105 0.104838,-0.169632 0.02435,-0.205677 -0.178826,-0.0801 -0.226217,0.139808 -0.374221,0.0039 -0.381769,-0.350557 -0.0068,-0.318387 -0.46961,-0.866886 -1.028512,-1.218886 -1.476707,-0.930039 -4.501063,-4.991187 -6.236692,-8.374717 -0.827972,-1.614093 -1.621523,-2.86295 -1.763446,-2.775238 -0.296294,0.18312 -3.216932,5.8392 -4.324113,8.374038 -0.409375,0.937245 -1.166471,3.375616 -1.682434,5.418605 -0.63836,2.527625 -1.465829,4.743852 -2.589651,6.935916 C 13.438658,78.662107 9.7981072,85.928517 9.44,86.757934 9.264,87.165573 8.76,87.597445 8.32,87.717649 7.8468451,87.84691 7.74324,87.949233 8.0664118,87.968101 c 0.476144,0.02781 0.4247373,0.289094 -0.3997475,2.031897 -0.5203878,1.1 -0.9482393,2.36 -0.9507814,2.8 -0.00253,0.44 -0.092328,1.127354 -0.1995239,1.527456 -0.1651132,0.616269 -0.2500352,0.65495 -0.5556304,0.253088 C 5.762328,94.319643 4.88,93.926385 4,93.706638 3.12,93.486891 2.353382,93.278382 2.2964044,93.243284 2.2394268,93.20819 2.4044314,92.770091 2.6630812,92.269736 3.3266845,90.986001 4.109192,86.549653 3.7767888,85.955681 3.4834832,85.431573 3.9743971,77.893493 4.5085069,74.719998 5.1146829,71.118312 6.081345,68.145691 7.6866643,64.946719 9.4809696,61.371148 10.24,58.86861 10.24,56.528316 c 0,-0.867469 0.288959,-3.270832 0.642131,-5.340807 0.723858,-4.242601 3.336683,-16.517919 3.87976,-18.22751 0.712773,-2.243788 2.643564,-5.497513 3.900945,-6.573784 C 20.071097,25.180795 22.859751,24 24.298297,24 c 1.839291,0 5.069973,1.267713 6.744515,2.646536 0.904059,0.744405 2.037466,1.644376 2.518682,1.999937 l 0.874938,0.646473 -0.708179,0.754784 c -0.797248,0.849714 -1.107411,1.894572 -2.038024,6.865559 -1.363712,7.284451 -0.80543,9.38896 2.822065,10.638083 2.611047,0.89911 2.788029,1.091705 2.145306,2.334592 -0.498928,0.964819 -0.677542,5.32296 -0.18553,4.526867 0.137888,-0.223107 0.436234,-0.09587 0.831488,0.354611 0.339044,0.386413 0.472442,0.619568 0.296442,0.518122 -0.186138,-0.107293 -0.311789,0.237814 -0.300368,0.824992 0.01078,0.555193 -0.113312,1.187609 -0.275798,1.405369 -0.16249,0.217757 -0.211844,0.613757 -0.109677,0.88 0.102166,0.26624 0.06919,0.484074 -0.07328,0.484074 -0.452646,0 -0.980413,3.232505 -1.175536,7.2 -0.103869,2.112 -0.33183,5.496 -0.506579,7.519999 -0.670906,7.770631 -0.688464,9.341213 -0.128797,11.52 0.293859,1.144 0.899136,2.613101 1.345059,3.264672 0.445923,0.651568 0.831965,1.537751 0.857869,1.969293 0.02592,0.431542 0.142806,0.725542 0.259773,0.653334 0.116966,-0.07221 0.280445,0.04961 0.36328,0.270708 0.105177,0.280729 0.306717,0.208934 0.668115,-0.238007 0.425632,-0.526377 0.482637,-0.539936 0.321091,-0.07637 -0.153824,0.441418 -0.07256,0.516102 0.374771,0.344445 0.442976,-0.169987 0.525056,-0.09897 0.365671,0.316371 -0.2792,0.727584 0.318361,0.680659 0.781776,-0.06139 0.238944,-0.382608 0.602576,-0.536854 1.012752,-0.429593 0.376803,0.09854 0.559373,0.03697 0.44399,-0.149722 -0.107779,-0.17439 0.01142,-0.317075 0.26488,-0.317075 0.351645,0 0.375498,0.102838 0.100663,0.433993 -0.279005,0.336183 -0.255136,0.393684 0.10591,0.255136 0.256352,-0.09837 0.85272,0.179456 1.325264,0.617396 0.882701,0.81806 1.03992,1.782374 0.552173,3.386809 l -0.243197,0.8 z m -2.781795,-3.126499 c -0.10303,-0.16671 -0.323728,-0.21881 -0.490438,-0.115776 -0.166711,0.10303 -0.21881,0.323728 -0.115776,0.490438 0.10303,0.166711 0.323728,0.21881 0.490438,0.115776 0.166711,-0.10303 0.21881,-0.323728 0.115776,-0.490438 z M 6.6333334,87.486664 C 6.527,87.380331 6.251,87.368965 6.02,87.461416 c -0.2552746,0.10215 -0.1794483,0.177977 0.1933334,0.193331 0.3373332,0.01389 0.5263332,-0.06174 0.42,-0.16807 z M 34.460586,62.799999 c -0.08049,-0.308 -0.146346,-0.056 -0.146346,0.56 0,0.616 0.06586,0.868 0.146346,0.56 0.08049,-0.308 0.08049,-0.812 0,-1.12 z m 0.318009,-2.38 c -0.10215,-0.255274 -0.177977,-0.17945 -0.193331,0.193334 -0.01389,0.337331 0.06173,0.526333 0.16807,0.42 0.106333,-0.106336 0.1177,-0.382336 0.02525,-0.613334 z m 0.67761,-2.82 v -0.8 l -0.256205,0.8 c -0.140912,0.44 -0.256205,1.16 -0.256205,1.6 v 0.8 l 0.256205,-0.8 c 0.140912,-0.44 0.256205,-1.16 0.256205,-1.6 z m 0.676403,-2.4 c 0.0097,-0.176 -0.121997,-0.104 -0.292608,0.16 -0.170611,0.264 -0.302285,0.696 -0.292608,0.96 0.01856,0.506832 0.551894,-0.51385 0.585216,-1.12 z m 15.281405,38.92677 c -0.255773,-0.289725 -0.564487,-1.271248 -0.686032,-2.181161 -0.133632,-1.000394 -0.463066,-1.873466 -0.833357,-2.208576 -0.494774,-0.447763 -0.538733,-0.652387 -0.228928,-1.065607 0.310938,-0.414723 0.304435,-0.441609 -0.03438,-0.142179 -1.088384,0.961872 -5.911123,-2.400185 -8.953888,-6.241987 l -0.964979,-1.218387 1.085053,-5.034163 c 0.596781,-2.76879 1.548522,-6.501286 2.114982,-8.294435 1.02297,-3.238247 1.032071,-3.252707 1.347098,-2.140275 2.31687,8.181436 4.194669,13.373436 6.689062,18.494854 1.248061,2.562483 1.272144,2.671651 0.692202,3.137654 -0.571885,0.459523 -0.567856,0.466896 0.08356,0.152934 0.599831,-0.289097 0.737123,-0.202592 1.110989,0.7 0.616013,1.487184 2.404314,3.346381 3.585718,3.727866 0.560391,0.180957 1.55889,0.362419 2.21889,0.403254 0.712694,0.0441 1.2,0.238036 1.2,0.477581 0,0.662966 -1.279536,1.147782 -3.831459,1.451744 -1.324698,0.157786 -2.795754,0.336554 -3.269015,0.397267 -0.513628,0.06589 -1.047929,-0.101949 -1.325513,-0.416384 z M 39.665331,90.53259 C 39.46888,90.165518 39.391814,89.781518 39.494074,89.679259 39.596333,89.577 39.68,89.669819 39.68,89.88555 c 0,0.215722 0.113142,0.322291 0.251427,0.236829 0.138288,-0.08547 0.251431,0.122035 0.251431,0.461114 0,0.781225 -0.0762,0.773731 -0.517527,-0.0509 z m -1.73639,-0.627056 c 0.197005,-0.318761 -0.790973,-2.225536 -1.153139,-2.225536 -0.300653,0 -0.130458,-5.072009 0.18063,-5.3831 0.08996,-0.08996 0.163568,0.789657 0.163568,1.95471 0,2.634096 0.823754,4.708137 1.663754,4.188989 0.139872,-0.08644 0.119939,0.196249 -0.04429,0.628211 -0.16423,0.431961 -0.235795,0.848189 -0.159033,0.924953 0.07676,0.07676 -0.0701,0.139572 -0.326352,0.139572 -0.256259,0 -0.40257,-0.102512 -0.325136,-0.227799 z m -2.849408,-5.917907 c -0.308794,-0.804701 -0.217699,-1.012336 0.159529,-0.363629 0.186781,0.3212 0.272192,0.651411 0.189802,0.733802 -0.08239,0.08239 -0.23959,-0.08419 -0.349331,-0.370173 z m 3.599648,-0.707629 C 38.281142,82.772459 38.292461,82.761141 38.8,83.159179 c 0.308,0.241552 0.56,0.493552 0.56,0.56 0,0.263373 -0.262781,0.09386 -0.680819,-0.439181 z m 0.520819,-0.72 c 0.108774,-0.176 0.261274,-0.32 0.338886,-0.32 0.07761,0 0.141114,0.144 0.141114,0.32 0,0.176 -0.152499,0.32 -0.338886,0.32 -0.186388,0 -0.249888,-0.144 -0.141114,-0.32 z m -4.164134,-2.395865 c 0.0521,-1.166765 0.169481,-2.196147 0.260851,-2.28752 0.09137,-0.09137 0.135408,0.776595 0.09786,1.928809 -0.03755,1.152215 -0.154931,2.181597 -0.260851,2.287517 -0.10592,0.10592 -0.149955,-0.762045 -0.09786,-1.928806 z m 0.878374,0.795865 c 0,-0.616 0.06586,-0.868 0.146346,-0.56 0.08049,0.308 0.08049,0.812 0,1.12 -0.08049,0.308 -0.146346,0.056 -0.146346,-0.56 z M 36.72,80.45589 c -0.357773,-0.361588 -0.29015,-3.587127 0.08,-3.815892 0.176,-0.108774 0.32,-0.549273 0.32,-0.978886 0,-0.429613 -0.144,-0.781114 -0.32,-0.781114 -0.176,0 -0.32,-0.288 -0.32,-0.64 0,-0.352 0.144,-0.64 0.32,-0.64 0.176,0 0.32,0.288 0.32,0.64 0,0.352 0.144,0.64 0.32,0.64 0.176,0 0.32,-0.288 0.32,-0.64 0,-0.426665 0.213334,-0.64 0.64,-0.64 0.426666,0 0.64,0.213335 0.64,0.64 0,0.352 -0.134685,0.64 -0.299302,0.64 -0.164618,0 -0.285424,0.612 -0.268464,1.36 0.0578,2.548922 -0.0718,4.187098 -0.312234,3.946666 -0.28359,-0.283587 -0.307651,-0.425658 -0.36,-2.125552 -0.02432,-0.790022 -0.167411,-1.220141 -0.365219,-1.097888 -0.178871,0.110547 -0.271338,0.299046 -0.205482,0.418886 0.219002,0.398516 -0.265152,3.320532 -0.509299,3.07378 z m 2.48,-0.775892 c 0.108774,-0.176 0.261274,-0.32 0.338886,-0.32 0.07761,0 0.141114,0.144 0.141114,0.32 0,0.176 -0.152499,0.32 -0.338886,0.32 -0.186388,0 -0.249888,-0.144 -0.141114,-0.32 z m 0.164899,-0.861113 c 0.0027,-0.142387 0.14449,-0.474887 0.315101,-0.738887 0.267328,-0.41366 0.310877,-0.405212 0.315101,0.06111 0.0026,0.297613 -0.139101,0.630112 -0.315101,0.738886 -0.176,0.108775 -0.317795,0.08127 -0.315101,-0.06111 z m -3.794374,-2.658887 c 0,-0.44 0.07263,-0.62 0.161405,-0.4 0.08877,0.22 0.08877,0.58 0,0.8 -0.08877,0.22 -0.161405,0.04 -0.161405,-0.4 z m 4.454739,0.133335 c 0.01536,-0.372784 0.09118,-0.448608 0.193331,-0.193335 0.09244,0.230999 0.08107,0.506999 -0.02525,0.613335 -0.106336,0.106333 -0.181965,-0.08267 -0.16807,-0.42 z m 0.345261,-1.413335 c 0,-0.44 0.07263,-0.62 0.161405,-0.4 0.08877,0.22 0.08877,0.58 0,0.8 -0.08877,0.22 -0.161405,0.04 -0.161405,-0.4 z m 0.482809,-2.453334 C 40.736,72.309333 40.64,72.064533 40.64,71.882664 c 0,-0.200512 0.149046,-0.181619 0.378666,0.048 0.208268,0.208269 0.304268,0.453069 0.213334,0.544 -0.09093,0.09094 -0.261334,0.06933 -0.378666,-0.048 z m -3.966179,-2.026665 c 0,-0.792 0.06241,-1.116 0.138679,-0.72 0.07627,0.396 0.07627,1.044 0,1.44 -0.07627,0.396 -0.138679,0.072 -0.138679,-0.72 z m 0.96,0 c 0,-0.792 0.06241,-1.116 0.138679,-0.72 0.07628,0.396 0.07628,1.044 0,1.44 -0.07627,0.396 -0.138679,0.072 -0.138679,-0.72 z m 1.352845,0.96 c -0.108774,-0.176 0.107226,-0.32 0.48,-0.32 0.372774,0 0.588774,0.144 0.48,0.32 -0.108774,0.176 -0.324774,0.32 -0.48,0.32 -0.155226,0 -0.371226,-0.144 -0.48,-0.32 z m 2.254058,-1.763879 c 0.01818,-0.414969 0.185804,-0.943856 0.372534,-1.175305 0.530122,-0.657085 0.816349,-2.411786 0.432144,-2.649239 C 42.072432,65.656434 41.92,65.418229 41.92,65.242229 c 0,-0.176 0.144,-0.231005 0.32,-0.12223 0.390442,0.241305 0.40929,-0.163616 0.0351,-0.754164 -0.218819,-0.345344 -0.326282,-0.351353 -0.525271,-0.02938 -0.341718,0.552912 -0.417814,3.183546 -0.09209,3.183546 0.456512,0 0.283232,0.563478 -0.234362,0.762099 -0.296256,0.113683 -0.414246,0.05729 -0.292451,-0.139782 0.112294,-0.181693 0.03778,-0.530839 -0.165584,-0.775879 -0.266797,-0.321468 -0.274787,-0.622979 -0.0287,-1.082803 0.187581,-0.350499 0.261293,-0.845136 0.163802,-1.099193 -0.09749,-0.254058 0.04017,-0.679344 0.30591,-0.945085 0.265741,-0.265741 0.394022,-0.572311 0.285069,-0.681261 -0.108951,-0.108953 -0.06609,-0.197184 0.09524,-0.196073 0.161335,9.6e-4 0.538637,0.433113 0.838451,0.959999 0.299815,0.52689 0.412333,0.957978 0.250042,0.957978 -0.162288,0 -0.217978,0.200906 -0.12375,0.446461 0.218236,0.568717 -0.444967,3.073539 -0.813783,3.073539 -0.152739,0 -0.206646,0.271747 -0.119789,0.603885 0.08685,0.332137 0.0331,0.681024 -0.119446,0.775305 -0.152547,0.09428 -0.262499,-0.168099 -0.244333,-0.583068 z M 39.28,69.228069 c 0.22,-0.08877 0.58,-0.08877 0.8,0 0.22,0.08877 0.04,0.161405 -0.4,0.161405 -0.44,0 -0.62,-0.07263 -0.4,-0.161405 z m 3.746842,-4.92936 c -0.11601,-0.187709 -0.142298,-0.40992 -0.05842,-0.493802 0.08388,-0.08388 0.237779,0.0697 0.342,0.34129 0.216377,0.563875 0.03197,0.663059 -0.283584,0.152512 z m -1.404349,-1.632537 c -0.03181,-0.754941 0.311376,-1.546173 0.67063,-1.546173 0.167555,0 0.221802,0.134051 0.120544,0.297888 -0.101261,0.16384 -0.03776,0.388339 0.141114,0.498886 0.41944,0.259229 0.423456,1.123226 0.0052,1.123226 -0.176,0 -0.330122,-0.252 -0.342493,-0.56 -0.01923,-0.478861 -0.06234,-0.467271 -0.297507,0.08 -0.219773,0.511437 -0.279536,0.532765 -0.297507,0.106173 z m 1.907238,0.152713 C 43.524378,62.609272 43.664,62.348773 43.84,62.239999 c 0.176,-0.108775 0.32,-0.41377 0.32,-0.67777 0,-0.285683 -0.151942,-0.386096 -0.375322,-0.248041 -0.206425,0.12758 -0.134425,-0.111962 0.16,-0.532314 0.633095,-0.903872 0.695984,-1.39617 0.135322,-1.059334 -0.271795,0.163289 -0.259235,0.06678 0.03918,-0.301114 0.352224,-0.434221 0.360304,-0.63647 0.04082,-1.021427 -0.219101,-0.264 -0.632733,-0.489127 -0.919181,-0.500285 -0.320697,-0.01248 -0.216387,-0.14176 0.271463,-0.336426 0.59344,-0.2368 0.874531,-0.204582 1.12,0.128372 0.180246,0.24448 0.543718,0.528505 0.807718,0.631161 0.383747,0.149223 0.367706,0.191719 -0.08,0.211914 -0.308,0.01389 -0.56992,0.133264 -0.582048,0.265264 -0.01213,0.132 -0.07406,0.633721 -0.137629,1.114941 -0.06357,0.481216 0.01834,0.957715 0.182048,1.058883 0.163696,0.101171 0.295424,0.355449 0.29273,0.565062 -0.0029,0.235155 -0.136208,0.197283 -0.34776,-0.09889 -0.275415,-0.385581 -0.311795,-0.338282 -0.184944,0.240441 0.08685,0.396244 0.0362,0.645213 -0.112573,0.553271 -0.148768,-0.09195 -0.41896,0.08786 -0.600426,0.399558 -0.181465,0.311703 -0.334316,0.395229 -0.339667,0.185616 z m -7.359929,-0.898886 c 0,-0.176 0.139587,-0.536 0.310198,-0.8 0.170611,-0.264 0.310198,-0.336 0.310198,-0.16 0,0.176 -0.139587,0.536 -0.310198,0.8 -0.170611,0.264 -0.310198,0.336 -0.310198,0.16 z M 42.0412,60.221695 c -0.185536,-0.121933 -0.422202,-0.557072 -0.52592,-0.966973 -0.145667,-0.57567 -0.0787,-0.703114 0.29424,-0.56 0.265552,0.101901 0.687046,0.185277 0.936653,0.185277 0.249603,0 0.453827,0.198368 0.453827,0.440819 0,0.597469 -0.742336,1.174576 -1.1588,0.900877 z m 22.827459,-7.345827 c -0.280793,-0.310275 -0.69183,-1.241981 -0.913414,-2.070461 -0.426867,-1.59601 -0.46729,-1.444355 1.191936,-4.472045 0.602672,-1.099731 0.25808,-1.698934 -1.655303,-2.878377 -0.969798,-0.597802 -1.344937,-1.017088 -1.214384,-1.357303 0.115428,-0.300796 -0.03437,-0.577968 -0.385104,-0.712556 -0.335955,-0.128919 -0.626204,-0.06368 -0.699865,0.157302 -0.146509,0.43952 -1.352525,0.517568 -1.352525,0.08753 0,-0.159524 -0.303434,-0.210692 -0.674298,-0.113709 -1.033049,0.270147 -3.06824,2.431533 -3.305126,3.510064 -0.206291,0.939235 -0.243312,0.955936 -1.555946,0.701843 -0.739548,-0.143155 -1.430716,-0.266557 -1.535932,-0.274221 -0.681124,-0.04962 0.05921,-3.982051 1.14494,-6.081635 0.507117,-0.980656 0.561088,-1.003866 1.132279,-0.486944 0.329881,0.298534 1.506934,0.871264 2.615677,1.27273 l 2.015891,0.729939 1.037056,-0.910547 c 2.992662,-2.627591 8.148038,-1.685226 10.235798,1.871027 1.135107,1.93352 1.213463,4.679132 0.189251,6.631494 -0.857184,1.633974 -1.493603,2.197382 -3.40998,3.018781 -0.930432,0.398803 -1.617143,0.919785 -1.717322,1.302873 -0.205626,0.786317 -0.482902,0.804308 -1.143629,0.07421 z m -2.778483,-3.496983 c -0.01085,-0.748368 0.472138,-1.252912 0.757462,-0.791248 0.09452,0.152941 -0.03495,0.55129 -0.287712,0.88522 -0.444464,0.58718 -0.459907,0.584092 -0.46975,-0.09397 z m -2.245277,-0.178886 c 0.0026,-0.22 0.128695,-0.595373 0.28,-0.834163 0.351571,-0.554851 0.814653,0.08893 0.553501,0.769488 -0.218237,0.56871 -0.840266,0.616976 -0.833501,0.06468 z m -0.578505,-2.08 c 0.182585,-0.22 0.430816,-0.4 0.551628,-0.4 0.12081,0 0.465821,0.18 0.766688,0.4 0.476669,0.34855 0.405719,0.4 -0.551628,0.4 -0.842644,0 -1.021303,-0.09321 -0.766688,-0.4 z m -1.00113,-0.266666 c 0.01536,-0.372784 0.09118,-0.448608 0.193331,-0.193334 0.09244,0.230998 0.08107,0.506998 -0.02525,0.613334 -0.106336,0.106333 -0.181965,-0.08267 -0.16807,-0.42 z m 4.671194,-0.373334 c -0.162247,-0.275552 0.316963,-1.68 0.573232,-1.68 0.09367,0 0.17031,0.432 0.17031,0.96 0,0.886672 -0.411043,1.284701 -0.743542,0.72 z M 60.8,45.778885 c 0,-0.165612 0.137712,-0.386224 0.306026,-0.490249 0.168313,-0.104023 0.219868,-0.436522 0.114566,-0.738887 -0.179136,-0.514377 -0.154829,-0.515315 0.377734,-0.01456 0.637738,0.599636 0.449117,1.54481 -0.308284,1.54481 -0.269524,0 -0.490042,-0.135501 -0.490042,-0.301114 z m -1.099277,-1.585356 c -0.09738,-0.157555 0.03812,-0.369037 0.301114,-0.469955 0.290451,-0.111456 0.478163,9.6e-4 0.478163,0.286467 0,0.517564 -0.500038,0.635305 -0.779277,0.183488 z m -0.345241,-17.56292 c -0.522272,-0.654835 -2.060554,-2.428524 -3.418404,-3.94153 l -2.468819,-2.750921 1.025869,-0.958305 c 1.599955,-1.494577 3.065901,-2.402327 3.47313,-2.150646 0.214844,0.13278 0.285776,0.09077 0.168134,-0.09958 -0.23169,-0.374883 3.25512,-2.018282 5.935376,-2.797453 7.512371,-2.183906 16.131805,-0.343994 21.256371,4.537402 0.779245,0.742267 1.627418,1.853642 1.884835,2.469722 0.533428,1.276673 0.627408,2.876978 0.15169,2.582968 -0.181021,-0.111879 -0.235261,0.01577 -0.126797,0.298417 0.422291,1.100472 -0.845805,0.865843 -2.316349,-0.428584 -1.74958,-1.540041 -2.158732,-1.632773 -1.906512,-0.432098 0.290295,1.381927 -0.27392,1.927316 -0.76567,0.740122 -1.023568,-2.471105 -4.595402,-4.111695 -8.090854,-3.71623 -4.995271,0.565151 -12.014432,4.33609 -13.56337,7.286717 -0.251779,0.479622 -0.411469,0.397109 -1.23863,-0.64 z"
       id="path4830"
       inkscape:connector-curvature="0" />
    <path
       style="fill:#a4726b;stroke-width:0.31999999"
       d="M 43.420192,94.635499 C 43.138979,93.973025 42.686397,93.34562 42.414448,93.241262 42.142502,93.136907 41.92,92.917864 41.92,92.754504 c 0,-0.168048 0.276467,-0.149063 0.636688,0.04372 0.735149,0.39344 1.705338,2.106451 1.508493,2.663466 -0.07353,0.20807 -0.363776,-0.163719 -0.644989,-0.826192 z m 0.766752,-0.715501 C 44.130586,93.157403 43.597309,92.417614 42.72,91.884984 c -0.597901,-0.362999 -0.600131,-0.382519 -0.03391,-0.296771 0.816381,0.123632 1.893994,1.6239 1.7025,2.370243 -0.143658,0.559888 -0.15762,0.557222 -0.201642,-0.03846 z m 2.925885,-5.760093 c -0.575946,-0.250272 -2.411946,-1.80438 -4.08,-3.453568 C 40.774051,82.473109 40,81.498862 40,80.889131 c 0,-1.96968 2.792707,-13.5908 3.667085,-15.259606 l 0.428377,-0.81759 0.369386,1.434032 c 1.562499,6.065974 5.700371,17.128486 7.216419,19.29295 0.716992,1.023648 0.610807,1.265964 -0.97431,2.223411 -1.640499,0.990899 -2.109383,1.042765 -3.594128,0.397577 z M 5.6042336,87.205253 C 3.6865725,86.510901 3.4591667,86.017096 3.6860602,83.039998 4.4089626,73.554706 5.2223926,69.857352 7.651015,65.017759 9.4791542,61.374767 10.24,58.879906 10.24,56.528316 c 0,-0.867469 0.288959,-3.270832 0.642131,-5.340807 0.723858,-4.242601 3.336683,-16.517919 3.87976,-18.22751 0.712773,-2.243788 2.643564,-5.497513 3.900945,-6.573784 C 20.071097,25.180795 22.859751,24 24.298297,24 c 1.839291,0 5.069973,1.267713 6.744515,2.646536 0.904059,0.744405 2.037466,1.644376 2.518682,1.999937 l 0.874938,0.646473 -0.708179,0.754784 c -0.797248,0.849714 -1.107411,1.894572 -2.038024,6.865559 -1.363712,7.284451 -0.80543,9.38896 2.822065,10.638083 2.619079,0.901875 2.788996,1.089833 2.132656,2.359053 -0.320182,0.619164 -0.499065,1.614112 -0.452492,2.516771 0.04236,0.82104 -0.157533,2.212803 -0.444208,3.092803 -0.506285,1.554125 -1.21889,5.212285 -1.714231,8.8 -0.133648,0.968 -0.295654,1.472 -0.360013,1.12 -0.06436,-0.352 -0.570169,-0.928 -1.124022,-1.28 -1.472934,-0.936119 -4.499816,-5.00665 -6.227514,-8.374717 -0.827972,-1.614093 -1.621523,-2.86295 -1.763446,-2.775238 -0.296294,0.18312 -3.216932,5.8392 -4.324113,8.374038 -0.409375,0.937245 -1.166471,3.375616 -1.682434,5.418605 -0.63836,2.527625 -1.465829,4.743852 -2.589651,6.935916 C 13.348736,78.837502 9.7899936,85.946328 9.44,86.768389 9.0435587,87.699544 7.4656774,87.879253 5.6042336,87.205253 Z M 64.894909,52.879999 C 64.32791,52.224351 63.68,50.421941 63.68,49.500261 c 0,-0.354326 0.45175,-1.348224 1.003888,-2.208656 0.854797,-1.332083 0.951747,-1.678864 0.6528,-2.334982 C 65.143587,44.532815 64.403837,43.889273 63.6928,43.526527 62.913744,43.129084 62.4,42.640681 62.4,42.297497 c 0,-0.896403 -0.620922,-1.354835 -1.278675,-0.944061 -0.306103,0.191162 -0.827623,0.242867 -1.158935,0.114899 -0.540979,-0.20895 -0.482678,-0.342624 0.571898,-1.311245 3.067619,-2.817593 8.264374,-1.973718 10.416051,1.691415 1.135107,1.93352 1.213463,4.679132 0.189251,6.631494 -0.857184,1.633974 -1.493603,2.197382 -3.40998,3.018781 -0.930432,0.398803 -1.617143,0.919785 -1.717322,1.302873 -0.205402,0.785456 -0.488701,0.805319 -1.117379,0.07835 z m -2.81001,-3.52 c -0.0027,-0.396 0.139101,-0.72 0.315101,-0.72 0.400934,0 0.400934,0.339597 0,0.96 -0.250838,0.388147 -0.311136,0.342221 -0.315101,-0.24 z m -2.171565,-0.46 C 60.111117,48.306649 60.8,48.208236 60.8,48.773333 c 0,0.278666 -0.228,0.506666 -0.506666,0.506666 -0.278668,0 -0.449667,-0.171002 -0.38,-0.38 z M 63.04,46.098885 c 0,-0.341612 0.144,-0.710112 0.32,-0.818886 0.181491,-0.112166 0.32,0.156678 0.32,0.621114 0,0.450387 -0.144,0.818886 -0.32,0.818886 -0.176,0 -0.32,-0.279501 -0.32,-0.621114 z m -1.857821,-0.827568 c 0.235383,-0.516601 0.479405,-0.697734 0.675632,-0.501507 0.417735,0.417735 0.03567,1.310189 -0.560909,1.310189 -0.400643,0 -0.42024,-0.138138 -0.114723,-0.808682 z m -4.041606,-3.125119 c 0.120169,-0.315591 0.299101,-0.493191 0.397625,-0.394666 0.09853,0.09853 2.05e-4,0.356733 -0.218489,0.573802 -0.316039,0.313683 -0.352794,0.276928 -0.179136,-0.179136 z m 0.141321,-1.274192 C 57.77497,40.326703 59.2,40.428169 59.2,41.008582 c 0,0.161664 -0.297206,0.134876 -0.660454,-0.05953 -0.495674,-0.265277 -0.795069,-0.252499 -1.2,0.05122 -0.488135,0.366118 -0.493629,0.353898 -0.05765,-0.128262 z M 56.32,39.999999 c -0.264,-0.170611 -0.336,-0.310198 -0.16,-0.310198 0.176,0 0.536,0.139587 0.8,0.310198 0.264,0.170611 0.336,0.310199 0.16,0.310199 -0.176,0 -0.536,-0.139588 -0.8,-0.310199 z m -1.470403,-1.04 -0.609597,-0.72 0.72,0.609597 c 0.676621,0.57287 0.865677,0.830403 0.609597,0.830403 -0.06072,0 -0.384723,-0.324 -0.72,-0.72 z m 5.112406,-11.52 c -0.12967,-0.22 -0.433993,-0.710665 -0.676272,-1.090368 -0.304921,-0.477878 -0.334221,-0.756056 -0.09519,-0.903785 0.189923,-0.11738 0.311155,-0.09471 0.269401,0.05037 -0.132707,0.461135 0.719712,1.729409 1.032448,1.536128 0.165152,-0.102071 0.214522,0.0379 0.109709,0.311037 -0.230649,0.60106 -0.333609,0.616602 -0.640096,0.09662 z M 61.12,25.968855 c 0,-0.414745 0.909216,-1.328856 1.321744,-1.328856 0.173814,0 0.222707,-0.150992 0.108653,-0.335538 -0.139543,-0.225782 -0.381235,-0.199614 -0.738887,0.08 -0.468787,0.366501 -0.482656,0.353037 -0.117529,-0.114095 0.385005,-0.492565 1.115133,-0.607918 1.487968,-0.235086 0.08826,0.08826 -0.339575,0.632127 -0.950739,1.208594 C 61.620045,25.820341 61.12,26.146582 61.12,25.968855 Z m 2.384234,-2.314364 c -0.105492,-0.170691 -0.0731,-0.278327 0.07198,-0.239189 0.145082,0.03914 1.271786,-0.440097 2.503786,-1.064965 2.669475,-1.353951 5.229984,-2.347019 5.459568,-2.117437 0.09091,0.09091 -0.596298,0.410808 -1.527136,0.710874 -0.930838,0.300066 -2.732822,1.10256 -4.004413,1.783321 -1.310422,0.701551 -2.395069,1.103301 -2.503785,0.927396 z M 81.589597,22.543168 C 81.203168,21.91791 80.941773,21.35156 81.00872,21.284612 c 0.06695,-0.06695 0.447674,0.444626 0.846058,1.136832 0.902681,1.568442 0.689436,1.666326 -0.265181,0.121724 z m 5.68439,0.522482 c -0.13919,-0.53227 -0.09755,-0.657208 0.139917,-0.419746 0.185952,0.185952 0.275133,0.526982 0.198179,0.757843 -0.07989,0.239662 -0.224941,0.09461 -0.338096,-0.338097 z m -1.840406,-0.513384 c -0.222631,-0.268253 -0.34281,-0.549704 -0.267069,-0.625447 0.07574,-0.07574 0.313485,0.143738 0.528314,0.487734 0.464579,0.743911 0.309641,0.825587 -0.261245,0.137713 z m 0.186992,-1.658465 c -0.173658,-0.456064 -0.136903,-0.49282 0.179136,-0.179135 0.218694,0.217067 0.317014,0.475277 0.218489,0.573801 -0.09852,0.09852 -0.277456,-0.07908 -0.397625,-0.394666 z m 1.419037,0.359532 c -2.15e-4,-0.161333 -0.360215,-0.711731 -0.8,-1.223106 -0.973664,-1.132161 -1.041588,-1.468406 -0.129972,-0.643404 0.81272,0.735499 1.369738,1.720468 1.116288,1.973917 -0.102259,0.102259 -0.186102,0.05393 -0.186316,-0.107407 z M 78.56,20.430251 c -1.21465,-0.458678 -2.15792,-0.569987 -3.916528,-0.462162 -1.27409,0.07812 -2.382909,0.03462 -2.464045,-0.09665 -0.305203,-0.493834 4.438173,-0.356638 6.201472,0.179369 0.978506,0.297446 1.897805,0.51213 2.042887,0.477074 0.145081,-0.03505 0.172582,0.08383 0.06111,0.264192 -0.111469,0.180361 -0.230173,0.308679 -0.263785,0.285152 C 80.187501,21.053696 79.44,20.762559 78.56,20.430251 Z"
       id="path4828"
       inkscape:connector-curvature="0" />
    <path
       style="fill:#25415a;stroke-width:0.31999999"
       d="m 47.84,88.406606 c -1.305104,-0.309574 -6.074963,-4.506259 -7.211107,-6.344579 -0.661632,-1.070544 -0.664189,-1.136531 -0.144666,-3.73591 0.714183,-3.573357 2.240778,-9.621501 2.956074,-11.711536 l 0.583667,-1.705418 1.205984,4.247367 c 1.713277,6.034003 4.513821,13.102547 6.843994,17.274172 0.137132,0.245501 -2.12586,1.747114 -2.958144,1.962883 -0.349693,0.09066 -0.923802,0.09652 -1.275802,0.01302 z M 7.36,87.444699 C 5.5094,87.196638 3.8406102,86.357313 3.798705,85.653531 3.6142867,82.556293 4.4209542,74.874827 5.2906762,71.446283 c 0.4231184,-1.667984 1.6199081,-4.80111 2.7249129,-7.133667 1.8637648,-3.934224 1.9850959,-4.336713 2.2415939,-7.435987 0.41597,-5.026182 1.604605,-11.394729 4.015899,-21.51663 1.325614,-5.564537 3.417165,-8.817139 6.687922,-10.400485 3.234585,-1.565836 7.835949,-0.521984 10.964473,2.48737 0.751013,0.722405 1.674469,1.411534 2.052126,1.531398 0.609149,0.193336 0.626589,0.251546 0.154515,0.51573 -0.926204,0.518331 -1.501532,2.096893 -2.347878,6.442016 -0.996585,5.116454 -1.097132,8.271677 -0.310953,9.757843 0.584195,1.104342 1.12878,1.433552 3.256601,1.968656 0.709437,0.17841 1.543216,0.509619 1.852838,0.736022 0.530282,0.387751 0.531892,0.473914 0.02771,1.484541 -0.294377,0.590096 -0.568816,1.955802 -0.609862,3.034906 -0.04104,1.0791 -0.230547,2.322003 -0.421114,2.762003 -0.488192,1.127181 -1.24976,4.88151 -1.515875,7.47287 -0.123859,1.20608 -0.314835,2.063142 -0.424397,1.904582 -0.109558,-0.158556 -0.655622,-0.606912 -1.213472,-0.996342 -1.504014,-1.049936 -4.541054,-5.249117 -6.242248,-8.630877 l -1.49652,-2.974895 -1.455976,2.671023 c -2.493306,4.574032 -3.710295,7.493725 -4.536445,10.883447 -1.063149,4.362134 -2.039215,6.77687 -4.346441,10.752867 -1.06046,1.827468 -2.670607,4.982921 -3.578104,7.012115 C 9.1110435,87.484254 8.9497888,87.6578 7.36,87.444699 Z m 60.16,-36.2447 c 0.264,-0.170611 0.624,-0.310198 0.8,-0.310198 0.176,0 0.104,0.139587 -0.16,0.310198 -0.264,0.170611 -0.624,0.310198 -0.8,0.310198 -0.176,0 -0.104,-0.139587 0.16,-0.310198 z m 1.92,-1.080819 c 0,-0.06645 0.252,-0.318448 0.56,-0.56 0.507539,-0.398039 0.518858,-0.38672 0.120819,0.120819 C 69.702781,50.213039 69.44,50.382553 69.44,50.11918 Z m -8.16,-4.679181 c -0.108774,-0.176 -0.04527,-0.32 0.141114,-0.32 0.186387,0 0.338886,0.144 0.338886,0.32 0,0.176 -0.0635,0.32 -0.141114,0.32 -0.07761,0 -0.230112,-0.144 -0.338886,-0.32 z"
       id="path4826"
       inkscape:connector-curvature="0" />
    <path
       style="fill:#233d57;stroke-width:0.31999999"
       d="m 46.711203,87.778216 c -1.632041,-1.117552 -5.082688,-4.342669 -5.884915,-5.500285 l -0.832205,-1.20087 0.80872,-3.978531 c 0.804256,-3.956579 2.563706,-10.605939 3.035603,-11.47224 0.172647,-0.316938 0.31848,-0.124007 0.48377,0.64 0.885872,4.094678 4.277584,13.362528 6.575555,17.967692 l 1.235024,2.475005 -1.374493,0.805507 c -1.60078,0.938119 -2.935203,1.025075 -4.047059,0.263722 z M 5.6345174,86.934837 C 4.9495021,86.728053 4.2358099,86.31595 4.048535,86.019057 3.3967555,84.985774 4.7747754,71.428866 5.4868518,71.868955 c 0.1645498,0.101696 0.2004141,0.496093 0.079698,0.876436 -0.1207162,0.380342 -0.2082048,1.088223 -0.1944195,1.573068 0.013786,0.484848 -0.1294506,0.881539 -0.3183021,0.881539 -0.2248896,0 -0.2832154,0.63488 -0.1690384,1.84 0.109871,1.159668 0.072593,1.603364 -0.1008211,1.2 -0.2215015,-0.515216 -0.2724784,-0.421625 -0.2614522,0.48 0.00753,0.616 -0.092295,2.308 -0.2218397,3.76 -0.1704614,1.910611 -0.1340214,2.64 0.1318935,2.64 0.202086,0 0.3674294,0.152499 0.3674294,0.338887 0,0.186387 -0.18,0.230745 -0.4,0.09857 -0.264671,-0.159008 -0.2492435,-0.05452 0.0456,0.308848 0.24508,0.302039 0.5198307,0.474928 0.6105568,0.384202 0.090726,-0.09073 0.3616861,-0.0016 0.6021331,0.197869 0.2404468,0.199552 0.5260954,0.273904 0.6347751,0.165222 C 6.4017446,86.50492 6.159353,86.14772 5.7544173,85.819825 4.8665133,85.100843 5.1410784,84.297502 6.0994202,84.810392 6.4407392,84.993061 6.72,85.303768 6.72,85.500853 c 0,0.197084 -0.288,0.0977 -0.64,-0.220855 -0.352,-0.318557 -0.64,-0.417939 -0.64,-0.220854 0,0.312256 1.2196448,1.194329 1.3164864,0.952112 0.020067,-0.05019 0.084711,-0.503789 0.1436518,-1.007997 0.058941,-0.504205 0.3410384,-1.175165 0.6268836,-1.491021 0.4810678,-0.531574 0.476334,-0.599798 -0.063652,-0.917404 -0.4949533,-0.29112 -0.512936,-0.389312 -0.1186486,-0.647866 0.5301699,-0.347658 1.078112,-0.132243 0.8016131,0.315142 -0.2264973,0.36648 0.1884717,0.380192 0.7488125,0.02474 0.3315888,-0.210342 0.315487,-0.346057 -0.08,-0.674284 -0.541856,-0.449693 -0.6713677,-1.292564 -0.1986106,-1.292564 0.1630951,0 0.3548797,0.252 0.4261885,0.56 0.089107,0.384874 0.307455,0.134692 0.6982093,-0.8 0.312706,-0.748 0.759218,-1.36 0.992247,-1.36 0.437481,0 0.976834,-1.196652 0.675272,-1.498214 -0.17742,-0.177421 0.227488,-0.760714 1.111421,-1.601066 0.358537,-0.340857 0.472973,-0.842268 0.368746,-1.61568 -0.102892,-0.763507 -0.03902,-1.052153 0.200126,-0.904355 0.205133,0.126778 0.353292,-0.02374 0.356154,-0.361798 0.0042,-0.490819 0.05209,-0.505862 0.3151,-0.09889 0.232443,0.35968 0.311428,0.195241 0.3151,-0.656 0.0027,-0.6248 0.148758,-1.27986 0.324584,-1.455684 0.386458,-0.386457 1.232365,-5.843398 1.096988,-7.076655 -0.05305,-0.483306 0.01051,-0.953648 0.141258,-1.0452 0.48895,-0.342381 1.625594,-3.197053 1.452536,-3.648036 -0.09897,-0.257916 0.130318,-0.779209 0.509534,-1.158425 0.379216,-0.379216 0.613684,-0.887018 0.521039,-1.128445 -0.109205,-0.284582 -0.006,-0.37663 0.29342,-0.261728 0.254026,0.09748 0.368443,0.328397 0.25426,0.513146 -0.12123,0.196156 -0.0539,0.240915 0.161838,0.107584 0.453131,-0.280048 0.490539,-1.150557 0.04944,-1.150557 -0.176,0 -0.32,-0.161632 -0.32,-0.359181 0,-0.236832 0.176001,-0.213117 0.516677,0.06962 0.443559,0.368122 0.605658,0.318919 1.145453,-0.347702 0.589343,-0.727805 0.593527,-0.788871 0.06672,-0.973664 -0.496133,-0.174032 -0.502224,-0.220118 -0.05194,-0.392909 0.301086,-0.115539 0.58561,9.6e-4 0.694343,0.284323 0.101323,0.264045 0.336232,0.386131 0.522021,0.271306 0.229634,-0.14192 0.208064,-0.365091 -0.06736,-0.696957 -0.336602,-0.405581 -0.280953,-0.588765 0.328872,-1.082573 0.431673,-0.349545 0.636447,-0.752278 0.497127,-0.977702 -0.163867,-0.265142 -0.06541,-0.31751 0.319366,-0.169859 0.697608,0.267696 1.534351,-0.521322 1.273562,-1.200925 C 23.698514,49.826701 23.770928,49.6 23.965758,49.6 c 0.19483,0 0.354236,0.152499 0.354236,0.338886 0,0.186388 0.150992,0.245565 0.335539,0.131511 0.225566,-0.139408 0.199346,-0.374995 -0.08,-0.7188 -0.355554,-0.437597 -0.3347,-0.48113 0.144461,-0.301555 0.308,0.11543 0.56,0.09142 0.56,-0.05336 0,-0.144778 0.36,-0.651677 0.8,-1.126445 0.44,-0.474768 0.8,-1.080294 0.8,-1.345613 0,-0.281046 0.153047,-0.387808 0.36667,-0.255782 0.259951,0.160656 0.301788,-0.0319 0.143745,-0.661591 -0.18129,-0.722313 -0.130241,-0.852636 0.27333,-0.697772 0.347788,0.133459 0.496255,-0.0037 0.496255,-0.45841 0,-0.356864 0.144,-0.559846 0.32,-0.451072 0.196372,0.121363 0.305373,-0.334944 0.282139,-1.181113 -0.03606,-1.313264 -0.05062,-1.333197 -0.305859,-0.418887 -0.251642,0.901408 -0.258003,0.891642 -0.104219,-0.16 0.09008,-0.616 0.149948,-1.732 0.133041,-2.48 -0.03214,-1.421801 0.492695,-1.885606 0.724206,-0.64 0.136003,0.731738 0.177036,-0.02608 0.264239,-4.88 0.03338,-1.858176 0.121273,-2.415826 0.277389,-1.76 0.20215,0.849204 0.255796,0.886138 0.464828,0.32 0.129967,-0.352 0.34584,-0.928 0.479718,-1.28 0.133878,-0.352 0.131358,-1.048184 -0.0056,-1.547076 -0.136958,-0.498892 -0.170804,-1.110892 -0.07521,-1.36 0.09559,-0.249108 0.0059,-0.452924 -0.199319,-0.452924 -0.205217,0 -0.284125,-0.144 -0.175351,-0.32 0.108774,-0.176 0.05354,-0.32 -0.122741,-0.32 -0.176281,0 -0.265631,-0.284971 -0.198555,-0.633271 0.06708,-0.348298 -0.03544,-0.730548 -0.227816,-0.849442 -0.20969,-0.129595 -0.258328,-0.06821 -0.121445,0.153271 0.12558,0.203193 0.09983,0.369442 -0.05722,0.369442 -0.405915,0 -0.36425,1.075275 0.05215,1.345835 0.19116,0.124209 0.05885,0.204087 -0.294017,0.177506 -0.536997,-0.04045 -0.630252,-0.251003 -0.572081,-1.291643 0.06234,-1.115111 0.01549,-1.199407 -0.454298,-0.817506 -0.456114,0.370786 -0.494912,0.348841 -0.300256,-0.169821 0.170842,-0.455207 0.105608,-0.550372 -0.276706,-0.403665 -0.322677,0.123823 -0.420613,0.06311 -0.2759,-0.171041 0.157503,-0.254846 -0.03622,-0.297605 -0.650193,-0.143508 -0.530741,0.133207 -0.799967,0.09883 -0.684842,-0.08744 0.113595,-0.183802 -0.613814,-0.302905 -1.813188,-0.296885 -1.643021,0.0082 -1.833069,0.05925 -1.057744,0.283859 0.519828,0.150594 1.311828,0.204207 1.76,0.119142 0.706122,-0.134026 0.729456,-0.114309 0.174858,0.147762 -0.352,0.166334 -0.451501,0.312547 -0.221115,0.324917 0.230387,0.01237 0.320387,0.181865 0.2,0.376656 -0.132939,0.2151 -0.297415,0.234447 -0.418885,0.04927 -0.11,-0.167692 -0.632,-0.405904 -1.16,-0.529361 -0.528,-0.123457 -1.248,-0.304522 -1.6,-0.402367 -0.578026,-0.160674 -0.589221,-0.135963 -0.115604,0.255196 0.483025,0.398929 0.474073,0.508831 -0.113473,1.393096 -0.350827,0.528 -0.56462,0.744 -0.475094,0.48 0.527611,-1.555862 0.532981,-1.668845 0.03803,-0.8 -0.563955,0.989968 -1.035414,1.426582 -1.549634,1.4351 -0.16268,0.0027 -0.0041,-0.3191 0.352316,-0.7151 0.868058,-0.964365 1.182648,-1.865648 0.569005,-1.630172 -0.254026,0.09748 -0.396697,0.282678 -0.317048,0.411554 0.19912,0.322183 -0.742986,1.618618 -1.176234,1.618618 -0.193298,0 -0.07713,-0.310291 0.258145,-0.689536 L 20,26.140927 19.132478,26.69909 c -1.035835,0.666456 -1.3807,1.558004 -0.903005,2.334452 0.299386,0.486623 0.335961,0.444513 0.259515,-0.298784 -0.04894,-0.475883 0.01901,-0.871883 0.151012,-0.88 0.8747,-0.05379 1.028779,0.0022 0.656892,0.238587 -0.252667,0.160623 -0.281574,0.404102 -0.0849,0.7151 0.250483,0.396087 0.298992,0.381932 0.303108,-0.08845 0.0027,-0.308 0.136392,-0.56 0.297104,-0.56 0.162941,0 0.137297,0.410394 -0.05797,0.927713 -0.210576,0.557879 -0.518415,0.863151 -0.772204,0.765763 C 18.700706,29.74552 18.56,29.963366 18.56,30.506877 c 0,0.448444 -0.159398,0.913865 -0.354219,1.034271 -0.242011,0.149571 -0.295011,-0.07252 -0.167312,-0.701115 0.217916,-1.072679 -0.512451,-2.696984 -0.917792,-2.041129 -0.152358,0.24652 -0.04483,0.520484 0.274396,0.699133 0.28871,0.16157 0.524927,0.452927 0.524927,0.647459 0,0.194533 -0.312417,0.07938 -0.694261,-0.2559 -0.644305,-0.565733 -0.679107,-0.568106 -0.483665,-0.03298 0.141661,0.387874 0.09087,0.502622 -0.155182,0.350557 -0.236842,-0.146377 -0.277498,-0.08322 -0.115338,0.179157 0.145891,0.236056 0.06634,0.521826 -0.190557,0.684542 -0.34878,0.220914 -0.323896,0.280348 0.119003,0.284223 0.308,0.0027 0.56,-0.2111 0.56,-0.4751 0,-0.264 0.144,-0.48 0.32,-0.48 0.755801,0 0.226339,0.886128 -0.83062,1.390157 -0.725439,0.345936 -1.088329,0.711021 -0.982048,0.987984 0.09271,0.24161 0.07049,0.537299 -0.04938,0.657091 -0.119874,0.119789 -0.226774,0.766919 -0.237557,1.438064 -0.01415,0.880519 0.09722,1.175437 0.4,1.059248 C 15.811178,35.843983 16,35.946338 16,36.159999 c 0,0.21384 0.215778,0.305671 0.48,0.204279 0.377762,-0.14496 0.470718,0.06926 0.436422,1.005763 -0.02723,0.743577 -0.0956,0.919869 -0.182257,0.469958 -0.07627,-0.396 -0.262647,-0.72 -0.414165,-0.72 -0.151518,0 -0.337892,0.324 -0.414165,0.72 -0.08435,0.437952 -0.15575,0.242519 -0.182257,-0.498886 -0.02397,-0.670387 -0.178728,-1.135357 -0.343911,-1.033267 -0.165183,0.102086 -0.448804,-0.06941 -0.630269,-0.381117 -0.305885,-0.525418 -0.330964,-0.520077 -0.344037,0.07327 -0.0078,0.352 -0.09662,1 -0.197489,1.44 -0.143809,0.627338 -0.109391,0.696403 0.159469,0.32 0.490977,-0.687363 0.431768,-0.225638 -0.103326,0.805754 -0.326229,0.628809 -0.36944,1.106541 -0.151851,1.678845 0.167274,0.439964 0.221011,1.104915 0.119416,1.477667 -0.183739,0.674141 -0.181874,0.674342 0.351842,0.03773 0.526826,-0.628387 0.533012,-0.625485 0.340939,0.16 -0.107592,0.44 -0.206716,1.016 -0.220275,1.28 -0.01356,0.264 -0.161256,0.138781 -0.328214,-0.278269 L 14.072311,42.163465 13.47827,42.92173 c -0.634073,0.809367 -1.443855,3.976183 -1.141742,4.465011 0.09968,0.161293 0.0099,0.293258 -0.199512,0.293258 -0.256435,0 -0.321412,0.365693 -0.199004,1.12 0.107086,0.659891 0.04915,1.12 -0.141032,1.12 -0.17753,0 -0.291066,0.324 -0.252302,0.72 0.03877,0.396 -0.01896,0.936 -0.128278,1.2 -0.269017,0.64967 -0.850985,4.424288 -0.853983,5.538886 -0.0013,0.494387 0.120781,0.822743 0.271357,0.729683 0.150575,-0.09306 0.205788,0.186442 0.122695,0.621114 -0.08309,0.434675 -0.278291,0.790317 -0.433774,0.790317 -0.433061,0 -0.335838,0.885222 0.117305,1.06807 0.238957,0.09642 0.17454,0.171575 -0.16,0.186666 -0.308,0.01389 -0.56,0.187264 -0.56,0.385264 0,0.230637 0.350683,0.289862 0.975908,0.164819 0.605258,-0.121053 0.901925,-0.07547 0.781114,0.12 -0.107136,0.17335 -0.602888,0.315181 -1.101671,0.315181 -0.498783,0 -0.9730723,0.18 -1.0539763,0.4 -0.1880096,0.511251 0.062287,1.247869 0.3612352,1.063107 0.1253711,-0.07748 0.4370721,-0.0086 0.6926691,0.153107 0.318904,0.201741 0.339212,0.295523 0.06472,0.298886 -0.22,0.0026 -0.411368,0.2569 -0.425263,0.5649 -0.01991,0.44126 -0.06474,0.459436 -0.211429,0.08572 C 9.7407962,63.656923 8.96,62.91709 8.96,63.337141 c 0,0.68487 0.069729,0.821242 0.3757856,0.734928 0.1714819,-0.04836 0.2244704,0.05335 0.117752,0.226026 C 9.3468192,64.47077 9.0231158,64.521336 8.7341971,64.410469 8.3321363,64.256184 8.2594634,64.34068 8.4244451,64.770616 8.5430003,65.079567 8.64,65.536565 8.64,65.786171 c 0,0.249604 0.1524986,0.453828 0.3388854,0.453828 0.1863869,0 0.2498887,-0.144 0.1411146,-0.32 -0.1087741,-0.176 -0.036774,-0.32 0.16,-0.32 0.1967741,0 0.2687741,-0.144 0.16,-0.32 -0.1087741,-0.176 -0.060506,-0.32 0.1072627,-0.32 0.1677687,0 0.2842672,0.33856 0.2588855,0.752358 -0.035905,0.58536 -0.2226954,0.745174 -0.8415412,0.72 -0.5417897,-0.02205 -0.8327174,0.161078 -0.9124556,0.574333 -0.08966,0.464672 0.013491,0.556592 0.440655,0.392675 0.4696179,-0.180211 0.4938294,-0.137037 0.1532733,0.273309 -0.3229469,0.389126 -0.3241719,0.584048 -0.00608,0.967325 0.2752333,0.331635 0.2873443,0.48 0.039182,0.48 -0.1975501,0 -0.3591821,-0.144 -0.3591821,-0.32 0,-0.176 -0.2244986,-0.32 -0.4988854,-0.32 -0.2956151,0 -0.4058535,0.150528 -0.2705572,0.369443 0.1447543,0.234217 0.087415,0.282352 -0.1566534,0.13151 C 7.1612374,68.837157 7.1192768,68.596037 7.287847,68.371509 7.677176,67.852946 7.7100669,66.503647 7.3276166,66.740011 7.1551091,66.846629 7.0976816,67.197621 7.2,67.519999 7.3977773,68.143141 6.8903962,68.694591 6.5805514,68.19325 6.4795322,68.0298 7.2011267,66.249061 8.184095,64.236053 c 1.6250922,-3.328 1.8116682,-3.932877 2.056781,-6.668032 0.483374,-5.393849 1.445612,-10.558438 4.160702,-22.331593 1.960235,-8.49996 6.722127,-12.306279 13.04622,-10.428225 1.755877,0.521439 4.444757,2.384428 4.312202,2.987705 -0.044,0.20025 0.028,0.334485 0.16,0.298298 0.132,-0.03618 0.722557,0.19104 1.312346,0.504945 l 1.072345,0.570738 -0.665901,0.708821 c -0.896243,0.954005 -1.177712,1.869378 -2.116781,6.884044 -0.915523,4.888925 -0.99802,6.948679 -0.341265,8.520515 0.4682,1.12056 2.130386,2.39336 3.128398,2.395533 0.302029,6.4e-4 1.049933,0.240007 1.662007,0.531885 l 1.112864,0.530688 -0.518573,0.989312 c -0.285216,0.544122 -0.556893,1.853312 -0.603725,2.909312 -0.04684,1.056 -0.383545,2.928 -0.748246,4.16 -0.364698,1.232 -0.826816,3.562313 -1.026931,5.178477 l -0.36384,2.938476 -1.082855,-0.735817 c -1.68741,-1.146624 -4.438932,-4.82857 -6.233343,-8.341136 -1.829973,-3.582179 -1.896574,-3.681178 -2.097641,-3.118006 -0.07894,0.221097 -0.297472,0.306848 -0.485633,0.190556 -0.197582,-0.122112 -0.249173,-0.06106 -0.122118,0.144522 0.120996,0.195776 -0.799519,2.368157 -2.045589,4.827513 -1.675247,3.30642 -2.474577,5.33193 -3.067665,7.773485 -0.983026,4.04681 -2.346683,7.672784 -2.78395,7.402541 -0.185589,-0.114701 -0.223808,-0.03934 -0.08992,0.177299 0.317204,0.513245 -1.99278,4.597689 -2.442917,4.319488 -0.204918,-0.126647 -0.258933,-0.06901 -0.13033,0.139078 0.120794,0.195447 -0.497597,1.765696 -1.374202,3.489443 -0.876605,1.723744 -1.601187,3.004048 -1.610182,2.845117 C 10.236239,83.67563 8.96,85.110933 8.96,85.488961 c 0,0.149069 -0.216,0.271037 -0.48,0.271037 -0.7032038,0 -0.5857914,0.53769 0.16,0.73272 0.352,0.09205 0.64,0.324845 0.64,0.517322 0,0.451561 -2.0398848,0.409481 -3.6454826,-0.0752 z M 8.16,86.719998 C 7.808,86.568737 7.304,86.437064 7.04,86.42739 c -0.4266666,-0.01565 -0.4266666,0.01686 0,0.292608 0.264,0.170611 0.768,0.302285 1.12,0.292608 l 0.64,-0.0176 z M 8.2975088,65.501112 C 8.2758243,64.825157 8.2651491,64.822962 8,65.439999 c -0.3784906,0.880793 -0.3784906,1.19392 0,0.96 0.176,-0.108775 0.309879,-0.513274 0.2975088,-0.898887 z M 14.08,41.058838 c 0,-0.230362 -0.144,-0.418839 -0.32,-0.418839 -0.176,0 -0.32,0.204224 -0.32,0.453827 0,0.249607 -0.08376,0.717607 -0.186123,1.04 -0.170317,0.536391 -0.143141,0.533421 0.32,-0.03499 0.278367,-0.341639 0.506123,-0.809639 0.506123,-1.04 z m 0.858596,-6.238839 c -0.102152,-0.255273 -0.177978,-0.179449 -0.193333,0.193335 -0.01389,0.337331 0.06174,0.526332 0.16807,0.42 0.106334,-0.106336 0.117702,-0.382336 0.02526,-0.613335 z m 16.674695,-6.358194 c -0.30069,-0.175302 -0.472415,-0.512341 -0.38161,-0.748975 0.09081,-0.236634 -0.05918,-0.516306 -0.33329,-0.621494 C 30.624276,26.986148 30.4,27.039566 30.4,27.210043 c 0,0.170476 0.168,0.309956 0.373333,0.309956 0.205334,0 0.278583,0.09475 0.162777,0.210558 -0.268511,0.26851 0.386346,1.072568 0.863072,1.059712 0.19845,-0.0054 0.114799,-0.153161 -0.185891,-0.328464 z M 9.1673194,86.156561 C 9.0551805,85.975118 9.2458678,85.487662 9.5910691,85.073329 10.307084,84.213921 10.423854,84.587397 9.794265,85.72323 9.5543718,86.156017 9.2829341,86.34363 9.1673194,86.156561 Z M 4.8017779,84.417777 C 4.9768,84.205598 5.12,83.743998 5.12,83.391998 c 0,-0.50104 0.084148,-0.555852 0.3875555,-0.252444 0.3034074,0.303407 0.2343133,0.526131 -0.3182221,1.025779 -0.3881779,0.35102 -0.5625779,0.46462 -0.3875555,0.252444 z M 4.5024912,82.159998 c 0.012371,-0.22 0.1462493,-0.688 0.2975088,-1.04 0.2304669,-0.536326 0.2786608,-0.471529 0.2975088,0.4 0.01237,0.572 -0.1215088,1.04 -0.2975088,1.04 -0.176,0 -0.309879,-0.18 -0.2975088,-0.4 z m 1.121072,-5.2 c 0.077617,-1.408 0.1936899,-2.848 0.2579398,-3.2 0.06425,-0.351999 0.1351959,-0.747999 0.1576576,-0.879999 0.022461,-0.132 0.1747872,-0.24 0.3385015,-0.24 0.1787382,0 0.1693667,0.415507 -0.023456,1.039999 -0.1766154,0.572 -0.4450138,2.12 -0.5964413,3.44 l -0.2753229,2.4 z m 0.8506778,1.44 c 0,-0.616 0.065854,-0.868 0.1463433,-0.56 0.080489,0.308 0.080489,0.812 0,1.12 -0.080489,0.308 -0.1463433,0.056 -0.1463433,-0.56 z m 0.6281427,0.16 c 0.00652,-0.528 0.078239,-0.70526 0.1593734,-0.39391 0.081134,0.31135 0.075798,0.74335 -0.011856,0.96 -0.087657,0.21665 -0.154039,-0.03809 -0.1475174,-0.56609 z M 10.56,77.261112 c 0,-0.274387 0.144,-0.409888 0.32,-0.301114 0.176,0.108775 0.32,0.333274 0.32,0.498887 0,0.165613 -0.144,0.301113 -0.32,0.301113 -0.176,0 -0.32,-0.224499 -0.32,-0.498886 z M 6.745263,76.293333 c 0.015354,-0.372784 0.091181,-0.448608 0.1933335,-0.193335 0.092439,0.230999 0.08107,0.506999 -0.025264,0.613335 -0.1063335,0.106333 -0.1819651,-0.08267 -0.1680695,-0.42 z m 4.66807,-1.306669 c -0.403609,-0.40361 -0.212191,-0.746666 0.416624,-0.746666 0.428492,0 0.57105,0.153508 0.445763,0.48 -0.196999,0.513373 -0.516794,0.61226 -0.862387,0.266666 z M 7.04,74.079998 c 0,-0.44 0.1240314,-0.799999 0.275625,-0.799999 0.1515939,0 0.2068067,0.359999 0.1226953,0.799999 -0.084111,0.44 -0.2081427,0.8 -0.2756249,0.8 -0.067483,0 -0.1226954,-0.36 -0.1226954,-0.8 z M 6.08,71.661112 c 0,-0.186387 0.144,-0.249888 0.32,-0.141113 0.176,0.108774 0.32,0.261273 0.32,0.338886 0,0.07761 -0.144,0.141114 -0.32,0.141114 -0.176,0 -0.32,-0.1525 -0.32,-0.338887 z M 7.0624912,71.138885 C 7.050121,70.753272 7.184,70.348773 7.36,70.239999 c 0.3784906,-0.23392 0.3784906,0.07921 0,0.96 -0.2651491,0.617036 -0.2758243,0.614841 -0.2975088,-0.06111 z m 1.7730058,0.27855 C 8.7272909,71.242354 8.762659,70.764171 8.914092,70.354808 l 0.2753337,-0.744297 0.2370749,0.746956 c 0.2480365,0.781492 -0.2315331,1.641604 -0.5910036,1.059968 z m -3.3752135,-0.18031 c -0.039628,-0.55265 0.7248531,-2.757126 0.9561322,-2.757126 0.1293113,0 0.3225177,0.227776 0.4293478,0.506172 0.2969095,0.773732 0.2229728,0.988074 -0.1565462,0.453828 -0.2637328,-0.371255 -0.2986048,-0.285079 -0.1539255,0.380387 0.1028813,0.473216 0.044178,0.948694 -0.1304518,1.056621 -0.1827088,0.112921 -0.236601,-0.01462 -0.1269382,-0.300388 0.104814,-0.273142 0.098524,-0.49662 -0.013977,-0.49662 -0.1125018,0 -0.3347805,0.324 -0.493953,0.72 -0.1591724,0.396 -0.2985321,0.592707 -0.3096883,0.437126 z m 8.5010235,-2.237126 c 0.06528,-0.506 0.118693,-1.262 0.118693,-1.68 0,-0.418 0.144,-0.76 0.32,-0.76 0.176,0 0.32,0.576 0.32,1.28 0,0.704 -0.133441,1.28 -0.296536,1.28 -0.163095,0 -0.360507,0.18 -0.438693,0.4 -0.07819,0.22 -0.08874,-0.01398 -0.02346,-0.52 z m -0.767066,-1.48 c 0,-0.616 0.06585,-0.868 0.146343,-0.56 0.08049,0.308 0.08049,0.812 0,1.12 -0.08049,0.308 -0.146343,0.056 -0.146343,-0.56 z M 11.76,62.508069 c 0.22,-0.08877 0.58,-0.08877 0.8,0 0.22,0.08877 0.04,0.161405 -0.4,0.161405 -0.44,0 -0.62,-0.07263 -0.4,-0.161405 z m 0.08,-2.02807 c 0,-0.176 0.144,-0.32 0.32,-0.32 0.176,0 0.32,0.144 0.32,0.32 0,0.176 -0.144,0.32 -0.32,0.32 -0.176,0 -0.32,-0.144 -0.32,-0.32 z m 3.545263,-0.186666 c 0.01535,-0.372784 0.09118,-0.448608 0.193333,-0.193334 0.09244,0.230998 0.08107,0.506998 -0.02526,0.613334 -0.106333,0.106333 -0.181965,-0.08267 -0.16807,-0.42 z m -3.861362,-1.754665 c 0.291039,-1.591572 0.428669,-1.736983 0.990499,-1.04649 0.392484,0.482368 0.378847,0.52263 -0.1144,0.337779 -0.453109,-0.169814 -0.56,-0.03215 -0.56,0.7212 0,0.51209 -0.123953,1.007677 -0.275451,1.101309 -0.151498,0.09363 -0.16979,-0.407578 -0.04065,-1.113798 z M 16.16,59.199999 c -0.108774,-0.176 -0.04527,-0.32 0.141115,-0.32 0.186386,0 0.338885,0.144 0.338885,0.32 0,0.176 -0.0635,0.32 -0.141115,0.32 -0.07761,0 -0.230111,-0.144 -0.338885,-0.32 z m -5.28,-2.541114 c 0,-0.362387 0.144,-0.658886 0.32,-0.658886 0.176,0 0.32,0.207501 0.32,0.461113 0,0.253613 -0.144,0.550112 -0.32,0.658887 -0.176,0.108774 -0.32,-0.09873 -0.32,-0.461114 z m 1.022384,-1.138886 c 0.0065,-0.528 0.07824,-0.705261 0.159373,-0.393911 0.08113,0.311351 0.0758,0.743351 -0.01186,0.96 -0.08766,0.21665 -0.154039,-0.03809 -0.147517,-0.566089 z m -0.357121,-1.626666 c 0.01535,-0.372784 0.09118,-0.448608 0.193333,-0.193334 0.09244,0.230998 0.08107,0.506998 -0.02526,0.613334 -0.106333,0.106333 -0.181965,-0.08267 -0.16807,-0.42 z m 3.387641,-1.013334 c -0.104251,-0.836 -0.06554,-2.024 0.08602,-2.64 0.22677,-0.92168 0.281366,-0.652528 0.308321,1.52 0.01802,1.452 -0.02069,2.64 -0.08602,2.64 -0.06533,0 -0.204071,-0.684 -0.308322,-1.52 z m -2.398244,-0.04861 c 0.305448,-0.489101 0.274562,-0.769654 -0.157289,-1.428742 -0.92276,-1.408311 -0.454531,-1.687488 0.54046,-0.322247 0.513288,0.704291 0.539581,0.929136 0.185927,1.589946 -0.226548,0.423309 -0.532792,0.769651 -0.680543,0.769651 -0.147751,0 -0.0976,-0.273875 0.111445,-0.608608 z M 12.8,50.239999 c 0,-0.176 0.144,-0.32 0.32,-0.32 0.176,0 0.32,0.144 0.32,0.32 0,0.176 -0.144,0.32 -0.32,0.32 -0.176,0 -0.32,-0.144 -0.32,-0.32 z m -0.440468,-1.132371 c -0.308793,-0.804701 -0.217699,-1.012336 0.159531,-0.363629 0.186781,0.3212 0.272192,0.651411 0.189802,0.733802 -0.08239,0.08239 -0.23959,-0.08419 -0.349333,-0.370173 z M 23.04,49.317769 c 0,-0.176 0.144,-0.408996 0.32,-0.51777 0.176,-0.108774 0.32,-0.05377 0.32,0.12223 0,0.176 -0.144,0.408996 -0.32,0.51777 -0.176,0.108774 -0.32,0.05377 -0.32,-0.12223 z m -8.887034,-1.536733 c -0.47114,-0.83801 -0.511718,-1.909872 -0.08235,-2.175239 0.378284,-0.233792 0.74495,1.08728 0.588869,2.121655 L 14.54593,48.479999 Z M 25.92,46.719999 c 0,-0.176 0.144,-0.32 0.32,-0.32 0.176,0 0.32,0.144 0.32,0.32 0,0.176 -0.144,0.32 -0.32,0.32 -0.176,0 -0.32,-0.144 -0.32,-0.32 z M 12.825263,45.573333 c 0.01535,-0.372784 0.09118,-0.448608 0.193333,-0.193334 0.09244,0.230998 0.08107,0.506998 -0.02526,0.613334 -0.106333,0.106333 -0.181965,-0.08267 -0.16807,-0.42 z m 0.64,-1.599999 c 0.01535,-0.372784 0.09118,-0.448608 0.193333,-0.193335 0.09244,0.230999 0.08107,0.506998 -0.02526,0.613334 -0.106333,0.106333 -0.181965,-0.08267 -0.16807,-0.419999 z m 1.438483,-3.546845 c -0.1126,-0.293431 -0.07401,-0.664231 0.08576,-0.824 0.173988,-0.173987 0.290491,0.03998 0.290491,0.53351 0,0.959277 -0.09228,1.030522 -0.376254,0.29049 z M 14.72,38.719999 c 0,-0.176 0.152499,-0.32 0.338885,-0.32 0.186387,0 0.249889,0.144 0.141115,0.32 -0.108774,0.176 -0.261272,0.32 -0.338885,0.32 -0.07761,0 -0.141115,-0.144 -0.141115,-0.32 z m 2.585263,-0.826665 c 0.01535,-0.372784 0.09118,-0.448608 0.193333,-0.193335 0.09244,0.230999 0.08107,0.506999 -0.02526,0.613335 -0.106333,0.106332 -0.181965,-0.08267 -0.16807,-0.42 z M 17.2898,36.319999 c 0,-0.176 0.13959,-0.536 0.3102,-0.8 0.17061,-0.264 0.3102,-0.336 0.3102,-0.16 0,0.176 -0.13959,0.536 -0.3102,0.8 -0.17061,0.264 -0.3102,0.336 -0.3102,0.16 z m 11.043866,-0.457888 c -0.101258,-0.16384 -0.03776,-0.388339 0.141114,-0.498886 0.178871,-0.110547 0.32522,0.0235 0.32522,0.297888 0,0.562089 -0.192018,0.644851 -0.466334,0.200998 z m 0.638752,-1.216294 c -0.138796,-0.744803 -0.36494,-1.284605 -0.502544,-1.199558 -0.137604,0.08504 -0.167431,-0.16184 -0.06628,-0.548631 0.159397,-0.609536 0.242228,-0.534963 0.621536,0.559559 0.240697,0.694547 0.384084,1.550812 0.318638,1.902812 -0.07325,0.393971 -0.216003,0.119424 -0.371347,-0.714182 z M 16.24,34.375372 C 16.108,34.242252 16,33.731129 16,33.239548 c 0,-0.793997 0.106785,-0.886291 0.95647,-0.826665 0.909621,0.06383 0.926703,0.09063 0.348746,0.547116 -0.334249,0.264 -0.65666,0.744919 -0.71647,1.068708 C 16.528936,34.352495 16.372,34.508495 16.24,34.375372 Z m 0.56,-1.415373 c 0.108774,-0.176 0.04527,-0.32 -0.141115,-0.32 -0.186386,0 -0.338885,0.144 -0.338885,0.32 0,0.176 0.0635,0.32 0.141115,0.32 0.07761,0 0.230111,-0.144 0.338885,-0.32 z m 12.96,-1.92 c 0,-0.176 0.144,-0.32 0.32,-0.32 0.176,0 0.32,0.144 0.32,0.32 0,0.176 -0.144,0.32 -0.32,0.32 -0.176,0 -0.32,-0.144 -0.32,-0.32 z m -10.08,-0.64 c 0.108774,-0.176 0.333272,-0.32 0.498885,-0.32 0.165614,0 0.301115,0.144 0.301115,0.32 0,0.176 -0.224499,0.32 -0.498885,0.32 -0.274387,0 -0.409889,-0.144 -0.301115,-0.32 z m 2.4,-2.72 c -0.229616,-0.276669 -0.260716,-0.48 -0.07342,-0.48 0.17872,0 0.407833,0.216 0.509139,0.48 0.101307,0.264 0.134345,0.48 0.07342,0.48 -0.06093,0 -0.290039,-0.216 -0.509139,-0.48 z m 0.3249,-0.971428 c 0.0087,-0.550892 0.593748,-1.25659 0.838653,-1.011685 0.131093,0.131093 -0.0051,0.48178 -0.302601,0.779304 -0.297524,0.297524 -0.538747,0.402095 -0.536052,0.232381 z M 23.68,26.559999 c 0,-0.176 0.144,-0.32 0.32,-0.32 0.176,0 0.32,0.144 0.32,0.32 0,0.176 -0.144,0.32 -0.32,0.32 -0.176,0 -0.32,-0.144 -0.32,-0.32 z m 2.56,-0.64 c 0,-0.176 0.152499,-0.32 0.338885,-0.32 0.186387,0 0.249889,0.144 0.141115,0.32 -0.108774,0.176 -0.261272,0.32 -0.338885,0.32 -0.07761,0 -0.141115,-0.144 -0.141115,-0.32 z"
       id="path4824"
       inkscape:connector-curvature="0" />
    <path
       style="fill:#12202a;stroke-width:0.31999999"
       d="m 46.711203,87.778216 c -1.6332,-1.118346 -5.082947,-4.343043 -5.886329,-5.502326 l -0.833623,-1.202919 0.652967,-3.176486 c 0.7903,-3.84457 2.50079,-10.492221 3.013452,-11.711482 0.34746,-0.826361 0.459988,-0.581196 1.692826,3.688128 1.49615,5.181171 3.316573,9.953139 5.354141,14.035091 l 1.391782,2.788221 -1.38519,0.811779 c -1.612067,0.944733 -2.888807,1.030909 -4.000026,0.269994 z M 12.8,78.738885 c 0,-0.165613 0.142351,-0.389095 0.316335,-0.496621 0.181395,-0.112109 0.235042,0.01635 0.125763,0.301114 C 13.029365,79.097752 12.8,79.199182 12.8,78.738885 Z m 2.24,-3.858887 c 0.188385,-0.352 0.414518,-0.64 0.502518,-0.64 0.088,0 0.0059,0.288 -0.182518,0.64 -0.188385,0.352 -0.414518,0.64 -0.502518,0.64 -0.088,0 -0.0059,-0.288 0.182518,-0.64 z m 0.6498,-1.12 c 0,-0.176 0.13959,-0.535999 0.3102,-0.799999 0.17061,-0.264 0.3102,-0.336 0.3102,-0.16 0,0.176 -0.13959,0.536 -0.3102,0.799999 -0.17061,0.264 -0.3102,0.336 -0.3102,0.16 z M 32.150157,63.628431 C 30.32736,62.027992 28.209766,59.078312 26.394211,55.610744 l -1.676245,-3.201497 1.497835,-2.284624 C 28.934113,45.978425 29.44,44.931698 29.44,43.453462 c 0,-2.269712 0.933786,-9.129434 1.440894,-10.585002 0.258385,-0.741654 0.471887,-1.662757 0.474449,-2.046896 0.0028,-0.420773 0.265788,-0.781316 0.661505,-0.906912 0.502957,-0.159632 0.574288,-0.307954 0.304461,-0.633075 -0.257738,-0.310555 -0.252653,-0.486238 0.01894,-0.654086 0.204221,-0.126217 0.479315,-0.05474 0.611315,0.158843 0.132,0.21358 0.331901,0.376029 0.444221,0.360997 0.647984,-0.08672 0.857878,0.01169 0.670742,0.314484 -0.116192,0.187998 -0.38183,0.276359 -0.590313,0.196357 -0.208484,-0.08 -0.39744,0.09018 -0.419898,0.378184 -0.02246,0.288004 -0.254,1.171643 -0.514534,1.963643 -0.963258,2.928234 -1.904376,8.833651 -1.762603,11.060151 0.07608,1.194783 0.08159,2.002124 0.01225,1.794095 C 30.648602,44.425804 30.08,44.668396 30.08,45.157769 c 0,0.176 0.136815,0.235446 0.304034,0.132099 0.167218,-0.103347 0.759123,0.312205 1.315344,0.923449 0.568939,0.625226 1.450769,1.19657 2.015966,1.306167 0.55256,0.107145 1.526739,0.416886 2.164842,0.68831 l 1.160185,0.493498 -0.516893,1.009353 c -0.284291,0.555146 -0.539635,1.873354 -0.567436,2.929354 -0.02781,1.056 -0.206791,2.318825 -0.39776,2.806278 -0.547018,1.396275 -1.240042,4.674711 -1.486852,7.033722 -0.124294,1.188 -0.348201,2.16 -0.497574,2.16 -0.149373,0 -0.790038,-0.455207 -1.423699,-1.011568 z m -1.8484,-21.302342 c -0.08113,-0.311351 -0.152852,-0.13409 -0.159373,0.39391 -0.0065,0.528 0.05986,0.782739 0.147516,0.56609 0.08766,-0.21665 0.09299,-0.64865 0.01186,-0.96 z m -0.0032,-3.66609 c -0.102152,-0.255273 -0.177978,-0.179449 -0.193333,0.193335 -0.0139,0.337331 0.06174,0.526332 0.16807,0.42 0.106333,-0.106336 0.117702,-0.382336 0.02526,-0.613335 z M 31.36,35.95671 c 0,-0.238864 -0.204802,-0.338036 -0.48,-0.232432 -0.264,0.101308 -0.48,0.288787 -0.48,0.416624 0,0.127836 0.216,0.232432 0.48,0.232432 0.264,0 0.48,-0.187482 0.48,-0.416624 z m 0.359708,-3.722045 c -0.316037,-0.313685 -0.352793,-0.276928 -0.179134,0.179136 0.12017,0.31559 0.299101,0.49319 0.397625,0.394666 0.09852,-0.09853 2.03e-4,-0.356733 -0.218491,-0.573802 z m 0.406753,-1.326677 c -0.101987,-0.265772 0.06696,-0.514172 0.410041,-0.602879 0.500384,-0.129379 0.506423,-0.156156 0.04238,-0.187989 -0.626064,-0.04295 -1.026607,0.457337 -0.738886,0.922879 0.293914,0.475561 0.485693,0.387181 0.286461,-0.132011 z m -10.463932,26.53603 c 0.292696,-0.613792 0.588984,-1.059171 0.658418,-0.989738 0.146388,0.146388 -0.825023,2.105719 -1.043988,2.105719 -0.08063,0 0.09287,-0.502192 0.38557,-1.115981 z"
       id="path4822"
       inkscape:connector-curvature="0" />
  </g>
  <path
     style="fill:#008080;fill-opacity:1;stroke-width:0.41491523"
     d="m 41.463081,52.139226 c -2.787346,-1.041144 -5.252107,-2.079865 -5.477245,-2.308268 -0.383807,-0.389373 -0.183784,-1.962604 0.533714,-4.197793 0.232132,-0.72315 0.04135,-0.970649 -1.076959,-1.397122 -3.539237,-1.349706 -3.909275,-1.62357 -4.463733,-3.303593 -0.442306,-1.340202 -0.454798,-2.346734 -0.06381,-5.141629 0.978863,-6.997226 2.365507,-10.537547 4.056642,-10.357246 0.424324,0.04524 3.012355,0.20998 5.751181,0.366091 l 4.979682,0.283837 0.7646,-1.610836 c 1.416665,-2.98459 4.457472,-7.555933 5.46545,-8.216385 1.125117,-0.737204 1.60898,-0.842389 1.25727,-0.27331 -0.272628,0.441122 5.929948,7.7035 6.592562,7.718997 0.834744,0.01953 0.269066,2.368063 -1.095841,4.549623 -2.58482,4.131375 -4.272984,6.420425 -4.740526,6.427868 -0.449967,0.0072 -1.024314,1.168171 -1.627859,3.290627 -0.156578,0.550627 -0.272924,2.251192 -0.258548,3.779034 0.02373,2.521993 -0.111762,2.98399 -1.470816,5.015132 -0.823326,1.230481 -2.073159,3.369151 -2.777407,4.7526 l -1.280453,2.515363 z"
     id="path4836"
     inkscape:connector-curvature="0" />
  <path
     style="fill:#d45500;fill-opacity:1;stroke-width:0.41491523"
     d="m 64.645668,49.727592 c 0.113781,-0.537522 -0.553946,-1.767149 -0.857682,-1.57943 -0.657551,0.406389 -0.332975,-2.982137 0.407391,-4.2531 0.439634,-0.754705 0.799334,-1.673592 0.799334,-2.041971 0,-1.089962 -3.594425,-4.26177 -4.829615,-4.26177 -0.933899,0 -1.007512,-0.08831 -0.541578,-0.649731 0.961104,-1.158058 3.016934,-1.954761 5.245657,-2.032865 1.198691,-0.04201 2.230767,0.06361 2.293504,0.234702 0.06274,0.171095 0.390341,0.371762 0.728011,0.445928 0.981238,0.215521 2.873496,2.800874 3.091597,4.223986 0.434803,2.837107 0.469036,3.853997 0.142427,4.230834 -0.187459,0.216286 -0.896549,0.998362 -1.575757,1.737946 -0.679208,0.739584 -1.237783,1.579787 -1.241277,1.867118 -0.0044,0.358196 -0.127917,0.330193 -0.393062,-0.08908 -0.325812,-0.515206 -0.555419,-0.453004 -1.458078,0.395001 -0.589254,0.553575 -0.978372,1.248851 -0.864707,1.545059 0.113666,0.296207 -0.06754,0.538559 -0.402686,0.538559 -0.335143,0 -0.579709,-0.140034 -0.543479,-0.311187 z"
     id="path4838"
     inkscape:connector-curvature="0" />
  <path
     style="fill:#d45500;fill-opacity:1;stroke-width:0.10372881"
     d="m 62.677584,42.554476 c -0.118861,-0.633584 0.384903,-1.327027 0.533611,-0.734528 0.09778,0.389592 -0.07477,1.0206 -0.290333,1.061722 -0.128557,0.02452 -0.193743,-0.06315 -0.243278,-0.327194 z"
     id="path4840"
     inkscape:connector-curvature="0" />
  <path
     style="fill:#d45500;fill-opacity:1;stroke-width:0.10372881"
     d="m 61.697552,45.780711 c 0.0023,-0.539017 0.108319,-0.803898 0.321868,-0.803898 0.261064,0 0.256075,0.365927 -0.01096,0.803898 -0.11305,0.185415 -0.229571,0.337119 -0.258935,0.337119 -0.02936,0 -0.05275,-0.151704 -0.05197,-0.337119 z"
     id="path4842"
     inkscape:connector-curvature="0" />
  <path
     style="fill:#d45500;fill-opacity:1;stroke-width:0.10372881"
     d="m 58.013762,37.141541 c -0.171152,-0.07837 -0.427881,-0.14936 -0.570508,-0.157758 -0.236091,-0.0139 -0.228906,-0.02502 0.08021,-0.124104 0.400403,-0.128349 1.107901,0.04026 1.202414,0.286556 0.07556,0.196916 -0.276887,0.194593 -0.712113,-0.0047 z"
     id="path4844"
     inkscape:connector-curvature="0" />
  <path
     style="fill:#d45500;fill-opacity:1;stroke-width:0.10372881"
     d=""
     id="path4846"
     inkscape:connector-curvature="0" />
  <path
     style="fill:#d45500;fill-opacity:1;stroke-width:0.10372881"
     d="m 56.250333,36.43102 c -0.171175,-0.0746 -0.38086,-0.219542 -0.465967,-0.322089 -0.143518,-0.172929 -0.135994,-0.180651 0.103769,-0.106482 0.419401,0.129738 0.829017,0.36259 0.829017,0.471265 0,0.130803 -0.08698,0.122848 -0.466819,-0.04269 z"
     id="path4848"
     inkscape:connector-curvature="0" />
  <path
     style="fill:#d45500;fill-opacity:1;stroke-width:0.10372881"
     d="m 54.756724,35.5692 c -0.173729,-0.210764 -0.293123,-0.405954 -0.26532,-0.433757 0.06091,-0.06091 0.773545,0.614914 0.773545,0.733582 0,0.185942 -0.209871,0.06213 -0.508225,-0.299825 z"
     id="path4850"
     inkscape:connector-curvature="0" />
  <path
     style="fill:#d45500;fill-opacity:1;stroke-width:0.10372881"
     d=""
     id="path4852"
     inkscape:connector-curvature="0" />
  <path
     style="fill:#d45500;fill-opacity:1;stroke-width:0.10372881"
     d=""
     id="path4854"
     inkscape:connector-curvature="0" />
  <path
     style="fill:#d45500;fill-opacity:1;stroke-width:0.0518644"
     d="m 56.634676,38.708999 c 8.58e-4,-0.109841 0.237232,-0.579275 0.330557,-0.65648 0.06341,-0.05246 0.104077,-0.05718 0.14449,-0.01676 0.08767,0.08767 0.0066,0.305842 -0.197651,0.531924 -0.190861,0.21126 -0.278291,0.255801 -0.277396,0.141319 z"
     id="path4856"
     inkscape:connector-curvature="0" />
  <path
     style="fill:#d45500;fill-opacity:1;stroke-width:0.0518644"
     d="m 63.480271,39.902936 c -0.665522,-0.392458 -0.947646,-0.584796 -1.142221,-0.778707 -0.210299,-0.209581 -0.398682,-0.53831 -0.341345,-0.595647 0.0458,-0.0458 1.206128,0.908775 1.584503,1.303525 0.199796,0.208443 0.169033,0.230031 -0.100937,0.07083 z"
     id="path4858"
     inkscape:connector-curvature="0" />
  <path
     style="fill:#d45500;fill-opacity:1;stroke-width:0.0518644"
     d="m 63.322915,46.224548 c -0.05034,-0.338326 -0.05084,-0.489071 -0.0023,-0.691325 0.100276,-0.417998 0.948706,-2.097821 1.022352,-2.024175 0.0119,0.0119 -0.08329,0.240826 -0.211547,0.508719 -0.128253,0.267894 -0.289597,0.685461 -0.358541,0.927927 -0.133125,0.468172 -0.292588,1.321154 -0.292588,1.565072 0,0.303545 -0.09544,0.129946 -0.157356,-0.286218 z"
     id="path4860"
     inkscape:connector-curvature="0" />
  <path
     style="fill:#d45500;fill-opacity:1;stroke-width:0.0518644"
     d="m 64.373942,48.981796 c -0.187933,-0.274125 -0.44229,-0.770534 -0.4109,-0.801924 0.01263,-0.01263 0.08794,0.05387 0.16736,0.147784 0.157986,0.186822 0.46748,0.807884 0.424174,0.85119 -0.01486,0.01486 -0.09614,-0.07381 -0.180634,-0.19705 z"
     id="path4862"
     inkscape:connector-curvature="0" />
  <path
     style="fill:#d45500;fill-opacity:1;stroke-width:0.0518644"
     d="m 64.246707,48.876041 c -0.0426,-0.06507 -0.142173,-0.246678 -0.221285,-0.403567 -0.07911,-0.15689 -0.169952,-0.302401 -0.201868,-0.323359 -0.03732,-0.02451 -0.02813,-0.03839 0.02574,-0.0389 0.101758,-9.65e-4 0.35708,0.192329 0.35708,0.270331 0,0.03088 -0.05096,0.01168 -0.113235,-0.04266 -0.0887,-0.07739 -0.07131,-0.0216 0.08023,0.257495 0.185905,0.342373 0.233858,0.525886 0.07334,0.280661 z"
     id="path4864"
     inkscape:connector-curvature="0" />
  <path
     style="fill:#d45500;fill-opacity:1;stroke-width:0.0518644"
     d="m 64.324912,49.197319 c -0.248378,-0.269637 -0.568144,-0.759321 -0.595575,-0.912054 -0.03941,-0.219433 0.11372,-0.09232 0.299081,0.248265 0.112138,0.206043 0.291408,0.476396 0.398378,0.600785 0.178299,0.207332 0.238051,0.323582 0.166321,0.323582 -0.01549,0 -0.136186,-0.11726 -0.268205,-0.260578 z"
     id="path4866"
     inkscape:connector-curvature="0" />
  <path
     style="fill:#d45500;fill-opacity:1;stroke-width:0.0518644"
     d="m 66.946907,47.625524 c 0.12566,-0.133759 0.520004,-0.345932 0.642948,-0.345932 0.0433,0 0.107571,0.03475 0.14282,0.07722 0.05428,0.0654 0.01357,0.101122 -0.265938,0.233349 -0.181514,0.08587 -0.398276,0.156146 -0.481693,0.156168 l -0.151668,4.1e-5 z"
     id="path4868"
     inkscape:connector-curvature="0" />
  <path
     style="fill:#d45500;fill-opacity:1;stroke-width:0.10372881"
     d="m 71.321076,42.406322 c -0.163287,-1.878284 -0.373802,-2.933565 -0.739639,-3.707697 -0.721718,-1.527196 -1.70178,-2.659222 -2.717883,-3.139308 -0.373902,-0.17666 -0.654812,-0.346211 -0.624244,-0.376778 0.105145,-0.105146 1.406571,0.589459 1.980734,1.05717 0.917557,0.747435 2.023994,2.488442 1.876592,2.952864 -0.03064,0.09655 -0.011,0.287337 0.04366,0.423969 0.08926,0.223151 0.101295,0.227319 0.11827,0.04097 0.01039,-0.114102 0.07889,0.02593 0.152211,0.311186 0.147361,0.573298 0.184525,2.256907 0.06411,2.904407 -0.06971,0.374864 -0.08456,0.329806 -0.153809,-0.466779 z m 0.106326,-1.679111 c -0.03311,-0.08275 -0.05769,-0.05817 -0.06267,0.06267 -0.0045,0.109347 0.02001,0.170612 0.05448,0.136144 0.03447,-0.03447 0.03815,-0.123934 0.0082,-0.198814 z m -0.10589,-0.732584 c -0.02877,-0.07131 -0.05232,-0.01297 -0.05232,0.129661 0,0.142627 0.02354,0.200974 0.05232,0.129661 0.02878,-0.07131 0.02878,-0.188009 0,-0.259322 z"
     id="path4878"
     inkscape:connector-curvature="0" />
  <path
     style="fill:#d45500;fill-opacity:1;stroke-width:0.10372881"
     d=""
     id="path4880"
     inkscape:connector-curvature="0" />
  <path
     style="fill:#d45500;fill-opacity:1;stroke-width:0.10372881"
     d="m 59.870552,37.770371 c 0.100925,-0.0263 0.240958,-0.02457 0.311186,0.0038 0.07023,0.02841 -0.01235,0.04993 -0.183499,0.04782 -0.171153,-0.0021 -0.228612,-0.02536 -0.127687,-0.05166 z"
     id="path4882"
     inkscape:connector-curvature="0" />
</svg>
