<?xml version="1.0" encoding="UTF-8" standalone="no"?>
<!-- Created with Inkscape (http://www.inkscape.org/) -->

<svg
   xmlns:dc="http://purl.org/dc/elements/1.1/"
   xmlns:cc="http://creativecommons.org/ns#"
   xmlns:rdf="http://www.w3.org/1999/02/22-rdf-syntax-ns#"
   xmlns:svg="http://www.w3.org/2000/svg"
   xmlns="http://www.w3.org/2000/svg"
   xmlns:sodipodi="http://sodipodi.sourceforge.net/DTD/sodipodi-0.dtd"
   xmlns:inkscape="http://www.inkscape.org/namespaces/inkscape"
   version="1.1"
   id="svg4132"
   width="88"
   height="97.919998"
   viewBox="0 0 88 97.919998"
   sodipodi:docname="4444.jpg">
  <metadata
     id="metadata4138">
    <rdf:RDF>
      <cc:Work
         rdf:about="">
        <dc:format>image/svg+xml</dc:format>
        <dc:type
           rdf:resource="http://purl.org/dc/dcmitype/StillImage" />
      </cc:Work>
    </rdf:RDF>
  </metadata>
  <defs
     id="defs4136" />
  <sodipodi:namedview
     pagecolor="#ffffff"
     bordercolor="#666666"
     borderopacity="1"
     objecttolerance="10"
     gridtolerance="10"
     guidetolerance="10"
     inkscape:pageopacity="0"
     inkscape:pageshadow="2"
     inkscape:window-width="640"
     inkscape:window-height="480"
     id="namedview4134"
     showgrid="false" />
  <g
     id="g4142">
    <path
       style="fill:#a6c4c6;stroke-width:0.31999999"
       d="M 43.438224,96.004641 C 43.1312,95.646062 42.88,95.218494 42.88,95.054484 c 0,-0.443622 -1.333347,-1.294486 -2.028525,-1.294486 -0.436736,0 -0.561936,0.168954 -0.448019,0.604576 0.08696,0.332518 0.02541,0.800518 -0.136778,1.04 -0.233328,0.344538 -0.408825,0.270077 -0.840777,-0.356723 -0.300247,-0.43568 -1.157923,-1.484512 -1.905952,-2.330739 -0.748029,-0.846227 -1.741703,-2.28976 -2.208167,-3.207853 -1.77775,-3.498976 -1.851552,-4.081424 -1.862057,-14.695773 L 33.44,64.986978 32.33961,64.174799 c -1.587104,-1.171408 -4.616947,-5.327021 -6.261581,-8.588135 l -1.418811,-2.813334 -1.687469,3.293334 c -2.780719,5.426967 -3.153296,6.339799 -4.103627,10.054071 -1.16982,4.572131 -2.041215,6.684473 -4.576716,11.094399 -1.133621,1.971677 -2.683196,5.024864 -3.4435,6.784864 -0.760304,1.76 -1.7102039,3.685277 -2.1108887,4.278394 C 8.0014467,89.367224 7.210959,91.700453 6.8798726,93.759998 6.6309786,95.30826 6.0331392,95.980696 4.7753174,96.127147 3.4204179,96.2849 2.3772616,95.894398 1.9322283,95.062846 1.6573439,94.54922 1.7617817,93.999291 2.4365014,92.407528 3.2048483,90.594891 3.314089,89.825285 3.5617648,84.479998 4.0395939,74.167595 4.753297,70.758479 7.7396064,64.523874 9.560015,60.723352 9.728977,60.18356 9.9432166,57.483874 10.324589,52.678105 11.431288,46.728601 14.081578,35.236428 c 1.153001,-4.999633 3.267447,-8.389214 6.371656,-10.214137 1.273058,-0.748413 1.804851,-0.859985 4.026766,-0.844826 3.141364,0.02143 4.788913,0.694147 7.325098,2.990927 0.982108,0.8894 2.183731,1.704385 2.670275,1.811077 0.486544,0.106692 1.100627,0.282332 1.364627,0.390312 0.264,0.107979 2.745766,0.275952 5.515037,0.373272 l 5.03504,0.176946 0.392035,-0.96 c 0.597117,-1.462186 2.871664,-5.425986 3.182845,-5.546666 C 50.11623,23.354666 50.24,23.135476 50.24,22.926243 50.24,22.375161 52.134691,20.16 52.606048,20.16 c 0.219702,0 1.045696,-0.619208 1.835546,-1.376017 1.671404,-1.601488 6.18648,-4.01429 9.398406,-5.022397 3.032384,-0.951755 8.442298,-1.202476 11.570317,-0.536222 4.527216,0.964275 10.096416,4.274969 11.554048,6.868473 0.760976,1.353975 0.93047,3.226814 0.384377,4.2472 -0.463872,0.866753 -0.705785,0.795974 -2.44928,-0.716615 L 83.36,22.288845 83.257184,23.384422 c -0.160144,1.706485 -0.579907,1.773001 -1.274829,0.202013 -0.927782,-2.09741 -2.881683,-3.171713 -6.108307,-3.358499 -2.113174,-0.12233 -2.843187,-0.0064 -5.440019,0.863575 -3.974179,1.331472 -6.735043,2.917418 -8.504189,4.885136 -1.125779,1.252137 -1.44984,1.858402 -1.44984,2.712413 0,1.147266 -1.982966,4.43596 -4.531491,7.515349 -0.67568,0.816425 -1.228509,1.633974 -1.228509,1.816774 0,0.599648 1.612867,1.617143 3.375738,2.129623 1.676096,0.487254 1.751596,0.481859 2.405385,-0.17193 2.224176,-2.224176 6.857235,-2.086803 9.379229,0.278099 3.510893,3.292205 2.331168,9.899782 -2.017283,11.298701 -1.47761,0.475353 -1.943069,0.861238 -1.943069,1.610883 0,0.571843 -0.04685,0.577498 -0.783834,0.09461 C 64.705059,52.978693 64.196435,52.275205 64.005894,51.697858 63.677885,50.70398 63.52448,50.618975 61.122195,50.099932 58.632627,49.562028 56.96,48.66693 56.96,47.872553 c 0,-0.795325 -1.484211,-1.788925 -2.978112,-1.99369 C 52.516544,45.678018 52.48,45.693781 52.48,46.52678 c 0,1.273008 -0.706189,2.734061 -2.540355,5.255811 -0.906109,1.245789 -1.877619,2.956345 -2.158909,3.801238 -0.281293,0.844893 -0.633853,1.693504 -0.783469,1.885802 -0.149616,0.192297 -0.856294,1.905113 -1.570397,3.806259 l -1.298368,3.456627 1.294804,4.445194 c 1.759926,6.041996 3.195216,9.786031 5.936598,15.485958 2.521078,5.241862 3.732771,6.684166 5.911715,7.036832 2.523888,0.408496 2.888381,0.529225 2.888381,0.956707 0,0.686169 -1.857069,1.491702 -4.16,1.80447 -1.144,0.15537 -2.609021,0.36313 -3.255603,0.46169 -1.051895,0.160342 -1.224701,0.08331 -1.642163,-0.732084 -0.256605,-0.501209 -0.569085,-1.528284 -0.694397,-2.28239 -0.275802,-1.659702 -1.454522,-3.149229 -2.710391,-3.425065 -1.036688,-0.227693 -5.434035,-3.962224 -6.760995,-5.741901 -0.848339,-1.137766 -0.866422,-1.144509 -1.054931,-0.39343 -0.105488,0.420297 -0.146608,2.005279 -0.09138,3.522179 0.115597,3.174806 0.337174,3.549913 2.770093,4.68943 1.316784,0.616749 1.656208,0.952029 1.918054,1.894624 0.433706,1.561273 0.40233,2.992694 -0.08006,3.652406 -0.375555,0.513603 -0.438205,0.506915 -0.96,-0.102496 z m 2.877859,-38.94598 c -0.310157,-0.08091 -0.481657,-0.280201 -0.381117,-0.44288 0.100544,-0.162681 0.0388,-0.295782 -0.137196,-0.295782 -0.176,0 -0.401396,0.131702 -0.500877,0.292669 -0.198717,0.321526 0.351933,0.623504 1.103107,0.604947 0.318237,-0.0079 0.289955,-0.06143 -0.08392,-0.158954 z m -5.518349,-2.014998 c 0.109178,-0.17665 -0.0095,-0.237667 -0.268745,-0.138183 -0.255338,0.09798 -0.559315,0.02432 -0.675507,-0.163667 -0.116189,-0.187997 -0.374276,-0.341814 -0.57353,-0.341814 -0.199251,0 -0.08275,0.211421 0.258886,0.469824 0.740887,0.560377 0.998058,0.595888 1.258896,0.17384 z M 58.410192,45.762508 C 58.626906,45.048719 58.597094,45.010847 58.12616,45.401692 57.836771,45.641861 57.6,46.137532 57.6,46.50318 c 0,0.81168 0.469082,0.382845 0.810192,-0.740672 z M 52.64,31.999999 c -0.108774,-0.176 -0.34177,-0.32 -0.51777,-0.32 -0.176,0 -0.231004,0.144 -0.12223,0.32 0.108774,0.176 0.34177,0.32 0.51777,0.32 0.176,0 0.231004,-0.144 0.12223,-0.32 z m 5.6,-6.200817 c 0,-0.06645 -0.219296,-0.302818 -0.487325,-0.525262 -0.407472,-0.338171 -0.454297,-0.318374 -0.285763,0.120817 C 57.639037,25.843293 58.24,26.157689 58.24,25.799182 Z M 56.115722,23.52 c -0.101309,-0.264 -0.33042,-0.48 -0.50914,-0.48 -0.187299,0 -0.156198,0.20333 0.07342,0.48 0.219101,0.264 0.448214,0.48 0.509139,0.48 0.06093,0 0.0279,-0.216 -0.07342,-0.48 z M 54.11648,21.253697 C 53.744416,20.780693 53.44,20.490176 53.44,20.608104 c 0,0.37828 1.041053,1.81751 1.199827,1.658734 0.08422,-0.08422 -0.15128,-0.540138 -0.523347,-1.013141 z"
       id="path4156"
       inkscape:connector-curvature="0" />
    <path
       style="fill:#dc9f8a;stroke-width:0.31999999"
       d="M 2.88,95.587867 C 1.9008693,95.095 1.6932677,93.846667 2.372118,92.533915 3.1619465,91.006555 3.4708131,89.0782 3.6621213,84.479998 4.0516419,75.117653 5.065823,70.169355 7.651015,65.017759 9.4791542,61.374767 10.24,58.879906 10.24,56.528316 c 0,-0.867469 0.288959,-3.270832 0.642131,-5.340807 0.723858,-4.242601 3.336683,-16.517919 3.87976,-18.22751 0.712773,-2.243788 2.643564,-5.497513 3.900945,-6.573784 C 20.071097,25.180795 22.859751,24 24.298297,24 c 1.839291,0 5.069973,1.267713 6.744515,2.646536 0.904059,0.744405 2.037466,1.644376 2.518682,1.999937 l 0.874938,0.646473 -0.708179,0.754784 c -0.797248,0.849714 -1.107411,1.894572 -2.038024,6.865559 -1.363712,7.284451 -0.80543,9.38896 2.822065,10.638083 2.615664,0.900701 2.78858,1.090637 2.138087,2.348553 -0.326023,0.630458 -0.487482,1.576557 -0.427232,2.503437 l 0.09685,1.489974 3.2,1.240596 c 1.76,0.682329 4.1,1.523132 5.2,1.868451 1.1,0.345318 2,0.686208 2,0.757533 0,0.07132 -0.590557,1.658595 -1.312349,3.527273 -1.51776,3.929386 -1.570662,3.256928 0.864087,10.98393 2.492364,7.909862 6.265273,15.910796 8.561328,18.155394 1.114268,1.0893 1.616256,1.339655 3.019324,1.505828 1.965626,0.2328 2.340173,0.410457 2.113066,1.002284 -0.239027,0.622896 -2.892106,1.561651 -3.87985,1.372832 -0.460112,-0.08795 -1.411609,0.04297 -2.114441,0.290941 -2.148851,0.75816 -2.90848,0.212253 -3.414026,-2.453488 -0.378944,-1.998157 -1.213315,-3.026131 -3.131693,-3.858345 -0.822128,-0.35665 -2.612377,-1.820122 -4.454521,-3.641434 -1.693984,-1.674822 -3.108035,-3.045133 -3.142336,-3.045133 -0.279312,0 -0.02534,6.444634 0.277929,7.05296 0.211066,0.423357 1.169463,1.208592 2.12977,1.744967 1.55665,0.869459 1.793293,1.142636 2.181981,2.518816 0.44775,1.585292 0.30887,3.083257 -0.285853,3.083257 -0.184467,0 -0.810726,-0.504 -1.39169,-1.12 -1.277875,-1.354944 -2.420726,-1.506019 -2.420726,-0.32 0,1.045238 -0.443994,1.014061 -1.227437,-0.08618 -0.347062,-0.487402 -1.15696,-1.459402 -1.799779,-2.16 C 35.665845,90.54064 34.326533,87.657635 33.727871,84.64 33.308604,82.526631 33.251061,80.572621 33.398053,73.440001 l 0.178058,-8.64 -1.01657,-0.64 c -1.476865,-0.929792 -4.501114,-4.990547 -6.237072,-8.374717 -0.827972,-1.614093 -1.621523,-2.86295 -1.763446,-2.775238 -0.296294,0.18312 -3.216932,5.8392 -4.324113,8.374038 -0.409375,0.937245 -1.166471,3.375616 -1.682434,5.418605 C 17.621523,70.488858 17.370497,71.057604 12.586385,80.32 11.54097,82.344 10.359874,84.72 9.9617254,85.6 9.5635772,86.48 8.765936,88.136 8.1891894,89.28 7.6124425,90.424 7.0450358,92.070647 6.9282848,92.939213 6.6343962,95.125598 5.9996109,96.00116 4.712623,95.995281 4.1446803,95.992686 3.32,95.809348 2.88,95.587867 Z M 64.874528,52.879999 c -0.277565,-0.308 -0.596278,-0.927245 -0.70825,-1.376096 -0.181465,-0.727443 -0.486291,-0.875533 -2.805993,-1.363206 -2.737104,-0.575428 -3.988691,-1.17993 -4.305168,-2.079344 -0.429581,-1.220861 -1.487571,-1.974228 -3.066682,-2.183706 l -1.587779,-0.210624 0.15159,-2.118669 c 0.171578,-2.397993 1.234548,-5.148355 1.98976,-5.148355 0.273898,0 0.497994,0.126269 0.497994,0.280595 0,0.301933 2.483053,1.448087 3.914285,1.806797 0.67543,0.16928 1.097241,0.03152 1.85455,-0.605718 2.995027,-2.520154 8.087104,-1.532602 10.141504,1.966832 0.710317,1.209945 0.884695,1.894544 0.874045,3.431494 -0.02144,3.095606 -1.450272,5.273606 -4.096378,6.24423 -0.75638,0.27745 -1.463974,0.794602 -1.643888,1.20145 -0.380732,0.86097 -0.552963,0.882944 -1.20959,0.15432 z M 58.410192,45.762508 C 58.626906,45.048719 58.597094,45.010847 58.12616,45.401692 57.836771,45.641861 57.6,46.137532 57.6,46.50318 c 0,0.81168 0.469082,0.382845 0.810192,-0.740672 z M 59.385232,26.82649 C 58.874963,26.23992 57.313754,24.49729 55.915875,22.953979 53.423658,20.20247 53.38415,20.132899 53.882234,19.37273 54.961165,17.726071 60.708931,14.588026 64.48,13.586782 67.606931,12.756562 72.428979,12.618084 75.389421,13.27349 81.883834,14.711276 87.68,19.047914 87.68,22.469191 c 0,1.238949 -0.448326,2.491512 -0.891258,2.490058 C 86.662934,24.958833 86.056,24.519088 85.44,23.982032 83.540922,22.326329 83.2,22.22707 83.2,23.329855 c 0,1.447369 -0.541984,1.476778 -1.260486,0.0684 -1.501117,-2.942431 -5.559143,-4.010772 -10.422759,-2.743961 -4.120531,1.073262 -9.195475,4.14776 -10.720256,6.494537 l -0.483504,0.744153 z"
       id="path4154"
       inkscape:connector-curvature="0" />
    <path
       style="fill:#d7907a;stroke-width:0.31999999"
       d="m 43.797459,95.839998 c -0.103936,-0.176 -0.283625,-0.716 -0.399312,-1.2 -0.115686,-0.484 -0.360096,-0.88 -0.543129,-0.88 -0.183034,0 -0.230042,0.16625 -0.104461,0.369443 0.145907,0.23608 0.08728,0.282269 -0.162403,0.127955 -0.214903,-0.132816 -0.308839,-0.323379 -0.208746,-0.423472 0.100093,-0.100096 -0.05664,-0.445676 -0.348307,-0.767958 -0.440864,-0.487149 -0.451155,-0.585968 -0.06104,-0.585968 0.566355,0 1.869936,1.16127 1.869936,1.665798 0,0.198477 0.08367,0.2772 0.185926,0.174941 0.45312,-0.453117 -1.297484,-2.613849 -1.923187,-2.373744 -0.217129,0.08332 -0.374739,-0.15568 -0.374739,-0.568265 0,-0.391635 0.184915,-0.712064 0.410918,-0.712064 0.30962,0 0.322128,0.106989 0.05074,0.433993 -0.279005,0.336183 -0.255136,0.393684 0.10591,0.255136 0.668762,-0.256627 2.19192,1.268202 2.146573,2.148925 -0.06601,1.281862 -0.448519,2.667459 -0.644682,2.33528 z M 5.9167242,94.56708 C 5.7425258,94.309832 4.88,93.921099 4,93.703227 3.12,93.485355 2.353382,93.278382 2.2964044,93.243284 2.2394268,93.20819 2.4044314,92.770091 2.6630812,92.269736 3.3230573,90.993019 4.1091251,86.549534 3.7792736,85.96012 3.4831296,85.430942 3.9745622,77.778606 4.5011136,74.719998 5.1283354,71.076623 6.0879434,68.132543 7.6866643,64.946719 9.4809696,61.371148 10.24,58.86861 10.24,56.528316 c 0,-0.867469 0.288959,-3.270832 0.642131,-5.340807 0.723858,-4.242601 3.336683,-16.517919 3.87976,-18.22751 0.712773,-2.243788 2.643564,-5.497513 3.900945,-6.573784 C 20.071097,25.180795 22.859751,24 24.298297,24 c 1.839291,0 5.069973,1.267713 6.744515,2.646536 0.904059,0.744405 2.037466,1.644376 2.518682,1.999937 l 0.874938,0.646473 -0.708179,0.754784 c -0.797248,0.849714 -1.107411,1.894572 -2.038024,6.865559 -1.363712,7.284451 -0.80543,9.38896 2.822065,10.638083 2.611047,0.89911 2.788029,1.091705 2.145306,2.334592 -0.328512,0.635277 -0.496605,1.674544 -0.461277,2.851939 0.03056,1.018845 -0.109094,2.160147 -0.310371,2.53623 -0.201274,0.376087 -0.357907,0.873258 -0.348074,1.104829 0.0098,0.231571 0.270845,-0.202237 0.580026,-0.964016 0.437843,-1.078787 0.63879,-1.291066 0.908765,-0.96 0.19064,0.233779 0.273379,1.001053 0.183859,1.705053 -0.08952,0.704 -0.182509,1.604 -0.206643,2 -0.02413,0.396 -0.141677,0.72 -0.261197,0.72 -0.362547,0 -0.869882,3.172643 -1.049002,6.56 -0.214214,4.050992 -0.4471,7.114748 -0.741888,9.759999 -0.127491,1.144 -0.231798,3.736 -0.231798,5.76 0,3.981911 0.598426,6.577767 1.820042,7.895002 0.354502,0.382249 0.666016,1.054141 0.692252,1.493088 0.02624,0.438947 0.100848,0.745053 0.165802,0.680237 0.232877,-0.232394 1.034365,0.811203 1.525184,1.985897 0.456362,1.09223 0.455654,1.159853 -0.0081,0.774957 -0.279462,-0.231933 -0.4292,-0.549383 -0.332749,-0.70544 0.09645,-0.156058 0.0287,-0.283741 -0.150573,-0.283741 -0.766467,0 -3.584211,-3.848214 -3.723366,-5.085027 -0.03187,-0.283235 -0.22553,-0.928813 -0.430358,-1.434621 -0.759284,-1.874963 -1.095412,-8.978278 -0.696964,-14.728707 0.207076,-2.988521 0.462279,-5.57247 0.56712,-5.742105 0.104839,-0.169632 0.02435,-0.205677 -0.178825,-0.0801 -0.226218,0.139808 -0.374221,0.0039 -0.38177,-0.350557 -0.0068,-0.318387 -0.469609,-0.866886 -1.028512,-1.218886 -1.476706,-0.930039 -4.501062,-4.991187 -6.236692,-8.374717 -0.827972,-1.614093 -1.621523,-2.86295 -1.763445,-2.775238 -0.296295,0.18312 -3.216932,5.8392 -4.324113,8.374038 -0.409376,0.937245 -1.166471,3.375616 -1.682434,5.418605 -0.63836,2.527625 -1.465829,4.743852 -2.589651,6.935916 -2.524169,4.923504 -6.1647192,12.189914 -6.5228264,13.019331 -0.176,0.407639 -0.68,0.839511 -1.12,0.959715 -0.4731549,0.129261 -0.57676,0.231584 -0.2535882,0.250452 0.476144,0.02781 0.4247373,0.289094 -0.3997475,2.031897 -0.5203878,1.1 -0.9563942,2.432 -0.968903,2.96 -0.012509,0.528 -0.122097,1.210832 -0.2435283,1.517402 -0.1888039,0.476659 -0.2666628,0.489651 -0.5375088,0.08968 z M 6.48,87.468069 c -0.22,-0.08877 -0.58,-0.08877 -0.8,0 -0.22,0.08877 -0.04,0.161404 0.4,0.161404 0.44,0 0.62,-0.07263 0.4,-0.161404 z m 27.980586,-24.66807 c -0.08049,-0.308 -0.146346,-0.056 -0.146346,0.56 0,0.616 0.06586,0.868 0.146346,0.56 0.08049,-0.308 0.08049,-0.812 0,-1.12 z m 0.318009,-2.38 c -0.10215,-0.255274 -0.177977,-0.17945 -0.193331,0.193334 -0.01389,0.337331 0.06173,0.526333 0.16807,0.42 0.106333,-0.106336 0.1177,-0.382336 0.02525,-0.613334 z m 0.67761,-2.82 v -0.8 l -0.256205,0.8 c -0.140912,0.44 -0.256205,1.16 -0.256205,1.6 v 0.8 l 0.256205,-0.8 c 0.140912,-0.44 0.256205,-1.16 0.256205,-1.6 z m 15.957808,36.52677 c -0.255773,-0.289725 -0.564487,-1.271248 -0.686032,-2.181161 -0.133632,-1.000394 -0.463066,-1.873466 -0.833357,-2.208576 -0.494774,-0.447763 -0.538733,-0.652387 -0.228928,-1.065607 0.310938,-0.414723 0.304435,-0.441609 -0.03438,-0.142179 -1.088384,0.961872 -5.911123,-2.400185 -8.953888,-6.241987 l -0.964979,-1.218387 1.085053,-5.034163 c 0.596781,-2.76879 1.548522,-6.501286 2.114982,-8.294435 1.02297,-3.238247 1.032071,-3.252707 1.347098,-2.140275 2.31687,8.181436 4.194669,13.373436 6.689062,18.494854 1.248061,2.562483 1.272144,2.671651 0.692202,3.137654 -0.571885,0.459523 -0.567856,0.466896 0.08356,0.152934 0.599831,-0.289097 0.737123,-0.202592 1.110989,0.7 0.616013,1.487184 2.404314,3.346381 3.585718,3.727866 0.560391,0.180957 1.55889,0.362419 2.21889,0.403254 0.712694,0.0441 1.2,0.238036 1.2,0.477581 0,0.662966 -1.279536,1.147782 -3.831459,1.451744 -1.324698,0.157786 -2.795754,0.336554 -3.269015,0.397267 -0.513628,0.06589 -1.047929,-0.101949 -1.325513,-0.416384 z M 39.83809,92.796907 c -0.228455,-0.369645 0.938339,-1.993814 1.22582,-1.706333 0.103882,0.103882 -0.129001,0.456074 -0.517516,0.78265 -0.605924,0.509321 -0.638125,0.639513 -0.226394,0.915373 0.291296,0.195171 0.330173,0.323526 0.09889,0.326502 -0.209612,0.0026 -0.470972,-0.140493 -0.580796,-0.318192 z m -0.927191,-0.906915 c -0.110736,-0.179175 -0.04541,-0.422141 0.145171,-0.539927 0.491994,-0.304067 0.809431,0.112432 0.398714,0.523149 -0.229818,0.229818 -0.408806,0.235338 -0.543885,0.01677 z m 0.915943,-1.031283 c -0.11601,-0.187709 -0.142298,-0.40992 -0.05842,-0.493802 0.08388,-0.08388 0.237779,0.0697 0.342,0.34129 0.216377,0.563875 0.03197,0.663059 -0.283584,0.152512 z m -1.714717,-1.164157 c 0.233008,-0.387997 0.492528,-0.636567 0.576713,-0.552381 0.08419,0.08419 -0.106454,0.401635 -0.423648,0.705446 -0.55102,0.527773 -0.55784,0.520954 -0.153065,-0.153065 z M 36.72,79.176421 c -0.340986,-0.345376 -0.297955,-1.982835 0.05789,-2.202755 0.442189,-0.27329 0.559914,0.176448 0.360202,1.376086 -0.09795,0.588365 -0.28609,0.960365 -0.41809,0.826669 z m 2.820573,-0.550224 c 0.120169,-0.315591 0.299101,-0.493191 0.397625,-0.394666 0.09853,0.09852 2.05e-4,0.356733 -0.218489,0.573802 -0.316039,0.313683 -0.352794,0.276928 -0.179136,-0.179136 z m 0.804691,-3.932864 c 0.01536,-0.372784 0.09118,-0.448608 0.193331,-0.193335 0.09244,0.230999 0.08107,0.506999 -0.02525,0.613335 -0.106336,0.106333 -0.181965,-0.08267 -0.16807,-0.42 z m 1.28,-5.12 c 0.01536,-0.372784 0.09118,-0.448608 0.193331,-0.193334 0.09244,0.230998 0.08107,0.506998 -0.02525,0.613334 -0.106336,0.106333 -0.181965,-0.08267 -0.16807,-0.42 z M 42.24,67.218885 c 0,-0.165613 0.142352,-0.389094 0.316336,-0.496621 0.181395,-0.112109 0.23504,0.01635 0.125763,0.301114 C 42.469366,67.577752 42.24,67.679183 42.24,67.218885 Z m 0,-1.618886 c -0.188384,-0.352 -0.270518,-0.64 -0.182518,-0.64 0.088,0 0.314134,0.288 0.502518,0.64 0.188384,0.352 0.270518,0.64 0.182518,0.64 -0.088,0 -0.314134,-0.288 -0.502518,-0.64 z m -1.085763,-0.186173 c -0.254103,-0.662179 -0.277283,-0.580147 0.37719,-1.334762 0.570851,-0.658195 0.571987,-0.65784 1.124621,0.351037 0.54951,1.003174 0.549126,1.005149 -0.05755,0.296288 -0.501517,-0.585994 -0.675011,-0.636166 -0.970141,-0.28056 -0.19767,0.238176 -0.26951,0.667302 -0.159641,0.95361 0.109865,0.286307 0.127757,0.52056 0.03976,0.52056 -0.088,0 -0.247408,-0.227776 -0.354237,-0.506173 z m 1.872605,-1.115117 c -0.11601,-0.187709 -0.142298,-0.40992 -0.05842,-0.493802 0.08388,-0.08388 0.237779,0.0697 0.342,0.34129 0.216377,0.563875 0.03197,0.663059 -0.283584,0.152512 z M 42.24,62.746172 c 0,-0.161607 -0.09896,-0.557607 -0.219914,-0.88 -0.193587,-0.516004 -0.15528,-0.533597 0.32,-0.146992 0.590304,0.480172 0.730269,1.320819 0.219914,1.320819 -0.176,0 -0.32,-0.132224 -0.32,-0.293827 z m 1.776893,-1.598842 c -0.103034,-0.16671 -0.05094,-0.387408 0.115776,-0.490438 0.16671,-0.103034 0.387408,-0.05094 0.490438,0.115776 0.103034,0.16671 0.05094,0.387408 -0.115776,0.490438 -0.16671,0.103034 -0.387408,0.05093 -0.490438,-0.115776 z M 41.92,59.291426 c 0,-0.800288 0.04071,-0.827859 0.517862,-0.350707 0.284826,0.284825 0.42033,0.675683 0.301117,0.868573 C 42.346269,60.444709 41.92,60.175167 41.92,59.291426 Z m 2.368275,-0.782758 c -0.304758,-0.493108 0.03588,-0.625696 0.841671,-0.327616 l 0.74286,0.274803 -0.696083,0.182032 c -0.382848,0.100115 -0.782649,0.04197 -0.888448,-0.129219 z m 20.580384,-5.6328 c -0.280793,-0.310275 -0.69183,-1.241981 -0.913414,-2.070461 -0.426867,-1.59601 -0.46729,-1.444355 1.191936,-4.472045 0.602672,-1.099731 0.25808,-1.698934 -1.655303,-2.878377 -0.969798,-0.597802 -1.344937,-1.017088 -1.214384,-1.357303 0.115428,-0.300796 -0.03437,-0.577968 -0.385104,-0.712556 -0.335955,-0.128919 -0.626204,-0.06368 -0.699865,0.157302 -0.14921,0.447626 -1.352525,0.513658 -1.352525,0.07422 0,-0.18561 -0.364886,-0.176154 -0.94009,0.02435 -1.149715,0.400793 -2.792633,2.262096 -3.0563,3.46255 -0.186816,0.850579 -0.24648,0.874793 -1.53898,0.624598 -0.739548,-0.143155 -1.430716,-0.266557 -1.535932,-0.274221 -0.684279,-0.04985 0.0835,-3.960639 1.217724,-6.202655 0.437015,-0.863847 0.489332,-0.881914 1.059495,-0.365924 0.329881,0.298535 1.506934,0.871264 2.615677,1.27273 l 2.015891,0.729939 1.037056,-0.910547 c 2.92144,-2.565056 8.151811,-1.682518 10.140422,1.711027 2.091402,3.568954 0.952429,7.787056 -2.568294,9.511494 -1.954707,0.957408 -2.741651,1.572151 -2.504259,1.95626 0.317388,0.513542 -0.392343,0.295756 -0.913751,-0.280391 z m -2.778483,-3.496983 c -0.01085,-0.748368 0.472138,-1.252912 0.757462,-0.791248 0.09452,0.152941 -0.03495,0.55129 -0.287712,0.88522 -0.444464,0.58718 -0.459907,0.584092 -0.46975,-0.09397 z M 60.0188,49.310415 c -0.117392,-0.189939 -0.07133,-0.598486 0.102362,-0.907882 0.299491,-0.533488 0.327366,-0.532505 0.539808,0.01898 0.257904,0.669495 -0.300263,1.442125 -0.64217,0.888906 z m -0.662227,-2.177843 c 0.400838,-0.456327 0.5444,-0.474535 0.881142,-0.11176 0.328211,0.353581 0.306349,0.399853 -0.11872,0.251289 -0.286553,-0.100147 -0.683069,-0.04986 -0.881145,0.11176 -0.198074,0.16162 -0.14465,0.04854 0.118723,-0.251289 z m 3.579885,-0.652573 c -0.162247,-0.275552 0.316963,-1.68 0.573232,-1.68 0.09367,0 0.17031,0.432 0.17031,0.96 0,0.886672 -0.411043,1.284701 -0.743542,0.72 z M 60.8,45.778885 c 0,-0.165612 0.137712,-0.386224 0.306026,-0.490249 0.168313,-0.104023 0.219868,-0.436522 0.114566,-0.738887 -0.179136,-0.514377 -0.154829,-0.515315 0.377734,-0.01456 0.637738,0.599636 0.449117,1.54481 -0.308284,1.54481 -0.269524,0 -0.490042,-0.135501 -0.490042,-0.301114 z m -1.099277,-1.585356 c -0.09738,-0.157555 0.03812,-0.369037 0.301114,-0.469955 0.290451,-0.111456 0.478163,9.6e-4 0.478163,0.286467 0,0.517564 -0.500038,0.635305 -0.779277,0.183488 z m -0.345241,-17.56292 c -0.522272,-0.654835 -2.060554,-2.428524 -3.418404,-3.94153 l -2.468819,-2.750921 1.025869,-0.958305 c 1.599955,-1.494577 3.065901,-2.402327 3.47313,-2.150646 0.214844,0.13278 0.285776,0.09077 0.168134,-0.09958 -0.23169,-0.374883 3.25512,-2.018282 5.935376,-2.797453 7.512371,-2.183906 16.131805,-0.343994 21.256371,4.537402 0.779245,0.742267 1.627418,1.853642 1.884835,2.469722 0.533428,1.276673 0.627408,2.876978 0.15169,2.582968 -0.181021,-0.111879 -0.235261,0.01577 -0.126797,0.298417 0.422291,1.100472 -0.845805,0.865843 -2.316349,-0.428584 -1.74958,-1.540041 -2.158732,-1.632773 -1.906512,-0.432098 0.291799,1.389078 -0.274841,1.925089 -0.770384,0.728743 -1.0527,-2.541441 -4.642768,-4.14249 -8.272028,-3.689045 -4.947287,0.618123 -11.856407,4.373359 -13.377482,7.270911 -0.251779,0.479622 -0.411469,0.397109 -1.23863,-0.64 z"
       id="path4152"
       inkscape:connector-curvature="0" />
    <path
       style="fill:#a2716b;stroke-width:0.31999999"
       d="M 43.420192,94.635499 C 43.138979,93.973025 42.686397,93.34562 42.414448,93.241262 42.142502,93.136907 41.92,92.917864 41.92,92.754504 c 0,-0.168048 0.276467,-0.149063 0.636688,0.04372 0.735149,0.39344 1.705338,2.106451 1.508493,2.663466 -0.07353,0.20807 -0.363776,-0.163719 -0.644989,-0.826192 z m 0.766752,-0.715501 C 44.130586,93.157403 43.597309,92.417614 42.72,91.884984 c -0.597901,-0.362999 -0.600131,-0.382519 -0.03391,-0.296771 0.816381,0.123632 1.893994,1.6239 1.7025,2.370243 -0.143658,0.559888 -0.15762,0.557222 -0.201642,-0.03846 z m 2.925885,-5.760093 c -0.575946,-0.250272 -2.411946,-1.80438 -4.08,-3.453568 C 40.774051,82.473109 40,81.498862 40,80.889131 c 0,-1.96968 2.792707,-13.5908 3.667085,-15.259606 l 0.428377,-0.81759 0.369386,1.434032 c 1.562499,6.065974 5.700371,17.128486 7.216419,19.29295 0.716992,1.023648 0.610807,1.265964 -0.97431,2.223411 -1.640499,0.990899 -2.109383,1.042765 -3.594128,0.397577 z M 5.6042336,87.205253 C 3.6767206,86.507333 3.4689168,86.038558 3.6888416,82.884395 4.3050704,74.04645 5.2432998,69.815691 7.651015,65.017759 9.4791542,61.374767 10.24,58.879906 10.24,56.528316 c 0,-0.867469 0.288959,-3.270832 0.642131,-5.340807 0.723858,-4.242601 3.336683,-16.517919 3.87976,-18.22751 0.712773,-2.243788 2.643564,-5.497513 3.900945,-6.573784 C 20.071097,25.180795 22.859751,24 24.298297,24 c 1.839291,0 5.069973,1.267713 6.744515,2.646536 0.904059,0.744405 2.037466,1.644376 2.518682,1.999937 l 0.874938,0.646473 -0.708179,0.754784 c -0.797248,0.849714 -1.107411,1.894572 -2.038024,6.865559 -1.363712,7.284451 -0.80543,9.38896 2.822065,10.638083 2.619079,0.901875 2.788996,1.089833 2.132656,2.359053 -0.320182,0.619164 -0.499065,1.614112 -0.452492,2.516771 0.04236,0.82104 -0.157533,2.212803 -0.444208,3.092803 -0.506285,1.554125 -1.21889,5.212285 -1.714231,8.8 -0.133648,0.968 -0.295654,1.472 -0.360013,1.12 -0.06436,-0.352 -0.570169,-0.928 -1.124022,-1.28 -1.472934,-0.936119 -4.499816,-5.00665 -6.227514,-8.374717 -0.827972,-1.614093 -1.621523,-2.86295 -1.763446,-2.775238 -0.296294,0.18312 -3.216932,5.8392 -4.324113,8.374038 -0.409375,0.937245 -1.166471,3.375616 -1.682434,5.418605 -0.63836,2.527625 -1.465829,4.743852 -2.589651,6.935916 C 13.348736,78.837502 9.7899936,85.946328 9.44,86.768389 9.0435587,87.699544 7.4656774,87.879253 5.6042336,87.205253 Z M 64.868659,52.875868 c -0.280793,-0.310275 -0.69048,-1.236938 -0.910416,-2.059251 -0.427062,-1.596743 -0.37456,-1.798612 1.050138,-4.03769 0.872096,-1.370602 0.481827,-2.33543 -1.315581,-3.2524 C 62.913744,43.129084 62.4,42.640681 62.4,42.297497 c 0,-0.896403 -0.620922,-1.354835 -1.278675,-0.944061 -0.306103,0.191162 -0.827623,0.242867 -1.158935,0.114899 -0.540979,-0.20895 -0.482678,-0.342624 0.571898,-1.311245 1.398355,-1.284384 3.408874,-1.895734 5.356493,-1.628784 6.59847,0.904423 8.278573,9.790375 2.395888,12.671693 -1.954707,0.957408 -2.741651,1.57215 -2.504259,1.956259 0.317388,0.513543 -0.392343,0.295757 -0.913751,-0.28039 z m -2.78376,-3.515869 c -0.0027,-0.396 0.139101,-0.72 0.315101,-0.72 0.400934,0 0.400934,0.339597 0,0.96 -0.250838,0.388147 -0.311136,0.342221 -0.315101,-0.24 z m -2.171565,-0.46 C 60.111117,48.306649 60.8,48.208236 60.8,48.773333 c 0,0.278666 -0.228,0.506666 -0.506666,0.506666 -0.278668,0 -0.449667,-0.171002 -0.38,-0.38 z M 63.04,46.098885 c 0,-0.341612 0.144,-0.710112 0.32,-0.818886 0.181491,-0.112166 0.32,0.156678 0.32,0.621114 0,0.450387 -0.144,0.818886 -0.32,0.818886 -0.176,0 -0.32,-0.279501 -0.32,-0.621114 z m -1.857821,-0.827568 c 0.235383,-0.516601 0.479405,-0.697734 0.675632,-0.501507 0.417735,0.417735 0.03567,1.310189 -0.560909,1.310189 -0.400643,0 -0.42024,-0.138138 -0.114723,-0.808682 z m -3.619353,-4.721071 c 0.136777,-0.137367 0.597094,-0.1121 1.022928,0.05614 0.72678,0.287148 0.711532,0.30246 -0.248682,0.249756 -0.562611,-0.03088 -0.911024,-0.168537 -0.774246,-0.3059 z m -2.713229,-1.590247 -0.609597,-0.72 0.72,0.609597 c 0.676621,0.57287 0.865677,0.830403 0.609597,0.830403 -0.06072,0 -0.384723,-0.324 -0.72,-0.72 z m 5.112406,-11.52 c -0.12967,-0.22 -0.433993,-0.710665 -0.676272,-1.090368 -0.304921,-0.477878 -0.334221,-0.756056 -0.09519,-0.903785 0.189923,-0.11738 0.311155,-0.09471 0.269401,0.05037 -0.132707,0.461135 0.719712,1.729409 1.032448,1.536128 0.165152,-0.102071 0.214522,0.0379 0.109709,0.311037 -0.230649,0.60106 -0.333609,0.616602 -0.640096,0.09662 z m 1.52792,-1.985401 c 0.643459,-0.598447 1.088707,-1.169301 0.989443,-1.268566 -0.09926,-0.09926 -0.373731,-0.0201 -0.609923,0.175926 -0.315878,0.262155 -0.429443,0.261421 -0.429443,-0.0028 0,-0.19755 0.144,-0.377182 0.32,-0.399182 0.176,-0.022 0.5,-0.06734 0.72,-0.100757 0.965219,-0.14661 0.843386,0.297694 -0.399414,1.456588 -0.73384,0.684293 -1.430176,1.240272 -1.547418,1.23551 -0.117242,-0.0048 0.313296,-0.498296 0.956755,-1.096743 z m 1.998215,-1.826153 c -0.09664,-0.156366 -0.057,-0.25677 0.08808,-0.22312 0.145082,0.03365 1.527872,-0.558695 3.072868,-1.316323 1.544995,-0.757628 2.856572,-1.321592 2.91462,-1.253254 0.05804,0.06834 -1.245676,0.78862 -2.897158,1.600626 -1.651485,0.812005 -3.081766,1.348437 -3.178406,1.192071 z M 81.92,23.04 c -0.188384,-0.352 -0.270518,-0.64 -0.182518,-0.64 0.088,0 0.314134,0.288 0.502518,0.64 0.188384,0.352 0.270518,0.64 0.182518,0.64 -0.088,0 -0.314134,-0.288 -0.502518,-0.64 z m 5.353987,0.02565 c -0.13919,-0.532271 -0.09755,-0.657209 0.139917,-0.419747 0.185952,0.185952 0.275133,0.526982 0.198179,0.757843 -0.07989,0.239663 -0.224941,0.09461 -0.338096,-0.338096 z m -1.840406,-0.513384 c -0.222631,-0.268253 -0.34281,-0.549705 -0.267069,-0.625447 0.07574,-0.07574 0.313485,0.143737 0.528314,0.487733 0.464579,0.743911 0.309641,0.825587 -0.261245,0.137714 z M 81.106842,21.73871 c -0.11601,-0.187709 -0.142298,-0.40992 -0.05842,-0.493801 0.08388,-0.08388 0.237779,0.0697 0.342,0.34129 0.216377,0.563874 0.03197,0.663058 -0.283584,0.152511 z m 4.513731,-0.844909 c -0.173658,-0.456063 -0.136903,-0.49282 0.179136,-0.179135 0.218694,0.217067 0.317014,0.475278 0.218489,0.573801 -0.09852,0.09852 -0.277456,-0.07907 -0.397625,-0.394666 z m 1.419037,0.359532 c -2.15e-4,-0.161333 -0.360215,-0.711731 -0.8,-1.223106 -0.973664,-1.132161 -1.041588,-1.468406 -0.129972,-0.643403 0.81272,0.735498 1.369738,1.720467 1.116288,1.973916 -0.102259,0.10226 -0.186102,0.05393 -0.186316,-0.107407 z M 78.56,20.430251 c -1.21465,-0.458678 -2.15792,-0.569987 -3.916528,-0.462162 -1.27409,0.07812 -2.382909,0.03462 -2.464045,-0.09665 -0.305203,-0.493834 4.438173,-0.356638 6.201472,0.179369 0.978506,0.297446 1.897805,0.51213 2.042887,0.477074 0.145081,-0.03505 0.172582,0.08383 0.06111,0.264192 -0.111469,0.180361 -0.230173,0.308679 -0.263785,0.285152 C 80.187501,21.053696 79.44,20.762559 78.56,20.430251 Z M 70.4,20.48 c 0.264,-0.17061 0.696,-0.302284 0.96,-0.292609 0.316499,0.0116 0.261997,0.11127 -0.16,0.292609 -0.879709,0.378023 -1.38495,0.378023 -0.8,0 z"
       id="path4150"
       inkscape:connector-curvature="0" />
    <path
       style="fill:#264159;stroke-width:0.31999999"
       d="m 47.84,88.406606 c -1.305104,-0.309574 -6.074963,-4.506259 -7.211107,-6.344579 -0.661632,-1.070544 -0.664189,-1.136531 -0.144666,-3.73591 0.714183,-3.573357 2.240778,-9.621501 2.956074,-11.711536 l 0.583667,-1.705418 1.205984,4.247367 c 1.713277,6.034003 4.513821,13.102547 6.843994,17.274172 0.137132,0.245501 -2.12586,1.747114 -2.958144,1.962883 -0.349693,0.09066 -0.923802,0.09652 -1.275802,0.01302 z M 7.36,87.444699 C 5.5094,87.196638 3.8406102,86.357313 3.798705,85.653531 3.6142867,82.556293 4.4209542,74.874827 5.2906762,71.446283 c 0.4231184,-1.667984 1.6199081,-4.80111 2.7249129,-7.133667 1.8637648,-3.934224 1.9850959,-4.336713 2.2415939,-7.435987 0.301211,-3.639542 1.270999,-9.524102 2.253937,-13.67663 0.354116,-1.496 0.862338,-3.861357 1.129382,-5.256345 1.560646,-8.152544 4.500469,-12.562083 9.056026,-13.58344 2.834247,-0.635439 6.714932,0.672717 9.265569,3.123368 0.730873,0.702221 1.637849,1.374836 2.015506,1.4947 0.609149,0.193336 0.626589,0.251546 0.154515,0.51573 -0.907977,0.508131 -1.468019,2.015444 -2.324526,6.256323 -1.011293,5.007277 -1.128053,8.454442 -0.3368,9.943536 0.586885,1.104486 1.131922,1.433715 3.259096,1.968656 0.709437,0.17841 1.543216,0.509619 1.852838,0.736022 0.530282,0.387751 0.531892,0.473914 0.02771,1.484541 -0.294377,0.590096 -0.568816,1.955802 -0.609862,3.034906 -0.04104,1.0791 -0.230547,2.322003 -0.421114,2.762003 -0.488192,1.127181 -1.24976,4.88151 -1.515875,7.47287 -0.123859,1.20608 -0.314835,2.063142 -0.424397,1.904582 -0.109558,-0.158556 -0.655622,-0.606912 -1.213472,-0.996342 -1.504014,-1.049936 -4.541054,-5.249117 -6.242248,-8.630877 l -1.49652,-2.974895 -1.455976,2.671023 c -2.493306,4.574032 -3.710295,7.493725 -4.536445,10.883447 -1.063149,4.362134 -2.039215,6.77687 -4.346441,10.752867 -1.06046,1.827468 -2.670607,4.982921 -3.578104,7.012115 C 9.1110435,87.484254 8.9497888,87.6578 7.36,87.444699 Z m 60.16,-36.2447 c 0.264,-0.170611 0.624,-0.310198 0.8,-0.310198 0.176,0 0.104,0.139587 -0.16,0.310198 -0.264,0.170611 -0.624,0.310198 -0.8,0.310198 -0.176,0 -0.104,-0.139587 0.16,-0.310198 z m 1.92,-1.080819 c 0,-0.06645 0.252,-0.318448 0.56,-0.56 0.507539,-0.398039 0.518858,-0.38672 0.120819,0.120819 C 69.702781,50.213039 69.44,50.382553 69.44,50.11918 Z m -8.16,-4.679181 c -0.108774,-0.176 -0.04527,-0.32 0.141114,-0.32 0.186387,0 0.338886,0.144 0.338886,0.32 0,0.176 -0.0635,0.32 -0.141114,0.32 -0.07761,0 -0.230112,-0.144 -0.338886,-0.32 z"
       id="path4148"
       inkscape:connector-curvature="0" />
    <path
       style="fill:#233d57;stroke-width:0.31999999"
       d="m 46.711203,87.778216 c -1.6332,-1.118346 -5.082947,-4.343043 -5.886329,-5.502326 l -0.833623,-1.202919 0.652967,-3.176486 c 0.8079,-3.930189 2.5047,-10.501517 3.040918,-11.776806 l 0.399667,-0.950528 0.230666,1.050217 c 0.942528,4.291306 4.111187,13.009213 6.431737,17.695584 l 1.383978,2.794957 -1.373706,0.805043 c -1.600041,0.937686 -2.934566,1.024515 -4.046275,0.263264 z M 5.9450595,87.001438 C 3.7624992,86.489653 3.7283981,86.40483 3.9687037,82.085448 c 0.1176665,-2.114998 0.4222614,-5.21345 0.6768777,-6.88545 0.2546167,-1.672 0.465522,-3.156499 0.4686788,-3.298886 0.00317,-0.142387 0.1502684,-0.169561 0.3269142,-0.06039 0.1797363,0.111082 0.2244253,0.577392 0.1014787,1.058886 -0.1208326,0.473213 -0.1999331,1.143949 -0.1757785,1.490528 0.024154,0.346576 -0.097275,0.717402 -0.2698426,0.824055 -0.172568,0.106652 -0.3790317,1.263088 -0.4588086,2.569859 -0.079777,1.306771 -0.2407978,3.491945 -0.3578244,4.855945 -0.1520742,1.772499 -0.1083081,2.48 0.1534128,2.48 0.2014036,0 0.3661882,0.152499 0.3661882,0.338887 0,0.186387 -0.18,0.230745 -0.4,0.09857 -0.264671,-0.159008 -0.2492435,-0.05452 0.0456,0.308848 0.24508,0.302039 0.5198307,0.474928 0.6105568,0.384202 0.090726,-0.09073 0.3721421,0.007 0.6253683,0.217152 0.3682832,0.305648 0.5331988,0.257069 0.8241661,-0.242778 0.200065,-0.343686 0.3947722,-0.965414 0.4326832,-1.381622 0.037911,-0.416205 0.3028019,-1.015165 0.5886471,-1.331021 0.4810678,-0.531574 0.476334,-0.599798 -0.063652,-0.917404 -0.4949533,-0.29112 -0.512936,-0.389312 -0.1186486,-0.647866 0.5301699,-0.347658 1.078112,-0.132243 0.8016131,0.315142 -0.2264973,0.36648 0.1884717,0.380192 0.7488125,0.02474 0.3315888,-0.210342 0.315487,-0.346057 -0.08,-0.674284 -0.541856,-0.449693 -0.6713677,-1.292564 -0.1986106,-1.292564 0.1630951,0 0.3548797,0.252 0.4261885,0.56 0.089107,0.384874 0.307455,0.134692 0.6982093,-0.8 0.3127063,-0.748 0.7592183,-1.36 0.9922473,-1.36 0.513181,0 0.919179,-1.12695 0.59498,-1.651516 -0.156106,-0.252583 -0.06257,-0.311789 0.283048,-0.179162 0.354848,0.13617 0.462942,0.0593 0.34582,-0.24591 -0.09371,-0.244199 0.111569,-0.685408 0.456171,-0.980464 0.471554,-0.403757 0.589162,-0.813888 0.47542,-1.657908 -0.102892,-0.763507 -0.03902,-1.052153 0.200126,-0.904355 0.205133,0.126778 0.353292,-0.02374 0.356154,-0.361798 0.0042,-0.496826 0.05321,-0.510845 0.345697,-0.09889 0.249974,0.352076 0.295524,-0.02922 0.170919,-1.430749 -0.191937,-2.158861 0.06624,-4.649251 0.48198,-4.649251 0.152077,0 0.276504,0.576 0.276504,1.28 0,0.704 -0.144,1.28 -0.32,1.28 -0.176,0 -0.32,0.3168 -0.32,0.704 0,0.509187 0.09677,0.607232 0.349695,0.354304 0.408292,-0.408292 1.207212,-5.449136 1.066618,-6.729911 -0.05286,-0.48151 0.01087,-0.95038 0.141617,-1.041932 0.48895,-0.342381 1.625594,-3.197053 1.452536,-3.648036 -0.09897,-0.257916 0.130318,-0.779209 0.509534,-1.158425 0.379216,-0.379216 0.613684,-0.887018 0.521039,-1.128445 -0.109205,-0.284582 -0.006,-0.37663 0.29342,-0.261728 0.254026,0.09748 0.368443,0.328397 0.25426,0.513146 -0.12123,0.196156 -0.0539,0.240915 0.161838,0.107584 0.453131,-0.280048 0.490539,-1.150557 0.04944,-1.150557 -0.176,0 -0.32,-0.161632 -0.32,-0.359181 0,-0.236832 0.176001,-0.213117 0.516677,0.06962 0.443799,0.36832 0.606864,0.317427 1.156074,-0.360816 0.351668,-0.434291 0.767163,-0.789622 0.923323,-0.789622 0.407252,0 0.397409,-0.602173 -0.01207,-0.738666 -0.1892,-0.06307 -0.344,0.04133 -0.344,0.232 0,0.190666 -0.231572,0.346666 -0.514604,0.346666 -0.311937,0 -0.0031,-0.409587 0.784237,-1.04 0.720392,-0.576826 1.232988,-1.23401 1.150976,-1.475629 -0.09863,-0.290576 0.02109,-0.370797 0.359539,-0.240918 0.654524,0.251165 1.475402,-0.566349 1.224696,-1.219677 -0.106324,-0.277075 -0.03391,-0.503776 0.16092,-0.503776 0.19483,0 0.354236,0.152499 0.354236,0.338886 0,0.186388 0.156547,0.242135 0.347882,0.123882 0.25051,-0.154822 0.25051,-0.312374 0,-0.562886 -0.452705,-0.452704 -0.450669,-0.961178 0.0027,-0.680964 0.416045,0.257124 2.209398,-1.607788 2.209398,-2.297555 0,-0.278592 0.153469,-0.384285 0.36667,-0.252518 0.259951,0.160656 0.301788,-0.0319 0.143745,-0.661591 -0.186965,-0.744928 -0.136715,-0.85512 0.311516,-0.683116 0.432465,0.165952 0.50499,0.05102 0.380095,-0.602327 -0.124975,-0.653763 -0.07135,-0.738524 0.281814,-0.445427 0.357648,0.296822 0.429345,0.110115 0.398299,-1.037203 -0.03585,-1.324909 -0.05209,-1.348224 -0.305859,-0.439181 -0.254942,0.913229 -0.260579,0.905434 -0.11569,-0.16 0.08377,-0.616 0.142772,-1.732 0.131115,-2.48 -0.02219,-1.423555 0.50668,-1.882438 0.737603,-0.64 0.136003,0.731738 0.177036,-0.02608 0.264239,-4.88 0.03329,-1.852851 0.121453,-2.413947 0.276551,-1.76 l 0.227685,0.96 0.325163,-0.8 c 0.598989,-1.473697 0.639798,-1.755563 0.384879,-2.658335 -0.343427,-1.216214 -0.05247,-1.970279 0.563108,-1.459394 0.317154,0.263215 0.558085,0.276712 0.79051,0.04429 0.232429,-0.232427 0.213226,-0.409162 -0.063,-0.579881 -0.256122,-0.158292 -0.316181,-0.114266 -0.168997,0.123883 0.12558,0.203193 0.08433,0.369442 -0.09167,0.369442 -0.176,0 -0.415064,-0.153817 -0.531254,-0.341815 -0.116189,-0.187999 -0.420167,-0.261648 -0.675505,-0.163666 -0.259253,0.09949 -0.377923,0.03847 -0.268747,-0.138184 C 30.349779,27.662351 30.293531,27.52 30.117245,27.52 c -0.176281,0 -0.265631,-0.284971 -0.198555,-0.633271 0.06708,-0.348298 -0.03544,-0.730548 -0.227816,-0.849442 -0.20969,-0.129595 -0.258328,-0.06821 -0.121445,0.153271 0.12558,0.203193 0.09983,0.369442 -0.05722,0.369442 -0.407647,0 -0.363331,1.073469 0.05618,1.360896 0.193379,0.132492 0.03131,0.196203 -0.360155,0.14158 -0.391464,-0.05462 -0.823464,-0.222114 -0.96,-0.3722 -0.136535,-0.150086 -0.07241,-0.171871 0.142505,-0.04841 0.279055,0.160308 0.378613,-0.09837 0.34829,-0.904963 -0.03647,-0.970004 -0.111375,-1.073499 -0.530664,-0.733169 -0.411935,0.334361 -0.453282,0.303215 -0.264662,-0.199362 0.170842,-0.455207 0.105608,-0.550372 -0.276706,-0.403665 -0.287638,0.110377 -0.417157,0.05752 -0.304744,-0.124371 0.107528,-0.173984 -0.02447,-0.316335 -0.293336,-0.316335 -0.287347,0 -0.41804,0.18451 -0.31707,0.447632 0.09447,0.246198 -0.0065,0.55782 -0.224424,0.692495 -0.268586,0.165995 -0.336301,0.08878 -0.210235,-0.239743 0.140454,-0.366018 -0.05849,-0.491555 -0.812974,-0.513007 -0.637024,-0.01811 -0.846219,0.06598 -0.577416,0.232111 0.267789,0.165503 0.302321,0.334181 0.09469,0.462506 -0.179758,0.111097 -0.375131,0.07461 -0.434164,-0.08108 -0.05903,-0.155693 -0.544374,-0.377232 -1.078537,-0.492311 -0.872896,-0.188053 -1.045677,-0.08672 -1.706891,1.001083 -0.404626,0.665674 -0.637769,0.922316 -0.518095,0.570316 0.484839,-1.426066 0.473559,-1.551487 -0.05036,-0.56 -0.302257,0.572 -0.675931,1.04 -0.830387,1.04 -0.154456,0 -0.204943,0.122786 -0.112194,0.272857 0.09275,0.150072 -0.03817,0.546072 -0.290938,0.88 -0.400685,0.529348 -0.460876,0.538805 -0.469749,0.07381 C 19.52458,28.453333 19.7,28.140701 19.92,28.051929 c 0.286066,-0.11543 0.270178,-0.168599 -0.05578,-0.186667 -0.343108,-0.01902 -0.295566,-0.203253 0.192316,-0.745263 0.868058,-0.964365 1.182648,-1.865648 0.569005,-1.630172 -0.254026,0.09748 -0.396697,0.282678 -0.317048,0.411554 0.19912,0.322183 -0.742986,1.618618 -1.176234,1.618618 -0.193298,0 -0.07713,-0.310291 0.258145,-0.689536 L 20,26.140927 19.132478,26.69909 c -1.04091,0.669722 -1.369023,1.530476 -0.910206,2.387785 0.441378,0.824721 0.432292,2.17691 -0.01649,2.454273 -0.247557,0.152997 -0.285433,-0.09427 -0.125783,-0.821149 0.164379,-0.74841 0.125176,-0.976248 -0.139799,-0.812484 -0.20253,0.12517 -0.604889,0.03518 -0.894133,-0.199967 -0.45704,-0.371569 -0.497582,-0.352052 -0.309647,0.149072 0.145946,0.389161 0.09733,0.503127 -0.149529,0.350557 -0.236842,-0.146377 -0.277498,-0.08322 -0.115338,0.179157 0.145891,0.236056 0.06634,0.521826 -0.190557,0.684542 -0.34878,0.220914 -0.323896,0.280348 0.119003,0.284223 0.308,0.0027 0.56,-0.2111 0.56,-0.4751 0,-0.264 0.144,-0.48 0.32,-0.48 0.755801,0 0.226339,0.886128 -0.83062,1.390157 -0.771816,0.368055 -1.091171,0.703613 -0.970043,1.019267 0.09932,0.258816 0.05209,0.470576 -0.104944,0.470576 -0.157037,0 -0.261142,0.629908 -0.231347,1.399792 0.03775,0.975386 0.175872,1.353091 0.455564,1.245763 C 15.819375,35.840838 16,35.946338 16,36.159999 c 0,0.21384 0.215778,0.305671 0.48,0.204279 0.377762,-0.14496 0.470718,0.06926 0.436422,1.005763 -0.02723,0.743577 -0.0956,0.919869 -0.182257,0.469958 -0.07627,-0.396 -0.262647,-0.72 -0.414165,-0.72 -0.151518,0 -0.337892,0.324 -0.414165,0.72 -0.08491,0.440826 -0.165371,0.22369 -0.20752,-0.56 -0.03786,-0.704 -0.14874,-1.078201 -0.246393,-0.831555 -0.13083,0.330438 -0.297872,0.24623 -0.634791,-0.32 -0.447229,-0.751619 -0.453956,-0.752688 -0.307227,-0.04877 0.08251,0.395827 0.01953,0.800323 -0.139946,0.898887 -0.159477,0.09856 -0.287753,0.422707 -0.285058,0.72032 0.0042,0.466326 0.04777,0.474774 0.3151,0.06111 0.480909,-0.744153 0.375223,-0.209024 -0.177562,0.899059 -0.383812,0.76937 -0.416338,1.149156 -0.142272,1.661252 0.195409,0.365126 0.267856,0.982425 0.160992,1.371776 -0.192516,0.701424 -0.189379,0.702048 0.342264,0.06791 0.526826,-0.628387 0.533012,-0.625485 0.340939,0.16 -0.107592,0.44 -0.206716,1.016 -0.220275,1.28 -0.01356,0.264 -0.161256,0.138781 -0.328214,-0.278269 l -0.303561,-0.758265 -0.594453,0.758265 c -0.32695,0.41705 -0.693958,1.262269 -0.815572,1.878269 -0.162473,0.82295 -0.132397,0.992694 0.113398,0.64 0.291793,-0.418698 0.335142,-0.412851 0.339416,0.04576 0.0027,0.289171 -0.227437,0.614922 -0.511405,0.723888 -0.327481,0.125667 -0.455469,0.430765 -0.349958,0.834237 0.09149,0.349862 0.02498,0.636112 -0.147813,0.636112 -0.172787,0 -0.28264,0.396 -0.244119,0.88 0.03852,0.484 -0.03803,1.132 -0.170119,1.44 -0.132087,0.308 -0.164005,0.758454 -0.07093,1.001005 0.09308,0.242553 0.04995,0.566553 -0.09584,0.72 C 11.24072,52.02014 10.56,56.054828 10.56,57.440181 c 0,0.460675 0.130571,0.756893 0.290157,0.658263 0.400888,-0.247764 0.0047,1.209708 -0.401511,1.477164 -0.21481,0.141428 -0.18346,0.389162 0.09111,0.72 0.381618,0.459824 0.253814,0.642324 -0.379759,0.542285 -0.132,-0.02083 -0.24,0.124106 -0.24,0.322106 0,0.230637 0.350683,0.289862 0.975908,0.164819 0.605258,-0.121053 0.901925,-0.07547 0.781114,0.12 -0.107136,0.17335 -0.602888,0.315181 -1.101671,0.315181 -1.4394371,0 -1.5872374,1.306822 -0.175351,1.550422 1.019061,0.175824 0.953334,0.331133 -0.127135,0.300413 -0.5460756,-0.01552 -0.9950701,-0.186317 -0.9977652,-0.379533 -0.00269,-0.193216 -0.1371932,-0.142179 -0.2988854,0.113418 -0.3573286,0.564854 -0.1068579,1.069072 0.3812179,0.767424 0.1942653,-0.120061 0.1123152,0.125628 -0.1821113,0.54598 -0.5828116,0.83208 -0.7017245,1.581876 -0.2508765,1.581876 0.1564445,0 0.2644445,-0.236503 0.24,-0.525559 -0.024445,-0.289059 0.1207622,-0.584128 0.3226819,-0.655709 0.2175206,-0.07711 0.3479219,0.182839 0.32,0.637917 -0.035515,0.578816 -0.2236035,0.760093 -0.7633539,0.735709 -0.3939251,-0.01779 -0.7179251,0.07564 -0.72,0.207642 -0.00208,0.132 -0.00377,0.392499 -0.00377,0.578886 0,0.186387 0.18,0.230746 0.4,0.09857 0.2717939,-0.16329 0.2592355,-0.06678 -0.039182,0.301113 -0.3522218,0.434221 -0.360304,0.636471 -0.040818,1.021428 0.2405107,0.289798 0.2666035,0.48 0.065849,0.48 -0.1828835,0 -0.4055526,-0.18 -0.4948204,-0.4 -0.1261866,-0.310986 -0.2300352,-0.303386 -0.4666666,0.03416 -0.1969555,0.280953 -0.3767821,0.316985 -0.5095818,0.102112 -0.1128707,-0.182627 -0.076871,-0.411376 0.08,-0.508327 0.1568711,-0.09695 0.2852199,-0.536278 0.2852199,-0.976278 0,-0.44 -0.1318576,-0.718506 -0.2930167,-0.618906 C 7.145824,66.852367 7.0976816,67.197621 7.2,67.519999 7.3977773,68.143141 6.8903962,68.694591 6.5805514,68.19325 6.4795322,68.0298 7.2011267,66.249061 8.184095,64.236053 c 1.6250922,-3.328 1.8116682,-3.932877 2.056781,-6.668032 0.483374,-5.393849 1.445612,-10.558438 4.160702,-22.331593 1.210446,-5.24873 3.369298,-8.570152 6.596758,-10.149201 1.510643,-0.739089 2.026368,-0.831421 3.89653,-0.697612 2.681423,0.191855 4.71561,1.071716 6.694647,2.895683 0.841767,0.77581 1.804058,1.509753 2.138423,1.630984 0.58696,0.212815 0.584422,0.245447 -0.07356,0.945835 -0.889146,0.946452 -1.159412,1.800715 -2.127218,6.723729 -0.916019,4.659587 -1.013276,7.101404 -0.346416,8.697423 0.4682,1.12056 2.130386,2.39336 3.128398,2.395533 0.302029,6.4e-4 1.0416,0.236032 1.643492,0.523056 l 1.094348,0.521856 -0.639305,1.445258 c -0.439517,0.993593 -0.586557,1.838544 -0.470509,2.703725 0.09996,0.745315 -0.01776,1.704943 -0.288694,2.353398 -0.553476,1.324649 -1.265837,4.691203 -1.568781,7.413904 -0.122394,1.1 -0.316394,1.999049 -0.431114,1.997891 -1.305894,-0.01322 -4.943474,-4.494112 -7.142079,-8.797891 -1.82042,-3.563482 -1.89724,-3.678765 -2.090984,-3.137978 -0.07528,0.210116 -0.379561,0.304532 -0.676191,0.209815 -0.408881,-0.130557 -0.436191,-0.09835 -0.112914,0.133184 0.336898,0.241286 -0.05437,1.254304 -1.863844,4.825651 -1.728003,3.410547 -2.512047,5.405161 -3.193694,8.124793 -1.096488,4.374762 -2.213915,7.343911 -2.660077,7.068167 -0.180224,-0.111386 -0.231603,-0.04706 -0.114173,0.142947 0.292526,0.473315 -0.450107,2.021622 -0.850859,1.773942 -0.183204,-0.113226 -0.223969,-0.03974 -0.09432,0.170035 0.350722,0.567482 -0.139881,1.175136 -0.519629,0.643607 -0.232673,-0.325668 -0.262947,-0.288429 -0.121148,0.149017 0.23905,0.737466 -0.364367,1.906688 -0.834164,1.616339 -0.206447,-0.12759 -0.263285,-0.07262 -0.136695,0.132212 0.279781,0.452694 -2.708654,6.486975 -3.094523,6.248495 -0.1605173,-0.09921 -0.2107301,0.08966 -0.111584,0.4197 0.20813,0.692832 -0.5583195,2.291856 -0.8625723,1.799564 -0.1111447,-0.179836 0.012333,-0.504921 0.2743955,-0.722416 0.5352387,-0.444208 0.6306448,-0.957075 0.178041,-0.957075 -0.1641399,0 -0.3898439,0.288 -0.5015642,0.64 -0.1117203,0.352 -0.4094243,0.64 -0.6615642,0.64 -0.6863737,0 -0.5523683,0.540791 0.1815642,0.73272 0.352,0.09205 0.64,0.324845 0.64,0.517322 0,0.411337 -1.5612477,0.407312 -3.3349405,-0.0086 z m 2.9882739,-0.07547 C 8.86,86.863243 8.296,86.719445 7.68,86.606411 6.892024,86.461819 6.702296,86.494171 7.04,86.715544 c 0.4338035,0.284371 2.2106963,0.481849 1.8933334,0.210419 z M 8.32,65.645112 c 0,-0.306413 0.1728,-0.729913 0.384,-0.941113 0.2607971,-0.260797 0.270841,-0.384 0.031306,-0.384 -0.1939827,0 -0.5107827,0.453488 -0.704,1.00775 C 7.6002266,66.564344 7.597767,66.648594 8,66.399999 8.176,66.291224 8.32,65.951525 8.32,65.645112 Z m 5.76,-24.586274 c 0,-0.230362 -0.144,-0.418839 -0.32,-0.418839 -0.176,0 -0.32,0.204224 -0.32,0.453827 0,0.249607 -0.08376,0.717607 -0.186123,1.04 -0.170317,0.536391 -0.143141,0.533421 0.32,-0.03499 0.278367,-0.341639 0.506123,-0.809639 0.506123,-1.04 z m 0.858596,-6.238839 c -0.102152,-0.255273 -0.177978,-0.179449 -0.193333,0.193335 -0.01389,0.337331 0.06174,0.526332 0.16807,0.42 0.106334,-0.106336 0.117702,-0.382336 0.02526,-0.613335 z m 2.735019,-5.877092 c -0.228295,-0.40794 -0.366766,-0.445236 -0.55033,-0.148224 -0.13917,0.225183 -0.05851,0.5123 0.186451,0.663694 0.582862,0.360229 0.734071,0.146027 0.363879,-0.51547 z M 30.918095,27.03238 C 30.478181,26.592467 30.4,26.586143 30.4,26.990476 c 0,0.261904 0.18,0.540476 0.4,0.619047 0.632162,0.225772 0.681226,-0.01401 0.118095,-0.577143 z m -4.800734,-2.163075 c 0.09751,-0.09751 -0.735001,-0.170876 -1.850032,-0.163028 -1.399449,0.0099 -1.779563,0.08742 -1.227329,0.250468 0.864522,0.25525 2.789364,0.200558 3.077361,-0.08744 z M 5.44,85.599998 C 5.1219203,85.216734 5.1230886,85.021854 5.4458,84.633013 5.8027523,84.202913 5.9029408,84.221665 6.3035206,84.793576 7.0336685,85.836011 6.2462016,86.571413 5.44,85.599998 Z M 5.8186666,85.050664 C 5.5890467,84.821045 5.44,84.802152 5.44,85.002664 c 0,0.427129 0.3784352,0.805565 0.592,0.592 0.090933,-0.09093 -0.00507,-0.335731 -0.2133334,-0.544 z M 4.5551142,83.946059 c -0.048065,-0.633094 0.016902,-0.771561 0.21564,-0.459613 0.227737,0.357463 0.30833,0.325571 0.4043447,-0.16 0.077759,-0.393248 0.2010477,-0.477542 0.3506934,-0.239779 0.1269274,0.201667 -0.024074,0.681392 -0.3355561,1.066058 L 4.6239024,84.852117 Z M 5.04,82.659413 C 4.4326544,82.500699 4.3724989,82.114846 4.8,81.119998 5.0416576,80.55763 5.0777456,80.589358 5.0975088,81.381563 5.1162704,82.13357 5.2261674,82.249429 5.76,82.079998 c 0.4541827,-0.14415 0.64,-0.0575 0.64,0.298436 0,0.499222 -0.2931309,0.559782 -1.36,0.280979 z m 0.5835632,-5.699415 c 0.077617,-1.408 0.1936899,-2.848 0.2579398,-3.2 0.06425,-0.351999 0.1351959,-0.747999 0.1576576,-0.879999 0.022461,-0.132 0.1747872,-0.24 0.3385015,-0.24 0.1787382,0 0.1693667,0.415507 -0.023456,1.039999 -0.1766154,0.572 -0.4450138,2.12 -0.5964413,3.44 l -0.2753229,2.4 z m 0.8506778,1.44 c 0,-0.616 0.065854,-0.868 0.1463433,-0.56 0.080489,0.308 0.080489,0.812 0,1.12 -0.080489,0.308 -0.1463433,0.056 -0.1463433,-0.56 z m 0.6281427,0.16 c 0.00652,-0.528 0.078239,-0.70526 0.1593734,-0.39391 0.081134,0.31135 0.075798,0.74335 -0.011856,0.96 -0.087657,0.21665 -0.154039,-0.03809 -0.1475174,-0.56609 z m -2.2518573,-0.16 c 0,-0.44 0.072631,-0.62 0.1614035,-0.4 0.088772,0.22 0.088772,0.58 0,0.8 -0.088772,0.22 -0.1614035,0.04 -0.1614035,-0.4 z M 10.56,77.261112 c 0,-0.274387 0.144,-0.409888 0.32,-0.301114 0.176,0.108775 0.32,0.333274 0.32,0.498887 0,0.165613 -0.144,0.301113 -0.32,0.301113 -0.176,0 -0.32,-0.224499 -0.32,-0.498886 z M 6.745263,76.293333 c 0.015354,-0.372784 0.091181,-0.448608 0.1933335,-0.193335 0.092439,0.230999 0.08107,0.506999 -0.025264,0.613335 -0.1063335,0.106333 -0.1819651,-0.08267 -0.1680695,-0.42 z m 4.66807,-1.306669 c -0.403609,-0.40361 -0.212191,-0.746666 0.416624,-0.746666 0.428492,0 0.57105,0.153508 0.445763,0.48 -0.196999,0.513373 -0.516794,0.61226 -0.862387,0.266666 z M 7.04,74.079998 c 0,-0.44 0.1240314,-0.799999 0.275625,-0.799999 0.1515939,0 0.2068067,0.359999 0.1226953,0.799999 -0.084111,0.44 -0.2081427,0.8 -0.2756249,0.8 -0.067483,0 -0.1226954,-0.36 -0.1226954,-0.8 z M 6.1951814,71.024091 c 0.1210519,-0.605257 0.075476,-0.901926 -0.12,-0.781113 C 5.9018317,70.350114 5.76,70.669272 5.76,70.952216 c 0,0.282947 -0.081981,0.432467 -0.1821792,0.332269 -0.2368858,-0.236883 0.5308758,-2.804486 0.8385949,-2.804486 0.1293113,0 0.3225177,0.227776 0.4293478,0.506172 0.2894109,0.754192 0.2259005,0.999415 -0.1179664,0.455485 -0.2090678,-0.330701 -0.2747968,-0.0097 -0.2129603,1.04 0.049194,0.835088 -0.04652,1.518343 -0.212697,1.518343 -0.1661769,0 -0.2143081,-0.439159 -0.1069584,-0.975908 z m 0.8673098,0.114794 C 7.050121,70.753272 7.184,70.348773 7.36,70.239999 c 0.3784906,-0.23392 0.3784906,0.07921 0,0.96 -0.2651491,0.617036 -0.2758243,0.614841 -0.2975088,-0.06111 z m 1.7718304,0.276646 c -0.089897,-0.145456 -0.078418,-0.589628 0.02551,-0.987049 0.1417661,-0.542115 0.2565699,-0.615927 0.459664,-0.295533 0.3652182,0.57615 0.3522835,1.54705 -0.020611,1.54705 -0.1656131,0 -0.3746669,-0.119012 -0.464563,-0.264468 z m 4.0280624,-1.495532 c 0.0065,-0.528 0.07824,-0.705261 0.159373,-0.393911 0.08113,0.311351 0.0758,0.743351 -0.01186,0.96 -0.08766,0.21665 -0.154039,-0.03809 -0.147517,-0.566089 z m 0.32,-2.56 c 0.0065,-0.528 0.07824,-0.705261 0.159373,-0.393911 0.08113,0.311351 0.0758,0.743351 -0.01186,0.96 -0.08766,0.21665 -0.154039,-0.03809 -0.147517,-0.566089 z M 11.76,62.508069 c 0.22,-0.08877 0.58,-0.08877 0.8,0 0.22,0.08877 0.04,0.161405 -0.4,0.161405 -0.44,0 -0.62,-0.07263 -0.4,-0.161405 z m 0.08,-2.02807 c 0,-0.176 0.144,-0.32 0.32,-0.32 0.176,0 0.32,0.144 0.32,0.32 0,0.176 -0.144,0.32 -0.32,0.32 -0.176,0 -0.32,-0.144 -0.32,-0.32 z m 3.545263,-0.186666 c 0.01535,-0.372784 0.09118,-0.448608 0.193333,-0.193334 0.09244,0.230998 0.08107,0.506998 -0.02526,0.613334 -0.106333,0.106333 -0.181965,-0.08267 -0.16807,-0.42 z m -3.861362,-1.754665 c 0.291039,-1.591572 0.428669,-1.736983 0.990499,-1.04649 0.392484,0.482368 0.378847,0.52263 -0.1144,0.337779 -0.453109,-0.169814 -0.56,-0.03215 -0.56,0.7212 0,0.51209 -0.123953,1.007677 -0.275451,1.101309 -0.151498,0.09363 -0.16979,-0.407578 -0.04065,-1.113798 z M 16.16,59.199999 c -0.108774,-0.176 -0.04527,-0.32 0.141115,-0.32 0.186386,0 0.338885,0.144 0.338885,0.32 0,0.176 -0.0635,0.32 -0.141115,0.32 -0.07761,0 -0.230111,-0.144 -0.338885,-0.32 z m -5.28,-2.541114 c 0,-0.362387 0.144,-0.658886 0.32,-0.658886 0.176,0 0.32,0.207501 0.32,0.461113 0,0.253613 -0.144,0.550112 -0.32,0.658887 -0.176,0.108774 -0.32,-0.09873 -0.32,-0.461114 z m 1.022384,-1.138886 c 0.0065,-0.528 0.07824,-0.705261 0.159373,-0.393911 0.08113,0.311351 0.0758,0.743351 -0.01186,0.96 -0.08766,0.21665 -0.154039,-0.03809 -0.147517,-0.566089 z m -0.357121,-1.626666 c 0.01535,-0.372784 0.09118,-0.448608 0.193333,-0.193334 0.09244,0.230998 0.08107,0.506998 -0.02526,0.613334 -0.106333,0.106333 -0.181965,-0.08267 -0.16807,-0.42 z m 0.815386,-0.686124 c 0.08705,-0.480036 0.222016,-0.936541 0.299931,-1.014458 0.07792,-0.07791 -0.08635,-0.489651 -0.365026,-0.914973 -0.683409,-1.043014 -0.311754,-1.320806 0.485799,-0.36311 0.776151,0.931997 0.784028,1.034653 0.170429,2.221222 -0.608619,1.176941 -0.795714,1.19951 -0.591133,0.07132 z m 2.525593,-0.646477 c -0.123741,-0.659597 -0.36794,-1.287619 -0.542664,-1.395603 -0.174724,-0.107988 -0.01751,-0.274836 0.349371,-0.370775 0.609133,-0.159293 0.667051,-0.03811 0.667051,1.395603 0,1.875939 -0.166884,2.006551 -0.473758,0.370775 z m -3.020979,-0.267399 c 0.01535,-0.372784 0.09118,-0.448608 0.193333,-0.193334 0.09244,0.230998 0.08107,0.506998 -0.02526,0.613334 -0.106333,0.106333 -0.181965,-0.08267 -0.16807,-0.42 z M 12.8,50.239999 c 0,-0.176 0.144,-0.32 0.32,-0.32 0.176,0 0.32,0.144 0.32,0.32 0,0.176 -0.144,0.32 -0.32,0.32 -0.176,0 -0.32,-0.144 -0.32,-0.32 z m -0.440468,-1.132371 c -0.308793,-0.804701 -0.217699,-1.012336 0.159531,-0.363629 0.186781,0.3212 0.272192,0.651411 0.189802,0.733802 -0.08239,0.08239 -0.23959,-0.08419 -0.349333,-0.370173 z M 14.02,49.381404 c 0.231,-0.09244 0.507,-0.08107 0.613333,0.02525 0.106334,0.106333 -0.08267,0.181965 -0.42,0.16807 -0.372781,-0.01536 -0.448608,-0.09118 -0.193333,-0.193331 z m 9.02,-0.06364 c 0,-0.176 0.144,-0.408996 0.32,-0.51777 0.176,-0.108774 0.32,-0.05377 0.32,0.12223 0,0.176 -0.144,0.408996 -0.32,0.51777 -0.176,0.108774 -0.32,0.05377 -0.32,-0.12223 z m -9.28,-2.411597 c 0,-0.249607 0.09204,-0.69368 0.204532,-0.986832 0.163157,-0.425181 0.259266,-0.446659 0.4751,-0.106173 0.433349,0.683626 0.321945,1.546832 -0.199632,1.546832 -0.264,0 -0.48,-0.204224 -0.48,-0.453827 z m 12.16,-0.0073 c 0,-0.274378 0.144,-0.498877 0.32,-0.498877 0.176,0 0.32,0.135501 0.32,0.301114 0,0.165612 -0.144,0.390112 -0.32,0.498886 -0.176,0.108774 -0.32,-0.02672 -0.32,-0.301114 z M 15.065263,45.253324 c 0.01535,-0.372784 0.09118,-0.448608 0.193333,-0.193335 0.09244,0.230999 0.08107,0.506999 -0.02526,0.613335 -0.106333,0.106333 -0.181965,-0.08267 -0.16807,-0.42 z m -1.6,-1.28 c 0.01535,-0.372784 0.09118,-0.448608 0.193333,-0.193334 0.09244,0.230998 0.08107,0.506998 -0.02526,0.613334 -0.106333,0.106333 -0.181965,-0.08267 -0.16807,-0.42 z m 1.362204,-3.514845 c -0.105847,-0.27583 -0.02933,-0.66463 0.170042,-0.864 0.269988,-0.269977 0.362491,-0.141997 0.362491,0.50152 0,0.962784 -0.239596,1.125875 -0.532533,0.36249 z m -0.223187,-1.57848 c 0.101306,-0.264 0.330419,-0.48 0.509139,-0.48 0.187297,0 0.156197,0.203331 -0.07342,0.48 -0.2191,0.264 -0.448213,0.48 -0.509139,0.48 -0.06093,0 -0.02789,-0.216 0.07342,-0.48 z m 2.700983,-0.986665 c 0.01535,-0.372784 0.09118,-0.448608 0.193333,-0.193335 0.09244,0.230999 0.08107,0.506999 -0.02526,0.613335 -0.106333,0.106332 -0.181965,-0.08267 -0.16807,-0.42 z M 17.2898,36.319999 c 0,-0.176 0.13959,-0.536 0.3102,-0.8 0.17061,-0.264 0.3102,-0.336 0.3102,-0.16 0,0.176 -0.13959,0.536 -0.3102,0.8 -0.17061,0.264 -0.3102,0.336 -0.3102,0.16 z m 11.078412,-0.30975 c -0.09914,-0.258365 -0.04255,-0.554864 0.125764,-0.658887 C 28.662289,35.247337 28.8,35.458726 28.8,35.821113 c 0,0.772662 -0.177956,0.850611 -0.431788,0.189136 z m 0.604206,-1.364432 c -0.138796,-0.744803 -0.36494,-1.284605 -0.502544,-1.199558 -0.137604,0.08504 -0.167431,-0.16184 -0.06628,-0.548631 0.159397,-0.609536 0.242228,-0.534963 0.621536,0.559559 0.240697,0.694547 0.384084,1.550812 0.318638,1.902812 -0.07325,0.393971 -0.216003,0.119424 -0.371347,-0.714182 z M 16.24,34.375372 C 16.108,34.242252 16,33.731129 16,33.239548 c 0,-0.793997 0.106785,-0.886291 0.95647,-0.826665 0.909621,0.06383 0.926703,0.09063 0.348746,0.547116 -0.334249,0.264 -0.65666,0.744919 -0.71647,1.068708 C 16.528936,34.352495 16.372,34.508495 16.24,34.375372 Z m 0.56,-1.415373 c 0.108774,-0.176 0.04527,-0.32 -0.141115,-0.32 -0.186386,0 -0.338885,0.144 -0.338885,0.32 0,0.176 0.0635,0.32 0.141115,0.32 0.07761,0 0.230111,-0.144 0.338885,-0.32 z m 12.96,-1.92 c 0,-0.176 0.144,-0.32 0.32,-0.32 0.176,0 0.32,0.144 0.32,0.32 0,0.176 -0.144,0.32 -0.32,0.32 -0.176,0 -0.32,-0.144 -0.32,-0.32 z M 19.2,30.276578 c 0,-0.243882 -0.20863,-0.845557 -0.463623,-1.337056 -0.525036,-1.012009 -0.391693,-1.482061 0.340702,-1.201015 0.27312,0.104807 0.371691,0.278517 0.219045,0.386025 -0.30108,0.212049 -0.291451,0.464612 0.05846,1.533324 0.138235,0.422211 0.405625,0.629882 0.676953,0.525764 0.246657,-0.09465 0.448468,-0.01269 0.448468,0.182143 0,0.19483 -0.288,0.354236 -0.64,0.354236 -0.352,0 -0.64,-0.199539 -0.64,-0.443421 z m 2.88,-2.596579 c -0.229616,-0.276669 -0.260716,-0.48 -0.07342,-0.48 0.17872,0 0.407833,0.216 0.509139,0.48 0.101307,0.264 0.134345,0.48 0.07342,0.48 -0.06093,0 -0.290039,-0.216 -0.509139,-0.48 z m 0.3249,-0.971428 c 0.0087,-0.550892 0.593748,-1.25659 0.838653,-1.011685 0.131093,0.131093 -0.0051,0.48178 -0.302601,0.779304 -0.297524,0.297524 -0.538747,0.402095 -0.536052,0.232381 z M 23.68,26.559999 c 0,-0.176 0.144,-0.32 0.32,-0.32 0.176,0 0.32,0.144 0.32,0.32 0,0.176 -0.144,0.32 -0.32,0.32 -0.176,0 -0.32,-0.144 -0.32,-0.32 z"
       id="path4146"
       inkscape:connector-curvature="0" />
    <path
       style="fill:#13202a;stroke-width:0.31999999"
       d="m 46.711203,87.778216 c -1.6332,-1.118346 -5.082947,-4.343043 -5.886329,-5.502326 l -0.833623,-1.202919 0.652967,-3.176486 c 0.7903,-3.84457 2.50079,-10.492221 3.013452,-11.711482 0.34746,-0.826361 0.459988,-0.581196 1.692826,3.688128 1.49615,5.181171 3.316573,9.953139 5.354141,14.035091 l 1.391782,2.788221 -1.38519,0.811779 c -1.612067,0.944733 -2.888807,1.030909 -4.000026,0.269994 z M 12.8,78.738885 c 0,-0.165613 0.142351,-0.389095 0.316335,-0.496621 0.181395,-0.112109 0.235042,0.01635 0.125763,0.301114 C 13.029365,79.097752 12.8,79.199182 12.8,78.738885 Z m 2.24,-3.858887 c 0.188385,-0.352 0.414518,-0.64 0.502518,-0.64 0.088,0 0.0059,0.288 -0.182518,0.64 -0.188385,0.352 -0.414518,0.64 -0.502518,0.64 -0.088,0 -0.0059,-0.288 0.182518,-0.64 z m 0.6498,-1.12 c 0,-0.176 0.13959,-0.535999 0.3102,-0.799999 0.17061,-0.264 0.3102,-0.336 0.3102,-0.16 0,0.176 -0.13959,0.536 -0.3102,0.799999 -0.17061,0.264 -0.3102,0.336 -0.3102,0.16 z M 32.150157,63.628431 C 30.32736,62.027992 28.209766,59.078312 26.394211,55.610744 l -1.676245,-3.201497 1.497835,-2.284624 C 28.934113,45.978425 29.44,44.931698 29.44,43.453462 c 0,-2.269712 0.933786,-9.129434 1.440894,-10.585002 0.258385,-0.741654 0.471887,-1.662757 0.474449,-2.046896 0.0028,-0.420773 0.265788,-0.781316 0.661505,-0.906912 0.502957,-0.159632 0.574288,-0.307954 0.304461,-0.633075 -0.257738,-0.310555 -0.252653,-0.486238 0.01894,-0.654086 0.204221,-0.126217 0.479315,-0.05474 0.611315,0.158843 0.132,0.21358 0.331901,0.376029 0.444221,0.360997 0.647984,-0.08672 0.857878,0.01169 0.670742,0.314484 -0.116192,0.187998 -0.38183,0.276359 -0.590313,0.196357 -0.208484,-0.08 -0.39744,0.09018 -0.419898,0.378184 -0.02246,0.288004 -0.253085,1.171643 -0.512499,1.963643 -0.765133,2.335991 -1.828927,8.335207 -1.82627,10.299168 0.004,2.989984 1.072114,4.847274 3.002647,5.221382 0.549898,0.10656 1.521898,0.415821 2.16,0.687245 l 1.160186,0.493498 -0.519072,1.009353 c -0.285491,0.555146 -0.53201,1.801354 -0.547818,2.769354 -0.01581,0.968 -0.264486,2.48 -0.552617,3.36 -0.554387,1.6932 -1.500864,6.764608 -1.500864,8.041916 0,1.011975 -0.392608,0.955741 -1.769843,-0.253484 z m -1.8484,-21.302342 c -0.08113,-0.311351 -0.152852,-0.13409 -0.159373,0.39391 -0.0065,0.528 0.05986,0.782739 0.147516,0.56609 0.08766,-0.21665 0.09299,-0.64865 0.01186,-0.96 z m -0.0032,-3.66609 c -0.102152,-0.255273 -0.177978,-0.179449 -0.193333,0.193335 -0.0139,0.337331 0.06174,0.526332 0.16807,0.42 0.106333,-0.106336 0.117702,-0.382336 0.02526,-0.613335 z M 31.36,35.95671 c 0,-0.238864 -0.204802,-0.338036 -0.48,-0.232432 -0.264,0.101308 -0.48,0.288787 -0.48,0.416624 0,0.127836 0.216,0.232432 0.48,0.232432 0.264,0 0.48,-0.187482 0.48,-0.416624 z m 0.359708,-3.722045 c -0.316037,-0.313685 -0.352793,-0.276928 -0.179134,0.179136 0.12017,0.31559 0.299101,0.49319 0.397625,0.394666 0.09852,-0.09853 2.03e-4,-0.356733 -0.218491,-0.573802 z m 0.406753,-1.326677 c -0.101987,-0.265772 0.06696,-0.514172 0.410041,-0.602879 0.500384,-0.129379 0.506423,-0.156156 0.04238,-0.187989 -0.626064,-0.04295 -1.026607,0.457337 -0.738886,0.922879 0.293914,0.475561 0.485693,0.387181 0.286461,-0.132011 z m -10.463932,26.53603 c 0.292696,-0.613792 0.588984,-1.059171 0.658418,-0.989738 0.146388,0.146388 -0.825023,2.105719 -1.043988,2.105719 -0.08063,0 0.09287,-0.502192 0.38557,-1.115981 z"
       id="path4144"
       inkscape:connector-curvature="0" />
    <path
       style="fill:#fad028;fill-opacity:0.93434346;stroke-width:0.17707053"
       d="m 46.671887,57.759816 c -0.09636,-0.09565 -1.848509,-0.773566 -3.893674,-1.506488 -2.045164,-0.732921 -4.316094,-1.567823 -5.046509,-1.855336 l -1.328029,-0.522751 -0.08972,-1.29781 c -0.07202,-1.041826 -0.01238,-1.524825 0.302355,-2.448766 0.502058,-1.473833 0.502925,-1.46068 -0.120487,-1.828937 -0.538354,-0.318015 -2.392248,-1.011689 -2.792477,-1.044867 -0.121736,-0.01009 -0.221338,-0.08945 -0.221338,-0.176357 0,-0.08691 -0.07249,-0.113208 -0.161091,-0.05845 -0.21126,0.130565 -0.746127,-0.0771 -0.640167,-0.248545 0.09166,-0.148311 -0.753443,-1.000367 -0.939445,-0.947175 -0.0652,0.01864 -0.107613,-0.0801 -0.09426,-0.219433 0.01335,-0.139331 -0.05995,-0.201276 -0.162894,-0.137653 -0.116648,0.07209 -0.144567,0.0047 -0.0741,-0.178977 0.06219,-0.162059 0.04084,-0.294653 -0.04744,-0.294653 -0.185962,0 -0.188081,-0.02361 -0.222509,-2.478987 -0.02255,-1.608138 0.05404,-2.615574 0.316343,-4.161157 0.214059,-1.261307 0.333798,-1.908153 0.540835,-2.921664 0.04974,-0.243472 0.113741,-0.562199 0.142233,-0.708282 0.02849,-0.146083 0.102335,-0.46481 0.164095,-0.708282 0.06176,-0.243472 0.150459,-0.677093 0.197107,-0.963602 0.2293,-1.408342 0.795899,-2.507947 1.851097,-3.592442 0.21536,-0.22134 0.21536,-0.278961 0,-0.415288 -0.395505,-0.250363 0.132256,-0.20506 1.126854,0.09673 0.840543,0.255044 6.566364,0.63141 9.406085,0.618274 l 1.434872,-0.0066 1.027059,-2.081638 c 0.564882,-1.144901 1.3617,-2.590186 1.770705,-3.211744 0.409006,-0.621559 0.892784,-1.414913 1.075062,-1.763009 0.531633,-1.015256 1.731433,-2.344231 2.349529,-2.602488 0.313854,-0.131136 0.620636,-0.319319 0.681738,-0.418183 0.182014,-0.294508 0.491406,-0.203683 0.371405,0.109031 -0.06674,0.173913 0.08036,0.543692 0.369791,0.92962 0.571881,0.762538 5.901624,6.749769 6.008544,6.749769 0.04079,0 -0.133091,-0.313172 -0.386392,-0.695938 -0.253303,-0.382765 -0.428201,-0.840935 -0.388663,-1.018155 0.05406,-0.242308 0.141056,-0.163281 0.350796,0.318654 0.153402,0.352481 0.45533,0.764442 0.670954,0.91547 0.240855,0.168702 0.343002,0.36541 0.264876,0.510086 -0.06994,0.129518 0.07792,-0.0036 0.328578,-0.295723 0.54719,-0.637804 0.601765,-0.492777 0.114998,0.305594 -0.194415,0.318867 -0.353778,0.818192 -0.354141,1.109611 -0.0012,0.9402 -1.513926,3.625402 -3.625903,6.436136 -1.122558,1.493962 -2.041016,2.868473 -2.041016,3.054466 0,0.21615 -0.123432,0.338171 -0.342084,0.338171 -0.689562,0 -1.570375,1.925437 -1.949362,4.261268 -0.223648,1.378412 -0.243789,2.998623 -0.03728,2.998623 0.250887,0 -0.140077,1.977074 -0.582662,2.946463 -0.228544,0.500583 -1.062047,1.867511 -1.852228,3.037616 -0.790179,1.170104 -1.680251,2.672898 -1.977934,3.33954 -1.215638,2.722335 -1.317804,2.909304 -1.49411,2.734296 z m -0.794939,-1.101223 c 0,-0.312752 -0.04425,-0.339102 -0.263657,-0.157008 -0.26649,0.221168 -0.209732,0.53283 0.09704,0.53283 0.09164,0 0.166621,-0.16912 0.166621,-0.375822 z m -5.224834,-1.569926 c 0.06203,-0.100375 -0.009,-0.130059 -0.166621,-0.06959 -0.30676,0.117715 -0.362886,0.244634 -0.108182,0.244634 0.09164,0 0.215303,-0.07877 0.274803,-0.175044 z M 39.85655,54.821033 c -0.121238,-0.146083 -0.305588,-0.265605 -0.409666,-0.265605 -0.104078,0 -0.03456,0.116988 0.154484,0.259974 0.444176,0.335958 0.530917,0.337872 0.255182,0.0056 z M 52.425005,31.974657 c -0.123192,-0.148437 -0.26045,-0.23342 -0.305018,-0.188851 -0.122797,0.122798 0.126702,0.458736 0.340701,0.458736 0.117415,0 0.103981,-0.1016 -0.03568,-0.269885 z m 5.669808,-6.171508 c 0,-0.03677 -0.139443,-0.176213 -0.309873,-0.309873 -0.280844,-0.220253 -0.287107,-0.21399 -0.06685,0.06685 0.23132,0.294955 0.376728,0.388754 0.376728,0.243019 z m -1.947775,-2.124846 c 0,-0.03677 -0.139443,-0.176213 -0.309874,-0.309873 -0.280844,-0.220253 -0.287107,-0.21399 -0.06685,0.06685 0.231319,0.294955 0.376728,0.388755 0.376728,0.24302 z m -1.770705,-1.947776 c 0,-0.03677 -0.139443,-0.176213 -0.309874,-0.309873 -0.280844,-0.220253 -0.287107,-0.21399 -0.06686,0.06685 0.23132,0.294955 0.376729,0.388754 0.376729,0.243019 z"
       id="path4160"
       inkscape:connector-curvature="0" />
    <path
       style="fill:#fad028;fill-opacity:0.93434347;stroke-width:0.17707053"
       d="m 44.106242,56.724837 c -1.412137,-0.536022 -3.683067,-1.389756 -5.04651,-1.897185 l -2.478987,-0.922597 -0.166023,-1.033048 c -0.133545,-0.830954 -0.103204,-1.260952 0.155097,-2.198068 0.58813,-2.133733 0.598898,-2.05938 -0.369184,-2.549387 -0.472661,-0.239243 -1.217951,-0.537078 -1.656201,-0.661852 -0.438249,-0.124775 -0.872515,-0.293114 -0.965034,-0.374085 -0.09252,-0.08097 -0.272011,-0.14722 -0.39887,-0.14722 -0.270215,0 -1.428983,-1.240921 -1.766796,-1.892057 -0.567687,-1.094218 -0.206681,-5.624525 0.840881,-10.552312 0.601843,-2.8311 0.769429,-3.28117 1.649536,-4.43001 0.357932,-0.467223 0.596193,-0.937829 0.529469,-1.045791 -0.08565,-0.138581 0.08201,-0.15896 0.570228,-0.06931 1.865581,0.342558 3.505485,0.468506 7.243154,0.556289 l 4.072622,0.09565 0.885352,-1.811517 c 0.897734,-1.83685 3.00142,-5.428811 3.803141,-6.493715 0.372204,-0.494387 2.089495,-1.803155 2.365998,-1.803155 0.0488,0 0.137026,0.219908 0.19606,0.488684 0.104576,0.476135 3.205578,4.167077 5.408254,6.437129 0.907591,0.935353 1.033228,1.020122 0.726604,0.490249 -0.203899,-0.352356 -0.367902,-0.750765 -0.36445,-0.885353 0.0037,-0.14461 0.09424,-0.09381 0.221338,0.124181 0.118285,0.202887 0.395083,0.593058 0.615109,0.867046 0.388291,0.483523 0.410405,0.488787 0.75255,0.17915 0.413211,-0.373951 0.445741,-0.253809 0.110658,0.408684 -0.133015,0.262983 -0.340166,0.89648 -0.460337,1.407771 -0.120171,0.511291 -0.294931,0.92962 -0.388353,0.92962 -0.09342,0 -0.120613,0.07968 -0.06042,0.177071 0.06019,0.09739 0.02035,0.17707 -0.08854,0.17707 -0.108884,0 -0.148725,0.07968 -0.08854,0.177071 0.06019,0.09739 0.02035,0.17707 -0.08854,0.17707 -0.108885,0 -0.150037,0.07756 -0.09145,0.172353 0.05859,0.09479 -0.05215,0.308211 -0.246084,0.474262 -0.193933,0.16605 -0.312143,0.367377 -0.262691,0.447394 0.04945,0.08002 8.29e-4,0.145485 -0.108055,0.145485 -0.108885,0 -0.148377,0.08024 -0.08776,0.178321 0.06061,0.09808 -0.0139,0.225949 -0.165603,0.28416 -0.151698,0.05821 -0.242376,0.15994 -0.20151,0.226063 0.04087,0.06612 -0.442395,0.834671 -1.073913,1.707884 -0.631521,0.873212 -1.54434,2.165351 -2.028492,2.87142 -0.484151,0.706069 -0.996239,1.283761 -1.137974,1.283761 -0.386504,0 -1.071634,1.17234 -1.50049,2.567523 -0.466436,1.517439 -0.686304,4.38275 -0.365929,4.768778 0.20522,0.247275 0.129777,1.157475 -0.132475,1.59827 -0.05549,0.09327 -0.120004,0.348842 -0.143363,0.567938 -0.04722,0.442868 -0.792849,1.782661 -2.398073,4.308992 -0.587864,0.925193 -1.333295,2.223692 -1.656511,2.885553 -0.323217,0.661862 -0.683815,1.319236 -0.80133,1.460832 -0.117515,0.141596 -0.158374,0.257448 -0.0908,0.257448 0.06758,0 -0.0031,0.125947 -0.157017,0.279882 -0.153935,0.153934 -0.234606,0.353138 -0.179268,0.442676 0.17453,0.282395 -0.294134,0.145647 -2.930487,-0.855065 z"
       id="path4162"
       inkscape:connector-curvature="0" />
    <path
       style="fill:#fad028;fill-opacity:0.93434347;stroke-width:0.17707053"
       d="m 43.39796,56.478491 c -1.801692,-0.677556 -4.072622,-1.535114 -5.04651,-1.905684 l -1.770705,-0.673762 -0.166242,-1.031489 c -0.139636,-0.866406 -0.100912,-1.286525 0.241958,-2.625037 0.479535,-1.872027 0.538733,-1.770992 -1.474863,-2.517188 -0.691301,-0.256181 -1.395272,-0.537369 -1.564381,-0.624859 -0.169109,-0.08749 -0.388441,-0.159077 -0.487405,-0.159077 -0.231332,0 -1.40644,-1.298447 -1.734075,-1.916085 -0.399167,-0.752484 -0.187752,-5.190993 0.393701,-8.26547 0.792722,-4.191572 1.093931,-5.202018 1.917064,-6.431047 0.412168,-0.615413 0.725628,-1.204651 0.696577,-1.309417 -0.03593,-0.129587 0.27542,-0.153233 0.973888,-0.07397 2.421884,0.274854 5.118243,0.444785 7.89869,0.497793 l 2.976432,0.05674 0.937385,-1.859241 c 1.036351,-2.055533 2.899431,-5.255895 3.586469,-6.160769 0.514111,-0.677114 2.115805,-1.984475 2.431255,-1.984475 0.118595,0 0.350203,0.298807 0.514682,0.664015 0.289912,0.643718 2.860181,3.716889 5.072227,6.064665 0.852606,0.90492 1.026252,1.029819 0.81231,0.584273 -0.320817,-0.668122 -0.3563,-1.192881 -0.0445,-0.658063 0.118285,0.202887 0.395083,0.593058 0.615109,0.867046 0.388291,0.483523 0.410405,0.488787 0.75255,0.17915 0.44685,-0.404394 0.440174,-0.276266 -0.06465,1.240976 -0.469998,1.412574 -1.307157,3.178998 -1.926061,4.064032 -0.07141,0.102113 -0.582862,0.862955 -1.136565,1.69076 -1.791983,2.67908 -2.897606,4.082469 -3.352529,4.255429 -0.955676,0.363349 -2.160135,4.196632 -1.96589,6.256598 0.04714,0.499962 0.143563,1.131347 0.214266,1.403078 0.248315,0.954352 -0.524669,2.815567 -2.368688,5.703411 -0.694712,1.087957 -2.562181,4.41187 -3.108079,5.532073 -0.106413,0.218365 -0.273161,0.390384 -0.37055,0.382267 -0.09739,-0.0081 -1.651182,-0.569126 -3.452875,-1.246683 z"
       id="path4164"
       inkscape:connector-curvature="0" />
    <path
       style="fill:#fad028;fill-opacity:0.93434347;stroke-width:0.17707053"
       d="m 41.634189,55.828159 c -4.461493,-1.683261 -5.053579,-1.951632 -5.161662,-2.339597 -0.231643,-0.831486 -0.156245,-2.043111 0.209207,-3.361886 l 0.366594,-1.322899 -0.44386,-0.381793 C 36.360345,48.211998 35.617685,47.862783 34.954112,47.64595 34.29054,47.429116 33.671919,47.181887 33.5794,47.096551 c -0.09252,-0.08534 -0.272011,-0.155156 -0.39887,-0.155156 -0.246704,0 -1.416572,-1.211784 -1.772823,-1.836343 -0.299152,-0.524457 -0.280738,-4.03369 0.03264,-6.220366 0.358529,-2.501733 1.13358,-6.222507 1.493062,-7.167716 0.167437,-0.440251 0.558574,-1.15106 0.869193,-1.579574 0.31062,-0.428515 0.564764,-0.898446 0.564764,-1.044291 0,-0.226024 0.254893,-0.246525 1.726437,-0.138863 3.580312,0.261947 7.089894,0.445619 8.543653,0.447127 l 1.505099,0.0016 1.239494,-2.339441 c 1.86712,-3.524029 3.216585,-5.615768 4.226036,-6.550566 0.917376,-0.84953 1.721393,-1.236365 1.838642,-0.884619 0.221927,0.665786 2.069655,2.968998 4.913694,6.124976 1.051202,1.166499 1.512032,1.49968 1.157188,0.836648 -0.383885,-0.717296 -0.160612,-0.741738 0.349022,-0.03821 0.551254,0.760984 0.839281,0.886053 1.202969,0.522365 0.740989,-0.740988 -0.519962,2.86856 -1.702977,4.874876 -1.408924,2.389443 -3.349202,5.044024 -4.514675,6.176727 -0.996649,0.968625 -1.299847,1.400024 -1.637223,2.329485 -0.594911,1.638963 -0.889374,3.941397 -0.633854,4.956161 0.111006,0.440842 0.201829,1.047534 0.201829,1.348203 0,0.761931 -0.729162,2.414162 -1.977318,4.480458 -0.583361,0.965746 -1.646018,2.804011 -2.361457,4.085034 -0.71544,1.281024 -1.406406,2.346091 -1.535479,2.366815 -0.129074,0.02072 -2.502488,-0.817934 -5.274255,-1.863683 z"
       id="path4166"
       inkscape:connector-curvature="0" />
    <path
       style="fill:#fad028;fill-opacity:0.93434347;stroke-width:0.17707053"
       d="m 41.656901,55.846603 c -5.542411,-2.0728 -5.341762,-1.938614 -5.341762,-3.572327 0,-0.462843 0.155079,-1.432217 0.344621,-2.154164 0.425391,-1.620282 0.364663,-1.713864 -1.556544,-2.398673 -0.74558,-0.26576 -1.431297,-0.54999 -1.523816,-0.631622 -0.09252,-0.08163 -0.272011,-0.148422 -0.39887,-0.148422 -0.268924,0 -1.446231,-1.250383 -1.803096,-1.915016 -0.386051,-0.718989 -0.162292,-5.377948 0.401275,-8.355074 0.677718,-3.580149 1.117495,-5.12817 1.735486,-6.108933 0.306829,-0.486944 0.644233,-1.073152 0.749787,-1.302685 0.190347,-0.413919 0.209296,-0.416446 2.316763,-0.308886 1.168666,0.05965 3.798163,0.156138 5.843327,0.214427 l 3.718481,0.105979 0.944851,-1.833405 c 1.793559,-3.480251 3.09226,-5.515821 4.304679,-6.747112 1.404191,-1.426045 1.823136,-1.518905 2.390456,-0.529847 0.817455,1.425141 6.359868,7.665031 5.749777,6.473351 -0.391878,-0.76545 -0.186898,-0.818849 0.348521,-0.09079 0.567309,0.77142 0.829868,0.889575 1.185809,0.533632 0.390811,-0.39081 0.39873,-0.02504 0.02599,1.20074 -0.837618,2.754594 -4.07864,7.909398 -6.213201,9.882016 -1.271991,1.175488 -1.8043,2.267453 -2.187013,4.486386 -0.221427,1.283809 -0.242125,1.853882 -0.09601,2.644311 0.40121,2.170336 0.24807,2.615016 -2.611334,7.582771 -2.328771,4.045866 -2.857094,4.87181 -3.108442,4.859518 -0.111584,-0.0055 -2.460468,-0.854235 -5.219743,-1.886173 z"
       id="path4168"
       inkscape:connector-curvature="0" />
    <path
       style="fill:#008080;fill-opacity:1;stroke-width:0.17707053"
       d="M 6.6361275,87.226994 C 5.3628936,86.950024 4.1771341,86.383799 4.0216082,85.978506 3.8203382,85.454005 3.9072413,81.675667 4.1814174,79.030391 4.889083,72.202766 5.4724869,70.047147 8.2894454,63.85163 c 1.6370968,-3.600572 1.7144456,-3.861825 1.9921396,-6.72868 0.455628,-4.703792 1.208936,-8.998208 3.101648,-17.681693 1.07434,-4.928915 1.709857,-7.097051 2.6586,-9.070105 1.847059,-3.841237 4.885464,-6.085542 8.248454,-6.092682 2.192399,-0.0047 5.327695,1.217667 7.035232,2.742744 0.455654,0.406966 1.20692,1.026882 1.669477,1.377592 0.486951,0.369203 0.76098,0.687118 0.650906,0.755147 -0.104558,0.06462 -0.377514,-0.05857 -0.606567,-0.273751 -0.522691,-0.491042 -0.855681,-0.316957 -0.705102,0.368622 0.09518,0.433329 0.04171,0.544207 -0.34802,0.721782 -0.264217,0.120385 -0.501437,0.404401 -0.556593,0.66639 -0.05287,0.251123 -0.291012,1.253405 -0.529209,2.227293 -0.54035,2.209276 -1.073475,5.816274 -1.380332,9.339009 -0.277214,3.18243 -0.382323,3.441647 -3.051737,7.526064 -0.914533,1.399308 -1.662786,2.619367 -1.662786,2.711243 0,0.09188 -0.06296,0.167047 -0.13992,0.167047 -0.07696,0 -0.611605,0.876499 -1.188109,1.947776 -0.576505,1.071276 -1.109535,1.947775 -1.184512,1.947775 -0.176504,0 -0.814126,1.249845 -0.914973,1.793498 -0.04284,0.230935 -0.392891,1.137019 -0.777897,2.013518 -0.833382,1.897269 -1.591017,4.183973 -2.34669,7.082821 -0.624696,2.396402 -1.692401,5.216176 -2.083342,5.50204 -0.142945,0.104523 -0.284227,0.411668 -0.313962,0.682541 -0.02973,0.270876 -0.21953,0.646658 -0.421768,0.835072 -0.202239,0.188414 -0.377875,0.399227 -0.390304,0.468476 -0.01243,0.06925 -0.041,0.296975 -0.06348,0.506064 -0.02249,0.209088 -0.201117,0.607497 -0.396955,0.885352 -0.195839,0.277856 -0.527459,0.84384 -0.736933,1.257743 -0.209474,0.413902 -0.49024,0.752549 -0.623925,0.752549 -0.262196,0 -0.513938,0.474555 -0.372846,0.702846 0.04748,0.07682 -0.594001,1.563664 -1.425511,3.304094 -0.831509,1.74043 -1.6868346,3.538811 -1.9007228,3.996404 -0.2699793,0.577593 -0.5458578,0.888911 -0.9022547,1.018155 -0.6114651,0.221744 -0.6099665,0.221802 -1.98532,-0.07738 z"
       id="path4172"
       inkscape:connector-curvature="0" />
    <path
       style="fill:#008080;fill-opacity:1;stroke-width:0.17707053"
       d="M 6.8328976,87.225989 C 5.3414647,86.894127 4.4978062,86.500152 4.1535775,85.974792 3.8944049,85.579245 3.8727886,85.171684 3.9790973,82.68507 4.1174449,79.449048 4.6449815,74.890893 5.1477723,72.587188 5.6264577,70.393931 6.3970031,68.221992 7.9114276,64.79727 c 1.9280317,-4.360056 1.9973759,-4.572227 2.2937184,-7.018001 0.619228,-5.110608 1.027665,-7.648005 2.043812,-12.697114 2.537879,-12.610409 3.453863,-15.25443 6.262292,-18.076329 1.552386,-1.559832 2.640036,-2.187167 4.427169,-2.553504 2.667169,-0.546732 6.070313,0.652975 9.127028,3.217543 1.496442,1.255507 2.089981,1.930427 1.164217,1.323843 -0.565692,-0.370656 -0.996464,-0.275923 -0.874045,0.192216 0.05335,0.203992 -0.111481,0.533627 -0.437312,0.874579 -0.379937,0.397567 -0.604204,0.90414 -0.820159,1.85256 -0.484678,2.128596 -1.116219,6.078251 -1.426192,8.919399 -0.356051,3.263511 -0.520971,4.159443 -0.939789,5.105428 -0.291834,0.65917 -3.664784,6.121566 -4.070858,6.592641 -0.08936,0.103665 -0.547288,0.860642 -1.017614,1.682169 -0.470326,0.821528 -1.113747,1.874281 -1.429827,2.339454 -0.31608,0.465174 -0.626142,1.022946 -0.689027,1.239494 -0.06288,0.216548 -0.54186,1.469429 -1.06439,2.784177 -0.52253,1.314749 -1.238717,3.386474 -1.591527,4.603834 -1.468758,5.0679 -2.216379,7.056104 -3.595509,9.561808 -0.0804,0.146083 -0.418778,0.811978 -0.751943,1.479766 -0.333164,0.66779 -0.852144,1.504448 -1.153289,1.85924 -0.301144,0.354795 -0.605859,0.8817 -0.677145,1.1709 -0.07129,0.289201 -0.896754,2.152585 -1.834374,4.140851 C 9.3196574,86.651521 9.0949893,87.031036 8.5735655,87.2489 8.2554813,87.381805 7.9727509,87.484211 7.9452757,87.476467 7.9178004,87.468726 7.4172303,87.35601 6.8328976,87.225989 Z"
       id="path4174"
       inkscape:connector-curvature="0" />
    <path
       style="fill:#008080;fill-opacity:1;stroke-width:0.17707053"
       d="M 7.3641092,87.372288 C 7.1693316,87.329841 6.4773448,87.139173 5.8263608,86.948583 4.1174385,86.44826 3.911234,86.125795 3.911234,83.953695 c 0,-1.952489 0.4051877,-6.493149 0.8141568,-9.123693 0.5568825,-3.581945 1.2677495,-5.770075 3.5438163,-10.908272 1.4516528,-3.277092 1.7337729,-4.229533 2.0138449,-6.79878 0.528721,-4.850224 1.281796,-9.179385 2.864597,-16.467558 1.335029,-6.147279 1.874753,-8.006291 2.996209,-10.320071 1.808313,-3.730895 4.935736,-6.058953 8.139364,-6.058953 1.177744,0 3.295929,0.584679 4.724495,1.304093 1.203892,0.606271 4.651365,3.210536 4.651365,3.513701 0,0.08395 -0.154126,0.07016 -0.342501,-0.03066 -0.529983,-0.283639 -0.896993,-0.219297 -0.896993,0.157254 0,0.187306 -0.196964,0.574633 -0.437697,0.860729 -0.240733,0.286095 -0.509179,0.710538 -0.596547,0.943206 -0.391524,1.042665 -1.111135,5.288546 -1.701922,10.041756 -0.31443,2.529756 -0.569523,3.901059 -0.859008,4.617754 -0.226472,0.560684 -1.283122,2.394344 -2.348115,4.074799 -1.064992,1.680455 -2.143879,3.387347 -2.397529,3.793095 -2.506221,4.009074 -4.021639,7.516304 -5.570936,12.893185 -0.523282,1.816064 -1.199368,3.92763 -1.502415,4.692369 -0.706286,1.782316 -2.957243,6.180505 -3.482774,6.805063 -0.221902,0.263716 -0.652699,1.06567 -0.957327,1.78212 -0.304627,0.716451 -1.205591,2.657323 -2.002143,4.313049 -1.6328339,3.394036 -1.8563578,3.627017 -3.1990658,3.334407 z"
       id="path4176"
       inkscape:connector-curvature="0" />
    <path
       style="fill:#008080;fill-opacity:1;stroke-width:0.17707053"
       d="M 7.1870387,87.370204 C 5.8806363,87.077818 4.580913,86.523438 4.2674014,86.124874 3.9634084,85.738409 3.911234,85.407388 3.911234,83.86516 c 0,-0.993806 0.119974,-3.074707 0.2666089,-4.624223 0.5918285,-6.25395 1.360632,-9.172981 3.9801689,-15.112094 1.6050221,-3.638966 1.8011108,-4.33854 2.2119002,-7.891245 0.558788,-4.832671 1.275146,-8.796791 3.036485,-16.803046 1.140854,-5.185807 1.771429,-7.264223 2.826056,-9.314856 2.016376,-3.920676 5.130956,-6.047638 8.484371,-5.79402 2.551016,0.192933 4.950201,1.30373 7.609921,3.523311 1.253319,1.045917 1.67001,1.559888 1.066731,1.315765 -0.146083,-0.05911 -0.37614,-0.152397 -0.51124,-0.207295 -0.240704,-0.09781 -0.467365,0.237004 -1.326363,1.959256 -0.424535,0.851177 -1.088132,4.416048 -1.697479,9.118932 -0.56171,4.335226 -0.736063,5.184942 -1.28983,6.286003 -0.52121,1.03633 -3.503572,5.857869 -3.942971,6.374539 -0.471553,0.554479 -2.294306,3.871962 -3.307025,6.018917 -0.858513,1.820036 -1.846132,4.656946 -3.592392,10.319056 -0.711031,2.305462 -2.894662,7.015277 -4.000685,8.628971 -0.267001,0.389555 -1.099107,2.02303 -1.849126,3.629945 -2.9660349,6.354734 -3.0371532,6.446901 -4.6893263,6.077128 z"
       id="path4178"
       inkscape:connector-curvature="0" />
    <path
       style="fill:#008080;fill-opacity:1;stroke-width:0.17707053"
       d="M 6.5672918,87.234575 C 3.9002402,86.483806 3.8283278,86.354922 3.9630634,82.567221 4.0704302,79.54891 4.5636151,75.164416 5.0628715,72.789744 5.4873756,70.770629 6.5667812,67.715213 8.0423716,64.355833 9.7637243,60.436944 9.8640898,60.07743 10.382897,55.971992 c 0.895658,-7.087538 3.214646,-18.577343 4.62809,-22.930633 1.352982,-4.16707 3.696877,-7.116771 6.564267,-8.260874 0.828347,-0.330515 1.345271,-0.404536 2.787625,-0.399178 2.802393,0.01041 4.854458,0.903922 7.994143,3.480815 0.716133,0.587765 1.30206,1.134972 1.30206,1.216015 0,0.08104 -0.228685,0.101616 -0.508188,0.04571 -0.465801,-0.09316 -0.553132,-0.02264 -1.047072,0.845512 -0.9181,1.613658 -1.202279,2.931802 -2.265618,10.508957 -0.773899,5.514665 -0.764751,5.492453 -4.7765,11.598119 -2.983564,4.540821 -4.679136,8.283179 -6.541338,14.437612 -0.619883,2.048665 -1.288636,4.134768 -1.486119,4.635787 -0.503513,1.277422 -2.479795,5.185057 -3.453387,6.828265 -0.448855,0.757567 -0.8161,1.412164 -0.8161,1.454657 0,0.0425 -0.821152,1.773344 -1.824782,3.846329 -2.1680652,4.478116 -2.2506615,4.552831 -4.3726862,3.955485 z"
       id="path4180"
       inkscape:connector-curvature="0" />
    <path
       style="fill:#008080;fill-opacity:1;stroke-width:0.17707053"
       d="M 6.3016861,87.157645 C 4.0895616,86.517028 3.9111845,86.264742 3.911382,83.776931 c 1.516e-4,-1.909587 0.2008203,-4.595978 0.5426646,-7.264759 0.5621568,-4.38876 1.2210216,-6.634406 3.5362395,-12.05276 0.8558872,-2.003052 1.6461508,-3.976118 1.7561416,-4.384592 0.1099907,-0.408475 0.3903133,-2.23577 0.6229383,-4.060657 0.497776,-3.904922 0.816059,-5.928486 1.434377,-9.119417 0.724875,-3.740826 2.341158,-11.012696 2.797942,-12.5883 1.400717,-4.831556 3.469294,-7.803637 6.460164,-9.281805 1.289994,-0.63755 1.397724,-0.659534 3.203312,-0.653689 2.902209,0.0094 4.800065,0.809597 7.902077,3.331793 1.528605,1.242885 1.826351,1.653946 1.0584,1.461202 -0.365139,-0.09164 -0.516111,0.01137 -0.958039,0.653687 -0.938256,1.363708 -1.259008,2.785915 -2.414498,10.705778 -0.354849,2.432181 -0.778623,4.680472 -0.977135,5.184101 -0.4075,1.033833 -2.020047,3.751402 -3.726653,6.280392 -2.652281,3.930369 -4.54026,7.933175 -6.096801,12.926148 -1.641003,5.263905 -2.255621,6.921271 -3.443114,9.284622 -0.663811,1.321118 -1.466858,2.840282 -1.78455,3.37592 -0.317691,0.535639 -1.513326,2.898278 -2.656966,5.250311 -1.2971864,2.667819 -2.2161267,4.349624 -2.4429744,4.471031 -0.4947469,0.264781 -1.163068,0.22664 -2.4232215,-0.138292 z"
       id="path4182"
       inkscape:connector-curvature="0" />
    <path
       style="fill:#008080;fill-opacity:1;stroke-width:0.17707053"
       d="M 6.2696358,87.152159 C 5.007863,86.791134 4.3649634,86.413851 4.0689129,85.860676 3.7716113,85.305163 3.9743239,80.149045 4.4329682,76.600707 c 0.6045444,-4.677105 1.1629227,-6.56595 3.6979309,-12.509115 1.6066274,-3.766633 1.726496,-4.208348 2.2514829,-8.296671 0.552915,-4.305809 0.951032,-6.656412 1.964346,-11.598119 1.103179,-5.379949 2.081884,-9.534796 2.634081,-11.182327 1.765822,-5.268491 4.8827,-8.402065 8.639941,-8.686224 1.718567,-0.129975 3.652926,0.300308 5.389179,1.198778 1.292733,0.66896 4.649153,3.229969 4.649153,3.547388 0,0.08796 -0.198705,0.159926 -0.441567,0.159926 -0.644442,0 -1.39512,1.143493 -1.830606,2.788525 -0.426722,1.61193 -0.691235,3.103458 -1.542569,8.69817 -0.346341,2.276048 -0.774013,4.51804 -0.950382,4.982207 -0.380507,1.001412 -1.919765,3.61446 -3.649925,6.196125 -1.574677,2.349662 -1.975379,3.041889 -3.250395,5.615193 -1.405527,2.83671 -2.087373,4.621471 -3.471273,9.086214 -1.375375,4.437239 -2.215595,6.482244 -3.963111,9.645789 -0.699358,1.266055 -2.215743,4.225971 -3.369745,6.577593 -1.3051747,2.659682 -2.2361459,4.349512 -2.4632078,4.471031 -0.4975182,0.266264 -1.161245,0.22762 -2.4566654,-0.143031 z"
       id="path4184"
       inkscape:connector-curvature="0" />
    <path
       style="fill:#008080;fill-opacity:1;stroke-width:0.17707053"
       d="M 5.9916798,87.074037 C 5.3342324,86.849988 4.5971763,86.479587 4.3537775,86.250927 3.9268404,85.849839 3.9113574,85.75665 3.9147326,83.608395 c 0.00371,-2.36374 0.3347856,-6.123003 0.7917042,-8.989661 0.5293911,-3.321342 1.1849905,-5.317352 3.5998315,-10.959895 1.3963036,-3.262616 1.5329493,-3.782297 2.0677537,-7.863918 1.115889,-8.516444 3.581581,-20.21183 5.058363,-23.993055 1.749055,-4.478369 4.805273,-7.267556 8.202207,-7.485558 2.754588,-0.176779 5.378094,0.838001 8.353486,3.231153 1.68252,1.353277 1.947724,1.686882 1.341008,1.686882 -0.508665,0 -1.214582,0.822244 -1.607492,1.872391 -0.435666,1.164421 -1.042866,4.29194 -1.776147,9.148436 -0.30497,2.01982 -0.673833,4.130579 -0.819695,4.690575 -0.346764,1.331317 -1.384783,3.210621 -3.694075,6.688019 -2.938631,4.425075 -5.020298,8.790453 -6.459471,13.545895 -1.45495,4.807572 -2.219774,6.836043 -3.554856,9.428219 -0.765154,1.485611 -2.510123,4.908651 -3.877708,7.606756 -1.434716,2.830549 -2.632845,4.983958 -2.8324412,5.090778 -0.5372623,0.287534 -1.4114015,0.213055 -2.715521,-0.231375 z"
       id="path4186"
       inkscape:connector-curvature="0" />
    <path
       style="fill:#008080;fill-opacity:1;stroke-width:0.17707053"
       d="M 6.2131508,87.158389 C 5.0924096,86.798062 4.5849091,86.545289 4.1906472,86.151027 3.6841753,85.644556 3.851636,80.62123 4.5385372,75.715355 5.0792532,71.853539 5.833529,69.373121 7.9846659,64.382841 c 1.7391332,-4.0345 1.8050897,-4.274503 2.3899771,-8.696708 1.111857,-8.406508 3.649334,-20.411915 5.066306,-23.969898 1.752928,-4.401558 4.834179,-7.18433 8.193643,-7.399927 2.729177,-0.175148 5.508912,0.889524 8.328074,3.189753 1.577895,1.287446 1.952709,1.728282 1.469445,1.728282 -0.411691,0 -1.1208,0.648345 -1.436308,1.313227 -0.55156,1.162327 -1.118705,3.945364 -2.150048,10.550498 -0.507014,3.247114 -0.80403,4.463574 -1.359026,5.566022 -0.609572,1.210855 -2.310584,3.966309 -3.997043,6.474773 -2.444177,3.635503 -3.913184,7.11879 -6.795517,16.113418 -0.526714,1.643666 -1.27563,3.386165 -2.397272,5.577721 -0.897187,1.752998 -2.669095,5.235462 -3.937573,7.738807 -1.321728,2.608435 -2.453976,4.630559 -2.6521847,4.736637 -0.4954302,0.265145 -1.3727992,0.213412 -2.4939885,-0.147057 z"
       id="path4188"
       inkscape:connector-curvature="0" />
    <path
       style="fill:#008080;fill-opacity:1;stroke-width:0.17707053"
       d="M 32.596658,64.037689 C 30.687026,62.599731 28.327292,59.29353 25.822247,54.546122 l -0.985968,-1.868545 1.235649,-1.938471 c 1.596976,-2.505316 2.414743,-3.963971 2.819443,-5.029054 0.179189,-0.471587 0.609496,-2.598625 0.956237,-4.726751 0.790248,-4.850147 0.730632,-4.60636 1.153479,-4.716937 0.413013,-0.108005 0.483145,-0.480412 0.09047,-0.480412 -0.146083,0 -0.265606,0.09296 -0.265606,0.206583 0,0.11362 -0.03938,0.167198 -0.08752,0.119063 -0.04814,-0.04814 0.08493,-0.948096 0.295706,-1.999911 0.336807,-1.680749 0.411752,-1.87338 0.618731,-1.590319 0.129528,0.17714 0.235505,0.243097 0.235505,0.146573 0,-0.09653 -0.08774,-0.263243 -0.194983,-0.370484 -0.242293,-0.242293 -0.02989,-1.342852 0.228362,-1.183244 0.114942,0.07104 0.137643,-0.02634 0.06183,-0.265217 -0.09232,-0.290886 -0.0256,-0.415249 0.290903,-0.542162 0.225889,-0.09058 0.301349,-0.169741 0.167688,-0.175915 -0.205979,-0.0095 -0.205979,-0.05589 0,-0.304258 0.309821,-0.373584 1.35422,-0.814861 1.587441,-0.670722 0.24299,0.150176 -0.15202,0.609396 -0.525018,0.610362 -0.512695,0.0013 -1.920189,5.634341 -2.509299,10.042609 -0.11999,0.897877 -0.17879,2.385254 -0.130667,3.30528 0.0751,1.435672 0.162228,1.805051 0.614726,2.605985 0.604372,1.069754 1.340912,1.531118 3.353631,2.100698 0.694343,0.196491 1.442447,0.503016 1.662452,0.681167 l 0.40001,0.323908 -0.375109,1.002568 c -0.214262,0.572669 -0.452799,1.826408 -0.55629,2.923841 -0.09965,1.056699 -0.369946,2.552051 -0.600658,3.323003 -0.420615,1.405536 -1.229243,5.647565 -1.440144,7.554932 -0.06687,0.604788 -0.197269,1.015972 -0.321176,1.012778 -0.114729,-0.003 -0.567165,-0.275379 -1.005414,-0.605381 z M 30.23863,42.658502 c -0.05653,-0.141255 -0.09848,-0.0993 -0.10698,0.10698 -0.0077,0.186662 0.03416,0.291244 0.093,0.232405 0.05884,-0.05884 0.06513,-0.211562 0.01398,-0.339385 z"
       id="path4190"
       inkscape:connector-curvature="0" />
  </g>
</svg>
