<?xml version="1.0" encoding="UTF-8" standalone="no"?>
<!-- Created with Inkscape (http://www.inkscape.org/) -->

<svg
   xmlns:dc="http://purl.org/dc/elements/1.1/"
   xmlns:cc="http://creativecommons.org/ns#"
   xmlns:rdf="http://www.w3.org/1999/02/22-rdf-syntax-ns#"
   xmlns:svg="http://www.w3.org/2000/svg"
   xmlns="http://www.w3.org/2000/svg"
   xmlns:sodipodi="http://sodipodi.sourceforge.net/DTD/sodipodi-0.dtd"
   xmlns:inkscape="http://www.inkscape.org/namespaces/inkscape"
   version="1.1"
   id="svg3229"
   width="86.080002"
   height="114.24"
   viewBox="0 0 86.080002 114.24"
   sodipodi:docname="66666.svg"
   inkscape:version="0.92.3 (2405546, 2018-03-11)">
  <metadata
     id="metadata3235">
    <rdf:RDF>
      <cc:Work
         rdf:about="">
        <dc:format>image/svg+xml</dc:format>
        <dc:type
           rdf:resource="http://purl.org/dc/dcmitype/StillImage" />
        <dc:title></dc:title>
      </cc:Work>
    </rdf:RDF>
  </metadata>
  <defs
     id="defs3233" />
  <sodipodi:namedview
     pagecolor="#ffffff"
     bordercolor="#666666"
     borderopacity="1"
     objecttolerance="10"
     gridtolerance="10"
     guidetolerance="10"
     inkscape:pageopacity="0"
     inkscape:pageshadow="2"
     inkscape:window-width="1366"
     inkscape:window-height="705"
     id="namedview3231"
     showgrid="false"
     inkscape:zoom="4.1316527"
     inkscape:cx="43.040001"
     inkscape:cy="45.433569"
     inkscape:window-x="-8"
     inkscape:window-y="-8"
     inkscape:window-maximized="1"
     inkscape:current-layer="svg3229" />
  <g
     id="g3782">
    <path
       style="fill:#aac7c9;stroke-width:0.31999999"
       d="m 27.238644,110.06127 c -7.2899,-1.304 -10.054804,-6.59591 -9.353012,-17.90127 0.06009,-0.968 0.0032,-2.23409 -0.126495,-2.813533 C 17.519359,88.274925 18.327132,85.44 18.872231,85.44 c 0.142613,0 0.345054,-0.223478 0.449868,-0.496621 0.110448,-0.287824 0.05606,-0.413485 -0.129367,-0.298886 -0.523235,0.323376 -2.232195,-3.672823 -2.232479,-5.220384 -3.52e-4,-1.954064 0.655953,-3.019104 3.9834,-6.464109 1.614943,-1.672 3.772866,-4.012 4.795383,-5.2 1.86642,-2.16848 1.860621,-2.539437 -0.02847,-1.821206 -0.490104,0.186339 -2.551479,0.464726 -4.580832,0.618643 C 19.100381,66.711354 15.784,67.00649 13.76,67.213293 9.2372389,67.675414 4.0833614,67.433062 2.9738707,66.706096 1.8954139,65.999466 1.2060835,64.239424 1.4657261,62.855408 1.8877903,60.605613 4.1995307,57.804534 12.282108,49.749453 c 4.420841,-4.405802 8.817403,-8.653802 9.770137,-9.44 3.364292,-2.776224 3.989554,-3.364909 5.202542,-4.898189 0.910322,-1.150694 1.226473,-1.84976 1.230114,-2.72 0.0091,-2.169847 1.089051,-2.613298 2.325909,-0.955048 0.695422,0.932347 0.738026,1.460581 0.408404,5.063784 -0.346433,3.786992 -0.341332,3.775597 -1.862432,4.159459 -2.504816,0.632109 -2.69684,0.810554 -4.200867,3.903824 C 24.359868,46.500477 22.337086,49.712 20.660843,52 c -4.043403,5.519072 -3.949012,5.349555 -2.837617,5.096118 0.493226,-0.11247 3.056774,-0.852262 5.696775,-1.643984 7.991466,-2.396592 9.894304,-2.939065 11.569891,-3.298416 1.541078,-0.330502 1.733552,-0.500899 4.799463,-4.249014 C 41.646052,45.757117 45.188366,41.192 47.76116,37.76 c 2.572793,-3.432 4.946617,-6.544854 5.275164,-6.917453 0.328548,-0.372599 2.46178,-2.009918 4.740519,-3.638486 8.920007,-6.374951 11.596538,-8.719448 19.503159,-17.083702 4.472614,-4.731488 5.297238,-6.0178025 5.048192,-7.8745749 -0.159658,-1.1903282 -0.115878,-1.28542032 0.589674,-1.280884 1.075916,0.006917 1.467382,0.3301683 2.029721,1.6760364 0.671991,1.6082981 0.625482,2.3447851 -0.341337,5.4053131 -1.118916,3.5419964 -1.58529,4.2219424 -2.737735,3.9914534 -1.104122,-0.220824 -2.036746,0.652959 -2.322454,2.175926 C 79.131435,16.423778 75.236594,23.513647 71.972475,28 c -1.414211,1.943754 -4.765353,5.244058 -6.889945,6.785421 -0.859393,0.623475 -2.592858,1.617859 -3.852151,2.209741 l -2.289622,1.076147 -0.821594,2.443613 c -0.546291,1.624806 -1.453904,3.315065 -2.70864,5.044345 -4.201248,5.790163 -6.009741,8.992362 -6.752599,11.956451 -1.310736,5.229984 -3.838806,9.337572 -6.449792,10.479562 -0.774473,0.338739 -2.205808,1.147149 -3.180749,1.79647 -1.452873,0.967626 -1.958832,1.562496 -2.804966,3.297866 -1.528848,3.135581 -1.917594,5.023254 -1.653767,8.030384 0.12353,1.408 0.166013,2.71576 0.09441,2.906131 -0.0716,0.190371 0.487917,0.612083 1.243376,0.937136 0.755459,0.325053 1.481565,0.649296 1.613565,0.720538 0.132,0.07124 0.24,-0.304768 0.24,-0.835575 0,-0.668995 0.187577,-1.024636 0.611373,-1.159145 0.336256,-0.106723 0.843574,-0.548426 1.127376,-0.981562 C 39.811483,82.23023 40.319556,81.92 40.788494,81.92 c 0.425555,0 0.860934,-0.141091 0.967513,-0.313536 0.113844,-0.184205 0.964615,-0.23297 2.062496,-0.118218 1.84929,0.19329 1.867168,0.187194 1.71938,-0.585926 -0.09074,-0.474672 0.04911,-0.945949 0.356387,-1.200963 0.27815,-0.230848 0.505731,-0.87729 0.505731,-1.436538 0,-1.226 0.490074,-1.781353 1.584,-1.794995 0.4488,-0.0056 1.095523,-0.2216 1.437162,-0.48 0.855497,-0.647066 1.107696,-0.593398 1.450675,0.308701 0.21673,0.570051 0.578797,0.805699 1.352077,0.88 0.85015,0.08169 1.077094,0.257475 1.163821,0.901475 0.05925,0.44 0.474694,1.097146 0.923196,1.460323 0.691968,0.56032 0.76088,0.762314 0.455028,1.333802 -0.19824,0.370416 -0.277268,1.089337 -0.175613,1.597603 0.206893,1.034467 -0.336688,1.690861 -1.471021,1.776307 -0.380496,0.02867 -0.8364,0.322279 -1.01312,0.652483 -0.256586,0.479431 -0.541373,0.559085 -1.413757,0.395428 -0.710736,-0.133338 -1.092448,-0.08072 -1.092448,0.150592 0,0.540249 0.683664,1.708588 1.239607,2.118406 0.408688,0.30127 0.428681,0.510646 0.114592,1.2 -0.292964,0.642982 -0.293527,1.025891 -0.0026,1.664736 0.327968,0.719808 0.289196,0.899904 -0.292781,1.36 -0.368944,0.291677 -0.772019,0.867466 -0.895722,1.279533 -0.127117,0.423433 -0.674803,0.937187 -1.259555,1.18151 -0.56905,0.237767 -1.219658,0.655239 -1.445795,0.927715 -0.226138,0.27248 -0.862676,0.481492 -1.414528,0.464471 -0.55185,-0.01702 -1.651367,0.140259 -2.443367,0.349513 -1.948445,0.514797 -3.978221,0.269684 -6.02431,-0.727491 -1.280813,-0.624211 -1.888884,-0.760429 -2.447098,-0.548198 -0.408531,0.155325 -0.849082,0.1836 -0.978998,0.06284 -0.129917,-0.120765 -0.158941,0.674211 -0.0645,1.766611 0.295956,3.423335 2.192064,5.847216 4.990666,6.379786 1.323299,0.25183 6.583245,-0.53769 10.349821,-1.55352 2.316445,-0.62473 2.514573,-0.63285 3.275543,-0.13425 0.992041,0.65002 1.90248,1.98292 1.642144,2.40415 -0.111949,0.18114 -0.557952,0.20552 -1.070535,0.0585 -0.867088,-0.24868 -2.312733,0.0661 -2.312733,0.50363 0,0.12381 0.239117,0.48934 0.531373,0.81227 0.720007,0.7956 0.355651,1.05196 -0.881942,0.62053 -0.746925,-0.26037 -1.375639,-0.26181 -2.328256,-0.005 -1.221242,0.32885 -1.265664,0.38019 -0.691936,0.79971 0.337197,0.24656 0.751881,0.4483 0.92152,0.4483 0.169638,0 0.03411,0.30311 -0.301162,0.67359 -0.33528,0.37048 -0.561597,0.74248 -0.502931,0.82667 0.05867,0.0842 -3.2e-4,0.24907 -0.131303,0.3664 -0.130883,0.11734 -0.134387,0.0333 -0.0078,-0.18666 0.212266,-0.36886 -0.47879,-0.54004 -1.964137,-0.48654 -0.218106,0.008 -0.317607,-0.11346 -0.221114,-0.26959 0.387399,-0.62683 -1.779309,-0.21564 -5.367971,1.01871 -3.307837,1.13775 -4.22152,1.31801 -7.220698,1.42459 -1.888513,0.0671 -4.208271,-0.0166 -5.155017,-0.1859 z m -0.96393,-12.323628 c -0.1647,-1.129658 -0.292463,-1.492938 -0.315692,-0.897642 -0.04185,1.072365 0.291369,3.096275 0.478893,2.908752 0.06241,-0.06241 -0.01103,-0.967408 -0.163201,-2.01111 z m 0.763021,-3.013978 c 0.112109,-0.181395 -0.01634,-0.23504 -0.301114,-0.125763 C 26.182247,94.810634 26.080817,95.04 26.541115,95.04 c 0.165613,0 0.389092,-0.142352 0.49662,-0.316336 z m 11.556503,-0.509837 c -0.106832,-0.278393 -0.198615,-0.818393 -0.203968,-1.2 -0.0088,-0.630185 -0.03998,-0.641869 -0.339514,-0.127369 -0.370042,0.635606 -0.105408,1.833542 0.405046,1.833542 0.18297,0 0.245264,-0.227776 0.138436,-0.506173 z m 4.865763,13.727573 c 0.230998,-0.0924 0.506998,-0.0811 0.613334,0.0252 0.106333,0.10634 -0.08267,0.18197 -0.42,0.16807 -0.372784,-0.0154 -0.448608,-0.0912 -0.193334,-0.19333 z"
       id="path3796"
       inkscape:connector-curvature="0" />
    <path
       style="fill:#e5a48a;stroke-width:0.31999999"
       d="m 26.15503,109.73182 c -3.027609,-0.71329 -5.565271,-2.79577 -6.864156,-5.6329 -1.481596,-3.23624 -2.016739,-8.774171 -1.172796,-12.136706 l 0.183811,-0.732364 1.169056,0.78751 c 0.642981,0.43313 2.406346,1.413187 3.918591,2.177904 l 2.749534,1.390397 0.849789,-0.619027 c 0.625445,-0.455607 1.166765,-0.573063 2.050465,-0.444916 0.660372,0.09576 1.936677,0.179549 2.836232,0.186196 l 1.635555,0.0121 0.168947,1.863164 c 0.17698,1.951776 1.031335,3.996562 2.057604,4.924622 0.922547,0.83427 2.82326,1.53221 4.172694,1.53221 1.328291,0 6.531312,-0.94782 9.482733,-1.72744 1.653114,-0.43667 1.979664,-0.43966 2.780576,-0.0255 0.869111,0.44944 1.906336,1.61745 1.906336,2.14672 0,0.13826 -0.653254,0.22667 -1.451677,0.19647 -1.746518,-0.0661 -2.396803,0.41028 -1.82031,1.33339 0.55744,0.8926 0.497398,0.98059 -0.428845,0.62843 -1.048368,-0.39859 -1.801001,-0.39439 -2.880569,0.0161 -0.841092,0.31978 -0.848276,0.34447 -0.282221,0.96996 0.518009,0.57239 0.528573,0.69409 0.09765,1.12501 -0.377987,0.37799 -0.673971,0.41066 -1.359443,0.15004 -1.422714,-0.54091 -3.290439,-0.3851 -5.244986,0.43755 -3.288912,1.38429 -5.503373,1.79149 -9.555794,1.75716 -2.086595,-0.0177 -4.336046,-0.1599 -4.99878,-0.31604 z m 0.119684,-11.994178 c -0.1647,-1.129658 -0.292463,-1.492938 -0.315692,-0.897642 -0.04185,1.072365 0.291369,3.096275 0.478893,2.908752 0.06241,-0.06241 -0.01103,-0.967408 -0.163201,-2.01111 z M 37.54481,95.385069 c -1.086352,-0.513933 -2.117878,-1.201043 -2.292275,-1.526906 -0.174397,-0.325865 -1.336918,-1.021261 -2.583382,-1.545321 -1.246465,-0.524064 -2.563689,-1.176061 -2.927165,-1.44888 L 29.081122,90.36792 29.763553,88.543962 C 30.13889,87.540781 30.595044,86.72 30.777229,86.72 c 0.182185,0 0.245488,-0.223478 0.140673,-0.496621 -0.104814,-0.273139 -0.07734,-0.426643 0.06104,-0.341113 0.138387,0.08553 0.450275,0.03273 0.693084,-0.117338 0.370503,-0.228986 0.375185,-0.56905 0.0291,-2.115485 -0.226801,-1.013453 -0.407094,-2.756422 -0.40065,-3.873267 0.01014,-1.757677 0.189984,-2.363002 1.337974,-4.503398 1.328662,-2.477264 3.014192,-4.34546 4.200457,-4.655674 0.569677,-0.148973 0.536583,0.0054 -0.330425,1.541696 -1.82161,3.227715 -2.310055,5.263629 -2.13048,8.880202 l 0.160502,3.232432 1.530743,0.741356 c 0.84191,0.407748 1.55718,0.742676 1.589491,0.744285 0.03231,0.0016 0.10431,-0.393075 0.16,-0.877075 0.05976,-0.519341 0.374601,-1.000099 0.768211,-1.173043 0.366829,-0.161171 0.798829,-0.593171 0.96,-0.96 0.161175,-0.366826 0.653043,-0.715149 1.093043,-0.774055 0.44,-0.0589 0.932077,-0.234176 1.093501,-0.3895 0.161427,-0.155322 1.150199,-0.192864 2.197271,-0.08342 1.787088,0.186787 1.891584,0.160598 1.704998,-0.427287 -0.111011,-0.34976 0.0093,-0.901424 0.272554,-1.249481 0.259225,-0.342768 0.4759,-1.073581 0.4815,-1.624032 0.01133,-1.113373 0.631197,-1.806045 1.511095,-1.688547 0.318496,0.04253 0.995805,-0.12352 1.505133,-0.369002 0.856973,-0.413034 0.961331,-0.39319 1.39903,0.266022 0.305472,0.460061 0.796989,0.712346 1.387853,0.712346 0.733981,0 0.95625,0.173997 1.124134,0.88 0.115092,0.484 0.5816,1.186973 1.036682,1.56216 0.70945,0.584899 0.766637,0.755402 0.401101,1.195846 -0.262829,0.316688 -0.345296,0.836503 -0.215043,1.355469 0.256544,1.022151 -0.540362,2.046525 -1.592084,2.046525 -0.443958,0 -0.776243,0.241539 -0.880444,0.64 -0.175444,0.670896 -1.315216,0.889654 -1.66728,0.32 -0.108775,-0.176 -0.351274,-0.32 -0.538887,-0.32 -0.536835,0 -0.01955,1.955245 0.727712,2.750685 0.562407,0.598653 0.599472,0.796739 0.252909,1.351673 -0.315286,0.504855 -0.322598,0.833421 -0.0327,1.469668 0.316141,0.693856 0.279818,0.906598 -0.237002,1.388089 -0.335702,0.312752 -0.760176,0.962669 -0.943276,1.444263 -0.183665,0.48308 -0.57826,0.875621 -0.880205,0.875621 -0.301012,0 -0.892525,0.324 -1.314474,0.72 -0.423463,0.397421 -1.221226,0.740218 -1.780624,0.765126 -0.557395,0.02483 -1.589447,0.201383 -2.293447,0.392365 -2.140313,0.580627 -3.70303,0.4268 -5.815189,-0.572422 z m 1.049428,-1.171242 c -0.106832,-0.278393 -0.198615,-0.818393 -0.203968,-1.2 -0.0088,-0.630185 -0.03998,-0.641869 -0.339514,-0.127369 -0.370042,0.635606 -0.105408,1.833542 0.405046,1.833542 0.18297,0 0.245264,-0.227776 0.138436,-0.506173 z M 19.967331,74.718285 c 0.03913,-0.266621 0.271546,-0.663306 0.516476,-0.881523 0.371705,-0.331168 0.382209,-0.312538 0.06354,0.112681 -0.209985,0.280192 -0.30146,0.589773 -0.203277,0.687955 0.09818,0.09818 0.03757,0.26562 -0.134685,0.372084 -0.17226,0.10646 -0.281182,-0.02458 -0.242051,-0.291197 z m 2.286335,-2.376173 c -0.101258,-0.16384 -0.06176,-0.373504 0.08778,-0.465923 0.149538,-0.09242 0.271887,0.04163 0.271887,0.297888 0,0.539574 -0.100908,0.586717 -0.359668,0.168035 z m 1.92,-2.24 c -0.101258,-0.16384 -0.06176,-0.373504 0.08778,-0.465923 0.149538,-0.09242 0.271887,0.04163 0.271887,0.297888 0,0.539574 -0.100908,0.586717 -0.359668,0.168035 z M 36.69099,69.997741 c 0.08226,-0.133245 -0.07472,-0.328333 -0.348868,-0.433533 -0.274147,-0.105197 -0.419795,-0.318531 -0.323664,-0.474074 0.09613,-0.155542 -0.02563,-0.2059 -0.270569,-0.111907 -0.244944,0.09399 -0.648423,-0.08765 -0.896621,-0.403664 -0.421206,-0.536291 -0.408637,-0.542589 0.188733,-0.09456 0.592608,0.444454 0.607696,0.438794 0.203741,-0.07648 -0.239943,-0.306061 -0.56689,-0.475741 -0.726551,-0.377065 -0.159661,0.09868 -0.730393,-0.190909 -1.268294,-0.643524 -1.091082,-0.918086 -1.57062,-1.011814 -2.163855,-0.422934 -0.323202,0.320829 -0.358007,0.281984 -0.175848,-0.196262 0.206887,-0.543168 0.106932,-0.575959 -1.122541,-0.36824 -1.107466,0.187104 -1.426558,0.122844 -1.778239,-0.358109 -0.391449,-0.535338 -0.562896,-0.549648 -1.978501,-0.165155 -0.852452,0.231532 -3.133912,0.543171 -5.069913,0.692524 -1.936,0.149357 -5.176,0.44098 -7.2,0.648052 C 9.238302,67.675418 4.0836638,67.433261 2.9738707,66.706096 1.8954139,65.999466 1.2060835,64.239424 1.4657261,62.855408 1.8877903,60.605613 4.1995307,57.804534 12.282108,49.749453 c 4.420841,-4.405802 8.82356,-8.653802 9.783821,-9.44 5.548208,-4.542512 6.38546,-5.691146 6.698301,-9.189453 0.06357,-0.710854 1.249896,-0.424693 1.95488,0.471548 0.64092,0.814801 0.671495,1.101297 0.469556,4.400001 -0.229317,3.745923 -0.663935,4.968451 -1.76632,4.968451 -0.353596,0 -1.130203,0.203606 -1.725795,0.452461 -0.908384,0.379549 -1.316972,0.933907 -2.535443,3.44 C 24.362205,46.495606 22.337086,49.712 20.660843,52 c -4.043403,5.519072 -3.949012,5.349555 -2.837617,5.096118 0.493226,-0.11247 3.056774,-0.852262 5.696775,-1.643984 7.991466,-2.396592 9.894304,-2.939065 11.569891,-3.298416 1.541078,-0.330502 1.733552,-0.500899 4.799463,-4.249014 C 41.646052,45.757117 45.188366,41.192 47.76116,37.76 c 2.572793,-3.432 4.946617,-6.544854 5.275164,-6.917453 0.328548,-0.372599 2.46178,-2.009918 4.740519,-3.638486 C 63.904529,22.824725 68.006094,19.53813 70.880002,16.704465 74.092651,13.536801 81.223272,5.9833962 81.862418,5.070888 82.126293,4.6941542 82.367772,3.6588954 82.399036,2.7703123 82.4303,1.8817292 82.615327,1.1015588 82.8102,1.0366002 c 0.649162,-0.21638682 1.580071,0.5279769 2.142464,1.7131352 0.634007,1.3360694 0.525562,2.5676153 -0.507724,5.7659926 -0.849226,2.628635 -1.720573,3.754906 -2.712417,3.505969 -0.936985,-0.235168 -1.915088,0.745382 -2.18646,2.191932 C 79.131435,16.423778 75.236594,23.513647 71.972475,28 c -1.414211,1.943754 -4.765353,5.244058 -6.889945,6.785421 -0.859393,0.623475 -2.592858,1.617859 -3.852151,2.209741 l -2.289622,1.076147 -0.821594,2.443613 c -0.546291,1.624806 -1.453904,3.315065 -2.70864,5.044345 -4.201248,5.790163 -6.009741,8.992362 -6.752599,11.956451 -1.31102,5.231124 -3.839437,9.338823 -6.449792,10.47842 -0.774473,0.338108 -1.990608,1.004352 -2.702521,1.480537 -1.150362,0.76945 -3.202167,1.150755 -2.814621,0.523066 z"
       id="path3794"
       inkscape:connector-curvature="0" />
    <path
       style="fill:#9faeae;stroke-width:0.31999999"
       d="m 33.760001,109.13494 c 0.614307,-0.27832 2.328272,-0.45978 2.053334,-0.21739 -0.07333,0.0647 -0.709334,0.20525 -1.413334,0.31245 -0.892096,0.13584 -1.086048,0.10703 -0.64,-0.0951 z m 3.6,-0.86687 c 0.22,-0.0888 0.58,-0.0888 0.8,0 0.22,0.0888 0.04,0.16141 -0.4,0.16141 -0.44,0 -0.62,-0.0726 -0.4,-0.16141 z M 45.818359,107.36 c -0.522912,-0.44 -1.109958,-0.8 -1.304553,-0.8 -0.421408,0 -0.445495,-0.31983 -0.06885,-0.91424 0.167786,-0.26481 0.529956,-0.35338 0.92817,-0.22699 0.359162,0.11399 0.745635,0.0574 0.858835,-0.12575 0.1132,-0.18316 0.01731,-0.33522 -0.213069,-0.33792 -0.30438,-0.004 -0.287676,-0.0897 0.06111,-0.3151 0.395226,-0.25541 0.399936,-0.31107 0.02666,-0.3151 -0.249331,-0.003 -0.368131,-0.0901 -0.264,-0.19423 0.104134,-0.10414 0.452134,-0.0365 0.773334,0.15027 0.345418,0.20086 0.412874,0.34358 0.165114,0.34933 -0.230387,0.005 -0.336038,0.14378 -0.234781,0.30762 0.101261,0.16384 0.02595,0.39563 -0.167353,0.5151 -0.225693,0.13949 -0.03437,0.54818 0.534649,1.14211 0.723418,0.75509 0.783524,0.9249 0.327354,0.9249 -0.307315,0 -0.469757,0.144 -0.360983,0.32 0.333028,0.53885 -0.06431,0.3592 -1.061641,-0.48 z m 0.261642,-0.8 c -0.405859,-0.352 -0.810211,-0.64 -0.89856,-0.64 -0.08835,0 0.100003,0.288 0.41856,0.64 0.318557,0.352 0.722909,0.64 0.89856,0.64 0.175651,0 -0.0127,-0.288 -0.41856,-0.64 z m -5.2,0.42807 c 0.22,-0.0888 0.58,-0.0888 0.8,0 0.22,0.0888 0.04,0.16141 -0.4,0.16141 -0.44,0 -0.62,-0.0726 -0.4,-0.16141 z m 9.893335,-1.2814 c -0.117335,-0.11734 -0.213335,-0.36214 -0.213335,-0.544 0,-0.20052 0.149047,-0.18162 0.378666,0.048 0.208269,0.20826 0.304269,0.45306 0.213334,0.544 -0.09093,0.0909 -0.261334,0.0693 -0.378665,-0.048 z m -20.238572,-0.84593 c -0.89388,-0.4293 -1.930627,-1.16879 -2.303882,-1.64331 -0.973161,-1.23717 -1.676779,-3.953296 -1.633761,-6.306681 0.02042,-1.116912 0.103315,-1.776986 0.184218,-1.466832 0.0809,0.310157 0.283768,0.479453 0.450809,0.376214 0.16704,-0.103235 0.283089,-0.069 0.257887,0.07608 -0.125569,0.722845 0.06557,1.399552 0.3463,1.226052 0.173984,-0.10753 0.239402,0.005 0.145373,0.250016 -0.440687,1.148409 1.998145,5.645161 2.794683,5.152871 0.153707,-0.095 0.239899,0.0153 0.191538,0.24519 -0.233682,1.11065 4.099589,2.20799 8.072072,2.04415 1.841136,-0.0759 2.176454,-0.0299 1.44,0.19771 -0.528,0.1632 -2.616,0.3715 -4.64,0.46291 -3.427843,0.1548 -3.791363,0.1127 -5.305237,-0.61437 z m 18.745237,-0.0265 c 0,-0.0692 0.223479,-0.21152 0.496621,-0.31634 0.284774,-0.10928 0.413222,-0.0556 0.301114,0.12576 -0.187924,0.30407 -0.797735,0.44975 -0.797735,0.19058 z m -11.36,-0.51424 c 0.352,-0.15126 0.928,-0.27078 1.28,-0.26561 0.514493,0.008 0.483114,0.0597 -0.16,0.26561 -1.094135,0.3504 -1.935431,0.3504 -1.12,0 z m -2.08,-0.32 c 0.264,-0.17061 0.624,-0.3102 0.8,-0.3102 0.176,0 0.104,0.13959 -0.16,0.3102 -0.264,0.17061 -0.624,0.3102 -0.8,0.3102 -0.176,0 -0.104,-0.13959 0.16,-0.3102 z m 7.601994,0.1074 c 0.221097,-0.0891 0.339072,-0.26387 0.262169,-0.3883 -0.304336,-0.49243 1.079207,-0.28154 1.459063,0.22239 0.343116,0.4552 0.336515,0.47663 -0.04266,0.13851 -0.535916,-0.47789 -1.080086,-0.53227 -0.800566,-0.08 0.111325,0.18013 -0.125197,0.30896 -0.541114,0.29474 -0.406387,-0.0139 -0.55799,-0.0982 -0.336892,-0.18734 z m 5.458006,-0.006 c 0.230999,-0.0924 0.506999,-0.0811 0.613335,0.0252 0.106332,0.10633 -0.08267,0.18196 -0.42,0.16807 -0.372784,-0.0154 -0.448608,-0.0912 -0.193335,-0.19333 z m -2.18,-0.37804 c 0,-0.17612 0.29009,-0.41229 0.644647,-0.52483 0.354556,-0.11253 0.562057,-0.33823 0.461113,-0.50156 -0.100941,-0.16333 0.04097,-0.29696 0.315354,-0.29696 0.714614,0 0.624963,0.18664 -0.461114,0.96 -0.528,0.37597 -0.96,0.53948 -0.96,0.36335 z M 35.765905,103.3061 c 0.185952,-0.18596 0.526982,-0.27514 0.757843,-0.19818 0.239664,0.0799 0.09461,0.22494 -0.338096,0.33809 -0.532272,0.13919 -0.65721,0.0975 -0.419747,-0.13991 z m 14.913229,0.13119 c 0.156134,-0.25983 -0.02074,-0.50075 -0.498576,-0.67906 -0.612755,-0.22866 -0.500035,-0.28003 0.653184,-0.2977 0.76656,-0.0117 1.48656,-0.12054 1.6,-0.24177 0.113443,-0.12123 -0.264474,-0.15458 -0.839814,-0.0741 -0.647588,0.0906 -1.182903,-0.0186 -1.405261,-0.2865 -0.282416,-0.34029 -0.246922,-0.38971 0.166073,-0.23123 0.288893,0.11086 0.525261,0.0467 0.525261,-0.14263 0,-0.77926 2.392234,0.45298 2.85617,1.47121 0.343219,0.75328 0.319718,0.79058 -0.364653,0.57864 -1.293789,-0.40067 -2.000752,-0.41509 -2.472944,-0.0504 -0.352499,0.2722 -0.404301,0.26125 -0.21944,-0.0464 z m -20.7858,-1.77886 c -0.470829,-0.5395 -0.438804,-1.49843 0.05004,-1.49843 0.239163,0 0.330243,0.25416 0.229344,0.64 -0.09357,0.35782 -0.0098,0.64 0.189959,0.64 0.196527,0 0.357322,0.144 0.357322,0.32 0,0.43284 -0.403552,0.38325 -0.826667,-0.10157 z m 3.842865,-0.12057 c 0.04665,-0.31782 0.191085,-0.55386 0.320973,-0.52453 0.485962,0.10975 0.504518,0.3469 0.05626,0.71893 -0.37575,0.31184 -0.446202,0.27554 -0.377229,-0.1944 z m 14.583802,0.41638 c 0,-0.0692 0.223479,-0.21152 0.496621,-0.31634 0.284774,-0.10928 0.413222,-0.0556 0.301114,0.12576 -0.187924,0.30407 -0.797735,0.44975 -0.797735,0.19058 z m -19.2,-2.415354 c 0,-0.165612 0.14235,-0.389094 0.316334,-0.49662 0.181396,-0.112109 0.235043,0.01635 0.125764,0.301113 -0.212733,0.554375 -0.442098,0.655805 -0.442098,0.195507 z M 18.905263,96.133334 c 0.01535,-0.372784 0.09118,-0.448608 0.193334,-0.193334 0.09244,0.230998 0.08107,0.507002 -0.02526,0.613334 -0.106334,0.106333 -0.181965,-0.08267 -0.16807,-0.42 z m 23.327333,-0.604412 c 0.311411,-0.375226 0.294579,-0.567463 -0.08272,-0.944762 -0.260525,-0.260528 -0.574826,-0.372541 -0.698445,-0.248922 -0.123619,0.12362 -0.195709,0.08076 -0.160198,-0.09524 0.187181,-0.927776 -0.09161,-1.15937 -0.433085,-0.359763 -0.353357,0.827427 -0.436538,0.867769 -0.824752,0.4 -0.343126,-0.413443 -0.351069,-0.617459 -0.03869,-0.99385 0.532086,-0.641123 1.918105,-0.524531 1.669696,0.140455 -0.16274,0.435651 -0.111933,0.438985 0.435692,0.02858 0.419034,-0.314026 0.496615,-0.32553 0.239415,-0.0355 -0.300115,0.338425 -0.238141,0.544339 0.293363,0.974726 0.757507,0.613389 0.595613,1.605344 -0.262003,1.605344 -0.429687,0 -0.455693,-0.0886 -0.138266,-0.471078 z M 40.640001,93.76 c 0,-0.176 -0.152499,-0.32 -0.338886,-0.32 -0.186388,0 -0.249888,0.144 -0.141114,0.32 0.108774,0.176 0.261274,0.32 0.338886,0.32 0.07761,0 0.141114,-0.144 0.141114,-0.32 z m 4.986432,1.642768 c -0.09424,-0.15248 0.110448,-0.53225 0.454854,-0.843933 0.920916,-0.833417 1.121293,-2.439504 0.474423,-3.802681 -0.655024,-1.380359 -2.242925,-2.421837 -4.445917,-2.916 C 40.820929,87.55104 40.458609,87.328704 40.377745,86.777283 40.321505,86.393776 40.204036,86.08 40.116708,86.08 c -0.483286,0 -1.396707,0.725722 -1.396707,1.109696 0,0.245946 -0.278957,0.535712 -0.619904,0.643926 -0.822551,0.261066 -2.456039,2.764762 -2.719271,4.167908 -0.125545,0.669216 -0.396803,1.11847 -0.675324,1.11847 -0.256026,0 -0.465501,-0.159405 -0.465501,-0.354237 0,-0.194829 -0.211834,-0.272947 -0.470739,-0.173597 -0.258906,0.09935 -0.658336,0.0068 -0.88762,-0.205763 -0.229283,-0.212521 -0.628089,-0.433949 -0.886232,-0.492061 -0.258144,-0.05811 -0.562616,-0.25656 -0.676604,-0.440995 -0.113988,-0.184438 -0.335377,-0.256153 -0.491975,-0.159373 -0.156598,0.09678 -0.605103,-0.06569 -0.996677,-0.361059 l -0.711953,-0.537027 0.634116,-1.734864 c 0.348763,-0.954176 0.799617,-1.837152 1.001897,-1.96217 0.204712,-0.126518 0.25674,-0.406969 0.117341,-0.632521 -0.144073,-0.233114 -0.121018,-0.325232 0.05428,-0.21689 0.167596,0.103581 0.503383,0.06555 0.746192,-0.08451 0.370503,-0.228986 0.375185,-0.56905 0.0291,-2.115485 -0.226801,-1.013453 -0.407094,-2.756422 -0.40065,-3.873267 0.01015,-1.759075 0.189403,-2.361296 1.340473,-4.503398 1.361248,-2.533239 2.718326,-4.06585 4.047731,-4.57129 0.413223,-0.157107 0.751312,-0.450845 0.751312,-0.652749 0,-0.266745 -0.127699,-0.261123 -0.467113,0.02058 -0.386663,0.320899 -0.445623,0.27609 -0.342346,-0.260182 0.06862,-0.35632 -0.08118,-0.818771 -0.33289,-1.027671 -0.286235,-0.237564 -0.457649,-0.255283 -0.457649,-0.04731 0,0.182884 0.18,0.405149 0.4,0.49392 0.22,0.08877 0.248368,0.172772 0.06304,0.186666 -0.434784,0.0326 -3.02304,-1.866061 -3.02304,-2.217603 0,-0.326394 -1.628711,-0.861805 -3.36,-1.104544 -0.937545,-0.13145 -1.108772,-0.09895 -0.64,0.121481 0.57783,0.271712 0.554516,0.303133 -0.24,0.323437 -0.484,0.01238 -0.88,-0.130006 -0.88,-0.316393 0,-0.186388 -0.142351,-0.250906 -0.316335,-0.14338 -0.181395,0.112109 -0.235042,-0.01635 -0.125764,-0.301113 0.234041,-0.609901 0.145796,-0.611283 -1.908651,-0.02992 -1.527335,0.432205 -4.424777,0.730477 -13.98373,1.439526 -3.4899711,0.258863 -7.4502259,0.0449 -8.7173502,-0.470984 C 2.2951407,66.38425 1.5994911,64.877846 1.6030029,63.455891 1.6086885,61.15375 3.1660314,59.168752 11.720554,50.56 c 4.459728,-4.488 9.066622,-8.952 10.23754,-9.92 1.170919,-0.968 2.864656,-2.48 3.76386,-3.36 0.899204,-0.88 1.743621,-1.564 1.876482,-1.52 0.13286,0.044 0.211958,-0.028 0.175772,-0.16 -0.03619,-0.132 0.179814,-0.700848 0.48,-1.264109 0.300186,-0.563261 0.545793,-1.607261 0.545793,-2.32 0,-1.064193 0.109762,-1.295891 0.613901,-1.295891 0.981049,0 2.051224,2.020742 1.828228,3.452128 -0.101782,0.653328 -0.269639,2.051872 -0.373014,3.107872 -0.308593,3.152339 -0.36727,3.289018 -1.508814,3.514515 -2.535682,0.500896 -3.40552,1.216634 -3.895635,3.205485 -0.269007,1.091606 -4.12286,7.065667 -6.975332,10.812829 -1.051473,1.381273 -1.851007,2.572166 -1.776744,2.646429 0.07426,0.07426 3.796311,-0.954365 8.271217,-2.28584 4.474906,-1.331476 8.947505,-2.592068 9.939108,-2.801319 l 1.802918,-0.380457 3.847905,-4.697584 c 2.116345,-2.583674 4.538816,-5.677792 5.38327,-6.875821 4.203994,-5.964231 7.597847,-10.07102 9.273978,-11.222129 2.922278,-2.006923 9.758224,-7.107985 12.129015,-9.050814 2.495494,-2.045022 7.430384,-7.02689 8.306221,-8.385294 0.312064,-0.484 0.733664,-0.88 0.936892,-0.88 0.203232,0 0.94146,-0.722057 1.640506,-1.6045702 0.826848,-1.0438541 1.436266,-1.5411511 1.743936,-1.4230871 0.260115,0.099816 0.370602,0.079147 0.245523,-0.04593 -0.125075,-0.1250771 0.311312,-0.8847782 0.969754,-1.6882243 1.045805,-1.2761139 1.20047,-1.6821642 1.223283,-3.2115378 0.01437,-0.9628996 0.178519,-1.8015288 0.364794,-1.8636206 0.186275,-0.0620918 0.728691,0.2225767 1.205369,0.6325967 0.640384,0.5508376 0.911104,1.1395979 1.03681,2.2548577 0.180557,1.6018752 -0.444659,4.4943001 -0.909382,4.2070838 -0.152007,-0.093945 -0.194644,0.042178 -0.09475,0.3024941 0.239004,0.6228394 -0.994112,3.3898657 -1.53096,3.4353587 -0.229898,0.01948 -0.713706,0.01288 -1.075127,-0.01466 -0.889149,-0.06777 -1.606454,0.810663 -2.063773,2.527354 -0.768941,2.886453 -4.150358,8.888106 -7.769341,13.789742 -2.798608,3.790501 -6.812361,7.081813 -10.861443,8.906472 l -2.008311,0.905014 -0.704838,2.273427 c -0.530922,1.712461 -1.526064,3.480503 -4.033005,7.165332 -4.325814,6.3583 -4.838051,7.30438 -5.50735,10.1719 -1.127124,4.828998 -4.363284,9.8384 -6.741351,10.435258 -1.612477,0.404704 -4.351482,2.601881 -5.288282,4.242153 -1.741085,3.048528 -2.244083,5.177795 -2.075488,8.785875 L 34.52186,84.32 l 1.379072,0.70111 c 1.77401,0.901901 1.798006,0.900135 1.917814,-0.14111 0.05976,-0.519341 0.374602,-1.000099 0.768212,-1.173043 0.366829,-0.161171 0.798829,-0.593171 0.96,-0.96 0.161174,-0.366826 0.653043,-0.715149 1.093043,-0.774055 0.44,-0.0589 0.932077,-0.234176 1.093501,-0.3895 0.161427,-0.155322 1.150198,-0.192864 2.19727,-0.08342 1.787088,0.186787 1.891584,0.160598 1.704999,-0.427287 -0.111012,-0.34976 0.0093,-0.901424 0.272553,-1.249481 0.259226,-0.342768 0.475901,-1.073581 0.481501,-1.624032 0.01133,-1.113373 0.631197,-1.806045 1.511095,-1.688547 0.318496,0.04253 0.995804,-0.12352 1.505132,-0.369002 0.856973,-0.413034 0.961332,-0.39319 1.399031,0.266022 0.305472,0.460061 0.796989,0.712346 1.387853,0.712346 0.73398,0 0.956249,0.173997 1.124134,0.88 0.115091,0.484 0.5816,1.186973 1.036682,1.56216 0.709449,0.584899 0.766636,0.755402 0.4011,1.195846 -0.262828,0.316688 -0.345296,0.836503 -0.215043,1.355469 0.256544,1.022151 -0.540361,2.046525 -1.592083,2.046525 -0.443958,0 -0.776243,0.241539 -0.880445,0.64 -0.175443,0.670896 -1.315216,0.889654 -1.66728,0.32 -0.108774,-0.176 -0.351273,-0.32 -0.538886,-0.32 -0.536835,0 -0.01955,1.955245 0.727712,2.750685 0.562406,0.598653 0.599472,0.796739 0.252909,1.351673 -0.315287,0.504855 -0.322599,0.833421 -0.0327,1.469668 0.31614,0.693856 0.279817,0.906598 -0.237002,1.388089 -0.335702,0.312752 -0.760176,0.962669 -0.943277,1.444263 C 49.431521,93.723136 49.054513,94.08 48.7037,94.08 c -0.325676,0 -0.930339,0.36 -1.343699,0.8 -0.768384,0.817907 -1.428192,1.016877 -1.733568,0.522768 z M 35.520001,68.488218 c 0,-0.171482 -0.468,-0.543229 -1.04,-0.826112 l -1.04,-0.514327 0.96,0.814602 c 1.102281,0.935334 1.12,0.943654 1.12,0.525837 z m 2.030425,26.05798 c -0.10422,-0.27159 -0.11799,-0.565302 -0.03059,-0.652691 0.08739,-0.08739 0.2357,0.134819 0.329575,0.493802 0.199408,0.762537 -0.02214,0.880285 -0.298976,0.158889 z m 6.162772,-0.01507 c -0.217632,-0.567148 0.006,-1.091123 0.465689,-1.091123 0.165613,0 0.301114,0.36 0.301114,0.8 0,0.895146 -0.466982,1.072442 -0.766803,0.291123 z m -15.787107,-0.03288 c 0.311349,-0.08113 0.743349,-0.0758 0.96,0.01187 0.21665,0.08766 -0.03809,0.154039 -0.56609,0.147517 -0.528,-0.0065 -0.70526,-0.07824 -0.39391,-0.159373 z M 38.770526,93.76 c 0,-0.44 0.07263,-0.62 0.161405,-0.4 0.08877,0.22 0.08877,0.58 0,0.8 -0.08877,0.22 -0.161405,0.04 -0.161405,-0.4 z M 18.473989,92.774349 c 0.113154,-0.432704 0.258208,-0.57776 0.338096,-0.338096 0.07695,0.230861 -0.01223,0.571891 -0.198181,0.757843 -0.237461,0.237462 -0.279107,0.112525 -0.139915,-0.419747 z m 22.806012,-1.520391 c 0,-0.135276 0.16808,-0.414038 0.37351,-0.619468 0.284679,-0.284679 0.246628,-0.422199 -0.16,-0.578237 C 40.927127,89.838912 40.756942,89.28 41.257143,89.28 c 0.530836,0 1.28026,0.966547 1.104519,1.424518 -0.18792,0.489712 -1.081661,0.943696 -1.081661,0.54944 z m 2.14313,0.02605 c -0.343517,-0.612313 -0.524282,-2 -0.260532,-2 0.233437,0 0.997402,1.62976 0.997402,2.127751 0,0.215081 -0.60321,0.110502 -0.73687,-0.127751 z M 38.901073,90.594102 C 38.667258,90.215776 39.018443,89.28 39.394238,89.28 c 0.37872,0 0.368595,1.191034 -0.01213,1.426333 -0.16384,0.101261 -0.380307,0.05075 -0.48104,-0.112237 z M 39.360001,87.04 c 0,-0.176 0.152499,-0.32 0.338886,-0.32 0.186388,0 0.249888,0.144 0.141114,0.32 -0.108774,0.176 -0.261274,0.32 -0.338886,0.32 -0.07761,0 -0.141114,-0.144 -0.141114,-0.32 z M 19.967331,74.718285 c 0.03913,-0.266621 0.271546,-0.663306 0.516476,-0.881523 0.371705,-0.331168 0.382209,-0.312538 0.06354,0.112681 -0.209985,0.280192 -0.30146,0.589773 -0.203277,0.687955 0.09818,0.09818 0.03757,0.26562 -0.134685,0.372084 -0.17226,0.10646 -0.281182,-0.02458 -0.242051,-0.291197 z m 2.286335,-2.376173 c -0.101258,-0.16384 -0.06176,-0.373504 0.08778,-0.465923 0.149538,-0.09242 0.271887,0.04163 0.271887,0.297888 0,0.539574 -0.100908,0.586717 -0.359668,0.168035 z m 1.92,-2.24 c -0.101258,-0.16384 -0.06176,-0.373504 0.08778,-0.465923 0.149538,-0.09242 0.271887,0.04163 0.271887,0.297888 0,0.539574 -0.100908,0.586717 -0.359668,0.168035 z"
       id="path3792"
       inkscape:connector-curvature="0" />
    <path
       style="fill:#d98e74;stroke-width:0.31999999"
       d="m 33.760001,109.13494 c 0.614307,-0.27832 2.328272,-0.45978 2.053334,-0.21739 -0.07333,0.0647 -0.709334,0.20525 -1.413334,0.31245 -0.892096,0.13584 -1.086048,0.10703 -0.64,-0.0951 z m 3.6,-0.86687 c 0.22,-0.0888 0.58,-0.0888 0.8,0 0.22,0.0888 0.04,0.16141 -0.4,0.16141 -0.44,0 -0.62,-0.0726 -0.4,-0.16141 z m 8.250214,-1.05678 C 45.286043,106.85308 44.827127,106.56 44.590404,106.56 c -0.493552,0 -0.539952,-0.29164 -0.145453,-0.91424 0.167786,-0.26481 0.529956,-0.35338 0.92817,-0.22699 0.359162,0.11399 0.745635,0.0574 0.858835,-0.12575 0.1132,-0.18316 0.01731,-0.33522 -0.213069,-0.33792 -0.30438,-0.004 -0.287676,-0.0897 0.06111,-0.3151 0.395226,-0.25541 0.399936,-0.31107 0.02666,-0.3151 -0.249331,-0.003 -0.368131,-0.0901 -0.264,-0.19423 0.104134,-0.10414 0.452134,-0.0365 0.773334,0.15027 0.345418,0.20086 0.412874,0.34358 0.165114,0.34933 -0.230387,0.005 -0.336038,0.14378 -0.234781,0.30762 0.101261,0.16384 0.02595,0.39563 -0.167353,0.5151 -0.225693,0.13949 -0.03437,0.54818 0.534649,1.14211 0.48736,0.5087 0.726948,0.9249 0.532413,0.9249 -0.194534,0 -0.55456,0.0771 -0.800061,0.17129 -0.245497,0.0942 -0.711593,-0.1218 -1.035766,-0.48 z M 46.080001,106.56 c -0.405859,-0.352 -0.810211,-0.64 -0.89856,-0.64 -0.08835,0 0.100003,0.288 0.41856,0.64 0.318557,0.352 0.722909,0.64 0.89856,0.64 0.175651,0 -0.0127,-0.288 -0.41856,-0.64 z m -5.2,0.42807 c 0.22,-0.0888 0.58,-0.0888 0.8,0 0.22,0.0888 0.04,0.16141 -0.4,0.16141 -0.44,0 -0.62,-0.0726 -0.4,-0.16141 z m -10.345237,-2.12733 c -1.981441,-0.95163 -2.829032,-1.97806 -3.478645,-4.21265 -0.439099,-1.510452 -0.695117,-6.067012 -0.283524,-5.046096 0.08914,0.221097 0.297337,0.318393 0.462665,0.216214 0.165329,-0.102179 0.279977,-0.06708 0.254775,0.07801 -0.125569,0.722845 0.06557,1.399552 0.3463,1.226052 0.173984,-0.10753 0.239402,0.005 0.145373,0.250016 -0.440687,1.148409 1.998145,5.645154 2.794683,5.152864 0.153707,-0.095 0.239899,0.0153 0.191538,0.24519 -0.233682,1.11065 4.099589,2.20799 8.072072,2.04415 1.841136,-0.0759 2.176454,-0.0299 1.44,0.19771 -0.528,0.1632 -2.616,0.3715 -4.64,0.46291 -3.427843,0.1548 -3.791363,0.1127 -5.305237,-0.61437 z m 18.745237,-0.0265 c 0,-0.0692 0.223479,-0.21152 0.496621,-0.31634 0.284774,-0.10928 0.413222,-0.0556 0.301114,0.12576 -0.187924,0.30407 -0.797735,0.44975 -0.797735,0.19058 z m -11.36,-0.51424 c 0.352,-0.15126 0.928,-0.27078 1.28,-0.26561 0.514493,0.008 0.483114,0.0597 -0.16,0.26561 -1.094135,0.3504 -1.935431,0.3504 -1.12,0 z m -2.08,-0.32 c 0.264,-0.17061 0.624,-0.3102 0.8,-0.3102 0.176,0 0.104,0.13959 -0.16,0.3102 -0.264,0.17061 -0.624,0.3102 -0.8,0.3102 -0.176,0 -0.104,-0.13959 0.16,-0.3102 z m 7.601994,0.1074 c 0.221097,-0.0891 0.339072,-0.26387 0.262169,-0.3883 -0.304336,-0.49243 1.079207,-0.28154 1.459063,0.22239 0.343116,0.4552 0.336515,0.47663 -0.04266,0.13851 -0.535916,-0.47789 -1.080086,-0.53227 -0.800566,-0.08 0.111325,0.18013 -0.125197,0.30896 -0.541114,0.29474 -0.406387,-0.0139 -0.55799,-0.0982 -0.336892,-0.18734 z m 5.458006,-0.006 c 0.230999,-0.0924 0.506999,-0.0811 0.613335,0.0252 0.106332,0.10633 -0.08267,0.18196 -0.42,0.16807 -0.372784,-0.0154 -0.448608,-0.0912 -0.193335,-0.19333 z m -2.18,-0.37804 c 0,-0.17612 0.29009,-0.41229 0.644647,-0.52483 0.354556,-0.11253 0.562057,-0.33823 0.461113,-0.50156 -0.100941,-0.16333 0.04097,-0.29696 0.315354,-0.29696 0.714614,0 0.624963,0.18664 -0.461114,0.96 -0.528,0.37597 -0.96,0.53948 -0.96,0.36335 z M 35.765905,103.3061 c 0.185952,-0.18596 0.526982,-0.27514 0.757843,-0.19818 0.239664,0.0799 0.09461,0.22494 -0.338096,0.33809 -0.532272,0.13919 -0.65721,0.0975 -0.419747,-0.13991 z m 14.913229,0.13119 c 0.156134,-0.25983 -0.02074,-0.50075 -0.498576,-0.67906 -0.612755,-0.22866 -0.500035,-0.28003 0.653184,-0.2977 0.76656,-0.0117 1.48656,-0.12054 1.6,-0.24177 0.113443,-0.12123 -0.264474,-0.15458 -0.839814,-0.0741 -0.647588,0.0906 -1.182903,-0.0186 -1.405261,-0.2865 -0.282416,-0.34029 -0.246922,-0.38971 0.166073,-0.23123 0.288893,0.11086 0.525261,0.0621 0.525261,-0.1083 0,-0.48508 1.477095,-0.0807 2.214461,0.60628 0.836422,0.77924 0.908384,1.72572 0.105539,1.38806 -0.935497,-0.39346 -1.815334,-0.40465 -2.301427,-0.0293 -0.352499,0.27221 -0.404301,0.26125 -0.21944,-0.0464 z m -20.7858,-1.77886 c -0.470829,-0.5395 -0.438804,-1.49843 0.05004,-1.49843 0.239163,0 0.330243,0.25416 0.229344,0.64 -0.09357,0.35782 -0.0098,0.64 0.189959,0.64 0.196527,0 0.357322,0.144 0.357322,0.32 0,0.43284 -0.403552,0.38325 -0.826667,-0.10157 z m 3.842865,-0.12057 c 0.04665,-0.31782 0.191085,-0.55386 0.320973,-0.52453 0.485962,0.10975 0.504518,0.3469 0.05626,0.71893 -0.37575,0.31184 -0.446202,0.27554 -0.377229,-0.1944 z m 14.583802,0.41638 c 0,-0.0692 0.223479,-0.21152 0.496621,-0.31634 0.284774,-0.10928 0.413222,-0.0556 0.301114,0.12576 -0.187924,0.30407 -0.797735,0.44975 -0.797735,0.19058 z m -19.2,-2.415354 c 0,-0.165612 0.14235,-0.389094 0.316334,-0.49662 0.181396,-0.112109 0.235043,0.01635 0.125764,0.301113 -0.212733,0.554375 -0.442098,0.655805 -0.442098,0.195507 z M 18.905263,96.133334 c 0.01535,-0.372784 0.09118,-0.448608 0.193334,-0.193334 0.09244,0.230998 0.08107,0.507002 -0.02526,0.613334 -0.106334,0.106333 -0.181965,-0.08267 -0.16807,-0.42 z m 23.327333,-0.604412 c 0.311411,-0.375226 0.294579,-0.567463 -0.08272,-0.944762 -0.260525,-0.260528 -0.574826,-0.372541 -0.698445,-0.248922 -0.123619,0.12362 -0.195709,0.08076 -0.160198,-0.09524 0.187181,-0.927776 -0.09161,-1.15937 -0.433085,-0.359763 -0.353357,0.827427 -0.436538,0.867769 -0.824752,0.4 -0.343126,-0.413443 -0.351069,-0.617459 -0.03869,-0.99385 0.532086,-0.641123 1.918105,-0.524531 1.669696,0.140455 -0.16274,0.435651 -0.111933,0.438985 0.435692,0.02858 0.419034,-0.314026 0.496615,-0.32553 0.239415,-0.0355 -0.300115,0.338425 -0.238141,0.544339 0.293363,0.974726 0.757507,0.613389 0.595613,1.605344 -0.262003,1.605344 -0.429687,0 -0.455693,-0.0886 -0.138266,-0.471078 z M 40.640001,93.76 c 0,-0.176 -0.152499,-0.32 -0.338886,-0.32 -0.186388,0 -0.249888,0.144 -0.141114,0.32 0.108774,0.176 0.261274,0.32 0.338886,0.32 0.07761,0 0.141114,-0.144 0.141114,-0.32 z m 5.605056,0.575635 c 0.716195,-0.851152 0.833187,-1.238765 0.691882,-2.292297 -0.309344,-2.30633 -1.66432,-3.480407 -4.856938,-4.208503 -1.238096,-0.282355 -1.600096,-0.50399 -1.600422,-0.979862 -6.4e-4,-0.876631 -1.200375,-0.79552 -1.596717,0.107945 -0.174426,0.397607 -0.55394,0.798077 -0.843364,0.889936 -0.725241,0.230183 -2.124915,2.323296 -2.603161,3.892848 l -0.396336,1.30073 -2.72,-1.199565 C 30.693049,91.129357 29.557733,90.43329 29.49482,90.114736 29.237384,88.811245 32.929998,84.48 34.298724,84.48 c 0.260048,0 1.145216,0.340416 1.967043,0.756477 l 1.494234,0.756477 v -0.946436 c 0,-0.65606 0.183965,-0.994544 0.599603,-1.103235 0.329782,-0.08624 0.913459,-0.581309 1.297056,-1.100153 0.3836,-0.518842 0.869776,-0.908589 1.080397,-0.866103 0.210618,0.04249 0.670944,-0.081 1.022944,-0.274416 0.419773,-0.230653 1.190573,-0.26032 2.24,-0.08621 2.45072,0.406589 2.467936,0.403702 2.005738,-0.3364 -0.3184,-0.509837 -0.318951,-0.76928 -0.0026,-1.275658 0.218336,-0.349612 0.396976,-1.047292 0.396976,-1.550403 0,-0.997757 1.026499,-2.168384 1.593907,-1.817705 0.194832,0.120412 0.702838,-0.0095 1.128906,-0.28865 1.013916,-0.664342 1.351945,-0.640275 1.59112,0.113296 0.130361,0.410742 0.543808,0.654429 1.221561,0.72 0.855399,0.08276 1.041495,0.247232 1.127431,0.996426 0.06642,0.579008 0.378572,1.022899 0.88,1.251366 0.819747,0.373501 1.01326,1.167142 0.42743,1.752973 -0.252861,0.252861 -0.245802,0.543683 0.0255,1.050621 0.307069,0.57376 0.27441,0.812291 -0.179949,1.314355 C 53.91076,83.883978 53.332984,84.16 52.932123,84.16 c -0.458416,0 -0.807651,0.248314 -0.941255,0.669254 -0.151529,0.477428 -0.387011,0.615008 -0.821561,0.48 -0.335034,-0.104089 -0.897152,-0.278048 -1.249152,-0.386576 -0.854595,-0.263484 -0.828896,0.37552 0.07228,1.797322 0.878554,1.386109 1.05538,4.342387 0.311159,5.202205 -0.267642,0.309209 -0.647008,0.885209 -0.84304,1.28 -0.196032,0.394787 -0.677133,0.763853 -1.069111,0.820144 -0.39198,0.05629 -0.861443,0.380291 -1.043251,0.72 C 47.154103,95.105014 46.680276,95.36 46.200449,95.36 h -0.817187 l 0.861949,-1.024365 z m -8.694631,0.210563 c -0.10422,-0.27159 -0.11799,-0.565302 -0.03059,-0.652691 0.08739,-0.08739 0.2357,0.134819 0.329575,0.493802 0.199408,0.762537 -0.02214,0.880285 -0.298976,0.158889 z m 6.162772,-0.01507 c -0.217632,-0.567148 0.006,-1.091123 0.465689,-1.091123 0.165613,0 0.301114,0.36 0.301114,0.8 0,0.895146 -0.466982,1.072442 -0.766803,0.291123 z M 38.770526,93.76 c 0,-0.44 0.07263,-0.62 0.161405,-0.4 0.08877,0.22 0.08877,0.58 0,0.8 -0.08877,0.22 -0.161405,0.04 -0.161405,-0.4 z M 18.473989,92.774349 c 0.113154,-0.432704 0.258208,-0.57776 0.338096,-0.338096 0.07695,0.230861 -0.01223,0.571891 -0.198181,0.757843 -0.237461,0.237462 -0.279107,0.112525 -0.139915,-0.419747 z m 22.806012,-1.520391 c 0,-0.135276 0.16808,-0.414038 0.37351,-0.619468 0.284679,-0.284679 0.246628,-0.422199 -0.16,-0.578237 C 40.927127,89.838912 40.756942,89.28 41.257143,89.28 c 0.530836,0 1.28026,0.966547 1.104519,1.424518 -0.18792,0.489712 -1.081661,0.943696 -1.081661,0.54944 z m 2.14313,0.02605 c -0.343517,-0.612313 -0.524282,-2 -0.260532,-2 0.233437,0 0.997402,1.62976 0.997402,2.127751 0,0.215081 -0.60321,0.110502 -0.73687,-0.127751 z M 38.901073,90.594102 C 38.667258,90.215776 39.018443,89.28 39.394238,89.28 c 0.37872,0 0.368595,1.191034 -0.01213,1.426333 -0.16384,0.101261 -0.380307,0.05075 -0.48104,-0.112237 z M 39.360001,87.04 c 0,-0.176 0.152499,-0.32 0.338886,-0.32 0.186388,0 0.249888,0.144 0.141114,0.32 -0.108774,0.176 -0.261274,0.32 -0.338886,0.32 -0.07761,0 -0.141114,-0.144 -0.141114,-0.32 z M 36.938247,69.417293 c -1.334489,-1.392906 -4.920032,-3.089623 -7.094205,-3.357053 -1.014223,-0.124755 -1.930836,-0.36153 -2.036918,-0.52617 -0.115165,-0.178736 -0.888753,-0.102185 -1.92,0.189997 -1.598492,0.452896 -4.443407,0.748717 -14.061603,1.462163 C 8.3355439,67.445104 4.3752891,67.231146 3.1081648,66.715258 2.2951407,66.38425 1.5994911,64.877846 1.6030029,63.455891 1.6086885,61.15375 3.1660314,59.168752 11.720554,50.56 c 4.459728,-4.488 9.066622,-8.952 10.23754,-9.92 1.170919,-0.968 2.864656,-2.48 3.76386,-3.36 0.899204,-0.88 1.743621,-1.564 1.876482,-1.52 0.13286,0.044 0.210972,-0.028 0.17358,-0.16 -0.03739,-0.132 0.136002,-0.6 0.385319,-1.04 0.249317,-0.44 0.53191,-1.446358 0.627984,-2.236349 0.227463,-1.87036 0.965415,-2.051957 1.938737,-0.477088 0.604229,0.977661 0.677744,1.394291 0.468743,2.656477 -0.136332,0.823328 -0.334484,2.42823 -0.440337,3.566448 -0.206778,2.223437 -0.545511,2.606067 -2.699735,3.049597 -1.156844,0.238182 -2.317772,1.486141 -2.573919,2.766877 -0.218682,1.093411 -3.979438,6.972723 -6.989473,10.926867 -1.051473,1.381273 -1.851007,2.572166 -1.776744,2.646429 0.07426,0.07426 3.796311,-0.954365 8.271217,-2.28584 4.474906,-1.331476 8.947505,-2.592068 9.939108,-2.801319 l 1.802918,-0.380457 3.847905,-4.697584 c 2.116345,-2.583674 4.538816,-5.677792 5.38327,-6.875821 4.203994,-5.964231 7.597847,-10.07102 9.273978,-11.222129 2.922278,-2.006923 9.758224,-7.107985 12.129015,-9.050814 2.495494,-2.045022 7.430384,-7.02689 8.306221,-8.385294 0.312064,-0.484 0.733664,-0.88 0.936892,-0.88 0.203232,0 0.94146,-0.722057 1.640506,-1.6045702 0.826848,-1.0438541 1.436266,-1.5411511 1.743936,-1.4230871 0.260115,0.099816 0.370602,0.079147 0.245523,-0.04593 -0.125075,-0.1250771 0.301101,-0.872392 0.947059,-1.6606998 0.949505,-1.1587456 1.201825,-1.7631527 1.317284,-3.1554072 0.07854,-0.9471662 0.258336,-1.7935195 0.399536,-1.8807851 0.141197,-0.087266 0.641312,0.1721442 1.111363,0.5764661 0.627837,0.5400405 0.899792,1.1356894 1.024768,2.2444977 0.180557,1.6018752 -0.444659,4.4943001 -0.909382,4.2070838 -0.152007,-0.093945 -0.194644,0.042178 -0.09475,0.3024941 0.239004,0.6228394 -0.994112,3.3898657 -1.53096,3.4353587 -0.229898,0.01948 -0.713706,0.01288 -1.075127,-0.01466 -0.889149,-0.06777 -1.606454,0.810663 -2.063773,2.527354 -0.768941,2.886453 -4.150358,8.888106 -7.769341,13.789742 -2.798608,3.790501 -6.812361,7.081813 -10.861443,8.906472 l -2.008311,0.905014 -0.704838,2.273427 c -0.530922,1.712461 -1.526064,3.480503 -4.033005,7.165332 -4.325814,6.3583 -4.838051,7.30438 -5.50735,10.1719 -1.13098,4.845507 -4.363783,9.838525 -6.759399,10.439786 -0.495856,0.124451 -1.56505,0.70295 -2.375987,1.285548 l -1.474429,1.059274 z"
       id="path3790"
       inkscape:connector-curvature="0" />
    <path
       style="fill:#e8744e;stroke-width:0.31999999"
       d="m 45.889598,107.12 -0.609597,-0.72 0.72,0.6096 c 0.676621,0.57287 0.865677,0.8304 0.609597,0.8304 -0.06072,0 -0.384723,-0.324 -0.72,-0.72 z m 0,-0.96 -0.609597,-0.72 0.72,0.6096 c 0.676621,0.57287 0.865677,0.8304 0.609597,0.8304 -0.06072,0 -0.384723,-0.324 -0.72,-0.72 z M 42.516039,95.603786 c 0.373549,-0.476496 0.362084,-0.584592 -0.08,-0.754237 -0.28382,-0.108912 -0.516038,-0.322096 -0.516038,-0.473741 0,-0.409888 0.884365,0.0055 1.076237,0.505539 0.09115,0.237523 -0.07772,0.622387 -0.375258,0.855258 -0.485334,0.379846 -0.496128,0.366182 -0.104941,-0.132819 z m 3.680327,-1.087421 c 2.137987,-2.137991 -0.0065,-6.091255 -3.636365,-6.703376 -1.917955,-0.323437 -2.293421,-0.492211 -2.11712,-0.951651 0.09304,-0.242461 0.03018,-0.526749 -0.139718,-0.631744 -0.467744,-0.289082 -1.583162,0.156752 -1.583162,0.632787 0,0.230592 -0.226976,0.607625 -0.504391,0.837859 -0.692422,0.574662 -1.146886,-0.163712 -0.74743,-1.214362 0.160502,-0.422147 0.291821,-1.131648 0.291821,-1.576668 0,-0.521834 0.212899,-0.8648 0.599603,-0.965927 0.329782,-0.08624 0.913459,-0.581309 1.297056,-1.100153 0.3836,-0.518842 0.869776,-0.908589 1.080397,-0.866103 0.210618,0.04249 0.670944,-0.08187 1.022944,-0.276336 0.836707,-0.462262 4.028211,0.02733 4.514643,0.69257 0.195754,0.267709 0.577027,0.486739 0.847277,0.486739 0.27025,0 0.96104,0.756 1.535088,1.68 0.574051,0.924 1.272205,2.04 1.551453,2.48 0.679434,1.070554 0.739107,4.138022 0.09498,4.882205 -0.267641,0.309209 -0.647008,0.885209 -0.84304,1.28 -0.196032,0.394787 -0.677133,0.763853 -1.06911,0.820144 -0.391981,0.05629 -0.861443,0.380291 -1.043251,0.72 C 47.151531,95.10953 46.679937,95.36 46.185105,95.36 h -0.832378 z m -2.356365,-0.257479 c 0,-0.980496 0.182381,-1.059702 0.412637,-0.179206 0.092,0.351827 0.0368,0.720323 -0.122679,0.818886 -0.159478,0.09856 -0.289958,-0.189292 -0.289958,-0.63968 z m -2.32,-3.270816 c 0.562688,-0.227049 0.499696,-1.06807 -0.08,-1.06807 -0.264,0 -0.48,-0.144 -0.48,-0.32 0,-0.471376 0.504211,-0.389194 0.956618,0.155926 0.458544,0.552509 0.212451,1.455719 -0.386576,1.41881 -0.321165,-0.01978 -0.323341,-0.06025 -0.01005,-0.186666 z M 43.2049,90.32 c 0.0038,-0.685741 0.07338,-0.774038 0.315101,-0.4 0.404611,0.62609 0.404611,1.28 0,1.28 -0.176,0 -0.317795,-0.396 -0.315101,-0.88 z m 6.980986,-5.28671 C 49.716123,84.847043 49.14347,84.342813 48.91332,83.912778 48.683172,83.482739 47.879524,82.707523 47.127435,82.190074 45.81531,81.287309 45.366721,80.280832 46.080001,79.84 c 0.176,-0.108774 0.32,-0.670954 0.32,-1.24929 0,-1.127241 0.982688,-2.33223 1.593907,-1.954476 0.194832,0.120412 0.702839,-0.0095 1.128906,-0.28865 1.013917,-0.664342 1.351946,-0.640275 1.59112,0.113296 0.130362,0.410742 0.543808,0.654429 1.221562,0.72 0.855398,0.08276 1.041494,0.247232 1.12743,0.996426 0.06642,0.579008 0.378573,1.022899 0.88,1.251366 0.819747,0.373501 1.013261,1.167142 0.42743,1.752973 -0.25286,0.252861 -0.245801,0.543683 0.0255,1.050621 0.307069,0.57376 0.27441,0.812291 -0.179948,1.314355 C 53.910606,83.883978 53.33283,84.16 52.931969,84.16 c -0.447798,0 -0.807168,0.246787 -0.931968,0.64 -0.222816,0.702029 -0.531648,0.741744 -1.814115,0.23329 z M 36.640001,68.96079 c -1.869683,-1.599721 -4.532413,-2.808864 -6.56,-2.978886 -0.968,-0.08117 -1.86024,-0.30425 -1.982755,-0.495728 -0.158693,-0.248019 -0.66485,-0.22889 -1.76,0.06651 -0.845485,0.228061 -3.337245,0.550215 -5.537246,0.715901 -2.2,0.165686 -5.148222,0.443034 -6.551605,0.616326 C 10.372014,67.363587 4.9841761,67.285542 3.6582055,66.731517 2.3331318,66.177866 1.4506065,64.448659 1.7642684,63.020566 2.3434533,60.383555 4.076386,58.198048 10.842066,51.572013 13.23893,49.224618 15.344,47.149974 15.52,46.961696 c 1.721772,-1.84191 6.696073,-6.612291 6.793429,-6.514934 0.06895,0.06895 0.477839,-0.22712 0.908648,-0.65793 0.430808,-0.430806 0.920269,-0.698627 1.087691,-0.595155 0.167421,0.103472 0.553737,0.97911 0.858479,1.945862 0.650589,2.063907 0.435663,2.952307 -1.422677,5.88065 -1.605844,2.530467 -5.317232,7.728112 -6.12643,8.579811 -0.376239,0.396 -0.584143,0.72 -0.462009,0.72 0.122134,0 -0.03857,0.288 -0.357131,0.64 -0.560108,0.618912 -0.558922,0.64 0.03599,0.64 0.338351,0 3.27667,-0.814118 6.529597,-1.809149 3.252926,-0.99503 7.687441,-2.262624 9.854476,-2.816873 3.797814,-0.971341 3.983984,-1.059104 5.156515,-2.430852 0.66905,-0.78272 1.250419,-1.567126 1.291936,-1.743126 0.04152,-0.176 0.215789,-0.280432 0.387271,-0.23207 0.171481,0.04836 0.230316,-0.04389 0.130748,-0.204999 -0.09957,-0.16111 0.176816,-0.527401 0.614196,-0.813984 0.437379,-0.286579 0.76014,-0.698333 0.717251,-0.915001 C 41.47509,46.417277 41.619999,46.276 41.839999,46.32 c 0.221539,0.04431 0.4,-0.229334 0.4,-0.613334 0,-0.381332 0.10121,-0.592125 0.224909,-0.468426 0.123699,0.123702 0.531571,-0.28321 0.906381,-0.904246 0.374812,-0.621037 1.108336,-1.598247 1.630054,-2.171575 0.521718,-0.573331 0.96471,-1.160739 0.984429,-1.30535 0.01971,-0.144615 0.732985,-1.150275 1.585037,-2.234803 0.852054,-1.084528 1.54919,-2.09586 1.54919,-2.247402 0,-0.151542 0.432,-0.637683 0.96,-1.080317 0.528,-0.44263 0.744,-0.706304 0.48,-0.585936 -0.426665,0.194535 -0.426665,0.17177 0,-0.20488 0.264,-0.233053 0.861088,-0.927731 1.326861,-1.543731 1.398643,-1.849752 2.707408,-3.2 3.101683,-3.2 0.204301,0 0.371456,-0.144 0.371456,-0.32 0,-0.176 0.216,-0.32 0.48,-0.32 0.264,0 0.48,-0.168 0.48,-0.373333 0,-0.205334 0.08089,-0.292446 0.179751,-0.193584 0.09886,0.09886 0.566861,-0.181928 1.04,-0.623979 0.473136,-0.442051 1.724249,-1.391936 2.780249,-2.110854 1.056,-0.718919 2.064,-1.418856 2.24,-1.555416 0.809165,-0.627839 3.654081,-2.966652 4.911351,-4.037636 0.765245,-0.651859 1.64064,-1.304225 1.945325,-1.449701 0.304685,-0.145477 1.190576,-0.988793 1.968649,-1.874037 0.778071,-0.885242 2.147719,-2.385173 3.043661,-3.333177 0.895943,-0.948005 1.543943,-1.819776 1.44,-1.937268 -0.103942,-0.117493 -0.01894,-0.116187 0.188903,0.0029 0.20784,0.119088 0.468339,0.07017 0.578886,-0.108696 0.651491,-1.054136 2.723226,0.404922 2.723226,1.917882 0,2.571857 -6.321901,13.351657 -10.19497,17.383975 -2.566627,2.672158 -5.727008,4.955748 -8.47465,6.123512 l -2.035117,0.864934 -0.762742,2.432093 c -0.575242,1.834224 -1.379888,3.302342 -3.273261,5.972237 -4.463222,6.293708 -5.366288,7.945964 -6.369882,11.6544 -1.369174,5.059318 -3.871081,8.869347 -6.624509,10.088124 -0.45368,0.200816 -1.434009,0.759434 -2.178512,1.241373 -0.744502,0.481936 -1.392502,0.870842 -1.44,0.864234 -0.0475,-0.0066 -0.662358,-0.504845 -1.366358,-1.107194 z"
       id="path3788"
       inkscape:connector-curvature="0" />
    <path
       style="fill:#d25635;stroke-width:0.31999999"
       d="m 45.889598,107.12 -0.609597,-0.72 0.72,0.6096 c 0.676621,0.57287 0.865677,0.8304 0.609597,0.8304 -0.06072,0 -0.384723,-0.324 -0.72,-0.72 z m 0,-0.96 -0.609597,-0.72 0.72,0.6096 c 0.676621,0.57287 0.865677,0.8304 0.609597,0.8304 -0.06072,0 -0.384723,-0.324 -0.72,-0.72 z M 42.516039,95.603786 c 0.373549,-0.476496 0.362084,-0.584592 -0.08,-0.754237 -0.28382,-0.108912 -0.516038,-0.322096 -0.516038,-0.473741 0,-0.409888 0.884365,0.0055 1.076237,0.505539 0.09115,0.237523 -0.07772,0.622387 -0.375258,0.855258 -0.485334,0.379846 -0.496128,0.366182 -0.104941,-0.132819 z m 3.680327,-1.087421 c 2.137987,-2.137991 -0.0065,-6.091255 -3.636365,-6.703376 -1.917955,-0.323437 -2.293421,-0.492211 -2.11712,-0.951651 0.09304,-0.242461 0.03018,-0.526749 -0.139718,-0.631744 -0.467744,-0.289082 -1.583162,0.156752 -1.583162,0.632787 0,0.230592 -0.226976,0.607625 -0.504391,0.837859 -0.692422,0.574662 -1.146886,-0.163712 -0.74743,-1.214362 0.160502,-0.422147 0.291821,-1.131648 0.291821,-1.576668 0,-0.521834 0.212899,-0.8648 0.599603,-0.965927 0.329782,-0.08624 0.913459,-0.581309 1.297056,-1.100153 0.3836,-0.518842 0.869776,-0.908589 1.080397,-0.866103 0.210618,0.04249 0.670944,-0.08187 1.022944,-0.276336 0.836707,-0.462262 4.028211,0.02733 4.514643,0.69257 0.195754,0.267709 0.577027,0.486739 0.847277,0.486739 0.27025,0 0.96104,0.756 1.535088,1.68 0.574051,0.924 1.272205,2.04 1.551453,2.48 0.679434,1.070554 0.739107,4.138022 0.09498,4.882205 -0.267641,0.309209 -0.647008,0.885209 -0.84304,1.28 -0.196032,0.394787 -0.677133,0.763853 -1.06911,0.820144 -0.391981,0.05629 -0.861443,0.380291 -1.043251,0.72 C 47.151531,95.10953 46.679937,95.36 46.185105,95.36 h -0.832378 z m -2.356365,-0.257479 c 0,-0.980496 0.182381,-1.059702 0.412637,-0.179206 0.092,0.351827 0.0368,0.720323 -0.122679,0.818886 -0.159478,0.09856 -0.289958,-0.189292 -0.289958,-0.63968 z m -2.32,-3.270816 c 0.562688,-0.227049 0.499696,-1.06807 -0.08,-1.06807 -0.264,0 -0.48,-0.144 -0.48,-0.32 0,-0.471376 0.504211,-0.389194 0.956618,0.155926 0.458544,0.552509 0.212451,1.455719 -0.386576,1.41881 -0.321165,-0.01978 -0.323341,-0.06025 -0.01005,-0.186666 z M 43.2049,90.32 c 0.0038,-0.685741 0.07338,-0.774038 0.315101,-0.4 0.404611,0.62609 0.404611,1.28 0,1.28 -0.176,0 -0.317795,-0.396 -0.315101,-0.88 z m 6.980986,-5.28671 C 49.716123,84.847043 49.14347,84.342813 48.91332,83.912778 48.683172,83.482739 47.879524,82.707523 47.127435,82.190074 45.81531,81.287309 45.366721,80.280832 46.080001,79.84 c 0.176,-0.108774 0.32,-0.670954 0.32,-1.24929 0,-1.127241 0.982688,-2.33223 1.593907,-1.954476 0.194832,0.120412 0.702839,-0.0095 1.128906,-0.28865 1.013917,-0.664342 1.351946,-0.640275 1.59112,0.113296 0.130362,0.410742 0.543808,0.654429 1.221562,0.72 0.855398,0.08276 1.041494,0.247232 1.12743,0.996426 0.06642,0.579008 0.378573,1.022899 0.88,1.251366 0.819747,0.373501 1.013261,1.167142 0.42743,1.752973 -0.25286,0.252861 -0.245801,0.543683 0.0255,1.050621 0.307069,0.57376 0.27441,0.812291 -0.179948,1.314355 C 53.910606,83.883978 53.33283,84.16 52.931969,84.16 c -0.447798,0 -0.807168,0.246787 -0.931968,0.64 -0.222816,0.702029 -0.531648,0.741744 -1.814115,0.23329 z M 36.640001,68.96079 c -1.927719,-1.649376 -4.530231,-2.816313 -6.64,-2.977305 -2.069009,-0.157882 -2.196781,-0.382205 -1.189812,-2.08889 0.625035,-1.059357 0.698566,-1.091117 1.900736,-0.821008 3.176669,0.713751 6.704529,2.407514 8.815793,4.232557 l 1.249318,1.079952 -1.341657,0.84695 c -0.737914,0.465824 -1.380522,0.841546 -1.42802,0.834938 -0.0475,-0.0066 -0.662358,-0.504845 -1.366358,-1.107194 z M 4.5235355,66.655085 C 3.5262775,66.163763 3.4895729,66.093664 4.0246967,65.702371 4.3423911,65.470067 5.2236795,65.28 5.9831153,65.28 c 2.157306,0 13.8221347,-1.58119 15.7380047,-2.133318 2.131394,-0.614237 5.578216,-0.46449 6.317158,0.274451 0.467059,0.467059 0.448214,0.572374 -0.222418,1.243008 -0.444411,0.444409 -1.137906,0.7412 -1.762501,0.754285 -0.566384,0.01187 -0.970147,0.118969 -0.897252,0.238009 0.14657,0.239354 -0.518891,0.314256 -9.316107,1.048611 C 8.1770232,67.34472 5.9029457,67.334678 4.5235355,66.655085 Z M 44.185265,63.458886 c -0.04345,-0.655446 0.522582,-0.756889 0.978477,-0.175363 0.389187,0.496432 0.379193,0.511875 -0.09262,0.14312 -0.432221,-0.337808 -0.559197,-0.337808 -0.694739,0 -0.113837,0.283719 -0.173779,0.293831 -0.191117,0.03224 z M 6.8936658,55.702112 c -0.101258,-0.16384 -0.061756,-0.373504 0.087781,-0.465923 0.1495376,-0.09242 0.2718867,0.04163 0.2718867,0.297888 0,0.539574 -0.1009078,0.586717 -0.3596677,0.168035 z M 16.64,45.659869 c 0,-0.05507 0.468,-0.523072 1.04,-1.04 L 18.72,43.68 17.780131,44.72 C 16.904041,45.689427 16.64,45.907088 16.64,45.659869 Z m 3.962768,-3.652323 c 0.532026,-0.628842 1.157233,-0.723562 1.157233,-0.175328 0,0.106947 -0.09632,0.09813 -0.214032,-0.01958 -0.117717,-0.117716 -0.513717,0.03828 -0.88,0.346668 -0.664226,0.559232 -0.664392,0.558836 -0.0632,-0.151756 z m 46.032866,-8.907914 c 0.428604,-0.509398 0.468838,-0.747162 0.176,-1.04 C 66.602837,31.850834 66.51517,31.68 66.616821,31.68 c 0.101648,0 0.345939,0.194142 0.542867,0.431427 0.274768,0.331072 0.190838,0.572986 -0.360816,1.04 -0.717037,0.607021 -0.717453,0.60689 -0.163238,-0.05179 z m 2.037331,-2.326299 c -0.09065,-0.146666 0.03852,-0.266666 0.287037,-0.266666 0.248515,0 0.377683,0.12 0.287036,0.266666 C 69.156395,30.92 69.027227,31.04 68.960002,31.04 c -0.06723,0 -0.196394,-0.12 -0.287037,-0.266667 z m -0.670698,-1.009668 c -0.112109,-0.181395 0.01635,-0.235042 0.301114,-0.125763 0.554374,0.212733 0.655805,0.442098 0.195507,0.442098 -0.165613,0 -0.389094,-0.142351 -0.496621,-0.316335 z m 1.8644,-0.149589 c 0,-0.256258 0.122349,-0.390307 0.271888,-0.297888 0.149536,0.09242 0.18904,0.302085 0.08778,0.465923 -0.258758,0.418683 -0.359667,0.371539 -0.359668,-0.168035 z m 0.04018,-1.475366 c -0.116009,-0.187709 -0.142297,-0.40992 -0.05842,-0.493801 0.08388,-0.08388 0.237779,0.0697 0.342,0.34129 0.216378,0.563874 0.03197,0.663059 -0.283584,0.152511 z m 4.013159,-4.046194 c 0,-0.183784 0.252,-0.531784 0.56,-0.773334 0.518003,-0.406245 0.524793,-0.391184 0.09055,0.200818 -0.258198,0.352 -0.510198,0.7 -0.56,0.773333 -0.0498,0.07333 -0.09055,-0.01703 -0.09055,-0.200817 z"
       id="path3786"
       inkscape:connector-curvature="0" />
    <path
       style="fill:#273949;stroke-width:0.31999999"
       d="m 46.196366,94.516365 c 0.660502,-0.660506 0.843635,-1.154925 0.843635,-2.277648 0,-1.232083 -0.17009,-1.604103 -1.207907,-2.64192 -0.746499,-0.746496 -1.754957,-1.355584 -2.64,-1.594503 -2.175239,-0.587206 -2.926675,-0.935094 -2.724919,-1.261545 0.100797,-0.163088 0.03563,-0.38777 -0.144819,-0.499293 -0.483046,-0.298538 -1.602355,0.135203 -1.602355,0.620925 0,0.49415 -0.895399,1.308889 -1.154125,1.05016 -0.09826,-0.09826 -0.07589,-1.001203 0.04972,-2.006538 0.168135,-1.345709 0.375472,-1.866345 0.785997,-1.973699 0.306691,-0.0802 0.871472,-0.57033 1.255069,-1.089174 0.3836,-0.518842 0.869776,-0.908589 1.080397,-0.866103 0.210618,0.04249 0.670944,-0.08187 1.022944,-0.276336 0.971158,-0.536541 4.046736,0.03136 4.59903,0.849191 0.241469,0.357564 0.673469,0.655376 0.96,0.661801 0.286535,0.0064 0.937876,0.690426 1.447428,1.52 0.509555,0.829575 1.156694,1.868317 1.438096,2.308317 0.683475,1.068694 0.745581,4.135059 0.09889,4.882205 -0.267641,0.309209 -0.647008,0.885209 -0.84304,1.28 -0.196032,0.394787 -0.677133,0.763853 -1.06911,0.820144 -0.391981,0.05629 -0.861443,0.380291 -1.043251,0.72 C 47.151531,95.10953 46.679937,95.36 46.185105,95.36 H 45.352727 Z M 43.902385,94.24 c 0.0065,-0.528 0.07824,-0.705261 0.159373,-0.39391 0.08113,0.31135 0.0758,0.74335 -0.01187,0.96 C 43.962228,95.022739 43.895847,94.768 43.902369,94.24 Z m -2.114714,-3.472294 c 0.140119,-0.367888 0.05637,-0.699447 -0.22104,-0.875101 -0.333987,-0.211479 -0.343212,-0.284042 -0.03659,-0.287706 0.584985,-0.007 0.865776,0.927834 0.413491,1.376611 -0.294567,0.292279 -0.330067,0.243581 -0.155863,-0.213804 z M 43.222494,90.32 c 0.01994,-0.779789 0.05381,-0.80712 0.297507,-0.24 0.375587,0.874042 0.375587,1.12 0,1.12 -0.176,0 -0.309878,-0.396 -0.297507,-0.88 z m 6.937507,-5.295814 c -0.484,-0.191255 -0.88,-0.452887 -0.88,-0.581408 0,-0.47801 -1.729635,-2.267908 -2.459827,-2.545524 -0.946586,-0.359891 -1.274023,-1.16134 -0.790675,-1.935302 0.203776,-0.326298 0.370502,-1.004902 0.370502,-1.508013 0,-0.997757 1.026499,-2.168384 1.593907,-1.817705 0.194832,0.120412 0.702839,-0.0095 1.128906,-0.28865 1.013917,-0.664342 1.351946,-0.640275 1.59112,0.113296 0.130362,0.410742 0.543808,0.654429 1.221562,0.72 0.855398,0.08276 1.041494,0.247232 1.12743,0.996426 0.06642,0.579008 0.378573,1.022899 0.88,1.251366 0.819747,0.373501 1.013261,1.167142 0.42743,1.752973 -0.25286,0.252861 -0.245801,0.543683 0.0255,1.050621 0.307069,0.57376 0.27441,0.812291 -0.179948,1.314355 C 53.910606,83.883978 53.33283,84.16 52.931969,84.16 c -0.447798,0 -0.807168,0.246787 -0.931968,0.64 -0.223718,0.70487 -0.529305,0.742106 -1.84,0.224186 z"
       id="path3784"
       inkscape:connector-curvature="0" />
  </g>
  <path
     style="fill:#fad028;fill-opacity:1;stroke-width:0.17114381"
     d="m 23.452855,94.166304 c -1.454439,-0.753587 -3.207328,-1.719523 -3.895309,-2.146521 -0.687982,-0.427001 -1.274641,-0.748811 -1.303688,-0.715137 -0.02905,0.03368 -0.125556,0.369288 -0.214465,0.745804 -0.138083,0.584757 -0.17869,0.347691 -0.278493,-1.625866 -0.146216,-2.891333 0.178198,-4.370178 1.127272,-5.138692 0.334789,-0.271095 0.330961,-0.287027 -0.252742,-1.051718 -1.263652,-1.655476 -2.031525,-4.969271 -1.514495,-6.535887 0.317241,-0.961249 1.409382,-2.310636 4.798196,-5.928378 3.455653,-3.689096 4.735742,-5.162037 5.010782,-5.765683 0.157898,-0.346549 0.275272,-0.390336 0.858032,-0.320093 0.371312,0.04476 0.96918,0.234651 1.328595,0.421988 0.463818,0.241756 0.833427,0.311414 1.273468,0.240005 0.608672,-0.09877 0.61779,-0.09186 0.499689,0.378687 -0.119251,0.475135 -0.116772,0.476828 0.285538,0.195039 0.571454,-0.400262 0.860324,-0.358557 1.692635,0.244365 0.401358,0.290743 0.67792,0.444772 0.614581,0.342288 -0.17749,-0.287184 0.177077,-0.220481 0.426677,0.08027 0.121693,0.146632 0.47769,0.373747 0.791102,0.504699 0.313414,0.130952 0.569842,0.327279 0.569842,0.436282 0,0.109003 0.101795,0.159125 0.226213,0.111381 0.213615,-0.08197 0.695713,0.466161 0.708963,0.806071 0.01159,0.297129 0.433975,0.299075 0.433975,0.002 0,-0.278951 0.02125,-0.278276 0.340694,0.01082 0.320947,0.290454 0.323443,0.320939 0.04305,0.525964 -0.385597,0.281955 -0.123875,0.550573 0.286647,0.294198 0.211534,-0.132105 0.368708,-0.139019 0.486331,-0.02139 0.117626,0.117624 0.210954,0.11366 0.28878,-0.01227 0.06324,-0.102331 0.236808,-0.186056 0.3857,-0.186056 0.16089,0 -0.05533,0.286995 -0.533005,0.707458 -0.607118,0.534406 -1.006829,1.130961 -1.63408,2.438799 -1.527152,3.184167 -1.622452,3.630836 -1.627689,7.62891 l -0.0046,3.501555 -0.589317,0.169501 c -0.721985,0.207661 -2.646601,1.99069 -3.524229,3.264967 -0.353417,0.513144 -0.721503,0.884211 -0.81797,0.82459 -0.106502,-0.06582 -0.132469,0.0035 -0.06611,0.176392 0.06011,0.156635 0.0371,0.28479 -0.05112,0.28479 -0.08822,0 -0.111223,0.128156 -0.05112,0.284791 0.07986,0.208119 0.04755,0.246637 -0.120027,0.143069 -0.169731,-0.104899 -0.199521,-0.06409 -0.114656,0.157065 0.06306,0.164334 0.114656,0.371201 0.114656,0.459705 0,0.0885 0.351301,0.383704 0.78067,0.656003 0.57283,0.363278 0.699785,0.510664 0.476855,0.553595 -0.181331,0.03492 0.196166,0.279348 0.936358,0.606284 0.682096,0.301274 1.194606,0.474041 1.138912,0.383925 -0.134217,-0.217168 0.200114,-0.208597 0.619557,0.01588 0.184706,0.09885 0.292445,0.249928 0.239419,0.335726 -0.05303,0.0858 0.195115,0.311774 0.551424,0.502174 0.35631,0.190397 0.994401,0.666798 1.417982,1.058668 0.715574,0.662003 0.73631,0.704286 0.292635,0.596691 -0.749343,-0.18172 -2.145483,0.05951 -2.232416,0.385732 -0.05273,0.197886 -0.07999,0.173996 -0.09409,-0.08247 -0.01891,-0.343893 -0.131689,-0.365599 -2.37308,-0.45672 -1.294275,-0.05262 -2.699794,-0.06246 -3.123375,-0.02188 -0.423581,0.04058 -0.955236,0.08024 -1.181456,0.08812 -0.253161,0.0088 -0.332301,0.06316 -0.205828,0.141326 0.205047,0.126727 0.08734,0.287889 -0.41802,0.572347 -0.09869,0.05555 -1.369434,-0.515569 -2.823873,-1.269158 z M 34.532954,83.111443 c -0.04339,-0.166518 -0.08175,-0.07171 -0.08524,0.210673 -0.0035,0.282387 0.03202,0.418628 0.0789,0.302758 0.04688,-0.115869 0.04973,-0.346913 0.0063,-0.513431 z"
     id="path3836"
     inkscape:connector-curvature="0" />
  <path
     style="fill:#fad028;fill-opacity:1;stroke-width:0.17114381"
     d="m 24.370472,94.550028 c -0.942184,-0.460749 -2.696281,-1.394422 -3.897994,-2.074826 -2.167709,-1.22735 -2.441323,-1.292668 -2.496158,-0.595896 -0.0074,0.09413 -0.08842,-0.01647 -0.18003,-0.245774 -0.402603,-1.007757 0.148906,-6.000975 0.662818,-6.000975 0.07022,0 0.22764,-0.160064 0.349816,-0.355698 0.171501,-0.274616 0.176108,-0.411161 0.02021,-0.599003 -0.111058,-0.133818 -0.142741,-0.243305 -0.07041,-0.243305 0.07233,0 -0.06169,-0.179058 -0.297828,-0.397905 -0.45627,-0.422857 -1.232279,-2.257636 -1.06757,-2.524141 0.05389,-0.0872 0.03568,-0.158543 -0.04047,-0.158543 -0.07615,0 -0.146354,-0.173283 -0.156004,-0.385073 -0.0097,-0.211791 -0.07722,-1.0053 -0.150158,-1.763354 -0.111127,-1.154985 -0.08398,-1.473845 0.167551,-1.968154 0.45106,-0.886414 1.804606,-2.506857 4.709904,-5.638616 2.995532,-3.229027 4.516071,-4.967134 4.785048,-5.469722 0.244833,-0.457476 1.009134,-0.45686 2.330116,0.0019 0.555979,0.193074 1.184153,0.319276 1.395943,0.280448 0.311506,-0.05711 0.385074,0.0075 0.385074,0.337926 0,0.394133 0.0172,0.399629 0.488231,0.156048 0.451834,-0.233652 0.546939,-0.221221 1.275739,0.166749 0.43313,0.230572 0.868841,0.419223 0.968247,0.419223 0.09941,0 0.564232,0.269551 1.032947,0.599003 0.468715,0.329452 0.928036,0.599003 1.020712,0.599003 0.09268,0 0.287982,0.231044 0.43401,0.513432 0.280934,0.543268 0.519215,0.653244 0.648921,0.299501 0.06275,-0.171143 0.123793,-0.171143 0.305206,0 0.176374,0.16639 0.181127,0.259569 0.02139,0.419303 -0.376119,0.37612 -0.213221,0.467232 0.679027,0.379793 l 0.884399,-0.08667 -0.734067,0.796368 c -0.733433,0.795681 -2.342881,3.911643 -2.73453,5.294172 -0.188334,0.664819 -0.593577,6.024809 -0.55311,7.315759 0.01816,0.579413 -0.03807,0.665457 -0.584013,0.893566 -0.894246,0.373639 -4.020973,3.594595 -4.491129,4.626476 -0.298483,0.655099 -0.276112,0.712596 0.629703,1.618411 0.949951,0.949951 2.132175,1.618103 2.631856,1.487433 0.225998,-0.0591 0.492229,0.06815 0.791573,0.378353 0.248076,0.25707 0.768084,0.679102 1.155578,0.937849 0.387493,0.258745 0.888089,0.666193 1.112435,0.905436 l 0.407902,0.43499 -0.855719,-0.04437 c -0.470646,-0.0244 -1.03082,0.04973 -1.244833,0.164743 -0.316663,0.170175 -0.435407,0.162819 -0.637738,-0.03951 -0.303808,-0.303808 -2.771221,-0.501903 -4.931485,-0.395923 -1.25876,0.06175 -1.564552,0.134071 -1.846463,0.436667 -0.185826,0.199461 -0.399453,0.362655 -0.474728,0.362655 -0.07527,0 -0.907741,-0.376976 -1.849925,-0.837726 z"
     id="path3838"
     inkscape:connector-curvature="0" />
  <path
     style="fill:#fad028;fill-opacity:1;stroke-width:0.17114381"
     d="m 23.239428,93.951281 c -1.525313,-0.790061 -3.251274,-1.694984 -3.835471,-2.01094 -1.047569,-0.566566 -1.06564,-0.56976 -1.314141,-0.232179 -0.235258,0.319591 -0.25976,0.32218 -0.369507,0.03905 -0.170855,-0.440786 0.05956,-4.766235 0.290251,-5.448822 0.107861,-0.31914 0.33867,-0.718032 0.512909,-0.886425 0.409835,-0.396083 0.402649,-0.461563 -0.137509,-1.253028 -0.872742,-1.278785 -1.106798,-2.058771 -1.301195,-4.336199 l -0.186733,-2.187645 0.440807,-0.750506 c 0.532637,-0.906854 2.189323,-2.853097 5.417036,-6.363828 1.328334,-1.444808 2.781324,-3.097523 3.228866,-3.6727 0.751473,-0.965788 0.866075,-1.046312 1.498288,-1.05277 0.376516,-0.0038 1.14152,0.145855 1.700009,0.332668 0.558489,0.186813 1.155353,0.295252 1.326365,0.240975 0.232035,-0.07365 0.31093,-0.0089 0.31093,0.255135 0,0.388188 0.198489,0.442822 0.677479,0.186474 0.233625,-0.125032 0.514351,-0.06012 1.11024,0.256716 0.438652,0.233234 0.880545,0.424062 0.981984,0.424062 0.101439,0 0.559631,0.269551 1.018202,0.599003 0.458573,0.329452 0.908629,0.599003 1.000122,0.599003 0.0915,0 0.288649,0.236494 0.438121,0.525542 0.225395,0.435865 0.314994,0.489669 0.52508,0.315313 0.350295,-0.29072 0.727222,0.06043 0.438409,0.408431 -0.293361,0.353479 -0.115584,0.420279 0.867189,0.325847 l 0.889443,-0.08546 -0.739357,0.838246 c -0.406646,0.461035 -1.197548,1.769888 -1.757561,2.908563 -1.152666,2.343716 -1.214266,2.636209 -1.540546,7.314824 -0.198003,2.839214 -0.238703,3.067399 -0.569538,3.193182 -0.992747,0.377443 -4.174172,3.637458 -4.721008,4.837633 -0.245282,0.538335 -0.148305,0.701623 1.062031,1.788226 0.925379,0.830778 2.022595,1.378762 2.352461,1.174895 0.158041,-0.09768 1.544406,0.970146 2.833138,2.182171 l 0.696285,0.654839 -0.639253,-0.105902 c -0.351591,-0.05825 -0.954332,-0.02106 -1.339428,0.08263 -0.506161,0.136295 -0.762557,0.136766 -0.925305,0.0017 -0.442544,-0.367293 -3.093866,-0.533792 -5.92652,-0.37219 -0.244452,0.01395 -0.622056,0.179387 -0.839119,0.367645 -0.217064,0.188258 -0.463398,0.342287 -0.54741,0.342287 -0.08401,0 -1.400732,-0.646413 -2.926044,-1.436473 z"
     id="path3840"
     inkscape:connector-curvature="0" />
  <path
     style="fill:#fad028;fill-opacity:1;stroke-width:0.17114381"
     d="m 22.947718,93.814304 c -5.129897,-2.683341 -4.636057,-2.464339 -4.819155,-2.13716 -0.08856,0.158254 -0.245203,0.287734 -0.348088,0.287734 -0.131585,0 -0.158159,-0.81111 -0.0896,-2.7349 0.09015,-2.529533 0.131161,-2.796813 0.546215,-3.559405 l 0.448751,-0.824502 -0.599482,-0.995538 c -0.653925,-1.085951 -0.845686,-1.849645 -1.130321,-4.501547 l -0.187645,-1.74826 0.584805,-0.904469 c 0.649,-1.003752 2.012593,-2.613136 5.342217,-6.305162 1.226105,-1.359557 2.639244,-2.953264 3.140308,-3.541571 0.847666,-0.995257 0.960435,-1.06952 1.621453,-1.067796 0.390736,0.001 1.088488,0.116541 1.550561,0.256716 0.462073,0.140175 1.058937,0.254863 1.326365,0.254863 0.372135,0 0.486231,0.08032 0.486231,0.342288 0,0.373026 0.201831,0.4295 0.659538,0.184543 0.209321,-0.112025 0.591698,-0.02522 1.319316,0.299502 1.341079,0.598498 3.25357,1.817077 3.383597,2.155919 0.05947,0.154971 0.267039,0.249907 0.493471,0.225696 0.31825,-0.03403 0.382669,0.03304 0.346893,0.361159 -0.04222,0.387181 -0.0071,0.400124 0.898505,0.330819 0.518341,-0.03967 0.942439,-0.04663 0.942439,-0.01545 0,0.03117 -0.331398,0.463538 -0.736439,0.960819 -0.939309,1.153218 -2.440723,4.068812 -2.76282,5.365118 -0.221084,0.889768 -0.344083,1.996533 -0.724264,6.517029 l -0.104196,1.238924 -0.725906,0.425411 c -0.921795,0.540208 -4.105404,3.886781 -4.341329,4.563554 -0.163827,0.469956 -0.121,0.572901 0.53391,1.283396 0.821846,0.891597 1.925017,1.587169 2.665956,1.68094 0.486979,0.06163 2.524498,1.566996 3.403313,2.514445 l 0.374386,0.403624 -1.486821,-0.02047 c -0.81775,-0.01126 -1.755863,-0.107524 -2.084693,-0.21393 -0.334772,-0.108327 -1.716203,-0.193464 -3.139166,-0.193464 -2.282148,0 -2.585667,0.0349 -2.976441,0.342288 -0.239332,0.188258 -0.521031,0.340754 -0.625998,0.338878 -0.104967,-0.0019 -1.538607,-0.708393 -3.185866,-1.570041 z"
     id="path3842"
     inkscape:connector-curvature="0" />
  <path
     style="fill:#fad028;fill-opacity:1;stroke-width:0.17114381"
     d="m 22.223355,93.458858 c -3.275995,-1.692739 -3.760263,-1.896337 -4.062343,-1.70791 -0.18863,0.117662 -0.390431,0.21393 -0.448447,0.21393 -0.05802,0 -0.07416,-1.251489 -0.03587,-2.781087 0.06217,-2.483647 0.111839,-2.864706 0.464452,-3.56294 l 0.394842,-0.781853 -0.518941,-0.929585 c -0.571489,-1.023714 -0.827511,-1.857649 -0.968431,-3.154454 -0.05114,-0.470646 -0.158203,-1.394822 -0.237908,-2.053726 -0.128599,-1.063085 -0.105906,-1.25583 0.201498,-1.711438 0.747104,-1.107294 2.389995,-3.066823 5.596065,-6.674608 1.840259,-2.070841 3.460314,-3.930159 3.600123,-4.131819 0.218216,-0.314754 0.399096,-0.360991 1.277849,-0.326644 1.682518,0.06576 3.298511,0.453182 3.392703,0.813371 0.06587,0.251875 0.160021,0.281261 0.494154,0.154223 0.316174,-0.120209 0.65034,-0.05051 1.427803,0.297814 1.427874,0.639722 3.123423,1.704175 3.330308,2.090743 0.10511,0.196402 0.326413,0.310601 0.555313,0.286561 0.27888,-0.02929 0.381481,0.05148 0.384003,0.302319 0.003,0.301259 0.110732,0.339465 0.898505,0.31874 0.492285,-0.01295 0.895062,0.04708 0.895062,0.133393 0,0.08632 -0.297807,0.533694 -0.661793,0.994171 -0.826441,1.045525 -2.297136,3.891219 -2.661113,5.149069 -0.238619,0.824633 -0.388688,1.971903 -0.901307,6.890487 -0.09298,0.892109 -0.157139,1.019993 -0.635121,1.265872 -0.641148,0.329811 -3.728722,3.407867 -4.209656,4.196677 -0.188452,0.309093 -0.342928,0.72016 -0.34328,0.913485 -0.0012,0.642197 2.278025,2.472373 3.078948,2.472373 0.457315,0 2.629183,1.600511 3.595021,2.649274 l 0.42786,0.464595 -1.625867,-0.08809 c -0.894226,-0.04845 -2.010939,-0.166867 -2.481585,-0.263153 -0.470645,-0.09629 -1.818403,-0.17915 -2.995016,-0.18414 -1.85761,-0.0079 -2.206903,0.0357 -2.652729,0.330958 -0.282388,0.187017 -0.590447,0.338952 -0.684576,0.337631 -0.09413,-0.0014 -1.844864,-0.867231 -3.890523,-1.92424 z"
     id="path3844"
     inkscape:connector-curvature="0" />
  <path
     style="fill:#fad028;fill-opacity:1;stroke-width:0.17114381"
     d="m 22.947718,93.828525 c -3.365032,-1.739449 -4.624967,-2.263011 -4.869041,-2.023315 -0.375674,0.368933 -0.436417,0.03309 -0.436417,-2.412889 0,-2.125936 0.05985,-2.750231 0.344766,-3.595977 l 0.344767,-1.023425 -0.361582,-0.708759 c -0.634725,-1.244163 -0.840571,-2.033206 -1.11268,-4.265099 -0.23445,-1.923012 -0.236182,-2.238674 -0.01463,-2.666396 0.387012,-0.747145 1.694886,-2.331112 5.805795,-7.031408 l 3.779509,-4.321381 h 0.753389 c 1.268217,0 3.638736,0.531804 3.638736,0.816316 0,0.183138 0.145269,0.228075 0.546797,0.169143 0.358722,-0.05265 0.873803,0.06744 1.497509,0.34913 1.214373,0.548464 3.261152,1.856957 3.261152,2.084834 0,0.09603 0.194443,0.174597 0.432095,0.174597 0.297866,0 0.480304,0.126794 0.587277,0.408158 0.140032,0.368308 0.23152,0.399554 0.937055,0.32003 0.993596,-0.111993 1.003278,0.05875 0.08,1.411109 -0.863029,1.264111 -2.283313,4.057242 -2.527652,4.970881 -0.09956,0.372275 -0.299981,1.639549 -0.445381,2.816162 -0.612265,4.954632 -0.607183,4.931768 -1.176499,5.292234 -0.943276,0.597239 -4.208376,3.997112 -4.401951,4.583647 -0.157904,0.478455 -0.132511,0.634605 0.172967,1.063609 0.455768,0.640068 2.326055,1.896296 2.823226,1.896296 0.208143,0 0.834738,0.354191 1.392434,0.78709 1.137708,0.883121 2.690715,2.300534 2.608266,2.380537 -0.07152,0.0694 -2.894162,-0.178929 -4.931579,-0.43387 -1.989841,-0.248989 -4.463224,-0.125294 -4.999034,0.250002 -0.210422,0.147385 -0.461717,0.265487 -0.558434,0.262449 -0.09672,-0.003 -1.523607,-0.702205 -3.170866,-1.553705 z"
     id="path3846"
     inkscape:connector-curvature="0" />
  <path
     style="fill:#fad028;fill-opacity:1;stroke-width:0.17114381"
     d="m 48.604884,84.391632 c -0.329973,-0.494105 -0.838515,-1.019335 -1.130093,-1.167179 -0.291578,-0.147843 -0.775375,-0.475156 -1.075104,-0.727361 -0.299728,-0.252205 -0.63532,-0.466231 -0.74576,-0.475614 -0.110439,-0.0094 -0.0083,-0.07416 0.227061,-0.143954 0.262838,-0.07795 0.608493,-0.03713 0.896195,0.105832 1.181647,0.587186 2.845118,2.560676 2.571116,3.050292 -0.111064,0.19846 -0.278961,0.05347 -0.743415,-0.642016 z"
     id="path3848"
     inkscape:connector-curvature="0" />
  <path
     style="fill:#008080;fill-opacity:0.98989898;stroke-width:0.2420339"
     d="M 39.900821,67.66438 C 38.235241,66.257941 36.622954,65.264764 34.664549,64.438814 32.38815,63.47875 30.060473,62.84419 29.543242,63.04267 c -0.205898,0.07901 -0.638364,0.673445 -0.961037,1.320963 -0.322672,0.647518 -0.654282,1.109699 -0.736915,1.027069 -0.08263,-0.08263 -0.150238,-0.02317 -0.150238,0.132133 0,0.155306 -0.115344,0.282374 -0.256319,0.282374 -0.140975,0 -0.189004,-0.108915 -0.106732,-0.242034 0.08227,-0.133119 0.02589,-0.242034 -0.125303,-0.242034 -0.151189,0 0.05482,-0.277434 0.4578,-0.616516 1.34733,-1.133704 0.332942,-1.803823 -2.730523,-1.803823 -1.106709,0 -3.089288,0.216289 -4.40573,0.480641 -2.788526,0.55996 -10.432676,1.598256 -13.4060739,1.820932 -2.1152221,0.158409 -3.3884746,0.4913 -3.3884746,0.885914 0,0.123396 0.3539746,0.378207 0.7866102,0.566248 0.4698754,0.204228 0.6129305,0.345709 0.355277,0.351368 -0.8540411,0.01876 -2.1089501,-0.703125 -2.5878861,-1.488673 -0.7634721,-1.252245 -0.655601,-2.916791 0.2992238,-4.617293 0.93218,-1.660168 4.0120736,-5.312893 4.319505,-5.122889 0.1186595,0.07334 0.2157447,-0.01752 0.2157447,-0.201883 0,-0.54037 13.1763989,-13.446057 13.9181869,-13.632235 0.413296,-0.103731 0.545004,-0.227894 0.361828,-0.341103 -0.321946,-0.198973 2.237015,-2.420348 2.788171,-2.420348 0.425875,0 1.327034,2.435993 1.324026,3.579078 -0.0013,0.494202 -0.258585,1.443125 -0.571742,2.108718 -0.692826,1.472551 -3.841545,6.24491 -6.040719,9.155622 -0.88788,1.175152 -1.614327,2.201272 -1.614327,2.280264 0,0.07899 -0.180858,0.34347 -0.401906,0.587726 -0.221049,0.244256 -0.334054,0.511953 -0.251124,0.594883 0.08293,0.08293 3.068356,-0.693841 6.634279,-1.726156 3.565923,-1.032316 7.899394,-2.256771 9.629937,-2.721008 1.730542,-0.464236 3.21595,-0.954614 3.300906,-1.089724 0.08495,-0.135111 0.26175,-0.179352 0.392875,-0.09831 0.131126,0.08104 0.769566,-0.441017 1.418756,-1.160126 2.375253,-2.631081 3.479666,-3.963901 3.479666,-4.199303 0,-0.132489 0.163373,-0.303581 0.363051,-0.380206 0.199678,-0.07662 0.363051,-0.306105 0.363051,-0.509963 0,-0.203856 0.09095,-0.370646 0.2021,-0.370646 0.196505,0 1.340135,-1.494741 5.214408,-6.815314 1.03316,-1.418846 2.08866,-2.769937 2.345557,-3.002428 0.256898,-0.232488 0.467087,-0.521232 0.467087,-0.641651 0,-0.659325 4.808376,-5.756878 5.430299,-5.756878 0.0863,0 0.288459,-0.117147 0.449239,-0.260327 0.160779,-0.14318 1.544852,-1.178549 3.075716,-2.300821 7.899437,-5.791053 11.028783,-8.490432 14.848114,-12.808004 2.385508,-2.696704 2.994831,-2.974271 4.236201,-1.929729 1.091829,0.918715 1.150326,1.688739 0.296247,3.899711 -0.900064,2.330019 -3.507502,7.090088 -4.164261,7.60216 -0.264422,0.20617 -0.505563,0.543789 -0.535868,0.750265 -0.107398,0.731751 -3.483979,5.530813 -3.891436,5.530813 -0.146713,0 -0.378253,0.245059 -0.51453,0.544576 -0.136277,0.299517 -0.379935,0.517347 -0.541461,0.484068 -0.161526,-0.03328 -0.299711,0.130093 -0.307076,0.363051 -0.0074,0.232957 -0.339818,0.681629 -0.738786,0.997049 -0.701666,0.554731 -0.736459,0.55869 -1.063722,0.121017 -0.319001,-0.426624 -0.330316,-0.420697 -0.198081,0.103728 0.257703,1.022009 -2.022065,2.832665 -6.01104,4.77414 -1.224457,0.595956 -2.125275,1.085225 -2.001819,1.087263 0.123457,0.0019 0.107023,0.08372 -0.03652,0.181525 -0.209645,0.142836 -1.398072,3.288038 -1.621569,4.29152 -0.02954,0.132637 -0.18387,0.350467 -0.342952,0.484068 -0.159084,0.1336 -0.322457,0.405888 -0.363051,0.605084 -0.0406,0.199197 -0.193651,0.471485 -0.340123,0.605085 -0.146471,0.1336 -1.465401,2.040012 -2.930958,4.23647 -2.570731,3.852809 -3.866595,6.050847 -3.567311,6.050847 0.07878,0 -0.03419,0.177416 -0.251032,0.394259 -0.216843,0.216843 -0.336955,0.543588 -0.26692,0.726101 0.07004,0.182513 0.03893,0.331843 -0.06912,0.331843 -0.108056,0 -0.438582,0.898551 -0.734503,1.99678 -0.295922,1.098229 -1.01014,2.977017 -1.587154,4.175085 -0.577014,1.198067 -1.061548,2.258398 -1.076748,2.356289 -0.06911,0.445125 -3.180004,3.325577 -3.744703,3.467307 -0.347793,0.08729 -0.632352,0.255818 -0.632352,0.374507 0,0.39321 -0.386015,0.225016 -1.348129,-0.587407 z M 44.876,63.042564 c -0.156744,-0.156744 -0.320407,-0.156744 -0.477151,0 -0.156746,0.156746 -0.07492,0.238577 0.238576,0.238577 0.313492,0 0.395321,-0.08183 0.238575,-0.238577 z M 70.134505,27.916466 c -0.07883,-0.205419 -0.195232,-0.321581 -0.258674,-0.258137 -0.06345,0.06344 -0.04356,0.231515 0.04418,0.37349 0.238658,0.386155 0.378149,0.311137 0.214491,-0.115353 z"
     id="path3868"
     inkscape:connector-curvature="0" />
  <path
     style="fill:#008080;fill-opacity:0.98989898;stroke-width:0.2420339"
     d="m 39.18648,66.98206 c -2.167999,-1.596088 -5.554915,-3.221844 -7.839972,-3.763271 l -1.794306,-0.425147 -0.47951,0.642251 -0.47951,0.642252 -0.428047,-0.528162 c -0.401186,-0.495017 -0.623029,-0.527094 -3.534997,-0.511115 -2.176829,0.01196 -4.266265,0.211279 -6.979493,0.66585 -2.129898,0.35684 -5.880356,0.876857 -8.3343505,1.155593 C 4.44877,65.413187 3.608443,65.613765 3.8225133,66.171624 4.014886,66.672939 3.6698614,66.620132 2.9250528,66.034265 2.577513,65.76089 2.1757257,65.101094 2.0321923,64.568053 1.6293007,63.071826 2.216347,61.474385 4.0680194,59.02826 5.7259922,56.838018 19.387274,43.147068 20.728951,42.331145 c 0.43683,-0.265652 0.794237,-0.607875 0.794237,-0.760497 0,-0.152622 0.523331,-0.72106 1.162957,-1.263197 0.910201,-0.771471 1.247891,-0.932128 1.553743,-0.739203 0.53059,0.334687 1.062725,1.926982 1.069555,3.200402 0.0089,1.655691 -0.786658,2.999858 -7.398565,12.500838 -0.788703,1.133326 -1.358686,2.135913 -1.266629,2.227968 0.158847,0.158847 10.208416,-2.548864 16.980633,-4.575186 2.97085,-0.888911 3.217935,-1.011569 4.42756,-2.1979 0.704617,-0.691046 1.739312,-1.844204 2.299322,-2.562573 0.560011,-0.718368 1.181576,-1.490333 1.381254,-1.715476 0.199678,-0.225144 0.471966,-0.572049 0.605085,-0.770902 0.133118,-0.198855 1.875762,-2.510937 3.872542,-5.137961 1.99678,-2.627023 3.984841,-5.286565 4.417912,-5.910091 1.318872,-1.898875 3.830884,-4.52871 5.188464,-5.43182 2.375279,-1.580122 10.770184,-8.026931 13.057317,-10.027277 1.246189,-1.089928 3.499176,-3.295462 5.006636,-4.901187 2.254207,-2.401148 2.862748,-2.9195 3.427468,-2.9195 0.834049,0 1.939829,1.194832 1.939829,2.096047 0,1.318038 -3.103119,7.749525 -4.678195,9.695968 -0.299408,0.370002 -0.663057,0.945018 -0.808108,1.277815 -0.436622,1.001753 -2.973355,4.407046 -4.104469,5.509813 -0.582295,0.567703 -1.058719,1.136997 -1.058719,1.265099 0,0.128101 -0.272833,0.411679 -0.606297,0.630172 -0.488587,0.320136 -0.676543,0.33896 -0.968136,0.09696 -0.304725,-0.2529 -0.361838,-0.204559 -0.361838,0.306257 0,1.040739 -2.430178,2.880778 -6.335416,4.796939 l -1.615756,0.792795 -0.760816,2.074709 c -0.966185,2.634745 -1.435092,3.519824 -3.071093,5.796806 -1.822266,2.536225 -4.760478,7.198887 -5.36139,8.50801 -0.273099,0.594967 -0.884106,2.254761 -1.357791,3.688429 -1.440077,4.358585 -2.748137,6.891787 -4.265496,8.260615 -1.205513,1.087504 -2.583315,2.078405 -2.893017,2.080625 -0.06941,4.84e-4 -0.886275,-0.558665 -1.815254,-1.242583 z m 5.741385,-3.887631 c -0.225897,-0.225897 -0.354984,-0.225897 -0.580881,0 -0.225898,0.225898 -0.161357,0.290441 0.290441,0.290441 0.451797,0 0.516338,-0.06454 0.29044,-0.290441 z M 70.293017,28.062206 c 0,-0.125263 -0.108915,-0.295064 -0.242034,-0.377335 -0.133118,-0.08227 -0.242033,0.02021 -0.242033,0.227749 0,0.207534 0.108915,0.377335 0.242033,0.377335 0.133119,0 0.242034,-0.102487 0.242034,-0.227749 z"
     id="path3870"
     inkscape:connector-curvature="0" />
  <path
     style="fill:#008080;fill-opacity:0.98989898;stroke-width:0.2420339"
     d="m 39.18648,66.990747 c -2.140301,-1.564691 -4.291796,-2.651082 -6.844769,-3.456252 -2.484493,-0.78357 -2.840764,-0.787072 -3.33499,-0.03279 l -0.393729,0.600905 -0.438788,-0.540397 c -0.415233,-0.511386 -0.605528,-0.538844 -3.544902,-0.511497 -2.083289,0.01939 -4.380094,0.237951 -6.974933,0.663744 -2.127851,0.349163 -5.885427,0.867934 -8.3501697,1.152822 -4.9130458,0.567877 -5.6930706,0.753481 -5.481686,1.30434 C 4.014886,66.672939 3.6698614,66.620132 2.9250528,66.034265 2.577513,65.76089 2.1757257,65.101094 2.0321923,64.568053 1.6275454,63.065308 2.2155923,61.472914 4.0779508,59.02826 6.293782,56.119618 23.203627,39.423514 23.933676,39.423514 c 0.492999,0 0.818195,0.535825 1.177659,1.94043 0.590764,2.3084 -0.05216,3.725262 -4.639577,10.224562 -2.974951,4.214817 -3.976928,5.759533 -3.830734,5.905726 0.227319,0.227318 18.748102,-4.95379 19.973635,-5.587539 1.399077,-0.72349 3.064803,-2.731195 10.658086,-12.846229 5.226306,-6.961978 6.509812,-8.432589 8.717454,-9.988257 2.779715,-1.958791 9.257859,-6.885768 11.519007,-8.760824 1.198301,-0.993689 3.757998,-3.417162 5.688218,-5.385496 3.910503,-3.987717 4.287451,-4.184636 5.424248,-2.833632 0.806886,0.958929 0.789089,1.551279 -0.114579,3.813652 -1.535397,3.843936 -6.155488,11.22564 -8.615879,13.76594 -0.710839,0.733925 -1.292434,1.428679 -1.292434,1.543899 0,0.11522 -0.272833,0.388258 -0.606297,0.606751 -0.488587,0.320136 -0.676543,0.33896 -0.968136,0.09696 -0.304725,-0.2529 -0.361838,-0.204559 -0.361838,0.306257 0,1.041013 -2.4301,2.880731 -6.338001,4.798215 l -1.618343,0.794067 -0.749245,2.073437 c -0.944944,2.615002 -1.34589,3.360778 -3.365275,6.259541 -4.037385,5.795538 -5.064347,7.700037 -6.552272,12.151183 -1.336985,3.999608 -2.659057,6.500735 -4.145133,7.84186 -1.204878,1.087354 -2.582647,2.078403 -2.892506,2.080625 -0.06941,4.84e-4 -0.886275,-0.554757 -1.815254,-1.233896 z m 5.692979,-3.847911 c 0,-0.133119 -0.108916,-0.242034 -0.242034,-0.242034 -0.133119,0 -0.242034,0.108915 -0.242034,0.242034 0,0.133119 0.108915,0.242034 0.242034,0.242034 0.133118,0 0.242034,-0.108915 0.242034,-0.242034 z m 25.413558,-35.08063 c 0,-0.125263 -0.108915,-0.295064 -0.242034,-0.377335 -0.133118,-0.08227 -0.242033,0.02021 -0.242033,0.227749 0,0.207534 0.108915,0.377335 0.242033,0.377335 0.133119,0 0.242034,-0.102487 0.242034,-0.227749 z"
     id="path3872"
     inkscape:connector-curvature="0" />
  <path
     style="fill:#008080;fill-opacity:0.98989898;stroke-width:0.2420339"
     d="M 39.473973,67.24237 C 37.765751,65.85226 35.414534,64.60695 32.789202,63.701813 30.00521,62.741975 29.52129,62.716375 29.006721,63.501707 l -0.393729,0.600905 -0.438294,-0.540397 c -0.413844,-0.510251 -0.60484,-0.538404 -3.423885,-0.504667 -1.841418,0.02203 -4.469673,0.270454 -6.858134,0.648215 -2.129898,0.336868 -5.833017,0.843539 -8.2291521,1.125935 C 4.8041883,65.404391 3.632952,65.677635 3.8305263,66.192504 4.0153497,66.674147 3.6594634,66.611954 2.9250528,66.034265 2.577513,65.76089 2.1757257,65.101094 2.0321923,64.568053 1.6275638,63.065376 2.2156002,61.472928 4.0778465,59.02826 6.2959632,56.116423 23.185064,39.423514 23.913008,39.423514 c 0.450013,0 0.755421,0.421643 1.116269,1.541103 0.419467,1.301319 0.356716,2.615232 -0.183167,3.835179 -0.418839,0.94643 -3.367474,5.43308 -6.934739,10.551916 -0.770891,1.106187 -1.357206,2.055661 -1.302923,2.109945 0.220703,0.220701 17.80865,-4.650737 19.66679,-5.44723 0.648816,-0.278113 1.606655,-1.089731 2.62958,-2.228152 1.472311,-1.638545 10.007116,-12.742639 11.824442,-15.384029 1.402483,-2.038439 4.627241,-4.985751 8.672232,-7.926108 6.162512,-4.479609 9.471532,-7.252923 13.55097,-11.357165 4.169668,-4.195021 4.526048,-4.385289 5.66921,-3.026718 0.34463,0.409569 0.626599,1.006117 0.626599,1.325661 0,1.351145 -2.293564,6.259804 -4.34787,9.30526 -0.49387,0.732152 -1.466115,2.217707 -2.160544,3.301232 -0.694427,1.083525 -1.907252,2.662796 -2.695162,3.509491 -0.787912,0.846695 -1.435568,1.618622 -1.43924,1.715392 -0.0037,0.09677 -0.279508,0.354713 -0.612972,0.573206 -0.488587,0.320136 -0.676543,0.33896 -0.968136,0.09696 -0.304186,-0.252453 -0.361838,-0.206734 -0.361838,0.286942 0,1.045321 -2.584433,3.028236 -6.210641,4.765134 l -1.702514,0.81548 -0.903331,2.442674 c -0.728878,1.97094 -1.506848,3.344596 -4.028374,7.11287 -3.559992,5.320203 -4.433076,6.949803 -5.547584,10.354515 -1.22504,3.742367 -2.903569,7.089909 -4.144985,8.266462 -1.210199,1.146967 -2.815367,2.269448 -3.212448,2.246438 -0.147822,-0.0086 -0.795219,-0.443987 -1.438659,-0.967602 z m 5.405486,-4.099534 c 0,-0.133119 -0.108916,-0.242034 -0.242034,-0.242034 -0.133119,0 -0.242034,0.108915 -0.242034,0.242034 0,0.133119 0.108915,0.242034 0.242034,0.242034 0.133118,0 0.242034,-0.108915 0.242034,-0.242034 z m 25.413558,-35.08063 c 0,-0.125263 -0.108915,-0.295064 -0.242034,-0.377335 -0.133118,-0.08227 -0.242033,0.02021 -0.242033,0.227749 0,0.207534 0.108915,0.377335 0.242033,0.377335 0.133119,0 0.242034,-0.102487 0.242034,-0.227749 z"
     id="path3874"
     inkscape:connector-curvature="0" />
  <path
     style="fill:#008080;fill-opacity:0.98989898;stroke-width:0.2420339"
     d="m 40.407986,67.993474 c -0.07889,-0.127642 -1.059796,-0.841804 -2.1798,-1.587029 -2.119206,-1.410072 -5.117142,-2.739429 -7.365254,-3.26593 -1.296048,-0.30353 -1.314714,-0.299919 -1.784731,0.34531 l -0.474987,0.652051 -0.463509,-0.49752 C 27.82096,63.298224 27.35787,63.137497 26.656978,63.125739 23.499103,63.072767 21.275057,63.244793 16.924544,63.878517 14.262171,64.266336 10.61351,64.753276 8.8164083,64.960603 4.8001746,65.42395 3.6442757,65.707144 3.8268922,66.183036 4.0151372,66.673595 3.6642383,66.615708 2.9250528,66.034265 2.577513,65.76089 2.1757257,65.101094 2.0321923,64.568053 1.6281309,63.067484 2.2158444,61.473402 4.0746313,59.02826 6.2879582,56.116737 23.176718,39.423514 23.909019,39.423514 c 0.517879,0 0.837904,0.516491 1.202316,1.94043 0.607953,2.375574 0.106386,3.440076 -5.296707,11.241458 -1.656105,2.391205 -3.011101,4.433366 -3.011101,4.538135 0,0.344259 0.819125,0.202459 4.364768,-0.755591 8.167994,-2.207034 13.996034,-3.954064 15.239977,-4.568385 1.657603,-0.818602 3.40858,-2.870299 10.372585,-12.154013 2.746054,-3.660762 5.81053,-7.472796 6.809951,-8.471186 0.999418,-0.99839 3.396396,-2.958695 5.326616,-4.356233 5.969677,-4.322227 9.400248,-7.183047 13.689326,-11.41579 4.566996,-4.507012 4.879173,-4.679844 6.014922,-3.330084 0.782622,0.930093 0.784214,1.48753 0.01014,3.545904 -1.700347,4.521429 -8.005049,14.066931 -10.715076,16.222931 -0.209942,0.167023 -0.578027,0.24137 -0.817968,0.165216 -0.320552,-0.101738 -0.436261,-0.01073 -0.436261,0.343146 0,0.765843 -2.249829,2.535117 -5.119961,4.026359 -2.867242,1.489738 -2.874019,1.497408 -3.934072,4.453431 -0.438079,1.221615 -1.545791,3.140147 -3.493604,6.050847 -3.788351,5.661095 -4.407079,6.815389 -5.929136,11.061298 -2.124588,5.926725 -3.296858,7.789822 -6.062935,9.635877 -0.996112,0.664797 -1.479756,0.776544 -1.714815,0.39621 z m 4.471473,-4.850638 c 0,-0.133119 -0.108916,-0.242034 -0.242034,-0.242034 -0.133119,0 -0.242034,0.108915 -0.242034,0.242034 0,0.133119 0.108915,0.242034 0.242034,0.242034 0.133118,0 0.242034,-0.108915 0.242034,-0.242034 z M 70.293017,28.047921 c 0,-0.133118 -0.115343,-0.242033 -0.256318,-0.242033 -0.140975,0 -0.189005,0.108915 -0.106732,0.242033 0.08227,0.133119 0.197615,0.242034 0.256318,0.242034 0.0587,0 0.106732,-0.108915 0.106732,-0.242034 z"
     id="path3876"
     inkscape:connector-curvature="0" />
  <path
     style="fill:#008080;fill-opacity:0.98989898;stroke-width:0.2420339"
     d="m 37.288882,69.798768 c -0.07662,-0.199678 -0.303596,-0.363051 -0.504383,-0.363051 -0.200787,0 -0.545705,-0.275687 -0.766483,-0.612638 -0.220779,-0.336951 -0.45783,-0.556225 -0.526779,-0.487276 -0.112188,0.112188 -1.684686,-0.730974 -1.987372,-1.065615 -0.158969,-0.175752 -0.656892,-0.306775 -1.694237,-0.445819 -0.465915,-0.06245 -0.921849,-0.230795 -1.013185,-0.3741 -0.09134,-0.143304 -0.512379,-0.300099 -0.93565,-0.348434 -0.42327,-0.04833 -1.026977,-0.185743 -1.341571,-0.305351 l -0.571988,-0.21747 0.771426,-1.240964 c 0.751849,-1.209472 0.794713,-1.23724 1.689099,-1.094222 2.43322,0.389088 6.303676,2.176287 8.842995,4.083291 l 1.753329,1.316733 -1.148244,0.577458 c -0.631535,0.317602 -1.18455,0.659145 -1.228923,0.758984 -0.146888,0.330499 -1.196177,0.188146 -1.338034,-0.181526 z"
     id="path3878"
     inkscape:connector-curvature="0" />
  <path
     style="fill:#008080;fill-opacity:0.98989898;stroke-width:0.2420339"
     d="m 37.532001,69.798768 c -0.199678,-0.199678 -0.446557,-0.363051 -0.548621,-0.363051 -0.102063,0 -0.463817,-0.259235 -0.803898,-0.576079 -0.792899,-0.738721 -3.376597,-2.084648 -4.006803,-2.087266 -0.266237,-0.0011 -0.774683,-0.153634 -1.129879,-0.338953 -0.355196,-0.185319 -1.089803,-0.411956 -1.63246,-0.503637 -0.542657,-0.09168 -1.035335,-0.245468 -1.09484,-0.341749 -0.05951,-0.09628 0.163928,-0.63138 0.496518,-1.18911 0.49373,-0.827951 0.736848,-1.014053 1.324726,-1.014053 1.685897,0 5.839646,1.84199 8.879337,3.937564 l 1.760691,1.213826 -1.349253,0.812779 c -1.569215,0.945284 -1.432419,0.912828 -1.895518,0.449729 z"
     id="path3880"
     inkscape:connector-curvature="0" />
  <path
     style="fill:#008080;fill-opacity:0.98989898;stroke-width:0.2420339"
     d="m 36.897987,69.375209 c -1.7002,-1.292023 -3.56504,-2.313171 -4.910768,-2.689038 -4.154441,-1.160352 -3.971166,-1.008907 -3.043208,-2.514691 0.356062,-0.577776 0.660625,-0.78661 1.147191,-0.78661 1.75947,0 5.799475,1.782317 8.924912,3.937376 0.968398,0.667733 1.730804,1.241497 1.694237,1.275032 -0.126302,0.11583 -2.629368,1.564541 -2.703195,1.564541 -0.04073,0 -0.539855,-0.353975 -1.109169,-0.78661 z"
     id="path3882"
     inkscape:connector-curvature="0" />
  <path
     style="fill:#008080;fill-opacity:0.98989898;stroke-width:0.2420339"
     d="m 36.85037,69.364986 c -1.732924,-1.318634 -3.589665,-2.245912 -5.88786,-2.940465 -1.198068,-0.362076 -2.325111,-0.704674 -2.504541,-0.761329 -0.248393,-0.07843 -0.181971,-0.348096 0.27837,-1.130157 0.723657,-1.229402 1.46392,-1.397136 3.385953,-0.767212 2.335439,0.765413 8.037354,3.918275 8.531177,4.717297 0.09294,0.150382 -2.319457,1.678699 -2.649771,1.678699 -0.05838,0 -0.577377,-0.358575 -1.153328,-0.796833 z"
     id="path3884"
     inkscape:connector-curvature="0" />
  <path
     style="fill:#008080;fill-opacity:0.98989898;stroke-width:0.2420339"
     d="M 4.7018321,67.257412 C 4.008671,67.111508 3.9646832,67.071004 4.4597982,67.034545 L 5.064883,66.989988 4.5203067,66.610111 c -0.2995169,-0.208932 -0.5445763,-0.467786 -0.5445763,-0.57523 0,-0.267075 2.0161663,-0.637468 5.2037288,-0.955985 1.4643048,-0.146321 4.7862198,-0.578133 7.3820338,-0.959581 5.998302,-0.881437 9.575725,-1.128759 10.74504,-0.74285 1.002607,0.33089 1.059156,0.490639 0.388519,1.097557 -0.266237,0.240942 -0.484068,0.660809 -0.484068,0.933038 0,0.384971 -0.06454,0.43042 -0.29044,0.204522 -0.159743,-0.159743 -0.45926,-0.288773 -0.665594,-0.286735 -0.320954,0.0032 -0.324525,0.03573 -0.02473,0.225405 0.27056,0.171169 0.187814,0.257677 -0.36305,0.37956 -0.392414,0.08682 -0.864701,0.20559 -1.049528,0.263925 -0.184827,0.05833 -3.118443,0.375983 -6.519146,0.705886 -6.029289,0.584902 -11.7966887,0.736668 -13.5966689,0.357789 z"
     id="path3886"
     inkscape:connector-curvature="0" />
  <path
     style="fill:#008080;fill-opacity:0.98989898;stroke-width:0.2420339"
     d="m 36.629199,69.226245 c -1.586003,-1.132621 -4.016593,-2.448683 -4.551099,-2.464228 -0.214219,-0.0062 -1.151895,-0.268148 -2.083726,-0.58204 -1.822054,-0.613767 -1.862372,-0.690862 -1.050363,-2.008497 0.58238,-0.945019 1.374113,-1.023959 3.372303,-0.336236 2.412228,0.830223 7.842601,3.847672 8.322808,4.624663 0.09918,0.160479 -2.268845,1.701912 -2.614562,1.701912 -0.04691,0 -0.674818,-0.421008 -1.395361,-0.935574 z"
     id="path3888"
     inkscape:connector-curvature="0" />
  <path
     style="fill:#008080;fill-opacity:0.98989898;stroke-width:0.2420339"
     d="m 36.492342,69.133175 c -1.753231,-1.23299 -3.68223,-2.132709 -6.134917,-2.861434 -0.99839,-0.296634 -1.893386,-0.606532 -1.98888,-0.688661 -0.09549,-0.08213 0.108762,-0.62287 0.453902,-1.201646 0.618665,-1.037457 0.643338,-1.050742 1.746846,-0.940568 2.100865,0.209751 7.296351,2.694272 9.525273,4.555059 l 0.754582,0.629953 -1.342273,0.76797 c -0.73825,0.422384 -1.389432,0.767971 -1.447071,0.767971 -0.05764,0 -0.762997,-0.46289 -1.567462,-1.028644 z"
     id="path3890"
     inkscape:connector-curvature="0" />
  <path
     style="fill:#008080;fill-opacity:0.98989898;stroke-width:0.2420339"
     d="m 36.529289,69.179589 c -2.082486,-1.406327 -3.33957,-2.005829 -5.808813,-2.770216 -1.198068,-0.370879 -2.255378,-0.741057 -2.349578,-0.822618 -0.0942,-0.08156 0.07447,-0.583124 0.374813,-1.114581 0.524747,-0.928531 0.59291,-0.965628 1.744492,-0.949421 1.978458,0.02784 7.183268,2.451952 9.604363,4.473172 l 0.754582,0.629953 -1.342273,0.76797 c -0.73825,0.422384 -1.383472,0.767624 -1.433828,0.767201 -0.05036,-4.24e-4 -0.745046,-0.442081 -1.543758,-0.98146 z"
     id="path3892"
     inkscape:connector-curvature="0" />
  <path
     style="fill:#008080;fill-opacity:0.98989898;stroke-width:0.2420339"
     d="m 37.501057,69.925662 c -0.431667,-0.698452 -4.328297,-2.740288 -6.52967,-3.421551 -1.336069,-0.413475 -2.506289,-0.822396 -2.600489,-0.908712 -0.0942,-0.08632 0.07189,-0.591768 0.369083,-1.123225 0.455565,-0.814662 0.678273,-0.977862 1.419297,-1.040056 1.723023,-0.14461 7.444167,2.485098 9.942481,4.570035 l 0.747389,0.623725 -1.342273,0.76797 c -1.428149,0.817105 -1.772992,0.908535 -2.005818,0.531814 z"
     id="path3894"
     inkscape:connector-curvature="0" />
  <path
     style="fill:#008080;fill-opacity:0.98989898;stroke-width:0.2420339"
     d="m 36.771323,69.396065 c -1.377674,-1.04251 -3.783302,-2.204704 -6.171864,-2.981717 -1.131509,-0.368088 -2.148242,-0.752123 -2.259408,-0.853414 -0.111164,-0.101291 0.08975,-0.646516 0.44648,-1.211612 l 0.648595,-1.027444 1.368776,0.131134 c 1.346275,0.128978 1.156702,-0.08242 -0.373274,-0.416235 -0.646168,-0.140987 -0.863025,-0.06637 -1.313779,0.452042 -0.538119,0.61889 -0.541324,0.619335 -0.99026,0.137458 -0.400862,-0.430273 -0.762117,-0.483267 -3.284864,-0.481856 -1.603472,9.68e-4 -4.253512,0.214762 -6.101927,0.49244 C 16.942696,63.906833 12.984217,64.44591 9.9431768,64.83481 4.7630597,65.497264 3.5484421,65.79372 3.8716624,66.316702 4.2179672,66.877034 3.2190982,66.443888 2.67569,65.798083 1.4573089,64.35012 1.6764118,62.480367 3.3733472,59.8445 4.3694888,58.297182 22.280247,40.28272 23.420436,39.681336 c 0.580452,-0.306156 0.703568,-0.30209 1.039992,0.03433 0.209879,0.209879 0.517724,0.967194 0.6841,1.682917 0.546525,2.351074 -0.05279,3.63662 -5.059513,10.852725 -3.127549,4.507687 -3.347777,4.855067 -3.182644,5.020199 0.07564,0.07564 1.146263,-0.112316 2.379169,-0.417673 4.134708,-1.024053 16.367361,-4.572892 17.140347,-4.972618 1.594151,-0.824367 3.342691,-2.894302 10.523428,-12.457705 2.648751,-3.527644 5.63642,-7.230954 6.639265,-8.229578 1.002843,-0.998624 3.892336,-3.340301 6.421097,-5.203728 6.207859,-4.574535 8.281204,-6.320168 12.84386,-10.813763 4.307315,-4.242119 4.645673,-4.422913 5.772135,-3.08419 0.782525,0.929977 0.784209,1.487918 0.0107,3.542934 -1.70191,4.521558 -7.644592,13.575925 -10.573108,16.109353 -0.287945,0.249099 -0.685035,0.369194 -0.946425,0.286232 -0.336093,-0.106673 -0.450328,-0.02076 -0.450328,0.338678 0,0.751929 -2.140381,2.445475 -5.100867,4.035992 -1.479146,0.794667 -2.788436,1.62889 -2.909533,1.853827 -0.121094,0.224937 -0.548947,1.300656 -0.950782,2.390489 -0.519842,1.409888 -1.605725,3.298498 -3.764166,6.546784 -3.496289,5.26164 -4.517677,7.197423 -5.923572,11.226631 -1.508812,4.324163 -2.602639,6.342811 -4.255432,7.853371 -0.769189,0.702997 -1.740529,1.441266 -2.158534,1.640597 -0.748354,0.356865 -0.783766,0.344908 -2.310085,-0.780053 -2.091751,-1.54171 -6.579858,-3.764813 -6.917975,-3.426697 -0.04876,0.04876 0.431116,0.279775 1.066399,0.513362 1.66591,0.612539 5.351909,2.670618 6.469259,3.612113 l 0.957592,0.806883 -1.320643,0.757264 c -0.726354,0.416494 -1.429559,0.750825 -1.562677,0.742957 -0.133119,-0.0079 -0.677695,-0.343976 -1.21017,-0.746907 z m 8.108136,-6.253229 c 0,-0.133119 -0.108916,-0.242034 -0.242034,-0.242034 -0.133119,0 -0.242034,0.108915 -0.242034,0.242034 0,0.133119 0.108915,0.242034 0.242034,0.242034 0.133118,0 0.242034,-0.108915 0.242034,-0.242034 z M 70.293017,28.047921 c 0,-0.133118 -0.115343,-0.242033 -0.256318,-0.242033 -0.140975,0 -0.189005,0.108915 -0.106732,0.242033 0.08227,0.133119 0.197615,0.242034 0.256318,0.242034 0.0587,0 0.106732,-0.108915 0.106732,-0.242034 z"
     id="path3896"
     inkscape:connector-curvature="0" />
  <path
     style="fill:#008080;fill-opacity:0.98989898;stroke-width:0.2420339"
     d="m 63.032001,35.937022 c 0,-0.05391 0.462889,-0.37021 1.028644,-0.702889 1.140721,-0.670774 2.843803,-2.280648 2.844069,-2.688415 9.4e-5,-0.144212 0.299611,-0.278905 0.665593,-0.299319 0.62765,-0.03501 0.589859,0.03264 -0.665764,1.191816 -1.716603,1.584741 -3.872542,2.975888 -3.872542,2.498807 z"
     id="path3898"
     inkscape:connector-curvature="0" />
  <path
     style="fill:#008080;fill-opacity:0.98989898;stroke-width:0.2420339"
     d=""
     id="path3900"
     inkscape:connector-curvature="0" />
</svg>
