<?xml version="1.0" encoding="UTF-8" standalone="no"?>
<!-- Created with Inkscape (http://www.inkscape.org/) -->

<svg
   xmlns:dc="http://purl.org/dc/elements/1.1/"
   xmlns:cc="http://creativecommons.org/ns#"
   xmlns:rdf="http://www.w3.org/1999/02/22-rdf-syntax-ns#"
   xmlns:svg="http://www.w3.org/2000/svg"
   xmlns="http://www.w3.org/2000/svg"
   xmlns:sodipodi="http://sodipodi.sourceforge.net/DTD/sodipodi-0.dtd"
   xmlns:inkscape="http://www.inkscape.org/namespaces/inkscape"
   version="1.1"
   id="svg2984"
   width="80"
   height="95.68"
   viewBox="0 0 80 95.68"
   sodipodi:docname="3333.svg"
   inkscape:version="0.92.3 (2405546, 2018-03-11)">
  <metadata
     id="metadata2990">
    <rdf:RDF>
      <cc:Work
         rdf:about="">
        <dc:format>image/svg+xml</dc:format>
        <dc:type
           rdf:resource="http://purl.org/dc/dcmitype/StillImage" />
      </cc:Work>
    </rdf:RDF>
  </metadata>
  <defs
     id="defs2988" />
  <sodipodi:namedview
     pagecolor="#ffffff"
     bordercolor="#666666"
     borderopacity="1"
     objecttolerance="10"
     gridtolerance="10"
     guidetolerance="10"
     inkscape:pageopacity="0"
     inkscape:pageshadow="2"
     inkscape:window-width="1366"
     inkscape:window-height="705"
     id="namedview2986"
     showgrid="false"
     inkscape:zoom="4.9331103"
     inkscape:cx="40"
     inkscape:cy="47.84"
     inkscape:window-x="-8"
     inkscape:window-y="-8"
     inkscape:window-maximized="1"
     inkscape:current-layer="svg2984" />
  <g
     id="g3537"
     transform="translate(0.40542832,3.2433903)">
    <path
       style="fill:#cf9966;stroke-width:0.31999999"
       d="m 26.571259,90.901037 c -0.924727,-1.727869 -0.08047,-3.982339 2.036825,-5.439079 0.773988,-0.532518 1.865901,-1.547305 2.426473,-2.255084 1.221289,-1.542004 2.185008,-1.661879 3.914182,-0.486874 1.43457,0.974816 2.584343,1.006502 4.799415,0.132272 C 40.678669,82.485024 43.6,81.645014 46.24,80.985587 l 4.8,-1.19896 -1.92,-0.545357 C 44.660874,77.974698 38.796262,76.047718 37.700083,75.488944 l -1.17992,-0.601462 -2.50008,1.707404 c -3.178086,2.170439 -7.142623,4.46984 -14.099362,8.17752 C 13.81303,88.027578 11.240532,89.056022 9.9607885,88.75424 8.5200426,88.41449 7.1257453,87.125917 6.540399,85.59321 5.4088797,82.630368 6.8307357,79.775792 15.587714,67.429437 17.736956,64.399248 20.897946,59.832 22.612135,57.28 c 1.71419,-2.552 3.354413,-4.856 3.644942,-5.12 0.290528,-0.264 1.006393,-1.344 1.590812,-2.4 0.584418,-1.056 1.468119,-2.519613 1.96378,-3.252474 L 30.712871,45.17505 29.356435,44.946912 C 25.624253,44.3192 22.296605,41.968538 20.780462,38.888813 18.298829,33.847901 19.787025,27.12809 24.31304,22.937799 c 2.411481,-2.232606 10.567405,-7.259522 11.76777,-7.253082 1.014668,0.0054 2.372796,0.625801 2.550492,1.164997 0.06701,0.203343 -0.372204,0.532764 -0.976038,0.732047 -0.60383,0.199283 -1.35089,0.641909 -1.660128,0.983614 -0.526195,0.581439 -0.52737,0.634668 -0.0183,0.830021 0.352464,0.135252 0.703882,-0.01958 0.998211,-0.439788 0.249834,-0.356689 1.09329,-1.023031 1.874346,-1.48076 1.964233,-1.151118 2.428809,-2.53544 1.496925,-4.46046 -0.829895,-1.714335 -0.833191,-2.26886 -0.02128,-3.5825493 C 41.049885,8.2590192 42.672714,7.36 44.064941,7.36 c 0.838205,0 0.931241,-0.1066595 0.959395,-1.0998723 0.03613,-1.274624 0.649894,-2.2679098 1.918042,-3.1040636 1.089353,-0.7182659 2.18902,-0.7530577 3.425232,-0.1083693 0.510185,0.2660636 0.942185,0.4451762 0.96,0.3980284 0.557881,-1.4764852 1.734323,-2.1545697 3.749235,-2.1610058 1.838413,-0.00587 3.006243,0.8373 3.515936,2.5385024 0.354547,1.1833831 0.405059,1.2183085 1.364147,0.9432458 2.127018,-0.6100202 4.48217,1.0432762 4.505859,3.1630733 C 64.470115,8.5842925 64.359267,9.444 64.216483,9.84 c -0.197565,0.547923 -0.141504,0.72 0.234576,0.72 0.827773,0 1.536544,1.450063 1.441536,2.949212 -0.05654,0.892097 0.164704,1.929521 0.633559,2.970788 2.748316,6.103688 1.819174,16.308186 -2.024596,22.235507 -0.743468,1.146471 -1.592464,2.282125 -1.886659,2.523674 C 62.205437,41.575373 62.08,42.217408 62.08,43.977014 c 0,2.62936 0.262698,2.17248 -4.571907,7.951389 -1.722551,2.058999 -3.511472,3.942509 -3.975379,4.185575 -0.659764,0.345683 -1.015162,0.991251 -1.631741,2.96398 -0.433549,1.387124 -0.856791,3.072925 -0.940538,3.746231 -0.140349,1.128342 -0.03313,1.335133 1.369418,2.641248 2.082457,1.939277 5.507222,3.866678 13.83856,7.788121 9.115443,4.290509 11.128902,5.787648 11.477325,8.534148 0.12152,0.957894 -0.05325,1.666051 -0.743434,3.012294 -1.101341,2.148234 -2.635738,3.023779 -6.473258,3.693722 -5.38871,0.940745 -32.240016,1.343308 -33.087267,0.496057 -0.437597,-0.437597 -4.78871,-0.455395 -6.334831,-0.02592 -0.634178,0.176163 -1.67104,0.82336 -2.304138,1.438215 -1.319243,1.281235 -1.669066,1.36312 -2.131551,0.49896 z M 30.08,60.364157 c 0,-0.743328 1.935472,-3.034093 3.361664,-3.978762 0.781104,-0.517382 1.989722,-1.031769 2.685818,-1.143078 1.164297,-0.186179 1.334912,-0.349703 2.130921,-2.042349 C 39.01088,51.599894 39.115626,51.00537 39.061814,48.64 38.98744,45.370829 38.756998,45.03945 36.74936,45.314627 l -1.462022,0.200394 -0.332778,2.371513 c -0.407152,2.90152 -1.057491,4.034231 -2.235536,3.893664 -1.218701,-0.145414 -2.127634,1.507975 -2.038613,3.708333 0.03719,0.919328 -0.207051,2.526906 -0.55261,3.637187 -0.340594,1.09433 -0.490683,1.910228 -0.333532,1.813101 C 29.951421,60.841696 30.08,60.583094 30.08,60.364157 Z M 35.313056,34.23472 c 0.240013,-1.200058 0.528202,-1.313123 6.52631,-2.560487 3.157348,-0.6566 5.399834,-0.950296 6.77818,-0.887731 2.011472,0.0913 2.076646,0.06882 2.777126,-0.958199 0.626413,-0.918424 1.591437,-4.148861 1.320362,-4.419938 -0.05404,-0.05403 -0.744826,0.134269 -1.535095,0.418448 -1.25824,0.45246 -1.554451,0.460325 -2.382873,0.06327 C 48.276755,25.640705 47.56056,24.98646 47.205523,24.436206 46.654656,23.582448 46.412579,23.458968 45.55464,23.594119 45.00169,23.681229 44.036886,23.583389 43.410634,23.376708 42.210637,22.980676 40.32,21.10398 40.32,20.308865 40.32,19.967429 39.933766,19.84 38.898886,19.84 c -0.781612,0 -1.510112,0.144 -1.618886,0.32 -0.108774,0.176 -0.63617,0.32 -1.17199,0.32 -0.776999,0 -1.409581,0.437267 -3.124826,2.16 C 30.195525,25.439831 28.48,28.729404 28.48,31.274994 c 0,1.562398 0.116082,1.865089 1.088,2.837006 1.029352,1.029354 1.208314,1.088 3.32,1.088 2.226714,0 2.232458,-0.0022 2.425056,-0.96528 z m 24.837677,-9.902221 c 0.685798,-0.433711 0.32264,-0.599976 -0.903152,-0.413493 -0.753639,0.114653 -0.943882,0.244605 -0.64,0.437172 0.556102,0.352398 0.958246,0.346228 1.543152,-0.02368 z"
       id="path3551"
       inkscape:connector-curvature="0" />
    <path
       style="fill:#ed7850;stroke-width:0.31999999"
       d="M 26.718817,90.993104 C 26.305866,90.58015 26.209309,90.09384 26.329157,89.03055 26.474735,87.738989 26.746069,87.371146 29.47301,84.768493 31.114499,83.201821 32.72223,81.92 33.045744,81.92 c 0.323517,0 1.117997,0.36 1.765517,0.8 0.839507,0.570461 1.605171,0.8 2.668528,0.8 h 1.491219 l -0.61681,1.2 C 38.014954,85.38 37.59,86.496 37.409853,87.2 l -0.327536,1.28 -2.621159,0.08971 c -3.248393,0.111184 -4.816557,0.516317 -5.566092,1.438 -1.13315,1.393399 -1.570299,1.591338 -2.176249,0.985389 z M 8.7700979,88.137008 C 6.6096701,87.07105 5.7537248,83.526115 6.9985344,80.8 8.0259235,78.550032 11.226986,73.898909 11.592591,74.124864 11.795305,74.250147 11.84688,74.190019 11.716984,73.97984 11.48713,73.60793 13.618453,70.24 14.083663,70.24 c 0.144652,0 0.383004,-0.131088 0.52967,-0.291306 0.154933,-0.169244 0.09906,-0.194851 -0.133333,-0.06111 -0.22,0.126605 -0.4,0.143977 -0.4,0.03861 0,-0.105373 2.0622,-3.101872 4.582667,-6.658887 C 21.183133,59.710285 23.73075,56.08 24.324038,55.2 c 0.593289,-0.88 1.195986,-1.648298 1.339328,-1.707331 0.143342,-0.05903 0.178597,-0.240048 0.07835,-0.402259 -0.100252,-0.162212 0.05022,-0.384148 0.33439,-0.493194 0.284167,-0.109046 1.005275,-1.152029 1.602462,-2.317741 C 28.275751,49.113763 29.204839,47.512 29.743203,46.72 l 0.978843,-1.44 -1.521023,-0.42319 C 25.7803,43.905069 24.779462,43.368787 22.851604,41.454589 20.399772,39.020131 19.668387,37.150355 19.716602,33.44 19.775118,28.936967 21.751801,24.942753 25.301858,22.154071 27.858776,20.145531 35.181162,15.68 35.91776,15.68 c 0.320538,0 1.099792,0.216014 1.731674,0.480032 0.967305,0.404166 1.085923,0.555887 0.75054,0.96 C 38.180886,17.384014 37.756368,17.6 37.456598,17.6 c -0.533056,0 -2.177225,1.478817 -1.911193,1.718985 0.07403,0.06683 0.44776,0.217663 0.830515,0.335183 0.559165,0.171686 0.716371,0.0704 0.8,-0.515438 0.0674,-0.472124 0.586246,-0.994585 1.472051,-1.482294 0.874186,-0.481311 1.598912,-1.205862 2.00776,-2.007271 L 41.29552,14.395076 40.575034,13.420565 C 39.575712,12.06891 39.606656,10.22139 40.647274,9.1076346 41.757142,7.9197578 43.124403,7.2762653 44.20233,7.434471 45.060042,7.5603565 45.12,7.4975971 45.12,6.4739517 45.12,5.0261136 45.972214,3.6440701 47.234301,3.0451707 48.491312,2.4486806 49.203453,2.4474555 50.24,3.04 c 1.063242,0.6078042 1.20128,0.5921424 1.441114,-0.1635096 0.325424,-1.0253186 1.958748,-1.6894608 3.73512,-1.5187739 1.824736,0.1753338 2.70888,0.8670049 3.13574,2.4531008 0.309056,1.148375 0.31041,1.1491043 1.926839,1.0377459 1.933603,-0.1332086 2.986557,0.4396368 3.749709,2.0399834 0.433641,0.9093545 0.459702,1.3039017 0.15222,2.3043366 -0.270051,0.8786378 -0.274371,1.2397708 -0.01587,1.3271168 0.195322,0.066 0.641965,0.40683 0.992535,0.757401 0.51008,0.510081 0.604969,0.925132 0.47504,2.077867 -0.123203,1.093054 0.02445,1.848535 0.612243,3.132428 1.619395,3.537226 2.13609,9.065472 1.210576,12.952304 -0.272403,1.144 -0.555955,2.536789 -0.630118,3.095088 -0.306391,2.306518 -2.443351,6.422794 -4.428205,8.529738 -0.753168,0.799494 -0.829751,1.07888 -0.657872,2.4 0.106985,0.822345 0.04449,1.884688 -0.138871,2.360758 -0.658547,1.709779 -7.710371,10.041712 -8.923872,10.543808 -0.14703,0.06084 -0.563692,1.118608 -0.92592,2.350608 -0.558348,1.899043 -0.775174,2.254634 -1.424499,2.336144 -0.501481,0.06295 -1.109021,0.615334 -1.759757,1.6 -1.713356,2.592579 -4.375222,5.538147 -4.842649,5.358778 -0.240551,-0.09231 -0.347795,-0.02368 -0.238739,0.152774 0.202844,0.328211 -1.795805,2.282384 -5.021706,4.909962 -1.236566,1.007212 -2.00319,1.41958 -2.4,1.29096 -0.420822,-0.136404 -0.466442,-0.105274 -0.163958,0.111881 0.323811,0.232467 0.230816,0.424237 -0.40904,0.843485 -0.455472,0.298438 -0.971632,0.453926 -1.147021,0.34553 -0.175389,-0.108397 -0.279322,-0.0064 -0.230963,0.2267 0.04863,0.234384 -0.16081,0.40418 -0.468628,0.379914 -0.306105,-0.02413 -0.485865,0.07051 -0.399468,0.210301 0.222284,0.359664 -4.37525,3.242368 -4.868982,3.052905 -0.224024,-0.08596 -0.373043,-0.01245 -0.331154,0.163402 0.04189,0.175834 -1.147839,0.97536 -2.643839,1.77672 -13.184113,7.06231 -13.404374,7.167296 -15.007751,7.153258 -0.457737,-0.004 -1.2777048,-0.227076 -1.8221509,-0.495706 z M 32.071046,57.686698 c 1.18,-1.21745 3.297383,-2.326698 4.441303,-2.326698 0.651865,0 0.961421,-0.350304 1.767337,-2 0.887997,-1.817709 0.971492,-2.258109 0.916084,-4.831821 -0.04358,-2.024109 -0.18858,-2.912617 -0.508368,-3.115097 -0.629965,-0.398877 -3.086698,-0.362548 -3.341303,0.04941 -0.116419,0.188371 -0.339958,1.364185 -0.496755,2.612918 -0.349523,2.783606 -0.981581,3.890387 -2.099661,3.676653 -1.159522,-0.221658 -2.437435,1.753859 -2.180467,3.370768 0.105356,0.662925 -0.03998,1.940515 -0.342864,3.013936 -0.289156,1.024781 -0.588532,2.295235 -0.66528,2.823235 -0.11668,0.80272 -0.0062,0.699533 0.674604,-0.629834 0.44778,-0.874406 1.273697,-2.063968 1.83537,-2.643468 z M 34.52,35.32 c 0.837114,-0.167424 1,-0.347405 1,-1.10496 0,-1.06799 0.05667,-1.08855 7.04,-2.554102 4.081088,-0.856475 4.805219,-0.927845 6.011638,-0.592508 1.2749,0.354372 1.430151,0.327318 2.201242,-0.383584 1.015357,-0.936101 1.573136,-2.195116 1.878186,-4.239428 l 0.231974,-1.554582 -0.815414,0.53428 C 50.840835,26.228939 48.768032,26.151842 47.826557,25.267371 47.4,24.866642 46.975834,24.301945 46.883965,24.012488 c -0.128403,-0.404559 -0.560829,-0.522376 -1.869613,-0.509386 -1.370691,0.0136 -1.922656,-0.150846 -2.831574,-0.843621 -0.620948,-0.473286 -1.305885,-1.287574 -1.522087,-1.80953 -0.216201,-0.521956 -0.683232,-1.024883 -1.037843,-1.117617 -0.713222,-0.186511 -3.344067,0.508959 -5.02936,1.329525 -2.12249,1.033433 -5.683549,6.329494 -6.225156,9.258141 -0.644788,3.486579 2.191653,5.792003 6.151668,5 z M 60.48,24.16 c 0.441952,-0.532521 0.336141,-0.572415 -1.28,-0.4826 -1.283587,0.07133 -1.425107,0.148928 -1.133158,0.62131 0.31352,0.507285 1.955353,0.412911 2.413158,-0.13871 z"
       id="path3549"
       inkscape:connector-curvature="0" />
    <path
       style="fill:#ba895b;stroke-width:0.31999999"
       d="M 26.718817,90.993104 C 26.305866,90.58015 26.209309,90.09384 26.329157,89.03055 26.474735,87.738989 26.746069,87.371146 29.47301,84.768493 31.114499,83.201821 32.72223,81.92 33.045744,81.92 c 0.323517,0 1.117997,0.36 1.765517,0.8 0.839507,0.570461 1.605171,0.8 2.668528,0.8 h 1.491219 l -0.61681,1.2 C 38.014954,85.38 37.59,86.496 37.409853,87.2 l -0.327536,1.28 -2.621159,0.08971 c -3.248393,0.111184 -4.816557,0.516317 -5.566092,1.438 -1.13315,1.393399 -1.570299,1.591338 -2.176249,0.985389 z M 8.7700979,88.137008 C 6.6096701,87.07105 5.7537248,83.526115 6.9985344,80.8 8.0259235,78.550032 11.226986,73.898909 11.592591,74.124864 11.795305,74.250147 11.84688,74.190019 11.716984,73.97984 11.48713,73.60793 13.618453,70.24 14.083663,70.24 c 0.144652,0 0.383004,-0.131088 0.52967,-0.291306 0.154933,-0.169244 0.09906,-0.194851 -0.133333,-0.06111 -0.22,0.126605 -0.4,0.143977 -0.4,0.03861 0,-0.105373 2.0622,-3.101872 4.582667,-6.658887 C 21.183133,59.710285 23.73075,56.08 24.324038,55.2 c 0.593289,-0.88 1.195986,-1.648298 1.339328,-1.707331 0.143342,-0.05903 0.178597,-0.240048 0.07835,-0.402259 -0.100252,-0.162212 0.05022,-0.384148 0.33439,-0.493194 0.284167,-0.109046 1.005275,-1.152029 1.602462,-2.317741 C 28.275751,49.113763 29.204839,47.512 29.743203,46.72 l 0.978843,-1.44 -1.521023,-0.42319 C 25.7803,43.905069 24.779462,43.368787 22.851604,41.454589 20.399772,39.020131 19.668387,37.150355 19.716602,33.44 19.775118,28.936967 21.751801,24.942753 25.301858,22.154071 27.858776,20.145531 35.181162,15.68 35.91776,15.68 c 0.320538,0 1.099792,0.216014 1.731674,0.480032 0.967305,0.404166 1.085923,0.555887 0.75054,0.96 C 38.180886,17.384014 37.756368,17.6 37.456598,17.6 c -0.533056,0 -2.177225,1.478817 -1.911193,1.718985 0.07403,0.06683 0.44776,0.217663 0.830515,0.335183 0.559165,0.171686 0.716371,0.0704 0.8,-0.515438 0.0674,-0.472124 0.586246,-0.994585 1.472051,-1.482294 0.874186,-0.481311 1.598912,-1.205862 2.00776,-2.007271 L 41.29552,14.395076 40.575034,13.420565 C 39.575712,12.06891 39.606656,10.22139 40.647274,9.1076346 41.757142,7.9197578 43.124403,7.2762653 44.20233,7.434471 45.060042,7.5603565 45.12,7.4975971 45.12,6.4739517 45.12,5.0261136 45.972214,3.6440701 47.234301,3.0451707 48.491312,2.4486806 49.203453,2.4474555 50.24,3.04 c 1.063242,0.6078042 1.20128,0.5921424 1.441114,-0.1635096 0.325424,-1.0253186 1.958748,-1.6894608 3.73512,-1.5187739 1.824736,0.1753338 2.70888,0.8670049 3.13574,2.4531008 0.309056,1.148375 0.31041,1.1491043 1.926839,1.0377459 1.933603,-0.1332086 2.986557,0.4396368 3.749709,2.0399834 0.433641,0.9093545 0.459702,1.3039017 0.15222,2.3043366 -0.270051,0.8786378 -0.274371,1.2397708 -0.01587,1.3271168 0.195322,0.066 0.641965,0.40683 0.992535,0.757401 0.51008,0.510081 0.604969,0.925132 0.47504,2.077867 -0.123203,1.093054 0.02445,1.848535 0.612243,3.132428 1.619395,3.537226 2.13609,9.065472 1.210576,12.952304 -0.272403,1.144 -0.555955,2.536789 -0.630118,3.095088 -0.286605,2.157574 -2.081991,5.704512 -4.260535,8.417056 l -0.636198,0.792147 -0.152666,-0.792147 C 61.066301,36.23319 60.727949,35.19472 60.052525,35.049395 56.359501,34.25479 54.51488,33.679053 52.401856,32.661482 l -2.478147,-1.193402 0.839389,-0.77404 c 1.024838,-0.945053 1.582163,-2.199238 1.887971,-4.248622 l 0.231974,-1.554582 -0.815414,0.53428 c -1.226791,0.803823 -3.299594,0.726726 -4.241069,-0.157745 -0.426557,-0.400729 -0.850723,-0.965426 -0.942592,-1.254883 -0.128403,-0.404559 -0.560829,-0.522376 -1.869613,-0.509386 -1.370691,0.0136 -1.922656,-0.150846 -2.831574,-0.843621 -0.620947,-0.473286 -1.305885,-1.287574 -1.522087,-1.80953 -0.216201,-0.521956 -0.683232,-1.024883 -1.037843,-1.117617 -0.713222,-0.186511 -3.344067,0.508959 -5.02936,1.329525 -2.122489,1.033433 -5.683549,6.329494 -6.225156,9.258141 -0.612887,3.31408 2.012502,5.61145 5.768916,5.048141 1.264816,-0.189671 1.382752,-0.286509 1.382752,-1.135415 0,-1.080982 -0.0618,-1.058409 6.991511,-2.553528 4.495702,-0.952972 6.08288,-0.985307 6.785878,-0.138245 0.193459,0.233103 0.490838,1.925089 0.660845,3.759965 0.361078,3.897149 0.0161,6.73785 -1.022279,8.417984 C 48.226365,44.86705 44.705379,48 44.124624,48 c -0.177184,0 -0.853709,-0.424739 -1.503389,-0.943862 -1.646742,-1.315824 -6.405827,-2.439546 -7.155744,-1.689629 -0.173603,0.173603 -0.447398,1.364969 -0.608435,2.647485 -0.356883,2.842236 -0.983082,3.952988 -2.107373,3.738067 -1.159522,-0.221658 -2.437435,1.753859 -2.180467,3.370768 0.105356,0.662925 -0.03998,1.940515 -0.342864,3.013936 -0.289156,1.024781 -0.588532,2.295235 -0.66528,2.823235 -0.11668,0.80272 -0.0062,0.699533 0.674604,-0.629834 C 31.657256,57.55416 34.431222,55.36 36.51921,55.36 c 0.669136,0 0.9683,-0.353789 1.862928,-2.203075 0.797331,-1.648167 1.011958,-2.434029 0.852099,-3.12 -0.15696,-0.673546 -0.127459,-0.789517 0.111142,-0.436925 0.178653,0.264 0.327027,0.717552 0.329722,1.007891 0.0072,0.775482 3.125693,3.494045 5.309734,4.628787 2.191501,1.138621 5.059341,1.871668 6.496919,1.660676 1.171555,-0.171946 1.149331,-0.293495 0.391731,2.142646 -0.489002,1.572442 -0.734336,1.937405 -1.355287,2.016144 -0.491923,0.06238 -1.107232,0.624288 -1.752051,1.6 -1.713357,2.592579 -4.375222,5.538147 -4.842649,5.358778 -0.240551,-0.09231 -0.347796,-0.02368 -0.23874,0.152774 0.202845,0.328211 -1.795804,2.282384 -5.021705,4.909962 -1.236567,1.007212 -2.003191,1.41958 -2.4,1.29096 -0.420823,-0.136404 -0.466442,-0.105274 -0.163959,0.111881 0.323812,0.232467 0.230816,0.424237 -0.40904,0.843485 -0.455472,0.298438 -0.971632,0.453926 -1.14702,0.34553 -0.175389,-0.108397 -0.279322,-0.0064 -0.230964,0.2267 0.04863,0.234384 -0.160809,0.40418 -0.468627,0.379914 -0.306105,-0.02413 -0.485865,0.07051 -0.399469,0.210301 0.222285,0.359664 -4.375249,3.242368 -4.868981,3.052905 -0.224024,-0.08596 -0.373043,-0.01245 -0.331154,0.163402 0.04189,0.175834 -1.147839,0.97536 -2.643839,1.77672 -13.184114,7.06231 -13.404374,7.167296 -15.007751,7.153258 -0.457737,-0.004 -1.277705,-0.227076 -1.8221511,-0.495706 z M 60.48,24.16 c 0.441952,-0.532521 0.336141,-0.572415 -1.28,-0.4826 -1.283587,0.07133 -1.425107,0.148928 -1.133158,0.62131 0.31352,0.507285 1.955353,0.412911 2.413158,-0.13871 z m -6.761958,31.410557 c 0.196022,-0.236192 0.249654,-0.54728 0.11918,-0.691303 -0.13047,-0.144025 -0.05023,-0.153955 0.178317,-0.02208 0.320151,0.184749 0.329523,0.343437 0.04082,0.691306 -0.206096,0.24833 -0.44672,0.45151 -0.53472,0.45151 -0.088,0 3.2e-4,-0.193248 0.196407,-0.429443 z M 55.36,53.92 c 0.41336,-0.44 0.823562,-0.8 0.911562,-0.8 0.088,0 -0.178202,0.36 -0.591562,0.8 -0.41336,0.44 -0.823562,0.8 -0.911562,0.8 -0.088,0 0.178202,-0.36 0.591562,-0.8 z m 0.96,-1.240819 c 0,-0.06645 0.252,-0.318448 0.56,-0.56 0.507539,-0.398039 0.518858,-0.38672 0.120819,0.120819 C 56.582781,52.77304 56.32,52.942554 56.32,52.679181 Z"
       id="path3547"
       inkscape:connector-curvature="0" />
    <path
       style="fill:#a06c4c;stroke-width:0.31999999"
       d="m 26.624,90.816 c -0.964432,-0.964432 -0.0547,-3.584522 1.713842,-4.93599 0.662164,-0.506007 1.850483,-1.60401 2.64071,-2.44001 0.790228,-0.836 1.683234,-1.52 1.984456,-1.52 0.301226,0 1.107776,0.389309 1.792336,0.865133 0.966307,0.671661 1.58041,0.853552 2.74599,0.813344 l 1.501335,-0.05179 -0.594007,1.026656 c -0.326704,0.564662 -0.767945,1.621462 -0.98054,2.348448 l -0.386532,1.321792 -2.920793,0.227958 c -3.277864,0.255828 -4.48671,0.66201 -5.616577,1.887216 C 27.649145,91.285984 27.202582,91.394582 26.624,90.816 Z M 8.0300771,87.44 C 7.1024736,86.571622 6.273369,84.806195 7.0057171,85.258813 7.2005728,85.379238 7.36,85.746835 7.36,86.075693 c 0,0.328857 0.468,0.966761 1.04,1.417565 0.572,0.450806 0.9342717,0.821241 0.8050486,0.823193 C 9.0758253,88.318371 8.547088,87.924 8.0300771,87.44 Z M 6.5886922,83.216947 c 0.093544,-0.958681 0.3073347,-1.966681 0.4750902,-2.24 0.2275309,-0.370713 0.261033,-0.293731 0.1318867,0.303053 -0.095218,0.44 -0.3090083,1.448 -0.4750902,2.24 l -0.3019671,1.44 z m 1.2718816,-2.670749 c 0.1201699,-0.31559 0.2991014,-0.49319 0.3976252,-0.394665 0.098524,0.09852 2.029e-4,0.356733 -0.2184908,0.573801 C 7.723671,81.039018 7.6869146,81.002262 7.8605738,80.546198 Z M 8,79.04 C 8.1883846,78.688 8.4800416,78.4 8.6481267,78.4 8.8162118,78.4 8.7071427,78.688 8.405751,79.04 8.104359,79.392 7.8127021,79.68 7.757624,79.68 7.702546,79.68 7.811615,79.392 8,79.04 Z m 1.1405738,-1.693802 c 0.1201699,-0.31559 0.2991014,-0.49319 0.3976252,-0.394665 0.098524,0.09853 2.029e-4,0.356733 -0.2184908,0.573801 C 9.003671,77.839018 8.9669146,77.802262 9.1405738,77.346198 Z M 17.366531,77.04 c 0.07693,-0.22 0.412926,-0.357997 0.746667,-0.306656 0.423919,0.06521 0.484939,0.0105 0.202461,-0.181568 -0.290815,-0.197725 0.392164,-1.066906 2.432517,-3.095699 3.776392,-3.754999 5.222267,-6.139399 7.280988,-12.007107 0.145504,-0.414711 0.200884,-0.414711 0.46315,0 0.163837,0.259065 0.300091,0.31983 0.302786,0.13503 0.0027,-0.1848 -0.160021,-0.500922 -0.36159,-0.70249 -0.272377,-0.272377 -0.275445,-0.720227 -0.01195,-1.744 0.194999,-0.757632 0.449555,-2.02551 0.56568,-2.81751 0.116125,-0.792 0.373501,-1.545795 0.571947,-1.675101 0.256777,-0.167312 0.245478,-0.236512 -0.03919,-0.24 -0.22,-0.0026 -0.4,-0.238531 -0.4,-0.52408 0,-0.425216 0.08688,-0.447081 0.48,-0.120819 0.311796,0.258768 0.48,0.27711 0.48,0.05234 0,-0.190313 -0.72,-0.601744 -1.6,-0.914294 -0.88,-0.312547 -1.6,-0.717955 -1.6,-0.900906 0,-0.33055 2.216543,-4.326134 3.319598,-5.983974 l 0.576752,-0.866832 -0.908175,-0.201907 c -4.860035,-1.080496 -7.608413,-3.062528 -9.25914,-6.677357 -1.67783,-3.674179 -0.944787,-9.138751 1.741641,-12.983301 1.45802,-2.086574 4.050308,-4.123302 9.302874,-7.309151 3.397705,-2.060816 3.993026,-2.318404 4.906661,-2.123048 2.06065,0.440614 2.373191,1.202756 0.717332,1.749239 -0.617351,0.203744 -1.277018,0.659245 -1.465927,1.012223 -0.391238,0.731037 -0.380374,0.751082 0.564304,1.041134 0.556151,0.17076 0.716823,0.07015 0.8,-0.50096 0.06579,-0.451743 0.633811,-1.022649 1.54408,-1.551929 0.919226,-0.534488 1.644426,-1.266869 2.005267,-2.025121 0.554823,-1.165887 0.552004,-1.205767 -0.152729,-2.158966 C 39.519373,11.99271 39.602778,10.209626 40.780052,8.9808159 41.798216,7.9180896 43.537755,7.2063165 44.50114,7.458248 45.036902,7.5983533 45.12,7.4479395 45.12,6.3380416 c 0,-1.0269066 0.212765,-1.4948074 1.069139,-2.3511792 1.391235,-1.3912375 2.517037,-1.6664389 3.974301,-0.9715171 0.917891,0.4377107 1.186851,0.4613501 1.401334,0.1231655 0.145984,-0.2301809 0.267632,-0.5338586 0.270327,-0.6748393 0.0026,-0.1409807 0.504275,-0.4649807 1.114621,-0.72 2.650608,-1.10749467 5.038134,-0.1484334 5.646659,2.268245 0.26175,1.0395017 0.469801,1.3699011 0.710841,1.1288624 C 59.49465,4.9533504 60.20897,4.8 60.894602,4.8 c 2.45271,0 4.093977,2.1487962 3.424432,4.4833686 -0.221056,0.7707734 -0.21537,1.1511864 0.01837,1.2290984 0.186176,0.06206 0.630835,0.422142 0.988131,0.800184 0.517462,0.547513 0.617773,0.978993 0.493062,2.120897 -0.110009,1.007326 0.01722,1.774173 0.427904,2.579194 1.654592,3.243268 2.310483,9.224606 1.437293,13.107258 -0.296864,1.32 -0.670592,3.048 -0.830509,3.84 -0.571808,2.831894 -3.994937,8.641043 -4.79903,8.144086 C 61.892413,41.004064 61.76,40.564323 61.76,40.12688 c 0,-0.437443 -0.233949,-1.726707 -0.519888,-2.86503 -0.448461,-1.785341 -0.635302,-2.095712 -1.36,-2.259175 -4.60743,-1.039257 -7.189018,-1.950861 -8.710736,-3.075916 -0.773248,-0.571686 -0.87569,-0.775708 -0.521728,-1.039061 0.831478,-0.618636 1.483808,-1.933503 1.949392,-3.929278 0.490547,-2.102791 0.427005,-2.268543 -0.578202,-1.508243 -1.473766,1.114702 -4.608777,0.219899 -5.14462,-1.468391 C 46.705482,23.450145 46.488618,23.374407 45.608067,23.5396 44.104333,23.821702 41.794678,22.743079 40.98751,21.381769 39.925936,19.591396 39.706211,19.44427 38.440957,19.676612 37.802432,19.793867 37.1432,20.022597 36.976,20.184901 36.8088,20.347205 36.374227,20.48 36.010282,20.48 c -1.041639,0 -2.882496,1.430275 -4.424342,3.437542 -3.57067,4.648518 -4.325788,8.744762 -1.955717,10.60906 0.957878,0.753468 3.182254,1.152332 4.767643,0.854912 0.90191,-0.1692 1.122134,-0.356983 1.122134,-0.956832 0,-1.062304 0.425862,-1.289354 3.84,-2.047332 7.317882,-1.624652 9.154397,-1.779844 9.934794,-0.839525 0.194886,0.234823 0.493433,1.928217 0.66344,3.763093 0.361078,3.897149 0.0161,6.73785 -1.022279,8.417984 C 48.226365,44.86705 44.705379,48 44.124624,48 43.94744,48 43.258378,47.562755 42.593373,47.028342 41.928368,46.49393 40.853315,45.970522 40.204368,45.865213 39.555418,45.759901 38.947456,45.549149 38.853344,45.39687 38.759232,45.244592 37.905251,45.12 36.955616,45.12 c -1.936323,0 -1.750986,-0.303606 -2.246477,3.68 -0.267392,2.14977 -0.909513,3.10897 -1.99504,2.980198 C 31.404486,51.624848 30.4,53.329139 30.4,55.70649 c 0,1.018515 -0.167253,2.257222 -0.371674,2.752678 -0.204421,0.495459 -0.354153,0.991635 -0.332738,1.102621 0.05393,0.27951 -1.679473,5.663433 -2.201631,6.838211 -1.328392,2.988685 -5.757273,8.703837 -7.890572,10.182214 -1.298383,0.89978 -2.475648,1.140714 -2.236854,0.457786 z M 30.006879,56.460211 c -0.107264,-0.107264 -0.367514,0.141309 -0.578333,0.552381 -0.366438,0.714515 -0.357855,0.723098 0.195026,0.195027 0.318083,-0.303811 0.490571,-0.640144 0.383307,-0.747408 z M 60.48,24.598106 c 0,-0.124169 0.08028,-0.434957 0.17839,-0.69064 0.09942,-0.259091 -0.04959,-0.552363 -0.33662,-0.662507 -0.283255,-0.108696 -0.441866,-0.07928 -0.352468,0.06537 0.0894,0.144651 -0.26312,0.263001 -0.783379,0.263001 -1.184873,0 -1.472323,0.272394 -0.950704,0.900907 C 58.630618,24.950664 60.48,25.052712 60.48,24.598106 Z M 49.12,60.799514 c -2.680576,-0.403165 -4.364595,-0.951002 -7.04,-2.290228 -3.449037,-1.72648 -4.64,-2.485417 -4.64,-2.956819 0,-0.346496 1.711882,-3.931014 2.02863,-4.247763 0.06577,-0.06577 0.824237,0.535766 1.685476,1.336749 2.818051,2.620883 5.614006,3.914493 9.257376,4.283123 l 1.931481,0.195424 -0.599261,2 c -0.329593,1.1 -0.694761,1.982035 -0.811481,1.960077 C 50.815501,61.058125 50,60.931866 49.12,60.799514 Z m 5.6,-6.200333 c 0,-0.06645 0.252,-0.318448 0.56,-0.56 0.507539,-0.398039 0.518858,-0.38672 0.120819,0.120819 C 54.982781,54.69304 54.72,54.862554 54.72,54.599181 Z"
       id="path3545"
       inkscape:connector-curvature="0" />
    <path
       style="fill:#d24829;stroke-width:0.31999999"
       d="M 26.773333,90.986666 C 26.656,90.869334 26.56,90.054339 26.56,89.175568 c 0,-1.473258 0.102895,-1.687296 1.320426,-2.746666 0.726234,-0.631897 2.06084,-1.904902 2.96579,-2.828902 0.904949,-0.924 1.846152,-1.68 2.091557,-1.68 0.245408,0 1.147568,0.450067 2.004797,1.00015 1.22768,0.787802 1.788089,0.962912 2.639459,0.824756 l 1.080857,-0.175402 -0.771443,1.744374 C 37.467149,86.27328 37.12,87.342144 37.12,87.689123 c 0,0.547488 -0.222061,0.631123 -1.68,0.63273 -3.388198,0.0037 -5.382494,0.530224 -6.632685,1.751005 -1.14118,1.114332 -1.618854,1.328937 -2.033982,0.913808 z M 29.28,53.098294 c -0.528,-0.338208 -1.284,-0.615683 -1.68,-0.616611 -0.396,-9.6e-4 -0.72,-0.147865 -0.72,-0.326531 0,-0.40143 1.724369,-3.530637 2.938681,-5.33281 C 30.314407,46.086634 30.72,45.349184 30.72,45.183571 c 0,-0.165616 -0.7022,-0.394269 -1.560444,-0.508118 -2.236783,-0.29672 -5.239498,-1.904525 -6.739582,-3.608711 C 20.42945,38.805389 19.754445,36.631248 19.903075,32.96 c 0.109755,-2.711014 0.249336,-3.299726 1.289797,-5.44 1.81953,-3.742852 4.431032,-6.007648 11.950507,-10.36394 2.514227,-1.456579 2.616359,-1.485658 3.815511,-1.08635 1.54016,0.51286 1.765052,1.088289 0.531241,1.359279 -1.803481,0.396111 -2.58424,2.069098 -1.073235,2.299694 0.522861,0.07979 0.703104,-0.05458 0.703104,-0.524187 0,-0.407507 0.425626,-0.848719 1.2,-1.243941 1.426794,-0.728202 2.152502,-1.47834 2.620147,-2.708342 0.288403,-0.758555 0.234557,-1.061292 -0.329725,-1.853752 C 38.86209,10.943155 40.690493,7.6469824 43.846701,7.5642234 45.095037,7.5314909 45.12,7.5076842 45.12,6.3499702 45.12,4.8795126 46.29336,3.3904374 47.859274,2.8736389 48.821437,2.5560966 49.155117,2.5970824 50.248803,3.1671422 51.172678,3.6486934 51.52,3.715224 51.52,3.4106442 c 0,-0.8000784 1.466208,-1.8046561 2.898112,-1.9856518 2.187939,-0.2765606 3.532886,0.5566669 4.084438,2.5304092 0.318628,1.140223 0.529514,1.460535 0.790048,1.2 0.496231,-0.496231 2.32904,-0.4433866 3.374608,0.097298 1.26914,0.6562979 1.770932,1.7976307 1.570836,3.5728896 -0.150666,1.3367018 -0.07543,1.5850218 0.676214,2.2318878 0.700899,0.603192 0.854208,1.020252 0.895162,2.435185 0.02717,0.939036 0.421657,2.736489 0.876617,3.994341 0.45496,1.257852 0.999261,3.649305 1.209562,5.31434 0.33167,2.625995 0.308877,3.401321 -0.171911,5.848298 -0.655046,3.333856 -0.738336,3.506663 -1.432176,2.971412 -0.390912,-0.301563 -0.373344,-0.224437 0.06642,0.291567 0.432832,0.507873 0.536605,0.948132 0.37584,1.594487 -0.630009,2.532925 -4.001472,8.016032 -4.673523,7.600685 C 61.89511,41.005731 61.76,40.564323 61.76,40.12688 61.76,39.689437 61.527971,38.407811 61.244378,37.278826 60.667101,34.980675 61.04201,35.229155 56.16,33.909037 c -1.408,-0.38073 -3.300294,-1.1116 -4.205101,-1.624154 L 50.309798,31.352964 51.202877,30.39692 C 51.994682,29.54929 52.32161,28.635432 52.947568,25.52 53.082192,24.849957 52.895731,24.836489 51.84,25.44 c -1.043235,0.596368 -2.882474,0.602661 -3.724698,0.01275 -0.366905,-0.256991 -0.844761,-0.896173 -1.061907,-1.420406 -0.350537,-0.846269 -0.484569,-0.919023 -1.195286,-0.648808 -1.795139,0.682511 -4.54497,-0.835016 -5.267184,-2.906756 -0.258051,-0.740248 -0.5256,-0.955708 -1.182231,-0.952062 -1.673241,0.0093 -4.684416,1.19586 -6.056604,2.386639 -2.669393,2.316481 -5.193832,6.946574 -5.190894,9.520653 0.0017,1.447233 1.077764,3.076651 2.395533,3.627253 0.606493,0.253408 1.971341,0.460742 3.032993,0.460742 1.786985,0 1.930643,-0.05345 1.935177,-0.72 0.0076,-1.122774 0.345469,-1.419187 2.235101,-1.96111 2.505869,-0.718656 8.273802,-1.796778 9.618838,-1.797922 1.962445,-0.0017 2.22418,0.426092 2.574551,4.207694 0.366141,3.951783 0.02624,6.781552 -1.017434,8.47024 C 48.226365,44.86705 44.705379,48 44.124624,48 c -0.177184,0 -0.855747,-0.428806 -1.507917,-0.952906 -0.652169,-0.524099 -1.687725,-1.048361 -2.301235,-1.165027 -0.61351,-0.116669 -1.308195,-0.364051 -1.543744,-0.549741 -0.519827,-0.409795 -3.331395,-0.281193 -3.607152,0.164992 -0.108522,0.175591 -0.283453,1.241732 -0.388739,2.3692 -0.275818,2.953664 -0.985363,4.113796 -2.31233,3.780749 -0.511514,-0.128384 -0.801162,0.09266 -1.275428,0.973315 -0.703331,1.306007 -0.639802,1.2901 -1.908079,0.477712 z M 35.738595,36.42 c -0.10215,-0.255274 -0.177977,-0.17945 -0.193331,0.193334 -0.01389,0.337332 0.06173,0.526333 0.16807,0.42 0.106333,-0.106336 0.1177,-0.382336 0.02525,-0.613334 z m 23.908048,-9.90387 c -0.06586,-0.112129 0.130695,-0.184129 0.4368,-0.16 0.346583,0.02732 0.540007,-0.166103 0.512685,-0.512686 -0.02413,-0.306106 0.07715,-0.481761 0.225069,-0.390344 0.287865,0.17791 0.749862,-1.385862 1.074403,-3.63665 0.123219,-0.854564 0.08178,-1.310798 -0.108384,-1.19327 -0.169334,0.104655 -0.451046,-0.06475 -0.626029,-0.37645 -0.302064,-0.538078 -0.329056,-0.538418 -0.533904,-0.0067 -0.118665,0.308 -0.344349,0.56 -0.50152,0.56 -0.510249,0 -0.302137,-0.845989 0.354237,-1.44 0.362941,-0.328457 0.64,-0.419192 0.64,-0.209597 0,0.203278 0.144,0.369596 0.32,0.369596 0.176,0 0.32,-0.216 0.32,-0.48 0,-0.292403 -0.298077,-0.48 -0.762678,-0.48 -0.470727,0 -0.821466,-0.224803 -0.91625,-0.587262 -0.124784,-0.477178 -0.0066,-0.559165 0.630518,-0.437373 0.676327,0.129288 0.768228,0.04507 0.668656,-0.612738 -0.06349,-0.419445 -0.302726,-0.723059 -0.531628,-0.674698 -0.228903,0.04836 -0.326359,-0.05742 -0.216564,-0.235072 0.109792,-0.177649 -0.275504,-0.621109 -0.856214,-0.985466 -0.778835,-0.488665 -1.416051,-0.625818 -2.428826,-0.522773 -1.428841,0.145377 -2.759584,1.021996 -2.410025,1.587592 0.116941,0.189214 0.04362,0.228854 -0.174253,0.0942 C 54.22769,15.855734 53.44,17.906708 53.44,19.63054 c 0,0.863923 -0.186128,1.565567 -0.48,1.80946 -0.659648,0.54746 -0.602358,1.307919 0.112621,1.494891 0.325942,0.08524 0.824253,0.640705 1.107353,1.234378 0.624301,1.309169 1.631485,2.007312 3.632192,2.517697 L 59.32257,27.072273 59.29163,28.976136 59.26068,30.88 59.513544,28.8 c 0.139075,-1.144 0.198973,-2.171742 0.133107,-2.28387 z M 57.246515,23.289862 C 57.916669,22.529112 58.56,22.363738 58.56,22.952219 c 0,0.106946 -0.09732,0.09713 -0.216259,-0.02181 -0.118944,-0.118943 -0.586944,0.109057 -1.04,0.506667 L 56.48,24.16 Z M 52.804899,22.48 c 0.0026,-0.132 0.14449,-0.456 0.315101,-0.72 0.250838,-0.388147 0.311136,-0.34222 0.315101,0.24 0.0027,0.396 -0.139101,0.72 -0.315101,0.72 -0.176,0 -0.317795,-0.108 -0.315101,-0.24 z m 6.188816,-0.465349 c -0.371997,-0.84775 -0.348505,-2.377924 0.04194,-2.732336 0.146822,-0.133273 0.163366,-0.06232 0.03676,0.157685 -0.126605,0.22 -0.0933,0.4 0.074,0.4 0.167309,0 0.397837,0.373092 0.512285,0.829095 0.124048,0.494242 0.374007,0.765427 0.618896,0.671453 0.263431,-0.101087 0.393127,0.08938 0.36153,0.530906 -0.07026,0.98166 -1.233095,1.082858 -1.645418,0.143197 z M 55.68,20.999182 c 0,-0.73844 0.940634,-1.328124 1.527776,-0.957764 0.282774,0.178368 0.564787,0.476276 0.626704,0.662018 0.157162,0.47149 -0.804954,0.787944 -1.073674,0.353146 -0.133033,-0.21525 -0.07396,-0.265401 0.149751,-0.127139 C 57.11375,21.055023 57.28,21.005272 57.28,20.818885 57.28,20.306819 56.645686,20.41284 56.435722,20.96 56.204742,21.561923 55.68,21.589129 55.68,20.999182 Z m 1.04,-1.710669 c -0.572,-0.07098 -1.04,-0.249852 -1.04,-0.397484 0,-0.229552 1.845904,-1.052682 1.960838,-0.874383 0.05087,0.07891 0.205431,1.522611 0.155469,1.452142 C 57.776339,19.440622 57.292,19.359498 56.72,19.288513 Z m 3.632963,-2.27518 c -0.09065,-0.146666 0.03852,-0.266666 0.287037,-0.266666 0.248515,0 0.377683,0.12 0.287037,0.266666 C 60.836394,17.16 60.707226,17.28 60.64,17.28 c -0.06723,0 -0.196394,-0.12 -0.287037,-0.266667 z"
       id="path3543"
       inkscape:connector-curvature="0" />
    <path
       style="fill:#6f4338;stroke-width:0.31999999"
       d="M 26.773333,90.986666 C 26.656,90.869334 26.56,90.054339 26.56,89.175568 c 0,-1.473258 0.102895,-1.687296 1.320426,-2.746666 0.726234,-0.631897 2.06084,-1.904902 2.96579,-2.828902 0.904949,-0.924 1.846152,-1.68 2.091557,-1.68 0.245408,0 1.147568,0.450067 2.004797,1.00015 1.22768,0.787802 1.788089,0.962912 2.639459,0.824756 l 1.080857,-0.175402 -0.771443,1.744374 C 37.467149,86.27328 37.12,87.342144 37.12,87.689123 c 0,0.547488 -0.222061,0.631123 -1.68,0.63273 -3.388198,0.0037 -5.382494,0.530224 -6.632685,1.751005 -1.14118,1.114332 -1.618854,1.328937 -2.033982,0.913808 z M 29.28,53.098294 c -0.528,-0.338208 -1.284,-0.615683 -1.68,-0.616611 -0.396,-9.6e-4 -0.72,-0.147865 -0.72,-0.326531 0,-0.40143 1.724369,-3.530637 2.938681,-5.33281 C 30.314407,46.086634 30.72,45.349184 30.72,45.183571 c 0,-0.165616 -0.7022,-0.394269 -1.560444,-0.508118 -2.236783,-0.29672 -5.239498,-1.904525 -6.739582,-3.608711 C 20.42945,38.805389 19.754445,36.631248 19.903075,32.96 c 0.109755,-2.711014 0.249336,-3.299726 1.289797,-5.44 1.81953,-3.742852 4.431032,-6.007648 11.950507,-10.36394 2.514227,-1.456579 2.616359,-1.485658 3.815511,-1.08635 1.54016,0.51286 1.765052,1.088289 0.531241,1.359279 -1.803481,0.396111 -2.58424,2.069098 -1.073235,2.299694 0.522861,0.07979 0.703104,-0.05458 0.703104,-0.524187 0,-0.407507 0.425626,-0.848719 1.2,-1.243941 1.426794,-0.728202 2.152502,-1.47834 2.620147,-2.708342 0.288403,-0.758555 0.234557,-1.061292 -0.329725,-1.853752 C 38.86209,10.943155 40.690493,7.6469824 43.846701,7.5642234 45.095037,7.5314909 45.12,7.5076842 45.12,6.3499702 45.12,4.8795126 46.29336,3.3904374 47.859274,2.8736389 48.821437,2.5560966 49.155117,2.5970824 50.248803,3.1671422 51.172678,3.6486934 51.52,3.715224 51.52,3.4106442 c 0,-0.8000784 1.466208,-1.8046561 2.898112,-1.9856518 2.187939,-0.2765606 3.532886,0.5566669 4.084438,2.5304092 0.318628,1.140223 0.529514,1.460535 0.790048,1.2 0.496231,-0.496231 2.32904,-0.4433866 3.374608,0.097298 1.26914,0.6562979 1.770932,1.7976307 1.570836,3.5728896 -0.150666,1.3367018 -0.07543,1.5850218 0.676214,2.2318878 0.700899,0.603192 0.854208,1.020252 0.895162,2.435185 0.02717,0.939036 0.421657,2.736489 0.876617,3.994341 0.45496,1.257852 0.999261,3.649305 1.209562,5.31434 0.332115,2.629533 0.309075,3.40127 -0.175347,5.872997 -0.30674,1.565113 -0.65728,2.946322 -0.77898,3.069354 C 66.819571,31.866726 65.784,31.237348 64.64,30.345076 63.496,29.452804 61.958643,28.428619 61.223651,28.069108 59.857664,27.400954 59.140826,26.29137 60.121046,26.362396 c 0.308727,0.02237 0.501181,-0.187856 0.475082,-0.518952 -0.02413,-0.306106 0.07715,-0.481761 0.225069,-0.390344 0.287865,0.17791 0.749862,-1.385862 1.074403,-3.63665 0.123219,-0.854564 0.08178,-1.310798 -0.108384,-1.19327 -0.169334,0.104655 -0.451046,-0.06475 -0.626029,-0.37645 -0.302064,-0.538078 -0.329056,-0.538418 -0.533904,-0.0067 -0.118665,0.308 -0.344349,0.56 -0.50152,0.56 -0.510249,0 -0.302137,-0.845989 0.354237,-1.44 0.362941,-0.328457 0.64,-0.419192 0.64,-0.209597 0,0.203278 0.144,0.369596 0.32,0.369596 0.176,0 0.32,-0.216 0.32,-0.48 0,-0.292403 -0.298077,-0.48 -0.762678,-0.48 -0.470727,0 -0.821466,-0.224803 -0.91625,-0.587262 -0.124784,-0.477178 -0.0066,-0.559165 0.630518,-0.437373 0.676327,0.129288 0.768228,0.04507 0.668656,-0.612738 -0.06349,-0.419445 -0.302726,-0.723059 -0.531628,-0.674698 -0.228903,0.04836 -0.326359,-0.05742 -0.216564,-0.235072 0.109792,-0.177649 -0.275504,-0.621109 -0.856214,-0.985466 -0.778835,-0.488665 -1.416051,-0.625818 -2.428826,-0.522773 -1.428841,0.145377 -2.759584,1.021996 -2.410025,1.587592 0.116941,0.189214 0.04362,0.228854 -0.174253,0.0942 C 54.22769,15.855734 53.44,17.906708 53.44,19.63054 c 0,0.863923 -0.186128,1.565567 -0.48,1.80946 -0.659648,0.54746 -0.602358,1.307919 0.112621,1.494891 0.325942,0.08524 0.824253,0.640705 1.107353,1.234378 0.619978,1.300108 1.630781,2.007132 3.58064,2.504545 l 1.458848,0.372156 0.171332,3.900391 0.171328,3.900391 -2.98106,-0.811859 C 54.941478,33.588371 52.859706,32.802269 51.954899,32.288 L 50.309798,31.352964 51.202877,30.39692 C 51.994682,29.54929 52.32161,28.635432 52.947568,25.52 53.082192,24.849957 52.895731,24.836489 51.84,25.44 c -1.043235,0.596368 -2.882474,0.602661 -3.724698,0.01275 -0.366905,-0.256991 -0.844761,-0.896173 -1.061907,-1.420406 -0.350537,-0.846269 -0.484569,-0.919023 -1.195286,-0.648808 -1.795139,0.682511 -4.54497,-0.835016 -5.267184,-2.906756 -0.258051,-0.740248 -0.5256,-0.955708 -1.182231,-0.952062 -1.673241,0.0093 -4.684416,1.19586 -6.056604,2.386639 -2.669393,2.316481 -5.193832,6.946574 -5.190894,9.520653 0.0017,1.447233 1.077764,3.076651 2.395533,3.627253 0.606493,0.253407 1.952935,0.460741 2.992093,0.460741 h 1.88938 l 0.195852,1.2 c 0.107719,0.66 0.702125,2.772678 1.3209,4.694838 0.618774,1.92216 1.125046,3.54216 1.125046,3.6 0,0.05784 -0.645258,0.105162 -1.433904,0.105162 -1.597389,0 -1.555494,-0.0691 -1.925123,3.17535 -0.301245,2.644212 -0.991811,3.669575 -2.257466,3.351917 -0.511514,-0.128384 -0.801162,0.09266 -1.275428,0.973315 -0.703331,1.306007 -0.639802,1.2901 -1.908079,0.477712 z M 57.246515,23.289862 C 57.916669,22.529112 58.56,22.363738 58.56,22.952219 c 0,0.106946 -0.09732,0.09713 -0.216259,-0.02181 -0.118944,-0.118943 -0.586944,0.109057 -1.04,0.506667 L 56.48,24.16 Z M 52.804899,22.48 c 0.0026,-0.132 0.14449,-0.456 0.315101,-0.72 0.250838,-0.388147 0.311136,-0.34222 0.315101,0.24 0.0027,0.396 -0.139101,0.72 -0.315101,0.72 -0.176,0 -0.317795,-0.108 -0.315101,-0.24 z m 6.188816,-0.465349 c -0.371997,-0.84775 -0.348505,-2.377924 0.04194,-2.732336 0.146822,-0.133273 0.163366,-0.06232 0.03676,0.157685 -0.126605,0.22 -0.0933,0.4 0.074,0.4 0.167309,0 0.397837,0.373092 0.512285,0.829095 0.124048,0.494242 0.374007,0.765427 0.618896,0.671453 0.263431,-0.101087 0.393127,0.08938 0.36153,0.530906 -0.07026,0.98166 -1.233095,1.082858 -1.645418,0.143197 z M 55.68,20.999182 c 0,-0.73844 0.940634,-1.328124 1.527776,-0.957764 0.282774,0.178368 0.564787,0.476276 0.626704,0.662018 0.157162,0.47149 -0.804954,0.787944 -1.073674,0.353146 -0.133033,-0.21525 -0.07396,-0.265401 0.149751,-0.127139 C 57.11375,21.055023 57.28,21.005272 57.28,20.818885 57.28,20.306819 56.645686,20.41284 56.435722,20.96 56.204742,21.561923 55.68,21.589129 55.68,20.999182 Z m 1.04,-1.710669 c -0.572,-0.07098 -1.04,-0.249852 -1.04,-0.397484 0,-0.229552 1.845904,-1.052682 1.960838,-0.874383 0.05087,0.07891 0.205431,1.522611 0.155469,1.452142 C 57.776339,19.440622 57.292,19.359498 56.72,19.288513 Z m 3.632963,-2.27518 c -0.09065,-0.146666 0.03852,-0.266666 0.287037,-0.266666 0.248515,0 0.377683,0.12 0.287037,0.266666 C 60.836394,17.16 60.707226,17.28 60.64,17.28 c -0.06723,0 -0.196394,-0.12 -0.287037,-0.266667 z"
       id="path3541"
       inkscape:connector-curvature="0" />
    <path
       style="fill:#182a37;stroke-width:0.31999999"
       d="m 26.585263,90.053334 c 0.01535,-0.372784 0.09118,-0.448608 0.193333,-0.193334 0.09244,0.230998 0.08107,0.507002 -0.02526,0.613334 -0.106333,0.106333 -0.181965,-0.08267 -0.16807,-0.42 z M 27.2,51.52 c 0.188385,-0.352 0.414518,-0.64 0.502518,-0.64 0.088,0 0.0059,0.288 -0.182518,0.64 -0.188385,0.352 -0.414518,0.64 -0.502518,0.64 -0.088,0 -0.0059,-0.288 0.182518,-0.64 z m 0.64,-1.261114 c 0,-0.165612 0.142351,-0.389094 0.316335,-0.49662 0.181395,-0.112109 0.235042,0.01635 0.125763,0.301113 C 28.069365,50.617754 27.84,50.719184 27.84,50.258886 Z M 48.284176,25.440115 c -0.459702,-0.249844 -1.002019,-0.856079 -1.205152,-1.347188 -0.3488,-0.843293 -0.465114,-0.886936 -2.092506,-0.785147 -1.600684,0.100118 -1.814886,0.02492 -3.013331,-1.057797 -2.153321,-1.945397 -2.362745,-5.073682 -0.440861,-6.585436 l 0.820407,-0.64533 -0.698195,-0.489034 C 40.108966,13.447621 39.510131,10.761788 40.499424,9.3493744 41.203629,8.343985 42.635632,7.68 44.099734,7.68 c 1.16344,0 1.24072,-0.056476 1.098106,-0.8025072 -0.202461,-1.0591155 0.454291,-2.586192 1.44863,-3.3683389 0.982522,-0.7728519 2.992368,-0.8281321 4.084788,-0.1123507 0.660864,0.4330131 0.788742,0.442057 0.788742,0.055781 0,-1.373114 2.809645,-2.40549 4.943286,-1.8163625 1.172884,0.3238479 1.738919,1.0474923 2.099258,2.6837788 0.1368,0.6211974 0.37129,0.9126442 0.664432,0.825817 1.834848,-0.543472 2.782093,-0.3885418 3.962822,0.6481526 1.156445,1.0153715 1.193882,1.113791 1.056023,2.7761926 -0.129475,1.5613003 -0.05742,1.8090073 0.765625,2.6320553 0.9932,0.9932 1.091229,1.528164 0.55249,3.015064 -0.401882,1.109179 -1.479248,2.03133 -2.823738,2.416926 -0.791049,0.22687 -1.005024,0.130566 -1.659459,-0.746877 -0.413222,-0.554031 -0.723081,-1.098389 -0.688576,-1.209683 0.03451,-0.111294 -0.111613,-0.196609 -0.324713,-0.189589 -0.985437,0.03246 -1.530628,-0.11167 -1.374983,-0.363509 0.215306,-0.348374 -1.998403,0.04745 -2.852467,0.51004 -1.601334,0.867334 -2.72,2.966648 -2.72,5.104421 0,0.595929 -0.224,1.425377 -0.497782,1.843217 -0.462874,0.706437 -0.449722,0.804485 0.18759,1.398229 0.56519,0.526554 0.622755,0.755513 0.328294,1.305719 -0.781289,1.459854 -3.223001,2.04033 -4.853926,1.153939 z M 38.48609,19.298243 c 0.31135,-0.08113 0.74335,-0.0758 0.96,0.01186 0.216649,0.08765 -0.03809,0.154038 -0.56609,0.147516 -0.528,-0.0065 -0.705261,-0.07824 -0.39391,-0.159373 z M 56,18.757305 c 0,-0.06748 0.36,-0.191514 0.8,-0.275625 0.44,-0.08411 0.8,-0.0289 0.8,0.122695 0,0.151594 -0.36,0.275625 -0.8,0.275625 -0.44,0 -0.8,-0.05521 -0.8,-0.122695 z m 4.4,-0.729235 c 0.22,-0.08877 0.58,-0.08877 0.8,0 0.22,0.08877 0.04,0.161404 -0.4,0.161404 -0.44,0 -0.62,-0.07263 -0.4,-0.161404 z"
       id="path3539"
       inkscape:connector-curvature="0" />
  </g>
  <path
     style="fill:#d45500;fill-opacity:1;stroke-width:0.20271187"
     d="m 49.317715,59.82613 c -2.800852,-0.619208 -5.23048,-1.921577 -7.475001,-4.006874 -1.707718,-1.586575 -2.085232,-2.436275 -2.320256,-5.222374 -0.07994,-0.947678 -0.137469,-1.735873 -0.127836,-1.751544 0.109888,-0.178771 2.976447,1.069367 3.735247,1.626377 0.549426,0.403316 1.174259,0.733302 1.388517,0.733302 0.531283,0 1.494818,-0.738704 3.354226,-2.571553 1.82751,-1.801405 2.270988,-2.744478 2.582113,-5.490954 0.259217,-2.288253 -0.122688,-7.209505 -0.636743,-8.20512 -0.281948,-0.546075 0.05524,-0.449415 2.21757,0.635692 1.893312,0.950108 4.415202,1.831389 7.445058,2.601692 l 1.418983,0.360759 0.354428,1.068364 c 0.940329,2.834459 1.422695,8.161605 0.860793,9.506423 -0.400923,0.959546 -3.002861,4.404924 -4.270834,5.655264 -0.572632,0.564666 -1.077191,1.121749 -1.121242,1.237961 -0.179603,0.473805 -2.008359,2.318769 -2.188217,2.20761 -0.106631,-0.0659 -0.248827,0.05332 -0.31599,0.264932 -0.06716,0.211615 -0.379008,0.653567 -0.692987,0.982117 -0.498714,0.521855 -0.722131,0.600236 -1.767564,0.620107 -0.65818,0.01251 -1.7563,-0.10097 -2.440265,-0.252181 z"
     id="path3553"
     inkscape:connector-curvature="0" />
  <path
     style="fill:#d45500;fill-opacity:1;stroke-width:0.20271187"
     d="m 52.698722,60.698689 c -0.0049,-0.29731 0.08269,-0.570971 0.194694,-0.608136 0.112008,-0.03716 -0.435296,-0.0559 -1.216232,-0.04164 -0.780937,0.01427 -2.005417,-0.0968 -2.721069,-0.246818 C 47.527814,59.502703 44.784,58.355763 44.784,58.058117 c 0,-0.103145 -0.09186,-0.130759 -0.204144,-0.06137 -0.112278,0.06939 -0.258668,-0.01591 -0.325309,-0.189584 -0.06664,-0.173665 -0.192718,-0.27153 -0.280171,-0.217481 -0.08745,0.05405 -0.533997,-0.265644 -0.992318,-0.71043 -0.458322,-0.444787 -0.833312,-0.745299 -0.833312,-0.667806 0,0.07749 -0.315722,-0.165113 -0.701604,-0.539127 -0.385882,-0.374011 -0.658017,-0.750544 -0.604744,-0.836741 0.05327,-0.0862 -0.107405,-0.299795 -0.35706,-0.47466 -0.249656,-0.174866 -0.365208,-0.319334 -0.256782,-0.321041 0.108427,-0.0016 0.09225,-0.07012 -0.03596,-0.152034 -0.128204,-0.08191 -0.290121,-0.508493 -0.359818,-0.947958 -0.196764,-1.240682 -0.320956,-1.11348 -0.207543,0.212572 0.08067,0.94322 0.01538,1.365212 -0.310259,2.005438 -0.346314,0.680865 -0.387832,0.71336 -0.258991,0.202712 0.08439,-0.334474 0.153437,-1.869883 0.153437,-3.412019 0,-2.541669 -0.0368,-2.83077 -0.39349,-3.091357 -0.292904,-0.213986 -0.316223,-0.287471 -0.09122,-0.287471 0.166249,0 0.411734,0.109464 0.545524,0.243254 0.184838,0.184837 0.243255,0.185765 0.243255,0.0039 0,-0.131665 -0.212261,-0.292666 -0.47169,-0.357779 -0.416188,-0.104456 -0.605337,-0.564063 -1.607521,-3.906065 -1.449783,-4.834617 -1.635022,-5.854094 -1.302099,-7.166191 0.144608,-0.569919 0.805741,-0.909526 2.87453,-1.476575 0.718852,-0.197035 0.866206,-0.288431 0.50678,-0.31433 -0.869795,-0.06267 2.66132,-0.826236 4.155593,-0.898599 0.78044,-0.03779 2.295471,-0.137582 3.366734,-0.221751 1.828406,-0.143658 1.974352,-0.126435 2.381865,0.281078 0.312276,0.312276 0.434113,0.352132 0.434113,0.142008 0,-0.446778 -0.37352,-0.589176 -1.922167,-0.732789 -1.407117,-0.130488 -1.400176,-0.132245 0.638638,-0.16165 1.13367,-0.01635 2.228314,-0.08995 2.432543,-0.163543 0.313916,-0.113128 0.300868,-0.05633 -0.0844,0.367406 l -0.455722,0.501223 1.874705,0.935438 c 1.532799,0.764834 5.534107,2.16936 7.095298,2.490569 0.19553,0.04023 0.456159,0.135349 0.579175,0.211378 0.148559,0.09181 0.179811,5.2e-5 0.09306,-0.27326 -0.188036,-0.592444 -0.218187,-6.748558 -0.03574,-7.2968 l 0.153497,-0.461252 0.617142,0.519291 c 0.339429,0.285609 0.902672,0.664944 1.251655,0.842965 1.175536,0.599659 4.352791,3.002006 4.646334,3.513129 0.345014,0.600739 0.595695,2.027118 0.356262,2.027118 -0.09209,0 -0.163209,0.114026 -0.158032,0.25339 0.02579,0.694351 -0.07091,0.976639 -0.288492,0.842168 -0.145642,-0.09001 -0.17898,-0.05556 -0.08827,0.09121 0.08017,0.129715 0.08429,0.429524 0.0092,0.66624 -0.08689,0.273763 -0.188459,0.346486 -0.279098,0.199829 -0.08661,-0.140132 -0.278031,0.05366 -0.488057,0.494085 -0.190058,0.398557 -0.252792,0.667315 -0.139409,0.597241 0.333354,-0.206025 0.240394,0.106533 -0.31205,1.049207 -0.285009,0.486333 -0.597978,0.834935 -0.695485,0.774673 -0.09751,-0.06026 -0.243292,-0.0028 -0.323968,0.127771 -0.0969,0.156785 -0.05833,0.182731 0.113647,0.07645 0.174616,-0.107918 0.226644,-0.06817 0.158016,0.120713 -0.05627,0.154884 -0.192897,0.262816 -0.303608,0.239848 -0.110709,-0.02297 -0.491292,0.319109 -0.845738,0.76017 -0.354446,0.44106 -0.776979,0.801928 -0.938962,0.801928 -0.191848,0 -0.286318,0.194327 -0.271001,0.557457 0.01447,0.342968 0.05918,0.420964 0.116221,0.202712 0.239636,-0.916995 0.374709,-0.163595 0.308917,1.723051 -0.09495,2.722863 -0.388587,3.313967 -3.499265,7.044237 -2.792604,3.348843 -2.947516,3.51472 -2.745029,2.939322 0.08978,-0.255106 -0.199799,-0.07035 -0.781013,0.498309 -0.508031,0.497051 -0.923689,0.927486 -0.923689,0.956518 0,0.02903 0.159636,-0.0054 0.354746,-0.07658 0.31186,-0.113728 0.306615,-0.0746 -0.04339,0.323653 -0.371563,0.42279 -0.407814,0.428466 -0.54321,0.08505 -0.07979,-0.202383 -0.151489,-0.26046 -0.159326,-0.12906 -0.0078,0.131401 -0.157594,0.382257 -0.332795,0.557457 -0.239604,0.239604 -0.252163,0.320076 -0.05068,0.324712 0.1684,0.0039 0.13597,0.08298 -0.08733,0.21304 -0.195361,0.11378 -0.533405,0.544304 -0.75121,0.956717 -0.379123,0.717868 -0.396391,0.726791 -0.404968,0.209276 z m 5.287407,-5.996892 c 0.252147,-0.321513 0.244977,-0.328683 -0.07654,-0.07654 -0.19511,0.153017 -0.354745,0.312653 -0.354745,0.354746 0,0.16684 0.166464,0.05946 0.431281,-0.27821 z M 42.537277,49.914848 C 42.224275,49.641 41.54061,49.398501 41.54061,49.561326 c 0,0.10724 0.159636,0.236698 0.354746,0.287685 0.489033,0.127798 0.742448,0.153789 0.641921,0.06584 z m 22.51791,-8.44 c 0.119336,-0.222983 0.171366,-0.405424 0.11562,-0.405424 -0.05575,0 -0.198996,0.182441 -0.318332,0.405424 -0.119337,0.222983 -0.171367,0.405423 -0.115621,0.405423 0.05575,0 0.198996,-0.18244 0.318333,-0.405423 z M 40.674862,35.473732 c -0.06736,-0.06736 -0.242199,-0.07456 -0.388531,-0.016 -0.16171,0.06471 -0.113676,0.112744 0.122471,0.122471 0.213692,0.0088 0.333419,-0.03911 0.26606,-0.106468 z m 0.916426,-0.214493 c -0.139364,-0.05623 -0.367415,-0.05623 -0.50678,0 -0.139364,0.05624 -0.02534,0.102245 0.25339,0.102245 0.278729,0 0.392755,-0.04601 0.25339,-0.102245 z m 1.013559,-0.202711 c -0.139364,-0.05624 -0.367415,-0.05624 -0.506779,0 -0.139365,0.05623 -0.02534,0.102245 0.25339,0.102245 0.278728,0 0.392754,-0.04601 0.253389,-0.102245 z m 1.01356,-0.202712 c -0.139365,-0.05624 -0.367415,-0.05624 -0.50678,0 -0.139364,0.05624 -0.02534,0.102245 0.25339,0.102245 0.278729,0 0.392754,-0.04601 0.25339,-0.102245 z"
     id="path3591"
     inkscape:connector-curvature="0" />
</svg>
