<?xml version="1.0" encoding="UTF-8" standalone="no"?>
<!-- Created with Inkscape (http://www.inkscape.org/) -->

<svg
   xmlns:dc="http://purl.org/dc/elements/1.1/"
   xmlns:cc="http://creativecommons.org/ns#"
   xmlns:rdf="http://www.w3.org/1999/02/22-rdf-syntax-ns#"
   xmlns:svg="http://www.w3.org/2000/svg"
   xmlns="http://www.w3.org/2000/svg"
   xmlns:sodipodi="http://sodipodi.sourceforge.net/DTD/sodipodi-0.dtd"
   xmlns:inkscape="http://www.inkscape.org/namespaces/inkscape"
   version="1.1"
   id="svg1128"
   width="442.66666"
   height="444"
   viewBox="0 0 442.66666 444"
   sodipodi:docname="blue3.svg"
   inkscape:version="0.92.3 (2405546, 2018-03-11)">
  <metadata
     id="metadata1134">
    <rdf:RDF>
      <cc:Work
         rdf:about="">
        <dc:format>image/svg+xml</dc:format>
        <dc:type
           rdf:resource="http://purl.org/dc/dcmitype/StillImage" />
        <dc:title></dc:title>
      </cc:Work>
    </rdf:RDF>
  </metadata>
  <defs
     id="defs1132" />
  <sodipodi:namedview
     pagecolor="#ffffff"
     bordercolor="#666666"
     borderopacity="1"
     objecttolerance="10"
     gridtolerance="10"
     guidetolerance="10"
     inkscape:pageopacity="0"
     inkscape:pageshadow="2"
     inkscape:window-width="1366"
     inkscape:window-height="705"
     id="namedview1130"
     showgrid="false"
     inkscape:zoom="0.7516991"
     inkscape:cx="221.33333"
     inkscape:cy="222"
     inkscape:window-x="-8"
     inkscape:window-y="-8"
     inkscape:window-maximized="1"
     inkscape:current-layer="svg1128" />
  <g
     id="g1712"
     transform="matrix(0.90369743,0,0,0.89284435,20.79582,24.432336)">
    <path
       sodipodi:nodetypes="aaaaaaaaaccsccssssccccscccsccscccccccsccccccccccscccccscccssscssccsc"
       inkscape:connector-curvature="0"
       id="path1703"
       d="m 4.0647615,221.80049 c 0,-73.0567 -51.6588895,-167.511218 0,-219.1701076 51.5680575,-51.5680574 145.8564885,0 218.7847385,0 72.92825,0 167.21668,-51.5680574 218.78474,0 51.65889,51.6588896 0,146.1134076 0,219.1701076 0,73.0567 51.65889,167.51121 0,219.1701 -51.56806,51.56806 -145.85649,0 -218.78474,0 -72.92825,0 -167.216681,51.56806 -218.7847385,0 -51.6588875,-51.65889 0,-146.1134 0,-219.1701 z M 103.96276,332.21358 c -0.0901,-0.45542 0.25655,-2.30448 0.77044,-4.10904 0.51387,-1.80454 1.05599,-12.38572 1.20468,-23.51375 0.22279,-16.67283 0.6182,-20.34135 2.24733,-20.84991 1.08732,-0.33941 1.53085,-0.14127 0.9856,0.44032 -1.0744,1.14606 2.61258,5.86388 4.58262,5.86388 0.66315,0 3.89313,1.84113 7.17769,4.09139 9.19763,6.30132 34.3047,17.73902 51.49155,23.45733 24.4427,8.13243 36.22042,9.52108 74.80947,8.82036 24.14654,-0.43845 35.59039,-0.12639 42.83436,1.16819 5.43666,0.97158 18.02034,2.4972 27.96372,3.39026 9.94337,0.89311 17.56311,1.94192 16.93278,2.33076 -0.63036,0.38882 9.32345,0.65998 22.11955,0.60257 24.55058,-0.11011 35.42113,-1.89583 42.37633,-6.96099 5.39231,-3.92698 5.02918,-6.69863 -0.89186,-6.80702 -3.91757,-0.0716 -4.4524,-0.32937 -2.4031,-1.15771 1.83167,-0.7404 0.62521,-1.03238 -3.95394,-0.95698 -4.98529,0.0822 -10.29459,-1.39356 -21.80443,-6.06042 -16.42587,-6.66015 -20.32537,-7.22617 -28.93781,-4.20041 -8.55031,3.00395 -14.0676,2.43126 -31.80263,-3.30109 -15.10464,-4.88217 -18.2214,-5.40874 -42.37981,-7.16005 -28.69578,-2.08026 -50.61799,-5.6344 -46.32334,-7.51021 2.06526,-0.90204 1.92819,-0.9913 -0.72524,-0.47222 -3.46082,0.67701 -15.4461,-2.02545 -23.87302,-5.38296 -3.45188,-1.3753 -6.07151,-3.76382 -8.32206,-7.58784 -3.59469,-6.10787 -14.24187,-13.99192 -22.27193,-16.49195 -2.76077,-0.85954 -8.65914,-1.65322 -13.10751,-1.76376 -7.76617,-0.19296 -8.19567,-0.38368 -10.79618,-4.79433 -4.78108,-8.10901 -3.62023,-20.89397 4.99977,-55.06463 4.78478,-18.96738 8.15195,-29.87245 9.44652,-30.59386 1.10637,-0.61653 1.70668,-1.61224 1.33399,-2.2127 -0.37267,-0.60045 0.9493,-1.49594 2.93774,-1.98997 3.20583,-0.79644 7.08285,-2.60187 20.43344,-9.51531 2.00105,-1.0362 3.34205,-2.36134 2.97997,-2.94471 -0.36208,-0.58339 0.20907,-1.77754 1.26925,-2.65367 1.06017,-0.87613 2.30486,-3.59548 2.76596,-6.04299 0.49379,-2.62097 1.40603,-4.10069 2.21946,-3.60011 0.90745,0.55846 1.05338,-0.23309 0.42549,-2.30818 -0.52556,-1.73693 -1.46586,-5.16437 -2.08952,-7.61649 -3.16681,-12.45116 -14.78962,-21.13333 -28.29117,-21.13333 -10.87992,0 -19.92939,4.55156 -31.15025,15.66752 -12.32735,12.21206 -13.17016,18.81425 -3.76361,29.48235 3.81421,4.32572 4.05383,5.09571 2.64196,8.48985 -2.62753,6.31654 -10.09864,13.00184 -20.13404,18.01639 -5.27484,2.63575 -11.221623,5.93953 -13.21507,7.34171 -1.993447,1.40219 -3.62444,2.14165 -3.62444,1.6432 0,-0.49845 -0.870675,-0.18674 -1.934838,0.6927 -1.064165,0.87942 -1.833907,1.98525 -1.710547,2.45739 0.12335,0.47213 -1.081787,3.34484 -2.678094,6.38382 -1.596316,3.03897 -2.902388,7.22693 -2.902388,9.30657 0,5.18649 8.686488,39.97004 12.173702,48.74751 2.930234,7.37553 2.900209,6.97555 3.913393,52.12523 0.213209,9.50125 -0.07659,17.73953 -0.644068,18.30723 -0.567452,0.56772 -8.025027,1.42862 -16.572389,1.91309 -14.706459,0.83358 -21.276304,2.42204 -21.276304,5.14423 0,2.07173 8.278095,2.88254 24.745848,2.42382 10.32688,-0.28765 15.598892,0.0161 15.102717,0.87047 -0.419246,0.72181 0.502328,0.20857 2.047948,-1.14057 1.54561,-1.34913 2.73645,-2.82556 2.64631,-3.28098 z"
       style="fill:#006680;fill-opacity:0.98989898;stroke-width:1.31518507" />
    <path
       inkscape:connector-curvature="0"
       id="path1705"
       d="m 334.54352,327.13839 c -10.97514,-0.97569 -26.8392,-2.85122 -35.25347,-4.16784 -15.22308,-2.38205 -68.30187,-3.56781 -67.03345,-1.49752 0.78052,1.27394 -18.03688,-0.099 -31.41019,-2.29172 -6.21925,-1.01972 -16.72054,-3.61782 -23.3362,-5.77356 -14.39691,-4.69127 -39.92365,-15.70622 -42.59928,-18.38184 -1.05095,-1.05095 -1.91082,-1.4999 -1.91082,-0.99765 0,1.68806 -7.28117,-3.73005 -11.08217,-8.24653 -2.07098,-2.46081 -4.2084,-4.20042 -4.74983,-3.8658 -0.54142,0.33461 -3.18715,-2.73644 -5.8794,-6.82457 -4.33558,-6.5835 -4.89499,-8.39101 -4.89499,-15.81619 0,-4.61078 0.64715,-8.78321 1.43811,-9.27205 0.79096,-0.48884 1.07527,-2.33448 0.63179,-4.10144 -0.76108,-3.03239 1.20613,-18.77519 2.887,-23.10349 0.42621,-1.09751 0.96533,-4.09073 1.19806,-6.6516 0.5385,-5.92569 6.21968,-24.94289 9.13637,-30.58315 1.2251,-2.36907 4.8708,-8.16842 8.10157,-12.88744 3.23077,-4.71902 5.87413,-9.39028 5.87413,-10.38057 0,-0.9903 0.74496,-2.04886 1.65547,-2.35236 1.12484,-0.37495 0.37863,-2.38221 -2.32806,-6.26237 -10.77032,-15.43968 -10.79275,-14.97006 1.30144,-27.24419 14.30216,-14.51495 28.14741,-16.13183 39.41699,-4.60322 4.55679,4.66154 7.14473,13.26341 5.49106,18.25139 -1.48583,4.48174 -10.16818,11.1957 -18.51614,14.31832 -3.52044,1.31685 -7.72394,3.32601 -9.3411,4.4648 -4.14208,2.91683 -9.06909,15.46131 -13.09198,33.33304 -1.89404,8.41427 -4.62121,19.48918 -6.06038,24.61091 -1.43918,5.12173 -2.97852,14.19072 -3.42076,20.1533 -0.75351,10.15915 -0.54892,11.38633 3.25254,19.50986 2.23114,4.76785 5.17097,9.26518 6.53294,9.99409 1.36198,0.72891 6.69769,1.32529 11.85714,1.32529 5.15945,0 11.43361,0.86007 13.94256,1.91127 5.64811,2.36643 13.4591,8.81517 12.51925,10.33587 -0.38319,0.62001 0.0768,1.61308 1.02219,2.2068 0.94539,0.59372 2.42868,2.69709 3.29621,4.67414 1.35876,3.09654 3.65911,4.238 16.60098,8.2376 18.25078,5.64028 30.45616,8.78771 34.07772,8.78771 1.48839,0 3.60413,0.89797 4.70164,1.99548 2.27973,2.27973 4.09378,2.67651 2.82093,0.61702 -0.57175,-0.92515 1.91797,-1.12515 7.57084,-0.60817 4.63252,0.42367 16.50445,1.27209 26.38207,1.88539 15.28122,0.94882 20.22921,1.8553 33.1813,6.07881 18.4699,6.02281 27.99901,7.14871 35.16437,4.15482 7.31346,-3.05574 11.78341,-2.69454 21.96712,1.77512 4.91925,2.15906 10.7067,4.61957 12.86101,5.46778 3.60933,1.4211 3.70798,1.62783 1.25629,2.63252 -3.82542,1.56762 -22.20042,1.23934 -45.23087,-0.80806 z"
       style="fill:#006680;fill-opacity:0.98989898;stroke-width:1.33031952" />
    <path
       inkscape:connector-curvature="0"
       id="path1707"
       d="m 93.311394,226.79773 c -4.131132,-16.93696 -4.301486,-18.49565 -2.484446,-22.73196 1.072942,-2.50149 3.218047,-5.86964 4.7669,-7.48477 3.359383,-3.50313 14.637502,-10.2982 15.560492,-9.37521 0.35722,0.35721 -0.22552,3.2735 -1.29496,6.48064 -2.39252,7.1749 -6.85098,26.352 -8.00529,34.43304 -0.47031,3.29254 -1.58689,8.43345 -2.481281,11.42424 l -1.626166,5.4378 z"
       style="fill:#006680;fill-opacity:0.98989898;stroke-width:1.33031952" />
  </g>
</svg>
