<?xml version="1.0" encoding="UTF-8" standalone="no"?>
<!-- Created with Inkscape (http://www.inkscape.org/) -->

<svg
   xmlns:dc="http://purl.org/dc/elements/1.1/"
   xmlns:cc="http://creativecommons.org/ns#"
   xmlns:rdf="http://www.w3.org/1999/02/22-rdf-syntax-ns#"
   xmlns:svg="http://www.w3.org/2000/svg"
   xmlns="http://www.w3.org/2000/svg"
   xmlns:sodipodi="http://sodipodi.sourceforge.net/DTD/sodipodi-0.dtd"
   xmlns:inkscape="http://www.inkscape.org/namespaces/inkscape"
   version="1.1"
   id="svg1549"
   width="442.66666"
   height="444"
   viewBox="0 0 442.66666 444"
   sodipodi:docname="blue.svg"
   inkscape:version="0.92.3 (2405546, 2018-03-11)">
  <metadata
     id="metadata1555">
    <rdf:RDF>
      <cc:Work
         rdf:about="">
        <dc:format>image/svg+xml</dc:format>
        <dc:type
           rdf:resource="http://purl.org/dc/dcmitype/StillImage" />
        <dc:title></dc:title>
      </cc:Work>
    </rdf:RDF>
  </metadata>
  <defs
     id="defs1553" />
  <sodipodi:namedview
     pagecolor="#ffffff"
     bordercolor="#666666"
     borderopacity="1"
     objecttolerance="10"
     gridtolerance="10"
     guidetolerance="10"
     inkscape:pageopacity="0"
     inkscape:pageshadow="2"
     inkscape:window-width="1366"
     inkscape:window-height="705"
     id="namedview1551"
     showgrid="false"
     inkscape:zoom="0.7516991"
     inkscape:cx="122.22025"
     inkscape:cy="222"
     inkscape:window-x="-8"
     inkscape:window-y="-8"
     inkscape:window-maximized="1"
     inkscape:current-layer="svg1549" />
  <g
     id="g2152"
     transform="matrix(0.88306163,0,0,0.89148492,27.657833,25.624824)">
    <g
       transform="translate(-1.8813605,1.8813559)"
       id="g2102">
      <path
         inkscape:connector-curvature="0"
         id="path2118"
         d="M 0,222 V 0 H 221.33333 442.66666 V 222 444 H 221.33333 0 Z"
         style="fill:#fbf4f9;stroke-width:1.33333337" />
      <path
         inkscape:connector-curvature="0"
         id="path2116"
         d="M 0,222 V 0 H 221.33333 442.66666 V 222 444 H 221.33333 0 Z m 100.45925,109.63296 c 2.07885,-4.25511 2.41465,-7.86429 2.17093,-23.33333 -0.15857,-10.0648 -0.43758,-20.39963 -0.62002,-22.9663 -0.49423,-6.95325 0.48077,-7.30937 4.56721,-1.6682 5.56044,7.67596 11.1856,11.85706 25.85868,19.22036 17.91979,8.99256 37.03235,16.31511 54.11204,20.73178 13.06541,3.37861 16.10775,3.65338 40.78524,3.6835 14.66667,0.0179 31.76667,-0.25492 38,-0.60628 7.66271,-0.43193 15.13833,0.10267 23.08153,1.65043 14.17106,2.76139 44.59509,5.89847 68.2518,7.03755 14.98276,0.72142 18.74568,0.46284 27.74812,-1.90688 13.79831,-3.63214 17.49393,-5.52582 18.02173,-9.23452 0.39908,-2.80414 0.0559,-2.99698 -4,-2.24776 -5.27808,0.97498 -18.01826,-2.7091 -32.49832,-9.39756 -11.148,-5.14936 -18.37128,-5.83259 -25.00441,-2.36511 -6.67879,3.49135 -14.77937,2.60579 -32.26712,-3.52748 -15.5537,-5.45496 -16.66944,-5.64539 -40,-6.82688 -25.35769,-1.28415 -40.2676,-3.77492 -65.08897,-10.87343 -13.5952,-3.88801 -14.56365,-4.39824 -16.88701,-8.89704 -6.55302,-12.68873 -20.2178,-20.53562 -35.77695,-20.54461 l -9.75295,-0.005 -2.88153,-5.44446 c -4.03123,-7.6167 -3.7616,-20.39392 0.77608,-36.77777 1.92949,-6.96667 5.31913,-20.70331 7.53255,-30.52585 2.21341,-9.82256 4.86357,-19.13996 5.88925,-20.70534 1.05399,-1.6086 5.084,-3.86089 9.26835,-5.17989 9.73366,-3.06827 19.432,-9.78597 22.47565,-15.56812 8.90572,-16.91852 -5.8758,-38.57032 -26.39164,-38.65818 -8.52821,-0.0365 -14.88293,2.57351 -24.74828,10.16471 C 121.45025,125.81049 118,130.98956 118,139.49863 c 0,6.36378 0.49112,7.54249 5.11607,12.27888 l 5.11607,5.23933 -2.29525,4.49157 c -4.83451,9.46066 -7.75396,12.2219 -17.83093,16.86464 -21.108315,9.72519 -28.146468,17.15372 -28.047437,29.60312 0.03219,4.04644 0.94361,9.75716 2.025382,12.6905 1.081774,2.93333 2.7847,9.85672 3.784283,15.3853 0.999581,5.52859 3.633052,14.58631 5.852155,20.12826 3.999505,9.98828 4.038365,10.33125 4.45079,39.28134 0.228834,16.0628 -0.03369,30.48326 -0.583381,32.04544 -0.930265,2.64375 -2.127245,2.87967 -17.293597,3.40843 -15.476961,0.5396 -22.294156,2.11907 -22.294156,5.16533 0,0.83114 7.780101,1.18424 21,0.95308 l 21,-0.36718 z m 230.20741,-4.33804 c -23.7504,-2.09523 -39.30698,-4.1718 -50.64277,-6.76004 -7.26711,-1.65927 -10.66271,-1.71404 -21.33333,-0.34411 -18.4368,2.36698 -49.04103,1.97118 -62.0239,-0.80214 -18.04036,-3.85367 -37.81608,-10.92072 -57.33333,-20.48863 -19.93539,-9.77289 -25.80232,-14.59568 -33.28199,-27.35877 -4.12381,-7.03676 -4.11795,-8.77075 0.13138,-38.87456 3.94747,-27.96538 10.08757,-46.846 19.07877,-58.66667 9.88351,-12.99379 10.55987,-17.90504 3.53643,-25.67915 -5.10397,-5.64949 -5.75066,-7.47737 -4.42159,-12.49773 1.12648,-4.25512 15.81365,-18.14813 21.85329,-20.67165 6.97262,-2.91336 17.93478,-2.34012 23.20814,1.21359 C 176.49995,121.12427 180,127.3227 180,135.07029 c 0,5.99283 -0.51656,7.16643 -5.04824,11.4695 -3.06216,2.90765 -8.5142,6.01166 -13.85797,7.88976 -13.36061,4.69562 -16.32015,8.98818 -20.38755,29.57045 -1.23181,6.23333 -4.4023,19.13333 -7.04553,28.66667 -5.93525,21.40662 -6.43879,32.70937 -1.90007,42.65005 4.61227,10.10176 7.54339,12.69673 12.6781,11.22412 8.57604,-2.45957 17.73329,-0.54531 27.02892,5.65023 4.53966,3.02568 9.86568,11.05738 9.86568,14.87757 0,1.17827 5.16257,3.43316 14.33333,6.26049 31.90344,9.83576 36.67547,10.7114 66.33333,12.1717 25.65106,1.26302 28.83891,1.69545 38,5.15464 21.15078,7.98645 33.32749,9.72073 42.20565,6.0112 6.96844,-2.9116 12.11808,-2.47552 21.1336,1.7896 4.40327,2.08312 10.40327,4.56142 13.33334,5.50736 7.78054,2.51184 8.45069,3.21378 3.99408,4.18368 -6.36283,1.38473 -29.01938,0.99849 -50,-0.85239 z M 94.238025,243.79479 c -1.230914,-4.1462 -2.245768,-8.6462 -2.255228,-10 -0.0095,-1.3538 -1.209461,-6.26491 -2.666666,-10.91358 -4.862747,-15.51277 -2.746387,-24.1326 7.678052,-31.2723 5.767327,-3.95004 12.095357,-6.96382 12.910467,-6.1487 0.30803,0.30803 -1.12514,6.56296 -3.18483,13.89986 -2.05968,7.33688 -4.75937,19.93232 -5.99931,27.98986 -1.239945,8.05754 -2.702195,16.75007 -3.24945,19.31674 l -0.995008,4.66666 z"
         style="fill:#d9b5c9;stroke-width:1.33333337" />
      <path
         inkscape:connector-curvature="0"
         id="path2114"
         d="M 0,222 V 0 H 221.33333 442.66666 V 222 444 H 221.33333 0 Z m 99.049496,112.98031 c 3.772754,-4.16886 4.827514,-13.40018 3.991424,-34.93327 l -0.80427,-20.71371 7.05916,7.71447 c 8.23591,9.00048 12.70713,11.79912 34.42357,21.54657 18.96174,8.511 36.48635,14.31776 52.99566,17.56006 13.42132,2.63584 48.6253,3.02485 65.67412,0.7257 7.98978,-1.07748 11.91057,-0.86805 22,1.17508 15.64237,3.16762 46.79764,6.41911 71.61083,7.47362 17.42127,0.74036 20.42212,0.52586 30.3423,-2.16876 17.41146,-4.7295 23.1583,-11.20862 10.21398,-11.51551 -4.12062,-0.0977 -11.26193,-2.00815 -19.22294,-5.14257 -6.96667,-2.74294 -16.15239,-6.21859 -20.41271,-7.7237 l -7.74603,-2.73653 -6.9464,2.87912 c -9.75088,4.04151 -15.36975,3.6152 -32.89283,-2.49564 -16.81498,-5.86389 -18.91207,-6.19651 -50.00203,-7.93069 -21.61963,-1.20595 -34.79304,-3.70123 -60.18845,-11.40076 -8.72276,-2.64463 -11.00568,-3.88071 -11.62155,-6.29246 -1.44797,-5.67021 -8.86648,-12.83906 -17.87609,-17.27448 -7.62414,-3.75334 -10.34327,-4.39352 -18.66163,-4.39352 h -9.73712 l -2.79092,-5.76525 c -4.22967,-8.73735 -3.63076,-18.76279 2.56289,-42.90141 2.91655,-11.36667 6.3397,-25.35252 7.607,-31.0797 2.77843,-12.55614 5.3054,-15.60354 16.17746,-19.50925 9.28496,-3.33556 16.94558,-9.10515 20.0434,-15.09568 5.30617,-10.26099 0.57917,-26.17585 -9.97864,-33.59617 -8.08228,-5.68044 -20.95638,-6.40444 -31.10051,-1.749 -7.89604,3.62373 -21.51723,15.38583 -24.5021,21.15793 -3.42414,6.62156 -2.48281,13.43596 2.81433,20.37341 5.21691,6.83239 5.2041,8.4542 -0.13355,16.91267 -2.32638,3.68657 -6.11492,6.2862 -16.9526,11.63259 -15.532262,7.66228 -22.468661,13.99441 -25.156231,22.96472 -1.456074,4.85993 -1.289034,6.71964 1.414633,15.74956 1.686113,5.6314 3.824069,14.47529 4.751015,19.65308 0.926944,5.1778 3.388852,13.2778 5.470904,18 3.283349,7.44682 3.803782,10.35466 3.922984,21.91917 0.07559,7.33333 0.314257,20.53333 0.530373,29.33333 0.216116,8.8 -0.02973,17.59104 -0.546321,19.53564 l -0.939259,3.53564 -17.018416,0.46436 c -16.389074,0.44719 -21.424933,1.69159 -21.424933,5.29428 0,0.64355 9.207008,1.17008 20.460016,1.17008 17.857656,0 20.730869,-0.29929 22.589481,-2.35302 z M 332.66666,327.19075 C 320.93333,326.18553 303.53333,324.01863 294,322.3754 c -18.73854,-3.22988 -20.4211,-3.28177 -55.3958,-1.70849 -24.88306,1.11932 -36.715,0.1092 -55.08692,-4.70286 -19.30243,-5.05578 -53.89483,-20.3974 -64.0544,-28.4079 -2.86208,-2.25666 -7.82009,-8.14743 -11.01781,-13.09059 l -5.81402,-8.98757 2.00583,-18.09146 c 3.91037,-35.26938 11.04252,-60.99836 19.90804,-71.81756 2.60559,-3.17977 5.95389,-8.53141 7.44068,-11.89254 3.16792,-7.16162 2.42014,-10.31847 -3.85141,-16.25922 C 125.52627,144.94685 124,142.19031 124,139.9506 c 0,-7.27872 14.34012,-21.87587 24.92129,-25.36797 6.56291,-2.16595 16.56385,-0.93887 21.60521,2.6509 5.03232,3.58333 9.4735,11.76212 9.4735,17.44623 0,9.25521 -5.86648,14.815 -21.56015,20.433 -7.87869,2.8204 -8.65461,3.47941 -12.10789,10.28371 -2.02936,3.99861 -5.11459,13.8702 -6.85607,21.93686 C 137.73442,195.4 134.39016,209.2 132.04419,218 c -4.90758,18.40892 -4.95525,28.61709 -0.17859,38.24767 5.17128,10.42622 6.90232,11.7457 13.47257,10.26946 11.7696,-2.64445 27.21811,3.77083 33.36763,13.85652 1.43966,2.36116 2.61981,5.32187 2.62254,6.57935 0.005,2.59767 14.75435,7.64335 42.00499,14.37035 13.33916,3.29285 20.32387,4.14561 42,5.12773 25.28159,1.14549 26.38684,1.31644 40,6.18687 16.75677,5.99512 28.84848,7.38129 36.49997,4.18429 7.51851,-3.14143 10.82632,-2.72997 24.16437,3.00577 6.60128,2.83875 13.20232,5.63084 14.66899,6.20464 2.20688,0.8634 1.74709,1.22464 -2.66667,2.09515 -7.42633,1.46464 -20.4395,1.19567 -45.33333,-0.93705 z M 94.993572,244.66667 c -0.792611,-2.93334 -1.832376,-7.43334 -2.310589,-10 -0.478212,-2.56667 -2.098183,-8.48202 -3.599932,-13.14523 -3.880206,-12.04873 -2.886083,-18.89587 3.726685,-25.66796 4.556447,-4.66623 16.007214,-11.60051 17.073804,-10.33944 0.22606,0.26728 -1.25284,6.24403 -3.28645,13.28167 -2.0336,7.03764 -4.69297,19.03764 -5.9097,26.66666 -1.216737,7.62903 -2.67135,16.27096 -3.232477,19.2043 L 96.434684,250 Z"
         style="fill:#c79fb5;stroke-width:1.33333337" />
      <path
         inkscape:connector-curvature="0"
         id="path2112"
         d="M 0,222 V 0 H 221.33333 442.66666 V 222 444 H 221.33333 0 Z m 98.994163,113 c 4.125877,-4.64148 5.047667,-12.30369 4.127747,-34.31123 l -0.89081,-21.31124 7.83847,8.4665 c 6.9443,7.50066 9.97311,9.49816 26.55112,17.51045 21.19344,10.24296 41.3436,17.37557 58.79919,20.81332 13.28086,2.61557 51.4915,3.12416 67.51626,0.89865 7.06794,-0.98158 11.3782,-0.74664 20.61703,1.12382 15.28093,3.0937 46.87124,6.371 71.26066,7.39285 21.58516,0.90436 36.14851,-1.35253 44.33735,-6.87099 6.72575,-4.53249 5.48844,-6.59634 -4.48452,-7.48029 -5.65967,-0.50164 -12.8302,-2.523 -20.66667,-5.82589 -22.31432,-9.405 -22.95662,-9.55111 -29.90588,-6.80258 -11.14689,4.40876 -16.51239,4.09598 -34.09411,-1.98757 -16.82058,-5.82019 -29.95919,-7.80472 -52.31211,-7.90157 -11.92724,-0.0517 -34.02921,-4.2809 -55.46216,-10.6127 -7.20919,-2.12976 -13.22699,-4.07388 -13.37288,-4.32025 -0.14589,-0.24637 -1.27121,-2.66324 -2.50071,-5.37081 -5.10756,-11.24783 -23.39321,-20.65111 -37.83009,-19.45388 -7.03164,0.58312 -7.12313,0.54249 -9.42232,-4.18388 -3.85537,-7.92538 -3.77904,-21.5007 0.20304,-36.10604 1.89944,-6.96667 5.22161,-20.70408 7.38263,-30.52758 3.7753,-17.16173 6.31804,-23.65385 9.72562,-24.8316 18.7102,-6.46664 25.04192,-10.89156 29.27356,-20.45774 7.43316,-16.80371 -8.05821,-36.72895 -28.40682,-36.53728 -9.90267,0.0933 -17.50898,3.80927 -28.60021,13.97237 -13.67445,12.53015 -15.37993,21.18701 -6.27063,31.82917 l 4.76388,5.56554 -3.712,7.08982 c -4.0865,7.80511 -5.95404,9.33358 -16.86821,13.80551 -9.189953,3.76545 -18.535893,10.44991 -23.247593,16.62727 -5.217241,6.84016 -5.631696,13.3427 -1.684137,26.42312 1.832713,6.07277 3.96908,14.45108 4.747481,18.61846 0.778402,4.16739 2.985958,11.36739 4.90568,16 3.334475,8.04664 3.51778,9.7808 4.103168,38.8178 0.380888,18.89315 0.10932,31.33556 -0.717638,32.88076 -1.17077,2.1876 -3.100639,2.49547 -16.083759,2.56582 -14.61817,0.0792 -21.129348,1.58588 -22.293114,5.15856 -0.418504,1.28477 4.170666,1.66666 20.028226,1.66666 17.912516,0 20.839188,-0.30156 22.645259,-2.33333 z M 343.33333,327.86181 C 317.77666,325.74388 291.26845,322.5148 282,320.39053 c -8.02983,-1.84037 -11.56792,-1.92237 -25.33334,-0.5871 -44.10585,4.27832 -70.473,-0.0615 -111.23168,-18.3076 -24.26512,-10.86262 -30.89738,-16.06135 -39.25002,-30.76644 -3.49735,-6.1572 -3.49758,-6.44215 -0.0272,-33.39606 3.79798,-29.49841 10.58387,-52.46033 18.04176,-61.04922 4.24959,-4.89404 10.46715,-16.47244 10.46715,-19.49203 0,-1.07977 -2.4,-4.73621 -5.33333,-8.12541 C 126.4,145.27747 124,141.22323 124,139.65724 c 0,-6.2998 14.5682,-21.15114 24.42342,-24.89809 10.26171,-3.9015 22.70248,0.33264 28.11526,9.56883 8.0633,13.75901 2.3318,23.40233 -18.27436,30.74675 -7.44234,2.6526 -8.61667,3.59792 -11.80688,9.50447 -1.94842,3.60739 -4.87051,12.85629 -6.49354,20.55312 -1.62302,7.69681 -4.68957,20.04075 -6.81455,27.43095 -4.55839,15.8531 -6.05327,29.91608 -3.98787,37.51562 0.80902,2.97672 3.35557,8.2575 5.65901,11.73506 3.86288,5.83189 4.50585,6.25304 8.2806,5.42397 16.10169,-3.53653 34.35528,5.40099 37.60185,18.41103 0.80594,3.2296 2.31182,4.09658 13.10382,7.5443 33.22238,10.61352 49.43548,13.37042 79.03418,13.43902 13.46619,0.0312 15.99816,0.4523 27.33334,4.54582 6.87081,2.48128 17.04662,5.52022 22.61292,6.75316 9.83706,2.17896 10.33994,2.16463 17.95378,-0.51142 10.27565,-3.61159 11.17185,-3.54095 23.0912,1.82005 5.59229,2.51527 11.81781,4.98032 13.83448,5.47788 5.44009,1.34221 4.45769,2.81136 -2.51943,3.76768 -7.29122,0.99937 -13.75957,0.87257 -31.8139,-0.62363 z M 95.109399,244.66667 c -0.73057,-2.93334 -2.705744,-10.73334 -4.389276,-17.33334 -4.212455,-16.51421 -4.606507,-20.11253 -2.70519,-24.70272 1.961476,-4.73542 8.720547,-10.92453 15.969017,-14.62242 6.65661,-3.39595 6.87981,-3.36686 5.33534,0.69542 -2.7787,7.30852 -7.09916,26.168 -9.918631,43.29639 -2.825938,17.16763 -3.024378,17.75337 -4.29126,12.66667 z"
         style="fill:#b48ca2;stroke-width:1.33333337" />
      <path
         inkscape:connector-curvature="0"
         id="path2110"
         d="M 0,222 V 0 H 221.33333 442.66666 V 222 444 H 221.33333 0 Z m 100.96576,111 c 2.06926,-3.78733 2.32049,-7.42937 1.99386,-28.90533 l -0.37371,-24.572 4.37371,5.43689 c 2.40554,2.99029 6.28777,7.02079 8.62718,8.95667 6.1999,5.13042 37.62554,19.89588 53.79394,25.27528 25.13246,8.36181 33.33988,9.53136 63.28592,9.01814 14.66667,-0.25136 31.16667,-0.53372 36.66667,-0.62748 5.5,-0.0937 15.77581,0.86616 22.83515,2.13312 15.84372,2.84354 54.7319,6.33639 71.89477,6.45743 28.08078,0.19805 54.87258,-13.16836 30.34172,-15.13747 -6.16606,-0.49494 -12.92008,-2.55646 -24.65416,-7.52514 -8.88886,-3.7639 -17.65362,-6.84344 -19.47726,-6.84344 -1.82362,0 -5.9312,1.18682 -9.12796,2.63738 -8.42422,3.82259 -12.73601,3.38323 -32.60442,-3.3223 -17.67599,-5.9656 -18.05675,-6.02934 -43.51992,-7.28466 -26.50544,-1.3067 -37.99317,-3.33769 -64.63856,-11.42784 -9.89759,-3.00513 -11.16392,-3.77432 -13.16855,-7.99877 -5.5571,-11.71073 -22.59056,-21.06537 -37.1532,-20.40425 L 142,259.23217 l -3,-5.8986 c -4.24024,-8.33718 -3.9362,-18.4953 1.11745,-37.33357 2.26237,-8.43333 5.53785,-21.76747 7.27884,-29.63141 4.31213,-19.47766 5.43423,-21.34179 14.93075,-24.80439 17.57556,-6.40837 24.95276,-14.37901 24.8949,-26.89753 -0.0872,-18.86316 -17.90452,-32.60821 -36.36073,-28.05019 -11.57504,2.85863 -29.075,16.89547 -33.16146,26.59906 -2.6396,6.26793 -1.25852,11.92891 4.57203,18.74059 l 4.89902,5.72342 -3.77785,7.2156 c -3.5776,6.83312 -4.44262,7.53252 -16.31924,13.19468 -6.89776,3.28849 -15.29973,8.51357 -18.671042,11.61129 -10.135193,9.31268 -11.885145,16.96816 -7.07476,30.94979 1.463683,4.25426 3.328967,11.6982 4.145075,16.54206 0.816108,4.84387 3.199088,13.15376 5.29551,18.46644 3.673743,9.30986 3.83633,10.70486 4.492871,38.54898 0.374655,15.88926 0.351409,30.20353 -0.05165,31.80948 -0.682819,2.72057 -1.758242,2.97846 -15.753492,3.77778 -16.14692,0.92222 -23.45622,2.68848 -23.45622,5.66812 0,1.52584 3.915885,1.86956 21.299093,1.86956 h 21.299093 z m 236.36757,-5.81273 c -12.1,-0.99036 -30.4,-3.12736 -40.66667,-4.74887 C 286.4,320.81688 273.5,319.56301 268,319.65201 c -68.51216,1.10868 -63.50655,1.28587 -79.33334,-2.80818 -29.19348,-7.55174 -62.6503,-23.05288 -72.7964,-33.72788 -13.42011,-14.11968 -13.83389,-16.31252 -9.14222,-48.44928 4.52492,-30.9946 10.23064,-49.46034 18.22395,-58.9792 5.04115,-6.00327 9.6363,-14.83091 9.68539,-18.60638 0.0161,-1.23873 -2.37072,-5.02522 -5.30405,-8.41442 -6.29647,-7.275 -6.65254,-10.87807 -1.66667,-16.8647 13.74107,-16.49916 27.05928,-21.93013 39.22251,-15.99435 7.84361,3.82777 12.44416,10.84726 12.44416,18.98727 0,4.90356 -0.74855,7.12591 -3.33333,9.89634 -3.82791,4.10282 -13.32896,9.21349 -19.68223,10.58718 -7.91424,1.71119 -12.78625,10.74738 -16.99945,31.52912 -1.24802,6.15586 -4.30519,18.64475 -6.79372,27.75308 -5.61392,20.54766 -5.9549,31.04763 -1.32405,40.77272 5.62127,11.80504 5.6167,11.80219 19.05923,11.90694 10.84476,0.0845 12.54846,0.46185 18.50887,4.09956 4.95308,3.0229 7.47448,5.80158 10.27069,11.31868 l 3.706,7.31221 11.62734,3.70485 c 28.9149,9.21326 42.18374,11.66748 69.62732,12.87836 25.45666,1.1232 26.33436,1.25983 42,6.53768 21.48584,7.23871 26.23297,7.82244 35.37073,4.3494 4.01276,-1.52514 8.44089,-2.7733 9.84028,-2.77368 1.39938,-3.6e-4 7.69938,2.32446 14,5.16627 6.30061,2.84181 12.65565,5.64567 14.12232,6.23079 2.08042,0.82998 1.20106,1.28057 -4,2.0496 -8.7124,1.28821 -11.88366,1.21088 -38,-0.92672 z M 94.755613,242 c -0.942329,-4.4 -3.20591,-13.2964 -5.030182,-19.76977 -3.801746,-13.49038 -3.41758,-18.6813 1.845446,-24.93604 3.069558,-3.64796 15.549483,-11.91527 18.036643,-11.94835 0.51747,-0.007 0.0306,2.53749 -1.08203,5.65416 -3.38003,9.46843 -7.42701,27.4946 -9.803402,43.66667 L 96.468939,250 Z"
         style="fill:#a0718a;stroke-width:1.33333337" />
      <path
         sodipodi:nodetypes="ssssssssscsccssscscccssscssccccsssscscccscssscscscccscsscsssscsccsscsccccssscsscccsscsccscs"
         inkscape:connector-curvature="0"
         id="path2108"
         d="M 0,222 C 0,148 -52.325902,52.325902 0,0 c 52.168766,-52.168766 147.55555,0 221.33333,0 73.77778,0 169.16456,-52.168766 221.33333,0 52.3259,52.325902 0,148 0,222 0,74 52.3259,169.6741 0,222 -52.16877,52.16877 -147.55555,0 -221.33333,0 C 147.55555,444 52.168766,496.16877 0,444 -52.325902,391.6741 0,296 0,222 Z m 97.871465,114.87349 c 5.298475,-3.47169 6.600575,-11.74382 5.517095,-35.04972 l -0.96741,-20.80929 7.78942,7.88464 c 8.59359,8.69861 19.80708,15.07007 43.83911,24.9092 34.77045,14.23561 63.11133,18.06681 104.06533,14.06787 12.50717,-1.22126 16.51165,-1.11822 24.73728,0.63656 23.55588,5.02517 80.41612,9.62764 93.37232,7.55786 17.4794,-2.79234 27.77538,-7.27816 27.77538,-12.10134 0,-2.74099 -0.88329,-3.07967 -6.98514,-2.67828 -5.13428,0.33772 -16.82048,-3.2714 -30.41923,-9.3946 -13.20161,-5.94436 -17.07111,-6.31727 -26.59563,-2.56306 C 336.27903,310.8 331.99078,312 330.47056,312 c -1.52023,0 -10.94802,-2.7766 -20.95064,-6.17023 -18.0707,-6.13092 -18.33952,-6.17684 -42.18659,-7.20626 -26.34243,-1.13716 -40.60215,-3.65104 -68.87649,-12.14242 -7.37514,-2.2149 -9.14792,-3.32106 -10.48122,-6.53994 -2.24738,-5.42567 -12.17013,-14.19994 -20.38285,-18.0237 -5.32107,-2.47744 -9.182,-3.22776 -16.66081,-3.23776 l -9.7347,-0.0133 -2.13981,-5 c -4.03225,-9.42201 -3.74072,-17.24509 1.38591,-37.18913 2.6123,-10.16264 6.04504,-24.47754 7.62829,-31.81087 3.95177,-18.30388 4.93979,-19.89784 14.12429,-22.78672 20.67291,-6.50243 30.32634,-21.78975 23.73648,-37.58944 -2.43016,-5.8265 -8.95924,-12.97604 -14.59909,-15.98646 -6.17556,-3.29637 -21.31556,-2.95482 -28.09531,0.63381 -8.72278,4.61712 -20.24979,14.70525 -23.87929,20.89852 -5.26323,8.98102 -4.38259,14.5904 3.6186,23.04922 l 3.99068,4.21894 -3.04391,6.09482 c -3.89607,7.80114 -6.881,10.47056 -15.9241,14.241 -25.333675,10.56264 -33.868313,24.6458 -26.771599,44.1763 1.408955,3.8775 2.962096,9.75001 3.451426,13.05001 1.225626,8.26552 4.534356,19.7434 7.302844,25.33333 1.888457,3.81304 2.451022,9.9104 3.075461,33.33334 0.420327,15.76666 0.434253,30.31666 0.03095,32.33333 -0.728816,3.64432 -0.800312,3.66667 -11.729196,3.66667 -13.919065,0 -24.861217,2.02582 -27.085543,5.0146 -2.34341,3.1488 -0.283205,3.54592 21.222308,4.09082 13.719123,0.34762 17.951653,0.0224 20.374817,-1.56526 z M 327.33333,325.96996 c -23.55561,-2.16347 -38.52591,-4.23207 -47.53029,-6.56777 -5.9913,-1.55412 -9.67875,-1.55052 -24.42972,0.0239 -9.55532,1.01986 -22.17332,1.86266 -28.03999,1.87292 -21.90561,0.0383 -48.10941,-5.8059 -72.50337,-16.17032 -29.85129,-12.6831 -40.18338,-19.92825 -47.44454,-33.2694 -3.51505,-6.45829 -3.68771,-7.52281 -2.87065,-17.69876 2.5515,-31.77752 11.63894,-67.1849 19.80522,-77.16706 5.91026,-7.22448 10.34667,-15.93014 10.34667,-20.30344 0,-2.14796 -2.03566,-5.62467 -5.48328,-9.3649 -4.48606,-4.8668 -5.32489,-6.57976 -4.61236,-9.41873 1.17429,-4.67873 11.93951,-15.97843 19.37283,-20.33464 12.92389,-7.57391 27.82053,-3.13845 33.63943,10.01611 4.95352,11.19826 -9e-4,19.37565 -15.27888,25.21814 -5.30075,2.02708 -10.75158,4.62499 -12.11295,5.77315 -4.26305,3.59539 -7.52493,11.68429 -10.94241,27.13532 -1.81576,8.20939 -5.08962,21.58172 -7.27521,29.71631 -5.23353,19.4786 -5.40494,31.84048 -0.57586,41.53118 4.82895,9.69043 5.98652,10.34 18.45605,10.35682 7.9162,0.0107 12.17718,0.69226 15.90658,2.54441 7.04538,3.499 12.56565,9.36033 14.32194,15.20687 1.40268,4.66938 2.02107,5.09906 11.69922,8.12894 33.81693,10.58691 42.27896,12.20683 70.56244,13.50808 26.4572,1.21724 27.33178,1.35128 42.66666,6.53948 21.324,7.21448 27.24708,7.8507 37.88401,4.06924 l 8.43846,-2.99989 12.82864,5.50872 c 7.05576,3.0298 13.54116,5.50873 14.41202,5.50873 0.87086,0 1.21256,0.6 0.75934,1.33334 -1.11642,1.8064 -28.78207,1.43573 -52,-0.69671 z M 94.851439,241.33333 C 93.970936,237.3 91.695524,228.25299 89.794969,221.22885 l -3.455553,-12.77114 2.735947,-6.18507 c 2.084432,-4.7122 4.489462,-7.30677 10.099576,-10.89552 8.200101,-5.24553 10.918421,-5.92355 9.530581,-2.37712 -2.82674,7.22331 -7.85038,29.24683 -9.897324,43.38963 l -2.355841,16.27704 z"
         style="fill:#944972;stroke-width:1.33333337" />
      <path
         inkscape:connector-curvature="0"
         id="path2106"
         d="m 61.692042,339.07601 c 1.297289,-0.33805 3.097289,-0.31582 4,0.0495 0.902709,0.36524 -0.15871,0.64183 -2.35871,0.61465 -2.2,-0.0272 -2.938581,-0.326 -1.64129,-0.66405 z m 21.110837,-0.32021 c 8.947128,-0.47836 14.934348,-1.42057 16.310509,-2.56679 2.430372,-2.02426 4.813202,-9.4448 4.984442,-15.52234 0.062,-2.2 0.42783,-3.2125 0.81299,-2.24999 1.41465,3.53516 -1.14376,13.65555 -4.44343,17.57699 L 97.096283,340 82.881473,339.7558 68.666666,339.51161 Z m 278.197111,-1.05367 c 2.38334,-0.29576 6.28334,-0.29576 8.66667,0 2.38333,0.29578 0.43333,0.53778 -4.33333,0.53778 -4.76667,0 -6.71667,-0.242 -4.33334,-0.53778 z m 17.66667,-0.25512 -4.66667,-0.86862 5.84467,-1.00008 c 3.21457,-0.55004 6.16457,-0.68019 6.55556,-0.2892 0.39099,0.391 -0.32452,0.71089 -1.59003,0.71089 -1.2655,0 -1.93009,0.6 -1.47686,1.33333 0.45322,0.73334 0.63864,1.25435 0.41202,1.15782 -0.22661,-0.0965 -2.51202,-0.5664 -5.07869,-1.04414 z M 330.66666,336 322,335.12693 l 7.33333,-0.0559 c 4.03333,-0.0307 11.83333,0.3687 17.33333,0.88761 l 10,0.94347 -8.66667,-0.0145 c -4.76666,-0.008 -12.56666,-0.40742 -17.33333,-0.88761 z m 59.40473,-1.20304 c -2.41406,-0.94471 -2.37158,-1.07411 0.60844,-1.8534 1.76204,-0.46079 3.47991,-0.56159 3.8175,-0.22401 0.33757,0.33758 -0.1216,0.61378 -1.02047,0.61378 -0.89884,0 -1.26343,0.6 -0.8102,1.33334 0.93392,1.5111 0.93329,1.51113 -2.59527,0.13026 z M 55.142857,332.66667 c 1.099999,-1.1 2.757534,-2 3.68341,-2 0.944832,0 0.547877,0.85888 -0.904761,1.9576 -3.396128,2.56869 -5.334528,2.59828 -2.778649,0.0424 z m 243.389003,0.26813 c 0.62098,-0.62097 3.15535,-0.9204 5.63192,-0.66537 4.39203,0.45225 4.36424,0.48005 -1.12904,1.12904 -3.09756,0.36596 -5.12385,0.1573 -4.50288,-0.46367 z m 13.8198,0.77509 c 2.02675,-0.30648 5.02675,-0.29828 6.66667,0.0181 1.63992,0.31648 -0.0183,0.56722 -3.685,0.55722 -3.66667,-0.0107 -5.00841,-0.26896 -2.98167,-0.57542 z m -31.01833,-3.78349 c -4.76667,-0.96565 -13.16667,-1.52411 -18.66667,-1.24099 l -10,0.51475 10,-1.30825 c 8.34351,-1.09154 11.9878,-0.88174 22,1.26654 6.6,1.41615 10.5,2.56331 8.66667,2.54924 -1.83333,-0.014 -7.23333,-0.81564 -12,-1.78129 z m 115.1556,1.14021 c 0.33002,-0.33001 1.55492,-0.74018 2.72197,-0.91146 1.16705,-0.1713 3.03179,-1.47627 4.14384,-2.89996 1.88993,-2.41955 1.92445,-2.36004 0.52884,0.91148 -1.02916,2.41249 -2.50317,3.5 -4.74389,3.5 -1.78795,0 -2.98079,-0.27003 -2.65076,-0.60006 z M 63.999999,329.20563 c 1.833333,-0.5169 9.183333,-0.99963 16.333333,-1.07272 8.177088,-0.0836 13,-0.65676 13,-1.54494 0,-0.77661 -0.75,-1.03212 -1.666667,-0.56778 -0.916666,0.46433 -0.649834,0.008 0.59296,-1.0144 1.451898,-1.19426 2.457887,-4.44675 2.814259,-9.09888 0.336632,-4.39446 0.443719,-3.43151 0.272448,2.4499 -0.1552,5.32959 -0.521617,9.91006 -0.814259,10.17883 -0.292641,0.26879 -8.032074,0.74095 -17.198741,1.04924 -9.166666,0.30831 -15.166666,0.13764 -13.333333,-0.37925 z m 143.333331,0.8307 c -0.73333,-0.23089 -5.72195,-1.1449 -11.0858,-2.03116 -5.36385,-0.88624 -9.50085,-1.86297 -9.19332,-2.1705 0.85049,-0.85048 20.09935,2.48922 21.54579,3.73824 1.29576,1.11888 1.07344,1.20022 -1.26667,0.46342 z m 13,-0.3584 c 4.95,-0.25654 13.05,-0.25654 18,0 4.95,0.25655 0.9,0.46644 -9,0.46644 -9.9,0 -13.95,-0.20989 -9,-0.46644 z m 130.33333,-2.49962 c 7.53657,-0.95444 27.639,-1.10687 26.20908,-0.19872 -0.84833,0.53877 -7.84241,0.89886 -15.54241,0.80022 -7.7,-0.0987 -12.5,-0.36933 -10.66667,-0.6015 z m -27.33333,-1.84498 -8,-0.88504 6.66667,-0.0683 c 3.66666,-0.0376 10.56666,0.37008 15.33333,0.90588 l 8.66666,0.97417 -7.33333,-0.0208 c -4.03333,-0.012 -10.93333,-0.41911 -15.33333,-0.90588 z M 174,322.93775 c -8.66148,-2.31487 -9.41907,-2.6298 -8.51095,-3.53792 0.33009,-0.33008 5.08009,0.82113 10.55556,2.55826 11.29704,3.58408 10.00917,4.20115 -2.04461,0.97966 z M 370.66666,324 c -1.1,-0.71088 -1.4,-1.29249 -0.66667,-1.29249 0.73334,0 2.23334,0.58161 3.33334,1.29249 1.1,0.71088 1.4,1.29249 0.66666,1.29249 -0.73333,0 -2.23333,-0.58161 -3.33333,-1.29249 z m -64.33333,-0.94097 c 1.65,-0.31782 4.35,-0.31782 6,0 1.65,0.3178 0.3,0.57782 -3,0.57782 -3.3,0 -4.65,-0.26002 -3,-0.57782 z m 56.86625,-0.0364 c 0.42751,-0.4275 0.0815,-1.61562 -0.76887,-2.64027 -1.31026,-1.57877 -1.00252,-1.61529 2.0172,-0.23943 3.67327,1.67366 3.69307,2.81766 0.058,3.35118 -1.14596,0.16818 -1.7338,-0.044 -1.3063,-0.47148 z m 40.39976,-0.8102 c -0.37728,-0.98318 -0.21647,-2.54723 0.35735,-3.4757 0.66709,-1.07937 1.0433,-0.43477 1.0433,1.78759 0,3.87927 -0.38278,4.34061 -1.40065,1.68811 z m -107.91713,-0.48878 c 1.65855,-0.31892 4.05855,-0.30681 5.33333,0.0269 1.27479,0.33372 -0.0823,0.59466 -3.01554,0.57986 -2.93334,-0.0148 -3.97634,-0.28785 -2.31779,-0.60677 z M 217.44444,320.8518 C 217.75,320.58695 226.1,320.06655 236,319.69535 c 10.93706,-0.4101 15.1225,-0.27288 10.66666,0.34966 -7.50225,1.0482 -30.22449,1.67552 -29.22222,0.80679 z m 59.88889,-2.18513 c -5.5,-1.32454 -8.65861,-2.4664 -7.01913,-2.53746 2.87681,-0.12466 12.12561,1.79696 19.01913,3.95168 6.51552,2.03658 -1.68305,1.07035 -12,-1.41422 z m 45.33333,1.32672 c -2.00014,-0.64454 0.13294,-0.78338 5.33334,-0.34715 4.76666,0.39985 8.91666,0.94301 9.22222,1.20704 1.07607,0.92983 -11.26386,0.20083 -14.55556,-0.85989 z m 66,0.0151 c -1.83525,-0.78281 -0.32068,-1.06538 4.85784,-0.90629 4.13848,0.12707 7.25307,0.68116 6.92131,1.23116 -0.79756,1.32223 -8.40986,1.11228 -11.77915,-0.32487 z m -182.31778,-0.95148 c 1.65854,-0.31892 4.05854,-0.30681 5.33333,0.0269 1.27479,0.33372 -0.0823,0.59466 -3.01555,0.57986 -2.93333,-0.0148 -3.97633,-0.28785 -2.31778,-0.60677 z M 156.87526,317 c 0.3385,-0.55 -0.02,-1.075 -0.79657,-1.16667 -2.60844,-0.30788 -3.39893,-0.58722 -6.43959,-2.27557 -1.66514,-0.92459 -3.76514,-1.26531 -4.66666,-0.75715 -1.19478,0.67347 -1.24867,0.49855 -0.19883,-0.64529 1.092,-1.18975 3.67144,-0.60739 10.66667,2.40824 7.26808,3.13324 8.33421,3.92004 5.02296,3.70695 C 158.15136,318.12173 156.53677,317.55 156.87526,317 Z m 31.26467,-0.58613 c -5.95075,-1.40795 -7.9648,-2.37326 -6.66667,-3.19523 2.27371,-1.43973 4.68878,-1.59989 3.29664,-0.21864 -0.55433,0.55 3.09567,1.98304 8.11111,3.18453 5.01544,1.2015 7.91899,2.19855 6.45232,2.21566 -1.46667,0.0171 -6.50369,-0.87674 -11.1934,-1.98632 z m 70.1934,1.31182 c 1.65,-0.31781 4.35,-0.31781 6,0 1.65,0.3178 0.3,0.57783 -3,0.57783 -3.3,0 -4.65,-0.26003 -3,-0.57783 z m 45.55139,-1.19793 c -0.97632,-1.17639 -3.233,-2.69317 -5.01484,-3.37063 -1.78184,-0.67746 -2.99612,-1.47533 -2.69839,-1.77306 0.29772,-0.29774 5.63093,1.22281 11.85159,3.37898 6.22064,2.15618 9.81025,3.60211 7.97692,3.2132 -1.83334,-0.38892 -5.07663,-1.08633 -7.20732,-1.54981 -2.75356,-0.59897 -3.59846,-0.39688 -2.92131,0.69876 1.40673,2.27616 0.0628,1.872 -1.98665,-0.59744 z m 39.53611,0.66397 c 0.89506,-1.44821 4.18612,-1.57342 5.03919,-0.19173 0.33959,0.55 -0.82104,1.08628 -2.57915,1.19173 -1.7581,0.10547 -2.86513,-0.34454 -2.46004,-1 z m 11.9125,0.1416 c -1.75832,-0.75557 -1.98542,-1.17086 -0.66667,-1.2192 1.1,-0.0403 2.9,0.50832 4,1.2192 2.43729,1.5751 0.33212,1.5751 -3.33333,0 z m 27.33333,-0.0787 c 0,-0.77662 0.6,-1.0412 1.33333,-0.58798 0.73334,0.45323 1.33334,1.08864 1.33334,1.41203 0,0.32339 -0.6,0.58797 -1.33334,0.58797 -0.73333,0 -1.33333,-0.63541 -1.33333,-1.41202 z m -278.2535,-9.92134 c 0.007,-4.4 0.2564,-6.03925 0.55315,-3.64278 0.29675,2.39646 0.29062,5.99646 -0.0136,8 -0.30424,2.00353 -0.54703,0.0428 -0.53955,-4.35722 z m 260.92017,3.77407 c -3.3,-1.75852 -4.5,-2.81191 -2.66667,-2.34088 3.43331,0.88212 12.38193,5.97989 10,5.69671 -0.73333,-0.0872 -4.03333,-1.59731 -7.33333,-3.35583 z M 170,311.0762 c -17.96847,-7.14145 -24.73371,-10.12031 -24.19883,-10.65517 0.33327,-0.33327 3.28357,0.61385 6.55623,2.10473 11.68902,5.32496 20.65225,8.18368 23.12765,7.37628 1.91767,-0.62548 2.07317,-0.50583 0.65475,0.50379 -1.52154,1.08302 -1.40016,1.44186 0.66666,1.9711 1.49674,0.38326 1.71152,0.68208 0.52687,0.733 -1.1,0.0473 -4.4,-0.86789 -7.33333,-2.03373 z m 167.33333,-2.45688 c 8.65581,-3.23767 19.20086,-4.32437 20.56376,-2.11916 0.39661,0.64175 -1.96034,0.86457 -5.23768,0.49517 -4.29135,-0.4837 -7.805,0.12254 -12.5563,2.16651 -3.62861,1.56099 -7.68624,2.80689 -9.01695,2.76869 -1.33072,-0.0383 1.4805,-1.52825 6.24717,-3.31121 z m -197.67723,0.60131 c -1.28914,-0.75072 -3.03184,-0.93978 -3.87268,-0.42011 -0.90713,0.56064 -1.16605,0.35792 -0.63674,-0.49852 0.99586,-1.61133 -3.74891,-3.57789 -5.70929,-2.36632 -0.68922,0.42597 -1.68729,0.072 -2.21794,-0.78661 -0.57505,-0.93046 -0.38897,-1.2052 0.46066,-0.68011 0.784,0.48455 1.62671,0.334 1.87267,-0.33455 0.24597,-0.66853 3.74722,0.49942 7.78055,2.59547 4.03333,2.09604 6.73333,3.82104 6,3.83333 -0.73333,0.012 -2.38808,-0.59186 -3.67723,-1.34258 z m 167.01056,-4.25078 c -13.78621,-4.93502 -17.01498,-5.57441 -32,-6.3369 L 258,297.78488 l 13.80754,-0.22577 c 8.80486,-0.14398 16.67244,0.5166 21.71476,1.82318 4.34896,1.12694 8.57828,1.63423 9.39847,1.12734 0.82019,-0.50691 1.13049,-0.33792 0.68956,0.37552 -0.72756,1.1772 4.58939,3.73352 10.66533,5.12774 5.15591,1.1831 12.909,4.53419 10.391,4.49126 -1.46666,-0.0249 -9.56666,-2.51544 -18,-5.5343 z m -25.64278,3.39718 c 2.39646,-0.29675 5.99646,-0.29063 8,0.0136 2.00353,0.30424 0.0428,0.54702 -4.35722,0.53954 -4.4,-0.008 -6.03925,-0.2564 -3.64278,-0.55314 z m -41.69055,-1.03199 c -0.73333,-0.24995 -6.03165,-1.45425 -11.77405,-2.67624 -5.74239,-1.222 -10.18058,-2.48195 -9.86263,-2.79989 0.31795,-0.31795 4.71627,0.41894 9.77405,1.63756 5.05778,1.21861 16.99596,2.6327 26.5293,3.14245 l 17.33333,0.92679 L 256,307.67757 c -8.43334,0.0616 -15.93334,-0.0927 -16.66667,-0.34254 z M 93.627015,285.26667 c -0.196079,-12.95246 -0.825439,-19.93176 -1.893683,-21 -0.88,-0.88 -1.209335,-1.6 -0.731856,-1.6 0.477479,0 -0.289344,-2.55 -1.704051,-5.66667 -1.414706,-3.11667 -2.568688,-6.56667 -2.564401,-7.66667 0.0043,-1.1 1.807093,2.43018 4.006239,7.84483 3.885173,9.56593 3.986873,10.37804 3.58994,28.66667 l -0.408506,18.82184 z m 27.050115,14.16453 c -4.22046,-2.55455 -5.73925,-2.89831 -7.33333,-1.65984 -1.7061,1.32551 -1.76067,1.24155 -0.36045,-0.55459 1.36369,-1.74926 1.11515,-2.61904 -1.43225,-5.01218 -1.69525,-1.5926 -3.58395,-2.44016 -4.19712,-1.88346 -0.61317,0.55671 -0.68324,0.2622 -0.15573,-0.65446 0.86079,-1.49579 -0.63886,-2.27614 -3.51623,-1.82968 -0.54155,0.084 -0.86426,-1.30167 -0.71714,-3.07932 0.26252,-3.17194 2.30613,-3.46224 2.43319,-0.34564 0.077,1.88764 12.94133,12.62717 19.00444,15.86541 2.34528,1.2526 3.66415,2.29953 2.93082,2.32651 -0.73333,0.0269 -3.72862,-1.40076 -6.6562,-3.17275 z m 20.6562,-0.76453 c -1.20172,-0.77662 -1.36617,-1.30066 -0.41203,-1.31292 0.87339,-0.0107 1.9588,0.57958 2.41203,1.31292 1.02307,1.65537 0.56149,1.65537 -2,0 z m 58.79611,-1.38792 c -4.69548,-1.38459 -9.04548,-2.20332 -9.66667,-1.8194 -0.6212,0.38392 -1.12944,0.13762 -1.12944,-0.54732 0,-0.68495 -1.89584,-1.62454 -4.21296,-2.08795 -2.31713,-0.46343 -3.88988,-1.16569 -3.49499,-1.56057 0.70691,-0.70691 27.58152,6.83229 28.8397,8.09046 1.05989,1.0599 -1.33306,0.57943 -10.33564,-2.07522 z m -71.70612,-4.65914 c -8.3297,-4.72156 -16.27309,-12.58897 -21.00503,-20.80414 -2.19513,-3.81099 -2.24136,-4.20507 -0.30873,-2.63179 1.25014,1.01769 3.23028,3.86769 4.4003,6.33333 1.17002,2.46564 2.69436,4.48299 3.38742,4.48299 0.69305,0 0.83198,-0.69271 0.30873,-1.53935 -0.57609,-0.93213 -0.36713,-1.17826 0.52975,-0.62396 0.81461,0.50346 1.17426,1.71502 0.79922,2.69235 -0.88002,2.29331 7.25067,9.17185 9.72096,8.22391 1.03541,-0.39732 1.53178,-0.15483 1.10305,0.53888 -1.16427,1.88382 6.57467,5.52044 8.43155,3.96206 0.83631,-0.70186 1.23078,-0.87632 0.87658,-0.38768 -0.35419,0.48864 0.0243,1.69364 0.84104,2.67778 2.42613,2.92332 -0.33831,2.03345 -9.08484,-2.92438 z m 98.38993,1.32274 c -7.61937,-1.7626 -14.09528,-3.44659 -14.39089,-3.7422 -0.2956,-0.29562 2.1263,-0.46158 5.38202,-0.36882 3.25572,0.0928 5.66495,0.58835 5.35383,1.1013 -0.83431,1.37557 8.37359,2.8355 10.42193,1.65242 1.0311,-0.59552 1.28875,-0.51266 0.62559,0.20118 -0.66253,0.71316 2.63704,1.83601 8,2.72242 7.12852,1.17824 7.95952,1.52287 3.79427,1.57354 -2.93334,0.0357 -11.56738,-1.37724 -19.18675,-3.13984 z m -123.76839,-1.60902 c -0.17555,-3.16401 -0.0455,-3.3011 0.94881,-1 1.50061,3.47292 1.57662,4.66667 0.29714,4.66667 -0.57339,0 -1.13407,-1.65 -1.24595,-3.66667 z m 97.28847,-5.34809 c -3.85,-1.12072 -7,-2.51857 -7,-3.10632 0,-0.89029 7.359,1.16933 16,4.47807 4.24947,1.62716 -1.93725,0.68421 -9,-1.37175 z m -79.79335,-3.31857 -2.53998,-3 3,2.53998 c 2.81926,2.38696 3.60699,3.46002 2.53998,3.46002 -0.25301,0 -1.60301,-1.35 -3,-3 z m 57.7945,1.39084 c -0.3639,-0.9483 -0.76571,-2.32418 -0.89291,-3.05751 -0.1272,-0.73333 -2.1536,-3.43333 -4.50309,-6 l -4.27182,-4.66667 4.99014,4.58532 c 2.74456,2.52192 5.34934,5.71715 5.7884,7.10048 0.90528,2.85228 -0.0944,4.68687 -1.11072,2.03838 z m 10.99885,-2.20478 c 0,-0.631 -1.45827,-3.29616 -3.2406,-5.92257 -2.10297,-3.09889 -2.55476,-4.51212 -1.28693,-4.0256 2.26221,0.86809 7.553,11.09544 5.73986,11.09544 -0.66678,0 -1.21233,-0.51627 -1.21233,-1.14727 z m -55.42857,-10.97706 c 0,-1.2906 0.42997,-2.08082 0.95549,-1.75603 0.52552,0.32479 1.35572,-0.0571 1.84489,-0.84857 1.14216,-1.84804 -3.29006,-6.81231 -5.08935,-5.70028 -0.76486,0.4727 -0.95676,0.18692 -0.43804,-0.65239 0.50771,-0.82148 -0.29959,-3.89028 -1.79399,-6.81956 -1.4944,-2.92927 -2.64749,-6.99984 -2.56243,-9.04572 0.11215,-2.69708 0.31933,-2.98663 0.75355,-1.05312 1.64928,7.3438 3.73531,11.97215 7.79021,17.28435 3.62381,4.74746 4.07168,5.97981 2.40553,6.61917 -1.12601,0.43209 -1.74225,1.58057 -1.36941,2.55216 0.37283,0.9716 -0.0364,1.76655 -0.90929,1.76655 -0.87294,0 -1.58716,-1.05595 -1.58716,-2.34656 z m 18.7815,1.48937 c -0.48646,-0.78711 -0.0899,-1.26624 0.8813,-1.06475 0.97117,0.20151 1.62297,-0.36204 1.44844,-1.2523 -0.18688,-0.95319 0.522,-1.2966 1.72416,-0.83528 1.12284,0.43086 1.86564,0.87905 1.65068,0.99597 -0.21496,0.11693 -1.38743,0.97192 -2.60547,1.90003 -1.53595,1.17032 -2.48568,1.24888 -3.09911,0.25633 z m 11.79463,-2.24211 c -1.56883,-1.0554 -6.66883,-2.41372 -11.33333,-3.0185 -6.28627,-0.81507 -7.16731,-1.14336 -3.40466,-1.2687 5.92474,-0.19733 16.62215,2.26423 17.7466,4.08364 1.3149,2.12752 -0.0149,2.2175 -3.00861,0.20356 z M 142,269.33333 C 141.54677,268.6 141.81136,268 142.58797,268 c 0.77661,0 1.41203,0.6 1.41203,1.33333 0,0.73334 -0.26459,1.33334 -0.58798,1.33334 -0.32338,0 -0.9588,-0.6 -1.41202,-1.33334 z m 36.48104,-1.33596 c -2.53658,-2.15104 -2.65223,-2.49534 -0.59566,-1.77341 1.95787,0.68729 2.29615,0.45507 1.45291,-0.99737 -0.6518,-1.12268 -0.60515,-1.44103 0.11467,-0.78215 0.66757,0.61112 1.22296,1.51112 1.23418,2 0.0107,0.48889 0.49664,1.63889 1.0787,2.55556 1.53725,2.421 0.31122,2.04677 -3.28474,-1.00263 z m -74.37578,-7.66404 c 0.11587,-6.97124 0.76317,-6.40726 1.53037,1.33334 0.27256,2.75 0.016,5 -0.57003,5 -0.58608,0 -1.01823,-2.85 -0.96034,-6.33334 z m 65.02594,2.1122 c -2.67784,-1.39688 -7.47784,-3.0525 -10.66667,-3.67914 l -5.79787,-1.13936 7.53799,0.18648 c 4.14589,0.10253 6.84589,0.6273 6,1.16608 -1.01379,0.6457 -0.79304,0.98653 0.64764,1 1.20208,0.0107 3.60208,1.20045 5.33333,2.64272 3.80022,3.1659 3.29775,3.13682 -3.05442,-0.17678 z m -28.19476,-5.55664 c -0.37522,-0.97778 0.1342,-1.77778 1.13202,-1.77778 0.99783,0 1.52923,0.46113 1.18091,1.02474 -0.34833,0.56362 1.32805,1.26759 3.72532,1.5644 l 4.35864,0.53966 -4.85735,0.21337 c -2.98338,0.13107 -5.12054,-0.47248 -5.53954,-1.56439 z M 138,250.66667 c -0.50059,-1.5772 -0.61015,-3.16763 -0.24348,-3.5343 0.36666,-0.36666 1.07622,0.62376 1.57681,2.20096 0.50059,1.5772 0.61015,3.16763 0.24348,3.5343 -0.36667,0.36666 -1.07623,-0.62376 -1.57681,-2.20096 z M 105.61031,248 c -0.0436,-2.56667 0.40111,-7.36667 0.9883,-10.66667 1.44215,-8.1049 1.55582,-0.4914 0.1294,8.66667 -0.84908,5.45135 -1.05284,5.81595 -1.1177,2 z m -10.170485,-3.38373 c -0.467094,-1.86104 -0.250384,-4.41104 0.481578,-5.66667 1.037596,-1.77991 1.339773,-1.03432 1.371384,3.38373 0.046,6.42838 -0.609751,7.2363 -1.852962,2.28294 z M 84.854209,243.71955 C 84.40442,242.04047 84.088489,239.46667 84.15214,238 c 0.06365,-1.46667 0.664897,-0.32611 1.336104,2.53457 1.299919,5.54027 0.744409,8.33079 -0.634035,3.18498 z m 51.545331,-5.05288 c 0,-4.03334 0.24996,-5.68334 0.55546,-3.66667 0.3055,2.01667 0.3055,5.31667 0,7.33333 -0.3055,2.01667 -0.55546,0.36667 -0.55546,-3.66666 z m -43.265727,-5.33334 c -0.461566,-3.3 -1.214304,-7.2 -1.672748,-8.66666 -0.458444,-1.46667 0.10768,-0.64147 1.258047,1.83378 1.150369,2.47524 1.903107,6.37524 1.672748,8.66667 -0.366896,3.64959 -0.522897,3.4222 -1.258047,-1.83379 z m 33.626567,-0.77777 c 0.0515,-2.87223 0.63026,-6.42223 1.28604,-7.88889 0.77867,-1.7415 0.91478,-0.1224 0.39233,4.66666 -0.96091,8.80831 -1.80779,10.43419 -1.67837,3.22223 z m -28.976569,-4.21411 c 0.118906,-4.57886 0.666188,-8.32886 1.216188,-8.33333 1.277101,-0.0107 1.159761,4.52464 -0.293028,11.32521 -1.043278,4.88362 -1.12112,4.63134 -0.92316,-2.99188 z m -14.906619,2.32522 c 0,-1.83334 0.302631,-2.58334 0.672515,-1.66667 0.369882,0.91667 0.369882,2.41667 0,3.33333 -0.369884,0.91667 -0.672515,0.16667 -0.672515,-1.66666 z m 25.253068,-2 c -0.13735,-3.4519 6.21153,-31.47787 7.36926,-32.53023 0.48593,-0.44171 0.47954,0.99689 -0.0142,3.19689 -5.60486,24.97336 -7.26506,31.59459 -7.35504,29.33334 z m 29.4297,0 c -0.0216,-1.46667 0.47645,-3.86667 1.1067,-5.33334 1.46002,-3.39762 1.46002,0.10774 0,4.66667 -0.85817,2.67964 -1.0752,2.81039 -1.1067,0.66667 z m -57.291095,-5.62392 c -2.454341,-6.39606 -3.202199,-9.83136 -3.202199,-14.70938 0,-3.25492 -0.367162,-4.14606 -1.179583,-2.86298 -0.648771,1.02461 -1.188771,1.25222 -1.2,0.50578 -0.02347,-1.55974 6.390165,-11.3095 7.439673,-11.3095 0.758476,0 -0.40566,2.29953 -2.583831,5.10388 -1.829296,2.35517 -1.135684,13.82556 1.24386,20.5699 2.146451,6.0837 1.691162,8.4592 -0.51792,2.7023 z m 8.06319,-7.37608 c -1.262635,-6.17759 -0.135654,-13.78583 2.394172,-16.16302 1.24249,-1.16753 1.25669,-0.83588 0.06352,1.48367 -1.840695,3.57836 -2.196018,10.07771 -0.875419,16.01268 0.530319,2.38333 0.651852,4.33333 0.270073,4.33333 -0.381777,0 -1.215334,-2.55 -1.852349,-5.66666 z M 129.52076,220 c 0,-1.1 0.51566,-3.2 1.1459,-4.66667 0.72229,-1.68085 1.14591,-1.9273 1.14591,-0.66666 0,1.1 -0.51566,3.2 -1.14591,4.66666 -0.72228,1.68086 -1.1459,1.92731 -1.1459,0.66667 z m 11.36274,-3.97133 c 0.43755,-2.5509 1.59796,-7.0509 2.5787,-10 1.70008,-5.11218 1.74609,-5.14591 0.98762,-0.724 -0.43754,2.55089 -1.59796,7.05089 -2.57869,10 -1.70008,5.11217 -1.74609,5.1459 -0.98763,0.724 z m -40.73856,1.30466 c -0.0514,-1.1 0.74127,-5 1.76155,-8.66666 C 102.92678,205 103.80363,202.9 103.85506,204 c 0.0514,1.1 -0.74128,5 -1.76156,8.66667 -1.02028,3.66666 -1.89713,5.76666 -1.94856,4.66666 z M 132.18595,210 c 0.009,-1.46667 0.86602,-4.76667 1.90381,-7.33333 L 135.97664,198 l -0.82796,4.66667 c -0.45539,2.56666 -1.3121,5.86666 -1.90381,7.33333 l -1.07584,2.66667 z M 93.52438,198.2302 c -1.125389,-1.35601 -0.618013,-2.3988 2.170075,-4.46009 5.299705,-3.91818 12.434385,-7.41904 13.318335,-6.5351 0.42074,0.42075 0.0296,0.76499 -0.86926,0.76499 -0.89883,0 -1.28048,0.57241 -0.8481,1.27201 1.07115,1.73315 -0.61941,8.06132 -2.15355,8.06132 -0.7089,0 -0.64727,-1.09949 0.14454,-2.57901 2.73889,-5.11765 0.81332,-7.33025 -3.03245,-3.48448 -1.06508,1.06508 -2.22244,1.65059 -2.571908,1.30111 -0.349466,-0.34947 -1.394362,0.2791 -2.321989,1.39682 C 96.432447,195.08551 96.232268,196 96.915233,196 c 0.682964,0 2.406431,0.92904 3.829927,2.06455 2.14544,1.71138 1.81367,1.68833 -1.93952,-0.13475 -4.105925,-1.99443 -4.451384,-2.00044 -3.708513,-0.0645 0.996696,2.59734 0.395718,2.7368 -1.572747,0.36494 z m 52.68395,-2.89687 c 0.44665,-2.93333 1.03249,-5.58333 1.30188,-5.88889 1.00996,-1.14557 0.25385,5.99595 -0.90581,8.55556 -0.84203,1.85853 -0.96206,1.0504 -0.39607,-2.66667 z m -9.99781,-0.66666 c 0,-1.83334 0.30264,-2.58334 0.67252,-1.66667 0.36988,0.91667 0.36988,2.41667 0,3.33333 -0.36988,0.91667 -0.67252,0.16667 -0.67252,-1.66666 z M 116,194.16764 c 0,-2.96067 4.95146,-12.92201 8.89693,-17.89887 6.81016,-8.59037 7.70485,-9.46852 5.70764,-5.6021 -0.94702,1.83333 -1.68046,3.63333 -1.62988,4 0.0506,0.36666 -0.52163,0.49213 -1.2716,0.27881 -0.74997,-0.21333 -0.99684,0.56784 -0.54861,1.73591 0.44824,1.16808 0.30203,1.80677 -0.32489,1.4193 -1.73897,-1.07474 -4.87063,3.20086 -7.49492,10.23264 C 117.31206,193.75292 116,196.04848 116,194.16764 Z m -31.949732,-3.08599 c 1.329701,-2.1292 9.283064,-7.76336 9.283064,-6.57612 0,0.20982 -2.445655,2.34688 -5.434787,4.74902 -3.259834,2.61966 -4.79988,3.35086 -3.848277,1.8271 z m 36.481322,-0.74832 c -0.52752,-0.91666 -0.46814,-1.22186 0.13196,-0.67824 0.6001,0.54364 2.04629,0.24364 3.21377,-0.66666 1.87811,-1.4644 1.91184,-1.38626 0.29275,0.67824 -2.18103,2.78102 -2.39877,2.82092 -3.63849,0.66666 z M 137.62398,188 c -0.0136,-1.83333 0.45555,-4.83333 1.04268,-6.66667 0.83651,-2.61198 1.06215,-2.75626 1.04268,-0.66666 -0.0136,1.46666 -0.48288,4.46666 -1.04268,6.66666 -0.91425,3.59296 -1.02036,3.6608 -1.04268,0.66667 z m 10.50402,-2.19288 c -0.0704,-1.57276 1.1045,-6.84997 2.61092,-11.72715 2.17478,-7.04113 3.44868,-9.13744 6.18492,-10.17774 1.89529,-0.7206 3.73358,-1.02259 4.08508,-0.6711 0.35149,0.3515 -0.9044,1.02647 -2.79086,1.49995 -3.70285,0.92935 -7.23274,8.45135 -5.43242,11.57619 0.57034,0.98997 0.4713,1.22558 -0.23854,0.56752 -0.70684,-0.65527 -1.85641,1.57224 -2.75244,5.33333 -0.84628,3.5522 -1.59628,5.17175 -1.66666,3.599 z m -52.67548,-3.33331 c 0.892463,-1.44402 12.63365,-6.83209 13.34273,-6.123 0.22981,0.2298 -2.86758,2.00775 -6.88308,3.951 -4.015497,1.94326 -6.922339,2.92066 -6.45965,2.172 z M 140.80376,174 c 0.46416,-2.2 0.9232,-4.9 1.02009,-6 0.0969,-1.1 1.01781,-2.65897 2.04652,-3.4644 1.13339,-0.88737 1.45033,-2.2008 0.80439,-3.33333 -0.8136,-1.42646 -0.67807,-1.51156 0.57244,-0.35947 1.21981,1.12383 1.26341,2.14577 0.17064,4 -0.80728,1.3698 -2.36558,4.89053 -3.4629,7.82387 -1.39385,3.72601 -1.74078,4.12784 -1.15118,1.33333 z m -25.1371,-1.45745 c 1.65,-1.21063 3,-3.06336 3,-4.1172 0,-1.05383 0.62914,-1.52723 1.39808,-1.052 1.7356,1.07266 -0.6576,4.21645 -4.62175,6.07129 -2.44689,1.14491 -2.42035,1.03787 0.22367,-0.90209 z m 5.66667,-7.13052 c 0,-0.69006 0.59313,-1.62123 1.31806,-2.06926 0.75582,-0.46712 0.97935,0.0681 0.52402,1.25464 -0.88639,2.3099 -1.84208,2.73252 -1.84208,0.81462 z m 11.38943,-0.74536 C 133.24001,163.2 134.12757,160.2 134.69513,158 l 1.03191,-4 0.13648,4.07849 c 0.0751,2.24318 -0.81251,5.24318 -1.97238,6.66667 -2.07897,2.55152 -2.09552,2.55041 -1.16838,-0.0785 z m -15.38943,-1.23951 c 0,-0.36667 1.2,-1.30889 2.66667,-2.09383 1.46666,-0.78493 2.66666,-1.12716 2.66666,-0.76049 0,0.36667 -1.2,1.30889 -2.66666,2.09383 -1.46667,0.78493 -2.66667,1.12716 -2.66667,0.76049 z M 164,162.66667 c -1.20172,-0.77662 -1.36618,-1.30066 -0.41203,-1.31292 0.87339,-0.0107 1.9588,0.57958 2.41203,1.31292 1.02306,1.65537 0.56149,1.65537 -2,0 z m 2.66666,-1.54667 c 2.02234,-1.93603 10.90694,-6.34941 9.59168,-4.76463 -0.86269,1.0395 -1.30232,2.15622 -0.97693,2.48159 0.32537,0.32539 -0.42983,0.63345 -1.67824,0.68459 -1.24841,0.0512 -3.46984,0.5753 -4.93651,1.16482 -1.46666,0.58951 -2.36666,0.78464 -2,0.43363 z M 148.85116,158 c 0.42212,-1.1 1.37674,-2 2.12141,-2 0.78041,0 0.65083,0.84721 -0.30591,2 -0.91292,1.1 -1.86756,2 -2.12141,2 -0.25385,0 -0.11627,-0.9 0.30591,-2 z m -28.05569,-2.74627 c 0.404,-2.2279 0.12409,-3.15538 -0.78307,-2.59473 -0.77649,0.47991 -1.26947,0.37795 -1.0955,-0.22656 0.17397,-0.60451 -0.45978,-2.50049 -1.40833,-4.21331 -0.94854,-1.7128 -1.37601,-3.4628 -0.94993,-3.88888 0.42608,-0.42608 0.77469,-0.0764 0.77469,0.77702 0,0.85344 2.18414,3.9693 4.85365,6.92413 2.66951,2.95483 4.48363,5.74243 4.03139,6.19468 -0.45225,0.45224 -1.20059,-0.16361 -1.66297,-1.36857 -0.46239,-1.20496 -1.41192,-2.19084 -2.11008,-2.19084 -0.69815,0 -0.92417,0.55854 -0.50226,1.2412 0.42191,0.68266 0.19483,1.59489 -0.50461,2.02717 -0.73582,0.45476 -1.00677,-0.67513 -0.64298,-2.68131 z m 57.87119,-0.1582 c 0,-0.74189 1.35,-2.49189 3,-3.88888 l 3,-2.53998 L 182.01421,152 c -1.45885,1.83333 -2.80885,3.58333 -3,3.88889 -0.19115,0.30555 -0.34755,-0.0515 -0.34755,-0.79336 z M 129.33333,147.5538 C 126.76666,144.49921 125.86431,142.9 127.3281,144 c 4.85912,3.65151 9.74918,9.40617 7.83515,9.22047 -0.63979,-0.0621 -3.26325,-2.61207 -5.82992,-5.66667 z m 32.28076,3.91948 c 0.94559,-1.02303 2.19552,-1.57137 2.77764,-1.21855 0.58213,0.35283 1.94663,-0.0956 3.03223,-0.99661 1.0856,-0.90097 2.35144,-1.26049 2.81298,-0.79896 0.46154,0.46155 -1.33369,1.74704 -3.9894,2.85667 -5.97738,2.49752 -6.8229,2.52625 -4.63345,0.15745 z m -6.94743,-0.80661 c 1.1,-0.71088 2.6,-1.2925 3.33334,-1.2925 0.73333,0 0.43333,0.58162 -0.66667,1.2925 -1.1,0.71088 -2.6,1.29249 -3.33333,1.29249 -0.73334,0 -0.43334,-0.58161 0.66666,-1.29249 z M 172,146.87332 c 0,-0.847 0.53164,-1.53999 1.18141,-1.53999 1.97613,0 5.55324,-8.92502 4.62719,-11.54502 -0.67871,-1.92014 -0.50316,-2.11863 0.80574,-0.91106 1.30108,1.20035 1.33359,2.57382 0.14604,6.17211 C 177.21886,143.72021 172,149.76013 172,146.87332 Z m 14.11278,-3.09141 c 1.52243,-2.94406 2.00159,-6.3847 1.5864,-11.39128 -0.33214,-4.0053 -0.11173,-6.41155 0.49923,-5.44858 2.58485,4.07451 0.14132,21.05795 -3.02976,21.05795 -0.68043,0 -0.25556,-1.89815 0.94413,-4.21809 z m -71.58677,-5.35504 c -0.34945,-2.69856 -0.16077,-4.61316 0.41931,-4.25466 0.58007,0.35851 1.05468,-0.0836 1.05468,-0.98241 0,-0.89883 0.23674,-1.38424 0.52608,-1.07869 0.28935,0.30556 0.10066,2.95556 -0.41931,5.88889 l -0.94539,5.33333 z m 10.20066,-0.0935 c 1.25859,-4.16579 2.78629,-5.5334 3.99552,-3.57683 0.65955,1.06718 0.4761,1.31742 -0.51618,0.70415 -1.01039,-0.62452 -1.53935,0.22101 -1.53935,2.46059 0,1.87661 -0.64043,3.41202 -1.42318,3.41202 -0.85556,0 -1.06168,-1.19652 -0.51681,-3 z m 7.85336,-11.32711 c 2.88569,-3.09317 5.50711,-5.36352 5.82539,-5.04524 0.60675,0.60675 -0.63502,1.88715 -7.13226,7.3541 -2.59522,2.18369 -2.14921,1.39572 1.30687,-2.30886 z m -13.20377,-0.42264 c 1.01789,-1.96839 1.42465,-4.05116 0.9039,-4.62837 -0.52076,-0.57721 -0.22693,-0.63648 0.65294,-0.13171 0.9166,0.52585 2.21473,-0.23128 3.03981,-1.77296 0.79202,-1.47991 2.17213,-2.54671 3.0669,-2.37068 0.89477,0.17604 1.46199,-0.47453 1.26049,-1.44571 -0.20151,-0.97117 0.27478,-1.36952 1.0584,-0.88521 2.0577,1.27172 5.28776,-1.85023 4.37507,-4.22865 -0.5393,-1.4054 -0.009,-1.93634 1.74592,-1.74898 4.07908,0.43541 6.05629,0.0352 5.36356,-1.08567 -0.35611,-0.57619 0.35848,-1.11797 1.58797,-1.20396 1.2295,-0.086 3.73544,-0.58591 5.56878,-1.11093 1.83333,-0.52503 -0.50366,1.00705 -5.19331,3.40462 -4.7036,2.40469 -12.28271,8.04206 -16.90389,12.57316 -5.54611,5.43799 -7.7518,7.00443 -6.52654,4.63505 z m 55.90403,-0.8553 c -1.43152,-2.65817 -4.40521,-5.93224 -6.6082,-7.27571 -5.36673,-3.27285 -16.53108,-3.2272 -23.40873,0.0957 -2.90098,1.4016 -4.93098,1.99251 -4.5111,1.31313 1.52223,-2.463 10.72422,-5.39527 16.85859,-5.3721 6.3904,0.0242 10.43628,1.47964 14.85899,5.34546 2.62126,2.29122 6.7278,9.41196 5.90333,10.23642 -0.26957,0.26957 -1.66136,-1.68474 -3.09288,-4.34291 z m -6.62707,-1.7501 c -0.46061,-0.74529 -1.38916,-1.01413 -2.06341,-0.59742 -0.68283,0.42201 -0.82895,-0.27686 -0.32985,-1.5775 0.55577,-1.44829 1.0996,-1.72463 1.43194,-0.72761 0.29472,0.88416 0.98462,1.33022 1.53308,0.99124 0.54848,-0.33898 0.99724,0.25728 0.99724,1.32503 0,2.28679 -0.42084,2.44403 -1.569,0.58626 z m 16.68011,-1.34137 c 0,-0.74972 -2.31339,-3.89972 -5.14087,-7 -5.17144,-5.67041 -6.58397,-9.8591 -3.32474,-9.8591 1.18497,0 1.33742,0.50509 0.46845,1.55213 -0.86452,1.04169 -0.51543,2.39369 1.06152,4.11111 5.21253,5.67688 9.83052,12.55898 8.42723,12.55898 -0.82038,0 -1.49159,-0.61341 -1.49159,-1.36312 z M 168,107.24951 c -3.21983,-1.21824 -3.81558,-1.789 -1.92151,-1.84092 1.50984,-0.0414 3.90984,0.80566 5.33333,1.88234 3.03962,2.29904 2.76524,2.29571 -3.41182,-0.0414 z m -12.31779,-2.85919 c 1.65855,-0.31893 4.05855,-0.30682 5.33333,0.0269 1.27479,0.33372 -0.0823,0.59466 -3.01554,0.57986 -2.93334,-0.0148 -3.97634,-0.28785 -2.31779,-0.60677 z"
         style="fill:#884669;stroke-width:1.33333337" />
      <path
         inkscape:connector-curvature="0"
         id="path2104"
         d="m 96.111109,338.31912 c 0.305556,-0.19115 2.055556,-1.54115 3.888889,-3 l 3.333332,-2.65245 -2.53998,3 c -1.396993,1.65 -3.146993,3 -3.88889,3 -0.741899,0 -1.098905,-0.1564 -0.793351,-0.34755 z m 250.222221,-1.86883 c 0.91666,-0.36988 2.41666,-0.36988 3.33333,0 0.91667,0.36988 0.16667,0.67252 -1.66667,0.67252 -1.83333,0 -2.58333,-0.30264 -1.66666,-0.67252 z m 30.66666,0 c 0.91667,-0.36988 2.41667,-0.36988 3.33334,0 0.91666,0.36988 0.16666,0.67252 -1.66667,0.67252 -1.83333,0 -2.58333,-0.30264 -1.66667,-0.67252 z m -44.64129,-1.37428 c 1.29729,-0.33805 3.09729,-0.31582 4,0.0495 0.90271,0.36524 -0.15871,0.64183 -2.35871,0.61465 -2.19999,-0.0272 -2.93858,-0.326 -1.64129,-0.66405 z M 303.75,332.42252 c 0.96249,-0.38516 2.11249,-0.3378 2.55556,0.1052 0.44305,0.44305 -0.34446,0.75819 -1.75,0.70029 -1.55327,-0.064 -1.8692,-0.37992 -0.80556,-0.80554 z M 223,329.68661 c 3.48333,-0.27466 9.18333,-0.27466 12.66666,0 3.48334,0.27467 0.63334,0.49939 -6.33333,0.49939 -6.96667,0 -9.81667,-0.22472 -6.33333,-0.49939 z m 46.69204,-2.6106 c 1.29729,-0.33805 3.09729,-0.31582 4,0.0495 0.9027,0.36524 -0.15871,0.64183 -2.35871,0.61465 -2.2,-0.0272 -2.93859,-0.326 -1.64129,-0.66405 z m 101.97462,0.0409 c 0.91667,-0.36988 2.41667,-0.36988 3.33333,0 0.91667,0.36988 0.16667,0.67252 -1.66666,0.67252 -1.83334,0 -2.58334,-0.30264 -1.66667,-0.67252 z m -33.25,-1.36111 c 0.96249,-0.38516 2.11249,-0.3378 2.55556,0.1052 0.44305,0.44305 -0.34445,0.75819 -1.75,0.70029 -1.55327,-0.064 -1.8692,-0.37992 -0.80556,-0.80554 z m -234.3114,-2.53361 c 0.064,-1.55327 0.37992,-1.8692 0.80556,-0.80556 0.38516,0.96249 0.33779,2.11249 -0.10527,2.55556 -0.44306,0.44305 -0.75819,-0.34446 -0.70029,-1.75 z m 216.97807,1.20029 c 0.96249,-0.38516 2.11249,-0.3378 2.55556,0.1052 0.44305,0.44305 -0.34445,0.75819 -1.75,0.70029 -1.55327,-0.064 -1.8692,-0.37992 -0.80556,-0.80554 z m -14.66667,-1.33333 c 0.9625,-0.38516 2.1125,-0.3378 2.55556,0.1052 0.44306,0.44305 -0.34445,0.75818 -1.75,0.70029 -1.55326,-0.064 -1.8692,-0.37992 -0.80556,-0.80555 z m -9.33333,-1.33334 c 0.96249,-0.38516 2.11249,-0.3378 2.55556,0.1052 0.44305,0.44306 -0.34445,0.75819 -1.75,0.7003 -1.55327,-0.064 -1.8692,-0.37992 -0.80556,-0.80555 z m -70.065,-1.37929 c 2.02675,-0.30648 5.02675,-0.29828 6.66667,0.0181 1.63992,0.31648 -0.0183,0.56723 -3.685,0.55723 -3.66667,-0.0107 -5.00842,-0.26896 -2.98167,-0.57543 z m 60.73167,0.046 c 0.96249,-0.38516 2.11249,-0.3378 2.55556,0.1052 0.44305,0.44305 -0.34446,0.75819 -1.75,0.70029 -1.55327,-0.064 -1.8692,-0.37992 -0.80556,-0.80554 z m 105.94203,-0.0133 c 1.2973,-0.33806 3.0973,-0.31583 4,0.0495 0.90271,0.36524 -0.1587,0.64183 -2.3587,0.61466 -2.2,-0.0272 -2.93859,-0.326 -1.6413,-0.66406 z m -147.3587,-1.29227 c 0.91667,-0.36988 2.41667,-0.36988 3.33333,0 0.91667,0.36988 0.16667,0.67252 -1.66666,0.67252 -1.83334,0 -2.58334,-0.30264 -1.66667,-0.67252 z m 13.41667,-1.3611 c 0.96249,-0.38516 2.11249,-0.3378 2.55556,0.1052 0.44305,0.44306 -0.34446,0.75819 -1.75,0.7003 -1.55327,-0.064 -1.8692,-0.37992 -0.80556,-0.80555 z M 94.976003,313.33333 c 0,-2.56666 0.274393,-3.61666 0.609764,-2.33333 0.335369,1.28333 0.335369,3.38333 0,4.66667 -0.335371,1.28333 -0.609764,0.23333 -0.609764,-2.33334 z m 159.381207,-6.29964 c 2.39647,-0.29674 5.99647,-0.29062 8,0.0136 2.00353,0.30424 0.0428,0.54703 -4.35721,0.53955 -4.4,-0.008 -6.03926,-0.2564 -3.64279,-0.55315 z m -17.27388,-1.27784 c 0.96249,-0.38516 2.11249,-0.3378 2.55556,0.1052 0.44305,0.44306 -0.34445,0.75819 -1.75,0.7003 -1.55327,-0.064 -1.8692,-0.37992 -0.80556,-0.80555 z m 111.27537,-0.0133 c 1.29729,-0.33805 3.09729,-0.31583 4,0.0495 0.90271,0.36524 -0.15871,0.64182 -2.35871,0.61465 -2.2,-0.0272 -2.93858,-0.326 -1.64129,-0.66405 z m -82.00149,-8.04232 c 2.39647,-0.29675 5.99647,-0.29063 8,0.0136 2.00353,0.30424 0.0428,0.54703 -4.35721,0.53955 -4.4,-0.008 -6.03926,-0.2564 -3.64279,-0.55315 z m -136.34777,-4.3516 c -0.46712,-0.75581 0.0681,-0.97933 1.25464,-0.52401 2.30989,0.88638 2.73252,1.84208 0.81461,1.84208 -0.69006,0 -1.62122,-0.59314 -2.06925,-1.31807 z M 108.53998,289 106,286 l 3,2.53999 c 1.65,1.39698 3,2.74698 3,3 0,1.067 -1.07306,0.27926 -3.46002,-2.53999 z m 109.87668,2.08919 c 0.9625,-0.38516 2.1125,-0.3378 2.55556,0.1052 0.44306,0.44305 -0.34445,0.75818 -1.75,0.70029 -1.55326,-0.064 -1.8692,-0.37992 -0.80556,-0.80555 z m -124.978065,-5.2003 c 0.06397,-1.55326 0.379921,-1.8692 0.805556,-0.80556 0.385161,0.9625 0.337792,2.1125 -0.105267,2.55556 -0.443056,0.44306 -0.758188,-0.34445 -0.700293,-1.75 z m 23.144195,-2.22222 -3.91613,-4.33334 4.33334,3.91612 c 2.38333,2.15387 4.33333,4.10387 4.33333,4.33334 0,1.03008 -1.10017,0.1232 -4.75054,-3.91612 z m -13.47168,-0.27468 c 0,-1.06775 0.50979,-1.62628 1.13286,-1.2412 0.62307,0.38508 0.78766,1.25868 0.36576,1.94134 -1.07817,1.74451 -1.49862,1.54808 -1.49862,-0.70014 z m -9.468441,-6.05866 c 0,-2.56666 0.274394,-3.61666 0.609764,-2.33333 0.33537,1.28333 0.33537,3.38333 0,4.66667 -0.33537,1.28333 -0.609764,0.23333 -0.609764,-2.33334 z M 175.82992,279 c -1.6585,-2.11475 -1.61134,-2.16191 0.50341,-0.50341 1.28333,1.00646 2.33333,2.05646 2.33333,2.33333 0,1.09739 -1.09492,0.39108 -2.83674,-1.82992 z m -70.28606,-32.33333 c 0,-1.83334 0.30263,-2.58334 0.67251,-1.66667 0.36989,0.91667 0.36989,2.41667 0,3.33333 -0.36988,0.91667 -0.67251,0.16667 -0.67251,-1.66666 z m -9.891596,-2.51907 c -0.362313,-1.38549 -0.14148,-3.33549 0.490741,-4.33333 0.78153,-1.23351 1.156028,-0.42712 1.16991,2.51906 0.02285,4.85119 -0.668858,5.60688 -1.660651,1.81427 z m 13.786326,-24.92537 c 0.064,-1.55327 0.37993,-1.8692 0.80556,-0.80556 0.38516,0.96249 0.33779,2.11249 -0.10527,2.55556 -0.44305,0.44305 -0.75818,-0.34446 -0.70029,-1.75 z M 85.333332,190 c 1.722327,-1.83333 3.431504,-3.33333 3.798171,-3.33333 0.366666,0 -0.742511,1.5 -2.464838,3.33333 -1.722326,1.83333 -3.431504,3.33333 -3.79817,3.33333 -0.366667,0 0.74251,-1.5 2.464837,-3.33333 z M 116,172.82992 c 0,-0.27687 1.05,-1.32687 2.33333,-2.33333 2.11474,-1.6585 2.1619,-1.61134 0.50341,0.50341 C 117.09491,173.221 116,173.92731 116,172.82992 Z m 37.33333,-6.032 c 0,-1.38459 2.53628,-3.38896 3.28756,-2.59811 0.24392,0.25678 -0.396,1.24051 -1.42204,2.1861 -1.02604,0.94557 -1.86552,1.13098 -1.86552,0.41201 z m -18.5614,-8.90903 c 0.064,-1.55326 0.37992,-1.8692 0.80555,-0.80556 0.38516,0.9625 0.3378,2.1125 -0.1052,2.55556 -0.44307,0.44306 -0.75819,-0.34445 -0.7003,-1.75 z M 180,152.82992 c 0,-0.27687 1.05,-1.32687 2.33333,-2.33333 2.11475,-1.6585 2.16191,-1.61134 0.50341,0.50341 C 181.09492,153.221 180,153.92731 180,152.82992 Z M 188.21052,136 c 0,-1.83333 0.30264,-2.58333 0.67252,-1.66667 0.36988,0.91667 0.36988,2.41667 0,3.33334 -0.36988,0.91666 -0.67252,0.16666 -0.67252,-1.66667 z M 128,131.49659 c 0,-0.27687 1.05,-1.32687 2.33333,-2.33333 2.11474,-1.65849 2.1619,-1.61133 0.50341,0.50341 C 129.09491,131.88766 128,132.59397 128,131.49659 Z M 170.49658,119 c -1.65849,-2.11474 -1.61133,-2.1619 0.50342,-0.50341 1.28333,1.00646 2.33333,2.05646 2.33333,2.33334 0,1.09738 -1.09492,0.39107 -2.83675,-1.82993 z"
         style="fill:#7c4362;stroke-width:1.33333337" />
    </g>
  </g>
  <path
     style="fill:#006680;fill-opacity:0.62626259;stroke-width:1.33031952"
     d="M 73.796619,444.11139 C 38.89671,440.47529 15.783518,422.18412 8.0139527,392.05267 2.5391145,370.82051 3.8877484,351.42039 14.554887,297.96125 23.841791,251.41924 24.931491,243.82897 24.963712,225.45883 24.995899,207.10855 23.916023,199.5524 14.602116,152.95642 6.4029202,111.93715 3.9481667,92.332887 5.1072631,77.128202 6.814591,54.731974 12.832947,40.21918 25.843974,27.123255 36.243782,16.655586 48.070811,10.518639 62.9629,7.8625511 c 21.188383,-3.7790673 34.732498,-2.47757 90.65289,8.7111259 65.02188,13.009746 71.18394,13.011088 135.69259,0.02958 46.94741,-9.4475382 60.4425,-11.2254302 77.15854,-10.1651431 30.8607,1.9574726 51.0768,14.0198081 62.65412,37.3837911 12.09603,24.410804 11.81883,45.878843 -1.44828,112.163745 -13.37657,66.83187 -13.35197,71.9314 0.68467,141.9756 10.65253,53.15722 12.00093,72.88899 6.45449,94.45268 -5.77978,22.47099 -22.35512,40.28395 -44.18705,47.48636 -21.0993,6.96069 -42.75402,5.71649 -99.32101,-5.70667 -66.2618,-13.38094 -74.04659,-13.41967 -136.35775,-0.67841 -45.70844,9.34636 -66.760708,12.09529 -81.149491,10.59618 z M 114.66028,326.0479 c 0.26761,-1.17108 0.82811,-3.9227 1.24556,-6.11471 0.41745,-2.19202 1.28158,-3.6625 1.92029,-3.26777 0.63871,0.39474 0.89871,-0.95831 0.57777,-3.00679 -0.32093,-2.04848 -0.92618,-10.10926 -1.34499,-17.91282 -0.65703,-12.24225 -0.48305,-14.14745 1.26846,-13.8904 1.11646,0.16387 2.77834,1.22716 3.69308,2.36288 7.56512,9.39268 48.51518,27.91525 73.50041,33.24577 10.24096,2.18488 16.68754,2.5107 44.5657,2.25249 25.11859,-0.23265 35.94861,0.21232 47.22634,1.94036 28.05301,4.29846 75.16607,7.16523 75.1639,4.57363 -4.7e-4,-0.54876 1.34611,-1.03119 2.99238,-1.07207 4.46343,-0.11081 14.67304,-4.57304 16.24844,-7.10152 1.71734,-2.75628 -0.9242,-4.75685 -5.08799,-3.85342 -1.98593,0.4309 -2.32762,0.24762 -1.13072,-0.60649 1.15484,-0.8241 -0.1491,-1.24392 -3.99096,-1.28496 -3.54018,-0.0378 -10.73484,-2.14188 -18.95377,-5.54299 -14.64258,-6.05932 -17.64131,-6.44876 -26.16217,-3.39763 -7.17194,2.56811 -11.92144,1.92919 -30.74001,-4.1353 -8.23428,-2.65359 -17.00802,-4.60071 -20.73082,-4.60071 -3.54996,0 -6.8293,-0.37483 -7.28743,-0.83296 -0.45812,-0.45812 -6.69399,-0.95426 -13.85748,-1.10253 -14.39695,-0.29797 -32.31418,-3.10996 -32.31418,-5.07149 0,-0.69278 -0.85497,-0.93152 -1.89994,-0.53052 -1.04495,0.40098 -6.80402,-0.777 -12.79792,-2.61774 -10.86479,-3.3366 -12.28829,-4.34159 -20.3026,-14.3336 -5.47229,-6.82272 -16.28501,-11.69585 -25.95122,-11.69585 -9.21957,0 -9.788,-0.29591 -12.26664,-6.38554 -2.9423,-7.22878 -2.09477,-17.56614 3.21753,-39.24442 10.01773,-40.88014 7.24911,-35.80113 24.31809,-44.61131 12.02728,-6.20791 15.08535,-10.53802 15.08535,-21.36025 0,-7.72965 -2.01602,-12.17654 -8.201,-18.08956 -11.58765,-11.07815 -26.46274,-9.17005 -43.24282,5.54699 -7.44305,6.52795 -12.02439,15.57777 -10.42964,20.60238 0.50245,1.58306 2.72587,4.94244 4.94094,7.46526 3.77491,4.29938 3.91886,4.84901 2.29615,8.76659 -2.56205,6.18535 -7.94032,11.06852 -17.408,15.80555 -4.64198,2.32257 -9.33793,4.99177 -10.43544,5.93159 -1.09752,0.93982 -3.07473,1.92022 -4.39381,2.17868 -1.31908,0.25845 -2.22539,0.76924 -2.01401,1.13508 0.21137,0.36584 -0.9543,2.83108 -2.590374,5.4783 -4.940142,7.99331 -3.299699,21.69551 6.272264,52.3906 3.14073,10.07161 3.74796,14.40228 3.82396,27.27155 0.0497,8.41427 0.4204,18.59122 0.82381,22.61543 0.40341,4.02422 0.26267,9.41201 -0.31275,11.97288 l -1.04622,4.65612 -14.113515,0.878 c -13.499367,0.83979 -19.707347,2.44538 -19.707347,5.09696 0,1.32787 13.408328,2.17186 29.168202,1.836 7.85361,-0.16737 9.97831,-0.64698 10.36514,-2.33974 z"
     id="path7933"
     inkscape:connector-curvature="0" />
  <path
     style="fill:#006680;fill-opacity:0.62626259;stroke-width:1.33031952"
     d="m 330.1867,319.10649 c -0.51526,-0.51526 -4.26744,-0.82801 -8.33819,-0.69499 -4.07074,0.13303 -8.10169,-0.19096 -8.95766,-0.71998 -1.48515,-0.91788 -9.52866,-1.7322 -17.17599,-1.7389 -1.96402,-0.001 -3.90972,-0.5513 -4.32379,-1.22129 -0.41408,-0.66999 -3.23897,-0.88471 -6.27754,-0.47716 -3.7579,0.50405 -5.24239,0.28428 -4.64198,-0.68721 0.62347,-1.00881 -9.37686,-1.26805 -34.05208,-0.88275 -37.99772,0.59334 -47.11403,-0.33653 -67.027,-6.83678 -12.7635,-4.16642 -34.05351,-13.86049 -35.4876,-16.1587 -0.58511,-0.93769 -2.15621,-1.70488 -3.49132,-1.70488 -3.05216,0 -17.70589,-14.1244 -20.73907,-19.98991 -1.73617,-3.3574 -2.06885,-6.14047 -1.41326,-11.82278 0.47158,-4.08746 0.91258,-8.62902 0.97999,-10.09238 0.0674,-1.46335 0.8943,-7.74911 1.83752,-13.96835 3.69841,-24.38599 8.34357,-38.84639 15.79355,-49.16547 7.44949,-10.31839 8.68746,-13.7448 6.56982,-18.18375 -1.00305,-2.10258 -3.2812,-5.80711 -5.06255,-8.23229 -4.52675,-6.16284 -1.73446,-12.27254 9.54502,-20.88506 10.97157,-8.37742 21.68225,-8.9709 29.91708,-1.65769 4.67589,4.15258 6.37149,7.91103 6.37149,14.12301 0,4.54071 -0.76451,5.95947 -5.30613,9.84692 -2.91838,2.49802 -7.7783,5.35774 -10.79984,6.35494 -7.39515,2.44062 -11.49014,5.88135 -13.94416,11.71629 -1.12553,2.67619 -4.78553,15.94071 -8.13334,29.47671 -8.62033,34.85416 -8.48459,47.13421 0.63597,57.53632 1.57623,1.79771 4.14562,2.32806 11.27882,2.32806 5.62924,0 10.95284,0.81394 13.62873,2.08373 5.04695,2.39493 11.42038,8.98225 14.11358,14.58722 1.57068,3.26885 3.67176,4.4264 13.82505,7.61662 22.02378,6.92002 34.01436,9.14813 59.08336,10.97899 21.6566,1.58163 26.60631,2.39493 39.86441,6.55024 16.92097,5.3033 22.08114,5.72637 31.3449,2.56989 l 6.38179,-2.17448 12.43943,5.02727 c 6.8417,2.76501 12.18285,5.44243 11.86926,5.94986 -0.76123,1.23169 -29.11202,1.74498 -30.30827,0.54873 z"
     id="path7935"
     inkscape:connector-curvature="0" />
  <path
     style="fill:#006680;fill-opacity:0.62626259;stroke-width:1.33031952"
     d="m 108.39894,237.26835 c -0.83049,-3.2027 -2.44921,-9.26402 -3.59716,-13.46962 -3.55399,-13.02036 -0.92267,-19.78556 10.54089,-27.10094 2.72924,-1.74165 5.53055,-3.16663 6.22512,-3.16663 0.69457,0 0.10473,4.04085 -1.31074,8.97966 -1.41548,4.93881 -3.81159,15.56474 -5.3247,23.61317 -1.51311,8.04843 -3.26238,15.15865 -3.88726,15.80048 -0.63663,0.65388 -1.80005,-1.39327 -2.64615,-4.65612 z"
     id="path7937"
     inkscape:connector-curvature="0" />
  <path
     style="fill:#afdde9;fill-opacity:0.34848484;stroke-width:1.33031952"
     d="m 251.75581,407.70436 c -4.92287,-0.60314 -10.90931,-1.70777 -13.30319,-2.45474 -78.18895,-24.39767 -136.49229,-45.26711 -162.402199,-58.1312 -40.8624,-20.2879 -49.48349,-35.76237 -40.08989,-71.95954 11.23312,-43.28558 20.37959,-67.58766 35.12325,-93.32218 C 103.93009,124.50465 151.25919,73.811537 190.33392,54.110594 c 34.08086,-17.1831 58.9838,-12.359994 73.97902,14.327971 17.53345,31.205427 22.56765,39.473055 30.80731,50.594705 19.30414,26.05612 40.09947,43.64745 74.4362,62.96759 20.00194,11.25442 26.16406,16.35626 31.22566,25.85278 7.83808,14.70576 8.85116,38.53842 2.82123,66.36994 -17.90455,82.63961 -85.05121,141.66453 -151.84753,133.48078 z"
     id="path7953"
     inkscape:connector-curvature="0" />
</svg>
