<?xml version="1.0" encoding="UTF-8" standalone="no"?>
<!-- Created with Inkscape (http://www.inkscape.org/) -->

<svg
   xmlns:dc="http://purl.org/dc/elements/1.1/"
   xmlns:cc="http://creativecommons.org/ns#"
   xmlns:rdf="http://www.w3.org/1999/02/22-rdf-syntax-ns#"
   xmlns:svg="http://www.w3.org/2000/svg"
   xmlns="http://www.w3.org/2000/svg"
   xmlns:sodipodi="http://sodipodi.sourceforge.net/DTD/sodipodi-0.dtd"
   xmlns:inkscape="http://www.inkscape.org/namespaces/inkscape"
   version="1.1"
   id="svg1714"
   width="639.35999"
   height="638.08002"
   viewBox="0 0 639.35999 638.08002"
   sodipodi:docname="123456.svg"
   inkscape:version="0.92.3 (2405546, 2018-03-11)">
  <metadata
     id="metadata1720">
    <rdf:RDF>
      <cc:Work
         rdf:about="">
        <dc:format>image/svg+xml</dc:format>
        <dc:type
           rdf:resource="http://purl.org/dc/dcmitype/StillImage" />
        <dc:title></dc:title>
      </cc:Work>
    </rdf:RDF>
  </metadata>
  <defs
     id="defs1718" />
  <sodipodi:namedview
     pagecolor="#ffffff"
     bordercolor="#666666"
     borderopacity="1"
     objecttolerance="10"
     gridtolerance="10"
     guidetolerance="10"
     inkscape:pageopacity="0"
     inkscape:pageshadow="2"
     inkscape:window-width="1366"
     inkscape:window-height="705"
     id="namedview1716"
     showgrid="false"
     inkscape:zoom="0.73971914"
     inkscape:cx="159.03896"
     inkscape:cy="255.12491"
     inkscape:window-x="-8"
     inkscape:window-y="-8"
     inkscape:window-maximized="1"
     inkscape:current-layer="g2269"
     showguides="false" />
  <g
     id="g2269"
     transform="translate(-11.257489,5.726232)">
    <path
       style="fill:#fda362;stroke-width:0.63999999"
       d="m 412.45976,542.81203 c -1.698,-1.03549 -3.19308,-3.52149 -4.38542,-7.29201 -0.22509,-0.71179 -1.00299,-1.12149 -2.13426,-1.12409 -1.51491,-0.003 -6.05415,-1.11237 -18.82188,-4.59804 -1.92021,-0.52424 -3.08249,-0.3601 -6.72,0.94896 -9.29772,3.34605 -17.6698,4.09886 -54.38236,4.89002 -32.9943,0.71103 -44.89223,-0.16366 -61.06427,-4.48917 l -4.80844,-1.28611 -6.71156,3.13261 c -12.09817,5.64679 -14.08234,6.19212 -22.55157,6.19807 -4.136,0.003 -7.52,0.23492 -7.52,0.5156 0,0.91638 -3.1162,3.65215 -4.16,3.65215 -1.59189,0 -4.16,-2.96536 -4.16,-4.80348 v -1.66166 l -2.24409,1.71165 c -1.34336,1.02462 -3.37888,1.83955 -5.07134,2.03031 -2.44723,0.27584 -3.05999,0.0859 -4.5587,-1.41277 -1.56099,-1.56099 -1.69399,-2.04764 -1.35105,-4.94332 0.20922,-1.76653 1.09227,-4.42658 1.96232,-5.91122 1.8223,-3.10951 5.81478,-6.12951 8.1033,-6.12951 0.87231,0 1.92319,-0.56289 2.36164,-1.26498 0.94495,-1.51309 4.55906,-3.43979 8.3848,-4.46995 l 2.77968,-0.74849 -11.42329,-5.66943 c -28.75744,-14.27245 -50.90112,-31.08033 -57.10085,-43.34166 -1.89564,-3.74905 -1.81348,-7.87124 0.20469,-10.26969 6.91035,-8.21249 35.10668,-14.01462 81.63289,-16.7981 5.808,-0.34747 13.38433,-0.6331 16.83628,-0.63473 l 6.2763,-0.003 -0.9963,-1.4224 c -0.54795,-0.78232 -0.99628,-2.64768 -0.99628,-4.14524 0,-4.07088 1.76939,-4.99236 9.58619,-4.99236 h 6.1196 l -0.2295,-1.96508 c -0.12623,-1.0808 0.22942,-3.06344 0.79033,-4.40589 0.56091,-1.34243 1.60336,-4.85467 2.31656,-7.80496 l 1.29674,-5.36416 -3.56074,-25.10996 c -1.95842,-13.81047 -3.71051,-25.79627 -3.89353,-26.6351 -0.24764,-1.13496 -1.63474,1.70367 -5.42174,11.09535 -15.57855,38.63442 -27.50094,61.36904 -33.92503,64.69107 -1.64629,0.85132 -2.09676,0.85745 -3.63888,0.0495 -2.46301,-1.29045 -3.66736,-2.51589 -10.89255,-11.08324 -3.50081,-4.15113 -8.27317,-9.46894 -10.60525,-11.81737 -11.69055,-11.77255 -27.1469,-21.76046 -46.3098,-29.92544 l -6.52759,-2.7813 -2.43241,1.1966 c -1.42322,0.70015 -3.82642,1.20145 -5.7924,1.2083 l -3.36,0.0117 -0.01,2.56 c -0.0134,3.44409 -1.48489,9.49588 -2.795,11.49537 -1.48581,2.26761 -4.04265,2.19776 -4.95466,-0.13537 -0.78723,-2.01392 -0.33528,-9.65867 0.7561,-12.78941 1.05682,-3.03159 0.3576,-4.05178 -0.99419,-1.45059 -0.6738,1.29657 -1.38533,4.63136 -1.68939,7.91782 -0.28891,3.1228 -0.85476,6.0748 -1.25744,6.56 -1.152,1.38807 -3.68092,1.03486 -5.48135,-0.76557 -1.43023,-1.43023 -1.60853,-2.05589 -1.35066,-4.73956 0.16339,-1.70051 1.3536,-5.31656 2.6449,-8.03568 2.1388,-4.5037 2.21891,-4.86026 0.89976,-4.00494 -0.79644,0.51639 -2.85313,3.70533 -4.57041,7.08654 -1.71729,3.3812 -3.51729,6.2992 -4,6.48443 -2.45662,0.94269 -4.07767,-1.85353 -4.07767,-7.03371 0,-5.87064 2.50364,-10.0025 8.36046,-13.79759 1.73775,-1.12602 3.15211,-2.2148 3.14303,-2.41952 -0.009,-0.20472 -1.12977,-0.88498 -2.49042,-1.51169 -3.47417,-1.60018 -4.28341,-3.80296 -3.27678,-8.91956 0.97701,-4.96603 2.90025,-9.11363 4.9872,-10.75523 1.78226,-1.40192 5.23806,-1.6576 7.39858,-0.5474 1.1523,0.59212 1.25736,0.56963 0.59793,-0.128 -1.39525,-1.47607 -0.96289,-3.76009 0.84166,-4.44618 2.86816,-1.09047 7.44245,-0.71355 10.19834,0.84033 3.25193,1.83357 6.43151,6.54533 7.3298,10.86189 0.55308,2.65774 1.08475,3.57487 2.56225,4.41987 1.22705,0.70176 2.12647,1.9411 2.63113,3.6255 0.64518,2.1534 1.18464,2.71194 3.4018,3.52207 1.44926,0.52955 6.81102,2.44629 11.91502,4.25943 25.20294,8.95306 46.10772,18.45988 54.23116,24.66259 1.61123,1.23026 3.01565,2.15068 3.12095,2.04538 0.20258,-0.20258 1.35637,-6.86535 5.06712,-29.26122 6.38818,-38.55512 11.78081,-59.57564 19.03497,-74.19852 5.20187,-10.48586 6.59423,-11.62502 26.48571,-21.66914 l 16.7399,-8.45275 1.05581,-3.0398 c 0.64131,-1.84637 1.20363,-6.20445 1.43232,-11.10059 l 0.3765,-8.0608 -3.13222,-0.76057 c -1.72273,-0.41832 -6.32142,-2.33225 -10.21933,-4.25319 -11.4431,-5.63931 -19.42479,-13.90668 -24.65343,-25.53584 -1.64232,-3.65273 -2.49493,-4.85515 -3.45946,-4.87885 -2.51934,-0.0619 -5.79385,-2.26826 -7.78717,-5.24704 -3.53947,-5.28933 -5.02295,-15.73644 -3.34532,-23.55893 0.96968,-4.52146 2.47223,-5.90539 6.09846,-5.61698 3.24544,0.25812 2.88176,0.98698 4.04509,-8.107 2.02024,-15.7927 7.71204,-33.7871 14.07495,-44.49747 4.75998,-8.01223 11.44385,-14.59028 17.58537,-17.306966 9.44845,-4.179501 24.23708,-4.029933 35.02661,0.354247 8.77865,3.567089 20.60679,13.571179 26.11789,22.090179 7.09442,10.96649 13.21341,27.87758 15.70984,43.4174 0.39835,2.47968 0.59347,2.72916 1.82023,2.32735 3.85749,-1.26346 5.8612,-1.08305 7.6314,0.68716 2.50198,2.50198 3.20549,5.9385 2.89517,14.1424 -0.24914,6.58635 -0.43895,7.4692 -2.47119,11.49439 -2.37147,4.69706 -4.32484,6.52736 -7.70381,7.21843 -2.03586,0.41638 -2.21364,0.6824 -3.48578,5.21581 -3.57979,12.75704 -9.74207,20.51104 -22.42317,28.21507 -4.4698,2.7155 -11.97174,5.46842 -16.64888,6.1095 l -2.97643,0.40797 0.4301,4.19807 c 0.24639,2.40482 0.9756,5.0807 1.70711,6.26432 1.8941,3.06471 7.60966,8.04497 11.67622,10.17409 l 3.57716,1.87288 2.42307,-2.35473 c 3.02041,-2.93521 5.63209,-4.31159 7.33581,-3.86606 1.49783,0.39169 3.08726,3.7122 3.08726,6.44965 0,1.69436 0.34601,1.97985 4,3.30041 6.24968,2.25867 15.26074,6.74061 18.92457,9.41275 3.86245,2.81701 5.66206,6.02583 8.04367,14.3424 1.67242,5.84011 4.87176,20.94226 4.87176,22.99664 0,0.6984 0.78935,1.62943 1.84377,2.17469 2.93533,1.51792 5.19623,4.63173 5.19623,7.15647 0,1.22036 -1.008,4.91012 -2.24,8.19946 -1.232,3.28933 -2.23911,6.37275 -2.23804,6.85205 10e-4,0.47929 1.02087,4.18344 2.2662,8.23144 1.24533,4.048 4.5776,15.96485 7.40502,26.4819 2.82743,10.51704 5.41043,19.83112 5.73999,20.69796 l 0.59922,1.57606 3.67381,-3.17438 c 8.44501,-7.29699 26.56018,-17.78671 50.07311,-28.9952 l 14.39931,-6.86407 0.51238,-2.5909 c 0.33042,-1.67086 1.18293,-3.15514 2.40069,-4.17982 1.3733,-1.15556 1.89597,-2.16748 1.9164,-3.71023 0.12089,-9.12832 9.41482,-16.81932 16.89025,-13.97716 1.03163,0.39222 1.64166,1.11587 1.64166,1.94742 0,1.54232 -4.97568,7.07929 -8.09293,9.00585 -5.50825,3.40429 -1.64433,9.74723 6.49669,10.66484 2.15745,0.24318 2.97407,-0.007 4.66571,-1.43064 1.12779,-0.94898 2.05053,-2.25198 2.05053,-2.89556 0,-0.64358 -1.584,-3.1026 -3.52,-5.46449 -1.936,-2.36188 -3.52,-4.50688 -3.52,-4.76665 0,-0.25977 0.5969,-1.23115 1.32645,-2.15862 1.70026,-2.16152 5.57868,-2.32523 8.34924,-0.35242 2.88713,2.05583 6.30031,9.75449 6.31739,14.24934 0.007,1.92479 -3.16366,5.53677 -4.86076,5.53677 -1.7407,0 -0.85405,1.18434 1.87605,2.50596 6.77861,3.28147 10.67163,8.64339 10.67163,14.69818 0,4.12281 -0.83921,5.83586 -2.85894,5.83586 -1.64202,0 -3.06281,-1.64049 -5.37072,-6.20123 -1.24865,-2.46751 -4.96526,-6.58884 -5.94809,-6.59581 -0.22976,-0.002 0.84898,2.21984 2.39719,4.93659 4.39089,7.70502 4.56037,11.5315 0.5945,13.4227 -3.48993,1.66423 -4.20498,0.62074 -6.08718,-8.88317 -0.6196,-3.12858 -2.89784,-7.44132 -3.57384,-6.76533 -0.12163,0.12164 0.4872,2.45177 1.35296,5.17809 2.32884,7.33356 1.94932,12.58816 -0.90921,12.58816 -2.47548,0 -5.69813,-6.08158 -6.2969,-11.88317 l -0.35783,-3.46708 -3.27097,0.3762 c -2.12508,0.2444 -4.2114,0.049 -5.95544,-0.55778 l -2.68447,-0.93397 -5.95553,3.18834 c -12.61551,6.75381 -26.57007,16.89732 -35.41162,25.74052 -6.42853,6.42973 -9.97469,10.88118 -17.50878,21.97855 -7.43994,10.95868 -9.87039,13.22995 -12.99253,12.14157 -5.50451,-1.91889 -19.58016,-21.9181 -32.67495,-46.42581 -1.75796,-3.29013 -3.27639,-5.8955 -3.37428,-5.78971 -0.44766,0.48375 -22.02706,52.61198 -21.8521,52.78694 0.10885,0.10885 2.76759,-0.37017 5.90832,-1.0645 7.37128,-1.62956 9.99741,-1.63775 11.44725,-0.0357 2.01792,2.22978 0.8257,5.44664 -3.63703,9.81343 -2.1332,2.08733 -3.33433,3.64208 -2.66918,3.45499 0.66516,-0.1871 4.23337,-0.72327 7.92937,-1.1915 9.37004,-1.18704 72.2641,-1.18967 84.8,-0.004 22.61543,2.13985 29.10695,4.11767 32.02299,9.75668 3.51127,6.79004 -4.03097,18.17534 -21.10408,31.85744 -11.61895,9.31122 -29.71472,21.13952 -41.15078,26.8982 l -3.99187,2.01012 2.23187,2.92391 c 1.22753,1.60816 2.23187,3.27541 2.23187,3.70501 0,0.4296 1.18745,1.91954 2.63879,3.31097 1.45133,1.39144 3.1845,3.73513 3.8515,5.20819 1.13452,2.5056 1.1471,2.84229 0.19516,5.22143 -1.70091,4.25099 -5.72645,4.95638 -11.49666,2.01456 -1.37469,-0.70055 -2.55722,-1.27397 -2.62785,-1.27397 -0.0706,0 -0.3282,1.18246 -0.57237,2.62769 -0.48286,2.85801 -2.21708,5.0537 -3.98857,5.04991 -0.616,-10e-4 -1.9931,-0.53483 -3.06023,-1.18559 z M 141.22932,360.91131 c 3.20966,-1.43114 4.69068,-3.36578 4.69068,-6.12736 0,-1.81637 -0.43052,-2.31279 -3.75952,-4.33505 -2.06773,-1.25608 -4.119,-2.71693 -4.55836,-3.24634 -1.13343,-1.36569 -1.86228,-1.19195 -1.45959,0.34793 0.22519,0.86114 -0.31008,2.12297 -1.56107,3.68 -2.20066,2.73904 -4.02146,6.07078 -4.02146,7.35855 0,1.9606 4.71525,4.50808 7.04,3.80345 0.528,-0.16003 2.16119,-0.82657 3.62932,-1.48118 z"
       id="path2283"
       inkscape:connector-curvature="0" />
    <path
       style="fill:#ed9659;stroke-width:0.63999999"
       d="m 411.8874,542.00296 c -0.99572,-0.78323 -1.57655,-1.74445 -1.37364,-2.27323 0.19336,-0.50391 0.0803,-0.74855 -0.25123,-0.54364 -0.33154,0.2049 -0.90181,-0.73791 -1.26728,-2.09514 -0.64812,-2.40695 -0.76309,-2.48595 -4.66987,-3.20908 -2.20296,-0.40775 -7.42866,-1.71785 -11.61265,-2.91132 l -7.60726,-2.16994 -3.90066,1.58497 c -9.39723,3.81844 -22.80135,4.84758 -64.08481,4.92031 -33.32478,0.0587 -34.67378,-0.0451 -50.29964,-3.87206 l -6.77963,-1.66039 -8.03896,3.55756 c -4.42143,1.95666 -9.72259,4.05243 -11.78037,4.65727 -4.04774,1.18976 -10.4385,1.50263 -14.78407,0.72376 -1.49746,-0.2684 -2.68736,-0.2684 -2.64421,0 0.32747,2.03688 -1.41332,4.00799 -3.53965,4.00799 -1.99109,0 -3.77973,-2.15676 -3.71373,-4.47808 0.0663,-2.33236 -0.0899,-2.35388 -2.28767,-0.31524 -0.95264,0.88368 -2.10703,1.46299 -2.56531,1.28734 -0.45828,-0.17565 -0.67896,-0.0697 -0.49039,0.23538 0.50993,0.82509 -3.25146,1.40443 -4.94295,0.76132 -2.24071,-0.85191 -3.1678,-2.35844 -3.13015,-5.08652 0.0729,-5.28154 4.77554,-11.62724 9.35141,-12.61871 1.08093,-0.23421 3.01603,-1.37055 4.30024,-2.5252 1.64216,-1.4765 3.44605,-2.32818 6.07999,-2.8706 2.0598,-0.42418 4.03309,-0.84905 4.38509,-0.94418 0.352,-0.0951 -0.13798,-0.48281 -1.08884,-0.86154 -3.03194,-1.20762 -19.70398,-9.66692 -25.0822,-12.72657 -7.80549,-4.44051 -20.53852,-12.9813 -26.37152,-17.68892 -7.16005,-5.77864 -14.31766,-13.56164 -16.41744,-17.85189 -2.86192,-5.84745 -2.23278,-9.24099 2.31922,-12.50968 11.00434,-7.90196 42.96718,-13.20816 91.76078,-15.23337 5.72,-0.23741 10.4,-0.50267 10.4,-0.58945 0,-0.0868 -0.43023,-0.9827 -0.95606,-1.99094 -1.02357,-1.96261 -1.24065,-4.58939 -0.47415,-5.73735 1.21672,-1.82219 3.81725,-2.46572 9.59021,-2.37318 l 5.92,0.0949 v -2.87083 c 0,-1.57896 0.31838,-3.46575 0.70752,-4.19286 1.04504,-1.95266 3.13248,-11.12359 3.13248,-13.76217 0,-1.25799 -0.59145,-6.06375 -1.31432,-10.67946 -0.72287,-4.6157 -2.41078,-16.1682 -3.7509,-25.6722 -1.96385,-13.92742 -2.56332,-16.96957 -3.08981,-15.68 -0.35927,0.88 -2.1334,5.30259 -3.94251,9.82798 -6.29448,15.74532 -10.52205,25.31185 -11.04328,24.98971 -0.28849,-0.17829 -0.36252,0.098 -0.16451,0.61401 0.44015,1.14702 -9.92104,22.71533 -14.49609,30.17571 -1.83963,2.99982 -3.61133,5.22832 -3.97697,5.00235 -0.37161,-0.22967 -0.46708,-0.0964 -0.21875,0.30544 0.58153,0.94094 -3.84143,5.79982 -5.70531,6.26763 -1.66113,0.41691 -4.36202,-0.78187 -3.80224,-1.68761 0.20414,-0.3303 -0.0433,-0.44149 -0.54996,-0.24708 -1.05769,0.40587 -7.19799,-6.36986 -7.05761,-7.78797 0.0483,-0.48751 -0.13681,-0.74762 -0.41125,-0.578 -0.27445,0.16962 -2.09605,-1.63348 -4.04803,-4.00689 -1.95196,-2.3734 -5.56882,-6.30957 -8.03744,-8.74705 -2.46862,-2.43747 -4.314,-4.71397 -4.10083,-5.05888 0.21317,-0.34492 0.10502,-0.45249 -0.24033,-0.23905 -0.34535,0.21344 -2.02381,-0.76543 -3.72991,-2.17527 -3.89828,-3.22136 -11.85272,-8.79536 -15.84009,-11.09981 -1.70906,-0.98772 -2.85668,-2.05385 -2.62111,-2.435 0.23634,-0.38242 0.11677,-0.49119 -0.27428,-0.2495 -0.86358,0.53372 -15.5811,-6.96228 -14.98096,-7.63017 0.24007,-0.26717 0.10248,-0.29465 -0.30576,-0.0611 -0.95887,0.54863 -2.87771,-0.17997 -2.42084,-0.9192 0.19227,-0.31108 -0.0328,-0.41886 -0.50026,-0.2395 -0.4674,0.17936 -2.68517,-0.41966 -4.92838,-1.33116 -2.2432,-0.91149 -4.25174,-1.40519 -4.46341,-1.0971 -0.87615,1.27524 -4.7064,2.23483 -7.75227,1.94215 L 142.72,379.06791 v 3.94989 c 0,9.36176 -4.76271,16.13707 -7.11289,10.11862 -0.64288,-1.64634 0.11442,-8.2801 1.70663,-14.94974 0.29439,-1.23317 0.14411,-1.65334 -0.59137,-1.65334 -0.54234,0 -0.8514,0.2179 -0.68681,0.48421 0.16459,0.26631 -0.26501,1.44231 -0.95466,2.61333 -0.81658,1.38655 -1.46309,4.22059 -1.85367,8.12579 -0.74725,7.4713 -2.01819,8.72141 -5.67155,5.57859 -2.636,-2.26764 -2.33788,-6.11198 0.99383,-12.81584 1.40657,-2.8302 2.45698,-5.24624 2.33425,-5.36898 -0.69396,-0.69397 -4.28328,3.08711 -5.55595,5.85278 -3.22027,6.99805 -4.14402,8.43684 -5.5491,8.64305 -3.18313,0.46718 -4.3167,-9.00687 -1.59296,-13.31355 1.71488,-2.71151 4.21468,-5.1091 4.89107,-4.69106 0.35252,0.21787 0.45717,0.0988 0.23256,-0.26466 -0.40322,-0.65242 4.05014,-4.01699 5.3169,-4.01699 1.59897,0 0.42437,-1.1461 -1.88313,-1.83744 -4.68786,-1.40452 -5.63222,-5.25222 -3.21215,-13.08751 1.34554,-4.35636 3.68478,-7.09321 6.71213,-7.85303 1.92295,-0.48262 4.30702,0.25726 3.74727,1.16294 -0.24817,0.40157 -0.13106,0.50918 0.2786,0.256 0.38873,-0.24024 1.00222,0.11523 1.36331,0.78994 0.53295,0.99581 0.11732,2.04772 -2.20789,5.58791 -3.52777,5.37114 -3.70403,7.44595 -0.78442,9.23349 1.44772,0.88636 2.9845,1.22396 5.0555,1.11059 1.63653,-0.0896 2.86419,-0.34546 2.72813,-0.56861 -0.13605,-0.22315 0.61043,-0.76104 1.65884,-1.1953 2.10731,-0.87288 4.47753,-4.20538 4.47753,-6.29536 0,-0.74869 -0.84032,-1.96658 -1.89487,-2.74624 -1.04218,-0.77051 -1.74722,-1.63984 -1.56676,-1.93182 0.18046,-0.292 -0.0468,-0.39612 -0.50513,-0.23139 -1.15162,0.41395 -6.801,-3.84759 -7.69148,-5.80198 -0.92682,-2.03415 0.23962,-3.3614 3.40568,-3.87518 3.12769,-0.50756 6.87439,0.66602 9.77512,3.06185 2.59732,2.14522 5.50049,7.45162 5.51118,10.07331 0.004,0.95586 0.86825,2.27989 2.2979,3.52 1.40447,1.21828 2.46091,2.82213 2.72886,4.14289 0.43446,2.14142 0.50405,2.17836 10.98836,5.83322 19.46319,6.78491 41.22335,15.86491 49.83743,20.79597 7.21298,4.129 8.38389,4.95387 7.97387,5.61729 -0.22987,0.37193 -0.11929,0.49166 0.24572,0.26607 0.36502,-0.22559 1.40855,0.17576 2.31897,0.89189 l 1.65531,1.30207 0.34151,-1.47078 c 0.18784,-0.80894 2.08651,-11.98279 4.21927,-24.83079 2.13276,-12.848 4.60288,-26.816 5.48917,-31.04 7.74096,-36.89317 15.48624,-55.13423 25.82989,-60.83244 1.584,-0.8726 9.28773,-4.81918 17.11941,-8.77016 l 14.23942,-7.1836 1.09528,-3.2069 c 0.80338,-2.35223 1.10203,-5.39961 1.12059,-11.43433 l 0.0253,-8.22743 -3.55437,-1.10444 c -5.4521,-1.69412 -12.78363,-5.25381 -12.33057,-5.98688 0.23707,-0.38359 0.0837,-0.45441 -0.37299,-0.17218 -1.8406,1.13754 -15.51706,-11.37464 -14.40314,-13.177 0.28347,-0.45867 0.17915,-0.56956 -0.27297,-0.29013 -0.9365,0.57879 -4.02468,-4.24935 -6.34876,-9.92582 -1.60147,-3.91149 -1.94871,-4.323 -3.91802,-4.64316 -7.87353,-1.28002 -12.81094,-13.11213 -11.00841,-26.38073 0.57338,-4.22066 0.97449,-5.31661 2.40666,-6.57562 1.42934,-1.25653 2.17523,-1.44822 4.43167,-1.13894 l 2.71307,0.37186 0.43368,-4.30106 c 0.66486,-6.59388 2.7322,-16.98753 4.92906,-24.78105 2.37108,-8.41156 7.65799,-21.18162 8.6808,-20.96768 0.40052,0.0838 0.57102,-0.25732 0.37889,-0.75801 -0.42937,-1.11893 4.71134,-8.85124 5.54293,-8.33729 0.32879,0.20321 0.44315,-0.0335 0.25413,-0.52614 -0.86909,-2.2648 12.80349,-12.095171 15.42398,-11.089597 0.55046,0.211232 0.84737,0.135744 0.6598,-0.167744 -0.58572,-0.947718 7.35629,-2.165171 13.71456,-2.102342 6.83904,0.06758 13.64547,1.57056 19.35509,4.273933 2.01943,0.95616 3.49467,2.02491 3.2783,2.375 -0.25534,0.41315 -0.53377,0.41671 -0.79339,0.0101 -0.67634,-1.05912 -6.54866,-3.460861 -7.53577,-3.08207 -0.52025,0.19963 -0.75827,0.0781 -0.5397,-0.27552 0.21505,-0.347968 0.15801,-0.656672 -0.12676,-0.686004 C 321.83299,99.117326 320.88,98.929529 320,98.729369 c -0.88,-0.200166 -4.336,-0.379226 -7.68,-0.397914 -5.36663,-0.03002 -6.49301,0.170292 -9.6,1.707025 -12.68454,6.27383 -24.70355,25.08782 -30.12833,47.16149 -1.26809,5.1599 -1.49445,7.72648 -1.49581,16.96 -0.002,12.22042 0.59547,15.44229 4.56773,24.64 8.09395,18.74139 21.9691,32.81111 39.01842,39.56556 7.92051,3.13788 12.7102,4.1633 19.71799,4.22139 6.62662,0.0549 9.07148,-0.29783 13.03331,-1.88051 l 2.32669,-0.92947 -2.11108,1.82407 c -3.29749,2.84918 -11.25373,6.42641 -17.56896,7.89923 l -5.75743,1.34273 0.3086,4.31313 c 0.2202,3.07751 0.71831,4.88851 1.73875,6.32158 0.78658,1.10465 1.49081,2.42174 1.56494,2.92685 0.0741,0.50512 0.3813,1.14273 0.68259,1.41692 0.30335,0.27606 0.30541,0.0701 0.004,-0.46148 -0.29875,-0.528 0.59516,0.0579 1.98646,1.30197 2.50006,2.23553 9.8962,7.01803 10.85339,7.01803 0.27194,0 2.03698,-1.45886 3.9223,-3.24192 5.12758,-4.84946 7.47335,-4.10731 8.96447,2.83615 0.49632,2.31113 0.79372,2.57239 4.51147,3.96324 5.98188,2.23789 15.50787,6.95182 18.60105,9.20472 1.50765,1.09809 3.31337,2.92382 4.01272,4.05717 1.99294,3.22973 4.79375,12.88446 7.05447,24.31757 l 2.07235,10.4805 2.29964,1.23128 c 1.37018,0.73364 2.78138,2.21757 3.49156,3.6715 1.35143,2.76677 1.06991,4.40817 -2.23067,13.0058 l -1.75287,4.56601 2.53547,8.55399 c 1.39451,4.7047 4.98858,17.61595 7.98684,28.69169 2.99824,11.07572 5.58803,20.27436 5.75508,20.44141 0.16705,0.16705 1.74778,-1.11861 3.51274,-2.85702 2.6812,-2.64089 3.32028,-3.00297 3.88562,-2.20142 0.57772,0.81911 0.62682,0.8031 0.33595,-0.10955 -0.2518,-0.79004 1.02636,-1.97828 4.89962,-4.55495 11.17701,-7.43543 24.96064,-14.88343 26.16569,-14.13867 0.42245,0.26109 0.5332,0.15035 0.27212,-0.27208 -0.57305,-0.92722 13.93211,-8.12223 15.01954,-7.45016 0.46233,0.28574 0.61596,0.21593 0.37672,-0.17118 -0.23136,-0.37434 2.393,-1.92636 6.14111,-3.63179 8.79859,-4.00346 8.43936,-3.74006 8.66222,-6.35143 0.13404,-1.5706 0.75403,-2.77845 1.93779,-3.77518 1.32774,-1.11798 1.92247,-2.44383 2.50697,-5.5889 1.58022,-8.50273 6.46388,-13.06283 13.59814,-12.69718 3.09719,0.15873 3.54455,0.35324 3.72437,1.6193 0.28286,1.99151 -1.83918,4.74061 -6.32185,8.18994 -4.41201,3.39497 -4.89341,5.2965 -2.16254,8.54196 2.19111,2.60399 7.83341,4.46396 10.22963,3.37217 0.91647,-0.41758 1.97723,-0.56707 2.35723,-0.33221 0.38414,0.23741 0.50806,0.13112 0.27909,-0.23935 -0.2265,-0.36651 0.0257,-1.02948 0.56042,-1.47327 1.02738,-0.85266 1.1007,-6.36828 0.0819,-6.1645 -0.29244,0.0585 -1.69529,-1.24715 -3.11746,-2.90144 -2.00941,-2.3374 -2.49897,-3.35355 -2.19642,-4.55899 0.48869,-1.94707 3.48567,-3.26182 6.11761,-2.68375 3.73017,0.81929 8.30801,8.6457 8.54586,14.61026 0.0829,2.07879 -0.25089,2.81645 -1.96912,4.35169 -1.13792,1.01672 -2.65739,1.8486 -3.37661,1.8486 -1.93465,0 -0.89913,1.12934 2.49824,2.72458 1.64429,0.77209 4.47157,2.85091 6.28285,4.6196 2.76284,2.6979 3.4228,3.80558 4.09778,6.87768 0.89528,4.07479 0.34703,7.27833 -1.43837,8.40452 -1.47563,0.93081 -3.23014,-0.74195 -5.76345,-5.49493 -1.87728,-3.52242 -5.56692,-7.53143 -6.9313,-7.53143 -0.96271,0 -0.78752,0.4043 1.875,4.32724 5.43775,8.01194 5.25743,14.87276 -0.39089,14.87276 -1.76776,0 -2.26652,-1.10023 -3.33644,-7.36 -0.42114,-2.464 -1.19161,-5.13613 -1.71216,-5.93808 -0.52054,-0.80194 -0.74429,-1.80994 -0.49723,-2.24 0.24706,-0.43005 0.2104,-0.56529 -0.0815,-0.30052 -0.29187,0.26476 -1.05805,0.004 -1.70261,-0.5792 -1.48185,-1.34105 -1.4811,-1.33269 0.39535,4.41566 2.37955,7.28959 2.68193,10.71497 1.11653,12.64817 l -1.28172,1.58285 -1.40915,-1.27444 c -2.20368,-1.99301 -3.77635,-5.63801 -4.43292,-10.27424 -0.33152,-2.34095 -0.71122,-4.36472 -0.84378,-4.49729 -0.13257,-0.13256 -1.22564,0.0413 -2.42907,0.38651 -1.60581,0.46053 -3.19362,0.3699 -5.96709,-0.34064 l -3.77906,-0.96814 -5.51051,2.97123 c -3.03079,1.63417 -7.47255,4.23639 -9.87058,5.78269 -2.39804,1.5463 -4.67454,2.61711 -5.05889,2.37957 -0.39456,-0.24386 -0.51752,-0.13855 -0.28241,0.24186 0.23092,0.37364 -1.07917,1.62818 -2.94111,2.8164 -6.98235,4.45585 -21.30702,17.61438 -25.85524,23.75042 -1.24048,1.67354 -2.56247,2.85305 -2.93774,2.62112 -0.39211,-0.24234 -0.49608,-0.12036 -0.24445,0.28679 0.24082,0.38966 -0.58207,2.04466 -1.82865,3.67778 -1.24659,1.63311 -3.01053,4.23885 -3.91988,5.79054 -0.92291,1.57482 -1.95289,2.63611 -2.33135,2.40221 -0.40228,-0.24862 -0.4892,-0.11356 -0.21375,0.33213 0.51278,0.82971 -5.4154,8.67456 -7.32916,9.69877 -1.51997,0.81346 -3.36564,0.81036 -2.86184,-0.005 0.22048,-0.35673 -0.0237,-0.47352 -0.55988,-0.26778 -1.24911,0.47933 -6.97123,-4.7587 -6.5104,-5.95962 0.18709,-0.48752 0.0973,-0.73632 -0.19948,-0.55289 -0.85405,0.52783 -3.48478,-2.62716 -2.93387,-3.51854 0.29796,-0.48212 0.22084,-0.62243 -0.19937,-0.36272 -0.76722,0.47416 -7.6862,-9.73754 -14.6797,-21.66578 -5.92785,-10.11062 -6.72992,-11.74032 -6.20004,-12.59768 0.25973,-0.42025 0.15876,-0.54315 -0.2425,-0.29516 -0.84391,0.52156 -4.76843,-6.49653 -4.20117,-7.51281 0.27039,-0.48442 0.17471,-0.50835 -0.29725,-0.0743 -0.64242,0.59076 -23.25007,54.21507 -22.97337,54.49178 0.0678,0.0678 1.7069,-0.28933 3.64243,-0.79363 6.16863,-1.60723 11.29993,-2.22981 13.01229,-1.57877 4.21537,1.60268 1.95948,7.13222 -5.33316,13.07239 -1.232,1.00352 -1.69433,1.64295 -1.02741,1.42096 6.05372,-2.01501 31.215,-3.17239 59.26741,-2.72619 42.79649,0.68071 59.71422,2.8887 65.03735,8.48826 8.07552,8.49487 -3.60743,23.86721 -33.99735,44.73349 -12.16272,8.35115 -30.29225,18.79068 -31.88757,18.36182 -0.29016,-0.078 -0.34226,0.15802 -0.11577,0.52448 0.22648,0.36646 0.63582,0.52783 0.90963,0.35861 0.78924,-0.48777 3.78795,2.99242 4.6098,5.34996 0.41161,1.18076 1.87753,3.16695 3.25758,4.41375 1.38006,1.24679 2.92255,3.06624 3.42777,4.04322 1.04581,2.02238 1.2452,5.31729 0.28589,4.72441 -0.35565,-0.21981 -0.4741,0.0222 -0.27051,0.55274 0.19918,0.51907 -0.23612,1.54203 -0.96733,2.27324 -1.87226,1.87226 -6.02128,1.76136 -10.02102,-0.26783 -1.73165,-0.87853 -3.22047,-1.59853 -3.30847,-1.6 -0.088,-10e-4 -0.16,0.87562 -0.16,1.9491 0,1.07348 -0.43939,2.80148 -0.97643,3.84 -1.20149,2.32342 -3.78259,2.5398 -6.33616,0.53116 z m -31.40741,-15.28294 c -0.21754,-0.352 -0.73854,-0.63559 -1.15777,-0.63021 -0.45799,0.006 -0.37905,0.25743 0.19777,0.63021 1.22952,0.79458 1.45108,0.79458 0.96,0 z m -110.04232,-2.27531 c 1.1714,-0.93848 1.15098,-0.9518 -0.35767,-0.23331 -1.95906,0.933 -2.32214,1.22862 -1.509,1.22862 0.3434,0 1.1834,-0.44789 1.86667,-0.99531 z m 99.48232,-1.50674 c -0.528,-0.29872 -1.68,-0.71911 -2.56,-0.93419 -1.33366,-0.32597 -1.28039,-0.23713 0.32,0.53371 2.05103,0.9879 3.84532,1.3087 2.24,0.40048 z m -151.59836,-1.81795 c 0.79608,-1.01508 0.77344,-1.03772 -0.24163,-0.24164 -0.616,0.4831 -1.12,0.9871 -1.12,1.12 0,0.52674 0.52556,0.18772 1.36163,-0.87836 z m 57.81103,0.52422 c 0.20252,-0.32768 0.12351,-0.74701 -0.17556,-0.93185 -0.29908,-0.18483 -0.54377,0.0833 -0.54377,0.59578 0,1.07915 0.20181,1.17343 0.71933,0.33607 z m 82.054,-3.53607 c 0,-0.51252 -0.24469,-0.78061 -0.54377,-0.59578 -0.29907,0.18484 -0.37808,0.60417 -0.17556,0.93185 0.51752,0.83736 0.71933,0.74308 0.71933,-0.33607 z m 2.77333,-2.65705 c 0,-0.52968 -1.2427,-0.82922 -1.52762,-0.36821 -0.18484,0.29908 0.0833,0.54377 0.59578,0.54377 0.51251,0 0.93184,-0.079 0.93184,-0.17556 z m -100.65333,-1.91777 c -0.21266,-0.21267 -0.76467,-0.2354 -1.22666,-0.0505 -0.51055,0.2043 -0.3589,0.35596 0.38666,0.38666 0.67467,0.0278 1.05267,-0.12347 0.84,-0.33614 z m -2.56,-0.64 c -0.21266,-0.21267 -0.76467,-0.2354 -1.22666,-0.0505 -0.51055,0.2043 -0.3589,0.35596 0.38666,0.38666 0.67467,0.0278 1.05267,-0.12347 0.84,-0.33614 z m 117.76,-4.48 c -0.21266,-0.21267 -0.76467,-0.2354 -1.22667,-0.0505 -0.51054,0.2043 -0.3589,0.35596 0.38667,0.38666 0.67467,0.0278 1.05267,-0.12347 0.84,-0.33614 z m -249.134,-136.52911 c 0.20253,-0.32768 0.12352,-0.74701 -0.17555,-0.93185 -0.29908,-0.18484 -0.54378,0.0833 -0.54378,0.59578 0,1.07914 0.20182,1.17343 0.71933,0.33607 z m 146.13183,-32.73628 c 2.85202,-1.22378 3.52274,-1.12408 7.17551,1.06658 3.59582,2.15651 11.02982,-0.20047 16.21762,-5.14188 2.87878,-2.74205 7.46238,-8.27106 7.46238,-9.00156 0,-0.23842 0.53544,-1.19796 1.18988,-2.13229 2.67969,-3.82582 10.63487,-20.4061 13.0979,-27.2988 3.28379,-9.18957 3.78475,-11.3884 3.86818,-16.97835 0.0986,-6.6081 -0.95573,-8.70051 -5.09709,-10.11537 -2.14459,-0.73268 -3.36088,-0.699 -8.57887,0.23753 -22.125,3.97099 -36.83597,10.07073 -45.49858,18.86548 -4.37892,4.44572 -7.00542,9.69364 -9.18223,18.34669 -4.38973,17.44969 0.15678,32.14365 10.36965,33.5138 3.58278,0.48067 5.28288,0.22272 8.97565,-1.36183 z m 8.88217,-6.13462 c -0.66071,-0.6607 -0.50336,-3.29039 0.22377,-3.73978 0.35774,-0.2211 0.52925,-0.59809 0.38112,-0.83777 -0.14813,-0.23968 0.54317,-0.43578 1.53623,-0.43578 0.99305,0 1.69568,0.10987 1.5614,0.24415 -0.13429,0.13428 0.0497,0.79316 0.40879,1.46418 1.03959,1.94249 0.12171,3.73167 -1.91444,3.73167 -0.97361,0 -1.9622,-0.192 -2.19687,-0.42667 z m 80.21333,-116.69333 c 0.37677,-0.704 0.82904,-1.28 1.00504,-1.28 0.176,0 0.0117,0.576 -0.36504,1.28 -0.37676,0.704 -0.82903,1.28 -1.00503,1.28 -0.176,0 -0.0117,-0.576 0.36503,-1.28 z M 300.8,210.63985 c -2.64856,-0.87201 -6.75155,-3.12112 -7.63442,-4.18492 -0.97062,-1.16953 -0.48116,-2.93492 0.81372,-2.93492 0.49471,0 2.28295,0.77324 3.97387,1.71831 3.11915,1.74332 3.89454,1.81979 13.08683,1.29063 1.80574,-0.10395 2.27498,0.1192 2.42046,1.15106 0.10892,0.77255 -0.39247,1.63513 -1.26473,2.1758 -1.683,1.04322 -9.06576,1.55115 -11.39573,0.78404 z m 65.33052,-7.49317 c 0.0307,-0.74557 0.18236,-0.89722 0.38666,-0.38667 0.18488,0.46199 0.16215,1.014 -0.0505,1.22667 -0.21267,0.21266 -0.36393,-0.16534 -0.33614,-0.84 z m 1.40489,-3.05755 c 0.55292,-0.96487 0.80772,-5.89531 0.86293,-16.69821 l 0.0784,-15.32908 2.6752,-0.97541 c 2.37194,-0.86484 2.86728,-0.8676 4.36961,-0.0244 3.48943,1.95856 4.32389,4.58272 4.26681,13.41794 -0.0556,8.59803 -0.78645,11.65822 -3.83772,16.06782 -1.65313,2.38906 -3.5879,3.58871 -7.13518,4.42417 -1.97359,0.46483 -2.03001,0.42591 -1.28,-0.88287 z M 281.088,170.11201 c -1.80515,-1.80515 -0.18682,-4.27958 4.352,-6.65421 3.22249,-1.68596 10.58568,-1.66102 13.14545,0.0445 1.04199,0.69429 2.03855,1.22229 2.21455,1.17334 0.176,-0.049 0.32,0.55901 0.32,1.35101 0,1.86146 -1.1898,2.07501 -7.55335,1.35577 -4.27015,-0.48263 -7.81037,0.43072 -8.79408,2.26882 -0.74239,1.38714 -2.53412,1.6112 -3.68457,0.46074 z m 60.73136,-1.02206 c -1.77357,-1.40702 -2.78905,-1.71474 -5.44,-1.64849 -1.79265,0.0448 -4.16691,0.28932 -5.27613,0.54336 -1.71984,0.3939 -2.08167,0.25737 -2.45768,-0.92732 -0.27905,-0.87921 -0.0841,-1.78356 0.53116,-2.46336 0.53464,-0.59077 0.98933,-1.33805 1.01043,-1.66062 0.0721,-1.1029 7.33831,-1.1458 10.32786,-0.061 1.56475,0.56781 3.27699,1.11722 3.80499,1.22093 0.528,0.1037 0.97021,0.4491 0.98269,0.76754 0.0125,0.31845 0.38842,1.23787 0.83545,2.04316 0.99373,1.79015 0.40296,3.98664 -1.06126,3.94578 -0.59228,-0.0165 -2.05816,-0.80853 -3.25751,-1.76 z m -65.01483,-18.68262 c -0.22422,-0.36279 0.0327,-0.47008 0.60222,-0.25152 1.10875,0.42546 1.31161,0.88419 0.39102,0.88419 -0.33123,0 -0.77819,-0.2847 -0.99324,-0.63267 z m 1.70025,-0.64733 c -0.5432,-0.4092 -0.87888,-2.3602 -0.82102,-4.77176 0.025,-1.04047 -0.30767,-2.14763 -0.73919,-2.46037 -0.53621,-0.38861 -0.43652,-0.45705 0.31493,-0.21619 0.60473,0.19383 1.2845,0.0531 1.51059,-0.31273 0.87679,-1.41868 7.2693,-4.99138 10.73204,-5.99803 4.5235,-1.31502 8.75107,-1.11777 9.90165,0.46197 0.46409,0.63719 1.18409,0.96353 1.6,0.72521 0.41592,-0.23832 0.56654,-0.22146 0.3347,0.0374 -0.23182,0.25893 -0.18323,1.30156 0.10797,2.31695 0.68416,2.38552 -0.48348,6.2395 -2.04005,6.73353 -0.65175,0.20686 -1.03211,0.62347 -0.84526,0.92581 0.18686,0.30233 0.003,0.7581 -0.40959,1.01281 -0.46798,0.28922 -0.57787,0.18568 -0.29267,-0.27578 0.81267,-1.31493 -4.54838,-0.8345 -9.59603,0.85994 -4.25238,1.42748 -8.574,1.85316 -9.75807,0.96117 z m 58.2173,-0.95694 c -2.24285,-0.88168 -4.84277,-1.60306 -5.77759,-1.60306 -0.93483,0 -2.39048,-0.48384 -3.23478,-1.07521 -1.44512,-1.0122 -1.51016,-1.01026 -1.10973,0.0332 0.23747,0.61886 0.16389,0.94687 -0.16659,0.74262 -0.32557,-0.20122 -0.59099,-0.86417 -0.58982,-1.47324 10e-4,-0.60907 -0.19131,-2.27347 -0.42773,-3.69867 -0.37372,-2.2529 -0.19128,-2.87544 1.39715,-4.76751 1.33458,-1.58968 1.51618,-2.0576 0.67376,-1.73606 -0.63428,0.2421 -0.99883,0.19034 -0.81011,-0.11502 0.99831,-1.61528 12.26535,1.37019 16.70888,4.42742 1.48041,1.01855 2.91847,1.64728 3.19568,1.39718 0.27721,-0.25011 0.32306,-0.13717 0.1019,0.25097 -0.22115,0.38814 0.0115,1.25214 0.51704,1.92 1.15782,1.5296 1.21387,4.14226 0.12094,5.63693 -1.38192,1.88988 -5.87989,1.91552 -10.599,0.0604 z m 23.35698,-8.3478 c -0.61759,-1.6094 -0.4354,-2.02467 0.31906,-0.72726 0.37356,0.6424 0.54438,1.30283 0.3796,1.46761 -0.16478,0.16478 -0.47918,-0.16838 -0.69866,-0.74035 z m -1.28,-3.84 c -0.61759,-1.6094 -0.4354,-2.02467 0.31906,-0.72726 0.37356,0.6424 0.54438,1.30283 0.3796,1.46761 -0.16478,0.16478 -0.47918,-0.16838 -0.69866,-0.74035 z M 346.94424,116.2909 c -0.80954,-1.34804 -0.79591,-1.36168 0.30614,-0.30613 0.63438,0.60762 1.01566,1.24252 0.84729,1.41089 -0.16837,0.16837 -0.68741,-0.32877 -1.15343,-1.10476 z m -4.28505,-4.4509 -1.2192,-1.44 1.44,1.2192 c 1.35325,1.14574 1.73136,1.6608 1.2192,1.6608 -0.12145,0 -0.76945,-0.648 -1.44,-1.44 z m -4.44532,-3.72227 c -0.83382,-1.34914 -5.58792,-4.4057 -6.23271,-4.0072 -0.38291,0.23665 -0.46502,0.0935 -0.196,-0.3418 0.33899,-0.5485 0.97291,-0.44781 2.3676,0.37606 1.93419,1.14255 5.62004,4.65521 4.88475,4.65521 -0.22109,0 -0.59172,-0.30702 -0.82364,-0.68227 z"
       id="path2281"
       inkscape:connector-curvature="0" />
    <path
       style="fill:#fc6b01;stroke-width:0.63999999"
       d="m 290.24,535.24254 c -7.85513,-0.68212 -23.63805,-3.62905 -27.84,-5.19819 -1.45245,-0.54239 -0.83554,-0.96076 6.6896,-4.5367 l 8.28959,-3.93922 -3.48959,-2.51348 c -10.66226,-7.67978 -25.68314,-8.99995 -44.1296,-3.87849 -2.87107,0.79712 -2.90711,0.78664 -11.6197,-3.3782 -31.9903,-15.29219 -57.55355,-34.9044 -61.71641,-47.34902 -1.19855,-3.58302 -0.89028,-5.3666 1.3975,-8.08546 6.65392,-7.90775 40.24225,-14.43214 84.09861,-16.3358 4.752,-0.20626 11.29354,-0.53904 14.53676,-0.73949 l 5.89676,-0.36444 -0.97612,-1.48975 c -0.60135,-0.91777 -0.89957,-2.54835 -0.77676,-4.24704 0.26666,-3.68831 1.70864,-4.36568 9.31936,-4.37781 l 5.92,-0.009 v -2.10218 c 0,-1.1562 0.54355,-3.6762 1.20789,-5.6 0.66434,-1.9238 1.71183,-5.80182 2.32777,-8.61782 4.79672,-21.9303 15.71673,-57.21774 25.0231,-80.86081 13.1033,-33.28929 25.45171,-55.27182 38.37862,-68.32132 2.84757,-2.87456 5.83342,-5.4347 6.63523,-5.68918 2.08675,-0.66231 3.84741,1.36399 4.38555,5.04723 l 0.44183,3.02403 4.78466,1.92083 c 13.77784,5.53122 20.54935,9.68357 22.68981,13.91358 2.25115,4.44874 3.99722,10.72418 6.73913,24.22062 1.40874,6.93424 2.22139,9.63614 3.03927,10.10502 0.61401,0.352 2.0593,1.5472 3.21176,2.656 1.57944,1.51961 2.09537,2.56432 2.09537,4.24291 0,2.62373 -5.1926,17.71079 -11.0622,32.14109 -8.56988,21.06894 -9.99774,24.48633 -11.25298,26.93241 -0.70774,1.37918 -3.49778,7.83559 -6.20009,14.34759 -2.70231,6.512 -6.06329,14.576 -7.46884,17.92 -5.54423,13.19051 -8.22968,19.99954 -7.98446,20.24477 0.14123,0.14123 2.76356,-0.33858 5.82739,-1.06624 3.071,-0.72936 7.06271,-1.23675 8.8959,-1.13077 3.12897,0.1809 3.33763,0.30021 3.53444,2.02104 0.33198,2.90291 -1.05766,5.32104 -5.25778,9.14911 -3.58827,3.27042 -3.75277,3.53213 -1.99138,3.16809 17.60608,-3.63872 77.0635,-3.65016 105.28,-0.0203 15.28754,1.96667 20.48,4.96715 20.48,11.83445 0,5.22518 -3.04671,10.14827 -11.47134,18.5362 -11.74933,11.69814 -30.01659,24.61632 -50.11273,35.43855 -4.69536,2.52855 -5.79588,2.8938 -6.91487,2.29493 -0.73193,-0.39172 -3.01429,-0.98333 -5.0719,-1.3147 -2.05761,-0.33137 -5.59514,-1.4701 -7.86118,-2.5305 -5.75047,-2.69097 -11.71969,-3.8006 -20.51496,-3.81355 -8.91779,-0.0131 -15.7623,1.22515 -21.57302,3.90289 -4.13711,1.9065 -8.96,5.8732 -8.96,7.36937 0,0.84547 6.33353,3.45618 17.70689,7.29888 9.75631,3.29634 9.89361,3.39048 6.76843,4.64093 -8.62303,3.45026 -16.82513,4.23509 -51.67532,4.94463 -28.24463,0.57506 -34.92271,0.60783 -39.67999,0.19471 z m -8.27871,-202.6532 c -0.96406,-0.70493 -1.03598,-1.08867 -0.41981,-2.24 1.04742,-1.95711 3.13163,-1.79772 3.65295,0.27936 0.27724,1.10464 0.11911,1.8585 -0.46781,2.2302 -1.18005,0.74734 -1.40458,0.72545 -2.76533,-0.26956 z M 299.2,209.52494 c -3.5225,-1.28518 -6.36555,-3.69769 -5.87232,-4.98304 0.33936,-0.88435 0.90637,-0.76154 4.19151,0.90785 4.04852,2.0573 6.6631,2.39844 12.1464,1.58476 3.1458,-0.46682 3.4067,-0.41025 3.19433,0.6925 -0.1272,0.66047 -0.94871,1.56384 -1.8256,2.00749 -2.11768,1.07143 -8.63986,0.95594 -11.83432,-0.20956 z m 43.37117,-40.19911 c -2.83921,-2.38904 -6.17854,-3.04394 -9.59925,-1.88258 -3.49623,1.187 -4.58982,0.53841 -3.6419,-2.15995 0.87461,-2.48966 4.56002,-3.64735 8.75026,-2.74871 5.57835,1.19635 8.15971,3.19408 8.15971,6.31487 0,1.92256 -1.68943,2.14192 -3.66882,0.47637 z m -61.31366,0.2378 c -2.33849,-3.78377 7.85054,-8.77327 14.3448,-7.02455 3.30458,0.88984 5.53208,2.70638 5.00449,4.08124 -0.46256,1.20541 -2.29011,1.34053 -5.62007,0.41551 -3.00802,-0.8356 -7.916,0.0915 -9.78643,1.84873 -1.55961,1.46518 -3.27441,1.76052 -3.94279,0.67907 z m -1.02802,-20.33038 c -1.78518,-0.89134 -2.18311,-1.47917 -2.34783,-3.46827 -0.15992,-1.93117 0.13971,-2.70832 1.54704,-4.0126 4.38652,-4.06528 13.71583,-7.00813 18.4501,-5.8199 1.82054,0.45693 3.5612,3.31385 3.5612,5.84497 0,2.69814 -3.12182,5.35224 -6.24475,5.30913 -1.41954,-0.0196 -4.5552,0.59646 -6.96812,1.36899 -2.41293,0.77253 -4.71586,1.50502 -5.11764,1.62776 -0.40178,0.12274 -1.69778,-0.25979 -2.88,-0.85008 z m 58.3305,-0.21722 c -1.936,-0.73579 -5.00509,-1.66442 -6.82021,-2.06362 -4.46053,-0.98099 -5.98517,-2.45758 -5.95943,-5.7716 0.0222,-2.85704 0.79161,-4.23193 3.03795,-5.42858 1.17201,-0.62434 2.24002,-0.57739 5.44,0.23912 6.7167,1.71384 11.09341,4.46723 13.03548,8.20064 1.25257,2.40792 0.55192,4.21724 -2.0549,5.30644 -2.66984,1.11553 -2.42859,1.13295 -6.67889,-0.4824 z"
       id="path2279"
       inkscape:connector-curvature="0" />
    <path
       style="fill:#da4500;stroke-width:0.63999999"
       d="m 290.24,535.24254 c -7.85513,-0.68212 -23.63805,-3.62905 -27.84,-5.19819 -1.45245,-0.54239 -0.83554,-0.96076 6.6896,-4.5367 l 8.28959,-3.93922 -3.48959,-2.51348 c -9.78756,-7.04975 -25.04375,-8.89503 -40.48277,-4.89651 -4.24893,1.10042 -6.72713,1.44915 -7.68,1.08073 -4.13926,-1.60042 -17.09023,-8.05245 -23.73063,-11.82234 -25.24351,-14.33123 -42.17375,-28.80779 -45.57231,-38.96759 -1.19855,-3.58302 -0.89028,-5.3666 1.3975,-8.08546 6.65392,-7.90775 40.24225,-14.43214 84.09861,-16.3358 4.752,-0.20626 11.29354,-0.53904 14.53676,-0.73949 l 5.89676,-0.36444 -0.97612,-1.48975 c -0.60135,-0.91777 -0.89957,-2.54835 -0.77676,-4.24704 0.26577,-3.67584 1.71696,-4.36565 9.20995,-4.37781 l 5.81061,-0.009 1.54939,3.36 c 1.90877,4.13931 9.72223,12.1001 14.82738,15.10695 14.97555,8.82038 28.52766,8.53371 45.60202,-0.96462 6.08266,-3.38373 15.04,-10.01174 15.04,-11.12888 0,-0.89525 11.67677,-3.26726 15.04,-3.05521 2.80221,0.17668 3.22649,0.38886 3.41305,1.70685 0.48973,3.45982 -1.99401,7.28274 -7.25305,11.16378 l -2.56,1.88922 2.24,-0.39623 c 20.7905,-3.6776 77.14373,-3.69687 105.6,-0.0361 15.28754,1.96666 20.48,4.96715 20.48,11.83444 0,5.22519 -3.04671,10.14828 -11.47134,18.5362 -11.71543,11.66439 -30.02823,24.62338 -49.9717,35.3623 l -5.44304,2.93091 -3.51696,-1.2139 c -1.93433,-0.66764 -4.31717,-1.2233 -5.29521,-1.23479 -0.97803,-0.0115 -3.42603,-0.85081 -5.44,-1.86515 -10.95146,-5.51574 -30.41461,-5.51654 -42.38175,-0.002 -4.13711,1.9065 -8.96,5.8732 -8.96,7.36937 0,0.84547 6.33353,3.45619 17.70689,7.29888 9.75631,3.29634 9.89361,3.39048 6.76843,4.64094 -8.62303,3.45026 -16.82513,4.23508 -51.67532,4.94462 -28.24463,0.57506 -34.92271,0.60783 -39.67999,0.19472 z m 46.38573,-108.69972 c -0.99242,-1.19579 -0.76273,-2.29335 3.01,-14.38281 2.66484,-8.53931 6.41967,-17.3739 12.4204,-29.22351 4.57622,-9.03666 7.72948,-13.34922 11.66488,-15.95355 3.28005,-2.17063 4.55013,-1.6679 4.1083,1.62616 -0.31133,2.32106 -3.30531,9.54059 -4.25941,10.2709 -0.22993,0.176 -2.19751,3.11507 -4.3724,6.53127 -6.53459,10.26423 -9.80609,17.37739 -15.98168,34.74873 -2.22156,6.24905 -2.68378,7.06162 -4.11407,7.23236 -0.90935,0.10856 -1.98803,-0.26155 -2.47602,-0.84955 z m -38.37557,-4.45056 c -0.68602,-0.8266 -0.63989,-2.03947 0.26268,-6.90745 1.78698,-9.63801 5.44818,-24.80883 7.37144,-30.5448 0.29506,-0.88 1.32036,-4.192 2.27845,-7.36 2.13664,-7.06494 8.19384,-24.95417 11.81019,-34.88 1.47484,-4.048 2.97968,-8.368 3.34409,-9.6 1.53775,-5.19879 8.00784,-20.80861 12.1024,-29.19837 4.03424,-8.26618 10.93267,-18.88302 15.22325,-23.42889 3.01038,-3.1895 7.75733,-1.81024 7.75733,2.25396 0,2.96317 -3.82897,11.73368 -8.84712,20.26491 -2.61899,4.45249 -13.55288,26.43752 -13.55288,27.25112 0,0.20212 -0.54616,1.5757 -1.2137,3.05238 -2.04343,4.52036 -4.59579,10.73665 -6.61783,16.11784 -1.05961,2.81988 -2.63483,6.99905 -3.50048,9.28705 -0.86565,2.288 -4.24653,12.08 -7.51305,21.76 -10.22207,30.29196 -15.0368,42.35025 -17.06599,42.74103 -0.55366,0.10663 -1.38111,-0.25732 -1.83878,-0.80878 z m 28.51555,-19.25796 c -0.55315,-0.55314 -1.00572,-1.4127 -1.00572,-1.91013 0,-0.85401 5.79842,-17.69799 7.03776,-20.44416 0.31771,-0.704 1.7882,-4.448 3.26775,-8.32 6.06401,-15.86961 15.6504,-34.01912 22.50114,-42.60047 5.67844,-7.11289 9.66026,-11.46529 10.82827,-11.836 1.34923,-0.42823 3.43399,0.59477 3.94944,1.93801 0.72232,1.88233 -4.87963,12.23445 -15.09551,27.89572 -1.96506,3.01248 -4.17279,6.54544 -4.90609,7.851 -3.74484,6.66739 -11.77242,22.52334 -13.82743,27.31174 -1.28405,2.992 -2.7236,6.304 -3.19899,7.36 -0.47538,1.056 -1.88832,4.3481 -3.13987,7.31577 -2.77082,6.57017 -4.12786,7.7214 -6.41075,5.43852 z m -44.80442,-70.24496 c -0.96406,-0.70493 -1.03598,-1.08867 -0.41981,-2.24 1.04742,-1.95711 3.13163,-1.79772 3.65295,0.27936 0.27724,1.10464 0.11911,1.8585 -0.46781,2.2302 -1.18005,0.74734 -1.40458,0.72545 -2.76533,-0.26956 z M 299.2,209.52494 c -3.5225,-1.28518 -6.36555,-3.69769 -5.87232,-4.98304 0.33936,-0.88435 0.90637,-0.76154 4.19151,0.90785 4.04852,2.0573 6.6631,2.39844 12.1464,1.58476 3.1458,-0.46682 3.4067,-0.41025 3.19433,0.6925 -0.1272,0.66047 -0.94871,1.56384 -1.8256,2.00749 -2.11768,1.07143 -8.63986,0.95594 -11.83432,-0.20956 z m 43.37117,-40.19911 c -2.83921,-2.38904 -6.17854,-3.04394 -9.59925,-1.88258 -3.49623,1.187 -4.58982,0.53841 -3.6419,-2.15995 0.87461,-2.48966 4.56002,-3.64735 8.75026,-2.74871 5.57835,1.19635 8.15971,3.19408 8.15971,6.31487 0,1.92256 -1.68943,2.14192 -3.66882,0.47637 z m -61.31366,0.2378 c -2.33849,-3.78377 7.85054,-8.77327 14.3448,-7.02455 3.30458,0.88984 5.53208,2.70638 5.00449,4.08124 -0.46256,1.20541 -2.29011,1.34053 -5.62007,0.41551 -3.00802,-0.8356 -7.916,0.0915 -9.78643,1.84873 -1.55961,1.46518 -3.27441,1.76052 -3.94279,0.67907 z m -1.02802,-20.33038 c -1.78518,-0.89134 -2.18311,-1.47917 -2.34783,-3.46827 -0.15992,-1.93117 0.13971,-2.70832 1.54704,-4.0126 4.38652,-4.06528 13.71583,-7.00813 18.4501,-5.8199 1.82054,0.45693 3.5612,3.31385 3.5612,5.84497 0,2.69814 -3.12182,5.35224 -6.24475,5.30913 -1.41954,-0.0196 -4.5552,0.59646 -6.96812,1.36899 -2.41293,0.77253 -4.71586,1.50502 -5.11764,1.62776 -0.40178,0.12274 -1.69778,-0.25979 -2.88,-0.85008 z m 58.3305,-0.21722 c -1.936,-0.73579 -5.00509,-1.66442 -6.82021,-2.06362 -4.46053,-0.98099 -5.98517,-2.45758 -5.95943,-5.7716 0.0222,-2.85704 0.79161,-4.23193 3.03795,-5.42858 1.17201,-0.62434 2.24002,-0.57739 5.44,0.23912 6.7167,1.71384 11.09341,4.46723 13.03548,8.20064 1.25257,2.40792 0.55192,4.21724 -2.0549,5.30644 -2.66984,1.11553 -2.42859,1.13295 -6.67889,-0.4824 z"
       id="path2277"
       inkscape:connector-curvature="0" />
    <path
       style="fill:#ca3b00;stroke-width:0.63999999"
       d="m 290.24,535.24254 c -4.78523,-0.41553 -15.98197,-2.22631 -21.12,-3.41559 -9.11025,-2.10873 -9.11358,-1.78266 0.0642,-6.2929 l 8.15097,-4.00563 -3.1476,-2.27817 c -7.50518,-5.4321 -15.85897,-7.53777 -28.3494,-7.14581 -4.44301,0.13943 -6.9262,0.0524 -5.5182,-0.1934 1.408,-0.24581 4.288,-0.7501 6.4,-1.12066 7.37663,-1.29425 14.09253,-1.52151 20.83745,-0.70512 8.23696,0.99699 8.38116,1.01865 9.56255,1.43691 0.528,0.18693 2.832,0.97695 5.12,1.75559 5.08659,1.73103 13.52263,5.91305 16.89641,8.3761 1.37303,1.00239 2.74816,1.66693 3.05586,1.47677 0.30769,-0.19017 0.4803,-0.1033 0.38358,0.19303 -0.0967,0.29632 2.22294,2.90973 5.15481,5.80757 l 5.33067,5.26879 h 6.44749 6.44749 l 3.2852,-3.04 c 5.69551,-5.27044 7.70661,-6.95013 11.28082,-9.42187 1.91272,-1.32273 3.40912,-2.64956 3.32534,-2.94851 -0.0838,-0.29896 0.2471,-0.39029 0.73527,-0.20296 0.48817,0.18733 1.10521,-0.0115 1.3712,-0.44191 0.32964,-0.53337 0.21688,-0.61766 -0.35415,-0.26475 -0.55851,0.34517 -0.68339,0.26799 -0.37466,-0.23156 0.25471,-0.41212 0.74382,-0.57583 1.08692,-0.36378 0.3431,0.21204 0.9712,0.0983 1.39578,-0.25264 1.34453,-1.11151 12.15475,-6.30413 15.65196,-7.51832 1.848,-0.64161 3.36,-1.38863 3.36,-1.66005 0,-0.27141 0.37665,-0.34895 0.83699,-0.1723 0.46035,0.17665 2.69235,-0.1315 4.96,-0.68478 2.33684,-0.57015 8.00467,-1.1144 13.08301,-1.25628 l 8.96,-0.25032 -7.36,0.54292 c -13.9129,1.0263 -23.00594,4.0355 -28.20655,9.33454 -1.51449,1.54315 -2.62758,2.91895 -2.47353,3.05732 0.35647,0.3202 15.96616,6.1823 22.58735,8.48251 4.8543,1.68639 4.97245,1.7752 3.43404,2.58126 -2.9183,1.52904 -10.94293,3.377 -17.74131,4.08556 -9.7243,1.01351 -66.84405,2.13847 -74.55999,1.46844 z m 33.55934,-18.92252 c -1.77856,-4.42543 -7.30733,-13.75532 -10.06277,-16.98111 -5.2693,-6.16874 -12.41769,-11.12218 -20.93657,-14.50788 -2.464,-0.97928 -5.056,-2.04333 -5.76,-2.36457 -1.31173,-0.59853 -4.22665,-1.46684 -13.76,-4.09887 -5.16795,-1.42681 -9.7738,-2.37515 -36.90957,-7.59965 -11.86952,-2.28526 -20.69043,-5.09985 -20.69043,-6.60192 0,-2.09071 7.82963,-2.69694 18.48746,-1.43146 3.0319,0.36 9.08606,1.08248 13.45369,1.60551 4.36765,0.52302 8.08086,0.81126 8.25161,0.64051 0.17074,-0.17074 -0.0908,-0.4295 -0.58116,-0.57502 -14.86858,-4.41225 -23.09837,-7.74494 -23.82933,-9.6498 -0.16711,-0.4355 -0.051,-1.1977 0.25797,-1.69378 0.4412,-0.70831 2.31786,-0.88112 8.74079,-0.80487 7.34656,0.0872 12.28617,0.62418 25.77897,2.80235 11.79147,1.90352 12.40516,1.87097 9.53502,-0.50571 -1.63858,-1.35685 -6.63422,-8.77403 -7.57355,-11.24466 -1.18734,-3.12295 -0.89314,-4.2747 1.07853,-4.2223 0.968,0.0257 2.5387,0.52973 3.49046,1.12 26.80946,16.62704 42.54973,21.58624 58.22769,18.34544 7.48972,-1.5482 12.66508,-3.89465 21.51046,-9.75263 2.91974,-1.93363 5.47725,-3.34705 5.68338,-3.14093 0.58413,0.58413 -3.04933,4.55505 -5.712,6.24252 -2.383,1.51022 -2.84133,2.14534 -1.92,2.6606 0.264,0.14764 0.0887,0.16868 -0.38949,0.0467 -0.91835,-0.23415 -9.34976,5.46556 -8.83964,5.97567 0.16369,0.16369 2.99121,-0.13412 6.28337,-0.6618 3.29217,-0.52768 7.85776,-1.13958 10.14576,-1.35977 2.288,-0.2202 6.608,-0.81638 9.6,-1.32486 2.992,-0.50847 9.03159,-0.99499 13.42131,-1.08113 7.20991,-0.1415 8.00345,-0.0466 8.21046,0.98169 0.17632,0.87593 -0.92584,1.67323 -4.78131,3.45876 -2.75575,1.27624 -5.87446,2.54403 -6.93046,2.81732 -1.056,0.27329 -5.232,1.51024 -9.28,2.74879 -4.048,1.23854 -10.30053,3.03255 -13.89452,3.98669 -3.59399,0.95413 -6.38499,1.97674 -6.20222,2.27245 0.18275,0.29572 4.70729,0.54601 10.05452,0.55623 12.9155,0.0246 38.87356,1.05854 40.28222,1.60438 1.57822,0.61156 1.39235,2.01452 -0.32,2.41546 -0.792,0.18545 -4.176,0.66601 -7.52,1.06792 -8.55042,1.02766 -19.48031,3.1016 -23.96426,4.5472 -2.09236,0.67456 -4.20883,1.22647 -4.70328,1.22647 -0.49446,0 -1.80654,0.40049 -2.91573,0.88997 -1.1092,0.48948 -3.31273,1.37479 -4.89673,1.96736 -4.72353,1.76708 -10.3526,5.23796 -13.7675,8.48904 -3.50482,3.33672 -6.7125,7.37514 -6.7125,8.45096 0,0.37549 -0.22783,0.68271 -0.50629,0.68271 -0.64204,0 -3.47353,5.60094 -5.25761,10.4 -0.75243,2.024 -1.74443,3.68 -2.20443,3.68 -0.46001,0 -1.21255,-0.936 -1.67232,-2.08 z m -64.77268,-50.78667 c -0.21266,-0.21267 -0.76467,-0.2354 -1.22666,-0.0505 -0.51055,0.2043 -0.3589,0.35596 0.38666,0.38666 0.67467,0.0278 1.05267,-0.12347 0.84,-0.33614 z M 225.92,515.38478 c -0.528,-0.19481 -5.712,-2.71639 -11.52,-5.60353 -30.98156,-15.40083 -53.89879,-33.36907 -58.03226,-45.50014 -2.55633,-7.50239 3.18956,-11.96264 21.38089,-16.59688 3.43825,-0.8759 6.82737,-1.56678 7.53137,-1.5353 0.704,0.0315 -1.2165,0.67685 -4.26779,1.43416 -3.05127,0.75731 -5.76327,1.59292 -6.02666,1.85692 -0.26339,0.264 -1.07888,0.48434 -1.81222,0.48964 -0.73333,0.005 -2.45453,0.39993 -3.82488,0.87696 -2.23566,0.77826 -2.36712,0.93863 -1.28,1.56154 0.96254,0.55154 0.61962,0.63126 -1.66845,0.38786 -2.21994,-0.23613 -2.65998,-0.14235 -1.92,0.4092 0.8299,0.61859 0.8167,0.66998 -0.0974,0.37927 -0.58159,-0.18495 -1.25359,-0.14011 -1.49334,0.0996 -0.23974,0.23975 -0.7719,0.44899 -1.18256,0.46499 -0.41067,0.016 -0.66754,0.39741 -0.57081,0.84757 0.0967,0.45017 -0.11801,0.63687 -0.47718,0.41489 -0.89672,-0.5542 -3.84238,2.74557 -3.92952,4.40191 -0.20963,3.98448 1.14639,7.5692 4.01511,10.61419 0.82265,0.87319 1.43796,1.76649 1.36736,1.9851 -0.0706,0.21861 0.90864,1.37618 2.17611,2.57236 2.12192,2.0026 2.32862,1.73781 0.57491,-0.73647 -0.38646,-0.54525 -0.0412,-0.29757 0.76721,0.5504 0.80843,0.84798 1.36757,1.84866 1.24254,2.22375 -0.12502,0.37508 0.94154,1.7114 2.37014,2.96959 1.4286,1.25819 2.69346,2.50363 2.81079,2.76763 0.11734,0.264 0.49433,0.48 0.83777,0.48 0.34344,0 0.41895,-0.3325 0.16778,-0.73889 -0.2852,-0.46147 -0.17531,-0.56501 0.29267,-0.27578 0.41213,0.25471 0.59256,0.71676 0.40096,1.02678 -0.33971,0.54966 1.9304,2.131 3.20749,2.2343 0.352,0.0285 0.56589,0.405 0.47531,0.83673 -0.15394,0.73376 2.78318,2.36875 3.84469,2.1402 0.264,-0.0568 0.408,0.25666 0.32,0.69666 -0.088,0.44 0.22141,0.72086 0.68757,0.62414 0.46616,-0.0967 0.68053,0.0944 0.47637,0.42475 -0.20415,0.33034 0.49444,0.98378 1.55243,1.45209 1.058,0.46831 1.92363,1.0818 1.92363,1.3633 0,0.28151 0.504,0.4272 1.12,0.32377 0.62583,-0.10508 1.0494,0.16492 0.96,0.61195 -0.088,0.44 0.18144,0.8 0.59875,0.8 0.41731,0 1.38793,0.59108 2.15693,1.31351 0.76899,0.72244 1.9916,1.35822 2.71691,1.41286 0.7253,0.0547 1.20313,0.28638 1.06185,0.51498 -0.14129,0.22861 1.10266,1.18002 2.76433,2.11425 1.66167,0.93422 4.452,2.52626 6.20073,3.53787 1.74872,1.01161 3.59597,1.67948 4.10498,1.48415 0.5474,-0.21005 0.75519,-0.0796 0.50864,0.31934 -0.4099,0.66323 3.21404,2.57072 4.25445,2.23935 0.29016,-0.0924 0.34516,0.12711 0.12223,0.48783 -0.4073,0.65902 0.81079,0.94743 3.1902,0.75532 0.93447,-0.0754 1.04956,0.0459 0.42633,0.44953 -0.68192,0.44165 -0.63811,0.63559 0.21776,0.96402 0.58928,0.22613 1.37792,0.22171 1.75255,-0.01 0.37462,-0.23154 0.49629,-0.12189 0.27038,0.24364 -0.51051,0.82602 3.0478,2.37024 4.32889,1.87864 0.60947,-0.23388 0.82221,-0.0562 0.60634,0.50635 -0.21806,0.56824 0.34154,1.01469 1.62525,1.29665 1.0768,0.23649 2.12212,0.69584 2.32293,1.02076 0.39764,0.64341 -0.13406,0.6876 -1.63043,0.13552 z m 2.88,-0.82476 c 0.21755,-0.352 0.68354,-0.64 1.03554,-0.64 0.352,0 0.46201,0.288 0.24446,0.64 -0.21755,0.352 -0.68354,0.64 -1.03554,0.64 -0.352,0 -0.46201,-0.288 -0.24446,-0.64 z m 191.67999,-0.69719 -1.6,-1.30872 1.6,0.81723 c 0.88,0.44948 1.98891,0.73754 2.46423,0.64014 0.47533,-0.0974 0.67433,0.13019 0.44223,0.50573 -0.58964,0.95405 -1.07313,0.84519 -2.90646,-0.65438 z M 233.6,513.30926 c 0.528,-0.35731 1.512,-0.65406 2.18667,-0.65945 1.6374,-0.0131 1.12656,0.35323 -1.22667,0.87961 -1.40219,0.31365 -1.6611,0.25428 -0.96,-0.22016 z m 190.40452,-0.0219 c -0.22074,-0.35717 0.0243,-0.47328 0.56282,-0.26665 0.5305,0.20357 1.44806,-0.2112 2.0674,-0.93455 0.61247,-0.71531 1.35021,-1.15431 1.63942,-0.97557 0.28921,0.17874 0.52583,-0.097 0.52583,-0.61287 0,-0.62276 0.43004,-0.82539 1.28,-0.60313 0.704,0.1841 1.28,0.0443 1.28,-0.31053 0,-0.3549 0.69781,-0.82041 1.55068,-1.03446 0.85287,-0.21405 2.36487,-1.0743 3.36,-1.91164 0.99513,-0.83735 2.38532,-1.64654 3.08932,-1.7982 0.704,-0.15166 1.20087,-0.64005 1.10414,-1.08531 -0.0967,-0.44526 0.10601,-0.63536 0.45051,-0.42245 0.34449,0.21291 1.9358,-0.42791 3.53623,-1.42405 2.40691,-1.49809 2.77154,-1.96629 2.10951,-2.70867 -0.66576,-0.74654 -0.63563,-0.77457 0.17912,-0.16662 1.36381,1.01767 5.18168,-1.35636 4.68456,-2.91296 -0.27499,-0.86103 -0.21572,-0.89823 0.29263,-0.18372 0.53096,0.74628 0.92967,0.66609 2.38668,-0.48 1.49155,-1.17324 1.57153,-1.38339 0.54293,-1.42648 -0.90327,-0.0378 -0.96515,-0.1392 -0.24631,-0.40351 0.528,-0.19414 1.536,-0.81941 2.24,-1.38947 1.2691,-1.02766 1.26962,-1.02423 0.0608,0.40351 -1.77095,2.09169 -0.67825,1.76482 2.39148,-0.7154 1.46725,-1.18546 3.31285,-2.49006 4.10135,-2.89911 0.78849,-0.40903 1.36449,-1.08201 1.28,-1.49551 -0.0845,-0.41349 0.20637,-0.80089 0.64637,-0.86089 0.44,-0.06 1.10499,-0.14509 1.47777,-0.18909 0.37277,-0.044 0.51261,-0.34723 0.31074,-0.67385 -0.20185,-0.32662 0.76502,-1.23009 2.1486,-2.0077 1.83233,-1.02983 2.45027,-1.75318 2.27503,-2.66313 -0.19507,-1.01291 -0.0695,-1.10726 0.66377,-0.49871 0.72575,0.60232 1.57385,0.15366 4.29422,-2.27171 2.34641,-2.09196 2.08901,-1.74354 -0.83622,1.13191 -7.87686,7.74283 -26.88718,21.14885 -42.31227,29.83849 -4.47609,2.52158 -8.2751,4.5847 -8.44223,4.5847 -0.16713,0 -0.47983,-0.2847 -0.69488,-0.63267 z m -12.32453,-1.07121 c -0.44,-0.17755 -0.8,-0.62208 -0.8,-0.98784 0,-0.45578 0.25172,-0.45829 0.8,-0.008 0.44,0.36137 1.52,0.78941 2.4,0.9512 l 1.6,0.29417 -1.6,0.0366 c -0.88,0.0202 -1.96,-0.10863 -2.4,-0.28618 z m -8.76572,-3.9936 c -1.1888,-0.46523 -1.18146,-0.50431 0.16088,-0.85534 0.77364,-0.20231 1.26042,-0.13129 1.08174,0.15782 -0.17868,0.28911 0.0369,0.67151 0.47912,0.84979 0.44219,0.17827 0.51598,0.32663 0.16398,0.32968 -0.352,0.003 -1.20057,-0.21383 -1.88572,-0.48195 z m -6.11428,-1.34254 c -1.26693,-0.40574 -1.33354,-0.51241 -0.32,-0.51241 0.704,0 2,0.23058 2.88,0.51241 1.26693,0.40574 1.33355,0.51241 0.32,0.51241 -0.704,0 -2,-0.23059 -2.88,-0.51241 z M 170.22784,479.66537 c -0.67634,-0.81495 -0.63675,-0.9086 0.24164,-0.57153 0.57778,0.22171 1.05052,0.66031 1.05052,0.97465 0,0.82301 -0.37048,0.70743 -1.29216,-0.40312 z m 304.28455,-2.02964 c 0.0933,-0.63564 0.38217,-1.10772 0.64194,-1.04905 0.97193,0.21949 1.00904,0.6938 0.11252,1.43785 -0.7515,0.62369 -0.89241,0.55108 -0.75446,-0.3888 z m 6.58554,-4.63085 c 4.04386,-4.25507 6.92223,-8.9958 7.57523,-12.47656 0.51408,-2.74028 -0.1665,-6.95921 -1.03595,-6.42187 -0.33995,0.21011 -0.45444,0.64681 -0.25441,0.97045 0.20001,0.32365 -0.0917,0.41369 -0.64838,0.20009 -0.91621,-0.35158 -0.91349,-0.46043 0.0287,-1.14942 0.92087,-0.67335 0.7889,-0.9532 -1.1452,-2.4284 -2.38271,-1.81739 -7.12336,-3.35521 -8.59831,-2.78922 -0.50939,0.19547 -0.77182,0.10568 -0.58318,-0.19954 0.41733,-0.67525 -8.68976,-1.89477 -22.0365,-2.95088 -6.96326,-0.55099 -8.58469,-0.8072 -5.44,-0.85959 9.57716,-0.15955 29.89771,2.61847 34.56,4.72469 6.31886,2.8546 7.81492,8.38728 4.15124,15.35204 -2.05361,3.90402 -6.75023,9.90334 -7.75288,9.90334 -0.33136,0 0.19946,-0.84381 1.1796,-1.87513 z m -116.93794,-25.61678 -1.6,-0.48432 1.73254,-0.47437 c 0.9529,-0.2609 2.1049,-0.32499 2.56,-0.14241 0.51275,0.20571 0.38713,0.35118 -0.33031,0.38249 -0.63677,0.0278 -0.97977,0.33852 -0.76223,0.69052 0.21755,0.352 0.30655,0.61129 0.19778,0.57621 -0.10878,-0.0351 -0.91778,-0.28174 -1.79778,-0.54812 z M 188.8,445.46374 c 3.55915,-0.94405 22.68184,-3.34748 24.71522,-3.10632 1.01463,0.12033 -1.32322,0.57688 -5.19522,1.01454 -3.872,0.43766 -8.912,1.06138 -11.2,1.38605 -2.288,0.32467 -5.6,0.74996 -7.36,0.9451 -2.78683,0.30897 -2.91079,0.27806 -0.96,-0.23937 z M 363.37121,444.431 c 1.50217,-0.9003 2.56484,-1.90612 2.36149,-2.23515 -0.20335,-0.32903 0.32832,-0.86363 1.1815,-1.18801 1.6039,-0.6098 2.67462,-2.28486 2.42393,-3.79205 -0.0791,-0.47533 0.16352,-0.67433 0.53906,-0.44223 0.77854,0.48116 0.93164,-2.11301 0.19301,-3.27017 -0.8248,-1.29214 -7.84309,-0.66096 -15.83021,1.42366 -0.98778,0.25781 -1.06084,0.19806 -0.32,-0.26177 1.71588,-1.06501 11.12393,-2.77318 14.08,-2.55643 2.46236,0.18054 2.9109,0.42943 3.09305,1.71626 0.11717,0.8278 0.0517,2.1478 -0.14542,2.93333 -0.47934,1.90986 -5.20248,7.21091 -7.46912,8.38303 -2.97557,1.53873 -3.04899,1.05259 -0.10729,-0.71047 z m 7.82878,0.9822 c 1.936,-0.26763 5.248,-0.47453 7.36,-0.45978 l 3.84,0.0268 -3.52,0.48659 c -1.936,0.26763 -5.248,0.47453 -7.36,0.45979 l -3.84,-0.0268 z m 25.79705,-1.42115 c 9.08612,-0.37412 20.80487,-0.37474 31.04,-0.002 16.20107,0.59054 15.98635,0.59938 -14.59705,0.60101 -29.27244,10e-4 -30.20878,-0.0326 -16.44295,-0.59935 z m -180.93356,-1.64932 c -0.34774,-0.56265 6.947,-1.38272 12.29974,-1.38272 4.94165,0 2.66879,0.50362 -4.36322,0.96679 -3.696,0.24345 -6.91611,0.56221 -7.15578,0.70836 -0.23968,0.14615 -0.59101,0.0145 -0.78074,-0.29243 z M 237.12,440.28639 c 3.168,-0.25897 8.784,-0.45226 12.48,-0.42956 l 6.72,0.0413 -7.04,0.44953 c -3.872,0.24724 -9.488,0.44054 -12.48,0.42956 l -5.44,-0.02 5.76,-0.47084 z m 20,-0.39024 c 0.44,-0.17754 1.16,-0.17754 1.6,0 0.44,0.17755 0.08,0.32281 -0.8,0.32281 -0.88,0 -1.24,-0.14526 -0.8,-0.32281 z m 2.72,-0.32281 c 0,-0.29333 0.432,-0.53333 0.96,-0.53333 0.528,0 0.96,0.24 0.96,0.53333 0,0.29334 -0.432,0.53334 -0.96,0.53334 -0.528,0 -0.96,-0.24 -0.96,-0.53334 z m 1.75205,-1.72825 c -1.35874,-2.30017 -1.4606,-6.67908 -0.18009,-7.74181 1.02514,-0.85079 2.29693,-0.38365 2.21751,0.81451 -0.0347,0.52317 -0.15456,0.50295 -0.38224,-0.0645 -0.63861,-1.59159 -2.12723,0.56988 -2.12723,3.08872 0,2.19985 0.14706,2.40914 1.58217,2.25161 0.87019,-0.0955 1.41706,0.0935 1.21526,0.41998 -0.2018,0.32652 -0.76977,0.43907 -1.26217,0.25012 -0.4924,-0.18895 -0.89526,-0.0886 -0.89526,0.22304 0,0.31162 0.3312,0.67697 0.736,0.81191 0.4048,0.13493 0.61722,0.60165 0.47205,1.03715 -0.15024,0.45074 -0.74295,-0.0191 -1.376,-1.09074 z m 7.20795,-8.40508 -5.44,-0.40153 5.6,-0.11923 c 3.38615,-0.0721 5.6,0.13377 5.6,0.52076 0,0.352 -0.072,0.58635 -0.16,0.52077 -0.088,-0.0656 -2.608,-0.29992 -5.6,-0.52077 z m 13.14235,-97.02907 c -0.79252,-0.79253 -0.85774,-1.22993 -0.28608,-1.91874 0.40725,-0.4907 0.88446,-0.89219 1.06046,-0.89219 0.176,0 -0.007,0.39379 -0.40626,0.87509 -1.00217,1.20754 0.61578,2.66265 1.72609,1.55235 0.40815,-0.40816 0.91557,-0.56864 1.12758,-0.35662 0.21202,0.21201 -0.19518,0.69624 -0.90489,1.07606 -1.00225,0.53639 -1.51957,0.46138 -2.3169,-0.33595 z m 2.13601,-2.65093 c -0.79608,-1.01508 -0.77344,-1.03771 0.24164,-0.24164 0.616,0.48311 1.12,0.98711 1.12,1.12 0,0.52675 -0.52557,0.18772 -1.36164,-0.87836 z M 304.16,210.11884 c 0.616,-0.16098 1.624,-0.16098 2.24,0 0.616,0.16097 0.112,0.29269 -1.12,0.29269 -1.232,0 -1.736,-0.13172 -1.12,-0.29269 z m -4.31547,-0.83151 c -0.22422,-0.36279 0.0327,-0.47008 0.60222,-0.25152 1.10875,0.42546 1.31161,0.8842 0.39102,0.8842 -0.33123,0 -0.77819,-0.28471 -0.99324,-0.63268 z m 12.27155,-1.03907 c 0.24538,-0.63944 0.16271,-0.93833 -0.19788,-0.71547 -0.34062,0.21052 -1.03757,0.11296 -1.54876,-0.2168 -0.69052,-0.44544 -0.52683,-0.54291 0.63676,-0.37916 1.6912,0.23801 2.43286,1.33155 1.35491,1.99777 -0.41427,0.25603 -0.50699,-0.004 -0.24503,-0.68634 z m -12.27155,-0.88093 c -0.22422,-0.36279 0.0327,-0.47008 0.60222,-0.25152 1.10875,0.42546 1.31161,0.8842 0.39102,0.8842 -0.33123,0 -0.77819,-0.28471 -0.99324,-0.63268 z m -5.66862,-0.9451 c -0.65125,-0.49338 -0.99426,-1.20422 -0.76223,-1.57964 0.51535,-0.83387 2.05901,-0.89579 2.54943,-0.10227 0.19726,0.31917 -0.28975,0.41796 -1.08223,0.21953 -1.42856,-0.35771 -1.43047,-0.34899 -0.22169,1.01968 1.39638,1.5811 1.22571,1.73744 -0.48328,0.4427 z m 48.39526,-37.0964 c -2.83921,-2.38904 -6.17854,-3.04394 -9.59925,-1.88258 -3.49623,1.187 -4.58982,0.53841 -3.6419,-2.15995 0.87461,-2.48966 4.56002,-3.64735 8.75026,-2.74871 5.57835,1.19635 8.15971,3.19408 8.15971,6.31487 0,1.92256 -1.68943,2.14192 -3.66882,0.47637 z m -61.31366,0.2378 c -2.33849,-3.78377 7.85054,-8.77327 14.3448,-7.02455 3.30458,0.88984 5.53208,2.70638 5.00449,4.08124 -0.46256,1.20541 -2.29011,1.34053 -5.62007,0.41551 -3.00802,-0.8356 -7.916,0.0915 -9.78643,1.84873 -1.55961,1.46518 -3.27441,1.76052 -3.94279,0.67907 z m -1.02802,-20.33038 c -1.78518,-0.89134 -2.18311,-1.47917 -2.34783,-3.46827 -0.15992,-1.93117 0.13971,-2.70832 1.54704,-4.0126 4.38652,-4.06528 13.71583,-7.00813 18.4501,-5.8199 1.82054,0.45693 3.5612,3.31385 3.5612,5.84497 0,2.69814 -3.12182,5.35224 -6.24475,5.30913 -1.41954,-0.0196 -4.5552,0.59646 -6.96812,1.36899 -2.41293,0.77253 -4.71586,1.50502 -5.11764,1.62776 -0.40178,0.12274 -1.69778,-0.25979 -2.88,-0.85008 z m 58.3305,-0.21722 c -1.936,-0.73579 -5.00509,-1.66442 -6.82021,-2.06362 -4.46053,-0.98099 -5.98517,-2.45758 -5.95943,-5.7716 0.0222,-2.85704 0.79161,-4.23193 3.03795,-5.42858 1.17201,-0.62434 2.24002,-0.57739 5.44,0.23912 6.7167,1.71384 11.09341,4.46723 13.03548,8.20064 1.25257,2.40792 0.55192,4.21724 -2.0549,5.30644 -2.66984,1.11553 -2.42859,1.13295 -6.67889,-0.4824 z"
       id="path2275"
       inkscape:connector-curvature="0" />
    <path
       style="fill:#931b02;stroke-width:0.63999999"
       d="m 286.08,534.7247 c -7.45725,-0.90609 -19.34961,-3.20034 -22.82372,-4.4031 l -2.25141,-0.77947 5.97756,-2.77107 c 3.28766,-1.5241 6.95682,-3.3613 8.15369,-4.08267 l 2.17611,-1.31158 -1.85611,-1.52451 c -5.35616,-4.39924 -13.3748,-7.20725 -21.92596,-7.67815 -5.23294,-0.28816 -6.37914,-0.51353 -5.44,-1.06961 0.75176,-0.44513 5.19562,-0.68317 12.06984,-0.64653 9.60309,0.0512 11.63112,0.25631 17.28,1.74773 7.93473,2.09495 16.30262,6.17024 23.16321,11.28083 6.26589,4.66758 12.10561,10.91088 10.91361,11.66784 -1.21514,0.77165 -17.86419,0.49039 -25.43682,-0.42971 z m 44.74184,-3.95533 c 6.75002,-6.21978 13.48426,-11.16575 20.47819,-15.04026 6.3854,-3.53739 18.23982,-7.91183 23.09996,-8.5242 2.21398,-0.27896 1.82354,-0.0734 -1.68829,0.88899 -2.51256,0.68854 -6.0504,2.00292 -7.86186,2.92086 -3.20952,1.62638 -8.36985,6.15045 -8.36985,7.33785 0,0.66899 9.50021,4.42279 20.43838,8.07579 l 7.31839,2.44411 -2.73106,1.15988 c -7.29838,3.09963 -16.76941,4.2319 -39.74571,4.75163 l -15.68,0.35469 z m 11.75549,-361.42339 c -3.00754,-2.50532 -5.83984,-3.1067 -9.4767,-2.01217 -1.8632,0.56074 -3.38883,0.714 -3.72831,0.37452 -0.88635,-0.88635 0.0229,-3.45115 1.56047,-4.40157 3.38545,-2.09267 12.93824,-0.13735 14.61247,2.99097 1.85528,3.46664 -0.0798,5.45411 -2.96793,3.04825 z m -61.19067,0.46736 c -1.50496,-1.50496 1.2697,-5.05099 5.14715,-6.57807 4.69793,-1.85021 12.99516,-0.50438 14.06409,2.28122 0.74616,1.94446 -0.81339,2.44881 -5.06907,1.63932 -4.64737,-0.88398 -8.18409,-0.28585 -10.35194,1.75075 -1.42003,1.33405 -2.98787,1.70914 -3.79023,0.90678 z m -2.20426,-21.04962 c -2.08385,-1.45959 -1.9415,-4.98375 0.28464,-7.04687 2.80354,-2.59823 9.57127,-5.5915 13.351,-5.90494 4.67798,-0.38793 6.50238,0.18573 7.65031,2.40559 1.36109,2.63203 1.21097,4.79322 -0.46835,6.74325 -1.16031,1.34734 -2.16852,1.73443 -5.19074,1.99291 -2.06291,0.17644 -5.16957,0.88004 -6.9037,1.56357 -3.8086,1.50121 -6.81068,1.58603 -8.72316,0.24649 z m 56.81759,-0.62629 c -2.288,-0.83888 -4.90179,-1.53698 -5.80844,-1.55133 -3.93801,-0.0623 -6.0219,-6.3977 -3.12662,-9.50542 4.286,-4.60048 20.61506,2.69406 20.61506,9.20919 0,3.73644 -4.56054,4.45783 -11.68,1.84756 z"
       id="path2273"
       inkscape:connector-curvature="0" />
    <path
       style="fill:#371b17;stroke-width:0.63999999"
       d="m 281.38666,169.81334 c -1.53998,-1.53999 0.80826,-4.57759 4.84151,-6.26279 6.04767,-2.52687 17.29238,0.43487 13.52423,3.56215 -0.76711,0.63665 -1.56893,0.64649 -3.81114,0.0468 -1.5618,-0.41772 -3.4835,-0.74685 -4.27045,-0.7314 -2.23645,0.0439 -6.40096,1.71507 -7.01697,2.81581 -0.56617,1.01169 -2.48968,1.34694 -3.26718,0.56943 z m 60.68834,-0.85886 c -1.94932,-2.15396 -5.48742,-2.87391 -8.73076,-1.77656 -3.21385,1.08738 -4.38425,0.87787 -4.38425,-0.78479 0,-2.11108 3.02266,-3.83312 6.72815,-3.83312 5.61904,0 10.55185,2.89872 10.55185,6.20067 0,1.91354 -2.50325,2.03001 -4.16499,0.1938 z m -62.24892,-19.9818 c -3.35329,-1.61607 -2.25868,-5.98697 2.20885,-8.8202 10.04844,-6.37253 19.18144,-5.7746 18.99742,1.24374 -0.0987,3.76318 -1.41079,4.90582 -6.16922,5.3724 -2.19072,0.2148 -5.49823,0.97574 -7.35,1.69097 -3.72858,1.44013 -5.51594,1.55943 -7.68705,0.51309 z m 57.77391,-0.49179 c -1.408,-0.6513 -3.98586,-1.39472 -5.7286,-1.65205 -5.62092,-0.82996 -7.95091,-5.43765 -4.78494,-9.46253 1.66196,-2.11284 4.58089,-2.22725 9.924,-0.38894 6.45372,2.2204 10.50954,5.86797 10.50954,9.45166 0,3.24145 -5.07777,4.29174 -9.92,2.05186 z"
       id="path2271"
       inkscape:connector-curvature="0" />
    <path
       style="fill:#fad028;fill-opacity:0;stroke-width:1.35186446"
       d="m 287.49896,455.99756 c -8.34925,-3.29666 -16.66242,-10.19148 -20.1934,-16.7481 -2.29787,-4.26691 -3.30238,-4.90246 -8.0629,-5.1014 l -5.438,-0.22726 4.90822,-0.52067 c 4.53613,-0.4812 4.97209,-0.92004 5.75063,-5.78882 0.46333,-2.89748 2.31669,-10.01306 4.11859,-15.81241 1.80189,-5.79935 6.40253,-20.88603 10.22364,-33.52597 3.82112,-12.63993 10.10082,-30.88962 13.95489,-40.55486 8.84316,-22.17684 8.78347,-21.95046 3.05368,-11.58002 -5.29043,9.57524 -10.47329,15.63131 -15.6483,18.28473 -2.09947,1.07648 -8.70918,1.74141 -17.44941,1.75541 -12.84634,0.0206 -14.33693,-0.24463 -17.14232,-3.05003 -9.18061,-9.1806 -6.74524,-34.8709 4.55743,-48.07553 10.81077,-12.62994 52.44303,-25.38792 58.59589,-17.95639 2.65716,3.20935 1.99972,14.65268 -1.34229,23.36391 -1.55187,4.04507 -2.67906,7.4972 -2.50486,7.6714 0.17419,0.17419 2.70062,-4.19379 5.61427,-9.70664 2.91366,-5.51284 8.43945,-14.19981 12.27954,-19.30438 6.1213,-8.13694 6.71678,-9.47515 4.8306,-10.85572 -1.8475,-1.35226 -1.75378,-1.4727 0.66349,-0.85265 1.79757,0.46109 3.70543,-0.26201 5.27901,-2.0008 3.70813,-4.09743 8.6933,-3.58322 9.64422,0.99479 0.64297,3.09548 2.84311,4.73568 13.14688,9.80102 11.10941,5.46138 12.68474,6.70758 15.40723,12.18819 1.6679,3.35764 4.25233,11.69364 5.74318,18.52444 1.98524,9.09605 3.61564,13.32467 6.09253,15.80155 3.98117,3.98117 4.09813,5.35853 1.18341,13.93451 -2.04938,6.02986 -2.03729,7.09071 0.17823,15.64077 1.30718,5.0447 2.08499,9.46389 1.72845,9.82043 -0.35654,0.35654 -1.73705,-3.37408 -3.0678,-8.29026 l -2.41954,-8.93852 -8.01035,19.97924 c -5.33061,13.29548 -7.74638,21.03094 -7.2213,23.12304 0.51673,2.0588 0.23001,3.02395 -0.83074,2.79649 -1.60777,-0.34476 -21.95643,46.20429 -20.73284,47.42789 1.08244,1.08244 -13.21397,11.02907 -22.2626,15.48907 -11.25985,5.54989 -24.20813,6.40751 -34.62736,2.29355 z m 43.33442,-27.36768 c 1.07608,-2.41645 3.8414,-9.26027 6.14515,-15.20847 2.30376,-5.9482 6.89482,-15.16611 10.20236,-20.48425 7.54469,-12.13093 10.62947,-19.34842 8.97623,-21.00167 -2.45984,-2.45983 -9.57754,5.81439 -16.35975,19.01796 -6.51068,12.67496 -15.01983,35.28147 -15.01983,39.90363 0,3.80503 4.02957,2.32303 6.05584,-2.2272 z m -37.92725,-6.75932 c 1.72056,-3.90351 7.22818,-18.9599 12.23916,-33.45864 11.78733,-34.10539 18.77795,-51.16715 30.33356,-74.03409 11.08857,-21.94273 12.4615,-25.31077 11.4219,-28.01994 -0.43046,-1.12174 -2.19978,-2.03953 -3.93184,-2.03953 -4.05526,0 -15.89701,17.42885 -22.98214,33.82542 -12.96375,30.00103 -33.06144,94.52887 -33.06144,106.1507 0,6.72101 2.37407,5.75885 5.9808,-2.42392 z m 35.23873,-32.35587 c 4.22252,-9.43107 12.55558,-25.24788 18.51792,-35.14847 16.63437,-27.62173 17.94909,-30.8438 12.58543,-30.8438 -2.47779,0 -13.19116,12.51901 -19.22682,22.46732 -10.84448,17.87447 -27.12621,59.74009 -24.32328,62.54302 2.36383,2.36383 3.97745,-0.10166 12.44675,-19.01807 z m -53.98944,-51.23955 c 1.39313,-2.25412 -1.74013,-4.83901 -3.60504,-2.9741 -1.55995,1.55995 -0.58363,4.44376 1.50445,4.44376 0.65576,0 1.60103,-0.66135 2.10059,-1.46966 z"
       id="path2285"
       inkscape:connector-curvature="0"
       transform="translate(11.257489,-5.726232)" />
    <path
       style="fill:#facf21;fill-opacity:0.99494952;stroke-width:0.67593223"
       d="m 292.29719,457.93316 c -9.86833,-2.70719 -21.67162,-11.6672 -25.81455,-19.59611 l -1.93066,-3.69499 -6.42136,-0.1406 -6.42135,-0.1406 5.9144,-0.22528 c 5.59415,-0.21309 5.91441,-0.30666 5.91441,-1.72802 0,-0.82649 1.22482,-5.60532 2.72181,-10.61961 1.497,-5.0143 4.07352,-14.07306 5.7256,-20.13061 12.09694,-44.35479 27.77025,-85.03595 42.086,-109.23713 4.57697,-7.73751 12.38682,-18.70712 14.90172,-20.93079 1.42809,-1.26271 1.42382,-1.26723 -5.64162,-5.97644 -3.88894,-2.59203 -7.0708,-4.96416 -7.0708,-5.27139 0,-0.30724 -0.21101,-1.11579 -0.46891,-1.79678 -0.2579,-0.68099 1.53729,0.58685 3.9893,2.81743 2.45202,2.23058 5.83316,4.79674 7.51363,5.70259 l 3.05542,1.64699 2.6965,-2.43612 c 1.48307,-1.33987 3.36007,-2.79126 4.17112,-3.22532 3.32565,-1.77983 6.00385,0.8838 6.2904,6.2562 0.0703,1.31781 0.35473,2.25745 0.63209,2.08809 0.64566,-0.39424 12.54466,4.65593 17.40791,7.38826 6.19076,3.47817 8.01108,5.1902 10.12681,9.52435 1.80461,3.6968 5.98499,19.26261 7.10442,26.4536 0.80306,5.15863 1.03726,5.6798 3.09729,6.89237 2.39327,1.40874 4.68097,4.7784 4.68097,6.89481 0,0.80346 -1.01335,4.58589 -2.25189,8.4054 l -2.2519,6.94458 1.92649,6.72329 c 1.05956,3.69781 4.53407,16.15254 7.72115,27.67718 3.18707,11.52465 5.91708,21.07877 6.06669,21.2314 0.14961,0.15262 0.8841,-0.27642 1.63218,-0.95343 0.74808,-0.67701 1.54547,-1.04561 1.77196,-0.81911 0.2265,0.2265 -0.45975,1.16668 -1.52499,2.08929 -1.06524,0.92261 -2.12285,1.47051 -2.35025,1.21755 -0.22739,-0.25296 -2.00306,-6.23915 -3.94592,-13.30265 -8.07253,-29.34864 -11.68514,-41.9393 -12.18563,-42.46941 -0.29164,-0.3089 -1.12987,1.21195 -1.86275,3.37966 -0.73287,2.1677 -4.30175,11.21018 -7.93085,20.09439 -6.25132,15.30356 -6.55893,16.28466 -5.8489,18.65453 0.41219,1.37577 1.51149,3.32368 2.44288,4.32867 0.93138,1.00498 1.69343,2.25044 1.69343,2.76767 0,1.02418 0.73152,2.37366 7.33019,13.52246 5.12899,8.6657 10.52792,16.84421 12.26846,18.58475 0.67198,0.67199 1.42297,1.9362 1.66885,2.80937 l 0.44707,1.58758 -1.42386,-1.68983 c -4.28753,-5.08846 -15.40993,-22.8848 -22.70363,-36.32684 -1.46111,-2.69279 -2.81801,-4.89802 -3.01533,-4.90051 -0.19732,-0.003 -0.69825,0.83195 -1.11317,1.85429 -0.41493,1.02235 -4.84995,11.74433 -9.8556,23.82662 -11.06004,26.69597 -10.48354,24.99361 -8.48904,25.06758 1.43695,0.0533 1.41292,0.10429 -0.29077,0.61704 -1.02143,0.30742 -3.29321,1.823 -5.04839,3.36796 -7.19483,6.33315 -19.56387,13.16148 -27.54002,15.20349 -4.91012,1.25706 -15.00083,1.25301 -19.59701,-0.008 z m 37.12587,-26.21304 c 0.56465,-0.86177 2.70983,-6.10869 4.76705,-11.65983 4.65726,-12.56693 9.01317,-21.47845 15.15342,-31.00149 7.96166,-12.34791 9.85117,-19.92107 4.24731,-17.02319 -5.92567,3.06427 -13.5891,15.84254 -21.83085,36.40154 -3.19181,7.96191 -6.71208,19.59341 -6.71208,22.17768 0,2.91625 2.73572,3.60738 4.37515,1.10529 z m -37.95064,-7.07504 c 2.48963,-4.63727 5.87468,-13.66836 14.11554,-37.65945 13.53211,-39.39513 21.20736,-57.6709 33.59568,-79.99564 4.03376,-7.26915 7.23796,-14.53771 7.83894,-17.7822 0.36932,-1.99385 0.18432,-2.74487 -0.95743,-3.88661 -0.77836,-0.77837 -2.02266,-1.41521 -2.76512,-1.41521 -4.8774,0 -15.94974,17.02164 -24.98464,38.40918 -7.13278,16.88481 -22.53162,62.26304 -26.68581,78.63931 -2.41047,9.50238 -5.1098,22.60091 -5.1098,24.79538 0,4.16679 2.41124,3.62893 4.95264,-1.10476 z m 27.66787,-16.1986 c 0.58368,-0.65058 3.23401,-6.20168 5.88964,-12.33576 6.84025,-15.79996 16.22892,-33.75815 24.02999,-45.96339 6.81985,-10.67008 13.16426,-22.23737 13.16426,-24.00142 0,-1.64611 -3.06857,-3.24992 -4.62468,-2.41712 -1.8631,0.9971 -11.22326,12.27961 -14.89179,17.95021 -7.13717,11.0322 -16.6981,31.71705 -24.05767,52.04816 -4.11324,11.36301 -4.45229,12.84735 -3.30787,14.48124 1.21251,1.73111 2.3923,1.80506 3.79812,0.23808 z"
       id="path2313"
       inkscape:connector-curvature="0"
       transform="translate(11.257489,-5.726232)" />
    <path
       style="fill:#008080;fill-opacity:0;stroke-width:1.35186446"
       d="m 295.78566,534.48076 c -7.66881,-7.78587 -18.64324,-14.00614 -29.8704,-16.93045 -8.91536,-2.32216 -28.40214,-2.79356 -29.68484,-0.7181 -0.45953,0.74353 -2.52793,1.35187 -4.59646,1.35187 -2.06852,0 -6.60753,0.85669 -10.08667,1.90376 -5.33488,1.60556 -6.61383,1.61564 -8.1651,0.0644 -1.01167,-1.01166 -2.17883,-1.49994 -2.59371,-1.08507 -1.02381,1.02381 -29.3876,-14.65731 -39.44756,-21.80886 -13.03101,-9.26365 -21.8779,-17.89266 -25.03875,-24.42212 -2.74772,-5.67602 -2.80018,-6.30564 -0.78209,-9.38565 2.62431,-4.00519 7.07195,-6.56813 9.15935,-5.27804 0.87245,0.5392 1.16274,0.34855 0.67383,-0.44252 -2.56687,-4.15328 45.93165,-11.41532 86.28462,-12.92003 8.08789,-0.30159 8.10987,-0.31366 7.65242,-4.20361 -0.56436,-4.79915 1.42084,-6.19011 8.8732,-6.21713 4.89821,-0.0178 5.98938,0.5182 7.66943,3.76705 1.07729,2.08326 4.76138,6.37115 8.18686,9.52865 16.58147,15.28426 37.92086,15.35172 58.86894,0.18608 4.08939,-2.96057 8.65193,-6.25775 10.13898,-7.32708 1.48705,-1.06932 5.74542,-2.13581 9.46305,-2.36998 6.13774,-0.38661 6.79915,-0.14523 7.19247,2.62475 0.27983,1.97077 -0.97775,4.4614 -3.55298,7.03663 -4.1761,4.17609 -4.28972,6.26417 -0.22242,4.08742 3.9512,-2.11462 56.95755,-3.08828 81.75039,-1.50166 27.3214,1.74844 35.1797,3.47714 38.96294,8.57121 2.39706,3.22759 2.53714,4.29861 1.16238,8.88712 -1.2416,4.14413 -13.50957,19.21182 -15.64205,19.21182 -0.2461,0 -2.60882,2.03845 -5.25051,4.52988 -5.53494,5.22012 -24.40303,17.86678 -36.92593,24.75022 -7.68919,4.22651 -9.05195,4.56739 -13.02164,3.25716 -20.13688,-6.64638 -21.66831,-6.94242 -34.60863,-6.68996 -19.78063,0.38591 -32.66195,5.69033 -50.26097,20.69704 -7.48619,6.38348 -9.59522,7.49556 -14.24539,7.51151 -4.76393,0.0164 -6.29589,-0.83167 -12.04276,-6.66628 z m 31.51355,-32.16999 c 8.86796,-9.13784 28.21629,-16.20456 51.21494,-18.70558 4.64703,-0.50535 8.44915,-1.35613 8.44915,-1.89063 0,-1.11214 -23.54496,-2.73455 -39.68473,-2.73455 -6.27693,0 -10.33199,-0.49914 -9.59073,-1.18052 0.70635,-0.64929 7.89676,-3.10548 15.97869,-5.45821 8.08193,-2.35273 16.90285,-5.44464 19.60204,-6.87092 l 4.90761,-2.59323 -9.46305,-0.035 c -5.20467,-0.0192 -15.80055,0.86576 -23.54637,1.96665 -7.74583,1.1009 -14.32268,1.76228 -14.61522,1.46973 -0.29254,-0.29254 3.15533,-3.36916 7.66196,-6.83693 8.75061,-6.73344 11.07655,-9.68963 3.80031,-4.83007 -14.88504,9.94123 -30.55378,13.037 -45.02009,8.8949 -4.42232,-1.26623 -14.88021,-5.90692 -23.23974,-10.31263 -8.35954,-4.40572 -15.50752,-8.01039 -15.88441,-8.01039 -1.89397,0 -0.23223,4.90282 3.50065,10.32838 2.30224,3.3462 3.95029,6.3196 3.66232,6.60757 -0.28796,0.28797 -6.27791,-0.35221 -13.31098,-1.42262 -14.19273,-2.16008 -31.03758,-2.62038 -31.03758,-0.84814 0,1.25864 6.11231,4.16043 17.57423,8.34327 l 7.43526,2.71337 -8.11119,-0.71786 c -24.05555,-2.12896 -31.41522,-2.33622 -32.29697,-0.90952 -1.16266,1.88122 7.86477,4.50196 30.94511,8.98361 46.48603,9.02649 60.6582,16.0716 72.53043,36.05553 l 5.60414,9.43317 3.85128,-8.02426 c 2.11819,-4.41333 6.20551,-10.45015 9.08294,-13.41513 z"
       id="path2932"
       inkscape:connector-curvature="0"
       transform="translate(11.257489,-5.726232)" />
  </g>
</svg>
