<?xml version="1.0" encoding="UTF-8" standalone="no"?>
<!-- Created with Inkscape (http://www.inkscape.org/) -->

<svg
   xmlns:dc="http://purl.org/dc/elements/1.1/"
   xmlns:cc="http://creativecommons.org/ns#"
   xmlns:rdf="http://www.w3.org/1999/02/22-rdf-syntax-ns#"
   xmlns:svg="http://www.w3.org/2000/svg"
   xmlns="http://www.w3.org/2000/svg"
   xmlns:sodipodi="http://sodipodi.sourceforge.net/DTD/sodipodi-0.dtd"
   xmlns:inkscape="http://www.inkscape.org/namespaces/inkscape"
   version="1.1"
   id="svg10945"
   width="330.66666"
   height="332"
   viewBox="0 0 330.66666 332"
   sodipodi:docname="img1.svg"
   inkscape:version="0.92.3 (2405546, 2018-03-11)">
  <metadata
     id="metadata10951">
    <rdf:RDF>
      <cc:Work
         rdf:about="">
        <dc:format>image/svg+xml</dc:format>
        <dc:type
           rdf:resource="http://purl.org/dc/dcmitype/StillImage" />
        <dc:title></dc:title>
      </cc:Work>
    </rdf:RDF>
  </metadata>
  <defs
     id="defs10949" />
  <sodipodi:namedview
     pagecolor="#ffffff"
     bordercolor="#666666"
     borderopacity="1"
     objecttolerance="10"
     gridtolerance="10"
     guidetolerance="10"
     inkscape:pageopacity="0"
     inkscape:pageshadow="2"
     inkscape:window-width="1366"
     inkscape:window-height="705"
     id="namedview10947"
     showgrid="false"
     inkscape:zoom="1.0052843"
     inkscape:cx="137.09809"
     inkscape:cy="205.55548"
     inkscape:window-x="-8"
     inkscape:window-y="-8"
     inkscape:window-maximized="1"
     inkscape:current-layer="svg10945" />
  <path
     style="opacity:1;fill:#d45500;fill-opacity:1;stroke-width:0.88202876"
     d="m 19.674597,166.98648 c 0.07444,-49.15494 -34.586642,-112.733284 0.223167,-147.464826 34.653678,-34.575751 97.941356,0 146.912036,0 48.97068,0 112.25838,-34.575754 146.91206,0 34.8098,34.731543 0.14878,98.309886 0.22316,147.464826 0.0745,49.15495 34.98038,112.68072 0.22317,147.46482 -34.70643,34.73329 -98.23892,0 -147.35839,0 -49.11945,0 -112.651943,34.73328 -147.358371,0 -34.75721,-34.7841 0.148782,-98.30987 0.223168,-147.46482 z m 148.417563,73.18136 c 0.26397,-1.57606 0.57975,-4.84937 0.70174,-7.27406 l 0.22179,-4.40851 4.85296,-0.97309 c 2.66912,-0.53521 5.10679,-0.73359 5.41703,-0.44085 0.31023,0.29273 1.24117,2.91283 2.06871,5.82245 1.62301,5.70651 2.6822,7.49448 4.43969,7.49448 1.97983,0 2.21729,-2.62391 0.76153,-8.41503 -0.78138,-3.10845 -1.19554,-6.23805 -0.92035,-6.95469 0.2752,-0.71663 2.19383,-2.16627 4.26363,-3.22142 3.5004,-1.78445 3.82694,-1.81325 4.67535,-0.4123 4.01065,6.62277 6.42355,9.74556 7.5302,9.74556 2.38812,0 2.0051,-3.46971 -0.99656,-9.02767 -2.12363,-3.93219 -2.7218,-5.84003 -2.0919,-6.67207 11.37762,-15.02898 16.87482,-29.23283 17.82328,-46.05245 0.38901,-6.89867 0.16414,-10.00917 -1.0199,-14.10724 -2.39989,-8.30631 -6.61964,-15.37023 -12.90547,-21.60394 -19.75709,-19.59328 -51.8449,-21.00341 -71.16362,-3.12736 -10.30459,9.53507 -15.27697,20.67523 -15.31425,34.31016 -0.027,9.87253 1.03032,14.90274 4.63125,22.03351 9.59877,19.00803 29.0473,28.97957 51.1262,26.21315 12.34755,-1.54711 21.93567,-8.97699 27.70512,-21.46886 3.08297,-6.67522 5.73483,-17.52261 5.73483,-23.45843 0,-14.15855 -8.02545,-26.68677 -21.6177,-33.74652 -16.13461,-8.38025 -32.68096,-6.19819 -45.47597,5.99718 -8.69015,8.28288 -11.91141,17.88483 -10.38524,30.9563 1.29757,11.11356 9.08109,21.84275 19.68468,27.13436 4.91764,2.45409 5.98434,2.64198 15.00002,2.64198 11.47813,0 15.62749,-1.54366 21.62441,-8.04473 7.21895,-7.82586 9.16323,-16.18277 6.65956,-28.62414 -3.30124,-16.40464 -12.37352,-23.67393 -28.27319,-22.6543 -10.03039,0.64324 -16.55794,4.92473 -21.18182,13.89341 -2.39299,4.64151 -2.2895,16.08659 0.18806,20.8022 4.68924,8.92519 13.6158,13.03858 23.7383,10.9387 3.96207,-0.82192 5.72793,-1.79535 8.76845,-4.83362 7.9038,-7.89796 7.13855,-17.91442 -1.89465,-24.79925 -6.82631,-5.20285 -16.33025,-2.58123 -19.90328,5.49023 -1.57396,3.55557 -1.58696,3.97677 -0.22752,7.3718 1.89917,4.74301 4.99408,7.09457 9.33726,7.09457 4.1273,0 7.78209,-3.10563 7.78209,-6.61278 0,-2.88327 -3.65641,-6.61277 -6.48315,-6.61277 -3.11136,0 -3.48725,2.19571 -0.90157,5.26634 l 2.24746,2.66899 h -1.99425 c -4.86047,0 -6.94482,-6.06943 -3.23616,-9.42333 2.7705,-2.5055 5.74203,-3.03347 9.12456,-1.62121 3.49603,1.45966 5.65488,5.31107 5.65488,10.08837 0,6.94367 -7.7638,12.41188 -15.67488,11.04015 -7.39428,-1.28215 -13.44282,-8.25292 -13.44282,-15.49254 0,-9.64806 5.53439,-17.22155 14.08217,-19.27061 5.23859,-1.25579 12.97679,-0.6617 16.74526,1.28563 6.78477,3.50595 10.86321,12.51596 10.98832,24.27524 0.0815,7.65113 -1.57271,11.59064 -7.10858,16.92973 -4.57127,4.40882 -9.1519,6.16273 -16.13321,6.17738 -11.41206,0.024 -22.14344,-6.60359 -27.13272,-16.75677 -2.22967,-4.53734 -2.47067,-5.93088 -2.47067,-14.28567 0,-7.99543 0.27927,-9.78083 2.04799,-13.09276 6.77815,-12.69228 20.45191,-19.48615 34.13269,-16.959 11.43753,2.1128 21.62967,8.9975 26.49102,17.89449 2.14996,3.93471 2.60334,5.90979 2.90357,12.64882 0.45047,10.11158 -0.84221,16.29798 -5.24027,25.07856 -4.05798,8.10163 -8.24765,12.1257 -15.52009,14.90665 -17.87489,6.83527 -39.81732,-0.74736 -50.45652,-17.43627 -4.71171,-7.39089 -6.45844,-14.33192 -6.12434,-24.33648 0.26988,-8.08165 0.57918,-9.43762 3.58986,-15.73824 11.1844,-23.40612 36.60021,-31.65443 61.33416,-19.90505 7.05579,3.35169 17.40356,13.18072 20.32412,19.30524 5.09851,10.69168 5.6844,21.30222 1.97175,35.70896 -6.62799,25.71967 -21.82685,38.78205 -45.01272,38.68534 -21.5176,-0.0897 -40.47689,-11.43279 -50.07665,-29.96006 -4.99234,-9.6351 -6.39403,-15.53043 -6.39403,-26.89257 0,-15.29018 4.65742,-27.07327 15.11765,-38.24704 6.85657,-7.32426 13.45091,-11.62897 22.78462,-14.87349 6.6545,-2.3132 8.78121,-2.62973 18.12724,-2.69796 8.79062,-0.0641 11.70649,0.2736 17.17482,1.98945 17.58268,5.51708 29.42366,15.11228 36.61514,29.67069 4.96237,10.04579 6.08141,15.88675 5.49069,28.65925 -0.68177,14.74086 -2.85134,21.71958 -10.04659,32.31596 -3.79269,5.58546 -3.53524,6.68899 2.94014,12.60275 7.85,7.16916 11.21059,5.56295 4.73767,-2.26439 -3.73826,-4.52048 -4.07689,-5.59823 -2.61602,-8.32588 1.22759,-2.29208 3.56687,-2.14726 8.89475,0.55059 4.7288,2.3945 8.28013,2.56674 8.28013,0.4016 0,-1.12158 -3.05964,-3.4821 -9.84119,-7.59246 -1.53562,-0.93076 -1.53649,-1.15475 -0.0234,-5.95148 0.90334,-2.8636 2.08596,-4.98435 2.77951,-4.98435 0.66396,0 3.65212,0.62591 6.64038,1.3909 5.79297,1.48299 7.94466,1.23931 7.94466,-0.89973 0,-1.55994 -3.58317,-3.5536 -7.94119,-4.41845 -6.25093,-1.24052 -6.17649,-1.17084 -6.17649,-5.78086 0,-5.74333 1.8338,-7.0442 9.92992,-7.0442 4.76112,0 6.1234,-0.30092 6.56469,-1.45007 0.94542,-2.46178 -2.19308,-3.84016 -8.74387,-3.84016 -5.66058,0 -6.08236,-0.13844 -6.8902,-2.26166 -1.19111,-3.13055 -1.07673,-7.19114 0.22665,-8.04631 0.59794,-0.39233 3.67208,-1.51913 6.83142,-2.50401 3.98416,-1.242 5.83929,-2.28382 6.05442,-3.40005 0.55884,-2.89969 -1.08845,-3.37135 -6.69997,-1.91834 -7.51325,1.94546 -8.7761,1.79601 -10.33862,-1.22331 -2.34748,-4.53619 -1.77205,-6.80108 2.40382,-9.4614 5.52434,-3.51939 7.65161,-5.60677 7.1213,-6.98774 -0.73391,-1.91111 -2.90568,-1.51984 -8.94725,1.61194 l -5.57597,2.89042 -3.02699,-3.45328 c -1.66485,-1.89931 -3.027,-4.09811 -3.027,-4.88622 0,-0.78811 1.78677,-3.18521 3.9706,-5.32689 3.93699,-3.86101 5.33573,-7.93532 2.72423,-7.93532 -0.68552,0 -3.61471,1.97746 -6.50934,4.39435 l -5.26293,4.39437 -4.07895,-3.1122 c -2.24341,-1.7117 -4.07215,-3.39159 -4.06389,-3.73309 0.008,-0.34148 1.19269,-2.60472 2.63203,-5.02939 2.70455,-4.55604 3.3395,-7.84448 1.70911,-8.851382 -1.26675,-0.782317 -4.18958,1.985632 -6.15028,5.824392 -2.63838,5.16554 -3.45834,5.46964 -8.73795,3.24071 l -4.64933,-1.96283 0.66111,-3.97482 c 1.26445,-7.602132 1.0344,-10.146734 -0.91729,-10.146734 -1.34627,0 -2.18317,1.18936 -3.55302,5.049266 -2.38855,6.730478 -2.83456,7.081558 -7.91508,6.230438 -4.91583,-0.82354 -5.46495,-1.57234 -6.21047,-8.468818 -0.36628,-3.388084 -1.00879,-5.298815 -1.89625,-5.639114 -2.00002,-0.766923 -2.90026,1.366305 -2.91535,6.908349 -0.008,2.902389 -0.47129,5.323013 -1.11646,5.832023 -0.60661,0.47861 -3.33341,1.08824 -6.05953,1.35475 l -4.9566,0.48456 -1.09613,-3.67147 c -1.6397,-5.49205 -3.42527,-8.520843 -5.0233,-8.520843 -1.22304,0 -1.34892,0.792545 -0.87527,5.510653 0.30425,3.03085 0.80503,6.40337 1.11286,7.49447 0.45669,1.6189 0.20803,1.98383 -1.3518,1.98383 -1.05128,0 -3.12628,0.62777 -4.61112,1.39504 l -2.69968,1.39503 -5.03127,-5.43299 c -4.40843,-4.760397 -5.17303,-5.262295 -6.17644,-4.05415 -1.14559,1.37932 -0.19603,4.04731 3.60512,10.12942 0.98256,1.57214 0.81637,2.11907 -1.32124,4.34861 -1.34485,1.40267 -3.39615,3.0589 -4.55848,3.68048 -1.95122,1.04349 -2.46583,0.81346 -6.70988,-2.9995 -4.69835,-4.2211 -7.1466,-4.84913 -7.70046,-1.9753 -0.20036,1.03954 1.30802,3.17701 4.22385,5.9854 l 4.53547,4.3684 -3.2062,4.36448 c -1.76338,2.40046 -3.43805,4.36447 -3.72144,4.36447 -0.28341,0 -2.66678,-1.21333 -5.29638,-2.6963 -5.327584,-3.00447 -8.596914,-3.15266 -8.596914,-0.38966 0,1.21238 1.58538,2.69748 5.073544,4.75263 2.79044,1.64408 5.07355,3.61464 5.07355,4.37903 0,0.7644 -0.66332,3.12541 -1.47404,5.24667 -1.39375,3.6468 -1.62202,3.82548 -4.19119,3.28061 -10.881039,-2.30757 -14.244398,-2.02067 -12.327279,1.05154 0.537974,0.86211 3.588209,2.36127 6.778292,3.33148 3.190093,0.97022 6.073697,2.04346 6.408007,2.38498 0.33432,0.34153 0.33272,2.82132 -0.004,5.51064 l -0.61138,4.88969 h -5.614377 c -6.413391,0 -10.141028,1.12015 -10.141028,3.04734 0,1.51676 1.682516,1.96464 9.609048,2.55782 3.306193,0.24742 5.956097,0.90779 6.406357,1.59649 0.42234,0.646 0.66445,2.91566 0.53804,5.0437 l -0.22988,3.86915 -6.617667,2.30277 c -8.067062,2.8071 -9.045979,4.9783 -2.205889,4.89257 2.426479,-0.0304 6.098402,-0.37856 8.159826,-0.77365 3.67433,-0.70424 3.77204,-0.65981 4.96784,2.25955 2.72825,6.66049 2.73428,6.6302 -1.83745,9.23563 -5.088364,2.89987 -8.201974,5.5675 -8.201974,7.02718 0,2.28989 2.8699,1.96205 8.501484,-0.97117 3.22689,-1.68071 6.37729,-3.05586 7.00092,-3.05586 1.21405,0 6.55648,6.02586 6.55648,7.39522 0,0.45185 -2.21564,3.14267 -4.92363,5.97962 -2.70799,2.83694 -4.75964,5.65018 -4.55923,6.25163 0.73359,2.20163 3.19235,1.54019 7.21855,-1.94188 6.20635,-5.3676 7.17551,-5.7274 10.37777,-3.85275 4.87277,2.85258 5.00949,3.94643 1.34132,10.73275 -1.90881,3.53143 -3.06792,6.69861 -2.75234,7.52042 0.29986,0.78083 0.72735,1.41971 0.94998,1.41971 1.67723,0 4.10809,-2.49595 6.50078,-6.67484 1.54995,-2.70702 3.35241,-5.12674 4.00552,-5.37718 1.77077,-0.67899 10.07662,2.31791 10.07662,3.63585 0,0.62747 -0.5956,2.82767 -1.32354,4.88936 -1.54698,4.38139 -1.71663,8.47017 -0.38557,9.29221 1.66348,1.02733 4.04468,-2.13269 5.68402,-7.54302 l 1.59861,-5.27601 h 5.59562 5.5956 v 6.09981 c 0,7.21296 0.5094,8.88915 2.70148,8.88915 1.15265,0 1.77094,-0.83958 2.11028,-2.86553 z"
     id="path11540"
     inkscape:connector-curvature="0"
     sodipodi:nodetypes="aaaaaaaaacccsccsccccsccsssscssssssssssssssscccssssccsccscscccccssccccsssccccsssscsscsssssscsscscsssscsccscsssccccsssccscscsccsscsccccsccsccsccsscccsccccssscssccccccssscscccscsscsssccscssccsscccccsscc" />
</svg>
