<?xml version="1.0" encoding="UTF-8" standalone="no"?>
<!-- Created with Inkscape (http://www.inkscape.org/) -->

<svg
   xmlns:dc="http://purl.org/dc/elements/1.1/"
   xmlns:cc="http://creativecommons.org/ns#"
   xmlns:rdf="http://www.w3.org/1999/02/22-rdf-syntax-ns#"
   xmlns:svg="http://www.w3.org/2000/svg"
   xmlns="http://www.w3.org/2000/svg"
   xmlns:sodipodi="http://sodipodi.sourceforge.net/DTD/sodipodi-0.dtd"
   xmlns:inkscape="http://www.inkscape.org/namespaces/inkscape"
   version="1.1"
   id="svg12097"
   width="334.66666"
   height="330.66666"
   viewBox="0 0 334.66666 330.66666"
   sodipodi:docname="img3.svg"
   inkscape:version="0.92.3 (2405546, 2018-03-11)">
  <metadata
     id="metadata12103">
    <rdf:RDF>
      <cc:Work
         rdf:about="">
        <dc:format>image/svg+xml</dc:format>
        <dc:type
           rdf:resource="http://purl.org/dc/dcmitype/StillImage" />
        <dc:title />
      </cc:Work>
    </rdf:RDF>
  </metadata>
  <defs
     id="defs12101" />
  <sodipodi:namedview
     pagecolor="#ffffff"
     bordercolor="#666666"
     borderopacity="1"
     objecttolerance="10"
     gridtolerance="10"
     guidetolerance="10"
     inkscape:pageopacity="0"
     inkscape:pageshadow="2"
     inkscape:window-width="1366"
     inkscape:window-height="705"
     id="namedview12099"
     showgrid="false"
     inkscape:zoom="0.83618955"
     inkscape:cx="209.66434"
     inkscape:cy="136.95181"
     inkscape:window-x="-8"
     inkscape:window-y="-8"
     inkscape:window-maximized="1"
     inkscape:current-layer="svg12097" />
  <g
     id="g6776"
     transform="matrix(0.96173505,0,0,0.95500959,1.2602392,16.52244)">
    <g
       id="g6799"
       transform="matrix(0.85003204,0,0,0.87931669,27.895735,5.5007309)">
      <path
         style="opacity:1;fill:#fad028;fill-opacity:0.969697;stroke-width:1.19373953"
         d="M 137.89367,365.91713 C 78.396429,357.81171 29.470648,330.2559 2.4418934,289.62839 -21.250238,254.01622 -33.120187,212.46486 -33.120187,165.14151 c 0,-28.85172 3.283099,-49.50019 12.003406,-75.493279 C 2.9267835,17.980244 52.351511,-16.700487 141.48137,-24.44492 c 19.13961,-1.663029 57.17699,-0.734033 74.79803,1.826808 67.0854,9.749431 106.9466,35.085067 132.67491,84.327709 12.70937,24.325053 20.77269,54.032493 23.49429,86.559133 4.08333,48.80145 -9.35049,102.97354 -35.05527,141.36083 -32.71735,48.85982 -96.9622,78.43159 -169.36441,77.95808 -10.3258,-0.0676 -23.88667,-0.81926 -30.13525,-1.67051 z m 20.85119,-139.26979 c 2.31517,-1.75948 5.61793,-5.59385 7.33946,-8.52082 1.72153,-2.92694 3.53903,-5.32173 4.0389,-5.32173 0.49986,0 2.37715,2.31454 4.17176,5.14342 4.6302,7.29874 10.67967,11.74667 16.93104,12.44873 10.50849,1.18019 23.93386,-8.55545 29.81338,-21.61968 4.29992,-9.55437 4.76835,-15.10003 1.83377,-21.71017 -2.48455,-5.59646 -2.48592,-5.66066 -0.17119,-8.12329 3.21934,-3.42508 4.88427,-8.2734 4.88427,-14.22316 0,-5.00389 1.89944,-9.40973 8.78414,-20.37523 4.97991,-7.93169 5.41966,-13.52646 1.43413,-18.2459 -5.83947,-6.91475 -15.87027,-6.27614 -33.53834,2.13523 -10.32678,4.91637 -14.0303,7.50236 -26.21115,18.30207 l -7.91133,7.0143 -6.85678,-6.49005 c -12.7277,-12.04696 -29.23514,-21.54705 -43.0651,-24.7841 -11.99755,-2.80816 -19.74624,1.36203 -19.61887,10.55848 0.0738,5.32463 1.01378,7.51061 7.05829,16.41385 3.35611,4.94333 4.36039,7.8193 5.11162,14.63815 0.67835,6.15728 1.7935,9.72058 4.06355,12.98443 3.10656,4.46658 3.11486,4.53863 1.1753,10.21037 -3.89954,11.40315 -0.13329,23.65332 10.5424,34.29045 9.80989,9.77444 21.567,11.82855 30.19075,5.27465 z m 17.03932,-82.6564 c 12.6897,-15.87506 27.16651,-26.89283 37.6872,-28.68234 3.75244,-0.6383 5.55295,-1.69522 6.86963,-4.03257 1.62568,-2.88588 1.58528,-3.38676 -0.45415,-5.63218 -2.86062,-3.14951 -6.85714,-3.14663 -9.72149,0.007 -1.23467,1.35938 -7.71809,6.44587 -14.40761,11.30333 -6.68951,4.85745 -15.08277,12.12677 -18.6517,16.15403 l -6.48896,7.32231 -10.68119,-10.68973 c -5.87465,-5.87951 -14.44827,-13.10715 -19.05249,-16.0616 -4.60422,-2.95444 -9.39648,-6.52558 -10.64948,-7.9359 -4.42308,-4.97837 -10.81998,-2.31354 -10.06623,4.19343 0.39739,3.43055 0.44224,3.45569 11.14851,6.24628 6.98997,1.82191 20.2607,12.38209 29.70444,23.63725 4.53663,5.40681 8.69633,9.83054 9.24381,9.83054 0.54747,0 3.03133,-2.547 5.51971,-5.66001 z"
         id="path6744"
         inkscape:connector-curvature="0" />
      <path
         style="opacity:1;fill:#fad028;fill-opacity:0.969697;stroke-width:1.04988372"
         d="m 179.72996,219.30746 c -8.20643,-7.6449 -8.79568,-9.53001 -9.21008,-29.46448 l -0.37618,-18.09675 8.12603,-6.27002 c 15.78386,-12.17878 30.73865,-18.77997 42.5454,-18.77997 5.73126,0 6.5766,0.25829 7.75213,2.36854 1.17338,2.10642 0.65765,3.2543 -4.65994,10.37189 -4.84738,6.48823 -6.19537,9.24936 -7.1206,14.5853 -1.44491,8.33306 -1.86004,9.16626 -5.3219,10.68168 -3.44792,1.5093 -3.57627,3.61675 -0.51887,8.51864 4.54983,7.29466 2.55508,14.7858 -5.9458,22.32909 -6.1893,5.49209 -9.93934,7.10577 -16.51317,7.10577 -4.45296,0 -5.65478,-0.45972 -8.75702,-3.34969 z"
         id="path6746"
         inkscape:connector-curvature="0" />
      <path
         style="opacity:1;fill:#fad028;fill-opacity:0.969697;stroke-width:1.04197359"
         d="m 144.39126,221.93699 c -5.3702,-2.32344 -12.38096,-8.53074 -15.17168,-13.43293 -3.27095,-5.74578 -2.89708,-10.70299 1.17166,-15.53532 l 3.41457,-4.05539 -4.09046,-2.83149 c -3.64342,-2.52205 -4.32105,-3.75145 -6.20035,-11.24917 -1.71056,-6.82444 -3.01796,-9.45164 -6.90751,-13.88062 -7.56667,-8.61604 -6.32837,-12.61544 3.89413,-12.57711 10.63513,0.0398 24.50259,5.88252 40.68981,17.14345 l 8.95227,6.22782 v 17.89979 c 0,17.19687 -0.11381,18.08197 -2.89795,22.53848 -6.09418,9.75481 -14.52951,13.35435 -22.85449,9.75249 z"
         id="path6748"
         inkscape:connector-curvature="0" />
    </g>
  </g>
  <path
     style="opacity:0.30400002;fill:#ffffff;fill-opacity:1"
     d="m 277.44905,104.0434 c 8.47912,66.50013 -43.42208,136.93068 -72.35202,165.6323 C 160.78835,313.6347 78.599875,225.2504 49.031935,178.18927 16.984397,127.18154 100.82533,30.495494 139.32246,73.547931 180.92649,120.07489 270.27364,47.768004 277.44905,104.0434 Z"
     id="path6801"
     inkscape:connector-curvature="0"
     sodipodi:nodetypes="sssss" />
</svg>
