<?xml version="1.0" encoding="utf-8"?>
<!-- Generator: Adobe Illustrator 22.1.0, SVG Export Plug-In . SVG Version: 6.00 Build 0)  -->
<svg version="1.1"
	 id="svg821" inkscape:version="0.92.3 (2405546, 2018-03-11)" sodipodi:docname="logo7.svg" xmlns:cc="http://creativecommons.org/ns#" xmlns:dc="http://purl.org/dc/elements/1.1/" xmlns:inkscape="http://www.inkscape.org/namespaces/inkscape" xmlns:rdf="http://www.w3.org/1999/02/22-rdf-syntax-ns#" xmlns:sodipodi="http://sodipodi.sourceforge.net/DTD/sodipodi-0.dtd" xmlns:svg="http://www.w3.org/2000/svg"
	 xmlns="http://www.w3.org/2000/svg" xmlns:xlink="http://www.w3.org/1999/xlink" x="0px" y="0px" viewBox="0 0 320 394.7"
	 style="enable-background:new 0 0 320 394.7;" xml:space="preserve">
<style type="text/css">
	.st0{opacity:0.7;}
	.st1{fill:#11469D;}
</style>
<sodipodi:namedview  bordercolor="#666666" borderopacity="1" gridtolerance="10" guidetolerance="10" id="namedview823" inkscape:current-layer="g1390" inkscape:cx="95.589873" inkscape:cy="109.35597" inkscape:pageopacity="0" inkscape:pageshadow="2" inkscape:window-height="705" inkscape:window-maximized="1" inkscape:window-width="1366" inkscape:window-x="-8" inkscape:window-y="-8" inkscape:zoom="0.84566151" objecttolerance="10" pagecolor="#ffffff" showgrid="false">
	</sodipodi:namedview>
<g id="g1390" transform="translate(2.0604711,1.6890588)" class="st0">
	<path id="path1430" inkscape:connector-curvature="0" class="st1" d="M46.5,391.9c-15.7-2.9-29.2-10.7-38-22
		c-6.4-8.2-7.1-10.8-6.4-22.3c0.4-7,1.4-10,4.6-14.6c5.6-8.2,15.8-15.6,26-19c22-7.3,63.9-0.4,110.3,18.2l17.5,7l8.1-4.5
		c25-13.8,52.6-27.3,64.3-31.4c12.8-4.5,14.2-4.7,32.8-4.7c17.1,0,20.3,0.3,26.9,3c16.2,6.7,25.3,19.3,25.3,35.1
		c0,14.5-5.3,24.4-19.3,35.9c-26.8,22.1-61.4,25.2-109.6,9.7c-9.4-3-22.7-7.8-29.6-10.7l-12.6-5.2l-6.2,3.2
		c-11.9,6.1-35.6,15.5-48,18.9C78.7,392.4,57.5,393.9,46.5,391.9L46.5,391.9z M257.4,378.9c5.7-1.2,14.3-4.3,19.3-6.9
		c11.5-6.1,24.4-19.5,26.5-27.5c3.2-12.2-2.7-22.5-15.7-27.5c-6.7-2.6-9.6-2.9-22.4-2.3c-18,0.8-29.3,4.6-58.3,19.5
		c-27.4,14.1-26.8,13.5-13.5,15.6c12.9,2,25.7,1.2,37.7-2.7c4.6-1.5,8.6-2.5,8.9-2.2c0.6,0.7-11.5,5.8-18.4,7.7
		c-7.5,2.1-33.7,2.3-40.7,0.2c-4.9-1.4-5.8-1.2-15.9,4.4l-10.7,5.9l12.8,4.2C207,380.3,234.1,383.8,257.4,378.9L257.4,378.9z
		 M72.2,375.5c5.2-0.8,13.6-2.6,18.8-4.2c9.5-2.8,31.2-11.7,33.3-13.5c1.8-1.6-12-5.7-25.2-7.5l-12.1-1.7l10.7-0.1
		c7.1,0,14.6,1,22.1,3l11.4,3.1l10.7-5.4l10.7-5.4l-9.4-3.3c-42.6-14.9-87.8-20.8-105.9-13.9c-8.2,3.1-17,10.3-20.1,16.4
		c-5.3,10.4,0,19.2,16.4,27.3C46.1,376.5,56.2,377.9,72.2,375.5z M90.6,271.3c-3.9-2-9.7-6.7-13-10.4c-7.9-8.9-10.7-17.7-10.6-32.6
		c0.2-22.9,9-39.5,35.8-68c17.8-18.9,24.5-28.3,30.1-42.1c5.5-13.5,7.3-22.5,6.5-33.1c-0.8-11,0.7-11,3.8-0.2
		c4.6,16.2-0.3,44.1-11,62.5c-2.7,4.6-10,14.4-16.2,21.8c-27.9,33-33.8,44.4-33.8,65.3c0,11,5,21.4,13.1,27.1
		c5.1,3.6,6.9,4.1,14.7,4c9.6-0.1,15.5-2.3,22-8.5c4.9-4.7,4.7-2.1-0.4,4.2c-6.4,8-14.7,12.2-25.1,12.9
		C98.9,274.9,96.7,274.5,90.6,271.3L90.6,271.3z M190.4,267.9l-4.4-4.1l4.9,2.3c6.6,3.1,13.4,1.6,19-4.1c7.5-7.6,9.5-13.5,10-29
		c0.8-23.7-6.6-44-28.9-79c-30.5-48-41.6-76.2-40.2-102.3c0.5-10.6,1.3-14.1,4.8-21.2c3.8-7.9,13.7-19.8,13.7-16.5
		c0,0.8-0.8,2.2-1.9,3s-3.3,4.8-5,8.7c-4.4,10-4.4,29.2,0,41.9c6.1,17.7,19.9,42.3,45.3,81.1c10.3,15.6,15.3,25.8,19.6,39.8
		c11.4,36.7,5.8,66.1-15.1,79.6C203.9,273.6,196.3,273.5,190.4,267.9L190.4,267.9z M148.7,227c-12.9-11.5-11.6-44.5,2.1-53.1
		c5.9-3.7,11.3-2.6,16.8,3.3c8.8,9.6,10.7,28.5,4.3,42.3C166.3,231.4,157,234.4,148.7,227z M-2.1-1.7"/>
	<path id="path1460" inkscape:connector-curvature="0" class="st1" d="M42,391.5c-11.3-2.9-21.7-8.6-29.1-16.1
		C3.2,365.8,1.5,362.1,1.7,351c0.2-11.4,2.2-16.4,9.5-23.8c12.8-13,23.8-16.6,48.5-15.7c25.1,0.9,50.1,7,84.5,20.6l16.3,6.5
		l10.8-5.9c18.7-10.3,50.7-25.9,61.8-30.1c10.7-4,10.7-4,32.7-4c21.2,0,22.2,0.1,28.7,3.2c8.2,3.8,16.9,11.8,20.3,18.4
		c3.5,7,4.3,22.3,1.4,31c-1.7,5.2-4,8.4-11.7,16.2c-11.5,11.7-23.7,18.6-39.5,22.4c-9.1,2.2-12.8,2.5-27.8,1.9
		c-10.7-0.4-21.1-1.6-27.3-3c-12.5-2.9-37.2-11.1-51.8-17l-10.9-4.5l-4.6,2.4c-12.9,6.7-43.6,18.3-55.6,20.9
		C74.6,393.2,50.5,393.7,42,391.5L42,391.5z M256.8,378.2c16.9-3.6,34.3-15.2,43.1-28.7c6.1-9.4,3.6-21.6-5.8-28.2
		c-11.6-8.2-33.5-8.6-55.4-1c-8.6,3-46.2,21.3-51.6,25.2c-2.4,1.7-2.4,1.8,1,2.7c6.7,1.9,33.8,1.1,41.4-1.2
		c12.5-3.8,12.1-3.7,10.1-1.7c-1,1-5.5,3.3-10.1,5.2c-7.9,3.2-9.3,3.4-26.7,3.5c-10.1,0-20.8-0.2-23.8-0.5
		c-4.6-0.5-6.6,0.2-14.2,4.4l-8.8,5l13,4.2c15.4,5,31,9.1,43.3,11.2C224.6,380.4,246.7,380.4,256.8,378.2L256.8,378.2z M72.5,374.6
		c16.6-2.5,52.3-15.2,49.9-17.7c-1.6-1.6-17.8-5.6-27-6.6c-6.8-0.7-7.8-1.1-5.4-2c3.8-1.4,17-0.2,30.1,2.9l10.5,2.4l10.1-4.6
		c5.5-2.5,9.6-5,9.1-5.5C148,342,117,333,102.5,329.9c-28.8-6.1-54.7-7-65.4-2.4c-18,7.8-25.6,21.9-17.3,32.2
		c6.2,7.6,25.3,15.8,38.6,16.6C59.7,376.4,66.1,375.6,72.5,374.6L72.5,374.6z"/>
	<path id="path1462" inkscape:connector-curvature="0" class="st1" d="M193.9,271.1c-3.3-1.8-7.7-6-7.7-7.3c0-0.6,1.6-0.2,3.5,0.8
		c8.3,4.3,17.5,1.1,24.1-8.4c7.9-11.5,7.5-38.1-0.8-59.6c-4.1-10.7-11.7-24.8-24.1-44.9c-30.2-49-39.2-72.7-38.1-100.3
		c0.5-11.8,0.9-13.9,4.4-20.8c4.1-8.2,13.3-19.3,14-17.1c0.3,0.8-0.9,3.4-2.6,5.9c-6.5,9.8-8.6,28.5-4.7,43.5
		c3.8,14.9,17.9,41.2,42.9,79.9c13.9,21.6,20.6,35.6,24.8,51.7c7.4,28.5,4.5,51.5-8.3,66.7C213.8,270.1,200.5,274.8,193.9,271.1z"/>
	<path id="path1464" inkscape:connector-curvature="0" class="st1" d="M150.8,229c-7.4-4.6-11.3-14.3-11.2-28.4
		c0.1-23.4,15.4-37.2,27.2-24.5c7.6,8.2,10.8,20.3,8.6,32.9C172.1,227.1,161.6,235.7,150.8,229L150.8,229z"/>
	<path id="path1466" inkscape:connector-curvature="0" class="st1" d="M91.4,272.3c-7.2-3.6-15.8-11.8-19.5-18.7
		c-7.9-14.8-6.9-38,2.3-56.6c4.4-8.9,13.8-21.2,28.2-36.9c20.8-22.8,27.1-32.4,33.3-51.2c2.4-7.2,3-11.4,3-20.7
		c0-8.4,0.4-11.5,1.4-11.2c5.5,1.9,6.9,29.6,2.4,46.3c-5.3,19.5-8.9,25.7-29.4,50.8c-24,29.4-29.4,40.1-29.5,58.6
		c-0.1,10.7,0.2,12,3.6,18.1c2.4,4.3,5.6,8,9.3,10.6c4.9,3.4,6.7,3.9,13,3.9c8.9-0.1,14.5-2,20.9-7.2c9-7.3,7.4-1.6-2.1,7.5
		C118.5,274.7,102.3,277.7,91.4,272.3L91.4,272.3z"/>
</g>
</svg>
