<svg id="Слой_1" data-name="Слой 1" xmlns="http://www.w3.org/2000/svg" viewBox="0 0 579.66 665.16"><defs><style>.cls-1{opacity:0.5;}.cls-2{fill:#f2f25a;}</style></defs><title>palmleaf1</title><g id="g4257" class="cls-1"><path id="path4271" class="cls-2" d="M170.86,328.76c1.95,1.5,3.44,3.86,3.31,5.24s-1.72.16-3.54-2.72c-2-3.19-1.92-4.17.23-2.52Zm93.43,38.08c1.95,1.49,3.44,3.85,3.31,5.24s-1.72.16-3.54-2.72c-2-3.19-1.92-4.18.23-2.52ZM386,512.48a86.71,86.71,0,0,1,10,14.7c2.25,4.39-.41,1.36-5.91-6.72S382.7,508.79,386,512.48ZM261.32,286.79c1.95,1.5,3.43,3.86,3.31,5.24s-1.72.16-3.54-2.72c-2-3.18-1.92-4.17.23-2.52Zm79.34,59.62c1.23-5.7,1.37-5.66,1.52.44.09,3.7-.21,7-.67,7.29C339.7,355.37,339.37,352.39,340.66,346.41ZM295.13,213.23c1.23-5.69,1.37-5.65,1.52.45.09,3.7-.21,7-.67,7.29C294.17,222.2,293.84,219.21,295.13,213.23Zm129.12,167c2.65-1.62,3.6-1.34,2.43.71-1.07,1.85-3,3-4.36,2.65S421.85,381.72,424.25,380.26ZM605,541.58c2,1.49,3.43,3.85,3.31,5.24s-1.72.16-3.54-2.73C602.78,540.91,602.87,539.92,605,541.58Z" transform="translate(-49.32 -76.47)"/><path id="path4269" class="cls-2" d="M81.57,430.06c3.66-2.42,5.29-2.65,3.61-.51s-4.68,4.1-6.67,4.38S77.9,432.47,81.57,430.06Zm189.05,74.65c3.67-2.41,5.29-2.64,3.61-.51s-4.67,4.11-6.66,4.39-.61-1.46,3.05-3.88Zm-29.51-54.94c1.14-.78,3.48-.63,5.21.32s1.22,2-1.35,2.46C240,453.36,238,451.92,241.11,449.77Zm18.92-.83c9.38-.68,11.47-.3,8.68,1.6-1.18.81-5.34.9-9.24.21C252.78,449.57,252.81,449.46,260,448.94ZM234.45,332.42c2,1.49,3.44,3.85,3.31,5.24s-1.72.16-3.54-2.73c-2-3.18-1.92-4.17.23-2.51Zm42.94,49c1.95,1.49,3.44,3.85,3.31,5.24s-1.72.16-3.54-2.73c-2-3.18-1.92-4.17.23-2.51ZM375,496.54c2.32,2.22,4.74,5.85,5.37,8.07s-1.28.4-4.23-4-3.47-6.25-1.14-4Zm27.26,40.08c2.32,2.22,4.74,5.85,5.37,8.07s-1.28.41-4.23-4-3.47-6.26-1.14-4ZM404,462.08c4.23,1,8.1,2.45,8.6,3.18s-2.55.51-6.78-.51-8.1-2.45-8.6-3.18S399.81,461.06,404,462.08ZM341,365.75c1.23-5.7,1.37-5.66,1.52.44.09,3.7-.21,7-.67,7.3C340,374.72,339.66,371.73,341,365.75Zm76.7,19c2.65-1.61,3.6-1.33,2.43.71-1.06,1.86-3,3.05-4.36,2.66S415.25,386.2,417.65,384.74Zm45.42-23.07c2.65-1.61,3.6-1.33,2.43.72-1.07,1.85-3,3-4.36,2.65s-.47-1.9,1.93-3.36Z" transform="translate(-49.32 -76.47)"/><path id="path4267" class="cls-2" d="M261.8,510.26c2.65-1.61,3.6-1.33,2.42.71-1.06,1.85-3,3-4.35,2.66s-.47-1.91,1.93-3.37Zm19.82-13c3.66-2.42,5.29-2.65,3.61-.51s-4.68,4.1-6.66,4.38-.62-1.46,3.05-3.87Zm-4.13-48.64c1.21-.82,4.48-1.34,7.26-1.15s4.07,1,2.86,1.84-4.48,1.34-7.26,1.15S276.28,449.42,277.49,448.6Zm89.26,35.91a15,15,0,0,1,4.54,6.68c.64,2.25-.88,1.09-3.38-2.59S364.89,483.08,366.75,484.51Zm43.77,64.27c2,1.49,3.44,3.85,3.31,5.24s-1.72.16-3.54-2.72c-2-3.19-1.92-4.18.23-2.52Zm-69-165.69,1.49-8.45-.1,8.86c-.1,8.33-.8,11.11-2.25,9C340.29,392,340.67,387.75,341.49,383.09Zm72.36,82.09c.47-.32,2.72.88,5,2.67s2.73,3.19.85,3.1c-3.16-.15-7.62-4.56-5.84-5.77Zm67.49-111.71c3-2.06,4.68-2.29,3.67-.52a8.52,8.52,0,0,1-5.5,3.73C477.49,357,478.32,355.52,481.34,353.47Z" transform="translate(-49.32 -76.47)"/><path id="path4265" class="cls-2" d="M184.15,457.55c2.65-1.62,3.6-1.34,2.42.71-1.06,1.85-3,3.05-4.36,2.65S181.75,459,184.15,457.55Zm117.59,22,22.17-14.68-16.73,14.78c-10.54,9.31-18.75,14.75-22.18,14.68C281.23,494.24,286.38,489.69,301.74,479.53Zm-4.69-32.63c1.14-.77,3.48-.63,5.21.32s1.22,2-1.36,2.46C295.89,450.49,293.89,449.05,297.05,446.9ZM211.88,308.68c2,1.5,3.44,3.86,3.31,5.24s-1.72.16-3.54-2.72c-2-3.18-1.92-4.17.23-2.52Zm147.6,165.14A15,15,0,0,1,364,480.5c.64,2.25-.88,1.09-3.38-2.59S357.62,472.39,359.48,473.82Zm56.49,83c1.95,1.5,3.44,3.86,3.31,5.24s-1.72.16-3.54-2.72c-2-3.18-1.92-4.17.23-2.52ZM341.53,404.44c1.23-5.7,1.37-5.66,1.52.44.08,3.7-.22,7-.67,7.29C340.57,413.4,340.24,410.42,341.53,404.44Zm33.2,9.8c3-2.06,4.67-2.29,3.66-.52a8.55,8.55,0,0,1-5.49,3.74C370.88,417.74,371.7,416.3,374.73,414.24Zm24.57-20.62c3-2.05,4.67-2.29,3.67-.52a8.59,8.59,0,0,1-5.5,3.74C395.45,397.13,396.28,395.68,399.3,393.62Zm35.43-18.84c.59-1.73,1.94-1.88,3-.32s.93,3.5-.28,4.33-2.56,1-3,.31-.31-2.59.28-4.32Zm-6.57-59.71c2.65-1.62,3.6-1.34,2.43.71-1.06,1.85-3,3.05-4.36,2.65S425.77,316.53,428.16,315.07Z" transform="translate(-49.32 -76.47)"/><path id="path4263" class="cls-2" d="M254.16,517.35c2.14-3.58,2.6-3.44,2.24.66-.25,2.84-1.46,4.87-2.7,4.51S252.67,519.83,254.16,517.35Zm49.42-35.5c2.65-1.62,3.6-1.34,2.43.71-1.06,1.85-3,3.05-4.36,2.65s-.46-1.9,1.93-3.36Zm6.18-35.46c9.38-.68,11.47-.29,8.67,1.61-1.18.8-5.34.89-9.24.2C302.5,447,302.53,446.92,309.76,446.39ZM327,462.31c3-2.05,4.67-2.29,3.66-.52a8.57,8.57,0,0,1-5.5,3.74C323.17,465.82,324,464.37,327,462.31Zm27.17,3.63c1.95,1.49,3.43,3.85,3.31,5.24s-1.72.16-3.54-2.73c-2-3.18-1.92-4.17.23-2.51Zm25.49-13c5.61,1.39,10.12,3.34,10,4.32-.28,3-6.84,1.7-13.72-2.7-6.19-4-6-4,3.69-1.62Zm2.77-45.07c15.22-12.49,30.81-22.82,28.27-18.73C407.4,394.49,381,414,379.65,412,379.2,411.36,380.46,409.49,382.45,407.86ZM522.28,520.73A86.52,86.52,0,0,1,531,526.2c6.76,4.62,6.77,4.74.22,2C525.52,525.89,517.15,518.86,522.28,520.73ZM435.82,310.17c3-2.06,4.67-2.29,3.67-.52a8.59,8.59,0,0,1-5.5,3.74C432,313.67,432.8,312.23,435.82,310.17Zm-28.36-61.81,1.48-8.46-.1,8.86c-.09,8.33-.79,11.11-2.24,9C406.25,257.23,406.64,253,407.46,248.36Zm102.22,90c4.24-2.88,6.34-3.5,4.68-1.39a18.1,18.1,0,0,1-7.69,5.23C504.09,343,505.45,341.27,509.68,338.39Z" transform="translate(-49.32 -76.47)"/><path id="path4261" class="cls-2" d="M185.23,738.19c2.65-1.62,3.6-1.34,2.42.71-1.06,1.85-3,3-4.35,2.65s-.47-1.9,1.93-3.36Zm-25-272.53c3-2,6.54-3,8-2.21s-.67,2.89-4.66,4.68C154.75,472.07,152.89,470.68,160.26,465.66Zm81.09,65c2.87-3.65,4-3.88,3.68-.79-.22,2.42-2.06,4.76-4.08,5.2S239,533.59,241.35,530.62Zm68.83-53.26c2.65-1.61,3.6-1.33,2.43.71-1.07,1.85-3,3.05-4.36,2.66s-.47-1.91,1.93-3.37ZM185.74,287.07c2.74.79,4.88,2.49,4.76,3.77s-2.35.64-5-1.44C181.74,286.41,181.79,285.93,185.74,287.07ZM334.67,487.76c-.36-3.28.28-4.2,1.6-2.3a8.05,8.05,0,0,1,1.13,6.31C336.06,495.67,335.43,494.75,334.67,487.76Zm-12.76-42.13c1.14-.78,3.49-.63,5.21.32s1.22,2-1.35,2.46c-5,.81-7-.63-3.86-2.78ZM419.41,565a4.19,4.19,0,0,1,3.8,3.51c.63,5-1.15,5.19-4.35.5-1.55-2.29-1.31-4.1.55-4ZM348.74,457.92c1.94,1.5,3.43,3.85,3.31,5.24s-1.72.16-3.54-2.72c-2-3.19-1.92-4.18.23-2.52Zm-8.11-30.12c.18-6.16,1.05-10.13,1.93-8.84s1.05,6.86.37,12.37c-1.56,12.75-2.73,11-2.3-3.53Zm18.25,20c3.45-.07,9.26,1.74,12.91,4,5.34,3.34,4.22,3.51-5.75.9-14.39-3.78-15.8-4.74-7.16-4.92Zm-1-18.08c3.67-2.41,5.29-2.64,3.61-.51s-4.68,4.11-6.66,4.39-.62-1.47,3.05-3.88ZM388.14,478c1.94,1.5,3.43,3.86,3.31,5.24s-1.72.16-3.54-2.72c-2-3.18-1.93-4.17.23-2.52Zm3.77-21.37c.46-.31,3.62.61,7,2.06,5.62,2.38,5.61,2.52-.14,1.57C392.76,459.28,390.1,457.88,391.91,456.65Zm-9.06-52.15c2.65-1.61,3.6-1.33,2.42.71-1.06,1.85-3,3.05-4.36,2.66S380.45,406,382.85,404.5ZM538.62,531.71c2.74.79,4.88,2.48,4.76,3.77s-2.36.63-5-1.44C534.62,531,534.67,530.56,538.62,531.71ZM332.12,212c.88-4.73,1.32-4.78,2.65-.33.88,2.93.72,5.93-.36,6.67C331.58,220.21,330.92,218.39,332.12,212ZM493,346.9c.59-1.73,1.94-1.87,3-.31s.94,3.5-.27,4.32-2.56,1-3,.32S492.37,348.64,493,346.9Zm28.75-16.83c3.67-2.41,5.29-2.64,3.61-.51s-4.67,4.11-6.66,4.39-.61-1.47,3.05-3.88Z" transform="translate(-49.32 -76.47)"/><path id="path4259" class="cls-2" d="M208.39,714.77C282.58,644.2,313.79,601,326.69,551.16c4.31-16.67,11.28-63.27,9.8-65.46-.48-.7-4.88,4.78-9.78,12.18C306.76,528,259.22,561.49,214.22,577l-12.56,4.33,10.72-31.62c9.68-28.56,14.06-38.47,25.32-57.29,3.13-5.24.34-5.46-23.79-1.84-47.11,7.07-90.46,3.24-142.79-12.6l-21.8-6.6,11-15.64c6.14-8.71,17-19.71,24.56-24.81,33.29-22.57,93.42-31.39,153.61-22.54,18.45,2.71,33.52,4.45,33.51,3.85s-19.12-15.35-42.44-32.77c-60-44.83-66.86-54.37-94.77-132.07-7.31-20.34-12.31-37.16-11.13-37.38s17.82,3.48,37,8.22c47.06,11.67,71.67,29.12,100.17,71,9.94,14.62,17.78,28.67,51.63,92.44,6.38,12,6.37,11.11-.25-13.51-18-67.08-21.92-118.29-12.71-166.92,6.34-33.47,15.55-53.5,36.82-80,10.05-12.54,20.95-27.9,24.22-34.15s6.17-11,6.44-10.63c5.78,8.49,28.75,77,34.37,102.45,12.12,55,5.44,110-20.68,170.47-3.81,8.82-6.48,16.71-5.93,17.53s8.21-6.55,17-16.38c18.35-20.5,58.06-48.88,78.89-56.38,13-4.7,121.16-22.32,127.75-20.82,7,1.59-11.18,46.84-30.25,75.29-17.45,26-44.06,50.44-65.37,60-8.81,3.94-33.1,11.85-54,17.57s-38,10.91-38,11.52,8.71,1.85,19.48,2.73a230.32,230.32,0,0,1,171.51,99.65c9.92,14.52,26.14,48.59,27.24,57.22.19,1.49-10-1.44-22.64-6.52s-41.88-15.74-65-23.7c-48.95-16.87-85.68-36.83-126-68.5-15.79-12.38-28.76-21.89-28.83-21.13s7.17,8.55,16.08,17.32c22.08,21.71,45.66,56.55,53.26,78.66,6.18,18,17,65.33,18,78.64.55,7.36.39,7.38-6.26.89-3.76-3.67-16.52-13.82-28.35-22.57-47.67-35.22-75.91-70.31-86.2-107.12l-5.71-20.44-1.93,10c-1.05,5.5-3.67,18.94-5.81,29.86s-9.29,31.08-15.9,44.78C304.53,627.13,281,655.14,225,705.13c-32.87,29.31-44.21,35.9-16.61,9.64Zm55.42-262.56c37.1-2.65,65.68-5.33,63.5-6s-29,0-59.64,1.37c-57.11,2.57-81.06,6.47-102,16.63-9.16,4.45-7,4.29,9.37-.71C188,459.58,222.75,455.14,263.81,452.21ZM252,524.36c6.21-6.32,22.08-19,35.27-28.24S316.54,474.34,323,468.2c8-7.58-.78-2.24-27.26,16.66-33.48,23.91-61.6,49-56.52,50.53.84.24,6.61-4.72,12.82-11ZM190.5,290.84c.12-1.28-2-3-4.76-3.77-4-1.14-4-.66-.21,2.33C188.15,291.48,190.38,292.12,190.5,290.84Zm20.9,20.86c5.23,5,23.44,25.19,40.47,44.78,31.21,35.88,70.05,75.41,70.39,71.65.11-1.12-7-9.11-15.75-17.76s-31.44-33.32-50.4-54.82c-32.51-36.88-59-63.41-61.64-61.65-.64.44.77,2.55,3.13,4.71S206.18,306.65,211.4,311.7ZM346.27,451.29a4.92,4.92,0,0,0-.92-5.68c-1.5-1.51-2.47-20.24-2.16-41.61.69-46.51-.58-83.44-4.93-143.39-3.68-50.82-4-53.94-5.49-52.93-.6.4-.13,15.47,1,33.49,6,93.93,8.45,198.2,4.65,201.5a21.16,21.16,0,0,1-4.42,2.95c-1.09.46.81,2.58,4.23,4.71s7,2.57,8,1Zm79.44,123.06c-1.53-4.33-20.07-33.05-41.2-63.82l-38.42-55.94,36,55.63c19.81,30.59,38.35,59.31,41.2,63.81,5,7.86,5.08,7.88,2.41.32Zm-1.29-101.2c32.49,13.41,59.17,27,92.3,47.13,15.87,9.63,28.14,16.46,27.26,15.17-3.81-5.61-61.29-39.91-88.22-52.64-33.81-16-87.65-35.23-97.79-34.94-3.78.11,4.49,3.72,18.38,8s35.53,12.07,48.07,17.25Zm-62.89-43.94c1.68-2.13.06-1.9-3.61.51s-5,4.16-3.05,3.88,5-2.26,6.66-4.39ZM471.8,360.89c16.07-7.48,35.54-18.22,43.26-23.87l14-10.27-12.7,7.33c-7,4-28.63,14.77-48.11,23.85-54.13,25.23-67.94,33.12-87.29,49.88l-17.83,15.45,39.7-24.38C424.71,385.47,455.73,368.37,471.8,360.89Z" transform="translate(-49.32 -76.47)"/></g></svg>