<svg id="Слой_1" data-name="Слой 1" xmlns="http://www.w3.org/2000/svg" viewBox="0 0 699.71 771.33"><defs><style>.cls-1{opacity:0.7;}.cls-2{fill:#caabcd;}</style></defs><title>palmleaf</title><g id="g857" class="cls-1"><path id="path871" class="cls-2" d="M21.33,607.61c.81-2.88,1.15-3,2.38-.79a2.7,2.7,0,0,1-.78,3.76C20.24,612,20.15,611.85,21.33,607.61ZM144.17,714.33a6.09,6.09,0,0,1,4.23-.36c1.22.43.47,1.16-1.77,1.7-4.36,1.05-5.64.36-2.46-1.34ZM75.64,519.83a20.51,20.51,0,0,1,4,7.45c.47,2.11-1,.48-3.13-3.62s-2.57-5.82-.84-3.83Zm48.74-20.28a9.5,9.5,0,0,1,2.81,5.2c.21,1.73-.87.8-2.42-2.06S123.05,498.42,124.38,499.55Zm-.71-54c1.22.73,1.83,2.05,1.37,2.94s-1.47.28-2.22-1.33c-.82-1.79-.49-2.42.85-1.61Zm128.05,58c1.22.73,1.83,2.05,1.36,2.94s-1.46.28-2.21-1.33c-.83-1.79-.49-2.42.85-1.61Zm39.86,5.41a4.56,4.56,0,0,1,2,3.72c-.06,1.35-1,.78-2.11-1.27S290.41,508.25,291.58,508.94Zm100.27,92.45c.46-.25,2.83,0,5.27.54,4,.89,4,1-.53,1C391.86,603,390,602.36,391.85,601.39ZM269.15,324.75A9.47,9.47,0,0,1,272,330c.22,1.72-.87.8-2.41-2.06S267.83,323.61,269.15,324.75Zm37.63,59.35a4.55,4.55,0,0,1,2,3.72c-.06,1.34-1,.78-2.11-1.27S305.61,383.41,306.78,384.1Zm95.33-50.6c2.51-3.72,2.61-3.71,1.13.11-.89,2.32-2,4.42-2.46,4.67C399,339.25,399.47,337.4,402.11,333.5ZM303,148.35c.94-1.15,2.1-1.39,2.56-.52s-.14,2.1-1.36,2.75-2.37.89-2.56.53S302,149.51,303,148.35ZM407.74,322.84c2.51-3.72,2.62-3.71,1.14.11-.9,2.32-2,4.42-2.47,4.67C404.59,328.59,405.11,326.74,407.74,322.84Zm177,70.57c2.61-1.31,3.33-1.23,1.82.18s-3.3,2.25-4.3,2.14.11-1.15,2.48-2.32Z" transform="translate(-8.64 -44.32)"/><path id="path869" class="cls-2" d="M69.21,731.34c.46-.24,2.84,0,5.28.54,4,.89,4,1-.54,1C69.22,732.91,67.4,732.31,69.21,731.34Zm2.32-250.49a4.53,4.53,0,0,1,2,3.71c-.07,1.35-1,.79-2.12-1.26S70.37,480.15,71.53,480.85Zm253.7,225.91c3.23.19,6.06.67,6.28,1.08s-2.24.59-5.47.41-6.06-.67-6.28-1.08S322,706.58,325.23,706.76ZM254.69,546c1.21.73,1.83,2.06,1.36,2.94s-1.47.29-2.22-1.33c-.82-1.79-.49-2.42.86-1.61Zm3.11,5.88a4.53,4.53,0,0,1,2,3.71c-.06,1.35-1,.78-2.12-1.26S256.63,551.14,257.8,551.84Zm159.29,106.9c.45-.25,2.83,0,5.27.54,4,.89,4,1-.54,1C417.1,660.3,415.27,659.71,417.09,658.74Zm-11.42-56.11c3.23.18,6.05.67,6.27,1.07s-2.24.6-5.47.42-6.05-.67-6.27-1.08S402.44,602.45,405.67,602.63ZM273.5,333a4.54,4.54,0,0,1,2,3.72c-.06,1.35-1,.78-2.12-1.27S272.34,332.26,273.5,333Zm36.58,57.16c1.22.74,1.83,2.06,1.36,2.95s-1.46.28-2.21-1.34c-.83-1.78-.49-2.42.85-1.61Zm55.21,12.66c1.21.74,1.83,2.06,1.36,3s-1.46.28-2.21-1.34c-.83-1.78-.5-2.42.85-1.61Zm96.15,163.42c5.75.51,10.63,1.25,10.85,1.66s-4.3.33-10.05-.17-10.64-1.25-10.86-1.66S455.69,565.69,461.44,566.19ZM331.59,187.27c1.22.73,1.83,2.06,1.37,2.94s-1.47.29-2.22-1.33c-.82-1.79-.49-2.42.85-1.61Zm3.92,7.36a4.56,4.56,0,0,1,2,3.72c-.06,1.35-1,.78-2.12-1.26S334.34,193.94,335.51,194.63Zm259.14,193.8c4.26-2.27,6.16-2.89,4.24-1.39a30.34,30.34,0,0,1-7.74,4.13C588.82,391.93,590.4,390.7,594.65,388.43Zm32.73,18.46c1.21-.65,2.59-.47,3.06.4s-.37,1.69-1.86,1.83-2.87,0-3.06-.39S626.16,407.54,627.38,406.89Z" transform="translate(-8.64 -44.32)"/><path id="path867" class="cls-2" d="M9.94,693.7c1.22.73,1.83,2.06,1.36,2.94s-1.46.29-2.21-1.33c-.83-1.79-.49-2.42.85-1.61ZM38.14,535a4.53,4.53,0,0,1,2,3.71c-.06,1.35-1,.78-2.12-1.26S37,534.32,38.14,535Zm31.08-58.56c1.22.73,1.83,2.05,1.36,2.94s-1.46.29-2.21-1.33c-.83-1.79-.49-2.42.85-1.61Zm5.61,10.4c1.22.73,1.83,2.06,1.37,2.94s-1.47.29-2.22-1.33c-.83-1.79-.49-2.42.85-1.61Zm52.85-33.92c1.22.73,1.83,2.05,1.36,2.94s-1.46.29-2.21-1.33c-.83-1.79-.49-2.42.85-1.61ZM286.93,691.79c.46-.25,2.83,0,5.27.54,4,.89,4,1-.53,1C286.94,693.35,285.11,692.76,286.93,691.79ZM276.81,339c1.21.73,1.83,2,1.36,2.94s-1.47.28-2.22-1.33c-.82-1.79-.49-2.42.86-1.61Zm37.32,58.43a36.46,36.46,0,0,1,5.21,9.67c.94,2.91-.63.95-3.5-4.36S312.2,395,314.13,397.4Zm39.4,15.35a4.54,4.54,0,0,1,2,3.72c-.06,1.34-1,.78-2.12-1.27S352.37,412.06,353.53,412.75Zm-36.38-79.63c1.18-.63,2.11.17,2.07,1.76s-.46,3.12-.94,3.38-1.41-.54-2.07-1.77A2.47,2.47,0,0,1,317.15,333.12ZM444.87,564.5c3.23.18,6.05.67,6.27,1.08s-2.24.59-5.47.41-6.05-.67-6.27-1.08S441.64,564.32,444.87,564.5ZM307.94,154c1.21.73,1.83,2,1.36,2.94s-1.46.29-2.21-1.33c-.83-1.79-.5-2.42.85-1.61ZM469,369.23c3.67-1.92,5.07-2.24,3.12-.72A21,21,0,0,1,465.5,372c-1.71.39-.12-.86,3.54-2.77Zm-23.25-82.7c.94-1.16,2.09-1.39,2.56-.53s-.15,2.11-1.36,2.76-2.37.88-2.56.52S444.84,287.68,445.79,286.53Zm197-241.88c1.29-.69,2.09-.26,1.78,1A5,5,0,0,1,643,48.35c-.53.28-1.33-.15-1.77-1S641.49,45.33,642.77,44.65Z" transform="translate(-8.64 -44.32)"/><path id="path865" class="cls-2" d="M42.22,563.58c1.21.73,1.83,2.06,1.36,2.94s-1.46.29-2.21-1.33c-.83-1.79-.5-2.42.85-1.61Zm6.41,11.89c1.22.73,1.83,2.06,1.36,2.94s-1.46.29-2.21-1.33c-.83-1.79-.5-2.42.85-1.61ZM261.9,559.34c1.22.73,1.83,2,1.36,2.94s-1.46.28-2.21-1.33c-.83-1.79-.5-2.42.85-1.61Zm-123.38-241c.95-1.15,2.1-1.39,2.57-.52s-.15,2.1-1.36,2.75-2.37.88-2.57.52S137.58,319.49,138.52,318.34Zm118,194.1c1.22.74,1.83,2.06,1.36,2.94s-1.46.29-2.21-1.33c-.83-1.79-.49-2.42.85-1.61Zm68.85-94.24a103.78,103.78,0,0,1,8.42,15.6c1.86,4.53-.39,1.21-5-7.37S322.62,414.14,325.38,418.2Zm131.54-42.44c4.25-2.27,6.16-2.89,4.23-1.38a30.6,30.6,0,0,1-7.73,4.13C451.09,379.27,452.66,378,456.92,375.76Zm22-11.89c3-1.62,4.46-1.95,3.17-.73a14.12,14.12,0,0,1-5.53,2.95C474.86,366.49,475.92,365.49,479,363.87Zm20.67,11.94c3-1.62,4.46-1.95,3.16-.73a14,14,0,0,1-5.52,2.95C495.53,378.43,496.59,377.43,499.63,375.81ZM629.39,157c1.29-.68,2.09-.25,1.78,1a5,5,0,0,1-1.54,2.74c-.53.28-1.33-.15-1.77-1S628.11,157.72,629.39,157Z" transform="translate(-8.64 -44.32)"/><path id="path863" class="cls-2" d="M45,568.71a6.6,6.6,0,0,1,2.32,4.5c-.06,1.33-1.16.39-2.43-2.09s-1.23-3.56.11-2.41ZM156.68,701.16a1.59,1.59,0,1,1,1.44,2.67c-1.24.12-2.39,0-2.56-.35S155.9,702.12,156.68,701.16Zm14.24-45.1c.46-.25,2.21,1,3.87,2.66s2,3.21.71,3.34c-2.24.21-6.29-5.09-4.58-6Zm-18.06-235.8a36.25,36.25,0,0,1,5.21,9.66c.94,2.91-.63.95-3.5-4.36S150.94,417.86,152.86,420.26Zm106.88,98a16.27,16.27,0,0,1,3.6,6.69c.47,2.12-.77.84-2.76-2.84S258.22,516.71,259.74,518.27ZM201.05,383.19c1.22.73,1.83,2.06,1.37,2.94s-1.47.29-2.22-1.33c-.82-1.79-.49-2.42.85-1.61ZM209,398a4.54,4.54,0,0,1,2,3.72c-.07,1.35-1,.78-2.12-1.26S207.81,397.29,209,398Zm-1.65-50.78a16.35,16.35,0,0,1,3.61,6.69c.46,2.12-.78.84-2.77-2.84S205.8,345.64,207.32,347.2ZM434.4,617c.46-.24,2.83,0,5.27.54,4,.89,4,1-.53,1C434.41,618.54,432.58,617.94,434.4,617Zm-12.7-54.54c13.08,1,15.55,1.35,13.89,2.24-.35.18-6.79-.47-14.3-1.47l-13.66-1.8Zm-101.76-191c1.22.73,1.83,2.06,1.36,2.94s-1.46.29-2.21-1.33c-.83-1.79-.49-2.42.85-1.61Zm72.77-18.23c2.71-2.49,3.06-2.45,1.68.17-.95,1.82-2.49,3.23-3.41,3.13S390.83,355,392.71,353.23Zm94.11,6.3c2.61-1.31,3.32-1.23,1.81.18s-3.29,2.25-4.29,2.14.11-1.15,2.48-2.32Zm22.78,11c3.67-1.91,5.07-2.23,3.12-.71a21,21,0,0,1-6.66,3.48c-1.71.39-.12-.86,3.54-2.77Z" transform="translate(-8.64 -44.32)"/><path id="path861" class="cls-2" d="M204.27,389a12.49,12.49,0,0,1,3.16,6c.22,1.72-1,.43-2.77-2.85s-1.91-4.69-.39-3.12Zm-.16-47.66c1.22.73,1.83,2.06,1.36,2.94s-1.46.29-2.21-1.33c-.83-1.79-.49-2.42.85-1.61Zm8.82,16.35c1.22.73,1.83,2.06,1.36,2.94s-1.46.29-2.21-1.33c-.83-1.79-.5-2.42.85-1.61Zm73.79,94.61c1.22.73,1.83,2.06,1.36,2.94s-1.46.29-2.21-1.33c-.83-1.79-.5-2.42.85-1.61Zm11.93,22.22a4.56,4.56,0,0,1,2,3.72c-.06,1.35-1,.78-2.12-1.26S297.48,473.86,298.65,474.55ZM246.08,340c1.22.73,1.83,2.06,1.36,2.94s-1.46.29-2.21-1.33c-.83-1.79-.49-2.42.85-1.61Zm12,22.29c1.22.74,1.83,2.06,1.37,2.95s-1.47.28-2.22-1.34c-.82-1.78-.49-2.41.86-1.61Zm23.52-14.45c1.21.74,1.82,2.06,1.36,2.94s-1.47.29-2.22-1.33c-.82-1.78-.49-2.42.86-1.61ZM260.25,193.14c1.34-2.08,2.66-3,3.13-2.11s-.47,2.69-2,4.14-3,2.39-3.13,2.11S259,195.13,260.25,193.14Zm199.27,158c2.61-1.3,3.32-1.23,1.82.19s-3.3,2.24-4.3,2.14.11-1.15,2.48-2.33ZM614.81,459.67c2.62-1.3,3.33-1.23,1.82.19s-3.29,2.24-4.3,2.14.12-1.15,2.48-2.33ZM590,372.88c3.74-2.7,5.3-3.27,4.42-1.6-.75,1.42-3.35,3.3-5.78,4.19-3.28,1.18-2.92.51,1.36-2.59Zm98.15-66.94c3.66-1.91,5.07-2.23,3.12-.71a21.19,21.19,0,0,1-6.66,3.48c-1.72.39-.12-.85,3.54-2.77Z" transform="translate(-8.64 -44.32)"/><path id="path859" class="cls-2" d="M60.77,771.67c22.21-19,41.52-36,42.91-37.75,2.21-2.83,1.95-3.17-2.05-2.72-24.12,2.71-53.08-2.5-68.77-12.38-5.63-3.54-12.45-10.43-16.52-16.69-6.87-10.55-6.88-10.63-.87-8.14,23.51,9.72,97.17,30.61,100.08,28.37,1.26-1,4.72-4,7.7-6.83,5.14-4.79,5.16-5.37.44-11-2.74-3.28-14.49-10.87-26.12-16.84C55,665.77,34.19,647.13,27.16,624.6c-2.23-7.17-2.39-9.54-.42-6.3,4.82,7.93,19,16.74,45.48,28.35,34.59,15.14,40.08,19,53.24,37.31,6.3,8.79,11.91,16,12.46,16.08s6.49-5.41,13.2-12.14l12.2-12.24L159,667.79c-6.07-11.08-12.83-16.74-31.38-26.26-33.41-17.16-44.39-24.9-61.41-43.28C53.66,584.7,39,558.06,35.62,542.58l-2.45-11.13,8.35,11.84c11,15.59,23.35,25.86,58.28,48.48,15.92,10.31,32.81,22.73,37.54,27.6,18.91,19.49,30.23,32.49,33.4,38.38,1.84,3.4,4,5.85,4.74,5.44s8.53-8.64,17.25-18.28c15.43-17.1,15.74-17.64,12-21.24-11.33-10.94-29.82-23.81-47.87-33.31-26-13.68-42.35-24.43-55.32-36.36-14.21-13.08-32.42-46.94-36.22-67.36-4-21.58-3.33-23.93,2.81-9.75,10.5,24.24,32.36,44.34,78.39,72.1,26.8,16.16,45.11,30.49,58.54,45.79l11.83,13.47c4.53,5.15,4.63,5.08,23.66-17.32L254,575.17l-11.39-3.85c-20.19-6.83-83.11-36.13-93.32-43.46-15.36-11-25.21-27.81-38-64.83-6.15-17.77-13.2-37.7-15.66-44.28l-4.49-12,9.14,10.44c5,5.74,15.68,20.3,23.66,32.35C140.72,475,142.51,477,179.27,509.75c32.68,29.14,50.92,42.57,67.18,49.45,17.49,7.41,19.38,5.76,11.06-9.68s-24.87-35.16-48-57.07c-27.39-26-42.22-45.46-55.69-73.2-10.57-21.74-12.14-26.91-14.83-48.77-1.65-13.46-2.25-30.36-1.32-37.57s1.82-11.46,2-9.45c1.62,18.82,3.62,26.25,11.69,43.52,8.37,17.9,10.7,21.13,23.1,31.88,16.1,14,39.06,39.44,50,55.45,4.21,6.18,16.76,30.05,27.9,53.06S273,549.3,273.47,549.43s3.11-2.84,5.86-6.6,6.41-7,8.14-7.12,2.2-.64.83-1.12.38-4.11,3.69-8.16l6-7.35L289.31,503c-4.79-8.88-12.64-20-17.45-24.69-33.51-32.77-71.91-91-79.69-120.84-5.94-22.75-6.88-51.91-2.48-76.89q7.06-40.17,4.43-6c-3.89,50.48,8.2,77.94,61.92,140.66,27.78,32.43,37.33,46.67,46,68.55,3.79,9.56,7.23,17.44,7.63,17.51s5.83-7.38,12-16.57L333,468l-9.77-18.12a197.28,197.28,0,0,0-23.66-33.68C264.23,376.5,243.42,342.61,238.08,316c-6.36-31.79.34-75.41,16.65-108.39l7.06-14.29-3.66,12.48c-4.38,14.92-7.66,40.84-7.14,56.43.79,23.8,5.5,39.66,19.37,65.26,22,40.62,71.76,124.4,73.37,123.54.83-.44,2.77-3.41,4.31-6.6,3.45-7.15-3.41-30-12.92-43-7.93-10.82-27.22-57.32-31.24-75.3-4.71-21-3.82-37.6,4.37-81.08l7.62-40.42-5.34-24.74c-6.2-28.73-4.66-28.3,16.33,4.52,14.65,22.91,18,37.86,15.38,68.57-3,35.5-4.93,90.29-3.6,103.53,2.77,27.58,16,69.54,21,66.84s8.52-15.69,6-23.28c-1.49-4.47-3-15.7-3.41-25s-1.83-24-3.23-32.73c-8.66-54.28-1.66-91.72,33.77-180.67,10.11-25.39,18.64-46.7,19-47.35s-.37,9.13-1.52,21.75c-2.5,27.37-6,46.4-15,80.92-8.09,31-12.76,54.37-10.92,54.56.75.08,2.93-4.51,4.84-10.2C407.68,206.21,502.26,88.34,555.53,54l10.27-6.63-7.41,7.38c-4.08,4-10.62,10.91-14.54,15.25C532,83.1,488.28,147.28,449.73,208.25c-35.75,56.55-36.58,58.13-44.82,84.91-8,26-16.6,65.16-14,63.78.66-.35,6.45-10.62,12.85-22.82,18.36-35,55.93-83.84,127.56-165.91C569.6,124.34,612.23,77.34,631.3,58c9.74-9.9,10.47-10.41,6.24-4.34-7,10-33.79,51.63-62.76,97.42-29.43,46.51-39.17,59.46-78.12,103.8-15.76,17.94-34.34,40-41.29,49.1-14.85,19.35-47.59,65.13-47.16,65.93.83,1.53,22.62-14.45,40.71-29.85,24.93-21.22,45.09-42.65,86.9-92.36,17.64-21,37.27-44,43.6-51.07,23.64-26.51,67.12-64.18,93.85-81.29l10.83-6.93-11.44,12c-17.79,18.6-34.27,40.36-53.55,70.7-50.78,79.9-92,121-163.85,163.16-48.25,28.34-80.27,51.25-72.69,52,3.16.32,31.36-9.75,51.05-18.23,27.08-11.67,71.48-37.14,99.13-56.87,44.42-31.71,95.29-75.47,135.6-116.64,21.85-22.31,21.89-22.25,3.17,4-39.23,54.93-81,98.35-123.92,128.75-28.82,20.43-69.83,40.24-111.25,53.74-18,5.86-39.37,12.49-47.55,14.73-14.74,4-14.91,4.11-17.66,9.27-1.89,3.55-1.79,5.3.31,5.52,5.28.54,67-13,81.71-17.9,7.69-2.57,26.7-9.57,42.25-15.56s44-16.24,63.12-22.79C602,359.36,639.58,341.31,662,324.52c15-11.25,36.62-23.41,45.13-25.42,3.32-.79-.34,2-11.08,8.48-13.08,7.87-21.43,14.76-45.22,37.34l-29.18,27.69-32.14,16.9C550.23,410.2,531.31,416.74,490,424c-23.48,4.11-98.44,14-122.75,16.27-5.46.5-6.4,1.27-10.38,8.45-5.28,9.52-4.95,10.56,2.5,8.07,6.28-2.1,6.74-2.13,89.34-6.45,80.78-4.21,115.5-11,158.37-30.87L625.32,411l-22.1,14.42c-19.3,12.59-24.82,15.5-43.45,22.88-46.09,18.26-93.14,23.81-171.18,20.21-14.26-.66-30.15-.52-35.32.31l-9.39,1.51L333,486.68c-6,9-10.91,17-10.91,17.86s4.11-.15,9.14-2.17c15.19-6.12,71-14.05,128.81-18.3,30-2.21,65.83-5.68,79.6-7.71,25-3.69,65.66-13.82,75.65-18.83,4.64-2.33,4.57-2.06-.61,2.29-11.53,9.7-58.63,29-89.08,36.54-28,6.93-46.35,8.88-93.57,10-57.56,1.35-86.75,4-106.39,9.79l-15.71,4.6L300.15,534c-5.37,7.26-9.54,13.57-9.28,14s13.76-2.43,30-6.39c65.48-16,108.83-21,151.75-17.64,31.64,2.48,47.88,1.76,70.84-3.13,18.78-4,16.18-1.61-6.21,5.74-24.29,8-55.69,12.35-118.19,16.46C347.4,547.73,310,551.41,294,555.29c-11.32,2.75-12.28,3.25-16.36,8.46l-4.33,5.53,10.58-.7c5.82-.39,16.63-.41,24-.06s28.25-1.23,46.35-3.52c30-3.79,37.28-3.78,82.33.14,27.17,2.37,55.83,3.76,63.69,3.08s14.39-1,14.53-.76c.86,1.6-42.66,12.77-54.26,13.93-16.23,1.63-68.75,1-129-1.64-23-1-47.19-1.59-53.66-1.33l-11.76.47-15.51,18.6c-8.54,10.23-16.36,19.33-17.39,20.22-3.58,3.09,18.64,2.91,36.73-.3l50.76-9.07c53.58-9.6,100.16-6.8,131.75,7.92l8,3.71-15.72-1.58c-19.56-2-38.59-.76-85.28,5.44-50.21,6.66-106.62,10.06-127.58,7.68l-9.28-1.06-15.67,17.36-15.67,17.36,7.44,0c4.1,0,18-2.32,31-5.17,67.35-14.85,140.14-16.78,185.15-4.88l16.87,4.45-15-1C393.46,657,363.28,660,311,669.13c-55.32,9.65-68.4,11-105.54,10.66l-27.26-.23-12,12-12,12,8.58.08c4.72.05,21.9-2.16,38.17-4.9,51.57-8.68,90.79-8.39,116,.86,16.13,5.92,16.85,7.54,3,6.76-17.45-1-33.22.37-70,6-44.85,6.85-54.44,7.33-82.33,4.09l-23.45-2.73-8,7.79a108.2,108.2,0,0,0-9.31,9.91c-2.08,3.31,18.09,10.16,49.87,16.93,16,3.4,29.28,6.5,29.48,6.88s-5.65,1.47-13,2.44c-35.58,4.69-57.38,1-67.43-11.53-3.25-4-6.63-7-7.49-6.51s-6.94,5.91-13.49,12.1-25.89,23.41-43,38.26c-33.34,29-34.32,29.48-39,20.66l-2.4-4.46,40.38-34.51ZM319.09,333c-2.51-29.05-2.23-47.69,1.11-74.05,2.06-16.24,3.59-29.81,3.41-30.16-1.81-3.34-9.56,27.44-12.91,51.27-2.57,18.31.54,46.13,6.37,56.89,2.66,4.93,2.77,4.72,2-3.95Zm184.66,72.83c28.18-5.71,87.61-28.74,91.09-35.31.84-1.59-.12-1.75-2.61-.42-2.18,1.16-25,9.43-50.63,18.39S494,405.3,492.87,405.9C488.48,408.24,492.07,408.23,503.75,405.87ZM468.15,266c23.34-25.43,54-63.6,76.81-95.51,11-15.44,11.54-20,.74-6.56-3.6,4.48-18.28,22-32.63,38.92-39,46-71.17,87-70,89.21C443.32,292.5,454.6,280.77,468.15,266Zm74.35-2c35.54-39.4,91.13-106.94,88.25-107.23-.84-.09-7.94,6.45-15.77,14.52C598,188.82,522.46,281,523.51,282.89,523.91,283.64,532.46,275.15,542.5,264ZM565,515c2.62-1.3,3.33-1.23,1.82.18s-3.3,2.25-4.3,2.14.12-1.14,2.48-2.32Z" transform="translate(-8.64 -44.32)"/></g></svg>