<?xml version="1.0" encoding="UTF-8" standalone="no"?>
<!-- Created with Inkscape (http://www.inkscape.org/) -->

<svg
   xmlns:dc="http://purl.org/dc/elements/1.1/"
   xmlns:cc="http://creativecommons.org/ns#"
   xmlns:rdf="http://www.w3.org/1999/02/22-rdf-syntax-ns#"
   xmlns:svg="http://www.w3.org/2000/svg"
   xmlns="http://www.w3.org/2000/svg"
   xmlns:sodipodi="http://sodipodi.sourceforge.net/DTD/sodipodi-0.dtd"
   xmlns:inkscape="http://www.inkscape.org/namespaces/inkscape"
   version="1.1"
   id="svg1422"
   width="80"
   height="95.68"
   viewBox="0 0 80 95.68"
   sodipodi:docname="slide2.svg"
   inkscape:version="0.92.3 (2405546, 2018-03-11)">
  <metadata
     id="metadata1428">
    <rdf:RDF>
      <cc:Work
         rdf:about="">
        <dc:format>image/svg+xml</dc:format>
        <dc:type
           rdf:resource="http://purl.org/dc/dcmitype/StillImage" />
        <dc:title></dc:title>
      </cc:Work>
    </rdf:RDF>
  </metadata>
  <defs
     id="defs1426" />
  <sodipodi:namedview
     pagecolor="#ffffff"
     bordercolor="#666666"
     borderopacity="1"
     objecttolerance="10"
     gridtolerance="10"
     guidetolerance="10"
     inkscape:pageopacity="0"
     inkscape:pageshadow="2"
     inkscape:window-width="1366"
     inkscape:window-height="705"
     id="namedview1424"
     showgrid="false"
     inkscape:zoom="6.9764716"
     inkscape:cx="40"
     inkscape:cy="53.573558"
     inkscape:window-x="-8"
     inkscape:window-y="-8"
     inkscape:window-maximized="1"
     inkscape:current-layer="g1975" />
  <g
     id="g1975"
     transform="translate(-1.6216933,2.4325424)">
    <path
       style="fill:#cf9966;stroke-width:0.31999999"
       d="m 26.571259,90.901037 c -0.924727,-1.727869 -0.08047,-3.982339 2.036825,-5.439079 0.773988,-0.532518 1.865901,-1.547305 2.426473,-2.255084 1.221289,-1.542004 2.185008,-1.661879 3.914182,-0.486874 1.43457,0.974816 2.584343,1.006502 4.799415,0.132272 C 40.678669,82.485024 43.6,81.645014 46.24,80.985587 l 4.8,-1.19896 -1.92,-0.545357 C 44.660874,77.974698 38.796262,76.047718 37.700083,75.488944 l -1.17992,-0.601462 -2.50008,1.707404 c -3.178086,2.170439 -7.142623,4.46984 -14.099362,8.17752 C 13.81303,88.027578 11.240532,89.056022 9.9607885,88.75424 8.5200426,88.41449 7.1257453,87.125917 6.540399,85.59321 5.4088797,82.630368 6.8307357,79.775792 15.587714,67.429437 17.736956,64.399248 20.897946,59.832 22.612135,57.28 c 1.71419,-2.552 3.354413,-4.856 3.644942,-5.12 0.290528,-0.264 1.006393,-1.344 1.590812,-2.4 0.584418,-1.056 1.468119,-2.519613 1.96378,-3.252474 L 30.712871,45.17505 29.356435,44.946912 C 25.624253,44.3192 22.296605,41.968538 20.780462,38.888813 18.298829,33.847901 19.787025,27.12809 24.31304,22.937799 c 2.411481,-2.232606 10.567405,-7.259522 11.76777,-7.253082 1.014668,0.0054 2.372796,0.625801 2.550492,1.164997 0.06701,0.203343 -0.372204,0.532764 -0.976038,0.732047 -0.60383,0.199283 -1.35089,0.641909 -1.660128,0.983614 -0.526195,0.581439 -0.52737,0.634668 -0.0183,0.830021 0.352464,0.135252 0.703882,-0.01958 0.998211,-0.439788 0.249834,-0.356689 1.09329,-1.023031 1.874346,-1.48076 1.964233,-1.151118 2.428809,-2.53544 1.496925,-4.46046 -0.829895,-1.714335 -0.833191,-2.26886 -0.02128,-3.5825493 C 41.049885,8.2590192 42.672714,7.36 44.064941,7.36 c 0.838205,0 0.931241,-0.1066595 0.959395,-1.0998723 0.03613,-1.274624 0.649894,-2.2679098 1.918042,-3.1040636 1.089353,-0.7182659 2.18902,-0.7530577 3.425232,-0.1083693 0.510185,0.2660636 0.942185,0.4451762 0.96,0.3980284 0.557881,-1.4764852 1.734323,-2.1545697 3.749235,-2.1610058 1.838413,-0.00587 3.006243,0.8373 3.515936,2.5385024 0.354547,1.1833831 0.405059,1.2183085 1.364147,0.9432458 2.127018,-0.6100202 4.48217,1.0432762 4.505859,3.1630733 C 64.470115,8.5842925 64.359267,9.444 64.216483,9.84 c -0.197565,0.547923 -0.141504,0.72 0.234576,0.72 0.827773,0 1.536544,1.450063 1.441536,2.949212 -0.05654,0.892097 0.164704,1.929521 0.633559,2.970788 2.748316,6.103688 1.819174,16.308186 -2.024596,22.235507 -0.743468,1.146471 -1.592464,2.282125 -1.886659,2.523674 C 62.205437,41.575373 62.08,42.217408 62.08,43.977014 c 0,2.62936 0.262698,2.17248 -4.571907,7.951389 -1.722551,2.058999 -3.511472,3.942509 -3.975379,4.185575 -0.659764,0.345683 -1.015162,0.991251 -1.631741,2.96398 -0.433549,1.387124 -0.856791,3.072925 -0.940538,3.746231 -0.140349,1.128342 -0.03313,1.335133 1.369418,2.641248 2.082457,1.939277 5.507222,3.866678 13.83856,7.788121 9.115443,4.290509 11.128902,5.787648 11.477325,8.534148 0.12152,0.957894 -0.05325,1.666051 -0.743434,3.012294 -1.101341,2.148234 -2.635738,3.023779 -6.473258,3.693722 -5.38871,0.940745 -32.240016,1.343308 -33.087267,0.496057 -0.437597,-0.437597 -4.78871,-0.455395 -6.334831,-0.02592 -0.634178,0.176163 -1.67104,0.82336 -2.304138,1.438215 -1.319243,1.281235 -1.669066,1.36312 -2.131551,0.49896 z M 30.08,60.364157 c 0,-0.743328 1.935472,-3.034093 3.361664,-3.978762 0.781104,-0.517382 1.989722,-1.031769 2.685818,-1.143078 1.164297,-0.186179 1.334912,-0.349703 2.130921,-2.042349 C 39.01088,51.599894 39.115626,51.00537 39.061814,48.64 38.98744,45.370829 38.756998,45.03945 36.74936,45.314627 l -1.462022,0.200394 -0.332778,2.371513 c -0.407152,2.90152 -1.057491,4.034231 -2.235536,3.893664 -1.218701,-0.145414 -2.127634,1.507975 -2.038613,3.708333 0.03719,0.919328 -0.207051,2.526906 -0.55261,3.637187 -0.340594,1.09433 -0.490683,1.910228 -0.333532,1.813101 C 29.951421,60.841696 30.08,60.583094 30.08,60.364157 Z M 35.313056,34.23472 c 0.240013,-1.200058 0.528202,-1.313123 6.52631,-2.560487 3.157348,-0.6566 5.399834,-0.950296 6.77818,-0.887731 2.011472,0.0913 2.076646,0.06882 2.777126,-0.958199 0.626413,-0.918424 1.591437,-4.148861 1.320362,-4.419938 -0.05404,-0.05403 -0.744826,0.134269 -1.535095,0.418448 -1.25824,0.45246 -1.554451,0.460325 -2.382873,0.06327 C 48.276755,25.640705 47.56056,24.98646 47.205523,24.436206 46.654656,23.582448 46.412579,23.458968 45.55464,23.594119 45.00169,23.681229 44.036886,23.583389 43.410634,23.376708 42.210637,22.980676 40.32,21.10398 40.32,20.308865 40.32,19.967429 39.933766,19.84 38.898886,19.84 c -0.781612,0 -1.510112,0.144 -1.618886,0.32 -0.108774,0.176 -0.63617,0.32 -1.17199,0.32 -0.776999,0 -1.409581,0.437267 -3.124826,2.16 C 30.195525,25.439831 28.48,28.729404 28.48,31.274994 c 0,1.562398 0.116082,1.865089 1.088,2.837006 1.029352,1.029354 1.208314,1.088 3.32,1.088 2.226714,0 2.232458,-0.0022 2.425056,-0.96528 z m 24.837677,-9.902221 c 0.685798,-0.433711 0.32264,-0.599976 -0.903152,-0.413493 -0.753639,0.114653 -0.943882,0.244605 -0.64,0.437172 0.556102,0.352398 0.958246,0.346228 1.543152,-0.02368 z"
       id="path1989"
       inkscape:connector-curvature="0" />
    <path
       style="fill:#ed7850;stroke-width:0.31999999"
       d="M 26.718817,90.993104 C 26.305866,90.58015 26.209309,90.09384 26.329157,89.03055 26.474735,87.738989 26.746069,87.371146 29.47301,84.768493 31.114499,83.201821 32.72223,81.92 33.045744,81.92 c 0.323517,0 1.117997,0.36 1.765517,0.8 0.839507,0.570461 1.605171,0.8 2.668528,0.8 h 1.491219 l -0.61681,1.2 C 38.014954,85.38 37.59,86.496 37.409853,87.2 l -0.327536,1.28 -2.621159,0.08971 c -3.248393,0.111184 -4.816557,0.516317 -5.566092,1.438 -1.13315,1.393399 -1.570299,1.591338 -2.176249,0.985389 z M 8.7700979,88.137008 C 6.6096701,87.07105 5.7537248,83.526115 6.9985344,80.8 8.0259235,78.550032 11.226986,73.898909 11.592591,74.124864 11.795305,74.250147 11.84688,74.190019 11.716984,73.97984 11.48713,73.60793 13.618453,70.24 14.083663,70.24 c 0.144652,0 0.383004,-0.131088 0.52967,-0.291306 0.154933,-0.169244 0.09906,-0.194851 -0.133333,-0.06111 -0.22,0.126605 -0.4,0.143977 -0.4,0.03861 0,-0.105373 2.0622,-3.101872 4.582667,-6.658887 C 21.183133,59.710285 23.73075,56.08 24.324038,55.2 c 0.593289,-0.88 1.195986,-1.648298 1.339328,-1.707331 0.143342,-0.05903 0.178597,-0.240048 0.07835,-0.402259 -0.100252,-0.162212 0.05022,-0.384148 0.33439,-0.493194 0.284167,-0.109046 1.005275,-1.152029 1.602462,-2.317741 C 28.275751,49.113763 29.204839,47.512 29.743203,46.72 l 0.978843,-1.44 -1.521023,-0.42319 C 25.7803,43.905069 24.779462,43.368787 22.851604,41.454589 20.399772,39.020131 19.668387,37.150355 19.716602,33.44 19.775118,28.936967 21.751801,24.942753 25.301858,22.154071 27.858776,20.145531 35.181162,15.68 35.91776,15.68 c 0.320538,0 1.099792,0.216014 1.731674,0.480032 0.967305,0.404166 1.085923,0.555887 0.75054,0.96 C 38.180886,17.384014 37.756368,17.6 37.456598,17.6 c -0.533056,0 -2.177225,1.478817 -1.911193,1.718985 0.07403,0.06683 0.44776,0.217663 0.830515,0.335183 0.559165,0.171686 0.716371,0.0704 0.8,-0.515438 0.0674,-0.472124 0.586246,-0.994585 1.472051,-1.482294 0.874186,-0.481311 1.598912,-1.205862 2.00776,-2.007271 L 41.29552,14.395076 40.575034,13.420565 C 39.575712,12.06891 39.606656,10.22139 40.647274,9.1076346 41.757142,7.9197578 43.124403,7.2762653 44.20233,7.434471 45.060042,7.5603565 45.12,7.4975971 45.12,6.4739517 45.12,5.0261136 45.972214,3.6440701 47.234301,3.0451707 48.491312,2.4486806 49.203453,2.4474555 50.24,3.04 c 1.063242,0.6078042 1.20128,0.5921424 1.441114,-0.1635096 0.325424,-1.0253186 1.958748,-1.6894608 3.73512,-1.5187739 1.824736,0.1753338 2.70888,0.8670049 3.13574,2.4531008 0.309056,1.148375 0.31041,1.1491043 1.926839,1.0377459 1.933603,-0.1332086 2.986557,0.4396368 3.749709,2.0399834 0.433641,0.9093545 0.459702,1.3039017 0.15222,2.3043366 -0.270051,0.8786378 -0.274371,1.2397708 -0.01587,1.3271168 0.195322,0.066 0.641965,0.40683 0.992535,0.757401 0.51008,0.510081 0.604969,0.925132 0.47504,2.077867 -0.123203,1.093054 0.02445,1.848535 0.612243,3.132428 1.619395,3.537226 2.13609,9.065472 1.210576,12.952304 -0.272403,1.144 -0.555955,2.536789 -0.630118,3.095088 -0.306391,2.306518 -2.443351,6.422794 -4.428205,8.529738 -0.753168,0.799494 -0.829751,1.07888 -0.657872,2.4 0.106985,0.822345 0.04449,1.884688 -0.138871,2.360758 -0.658547,1.709779 -7.710371,10.041712 -8.923872,10.543808 -0.14703,0.06084 -0.563692,1.118608 -0.92592,2.350608 -0.558348,1.899043 -0.775174,2.254634 -1.424499,2.336144 -0.501481,0.06295 -1.109021,0.615334 -1.759757,1.6 -1.713356,2.592579 -4.375222,5.538147 -4.842649,5.358778 -0.240551,-0.09231 -0.347795,-0.02368 -0.238739,0.152774 0.202844,0.328211 -1.795805,2.282384 -5.021706,4.909962 -1.236566,1.007212 -2.00319,1.41958 -2.4,1.29096 -0.420822,-0.136404 -0.466442,-0.105274 -0.163958,0.111881 0.323811,0.232467 0.230816,0.424237 -0.40904,0.843485 -0.455472,0.298438 -0.971632,0.453926 -1.147021,0.34553 -0.175389,-0.108397 -0.279322,-0.0064 -0.230963,0.2267 0.04863,0.234384 -0.16081,0.40418 -0.468628,0.379914 -0.306105,-0.02413 -0.485865,0.07051 -0.399468,0.210301 0.222284,0.359664 -4.37525,3.242368 -4.868982,3.052905 -0.224024,-0.08596 -0.373043,-0.01245 -0.331154,0.163402 0.04189,0.175834 -1.147839,0.97536 -2.643839,1.77672 -13.184113,7.06231 -13.404374,7.167296 -15.007751,7.153258 -0.457737,-0.004 -1.2777048,-0.227076 -1.8221509,-0.495706 z M 32.071046,57.686698 c 1.18,-1.21745 3.297383,-2.326698 4.441303,-2.326698 0.651865,0 0.961421,-0.350304 1.767337,-2 0.887997,-1.817709 0.971492,-2.258109 0.916084,-4.831821 -0.04358,-2.024109 -0.18858,-2.912617 -0.508368,-3.115097 -0.629965,-0.398877 -3.086698,-0.362548 -3.341303,0.04941 -0.116419,0.188371 -0.339958,1.364185 -0.496755,2.612918 -0.349523,2.783606 -0.981581,3.890387 -2.099661,3.676653 -1.159522,-0.221658 -2.437435,1.753859 -2.180467,3.370768 0.105356,0.662925 -0.03998,1.940515 -0.342864,3.013936 -0.289156,1.024781 -0.588532,2.295235 -0.66528,2.823235 -0.11668,0.80272 -0.0062,0.699533 0.674604,-0.629834 0.44778,-0.874406 1.273697,-2.063968 1.83537,-2.643468 z M 34.52,35.32 c 0.837114,-0.167424 1,-0.347405 1,-1.10496 0,-1.06799 0.05667,-1.08855 7.04,-2.554102 4.081088,-0.856475 4.805219,-0.927845 6.011638,-0.592508 1.2749,0.354372 1.430151,0.327318 2.201242,-0.383584 1.015357,-0.936101 1.573136,-2.195116 1.878186,-4.239428 l 0.231974,-1.554582 -0.815414,0.53428 C 50.840835,26.228939 48.768032,26.151842 47.826557,25.267371 47.4,24.866642 46.975834,24.301945 46.883965,24.012488 c -0.128403,-0.404559 -0.560829,-0.522376 -1.869613,-0.509386 -1.370691,0.0136 -1.922656,-0.150846 -2.831574,-0.843621 -0.620948,-0.473286 -1.305885,-1.287574 -1.522087,-1.80953 -0.216201,-0.521956 -0.683232,-1.024883 -1.037843,-1.117617 -0.713222,-0.186511 -3.344067,0.508959 -5.02936,1.329525 -2.12249,1.033433 -5.683549,6.329494 -6.225156,9.258141 -0.644788,3.486579 2.191653,5.792003 6.151668,5 z M 60.48,24.16 c 0.441952,-0.532521 0.336141,-0.572415 -1.28,-0.4826 -1.283587,0.07133 -1.425107,0.148928 -1.133158,0.62131 0.31352,0.507285 1.955353,0.412911 2.413158,-0.13871 z"
       id="path1987"
       inkscape:connector-curvature="0" />
    <path
       style="fill:#ba895b;stroke-width:0.31999999"
       d="M 26.718817,90.993104 C 26.305866,90.58015 26.209309,90.09384 26.329157,89.03055 26.474735,87.738989 26.746069,87.371146 29.47301,84.768493 31.114499,83.201821 32.72223,81.92 33.045744,81.92 c 0.323517,0 1.117997,0.36 1.765517,0.8 0.839507,0.570461 1.605171,0.8 2.668528,0.8 h 1.491219 l -0.61681,1.2 C 38.014954,85.38 37.59,86.496 37.409853,87.2 l -0.327536,1.28 -2.621159,0.08971 c -3.248393,0.111184 -4.816557,0.516317 -5.566092,1.438 -1.13315,1.393399 -1.570299,1.591338 -2.176249,0.985389 z M 8.7700979,88.137008 C 6.6096701,87.07105 5.7537248,83.526115 6.9985344,80.8 8.0259235,78.550032 11.226986,73.898909 11.592591,74.124864 11.795305,74.250147 11.84688,74.190019 11.716984,73.97984 11.48713,73.60793 13.618453,70.24 14.083663,70.24 c 0.144652,0 0.383004,-0.131088 0.52967,-0.291306 0.154933,-0.169244 0.09906,-0.194851 -0.133333,-0.06111 -0.22,0.126605 -0.4,0.143977 -0.4,0.03861 0,-0.105373 2.0622,-3.101872 4.582667,-6.658887 C 21.183133,59.710285 23.73075,56.08 24.324038,55.2 c 0.593289,-0.88 1.195986,-1.648298 1.339328,-1.707331 0.143342,-0.05903 0.178597,-0.240048 0.07835,-0.402259 -0.100252,-0.162212 0.05022,-0.384148 0.33439,-0.493194 0.284167,-0.109046 1.005275,-1.152029 1.602462,-2.317741 C 28.275751,49.113763 29.204839,47.512 29.743203,46.72 l 0.978843,-1.44 -1.521023,-0.42319 C 25.7803,43.905069 24.779462,43.368787 22.851604,41.454589 20.399772,39.020131 19.668387,37.150355 19.716602,33.44 19.775118,28.936967 21.751801,24.942753 25.301858,22.154071 27.858776,20.145531 35.181162,15.68 35.91776,15.68 c 0.320538,0 1.099792,0.216014 1.731674,0.480032 0.967305,0.404166 1.085923,0.555887 0.75054,0.96 C 38.180886,17.384014 37.756368,17.6 37.456598,17.6 c -0.533056,0 -2.177225,1.478817 -1.911193,1.718985 0.07403,0.06683 0.44776,0.217663 0.830515,0.335183 0.559165,0.171686 0.716371,0.0704 0.8,-0.515438 0.0674,-0.472124 0.586246,-0.994585 1.472051,-1.482294 0.874186,-0.481311 1.598912,-1.205862 2.00776,-2.007271 L 41.29552,14.395076 40.575034,13.420565 C 39.575712,12.06891 39.606656,10.22139 40.647274,9.1076346 41.757142,7.9197578 43.124403,7.2762653 44.20233,7.434471 45.060042,7.5603565 45.12,7.4975971 45.12,6.4739517 45.12,5.0261136 45.972214,3.6440701 47.234301,3.0451707 48.491312,2.4486806 49.203453,2.4474555 50.24,3.04 c 1.063242,0.6078042 1.20128,0.5921424 1.441114,-0.1635096 0.325424,-1.0253186 1.958748,-1.6894608 3.73512,-1.5187739 1.824736,0.1753338 2.70888,0.8670049 3.13574,2.4531008 0.309056,1.148375 0.31041,1.1491043 1.926839,1.0377459 1.933603,-0.1332086 2.986557,0.4396368 3.749709,2.0399834 0.433641,0.9093545 0.459702,1.3039017 0.15222,2.3043366 -0.270051,0.8786378 -0.274371,1.2397708 -0.01587,1.3271168 0.195322,0.066 0.641965,0.40683 0.992535,0.757401 0.51008,0.510081 0.604969,0.925132 0.47504,2.077867 -0.123203,1.093054 0.02445,1.848535 0.612243,3.132428 1.619395,3.537226 2.13609,9.065472 1.210576,12.952304 -0.272403,1.144 -0.555955,2.536789 -0.630118,3.095088 -0.286605,2.157574 -2.081991,5.704512 -4.260535,8.417056 l -0.636198,0.792147 -0.152666,-0.792147 C 61.066301,36.23319 60.727949,35.19472 60.052525,35.049395 56.359501,34.25479 54.51488,33.679053 52.401856,32.661482 l -2.478147,-1.193402 0.839389,-0.77404 c 1.024838,-0.945053 1.582163,-2.199238 1.887971,-4.248622 l 0.231974,-1.554582 -0.815414,0.53428 c -1.226791,0.803823 -3.299594,0.726726 -4.241069,-0.157745 -0.426557,-0.400729 -0.850723,-0.965426 -0.942592,-1.254883 -0.128403,-0.404559 -0.560829,-0.522376 -1.869613,-0.509386 -1.370691,0.0136 -1.922656,-0.150846 -2.831574,-0.843621 -0.620947,-0.473286 -1.305885,-1.287574 -1.522087,-1.80953 -0.216201,-0.521956 -0.683232,-1.024883 -1.037843,-1.117617 -0.713222,-0.186511 -3.344067,0.508959 -5.02936,1.329525 -2.122489,1.033433 -5.683549,6.329494 -6.225156,9.258141 -0.612887,3.31408 2.012502,5.61145 5.768916,5.048141 1.264816,-0.189671 1.382752,-0.286509 1.382752,-1.135415 0,-1.080982 -0.0618,-1.058409 6.991511,-2.553528 4.495702,-0.952972 6.08288,-0.985307 6.785878,-0.138245 0.193459,0.233103 0.490838,1.925089 0.660845,3.759965 0.361078,3.897149 0.0161,6.73785 -1.022279,8.417984 C 48.226365,44.86705 44.705379,48 44.124624,48 c -0.177184,0 -0.853709,-0.424739 -1.503389,-0.943862 -1.646742,-1.315824 -6.405827,-2.439546 -7.155744,-1.689629 -0.173603,0.173603 -0.447398,1.364969 -0.608435,2.647485 -0.356883,2.842236 -0.983082,3.952988 -2.107373,3.738067 -1.159522,-0.221658 -2.437435,1.753859 -2.180467,3.370768 0.105356,0.662925 -0.03998,1.940515 -0.342864,3.013936 -0.289156,1.024781 -0.588532,2.295235 -0.66528,2.823235 -0.11668,0.80272 -0.0062,0.699533 0.674604,-0.629834 C 31.657256,57.55416 34.431222,55.36 36.51921,55.36 c 0.669136,0 0.9683,-0.353789 1.862928,-2.203075 0.797331,-1.648167 1.011958,-2.434029 0.852099,-3.12 -0.15696,-0.673546 -0.127459,-0.789517 0.111142,-0.436925 0.178653,0.264 0.327027,0.717552 0.329722,1.007891 0.0072,0.775482 3.125693,3.494045 5.309734,4.628787 2.191501,1.138621 5.059341,1.871668 6.496919,1.660676 1.171555,-0.171946 1.149331,-0.293495 0.391731,2.142646 -0.489002,1.572442 -0.734336,1.937405 -1.355287,2.016144 -0.491923,0.06238 -1.107232,0.624288 -1.752051,1.6 -1.713357,2.592579 -4.375222,5.538147 -4.842649,5.358778 -0.240551,-0.09231 -0.347796,-0.02368 -0.23874,0.152774 0.202845,0.328211 -1.795804,2.282384 -5.021705,4.909962 -1.236567,1.007212 -2.003191,1.41958 -2.4,1.29096 -0.420823,-0.136404 -0.466442,-0.105274 -0.163959,0.111881 0.323812,0.232467 0.230816,0.424237 -0.40904,0.843485 -0.455472,0.298438 -0.971632,0.453926 -1.14702,0.34553 -0.175389,-0.108397 -0.279322,-0.0064 -0.230964,0.2267 0.04863,0.234384 -0.160809,0.40418 -0.468627,0.379914 -0.306105,-0.02413 -0.485865,0.07051 -0.399469,0.210301 0.222285,0.359664 -4.375249,3.242368 -4.868981,3.052905 -0.224024,-0.08596 -0.373043,-0.01245 -0.331154,0.163402 0.04189,0.175834 -1.147839,0.97536 -2.643839,1.77672 -13.184114,7.06231 -13.404374,7.167296 -15.007751,7.153258 -0.457737,-0.004 -1.277705,-0.227076 -1.8221511,-0.495706 z M 60.48,24.16 c 0.441952,-0.532521 0.336141,-0.572415 -1.28,-0.4826 -1.283587,0.07133 -1.425107,0.148928 -1.133158,0.62131 0.31352,0.507285 1.955353,0.412911 2.413158,-0.13871 z m -6.761958,31.410557 c 0.196022,-0.236192 0.249654,-0.54728 0.11918,-0.691303 -0.13047,-0.144025 -0.05023,-0.153955 0.178317,-0.02208 0.320151,0.184749 0.329523,0.343437 0.04082,0.691306 -0.206096,0.24833 -0.44672,0.45151 -0.53472,0.45151 -0.088,0 3.2e-4,-0.193248 0.196407,-0.429443 z M 55.36,53.92 c 0.41336,-0.44 0.823562,-0.8 0.911562,-0.8 0.088,0 -0.178202,0.36 -0.591562,0.8 -0.41336,0.44 -0.823562,0.8 -0.911562,0.8 -0.088,0 0.178202,-0.36 0.591562,-0.8 z m 0.96,-1.240819 c 0,-0.06645 0.252,-0.318448 0.56,-0.56 0.507539,-0.398039 0.518858,-0.38672 0.120819,0.120819 C 56.582781,52.77304 56.32,52.942554 56.32,52.679181 Z"
       id="path1985"
       inkscape:connector-curvature="0" />
    <path
       style="fill:#a06c4c;stroke-width:0.31999999"
       d="m 26.624,90.816 c -0.964432,-0.964432 -0.0547,-3.584522 1.713842,-4.93599 0.662164,-0.506007 1.850483,-1.60401 2.64071,-2.44001 0.790228,-0.836 1.683234,-1.52 1.984456,-1.52 0.301226,0 1.107776,0.389309 1.792336,0.865133 0.966307,0.671661 1.58041,0.853552 2.74599,0.813344 l 1.501335,-0.05179 -0.594007,1.026656 c -0.326704,0.564662 -0.767945,1.621462 -0.98054,2.348448 l -0.386532,1.321792 -2.920793,0.227958 c -3.277864,0.255828 -4.48671,0.66201 -5.616577,1.887216 C 27.649145,91.285984 27.202582,91.394582 26.624,90.816 Z M 8.0300771,87.44 C 7.1024736,86.571622 6.273369,84.806195 7.0057171,85.258813 7.2005728,85.379238 7.36,85.746835 7.36,86.075693 c 0,0.328857 0.468,0.966761 1.04,1.417565 0.572,0.450806 0.9342717,0.821241 0.8050486,0.823193 C 9.0758253,88.318371 8.547088,87.924 8.0300771,87.44 Z M 6.5886922,83.216947 c 0.093544,-0.958681 0.3073347,-1.966681 0.4750902,-2.24 0.2275309,-0.370713 0.261033,-0.293731 0.1318867,0.303053 -0.095218,0.44 -0.3090083,1.448 -0.4750902,2.24 l -0.3019671,1.44 z m 1.2718816,-2.670749 c 0.1201699,-0.31559 0.2991014,-0.49319 0.3976252,-0.394665 0.098524,0.09852 2.029e-4,0.356733 -0.2184908,0.573801 C 7.723671,81.039018 7.6869146,81.002262 7.8605738,80.546198 Z M 8,79.04 C 8.1883846,78.688 8.4800416,78.4 8.6481267,78.4 8.8162118,78.4 8.7071427,78.688 8.405751,79.04 8.104359,79.392 7.8127021,79.68 7.757624,79.68 7.702546,79.68 7.811615,79.392 8,79.04 Z m 1.1405738,-1.693802 c 0.1201699,-0.31559 0.2991014,-0.49319 0.3976252,-0.394665 0.098524,0.09853 2.029e-4,0.356733 -0.2184908,0.573801 C 9.003671,77.839018 8.9669146,77.802262 9.1405738,77.346198 Z M 17.366531,77.04 c 0.07693,-0.22 0.412926,-0.357997 0.746667,-0.306656 0.423919,0.06521 0.484939,0.0105 0.202461,-0.181568 -0.290815,-0.197725 0.392164,-1.066906 2.432517,-3.095699 3.776392,-3.754999 5.222267,-6.139399 7.280988,-12.007107 0.145504,-0.414711 0.200884,-0.414711 0.46315,0 0.163837,0.259065 0.300091,0.31983 0.302786,0.13503 0.0027,-0.1848 -0.160021,-0.500922 -0.36159,-0.70249 -0.272377,-0.272377 -0.275445,-0.720227 -0.01195,-1.744 0.194999,-0.757632 0.449555,-2.02551 0.56568,-2.81751 0.116125,-0.792 0.373501,-1.545795 0.571947,-1.675101 0.256777,-0.167312 0.245478,-0.236512 -0.03919,-0.24 -0.22,-0.0026 -0.4,-0.238531 -0.4,-0.52408 0,-0.425216 0.08688,-0.447081 0.48,-0.120819 0.311796,0.258768 0.48,0.27711 0.48,0.05234 0,-0.190313 -0.72,-0.601744 -1.6,-0.914294 -0.88,-0.312547 -1.6,-0.717955 -1.6,-0.900906 0,-0.33055 2.216543,-4.326134 3.319598,-5.983974 l 0.576752,-0.866832 -0.908175,-0.201907 c -4.860035,-1.080496 -7.608413,-3.062528 -9.25914,-6.677357 -1.67783,-3.674179 -0.944787,-9.138751 1.741641,-12.983301 1.45802,-2.086574 4.050308,-4.123302 9.302874,-7.309151 3.397705,-2.060816 3.993026,-2.318404 4.906661,-2.123048 2.06065,0.440614 2.373191,1.202756 0.717332,1.749239 -0.617351,0.203744 -1.277018,0.659245 -1.465927,1.012223 -0.391238,0.731037 -0.380374,0.751082 0.564304,1.041134 0.556151,0.17076 0.716823,0.07015 0.8,-0.50096 0.06579,-0.451743 0.633811,-1.022649 1.54408,-1.551929 0.919226,-0.534488 1.644426,-1.266869 2.005267,-2.025121 0.554823,-1.165887 0.552004,-1.205767 -0.152729,-2.158966 C 39.519373,11.99271 39.602778,10.209626 40.780052,8.9808159 41.798216,7.9180896 43.537755,7.2063165 44.50114,7.458248 45.036902,7.5983533 45.12,7.4479395 45.12,6.3380416 c 0,-1.0269066 0.212765,-1.4948074 1.069139,-2.3511792 1.391235,-1.3912375 2.517037,-1.6664389 3.974301,-0.9715171 0.917891,0.4377107 1.186851,0.4613501 1.401334,0.1231655 0.145984,-0.2301809 0.267632,-0.5338586 0.270327,-0.6748393 0.0026,-0.1409807 0.504275,-0.4649807 1.114621,-0.72 2.650608,-1.10749467 5.038134,-0.1484334 5.646659,2.268245 0.26175,1.0395017 0.469801,1.3699011 0.710841,1.1288624 C 59.49465,4.9533504 60.20897,4.8 60.894602,4.8 c 2.45271,0 4.093977,2.1487962 3.424432,4.4833686 -0.221056,0.7707734 -0.21537,1.1511864 0.01837,1.2290984 0.186176,0.06206 0.630835,0.422142 0.988131,0.800184 0.517462,0.547513 0.617773,0.978993 0.493062,2.120897 -0.110009,1.007326 0.01722,1.774173 0.427904,2.579194 1.654592,3.243268 2.310483,9.224606 1.437293,13.107258 -0.296864,1.32 -0.670592,3.048 -0.830509,3.84 -0.571808,2.831894 -3.994937,8.641043 -4.79903,8.144086 C 61.892413,41.004064 61.76,40.564323 61.76,40.12688 c 0,-0.437443 -0.233949,-1.726707 -0.519888,-2.86503 -0.448461,-1.785341 -0.635302,-2.095712 -1.36,-2.259175 -4.60743,-1.039257 -7.189018,-1.950861 -8.710736,-3.075916 -0.773248,-0.571686 -0.87569,-0.775708 -0.521728,-1.039061 0.831478,-0.618636 1.483808,-1.933503 1.949392,-3.929278 0.490547,-2.102791 0.427005,-2.268543 -0.578202,-1.508243 -1.473766,1.114702 -4.608777,0.219899 -5.14462,-1.468391 C 46.705482,23.450145 46.488618,23.374407 45.608067,23.5396 44.104333,23.821702 41.794678,22.743079 40.98751,21.381769 39.925936,19.591396 39.706211,19.44427 38.440957,19.676612 37.802432,19.793867 37.1432,20.022597 36.976,20.184901 36.8088,20.347205 36.374227,20.48 36.010282,20.48 c -1.041639,0 -2.882496,1.430275 -4.424342,3.437542 -3.57067,4.648518 -4.325788,8.744762 -1.955717,10.60906 0.957878,0.753468 3.182254,1.152332 4.767643,0.854912 0.90191,-0.1692 1.122134,-0.356983 1.122134,-0.956832 0,-1.062304 0.425862,-1.289354 3.84,-2.047332 7.317882,-1.624652 9.154397,-1.779844 9.934794,-0.839525 0.194886,0.234823 0.493433,1.928217 0.66344,3.763093 0.361078,3.897149 0.0161,6.73785 -1.022279,8.417984 C 48.226365,44.86705 44.705379,48 44.124624,48 43.94744,48 43.258378,47.562755 42.593373,47.028342 41.928368,46.49393 40.853315,45.970522 40.204368,45.865213 39.555418,45.759901 38.947456,45.549149 38.853344,45.39687 38.759232,45.244592 37.905251,45.12 36.955616,45.12 c -1.936323,0 -1.750986,-0.303606 -2.246477,3.68 -0.267392,2.14977 -0.909513,3.10897 -1.99504,2.980198 C 31.404486,51.624848 30.4,53.329139 30.4,55.70649 c 0,1.018515 -0.167253,2.257222 -0.371674,2.752678 -0.204421,0.495459 -0.354153,0.991635 -0.332738,1.102621 0.05393,0.27951 -1.679473,5.663433 -2.201631,6.838211 -1.328392,2.988685 -5.757273,8.703837 -7.890572,10.182214 -1.298383,0.89978 -2.475648,1.140714 -2.236854,0.457786 z M 30.006879,56.460211 c -0.107264,-0.107264 -0.367514,0.141309 -0.578333,0.552381 -0.366438,0.714515 -0.357855,0.723098 0.195026,0.195027 0.318083,-0.303811 0.490571,-0.640144 0.383307,-0.747408 z M 60.48,24.598106 c 0,-0.124169 0.08028,-0.434957 0.17839,-0.69064 0.09942,-0.259091 -0.04959,-0.552363 -0.33662,-0.662507 -0.283255,-0.108696 -0.441866,-0.07928 -0.352468,0.06537 0.0894,0.144651 -0.26312,0.263001 -0.783379,0.263001 -1.184873,0 -1.472323,0.272394 -0.950704,0.900907 C 58.630618,24.950664 60.48,25.052712 60.48,24.598106 Z M 49.12,60.799514 c -2.680576,-0.403165 -4.364595,-0.951002 -7.04,-2.290228 -3.449037,-1.72648 -4.64,-2.485417 -4.64,-2.956819 0,-0.346496 1.711882,-3.931014 2.02863,-4.247763 0.06577,-0.06577 0.824237,0.535766 1.685476,1.336749 2.818051,2.620883 5.614006,3.914493 9.257376,4.283123 l 1.931481,0.195424 -0.599261,2 c -0.329593,1.1 -0.694761,1.982035 -0.811481,1.960077 C 50.815501,61.058125 50,60.931866 49.12,60.799514 Z m 5.6,-6.200333 c 0,-0.06645 0.252,-0.318448 0.56,-0.56 0.507539,-0.398039 0.518858,-0.38672 0.120819,0.120819 C 54.982781,54.69304 54.72,54.862554 54.72,54.599181 Z"
       id="path1983"
       inkscape:connector-curvature="0" />
    <path
       style="fill:#d24829;stroke-width:0.31999999"
       d="M 26.773333,90.986666 C 26.656,90.869334 26.56,90.054339 26.56,89.175568 c 0,-1.473258 0.102895,-1.687296 1.320426,-2.746666 0.726234,-0.631897 2.06084,-1.904902 2.96579,-2.828902 0.904949,-0.924 1.846152,-1.68 2.091557,-1.68 0.245408,0 1.147568,0.450067 2.004797,1.00015 1.22768,0.787802 1.788089,0.962912 2.639459,0.824756 l 1.080857,-0.175402 -0.771443,1.744374 C 37.467149,86.27328 37.12,87.342144 37.12,87.689123 c 0,0.547488 -0.222061,0.631123 -1.68,0.63273 -3.388198,0.0037 -5.382494,0.530224 -6.632685,1.751005 -1.14118,1.114332 -1.618854,1.328937 -2.033982,0.913808 z M 29.28,53.098294 c -0.528,-0.338208 -1.284,-0.615683 -1.68,-0.616611 -0.396,-9.6e-4 -0.72,-0.147865 -0.72,-0.326531 0,-0.40143 1.724369,-3.530637 2.938681,-5.33281 C 30.314407,46.086634 30.72,45.349184 30.72,45.183571 c 0,-0.165616 -0.7022,-0.394269 -1.560444,-0.508118 -2.236783,-0.29672 -5.239498,-1.904525 -6.739582,-3.608711 C 20.42945,38.805389 19.754445,36.631248 19.903075,32.96 c 0.109755,-2.711014 0.249336,-3.299726 1.289797,-5.44 1.81953,-3.742852 4.431032,-6.007648 11.950507,-10.36394 2.514227,-1.456579 2.616359,-1.485658 3.815511,-1.08635 1.54016,0.51286 1.765052,1.088289 0.531241,1.359279 -1.803481,0.396111 -2.58424,2.069098 -1.073235,2.299694 0.522861,0.07979 0.703104,-0.05458 0.703104,-0.524187 0,-0.407507 0.425626,-0.848719 1.2,-1.243941 1.426794,-0.728202 2.152502,-1.47834 2.620147,-2.708342 0.288403,-0.758555 0.234557,-1.061292 -0.329725,-1.853752 C 38.86209,10.943155 40.690493,7.6469824 43.846701,7.5642234 45.095037,7.5314909 45.12,7.5076842 45.12,6.3499702 45.12,4.8795126 46.29336,3.3904374 47.859274,2.8736389 48.821437,2.5560966 49.155117,2.5970824 50.248803,3.1671422 51.172678,3.6486934 51.52,3.715224 51.52,3.4106442 c 0,-0.8000784 1.466208,-1.8046561 2.898112,-1.9856518 2.187939,-0.2765606 3.532886,0.5566669 4.084438,2.5304092 0.318628,1.140223 0.529514,1.460535 0.790048,1.2 0.496231,-0.496231 2.32904,-0.4433866 3.374608,0.097298 1.26914,0.6562979 1.770932,1.7976307 1.570836,3.5728896 -0.150666,1.3367018 -0.07543,1.5850218 0.676214,2.2318878 0.700899,0.603192 0.854208,1.020252 0.895162,2.435185 0.02717,0.939036 0.421657,2.736489 0.876617,3.994341 0.45496,1.257852 0.999261,3.649305 1.209562,5.31434 0.33167,2.625995 0.308877,3.401321 -0.171911,5.848298 -0.655046,3.333856 -0.738336,3.506663 -1.432176,2.971412 -0.390912,-0.301563 -0.373344,-0.224437 0.06642,0.291567 0.432832,0.507873 0.536605,0.948132 0.37584,1.594487 -0.630009,2.532925 -4.001472,8.016032 -4.673523,7.600685 C 61.89511,41.005731 61.76,40.564323 61.76,40.12688 61.76,39.689437 61.527971,38.407811 61.244378,37.278826 60.667101,34.980675 61.04201,35.229155 56.16,33.909037 c -1.408,-0.38073 -3.300294,-1.1116 -4.205101,-1.624154 L 50.309798,31.352964 51.202877,30.39692 C 51.994682,29.54929 52.32161,28.635432 52.947568,25.52 53.082192,24.849957 52.895731,24.836489 51.84,25.44 c -1.043235,0.596368 -2.882474,0.602661 -3.724698,0.01275 -0.366905,-0.256991 -0.844761,-0.896173 -1.061907,-1.420406 -0.350537,-0.846269 -0.484569,-0.919023 -1.195286,-0.648808 -1.795139,0.682511 -4.54497,-0.835016 -5.267184,-2.906756 -0.258051,-0.740248 -0.5256,-0.955708 -1.182231,-0.952062 -1.673241,0.0093 -4.684416,1.19586 -6.056604,2.386639 -2.669393,2.316481 -5.193832,6.946574 -5.190894,9.520653 0.0017,1.447233 1.077764,3.076651 2.395533,3.627253 0.606493,0.253408 1.971341,0.460742 3.032993,0.460742 1.786985,0 1.930643,-0.05345 1.935177,-0.72 0.0076,-1.122774 0.345469,-1.419187 2.235101,-1.96111 2.505869,-0.718656 8.273802,-1.796778 9.618838,-1.797922 1.962445,-0.0017 2.22418,0.426092 2.574551,4.207694 0.366141,3.951783 0.02624,6.781552 -1.017434,8.47024 C 48.226365,44.86705 44.705379,48 44.124624,48 c -0.177184,0 -0.855747,-0.428806 -1.507917,-0.952906 -0.652169,-0.524099 -1.687725,-1.048361 -2.301235,-1.165027 -0.61351,-0.116669 -1.308195,-0.364051 -1.543744,-0.549741 -0.519827,-0.409795 -3.331395,-0.281193 -3.607152,0.164992 -0.108522,0.175591 -0.283453,1.241732 -0.388739,2.3692 -0.275818,2.953664 -0.985363,4.113796 -2.31233,3.780749 -0.511514,-0.128384 -0.801162,0.09266 -1.275428,0.973315 -0.703331,1.306007 -0.639802,1.2901 -1.908079,0.477712 z M 35.738595,36.42 c -0.10215,-0.255274 -0.177977,-0.17945 -0.193331,0.193334 -0.01389,0.337332 0.06173,0.526333 0.16807,0.42 0.106333,-0.106336 0.1177,-0.382336 0.02525,-0.613334 z m 23.908048,-9.90387 c -0.06586,-0.112129 0.130695,-0.184129 0.4368,-0.16 0.346583,0.02732 0.540007,-0.166103 0.512685,-0.512686 -0.02413,-0.306106 0.07715,-0.481761 0.225069,-0.390344 0.287865,0.17791 0.749862,-1.385862 1.074403,-3.63665 0.123219,-0.854564 0.08178,-1.310798 -0.108384,-1.19327 -0.169334,0.104655 -0.451046,-0.06475 -0.626029,-0.37645 -0.302064,-0.538078 -0.329056,-0.538418 -0.533904,-0.0067 -0.118665,0.308 -0.344349,0.56 -0.50152,0.56 -0.510249,0 -0.302137,-0.845989 0.354237,-1.44 0.362941,-0.328457 0.64,-0.419192 0.64,-0.209597 0,0.203278 0.144,0.369596 0.32,0.369596 0.176,0 0.32,-0.216 0.32,-0.48 0,-0.292403 -0.298077,-0.48 -0.762678,-0.48 -0.470727,0 -0.821466,-0.224803 -0.91625,-0.587262 -0.124784,-0.477178 -0.0066,-0.559165 0.630518,-0.437373 0.676327,0.129288 0.768228,0.04507 0.668656,-0.612738 -0.06349,-0.419445 -0.302726,-0.723059 -0.531628,-0.674698 -0.228903,0.04836 -0.326359,-0.05742 -0.216564,-0.235072 0.109792,-0.177649 -0.275504,-0.621109 -0.856214,-0.985466 -0.778835,-0.488665 -1.416051,-0.625818 -2.428826,-0.522773 -1.428841,0.145377 -2.759584,1.021996 -2.410025,1.587592 0.116941,0.189214 0.04362,0.228854 -0.174253,0.0942 C 54.22769,15.855734 53.44,17.906708 53.44,19.63054 c 0,0.863923 -0.186128,1.565567 -0.48,1.80946 -0.659648,0.54746 -0.602358,1.307919 0.112621,1.494891 0.325942,0.08524 0.824253,0.640705 1.107353,1.234378 0.624301,1.309169 1.631485,2.007312 3.632192,2.517697 L 59.32257,27.072273 59.29163,28.976136 59.26068,30.88 59.513544,28.8 c 0.139075,-1.144 0.198973,-2.171742 0.133107,-2.28387 z M 57.246515,23.289862 C 57.916669,22.529112 58.56,22.363738 58.56,22.952219 c 0,0.106946 -0.09732,0.09713 -0.216259,-0.02181 -0.118944,-0.118943 -0.586944,0.109057 -1.04,0.506667 L 56.48,24.16 Z M 52.804899,22.48 c 0.0026,-0.132 0.14449,-0.456 0.315101,-0.72 0.250838,-0.388147 0.311136,-0.34222 0.315101,0.24 0.0027,0.396 -0.139101,0.72 -0.315101,0.72 -0.176,0 -0.317795,-0.108 -0.315101,-0.24 z m 6.188816,-0.465349 c -0.371997,-0.84775 -0.348505,-2.377924 0.04194,-2.732336 0.146822,-0.133273 0.163366,-0.06232 0.03676,0.157685 -0.126605,0.22 -0.0933,0.4 0.074,0.4 0.167309,0 0.397837,0.373092 0.512285,0.829095 0.124048,0.494242 0.374007,0.765427 0.618896,0.671453 0.263431,-0.101087 0.393127,0.08938 0.36153,0.530906 -0.07026,0.98166 -1.233095,1.082858 -1.645418,0.143197 z M 55.68,20.999182 c 0,-0.73844 0.940634,-1.328124 1.527776,-0.957764 0.282774,0.178368 0.564787,0.476276 0.626704,0.662018 0.157162,0.47149 -0.804954,0.787944 -1.073674,0.353146 -0.133033,-0.21525 -0.07396,-0.265401 0.149751,-0.127139 C 57.11375,21.055023 57.28,21.005272 57.28,20.818885 57.28,20.306819 56.645686,20.41284 56.435722,20.96 56.204742,21.561923 55.68,21.589129 55.68,20.999182 Z m 1.04,-1.710669 c -0.572,-0.07098 -1.04,-0.249852 -1.04,-0.397484 0,-0.229552 1.845904,-1.052682 1.960838,-0.874383 0.05087,0.07891 0.205431,1.522611 0.155469,1.452142 C 57.776339,19.440622 57.292,19.359498 56.72,19.288513 Z m 3.632963,-2.27518 c -0.09065,-0.146666 0.03852,-0.266666 0.287037,-0.266666 0.248515,0 0.377683,0.12 0.287037,0.266666 C 60.836394,17.16 60.707226,17.28 60.64,17.28 c -0.06723,0 -0.196394,-0.12 -0.287037,-0.266667 z"
       id="path1981"
       inkscape:connector-curvature="0" />
    <path
       style="fill:#6f4338;stroke-width:0.31999999"
       d="M 26.773333,90.986666 C 26.656,90.869334 26.56,90.054339 26.56,89.175568 c 0,-1.473258 0.102895,-1.687296 1.320426,-2.746666 0.726234,-0.631897 2.06084,-1.904902 2.96579,-2.828902 0.904949,-0.924 1.846152,-1.68 2.091557,-1.68 0.245408,0 1.147568,0.450067 2.004797,1.00015 1.22768,0.787802 1.788089,0.962912 2.639459,0.824756 l 1.080857,-0.175402 -0.771443,1.744374 C 37.467149,86.27328 37.12,87.342144 37.12,87.689123 c 0,0.547488 -0.222061,0.631123 -1.68,0.63273 -3.388198,0.0037 -5.382494,0.530224 -6.632685,1.751005 -1.14118,1.114332 -1.618854,1.328937 -2.033982,0.913808 z M 29.28,53.098294 c -0.528,-0.338208 -1.284,-0.615683 -1.68,-0.616611 -0.396,-9.6e-4 -0.72,-0.147865 -0.72,-0.326531 0,-0.40143 1.724369,-3.530637 2.938681,-5.33281 C 30.314407,46.086634 30.72,45.349184 30.72,45.183571 c 0,-0.165616 -0.7022,-0.394269 -1.560444,-0.508118 -2.236783,-0.29672 -5.239498,-1.904525 -6.739582,-3.608711 C 20.42945,38.805389 19.754445,36.631248 19.903075,32.96 c 0.109755,-2.711014 0.249336,-3.299726 1.289797,-5.44 1.81953,-3.742852 4.431032,-6.007648 11.950507,-10.36394 2.514227,-1.456579 2.616359,-1.485658 3.815511,-1.08635 1.54016,0.51286 1.765052,1.088289 0.531241,1.359279 -1.803481,0.396111 -2.58424,2.069098 -1.073235,2.299694 0.522861,0.07979 0.703104,-0.05458 0.703104,-0.524187 0,-0.407507 0.425626,-0.848719 1.2,-1.243941 1.426794,-0.728202 2.152502,-1.47834 2.620147,-2.708342 0.288403,-0.758555 0.234557,-1.061292 -0.329725,-1.853752 C 38.86209,10.943155 40.690493,7.6469824 43.846701,7.5642234 45.095037,7.5314909 45.12,7.5076842 45.12,6.3499702 45.12,4.8795126 46.29336,3.3904374 47.859274,2.8736389 48.821437,2.5560966 49.155117,2.5970824 50.248803,3.1671422 51.172678,3.6486934 51.52,3.715224 51.52,3.4106442 c 0,-0.8000784 1.466208,-1.8046561 2.898112,-1.9856518 2.187939,-0.2765606 3.532886,0.5566669 4.084438,2.5304092 0.318628,1.140223 0.529514,1.460535 0.790048,1.2 0.496231,-0.496231 2.32904,-0.4433866 3.374608,0.097298 1.26914,0.6562979 1.770932,1.7976307 1.570836,3.5728896 -0.150666,1.3367018 -0.07543,1.5850218 0.676214,2.2318878 0.700899,0.603192 0.854208,1.020252 0.895162,2.435185 0.02717,0.939036 0.421657,2.736489 0.876617,3.994341 0.45496,1.257852 0.999261,3.649305 1.209562,5.31434 0.332115,2.629533 0.309075,3.40127 -0.175347,5.872997 -0.30674,1.565113 -0.65728,2.946322 -0.77898,3.069354 C 66.819571,31.866726 65.784,31.237348 64.64,30.345076 63.496,29.452804 61.958643,28.428619 61.223651,28.069108 59.857664,27.400954 59.140826,26.29137 60.121046,26.362396 c 0.308727,0.02237 0.501181,-0.187856 0.475082,-0.518952 -0.02413,-0.306106 0.07715,-0.481761 0.225069,-0.390344 0.287865,0.17791 0.749862,-1.385862 1.074403,-3.63665 0.123219,-0.854564 0.08178,-1.310798 -0.108384,-1.19327 -0.169334,0.104655 -0.451046,-0.06475 -0.626029,-0.37645 -0.302064,-0.538078 -0.329056,-0.538418 -0.533904,-0.0067 -0.118665,0.308 -0.344349,0.56 -0.50152,0.56 -0.510249,0 -0.302137,-0.845989 0.354237,-1.44 0.362941,-0.328457 0.64,-0.419192 0.64,-0.209597 0,0.203278 0.144,0.369596 0.32,0.369596 0.176,0 0.32,-0.216 0.32,-0.48 0,-0.292403 -0.298077,-0.48 -0.762678,-0.48 -0.470727,0 -0.821466,-0.224803 -0.91625,-0.587262 -0.124784,-0.477178 -0.0066,-0.559165 0.630518,-0.437373 0.676327,0.129288 0.768228,0.04507 0.668656,-0.612738 -0.06349,-0.419445 -0.302726,-0.723059 -0.531628,-0.674698 -0.228903,0.04836 -0.326359,-0.05742 -0.216564,-0.235072 0.109792,-0.177649 -0.275504,-0.621109 -0.856214,-0.985466 -0.778835,-0.488665 -1.416051,-0.625818 -2.428826,-0.522773 -1.428841,0.145377 -2.759584,1.021996 -2.410025,1.587592 0.116941,0.189214 0.04362,0.228854 -0.174253,0.0942 C 54.22769,15.855734 53.44,17.906708 53.44,19.63054 c 0,0.863923 -0.186128,1.565567 -0.48,1.80946 -0.659648,0.54746 -0.602358,1.307919 0.112621,1.494891 0.325942,0.08524 0.824253,0.640705 1.107353,1.234378 0.619978,1.300108 1.630781,2.007132 3.58064,2.504545 l 1.458848,0.372156 0.171332,3.900391 0.171328,3.900391 -2.98106,-0.811859 C 54.941478,33.588371 52.859706,32.802269 51.954899,32.288 L 50.309798,31.352964 51.202877,30.39692 C 51.994682,29.54929 52.32161,28.635432 52.947568,25.52 53.082192,24.849957 52.895731,24.836489 51.84,25.44 c -1.043235,0.596368 -2.882474,0.602661 -3.724698,0.01275 -0.366905,-0.256991 -0.844761,-0.896173 -1.061907,-1.420406 -0.350537,-0.846269 -0.484569,-0.919023 -1.195286,-0.648808 -1.795139,0.682511 -4.54497,-0.835016 -5.267184,-2.906756 -0.258051,-0.740248 -0.5256,-0.955708 -1.182231,-0.952062 -1.673241,0.0093 -4.684416,1.19586 -6.056604,2.386639 -2.669393,2.316481 -5.193832,6.946574 -5.190894,9.520653 0.0017,1.447233 1.077764,3.076651 2.395533,3.627253 0.606493,0.253407 1.952935,0.460741 2.992093,0.460741 h 1.88938 l 0.195852,1.2 c 0.107719,0.66 0.702125,2.772678 1.3209,4.694838 0.618774,1.92216 1.125046,3.54216 1.125046,3.6 0,0.05784 -0.645258,0.105162 -1.433904,0.105162 -1.597389,0 -1.555494,-0.0691 -1.925123,3.17535 -0.301245,2.644212 -0.991811,3.669575 -2.257466,3.351917 -0.511514,-0.128384 -0.801162,0.09266 -1.275428,0.973315 -0.703331,1.306007 -0.639802,1.2901 -1.908079,0.477712 z M 57.246515,23.289862 C 57.916669,22.529112 58.56,22.363738 58.56,22.952219 c 0,0.106946 -0.09732,0.09713 -0.216259,-0.02181 -0.118944,-0.118943 -0.586944,0.109057 -1.04,0.506667 L 56.48,24.16 Z M 52.804899,22.48 c 0.0026,-0.132 0.14449,-0.456 0.315101,-0.72 0.250838,-0.388147 0.311136,-0.34222 0.315101,0.24 0.0027,0.396 -0.139101,0.72 -0.315101,0.72 -0.176,0 -0.317795,-0.108 -0.315101,-0.24 z m 6.188816,-0.465349 c -0.371997,-0.84775 -0.348505,-2.377924 0.04194,-2.732336 0.146822,-0.133273 0.163366,-0.06232 0.03676,0.157685 -0.126605,0.22 -0.0933,0.4 0.074,0.4 0.167309,0 0.397837,0.373092 0.512285,0.829095 0.124048,0.494242 0.374007,0.765427 0.618896,0.671453 0.263431,-0.101087 0.393127,0.08938 0.36153,0.530906 -0.07026,0.98166 -1.233095,1.082858 -1.645418,0.143197 z M 55.68,20.999182 c 0,-0.73844 0.940634,-1.328124 1.527776,-0.957764 0.282774,0.178368 0.564787,0.476276 0.626704,0.662018 0.157162,0.47149 -0.804954,0.787944 -1.073674,0.353146 -0.133033,-0.21525 -0.07396,-0.265401 0.149751,-0.127139 C 57.11375,21.055023 57.28,21.005272 57.28,20.818885 57.28,20.306819 56.645686,20.41284 56.435722,20.96 56.204742,21.561923 55.68,21.589129 55.68,20.999182 Z m 1.04,-1.710669 c -0.572,-0.07098 -1.04,-0.249852 -1.04,-0.397484 0,-0.229552 1.845904,-1.052682 1.960838,-0.874383 0.05087,0.07891 0.205431,1.522611 0.155469,1.452142 C 57.776339,19.440622 57.292,19.359498 56.72,19.288513 Z m 3.632963,-2.27518 c -0.09065,-0.146666 0.03852,-0.266666 0.287037,-0.266666 0.248515,0 0.377683,0.12 0.287037,0.266666 C 60.836394,17.16 60.707226,17.28 60.64,17.28 c -0.06723,0 -0.196394,-0.12 -0.287037,-0.266667 z"
       id="path1979"
       inkscape:connector-curvature="0" />
    <path
       style="fill:#182a37;stroke-width:0.31999999"
       d="m 26.585263,90.053334 c 0.01535,-0.372784 0.09118,-0.448608 0.193333,-0.193334 0.09244,0.230998 0.08107,0.507002 -0.02526,0.613334 -0.106333,0.106333 -0.181965,-0.08267 -0.16807,-0.42 z M 27.2,51.52 c 0.188385,-0.352 0.414518,-0.64 0.502518,-0.64 0.088,0 0.0059,0.288 -0.182518,0.64 -0.188385,0.352 -0.414518,0.64 -0.502518,0.64 -0.088,0 -0.0059,-0.288 0.182518,-0.64 z m 0.64,-1.261114 c 0,-0.165612 0.142351,-0.389094 0.316335,-0.49662 0.181395,-0.112109 0.235042,0.01635 0.125763,0.301113 C 28.069365,50.617754 27.84,50.719184 27.84,50.258886 Z M 48.284176,25.440115 c -0.459702,-0.249844 -1.002019,-0.856079 -1.205152,-1.347188 -0.3488,-0.843293 -0.465114,-0.886936 -2.092506,-0.785147 -1.600684,0.100118 -1.814886,0.02492 -3.013331,-1.057797 -2.153321,-1.945397 -2.362745,-5.073682 -0.440861,-6.585436 l 0.820407,-0.64533 -0.698195,-0.489034 C 40.108966,13.447621 39.510131,10.761788 40.499424,9.3493744 41.203629,8.343985 42.635632,7.68 44.099734,7.68 c 1.16344,0 1.24072,-0.056476 1.098106,-0.8025072 -0.202461,-1.0591155 0.454291,-2.586192 1.44863,-3.3683389 0.982522,-0.7728519 2.992368,-0.8281321 4.084788,-0.1123507 0.660864,0.4330131 0.788742,0.442057 0.788742,0.055781 0,-1.373114 2.809645,-2.40549 4.943286,-1.8163625 1.172884,0.3238479 1.738919,1.0474923 2.099258,2.6837788 0.1368,0.6211974 0.37129,0.9126442 0.664432,0.825817 1.834848,-0.543472 2.782093,-0.3885418 3.962822,0.6481526 1.156445,1.0153715 1.193882,1.113791 1.056023,2.7761926 -0.129475,1.5613003 -0.05742,1.8090073 0.765625,2.6320553 0.9932,0.9932 1.091229,1.528164 0.55249,3.015064 -0.401882,1.109179 -1.479248,2.03133 -2.823738,2.416926 -0.791049,0.22687 -1.005024,0.130566 -1.659459,-0.746877 -0.413222,-0.554031 -0.723081,-1.098389 -0.688576,-1.209683 0.03451,-0.111294 -0.111613,-0.196609 -0.324713,-0.189589 -0.985437,0.03246 -1.530628,-0.11167 -1.374983,-0.363509 0.215306,-0.348374 -1.998403,0.04745 -2.852467,0.51004 -1.601334,0.867334 -2.72,2.966648 -2.72,5.104421 0,0.595929 -0.224,1.425377 -0.497782,1.843217 -0.462874,0.706437 -0.449722,0.804485 0.18759,1.398229 0.56519,0.526554 0.622755,0.755513 0.328294,1.305719 -0.781289,1.459854 -3.223001,2.04033 -4.853926,1.153939 z M 38.48609,19.298243 c 0.31135,-0.08113 0.74335,-0.0758 0.96,0.01186 0.216649,0.08765 -0.03809,0.154038 -0.56609,0.147516 -0.528,-0.0065 -0.705261,-0.07824 -0.39391,-0.159373 z M 56,18.757305 c 0,-0.06748 0.36,-0.191514 0.8,-0.275625 0.44,-0.08411 0.8,-0.0289 0.8,0.122695 0,0.151594 -0.36,0.275625 -0.8,0.275625 -0.44,0 -0.8,-0.05521 -0.8,-0.122695 z m 4.4,-0.729235 c 0.22,-0.08877 0.58,-0.08877 0.8,0 0.22,0.08877 0.04,0.161404 -0.4,0.161404 -0.44,0 -0.62,-0.07263 -0.4,-0.161404 z"
       id="path1977"
       inkscape:connector-curvature="0" />
    <path
       style="fill:#fad028;fill-opacity:1;stroke-width:0.14333893"
       d="m 60.238083,43.373864 c -0.04252,-0.137343 -0.111863,-0.572227 -0.154092,-0.966409 -0.04223,-0.394183 -0.110256,-0.910203 -0.151172,-1.146712 -0.04092,-0.236509 -0.08131,-0.526771 -0.08976,-0.645025 -0.0085,-0.118255 -0.07663,-0.292811 -0.151504,-0.387903 -0.07488,-0.09509 -0.09728,-0.235766 -0.04979,-0.312608 0.04749,-0.07684 0.0164,-0.182946 -0.0691,-0.235787 -0.0855,-0.05284 -0.121618,-0.184236 -0.08027,-0.291992 0.04135,-0.107755 0.01631,-0.232301 -0.05564,-0.276769 -0.07195,-0.04447 -0.09448,-0.175538 -0.05007,-0.291268 0.04441,-0.11573 0.0055,-0.210418 -0.08639,-0.210418 -0.09192,0 -0.125131,-0.06796 -0.07379,-0.151029 0.09532,-0.154234 -0.532513,-0.835582 -1.022827,-1.110008 -0.256193,-0.14339 -0.271976,-0.368383 -0.271976,-3.877171 0,-2.048721 0.04414,-3.769081 0.09809,-3.823022 0.05395,-0.05394 0.311959,0.05979 0.573355,0.252729 0.261397,0.192941 0.894533,0.597571 1.406969,0.899178 1.855096,1.091859 4.274635,2.938037 4.708055,3.592381 0.626765,0.946243 0.666594,1.421705 0.222709,2.658583 -0.740408,2.063133 -2.650537,5.450497 -3.514345,6.232233 -0.455135,0.411891 -0.305862,0.125236 0.575641,-1.105429 0.464942,-0.649104 1.112444,-1.701421 1.438894,-2.338482 0.699618,-1.365295 0.552622,-1.193091 -0.389363,0.456133 -1.359239,2.379749 -2.607247,3.745377 -2.813624,3.078795 z m 4.354488,-5.839933 c 0,-0.07884 -0.06253,-0.04659 -0.138949,0.07167 -0.07642,0.118255 -0.138949,0.279511 -0.138949,0.358348 0,0.07884 0.06253,0.04659 0.138949,-0.07167 0.07642,-0.118255 0.138949,-0.279511 0.138949,-0.358348 z"
       id="path2023"
       inkscape:connector-curvature="0"
       transform="translate(1.6216933,-2.4325424)" />
    <path
       style="fill:#fad028;fill-opacity:1;stroke-width:0.14333893"
       d="m 60.185246,43.303323 c -0.0088,-0.09855 -0.05324,-0.469435 -0.09878,-0.824199 -0.04553,-0.354764 -0.08623,-0.741779 -0.09044,-0.860034 -0.01268,-0.356596 -0.298537,-1.78194 -0.386783,-1.928592 -0.04529,-0.07527 -0.102534,-0.321211 -0.127201,-0.546534 -0.06268,-0.572525 -0.274259,-0.920857 -0.919945,-1.51453 L 58.00337,37.115709 v -3.696875 c 0,-2.096809 0.05587,-3.696875 0.129082,-3.696875 0.359318,0 4.30471,2.647426 5.715653,3.835302 1.289697,1.085798 1.629105,2.128841 1.154086,3.546653 -0.619782,1.849894 -3.3737,6.611348 -3.658901,6.326147 -0.04446,-0.04446 0.371112,-0.776498 0.923484,-1.62676 0.97181,-1.495897 1.685906,-2.764311 1.556262,-2.764311 -0.03468,0 -0.462453,0.670482 -0.950604,1.489962 -0.488151,0.819479 -1.175616,1.819268 -1.5277,2.221753 -0.608653,0.695782 -1.124762,0.941763 -1.159486,0.552618 z m 4.407325,-5.769392 c 0,-0.07884 -0.06253,-0.04659 -0.138949,0.07167 -0.07642,0.118255 -0.138949,0.279511 -0.138949,0.358348 0,0.07884 0.06253,0.04659 0.138949,-0.07167 0.07642,-0.118255 0.138949,-0.279511 0.138949,-0.358348 z"
       id="path2025"
       inkscape:connector-curvature="0"
       transform="translate(1.6216933,-2.4325424)" />
    <path
       style="fill:#fad028;fill-opacity:1;stroke-width:0.14333893"
       d="m 60.090754,43.016645 c -0.04163,-0.256218 -0.105578,-0.852867 -0.142107,-1.325885 -0.08278,-1.071991 -0.226865,-1.813893 -0.393748,-2.027492 -0.07051,-0.09025 -0.118296,-0.219252 -0.106194,-0.286678 0.08167,-0.454998 -0.100121,-0.825316 -0.72864,-1.484312 L 58.00337,37.140831 v -3.709436 c 0,-2.30231 0.05277,-3.709436 0.139115,-3.709436 0.399588,0 4.936133,3.075992 6.001185,4.069087 1.018669,0.949845 1.313064,2.108825 0.869857,3.424466 -0.714793,2.121832 -3.315487,6.56824 -3.647834,6.236704 -0.05621,-0.05607 0.283345,-0.701098 0.754566,-1.43339 1.039196,-1.614942 1.668766,-2.693159 1.572534,-2.693159 -0.03926,0 -0.476627,0.659457 -0.971933,1.46546 -1.51106,2.458918 -2.461512,3.263163 -2.630106,2.225518 z"
       id="path2027"
       inkscape:connector-curvature="0"
       transform="translate(1.6216933,-2.4325424)" />
    <path
       style="fill:#fad028;fill-opacity:1;stroke-width:0.14333893"
       d="m 60.079574,43.159984 c -0.04364,-0.177382 -0.137788,-0.870784 -0.209223,-1.540894 -0.15509,-1.454874 -0.503893,-3.019728 -0.700124,-3.141005 -0.07764,-0.04799 -0.371325,-0.376807 -0.652623,-0.73071 l -0.511451,-0.643461 -0.0014,-3.690978 c -10e-4,-2.723838 0.04256,-3.690977 0.166349,-3.690977 0.529455,0 5.653102,3.623016 6.392912,4.520534 0.654476,0.793993 0.842854,1.821547 0.531148,2.897273 -0.500594,1.727595 -3.122639,6.342731 -3.60356,6.342731 -0.293476,0 -0.219625,-0.166759 0.71648,-1.61784 0.765745,-1.187001 1.218975,-1.967762 1.056906,-1.820689 -0.04441,0.0403 -0.414364,0.588573 -0.822119,1.218381 -1.2676,1.957903 -2.170182,2.682639 -2.363303,1.897635 z m 3.486332,-3.623101 c -0.04413,-0.04413 -0.124282,0.03542 -0.17811,0.176785 -0.07779,0.204286 -0.06132,0.22075 0.08024,0.08024 0.09796,-0.09723 0.142002,-0.212893 0.09787,-0.257025 z"
       id="path2029"
       inkscape:connector-curvature="0"
       transform="translate(1.6216933,-2.4325424)" />
    <path
       style="fill:#fad028;fill-opacity:1;stroke-width:0.14333893"
       d="m 48.34014,59.219192 c -3.127798,-0.399735 -6.681544,-2.239451 -9.194643,-4.759917 -0.733816,-0.735967 -0.917681,-1.027312 -1.18314,-1.874756 -0.174209,-0.556139 -0.369937,-1.706168 -0.439118,-2.580101 -0.06865,-0.8672 -0.169915,-1.684079 -0.225036,-1.815286 -0.08777,-0.208926 0.03017,-0.197592 0.949608,0.09126 1.514797,0.475888 1.642941,0.537317 2.96803,1.422808 0.660829,0.441599 1.246419,0.802907 1.301311,0.802907 0.294231,0 1.664166,-1.092992 3.099949,-2.473271 1.76679,-1.698492 2.156605,-2.310676 2.595195,-4.075626 0.503374,-2.025648 0.203408,-8.496024 -0.455606,-9.827576 -0.189695,-0.383282 -0.183833,-0.394182 0.211996,-0.394182 0.223897,0 0.428587,0.05684 0.454865,0.126302 0.08723,0.23059 3.207119,1.710035 4.72082,2.238603 1.597776,0.557927 4.83216,1.395414 4.996603,1.293782 0.179009,-0.110633 1.184992,1.227569 1.327125,1.765401 0.07623,0.288463 0.230589,1.137252 0.343015,1.886198 0.112423,0.748946 0.273757,1.61973 0.358517,1.935075 0.08476,0.315346 0.143076,1.573145 0.129587,2.795109 -0.02436,2.207224 -0.0275,2.227125 -0.479326,3.042914 -0.638388,1.152631 -2.99282,4.156818 -4.14578,5.289893 -0.532145,0.522968 -0.967537,1.004709 -0.967537,1.070534 0,0.06583 -0.328873,0.452693 -0.730828,0.859704 -0.401956,0.407011 -0.81037,0.892808 -0.907587,1.07955 -0.17897,0.343776 -0.248384,0.36372 -0.680385,0.195487 -0.186193,-0.07251 -0.223871,-0.03046 -0.167133,0.186499 0.05152,0.197 -0.121706,0.480705 -0.583815,0.956181 -0.361385,0.371838 -0.657418,0.718526 -0.657851,0.770419 -0.0011,0.12916 -1.603904,0.124358 -2.638836,-0.0079 z"
       id="path2031"
       inkscape:connector-curvature="0"
       transform="translate(1.6216933,-2.4325424)" />
    <path
       style="fill:#fad028;fill-opacity:1;stroke-width:0.14333893"
       d="m 46.822933,58.90874 c -2.7381,-0.735645 -5.441988,-2.282486 -7.475163,-4.276394 -0.917001,-0.899291 -1.107049,-1.173947 -1.3674,-1.976158 -0.166307,-0.512436 -0.347292,-1.512225 -0.402189,-2.221753 -0.0549,-0.709528 -0.151264,-1.531935 -0.214148,-1.827572 -0.132271,-0.621841 -0.128014,-0.623163 0.979842,-0.304168 1.020329,0.293792 1.932314,0.751071 3.121123,1.564962 0.512902,0.351146 0.985878,0.638447 1.051059,0.638447 0.255738,0 1.987441,-1.391105 3.239416,-2.602278 1.956245,-1.892488 2.499978,-3.108601 2.713822,-6.069727 0.149619,-2.071795 -0.276151,-6.723081 -0.718373,-7.847807 -0.07863,-0.199973 -0.02285,-0.250843 0.275057,-0.250843 0.205525,0 0.373683,0.05438 0.373683,0.120843 0,0.204058 3.86021,1.974857 5.30354,2.4329 1.172408,0.372064 2.710724,0.785989 4.01349,1.079936 l 0.358348,0.08085 -0.04242,-3.864011 c -0.03612,-3.290328 -0.01172,-3.864012 0.164358,-3.864012 0.386806,0 4.973674,3.162784 5.882159,4.055925 0.756072,0.743305 0.93417,1.01362 1.085042,1.646872 0.100599,0.422231 0.14002,1.027556 0.08905,1.36742 -0.185804,1.239028 -2.986867,6.405229 -3.600529,6.640713 -0.417048,0.160036 -0.397096,-0.09099 0.06714,-0.844741 l 0.464418,-0.754049 -0.740191,0.824199 c -0.407107,0.453309 -0.831787,0.824199 -0.943736,0.824199 -0.166795,0 -0.20411,0.39464 -0.206691,2.185918 -0.0036,2.526266 -0.04285,2.655548 -1.35857,4.479342 -1.180487,1.636334 -3.126525,3.94458 -3.721181,4.413783 -0.279025,0.220161 -0.507319,0.472693 -0.507319,0.561182 0,0.08849 -0.387015,0.563925 -0.860034,1.056525 -0.473018,0.492599 -0.860034,0.97324 -0.860034,1.06809 0,0.105331 -0.135559,0.146543 -0.34828,0.105879 -0.268146,-0.05126 -0.366334,0.0054 -0.426752,0.246077 -0.04316,0.171961 -0.343433,0.613667 -0.667274,0.981571 l -0.588802,0.668915 -1.457043,-0.0068 c -1.048499,-0.0049 -1.798666,-0.09863 -2.675423,-0.334191 z M 62.733555,41.045735 c 0.08438,-0.157673 0.121174,-0.286678 0.08176,-0.286678 -0.03942,0 -0.140711,0.129005 -0.225095,0.286678 -0.08438,0.157672 -0.121174,0.286678 -0.08176,0.286678 0.03942,0 0.140711,-0.129006 0.225095,-0.286678 z"
       id="path2033"
       inkscape:connector-curvature="0"
       transform="translate(1.6216933,-2.4325424)" />
    <path
       style="fill:#fad028;fill-opacity:1;stroke-width:0.14333893"
       d="m 46.684709,58.885258 c -2.582225,-0.667016 -5.550007,-2.414005 -7.548293,-4.443313 -1.078314,-1.095055 -1.388206,-1.937439 -1.631992,-4.436274 -0.09223,-0.945349 -0.197934,-1.767756 -0.234903,-1.827572 -0.104753,-0.169495 0.258119,-0.129397 1.106234,0.122237 0.975308,0.289374 1.909598,0.76005 3.162677,1.593291 l 0.977448,0.649959 0.397625,-0.255148 c 0.710111,-0.455664 2.742543,-2.228497 3.480504,-3.035944 1.606729,-1.758018 2.020406,-3.112522 2.027804,-6.639652 0.006,-2.881563 -0.212913,-4.998575 -0.685367,-6.62655 -0.0556,-0.191578 0.01215,-0.250843 0.286749,-0.250843 0.197751,0 0.404894,0.07337 0.460317,0.163047 0.11693,0.189197 2.518308,1.340986 4.133873,1.982757 0.610899,0.242675 1.992032,0.669687 3.069182,0.948915 1.077151,0.279229 2.05521,0.534955 2.173464,0.568281 0.188011,0.05298 0.209944,-0.425165 0.174676,-3.807949 -0.03056,-2.931182 0.0013,-3.868541 0.131308,-3.868541 0.386555,0 4.119063,2.486729 5.547275,3.69579 1.23069,1.041851 1.514351,1.578279 1.522133,2.878504 0.0064,1.069854 -0.01675,1.143545 -0.95236,3.030504 -1.259391,2.53998 -2.305776,4.15574 -2.691304,4.15574 -0.374546,0 -0.368538,-0.203378 0.02264,-0.766237 0.272853,-0.392605 0.219332,-0.367206 -0.406433,0.192881 -0.851459,0.762093 -0.907366,0.965524 -0.909592,3.309736 -0.0015,1.563233 -0.02709,1.711361 -0.433662,2.508431 -0.494664,0.969783 -2.520592,3.611147 -4.047669,5.27727 -0.571337,0.623361 -1.368682,1.494145 -1.771877,1.935075 -0.403195,0.440932 -0.808605,0.946826 -0.900912,1.124208 -0.10309,0.198104 -0.300389,0.322512 -0.511475,0.322512 -0.225528,0 -0.377195,0.105708 -0.441255,0.307545 -0.05369,0.169149 -0.35651,0.588415 -0.67294,0.931703 l -0.57533,0.624158 -1.450968,-0.007 C 48.437291,59.2376 47.67109,59.140052 46.684709,58.885258 Z"
       id="path2035"
       inkscape:connector-curvature="0"
       transform="translate(1.6216933,-2.4325424)" />
    <path
       style="fill:#fad028;fill-opacity:1;stroke-width:0.14333893"
       d="m 47.181281,59.037752 c -2.685253,-0.590843 -5.71964,-2.298987 -7.898563,-4.446327 -0.86617,-0.853615 -1.06356,-1.14272 -1.321308,-1.935237 -0.166658,-0.512436 -0.371946,-1.64123 -0.456195,-2.508431 -0.08425,-0.867201 -0.187409,-1.689608 -0.229245,-1.827571 -0.104634,-0.34506 0.178294,-0.323386 1.4792,0.113313 0.61206,0.205462 1.670917,0.743843 2.429748,1.235417 l 1.344942,0.87126 0.533974,-0.371133 c 1.137753,-0.790784 3.19598,-2.717212 3.882396,-3.633787 0.450923,-0.602119 0.843031,-1.337698 1.050597,-1.970876 0.310558,-0.947352 0.330376,-1.224282 0.318491,-4.450348 -0.01201,-3.258879 -0.137906,-4.595849 -0.570288,-6.05607 -0.151205,-0.510641 0.190908,-0.414386 2.385114,0.671064 1.104668,0.546468 2.6024,1.189904 3.328294,1.429859 1.56748,0.518154 3.941047,1.159167 4.294089,1.159676 0.232596,3.35e-4 0.250843,-0.27594 0.250843,-3.79812 0,-3.073956 0.03653,-3.798482 0.191534,-3.798482 0.252371,0 2.696792,1.555353 4.335716,2.758761 1.54277,1.132804 2.471289,2.096923 2.589703,2.688993 0.04721,0.236028 0.12864,0.429142 0.180963,0.429142 0.05232,0 0.05246,0.465546 2.86e-4,1.034546 -0.08366,0.912707 -0.223663,1.28831 -1.188793,3.189291 -1.220773,2.404515 -2.017631,3.564999 -2.495282,3.633939 -0.378979,0.0547 -0.401368,-0.134164 -0.07825,-0.660037 0.164502,-0.267725 0.0221,-0.179062 -0.456415,0.284171 l -0.695519,0.673311 -0.08662,2.193468 c -0.09788,2.478586 -0.09838,2.480088 -1.444517,4.343552 -0.992344,1.373706 -2.324714,2.969054 -4.095091,4.903367 -0.718954,0.785529 -1.419775,1.600061 -1.557379,1.810072 -0.155195,0.23689 -0.379942,0.381838 -0.59203,0.381838 -0.196512,0 -0.341862,0.08483 -0.341862,0.199506 0,0.109728 -0.296239,0.528994 -0.658309,0.931704 l -0.658308,0.732196 -1.455941,-0.01139 c -0.800767,-0.0063 -1.842956,-0.09655 -2.315974,-0.200632 z"
       id="path2037"
       inkscape:connector-curvature="0"
       transform="translate(1.6216933,-2.4325424)" />
    <path
       style="fill:#fad028;fill-opacity:1;stroke-width:0.14333893"
       d="m 46.894603,58.969086 c -2.825254,-0.74592 -5.487004,-2.273783 -7.59931,-4.362056 -0.880532,-0.870513 -1.074649,-1.155012 -1.331079,-1.950842 -0.165116,-0.512436 -0.370436,-1.576728 -0.456266,-2.365092 -0.08583,-0.788364 -0.191031,-1.610771 -0.233778,-1.827571 -0.06419,-0.325568 -0.02733,-0.394183 0.211801,-0.394183 0.60142,0 2.430855,0.785564 3.718231,1.596616 l 1.336178,0.841799 0.654234,-0.450124 c 0.98967,-0.680912 3.551397,-3.20504 4.064856,-4.005197 0.928782,-1.447381 1.049152,-2.119255 1.038215,-5.795065 -0.0091,-3.060683 -0.163818,-4.77769 -0.558599,-6.199409 -0.139378,-0.501942 0.242925,-0.413471 1.938764,0.448658 0.834306,0.424144 2.097443,1.000968 2.806971,1.281832 1.494135,0.591448 5.166834,1.587584 5.376219,1.458177 0.0883,-0.05457 0.14233,-1.499607 0.14233,-3.806317 0,-3.050581 0.03522,-3.718353 0.196131,-3.718353 0.107872,0 0.936748,0.47352 1.84195,1.052266 3.093449,1.97782 4.865985,3.498753 5.075628,4.355165 0.05356,0.218788 0.160762,0.4393 0.23823,0.490028 0.09189,0.06017 0.08755,0.458804 -0.01247,1.146711 -0.26302,1.808966 -2.75684,6.446691 -3.5835,6.664186 -0.447472,0.117731 -0.538604,-0.01611 -0.330064,-0.484734 0.155213,-0.348792 0.105533,-0.325449 -0.426413,0.200356 l -0.602094,0.595144 -0.0916,2.199965 c -0.08554,2.054531 -0.118279,2.248549 -0.495194,2.934869 -0.552603,1.006229 -2.663475,3.703064 -4.251678,5.431913 -0.722592,0.786581 -1.613876,1.800796 -1.980633,2.253812 -0.366757,0.453014 -0.773377,0.823903 -0.903599,0.824199 -0.130222,2.86e-4 -0.35598,0.18548 -0.501686,0.411527 -0.145705,0.226046 -0.472581,0.645312 -0.726391,0.931703 l -0.461468,0.52071 -1.545273,-0.0079 c -1.02252,-0.0052 -1.884705,-0.09751 -2.548645,-0.272801 z"
       id="path2039"
       inkscape:connector-curvature="0"
       transform="translate(1.6216933,-2.4325424)" />
    <path
       style="fill:#fad028;fill-opacity:1;stroke-width:0.14333893"
       d="m 41.447723,49.793483 c -0.473018,-0.304605 -0.930591,-0.616776 -1.016828,-0.693713 -0.274234,-0.244662 -1.0615,-0.612167 -1.063781,-0.496587 -0.0012,0.06115 -0.04958,0.03866 -0.107504,-0.04999 -0.05792,-0.08864 -0.395571,-0.225367 -0.750335,-0.303831 -1.000901,-0.221371 -1.055754,-0.240113 -1.261041,-0.430867 -0.106054,-0.09855 -0.281165,-0.179173 -0.389136,-0.179173 -0.107971,0 -0.232673,-0.05884 -0.277117,-0.130748 -0.194753,-0.315117 -2.098511,-6.588545 -2.239324,-7.379215 -0.08574,-0.481451 -0.215372,-1.073452 -0.288063,-1.315559 -0.07269,-0.242106 -0.132165,-0.548493 -0.132165,-0.68086 0,-0.132366 -0.0774,-0.240666 -0.172007,-0.240666 -0.133783,0 -0.133783,-0.03822 0,-0.172007 0.0946,-0.0946 0.164525,-0.304237 0.15538,-0.465851 -0.01275,-0.225269 -0.03143,-0.237896 -0.08004,-0.05411 -0.126635,0.478753 -1.988643,0.80279 -3.271796,0.569376 -0.680916,-0.123863 -0.648716,-0.132059 0.645025,-0.16419 2.080571,-0.05167 2.173884,-0.08751 2.427522,-0.932209 0.194806,-0.648774 0.219916,-0.676965 0.267113,-0.299898 l 0.05209,0.41619 0.167851,-0.336674 c 0.262536,-0.526595 1.024331,-0.884064 2.962235,-1.390018 0.9855,-0.257297 1.513059,-0.429019 1.172353,-0.381606 -0.587297,0.08173 -3.209773,0.75305 -3.824042,0.978906 -0.273117,0.10042 -0.274368,0.09531 -0.02645,-0.108133 0.331272,-0.271838 1.885151,-0.69049 4.929783,-1.328204 3.640999,-0.762625 5.794191,-1.058551 7.714434,-1.060242 1.3265,-0.0012 1.797463,-0.05297 2.04258,-0.224655 0.432537,-0.30296 0.403273,-0.103244 -0.04586,0.313 -0.525378,0.486904 -0.932346,0.54168 -2.012277,0.270843 -0.893297,-0.22403 -1.078988,-0.224267 -2.7664,-0.0035 -0.994856,0.130143 -2.324848,0.360923 -2.95554,0.512843 -1.338763,0.32248 -0.829985,0.273325 1.576729,-0.152336 0.946037,-0.16732 2.219217,-0.308401 2.829291,-0.313513 1.8149,-0.01521 2.137142,0.372954 2.394911,2.884848 0.196786,1.917634 0.193938,6.314361 -0.0048,7.399236 -0.248479,1.356433 -0.896925,2.391424 -2.494757,3.9819 -1.539856,1.532766 -2.770133,2.535253 -3.096024,2.522785 -0.111098,-0.0043 -0.589005,-0.256951 -1.062024,-0.561555 z M 39.799325,34.452144 c 0.283752,-0.09087 0.298671,-0.114763 0.07167,-0.114763 -0.157673,0 -0.447934,0.05164 -0.645025,0.114763 -0.283752,0.09087 -0.298671,0.114763 -0.07167,0.114763 0.157673,0 0.447934,-0.05164 0.645025,-0.114763 z"
       id="path2041"
       inkscape:connector-curvature="0"
       transform="translate(1.6216933,-2.4325424)" />
    <path
       style="fill:#fad028;fill-opacity:1;stroke-width:0.14333893"
       d="m 47.32462,59.089243 c -2.913215,-0.669372 -6.445989,-2.689999 -8.355034,-4.778799 -0.855936,-0.93653 -1.2379,-1.950461 -1.460155,-3.876009 -0.0819,-0.709528 -0.186366,-1.531935 -0.232154,-1.827572 -0.07047,-0.455033 -0.04282,-0.538492 0.180192,-0.543856 0.17025,-0.0041 0.07486,-0.105913 -0.269653,-0.287832 -0.293203,-0.154822 -0.592111,-0.393857 -0.664242,-0.531185 -0.245959,-0.468281 -1.877249,-5.978235 -2.294863,-7.751285 -0.229039,-0.972421 -0.382103,-1.899325 -0.340141,-2.059786 0.0752,-0.287554 0.0705,-0.287954 -0.326493,-0.02783 -0.312953,0.205055 -0.725289,0.271195 -1.848789,0.296554 -1.122487,0.02534 -1.317725,0.0041 -0.872646,-0.09511 0.315346,-0.07026 0.899666,-0.131465 1.298489,-0.136008 0.850673,-0.0097 1.20375,-0.226626 1.445445,-0.888099 0.162349,-0.444317 0.183546,-0.457268 0.271912,-0.166136 0.09455,0.311513 0.10052,0.310181 0.445186,-0.09943 0.367087,-0.436259 1.269383,-0.831156 2.793419,-1.222562 0.501873,-0.128891 0.966163,-0.286242 1.031756,-0.349668 0.125813,-0.121656 -1.467454,0.233259 -2.845395,0.633837 -0.859084,0.249743 -1.26295,0.196993 -0.554705,-0.07245 0.851881,-0.324089 2.550583,-0.737736 5.285372,-1.287026 2.675146,-0.53731 3.91149,-0.700499 7.384168,-0.974659 0.827782,-0.06535 1.634064,-0.172293 1.791737,-0.237648 0.219454,-0.09096 0.185843,-0.0094 -0.143339,0.347633 l -0.430017,0.46646 -1.003373,-0.10967 c -0.551854,-0.06032 -1.487141,-0.106136 -2.078414,-0.101817 -1.133893,0.0083 -4.327204,0.525086 -4.71623,0.763273 -0.177373,0.108599 -0.14822,0.124137 0.129384,0.06896 1.345809,-0.267498 3.120326,-0.522586 4.16686,-0.59899 1.456682,-0.106347 2.184121,0.08013 2.504584,0.642057 l 0.218179,0.382568 -0.08774,-0.465851 c -0.120722,-0.641001 0.130665,-0.615642 1.647373,0.166177 2.281699,1.176151 4.318455,1.930328 7.232534,2.678087 0.917748,0.235496 1.155515,0.255029 1.252021,0.102856 0.06552,-0.103315 0.120117,-1.816535 0.121324,-3.807154 0.0018,-2.938347 0.03853,-3.619308 0.19533,-3.619308 0.225852,0 2.187161,1.21415 3.81921,2.364286 2.372432,1.671898 3.441279,2.986037 3.441279,4.231025 0,0.747513 -0.566145,2.308148 -1.488724,4.103817 -1.040747,2.025666 -1.758545,2.974611 -2.297141,3.036869 -0.381751,0.04413 -0.401438,0.02131 -0.309184,-0.358348 l 0.09853,-0.405476 -0.522849,0.516752 -0.522848,0.516753 -0.07408,2.063349 c -0.0619,1.724307 -0.126861,2.181112 -0.395314,2.780043 -0.32629,0.727964 -1.915858,2.922602 -3.181008,4.391857 -2.371901,2.754558 -3.857189,4.361063 -4.089718,4.423487 -0.146832,0.03942 -0.378618,0.239879 -0.515081,0.445469 -0.136463,0.205588 -0.455778,0.608729 -0.709588,0.895868 l -0.461473,0.522069 -1.545272,-0.0144 c -0.8499,-0.0079 -1.803283,-0.07368 -2.118628,-0.146138 z m -4.60583,-8.695761 c 0.03828,-0.06194 -0.04993,-0.112625 -0.196025,-0.112625 -0.146096,0 -0.234308,0.05068 -0.196025,0.112625 0.03828,0.06194 0.126494,0.112622 0.196025,0.112622 0.06953,0 0.157743,-0.05068 0.196025,-0.112622 z m 1.165695,-0.89075 c 0.142692,-0.157673 0.227189,-0.286678 0.187771,-0.286678 -0.03942,0 -0.188418,0.129005 -0.33111,0.286678 -0.142692,0.157673 -0.227188,0.286678 -0.18777,0.286678 0.03942,0 0.188417,-0.129005 0.331109,-0.286678 z M 40.51602,49.149427 c 0,-0.03664 -0.145131,-0.136956 -0.322512,-0.222915 -0.309702,-0.150081 -0.311461,-0.147435 -0.04427,0.06663 0.292449,0.2343 0.366786,0.265975 0.366786,0.156289 z m 5.16379,-1.330928 1.071454,-1.110876 -1.110877,1.071454 c -1.031758,0.995143 -1.176278,1.150299 -1.071454,1.150299 0.02168,0 0.521576,-0.499894 1.110877,-1.110877 z m -5.880485,0.911204 c 0,-0.03098 -0.100103,-0.09475 -0.222453,-0.141697 -0.127561,-0.04895 -0.185096,-0.02492 -0.134879,0.05633 0.08418,0.136203 0.357332,0.201456 0.357332,0.08536 z M 38.939292,48.35602 c -0.118255,-0.07642 -0.311762,-0.135403 -0.430017,-0.131069 -0.14177,0.0052 -0.117357,0.04984 0.07167,0.131069 0.39405,0.169329 0.620366,0.169329 0.358347,0 z m 8.326527,-2.317469 c 0.217642,-0.406667 0.07648,-0.311044 -0.29999,0.20322 -0.21103,0.288269 -0.245644,0.388384 -0.0908,0.262631 0.137628,-0.11177 0.313484,-0.321403 0.390789,-0.465851 z m 0.560487,-1.030613 c 0,-0.182118 -0.06621,-0.1008 -0.275169,0.337965 -0.16092,0.337888 -0.157935,0.342462 0.05225,0.08011 0.122605,-0.153032 0.222917,-0.341164 0.222917,-0.418073 z m 0.387836,-2.277971 c -0.03417,-0.177382 -0.06212,-0.03225 -0.06212,0.322513 0,0.354764 0.02795,0.499894 0.06212,0.322512 0.03417,-0.177382 0.03417,-0.467643 0,-0.645025 z m 0.0015,-5.661888 c -0.03284,-0.2168 -0.05971,-0.03942 -0.05971,0.394182 0,0.433601 0.02687,0.610983 0.05971,0.394182 0.03284,-0.2168 0.03284,-0.571564 0,-0.788364 z m -0.151075,-1.36172 c -0.03976,-0.09855 -0.0723,-0.01792 -0.0723,0.179174 0,0.197091 0.03253,0.277719 0.0723,0.179174 0.03976,-0.09855 0.03976,-0.259802 0,-0.358348 z m -0.140353,-0.851075 c -0.04576,-0.114346 -0.07972,-0.08038 -0.0866,0.0866 -0.0062,0.151103 0.02765,0.235763 0.07528,0.188132 0.04763,-0.04763 0.05272,-0.17126 0.01131,-0.274733 z m -8.124894,-0.40314 c 0.178042,-0.11506 0.16572,-0.138949 -0.07167,-0.138949 -0.157673,0 -0.383432,0.06253 -0.501686,0.138949 -0.178042,0.115059 -0.16572,0.138949 0.07167,0.138949 0.157673,0 0.383432,-0.06253 0.501686,-0.138949 z"
       id="path2043"
       inkscape:connector-curvature="0"
       transform="translate(1.6216933,-2.4325424)" />
    <path
       style="fill:#fad028;fill-opacity:1;stroke-width:0.14333893"
       d="m 47.539628,59.15259 c -1.711811,-0.277777 -4.722085,-1.698885 -6.611465,-3.121178 -1.75289,-1.319547 -2.61366,-2.30596 -2.974885,-3.409115 -0.414537,-1.265963 -0.809,-4.418047 -0.571278,-4.564966 0.120201,-0.07429 0.01123,-0.189695 -0.335028,-0.354814 -0.505338,-0.240979 -0.525323,-0.284355 -1.309204,-2.841559 -1.337655,-4.363746 -1.889727,-6.541095 -1.848572,-7.29069 0.02155,-0.39258 0.02056,-0.392992 -0.354146,-0.147473 -0.279224,0.182955 -0.74725,0.256344 -1.821762,0.285665 -0.969879,0.02647 -1.351608,-0.0043 -1.159324,-0.0933 0.157673,-0.07301 0.576939,-0.137648 0.931703,-0.143629 1.140868,-0.01923 1.68949,-0.25028 1.99511,-0.840221 0.230134,-0.444229 0.291526,-0.488652 0.376518,-0.272446 0.09487,0.241338 0.120671,0.237803 0.392291,-0.05375 0.369519,-0.396633 1.271861,-0.795625 2.742679,-1.212743 0.637265,-0.180725 1.061909,-0.334152 0.943654,-0.340948 -0.118254,-0.0068 -0.924536,0.179627 -1.791736,0.414273 -1.781961,0.482161 -1.791737,0.483773 -1.791737,0.295571 0,-0.498261 7.172027,-1.952394 11.682123,-2.368559 1.340219,-0.123667 2.662521,-0.262626 2.938448,-0.308798 l 0.501687,-0.08395 -0.397567,0.410234 -0.397567,0.410235 -2.61255,0.01627 c -2.108352,0.01313 -2.86152,0.07442 -3.902602,0.317587 -1.338392,0.312608 -0.966415,0.297723 1.36172,-0.05449 1.633505,-0.247125 3.057201,-0.266562 3.485392,-0.04758 0.172199,0.08806 0.427626,0.297697 0.567615,0.465852 l 0.254526,0.305736 -0.09089,-0.394182 c -0.133349,-0.578321 0.09754,-0.523895 2.318701,0.54658 1.07361,0.517419 2.606338,1.159074 3.40606,1.425901 1.861772,0.621178 4.268588,1.245088 4.378855,1.135116 0.04692,-0.04679 0.106249,-1.75687 0.131846,-3.800173 0.03197,-2.551813 0.09535,-3.715096 0.202415,-3.715096 0.229527,0 1.260749,0.619759 3.11951,1.874811 3.723085,2.513859 4.605596,3.875797 3.946419,6.090318 -0.352614,1.184615 -2.016848,4.391926 -2.653876,5.114549 -0.418653,0.474904 -0.709982,0.68086 -0.963096,0.68086 -0.291255,0 -0.348213,-0.0561 -0.288566,-0.284192 0.06,-0.229452 0.0284,-0.259618 -0.164058,-0.156615 -0.635389,0.340049 -0.708546,0.590562 -0.840333,2.877568 -0.09187,1.594269 -0.197658,2.366195 -0.374572,2.733181 -0.698082,1.448078 -6.622964,8.521142 -7.356164,8.781713 -0.184859,0.0657 -0.336107,0.171958 -0.336107,0.236135 0,0.06418 -0.274136,0.444661 -0.609191,0.84552 l -0.60919,0.728832 -1.576728,-0.01695 c -0.867201,-0.0093 -1.737985,-0.04312 -1.935076,-0.0751 z M 39.727656,34.452144 c 0.180699,-0.07765 0.207193,-0.12319 0.07167,-0.12319 -0.118254,0 -0.344013,0.05543 -0.501686,0.12319 -0.180698,0.07765 -0.207193,0.123189 -0.07167,0.123189 0.118254,0 0.344013,-0.05544 0.501686,-0.123189 z"
       id="path2045"
       inkscape:connector-curvature="0"
       transform="translate(1.6216933,-2.4325424)" />
    <path
       style="fill:#fad028;fill-opacity:1;stroke-width:0.14333893"
       d="m 46.679594,58.945952 c -2.255669,-0.601005 -5.26119,-2.301983 -7.089579,-4.012352 -1.061674,-0.993144 -1.427479,-1.525937 -1.725376,-2.513008 -0.270932,-0.897724 -0.697671,-4.00832 -0.588814,-4.291998 0.05436,-0.141664 -0.06094,-0.300683 -0.330002,-0.455101 -0.246733,-0.141604 -0.47912,-0.442113 -0.576082,-0.744949 -1.535634,-4.79622 -2.65053,-9.000116 -2.494626,-9.406396 0.09767,-0.254528 0.05906,-0.253397 -0.588663,0.01724 -0.371431,0.155194 -0.896473,0.208232 -1.773407,0.179146 -1.398085,-0.04637 -1.318541,-0.187426 0.187631,-0.332723 0.925078,-0.08924 1.044868,-0.140366 1.535152,-0.655196 0.597012,-0.626903 0.685231,-0.666238 0.689788,-0.307561 0.0028,0.217571 0.03604,0.210029 0.250844,-0.05687 0.307761,-0.38239 1.215131,-0.843366 2.097288,-1.065495 0.368379,-0.09276 0.642528,-0.195905 0.60922,-0.229213 -0.03331,-0.03331 -0.59152,0.075 -1.240472,0.240697 -1.169003,0.298473 -1.404494,0.301139 -1.226964,0.01389 0.202072,-0.326958 4.122833,-1.245471 7.677216,-1.798534 2.099945,-0.326752 7.310286,-0.888795 7.310286,-0.788566 0,0.04555 -0.185056,0.260111 -0.411236,0.476805 l -0.411236,0.393989 -1.918022,-0.06411 c -1.05703,-0.03533 -1.432101,-0.02321 -0.83554,0.02701 0.660831,0.05563 1.233125,0.190114 1.469224,0.345266 0.330687,0.217311 0.386743,0.222505 0.386743,0.03583 0,-0.352851 0.348937,-0.261078 1.974915,0.519419 0.845288,0.405752 1.988406,0.925181 2.540261,1.154287 1.166871,0.484432 4.178274,1.382491 5.02952,1.499901 l 0.586014,0.08083 0.09441,-2.488903 c 0.05192,-1.368896 0.09461,-3.0533 0.09485,-3.743118 2.86e-4,-0.856993 0.0532,-1.254216 0.167018,-1.254216 0.241576,0 1.247606,0.603728 3.185866,1.911868 4.510734,3.044314 4.979085,4.376445 2.956281,8.408535 -0.799227,1.593113 -1.773469,3.094266 -2.133062,3.286715 -0.4197,0.224616 -0.851077,0.187271 -0.904194,-0.07828 -0.04073,-0.203613 -0.08871,-0.19733 -0.39585,0.05185 -0.329431,0.267257 -0.358829,0.415166 -0.511869,2.575341 -0.178869,2.524784 -0.258302,2.771565 -1.389142,4.315817 -1.49579,2.04262 -5.843012,7.047167 -6.263753,7.210868 -0.127175,0.04948 -0.541485,0.484873 -0.920688,0.967538 l -0.689459,0.877571 -1.674722,-0.0087 c -1.196956,-0.0062 -1.981411,-0.09041 -2.749764,-0.295132 z M 39.655987,34.452144 c 0.118254,-0.07642 0.150505,-0.138949 0.07167,-0.138949 -0.07884,0 -0.240093,0.06253 -0.358347,0.138949 -0.118255,0.07642 -0.150506,0.138949 -0.07167,0.138949 0.07884,0 0.240093,-0.06253 0.358347,-0.138949 z m 2.615935,-0.524948 c -0.09855,-0.03976 -0.259802,-0.03976 -0.358347,0 -0.09855,0.03976 -0.01792,0.0723 0.179173,0.0723 0.197091,0 0.27772,-0.03253 0.179174,-0.0723 z m 1.540894,-0.184431 c 0.483696,-0.08607 0.537472,-0.117194 0.215008,-0.124453 -0.236509,-0.0053 -0.688027,0.04369 -1.003372,0.108914 -0.754614,0.156086 -0.07662,0.16945 0.788364,0.01554 z"
       id="path2047"
       inkscape:connector-curvature="0"
       transform="translate(1.6216933,-2.4325424)" />
    <path
       style="fill:#fad028;fill-opacity:1;stroke-width:0.14333893"
       d="m 46.751264,58.967602 c -3.370536,-0.894869 -7.602786,-3.745628 -8.592397,-5.787668 -0.37242,-0.768478 -0.739653,-2.563682 -0.893941,-4.369989 -0.07704,-0.901905 -0.13382,-1.067878 -0.399961,-1.169066 -0.340428,-0.12943 -0.382553,-0.239946 -1.53038,-4.015044 -0.84316,-2.773076 -1.570418,-5.81456 -1.45947,-6.103687 0.0974,-0.253826 0.05817,-0.253022 -0.575602,0.01178 -0.32191,0.134502 -0.97568,0.215008 -1.746032,0.215008 -1.319787,0 -1.547618,-0.209265 -0.386985,-0.355449 1.161064,-0.146238 1.678152,-0.339562 2.107843,-0.788063 0.473075,-0.493784 0.646197,-0.542175 0.652449,-0.182373 0.004,0.231251 0.01633,0.230247 0.157657,-0.01286 0.157093,-0.270228 1.754499,-1.097703 2.119462,-1.097906 0.111685,-6.2e-5 0.164845,-0.03833 0.118133,-0.08504 -0.04671,-0.04671 -0.438279,0.01779 -0.870149,0.143339 -0.967306,0.281203 -1.099445,0.283489 -1.099445,0.01902 0,-0.558506 5.657853,-1.748569 11.206214,-2.357096 3.251821,-0.35665 3.844374,-0.402151 3.844374,-0.295204 0,0.04646 -0.180911,0.257799 -0.402025,0.469639 -0.351065,0.336342 -0.519133,0.385261 -1.325886,0.38592 l -0.923859,7.59e-4 0.430017,0.263483 c 0.336677,0.206291 0.440076,0.221684 0.476361,0.07091 0.0802,-0.333257 0.516848,-0.21522 2.121703,0.573554 0.85732,0.421367 1.978031,0.932622 2.490468,1.136122 1.263649,0.501823 4.222974,1.389455 4.976905,1.492793 l 0.613313,0.08406 v -1.143217 c 0,-2.862385 0.193273,-6.349374 0.351926,-6.349374 0.228598,0 2.762935,1.576226 4.073797,2.53369 3.594013,2.625097 3.963746,4.072806 2.025275,7.930052 -0.700159,1.393203 -1.434978,2.580943 -1.859211,3.005176 -0.348655,0.348655 -1.151652,0.401225 -1.151652,0.0754 0,-0.369917 -0.555077,0.08061 -0.706494,0.573423 -0.07286,0.237141 -0.173418,1.205195 -0.223461,2.151232 -0.05004,0.946037 -0.184215,2.012137 -0.298163,2.369113 -0.113948,0.356976 -0.715062,1.324513 -1.335812,2.150084 -1.856629,2.469241 -5.84869,7.019587 -6.158348,7.019587 -0.06531,0 -0.419279,0.387015 -0.786611,0.860034 l -0.667876,0.860033 -1.684383,-0.0079 c -1.164223,-0.0054 -1.994236,-0.09015 -2.687754,-0.274279 z M 43.131956,33.783857 c -0.09855,-0.03976 -0.259802,-0.03976 -0.358348,0 -0.09855,0.03976 -0.01792,0.0723 0.179174,0.0723 0.197091,0 0.277719,-0.03253 0.179174,-0.0723 z m 0.862761,-0.142429 c -0.09705,-0.03926 -0.290552,-0.04165 -0.430016,-0.0053 -0.139465,0.03634 -0.06006,0.06847 0.176445,0.07139 0.236509,0.0029 0.350616,-0.02681 0.253571,-0.06608 z"
       id="path2049"
       inkscape:connector-curvature="0"
       transform="translate(1.6216933,-2.4325424)" />
    <path
       style="fill:#fad028;fill-opacity:1;stroke-width:0.14333893"
       d="m 46.751264,58.967602 c -1.887486,-0.501123 -3.852011,-1.466578 -5.661888,-2.782505 -1.188695,-0.864277 -2.573439,-2.239903 -2.902388,-2.883279 -0.354227,-0.692811 -0.956387,-3.581685 -0.962995,-4.619981 -0.004,-0.634934 -0.05856,-0.784467 -0.357369,-0.980258 -0.273422,-0.179152 -0.48047,-0.638572 -0.922025,-2.045884 -1.327393,-4.230633 -2.266618,-7.913871 -2.090643,-8.198605 0.04403,-0.07125 -0.188668,-0.03473 -0.517111,0.08116 -0.674636,0.238025 -2.997889,0.292339 -2.997889,0.07009 0,-0.07733 0.14513,-0.168573 0.322512,-0.202752 1.739389,-0.335159 2.02517,-0.429734 2.464704,-0.81565 0.488983,-0.429332 0.796257,-0.532399 0.796257,-0.267085 0,0.08285 0.209633,-0.0042 0.465852,-0.193548 0.256218,-0.1893 0.723861,-0.452918 1.039207,-0.585819 0.42211,-0.177895 0.464963,-0.21954 0.162451,-0.157871 -1.322466,0.269594 -1.269427,0.270326 -1.2156,-0.01677 0.03462,-0.184654 0.302437,-0.355106 0.836182,-0.532186 1.840649,-0.610671 6.631221,-1.466796 10.53737,-1.883138 1.182546,-0.126043 2.488723,-0.267112 2.902614,-0.313487 0.857814,-0.09611 0.926538,0.01505 0.350504,0.566923 -0.351025,0.336303 -0.519227,0.385277 -1.325886,0.386048 -0.923332,8.89e-4 -0.923616,0.001 -0.496711,0.223612 0.275607,0.143708 0.445119,0.168822 0.477798,0.07079 0.09644,-0.289312 0.611568,-0.148819 2.000272,0.54554 0.767223,0.383615 1.979823,0.930427 2.69467,1.215139 1.313706,0.523228 4.76318,1.527513 5.246635,1.527513 0.239935,0 0.262244,-0.1505 0.262244,-1.769073 0,-3.223621 0.165433,-5.684551 0.382138,-5.684551 0.243207,0 2.168085,1.195613 3.774691,2.344601 3.217888,2.301319 3.992702,3.766793 3.231694,6.112396 -0.368226,1.134959 -1.891949,4.047171 -2.472305,4.725187 -0.39481,0.461246 -0.591953,0.578354 -0.973622,0.578354 -0.263214,0 -0.508646,-0.08063 -0.545406,-0.179174 -0.04714,-0.126364 -0.158791,-0.09099 -0.378822,0.120015 -0.274162,0.262917 -0.329706,0.540954 -0.45816,2.293423 -0.0804,1.096829 -0.205988,2.228464 -0.279093,2.514747 -0.16559,0.648445 -1.476202,2.502277 -3.371172,4.768449 -1.698023,2.030645 -3.732955,4.253724 -4.080782,4.458086 -0.134181,0.07884 -0.544987,0.514228 -0.912904,0.967537 l -0.668937,0.824199 -1.676357,-0.0079 c -1.156361,-0.0054 -1.987598,-0.09052 -2.67973,-0.274284 z"
       id="path2051"
       inkscape:connector-curvature="0"
       transform="translate(1.6216933,-2.4325424)" />
    <path
       style="fill:#fad028;fill-opacity:1;stroke-width:0.14333893"
       d="m 54.276558,56.145687 c 0,-0.142396 0.561248,-0.849624 1.863492,-2.348182 1.735993,-1.997695 3.651611,-4.589611 3.925463,-5.311324 0.131864,-0.347516 0.298426,-1.244621 0.370138,-1.993567 l 0.130385,-1.36172 -0.04445,1.585909 c -0.05592,1.994838 -0.211817,2.362649 -1.879528,4.434327 -1.48908,1.849777 -4.233117,5.088532 -4.311261,5.088532 -0.02983,0 -0.05423,-0.04229 -0.05423,-0.09398 z"
       id="path2053"
       inkscape:connector-curvature="0"
       transform="translate(1.6216933,-2.4325424)" />
    <path
       style="fill:#fad028;fill-opacity:1;stroke-width:0.14333893"
       d="M 46.743321,58.968766 C 44.117052,58.28 41.519235,56.789961 39.417548,54.766899 c -0.649005,-0.624727 -1.131775,-1.234417 -1.312104,-1.657054 -0.381397,-0.893883 -0.886219,-3.336671 -0.886219,-4.288331 0,-0.643936 -0.06034,-0.821781 -0.379021,-1.117124 -0.295314,-0.273688 -0.566322,-0.960693 -1.227128,-3.110777 -0.81849,-2.663145 -1.564027,-5.464463 -1.758056,-6.605811 -0.07589,-0.446414 -0.138834,-0.52964 -0.335516,-0.443631 -0.133155,0.05823 -0.911162,0.135732 -1.728905,0.172228 -1.184104,0.05285 -1.474059,0.02812 -1.4242,-0.121457 0.03443,-0.103298 0.539771,-0.305107 1.122975,-0.448465 0.583204,-0.143358 1.292063,-0.421215 1.575244,-0.617459 0.546546,-0.378757 0.857811,-0.453569 0.857811,-0.206174 0,0.08285 0.209633,-0.008 0.465852,-0.201975 0.256218,-0.193936 0.69161,-0.456175 0.967538,-0.582754 0.275927,-0.12658 0.393387,-0.200729 0.261022,-0.164777 -0.872355,0.236946 -1.264395,0.250593 -1.264395,0.04401 0,-0.117375 0.08546,-0.284334 0.189908,-0.371019 0.470546,-0.390519 4.941857,-1.337675 8.840445,-1.872669 2.810337,-0.385656 5.85011,-0.65949 5.97165,-0.537949 0.05465,0.05465 -0.08539,0.292189 -0.311194,0.527875 -0.367052,0.38312 -0.502208,0.428522 -1.275661,0.428522 -0.852666,0 -0.860141,0.0035 -0.519682,0.241947 0.244977,0.171589 0.361932,0.19243 0.402186,0.07167 0.100703,-0.30211 0.585243,-0.183636 1.863304,0.455591 0.688244,0.344228 1.864126,0.870516 2.613072,1.169529 1.435475,0.573107 4.992178,1.644737 5.458828,1.644737 0.25881,0 0.274729,-0.127444 0.274729,-2.199455 0,-3.27434 0.143828,-5.254169 0.381697,-5.254169 0.227337,0 2.072398,1.13297 3.678069,2.258539 1.757067,1.231698 2.808557,2.27899 3.273079,3.26001 0.491037,1.037024 0.517465,1.758863 0.109053,2.978804 -0.367164,1.096736 -1.68915,3.662944 -2.360591,4.582325 -0.449458,0.615425 -0.552215,0.68086 -1.06921,0.68086 -0.314579,0 -0.571962,-0.0645 -0.571962,-0.143339 0,-0.270982 -0.280411,-0.142817 -0.533872,0.244012 -0.210123,0.320689 -0.256529,0.733885 -0.269649,2.400926 -0.02025,2.5726 -0.07444,2.834211 -0.809008,3.905159 -0.834458,1.216585 -5.11762,6.350407 -5.298161,6.350407 -0.08024,0 -0.03599,-0.177382 0.09833,-0.394182 0.134322,-0.2168 -0.535535,0.401668 -1.488573,1.374376 -0.953038,0.972707 -1.732796,1.827365 -1.732796,1.899241 0,0.248288 -3.43901,0.133988 -4.523119,-0.150331 z m 8.46494,-4.019155 c 0.142692,-0.157673 0.227189,-0.286678 0.187771,-0.286678 -0.03942,0 -0.188418,0.129005 -0.33111,0.286678 -0.142692,0.157673 -0.227189,0.286678 -0.187771,0.286678 0.03942,0 0.188417,-0.129005 0.33111,-0.286678 z m 5.183463,-8.206154 c -0.03976,-0.09855 -0.0723,-0.01792 -0.0723,0.179174 0,0.197091 0.03253,0.277719 0.0723,0.179174 0.03976,-0.09855 0.03976,-0.259802 0,-0.358348 z"
       id="path2055"
       inkscape:connector-curvature="0"
       transform="translate(1.6216933,-2.4325424)" />
    <path
       style="fill:#fad028;fill-opacity:1;stroke-width:0.14333893"
       d="M 47.181281,59.103366 C 46.273849,58.921354 44.295743,58.158291 43.258288,57.590054 41.182786,56.453255 38.757702,54.41591 38.212376,53.350913 37.861638,52.66594 37.245593,50.093781 37.17056,49.001046 c -0.06694,-0.974833 -0.173966,-1.306472 -0.456642,-1.414945 -0.297705,-0.11424 -2.173509,-6.243849 -2.737932,-8.946807 -0.204084,-0.977333 -0.28804,-1.170429 -0.473335,-1.088656 -0.123886,0.05467 -0.894309,0.129265 -1.712052,0.165761 -1.839428,0.08209 -1.901819,-0.12439 -0.209414,-0.693064 0.634393,-0.213167 1.324058,-0.499367 1.532588,-0.636001 0.208939,-0.136902 0.512872,-0.213456 0.677028,-0.170528 0.188666,0.04934 0.543314,-0.0795 0.967285,-0.351393 l 0.669402,-0.429291 -0.549885,0.09964 c -0.519403,0.09412 -0.547213,0.08075 -0.501686,-0.241146 0.06315,-0.446524 0.829831,-0.700937 4.046269,-1.342707 4.879674,-0.973633 10.980848,-1.666295 10.980848,-1.246648 0,0.06409 -0.180911,0.289846 -0.402025,0.501686 -0.332041,0.318115 -0.533134,0.385165 -1.155172,0.385165 -0.480544,0 -0.720096,0.05347 -0.661839,0.147737 0.05077,0.08215 0.29317,0.110206 0.545981,0.0632 0.363493,-0.06758 0.823985,0.0902 2.296247,0.786766 2.689594,1.272526 7.273664,2.771696 7.689424,2.514742 0.08739,-0.05401 0.144381,-1.010818 0.144381,-2.423845 0,-3.269068 0.132243,-4.958754 0.388096,-4.958754 0.111006,0 0.827,0.392895 1.5911,0.873101 5.135993,3.227768 6.42354,5.041734 5.494274,7.74063 -0.355287,1.031872 -1.342634,2.984359 -2.113401,4.179269 -0.616231,0.955336 -0.632121,0.967538 -1.260072,0.967538 -0.373537,0 -0.666675,-0.07394 -0.710376,-0.179174 -0.05106,-0.122953 -0.167248,-0.07299 -0.370294,0.159218 -0.26705,0.305413 -0.295887,0.523528 -0.295887,2.238024 0,3.268659 -0.03782,3.35986 -2.796287,6.743043 -2.634486,3.231122 -3.682713,4.319373 -3.414828,3.545211 0.04774,-0.137964 -0.599311,0.452379 -1.437889,1.311873 -0.838579,0.859494 -1.524688,1.649649 -1.524688,1.755902 0,0.152741 -0.382609,0.189897 -1.827571,0.17748 -1.005165,-0.0086 -2.085582,-0.06746 -2.400927,-0.130707 z"
       id="path2057"
       inkscape:connector-curvature="0"
       transform="translate(1.6216933,-2.4325424)" />
    <path
       style="fill:#fad028;fill-opacity:1;stroke-width:0.14333893"
       d="m 46.867668,59.030552 c -2.913316,-0.784948 -5.803175,-2.498536 -7.821109,-4.637653 -1.008212,-1.068758 -1.122498,-1.351692 -1.830534,-4.53182 -0.07021,-0.315346 -0.130463,-0.869746 -0.133897,-1.231999 -0.0044,-0.465988 -0.08825,-0.732858 -0.286594,-0.91236 -0.447382,-0.404875 -2.299718,-6.386994 -2.869229,-9.266175 l -0.158926,-0.803453 -1.732973,0.07137 c -1.438197,0.05923 -1.721673,0.03747 -1.666544,-0.127914 0.08479,-0.254369 2.935642,-1.420498 3.411228,-1.395348 0.197091,0.01042 0.648609,-0.150145 1.003373,-0.356816 l 0.645025,-0.375766 -0.537521,0.08687 c -0.471547,0.07621 -0.537521,0.05154 -0.537521,-0.20101 0,-0.158335 0.0895,-0.362156 0.198879,-0.452936 0.641166,-0.532121 8.55486,-1.969517 12.597982,-2.288223 2.309589,-0.182057 2.63543,-0.07197 1.874449,0.633283 -0.305479,0.283108 -0.53025,0.351503 -1.155171,0.351503 -0.463246,0 -0.741365,0.05587 -0.690206,0.138644 0.04713,0.07625 0.276322,0.100517 0.509322,0.05392 0.329082,-0.06582 0.879712,0.12429 2.467038,0.851753 3.187398,1.460765 7.335657,2.756743 7.581774,2.368658 0.06552,-0.103315 0.120117,-1.290782 0.121324,-2.638816 0.0029,-3.212668 0.123053,-4.644307 0.389859,-4.644307 0.111242,0 0.827431,0.392895 1.591531,0.873101 4.734569,2.975489 6.130408,4.669797 5.753752,6.984063 -0.141202,0.867573 -1.26139,3.305021 -2.243679,4.882077 l -0.658437,1.057119 -0.895417,-0.07188 c -0.847101,-0.068 -0.904195,-0.05261 -1.058126,0.285238 -0.08949,0.196412 -0.12862,0.464529 -0.08695,0.595816 0.04167,0.131287 0.02156,1.176913 -0.04468,2.323614 -0.143956,2.491928 -0.239272,2.714827 -2.220589,5.192928 -2.407572,3.011231 -3.695773,4.424549 -3.967977,4.353365 -0.174997,-0.04576 -0.628431,0.315073 -1.471,1.170597 -0.669913,0.680214 -1.291915,1.381884 -1.382227,1.559266 -0.15818,0.310681 -0.233687,0.322167 -2.0584,0.313079 -1.141881,-0.0057 -2.189546,-0.08901 -2.637828,-0.209794 z"
       id="path2059"
       inkscape:connector-curvature="0"
       transform="translate(1.6216933,-2.4325424)" />
  </g>
</svg>
