<?xml version="1.0" encoding="UTF-8" standalone="no"?>
<!-- Created with Inkscape (http://www.inkscape.org/) -->

<svg
   xmlns:dc="http://purl.org/dc/elements/1.1/"
   xmlns:cc="http://creativecommons.org/ns#"
   xmlns:rdf="http://www.w3.org/1999/02/22-rdf-syntax-ns#"
   xmlns:svg="http://www.w3.org/2000/svg"
   xmlns="http://www.w3.org/2000/svg"
   xmlns:sodipodi="http://sodipodi.sourceforge.net/DTD/sodipodi-0.dtd"
   xmlns:inkscape="http://www.inkscape.org/namespaces/inkscape"
   version="1.1"
   id="svg1549"
   width="442.66666"
   height="444"
   viewBox="0 0 442.66666 444"
   sodipodi:docname="pic7.svg"
   inkscape:version="0.92.3 (2405546, 2018-03-11)">
  <metadata
     id="metadata1555">
    <rdf:RDF>
      <cc:Work
         rdf:about="">
        <dc:format>image/svg+xml</dc:format>
        <dc:type
           rdf:resource="http://purl.org/dc/dcmitype/StillImage" />
        <dc:title></dc:title>
      </cc:Work>
    </rdf:RDF>
  </metadata>
  <defs
     id="defs1553" />
  <sodipodi:namedview
     pagecolor="#ffffff"
     bordercolor="#666666"
     borderopacity="1"
     objecttolerance="10"
     gridtolerance="10"
     guidetolerance="10"
     inkscape:pageopacity="0"
     inkscape:pageshadow="2"
     inkscape:window-width="1366"
     inkscape:window-height="705"
     id="namedview1551"
     showgrid="false"
     inkscape:zoom="0.53153153"
     inkscape:cx="-16.166"
     inkscape:cy="162.77927"
     inkscape:window-x="-8"
     inkscape:window-y="-8"
     inkscape:window-maximized="1"
     inkscape:current-layer="svg1549" />
  <path
     style="opacity:1;fill:#e6fff0;fill-opacity:0;stroke-width:1.88135588"
     d="m -251.14736,600.01847 c -5.17373,-0.95742 -27.60889,-7.69284 -49.85593,-14.9676 -135.87664,-44.43151 -165.48977,-61.45263 -165.54883,-95.15469 -0.013,-7.41198 8.97913,-42.55091 17.00339,-66.44494 23.12782,-68.86827 87.90743,-149.54897 142.16315,-177.05916 13.43647,-6.81292 17.70942,-8.04714 30.40395,-8.78201 12.26893,-0.71024 16.02584,-0.2083 22.18367,2.96379 10.35709,5.33528 17.78469,13.95126 26.9994,31.31918 25.86264,48.74607 51.30435,75.72514 94.0167,99.69785 21.96607,12.32868 34.549838,23.00558 38.371568,32.557 13.092487,32.72139 -2.129168,96.62221 -32.663138,137.12054 -24.48414,32.47418 -51.76672,51.07304 -84.98328,57.93412 -15.8337,3.27053 -23.89337,3.44318 -38.09065,0.81592 z"
     id="path1057"
     inkscape:connector-curvature="0" />
  <path
     style="opacity:0.40900005;fill:#80ffb3;fill-opacity:1;stroke-width:1.0566504"
     d="M 394.8991,204.47911 C 375.65278,364.84003 193.94965,502.33894 118.4297,410.72833 93.973448,381.06131 93.130739,382.52757 27.411096,212.6852 -3.4571839,132.91085 176.53814,-96.413682 243.06173,69.635905 292.80752,193.80639 408.3768,92.182502 394.8991,204.47911 Z"
     id="path2638"
     inkscape:connector-curvature="0"
     sodipodi:nodetypes="sssss" />
</svg>
