<svg id="Слой_1" data-name="Слой 1" xmlns="http://www.w3.org/2000/svg" viewBox="0 0 688.89 816.83"><defs><style>.cls-1{fill:#fdd6c7;}.cls-2{fill:#eda79d;}.cls-3{fill:#8e6b9b;}.cls-4{fill:#262677;}.cls-5{fill:#191f4f;}</style></defs><title>pregnancy</title><g id="g2615"><path id="path2629" class="cls-1" d="M379.79,841a42.09,42.09,0,0,1-7.7-4c-3.75-2.54-4.29-2.63-10-1.68-23.69,4-63.68-4.67-88.19-19.06-6.32-3.71-12.5-11.19-14.3-17.31s-1.91-17.35-.15-23.13c2-6.69,1.92-6.89-4.65-8.12C144.7,747,125.32,743,113.83,738.2c-8.91-3.69-18.58-11.27-27.11-21.26-10.86-12.71-17.3-27.3-17.35-39.3l0-5.28-7.76,3.06c-10.43,4.11-18.59,4.45-21.84.92A13.82,13.82,0,0,1,37,672.07c-.31-1.13-2.11-2.25-4.84-3-4.54-1.26-8.88-5-8.88-7.58a2.6,2.6,0,0,0-1.69-2.15c-3-1.11-6.28-4.73-6.32-7,0-1.37-1.12-3-2.87-4.3-4.05-3-4.14-5.33-.26-7.2,3.66-1.77,5.77-1.06,13.31,4.5,2.41,1.78,5.44,3.23,6.74,3.23,2.87,0,7.93-1.95,7.93-3.06,0-.44-1.39-2-3.09-3.53A39.55,39.55,0,0,1,26.23,627.2c-1.87-4.39-2.21-6.29-1.77-10,.84-7.1,4-14.42,7.9-18.54,3.51-3.68,3.64-3.72,9.42-3.14,12.59,1.27,26.12,4.69,31.56,8a81.21,81.21,0,0,1,16.29,14c1.17,1.29,2.68,2.34,3.37,2.34,1.82,0,20.35-5.72,32.17-9.93,13.62-4.86,29.29-11.93,36.35-16.41,13.11-8.32,32.71-24.61,46.3-38.46,2.6-2.65,2.48-2.11,7.35-33.22,11.3-72.26,23.22-131.76,28.24-141,2.84-5.21,8.09-10.18,12.32-11.66,3.24-1.13,3.36-1.33,2.9-4.85-1.41-10.74-6.7-187.07-6.7-223.31,0-30.85,2.55-46.84,10.25-64.14C276,45.71,302.92,28.94,343.64,26c19.73-1.4,46.24,4.18,62.46,13.16C425,49.67,435.91,63.1,442.87,84.54c8.78,27.05,12.68,57.35,16.42,127.79,2.14,40.25,3.84,62.21,6.68,86.72,6.1,52.51,15.66,87,31,111.9,6.76,11,15.85,18.95,26.45,23.24,3.25,1.31,5.92,2.7,5.92,3.08,0,1.47-8.18,8.9-13.23,12-8.89,5.49-14.75,7.33-26.65,8.36-13.61,1.19-16.5,2-16.12,4.69.16,1.08,1.48,6.58,2.94,12.22,6.39,24.69,8.37,32.94,14.64,61.05,4.54,20.4,4.54,20.38,16.56,30.92,13,11.38,32.44,23.53,57.31,35.79,11,5.44,17.46,8.2,33.59,14.43l15.42,6,4.31-4.72c6.32-6.93,13-12.54,18.2-15.35,4.91-2.63,23.92-6.71,32.05-6.88,4.58-.09,4.89.08,8.21,4.52,3.68,4.93,7,13.61,7,18.39,0,7.74-4.87,16.77-12.59,23.34l-4.54,3.86,2.58,1.28c4.89,2.41,9.29,1.7,14.5-2.37,5.9-4.6,11.26-5.66,13.59-2.67,2,2.5,1.38,4.36-2,6.62-1.53,1-2.64,2.6-2.64,3.77,0,2.11-3.35,5.75-6.28,6.82a2.88,2.88,0,0,0-1.7,2.54c0,2.63-4,6-8.69,7.37-2.79.82-4.37,2-5.36,4a10.64,10.64,0,0,1-10.12,6.09c-4.2,0-15.77-3.76-27.91-9.07l-7.31-3.2,1.89,4.31c2.49,5.64,3.19,15.52,1.44,20.28-9.22,25.17-92.59,78.17-222.12,141.22-10.91,5.31-20.48,9.62-21.27,9.58a25.57,25.57,0,0,1-5.16-1.42Zm99.45-194.49c18.87-2.71,40.66-5.18,45.81-5.18,6.43,0,5.73-1.54-1.33-2.92-10.74-2.11-37.1-10-42.41-12.78-7-3.63-11.7-10.84-20.68-32-7.35-17.35-11.9-30-19.11-53.18-3.77-12.12-3.78-12.12-5.55-10.07-1.13,1.31-2,4.29-2.5,8.26l-.73,6.21,4.88,8.3a162.11,162.11,0,0,1,13.79,30.45c6.8,19.71,8.77,31.35,8.77,51.81v14.32l2.44-.58C464,648.82,471.44,647.65,479.24,646.53Zm-224.45-3.76c-.12-1.06-.46-7.48-.75-14.25a143.75,143.75,0,0,1,4.49-42.08c2.57-10.4,11-31.38,16-39.46l3.24-5.34-1-9.93c-1-10-1.9-12.76-3.47-10.91-.81,1-5.21,14.8-12.85,40.49-2.1,7.06-6.48,21.37-9.74,31.82-5.4,17.32-6.26,19.35-9.78,23.17-6.07,6.59-18.11,12.81-36.36,18.77l-8.86,2.9,8.86.71c11.63.93,31.76,3.44,41.2,5.14,8.84,1.59,9.38,1.53,9.08-1Zm-195-11.94c1-.92,1.5-3.44,1.72-8.86l.3-7.58L51.3,610.22c-10.17-4-10.57-4.1-11.75-2.23-1.55,2.46-1.56,7.84,0,12.11C42.38,628,55.33,634.86,59.8,630.83Zm601.8-2.44c5.13-4.18,7.73-8.95,7.73-14.2,0-2.35-.51-5.08-1.14-6.08-1.07-1.69-1.8-1.54-11.89,2.47l-10.75,4.26.5,7.87c.28,4.32.94,8.23,1.48,8.67,2.18,1.82,10.28.1,14.07-3ZM328.1,308c-.78-1.41-.87-1.07-.47,1.7.28,1.91.59,8.37.69,14.37l.19,10.91.28-12.61C329,314.42,328.71,309.11,328.1,308Z" transform="translate(-9.28 -25.61)"/><path id="path2627" class="cls-2" d="M377.68,839.55a40.44,40.44,0,0,1-16-13.74c-7-10.26-14.07-29.9-14.07-39.11v-4.27L362,772.1c7.92-5.68,33.27-23.39,56.32-39.36s41.76-29.21,41.56-29.45c-.75-.86-24.67,6.92-40.05,13-29.41,11.68-28.21,11.37-46.53,12l-16.4.56-2.2,7.81a167.23,167.23,0,0,1-16.23,36.69l-5.13,8.26L323,779.77c-5.7-1-15.75-2.81-22.33-3.95s-18-3.19-25.26-4.56C153.73,748.55,122,741.87,111.56,736.71c-19.89-9.81-38-33.27-41.28-53.55-1.58-9.67-1.07-11.15,4.57-13.44,2.58-1.05,9.22-4.39,14.77-7.43,8.25-4.53,11.45-5.72,17.72-6.61,23.49-3.36,55.81-9.62,74.56-14.45,11.93-3.07,12-3.08,25.26-1.93,14.45,1.26,47.07,5.78,48.38,6.72a3.93,3.93,0,0,1,.81,2.67c0,1.15,1.41,7,3.14,13,2.78,9.67,3.78,11.77,8.64,18.22,21.39,28.37,49.5,43.52,80.72,43.51a111.44,111.44,0,0,0,17.83-1.58c4.39-.87,12.76-2.26,18.61-3.09,39.86-5.67,65.36-27.28,72.76-61.63l1.57-7.29,14.68-2.19c21.1-3.14,48.17-6.23,55.89-6.39,3.84-.08,11.9,1,19.06,2.5,18.59,4,60.85,11.93,63.24,11.93,3.46,0,10.39,7.62,13.41,14.71,6,14.09,4.48,21.13-7.35,34.2-23.65,26.14-92.08,68-194.26,118.92-38.57,19.21-39.13,19.4-46.61,16ZM354.36,681a16.43,16.43,0,0,1,.4-6.46c.86-2.61,1.07-2.74,1.84-1.14,1.13,2.34.64,10.23-.67,10.73-.55.21-1.26-1.2-1.57-3.13ZM421.63,543.8c-15.43-2.3-49.18-3.3-95.23-2.82l-48.62.51-.63-9.24-.63-9.23-5.46-6.27c-10.46-12-13.43-21.25-12.7-39.57.63-15.58,4.66-29.41,14.12-48.41,4.53-9.1,6.4-16.07,8.11-30.22,2.42-20.05,2.49-18.93-1.19-18.93-6.63,0-13.56-2.88-17-7.05-2.83-3.46-3.3-4.77-3.76-10.51-1.2-15-5.38-148.72-6.37-203.62-.62-34.78-.08-45.06,3.23-60.49,7.88-36.78,30.07-60,65.32-68.26C357.64,21,398.23,29.43,422,50.6c12.59,11.23,19.26,25,25.69,53,5.4,23.5,7.92,46.49,10.72,98C462.63,279,465.9,311.27,473,345.22c10.84,51.87,29,83.13,52.11,89.87,2.31.67,4.21,1.63,4.21,2.12,0,1.73-10.28,10.29-16.4,13.67-8,4.39-12.38,5.57-25.09,6.7-5.69.51-11.15,1.24-12.13,1.63s-5.56,2.45-10.19,4.57a82.65,82.65,0,0,1-11.52,4.5l-3.1.64-.07,13.6c-.06,12-.35,14.55-2.47,21.69-2.83,9.53-5.68,15.56-10.82,22.95-3.14,4.51-3.85,6.38-4.37,11.54-.7,7-.22,6.79-11.52,5.1ZM369.34,437c10.34-1.74,19.12-4,21.59-5.46,2.3-1.4,6.33-5.36,6.33-6.22,0-.24-2-4-4.5-8.43a140.4,140.4,0,0,1-12.37-29c-1.48-5.11-2.1-10.63-2.67-23.6-.77-17.85-2.92-33.06-6.59-46.7-1.21-4.52-2.2-8.67-2.2-9.24s2.18-2.12,4.84-3.45c5.86-2.94,15.28-12.7,19.85-20.56C402,270,414.89,232,418.56,211.1c2-11.31,2.42-27.36.93-34.93-1.36-6.86-3.77-13.47-4.45-12.19-.37.7-3,0-7.57-2.07a43.17,43.17,0,0,0-13.26-3.67c-6.08-.51-6.49-.39-14.51,4.29-11.18,6.52-13.11,7.1-15.28,4.58s-2.18-3.27.49-6.94c3.66-5,13.5-8.46,28.53-9.94,6.65-.66,7.69-.49,12.25,1.93l5,2.64-4-5.09c-4.56-5.88-10-17.66-16.55-35.88-8.7-24.17-13.41-33.56-21.7-43.21a40.47,40.47,0,0,0-19.19-12.81c-8.77-2.71-9.06-2.55-12.22,6.52-8,23-30.78,63.32-51.26,90.75-1.09,1.45-.64,1.37,2.56-.45,8.51-4.84,32.78-.63,40.67,7.06,3,2.92,3.31,5,1.18,7.7s-3.85,2.38-12.08-2.65c-10.26-6.27-13.67-7.2-20.92-5.74a62.73,62.73,0,0,0-11.46,3.77c-3.08,1.43-5.84,2.32-6.12,2s-.09-1.73.45-3.1-1.92,1-5.45,5.28c-5.32,6.43-7.24,8.05-11.16,9.41-3,1.05-5.37,2.66-6.49,4.4-1.63,2.53-1.69,3.26-.72,9.23,2,12.1,4.48,19.24,8.39,23.94,3.38,4.07,8.09,6.65,12.17,6.66,1,0,2.16,3,4.24,11.36,5.14,20.68,13.58,40,23.42,53.67,4.37,6.07,13.49,14.21,18.72,16.72l3.87,1.85.53,8.24c.94,14.61.85,40.95-.15,43.76-1.35,3.8-7.66,9.73-12.49,11.74l-4.11,1.71,1,20.68c1.07,21.94,1.42,24.67,4,30.56,5.77,13.37,26.09,18.72,53.52,14.1Zm-28.8-154.72c-4.4-1.68-9.94-5.45-9.19-6.25,1.09-1.15,11.53-5.17,13.45-5.17a3.9,3.9,0,0,1,2.61,1.19c.78.9,1.36.86,2.41-.14s2.71-1,8.91.58c4.14,1.05,7.39,2.39,7.23,3s-2.64,2.4-5.5,4c-5.49,3.17-15.32,4.54-19.92,2.79Zm-41.18-35.64c-10.5-4.45-15.1-19.48-9.76-31.88,1.22-2.85,3.12-5.68,4.2-6.29,1.81-1,1.7-1.11-1.29-1.18-3.93-.08-5.57-2.12-1.71-2.12,1.47,0,2.85-.35,3.08-.77s-1.61-.77-4.08-.77c-5.47,0-7.17-2.49-1.84-2.7l3.39-.14-4-.66a17.52,17.52,0,0,1-5.09-1.46c-1.91-1.39-1.21-2.4,1.36-2a5.47,5.47,0,0,0,4.59-1.57l2.12-2,3.79,3.35c7.23,6.39,16.25,7.85,23.34,3.79,2.16-1.23,4.07-2.07,4.25-1.86.58.67-2.39,6.6-3.75,7.48-1,.67-.8,1.22,1.18,2.76,3.89,3,6.74,10.24,6.7,17-.09,15.94-13.46,26.55-26.49,21ZM382,246c-5.15-1.59-10.76-8-12.5-14.22-1.84-6.57-1.84-7.88-.07-14,1.48-5.15,6.83-12.55,9.18-12.69.75-.05.29-.64-1-1.32a20.39,20.39,0,0,1-4.65-3.68c-2.64-2.88-3.09-5.81-.71-4.64,8.16,4,12,4.43,18.06,2,5-2.05,10.74-6.43,10.05-7.72-.86-1.6,1.48-.64,3.28,1.35a7.36,7.36,0,0,0,4.95,1.83c3.11,0,3.21.12,1.6,1.54a9.39,9.39,0,0,1-5.24,1.5c-4,0-3.8.91.49,2,2.89.76,2.9.78.78,1.77a10.44,10.44,0,0,1-5.51.28c-1.86-.39-3.16-.31-2.9.17s1.64.89,3.08.89,2.6.45,2.6,1c0,1.42-3.91,2.39-6.36,1.57-1.68-.55-1.57-.31.6,1.32,6.38,4.81,9.31,11,9.31,19.71,0,6.69-1.47,11.15-5.14,15.62-5,6.05-12.14,8.12-19.87,5.74Zm-39.19-10c-2.24-2.88-3.11-8.48-3.12-20.09,0-10.39,2.25-48.67,2.91-49.43.34-.39,4.94,17.82,8.6,34,3.89,17.2,5.62,34.39,3.47,34.39-.52,0-.72.41-.46.91.61,1.13-2.48,2.13-6.67,2.15A5.83,5.83,0,0,1,342.81,236Z" transform="translate(-9.28 -25.61)"/><path id="path2625" class="cls-3" d="M378.6,839.82c-6.41-2.9-10.05-5.87-14.87-12.14-7.21-9.38-13.81-26.12-15.54-39.42l-.6-4.65,7-5.16c3.82-2.84,27.69-19.53,53-37.1l50.52-35c4-2.75,4.17-3.08,2.05-3.08-4.3,0-23,6.11-45.49,14.9-23.61,9.21-28.55,10.28-50.77,11l-7.37.25L354.3,737a157,157,0,0,1-14.5,33.66,106.23,106.23,0,0,1-6.17,10c-.41.29-9.86-1.1-21-3.09l-31.78-5.69c-89-15.92-156.42-29.81-167-34.41-22.15-9.65-41.85-35.62-43.24-57L70.14,673l7.42-3.47c4.08-1.91,10.61-5.29,14.51-7.52,6.49-3.71,8.45-4.26,23-6.55,23.06-3.6,46.67-8.26,62.93-12.42,10-2.56,16.12-3.59,20.82-3.49,8,.16,30,2.61,45.15,5l11,1.76,2.53,10.26c3.6,14.54,5.27,18,13.74,28.3q24.1,29.34,56.95,37.49c11,2.73,31.11,2.52,43.13-.45a77.16,77.16,0,0,1,12.53-2.22,70,70,0,0,0,10.87-1.61c34.39-7.56,57.22-29,63.54-59.75,1.2-5.84,1.93-7.57,3.31-7.92,3-.76,29.51-4.46,43.43-6.07,27.47-3.18,27.87-3.17,43.87.27,18.5,4,56.81,11.3,61.94,11.82,8.66.88,17.82,15.22,17.82,27.9,0,5.57-.38,7-3,11.39-6.37,10.76-25.34,26.94-53.32,45.48-23.72,15.71-81,48.28-118.75,67.5-39.69,20.22-66.63,33.14-69,33.08a22.44,22.44,0,0,1-6.09-1.93Zm38.09-297.63C400,540.07,359,539,321.63,539.63c-21.58.39-40.18.9-41.34,1.14-2.34.5-2.58-.32-3.72-12.9-.59-6.51-.72-6.79-5.77-12.12-12.17-12.83-15.92-32.72-10.48-55.66,1.83-7.7,9.9-28.4,13.13-33.65,3.61-5.87,7.11-22.51,8.59-40.83l.59-7.31-7.07-.47c-12.33-.83-16.49-5.49-17.4-19.53-1.14-17.45-4.92-139.19-6.33-204-.56-25.74.23-41.5,2.69-53.78,6.72-33.51,24.2-55.93,52.23-67,13-5.14,24.36-7,43-7,14.44,0,18.89.35,27.05,2.27,30.1,7.07,50.76,21.85,60.56,43.31C441,80,444.89,93.22,448,108.26c4.71,22.48,7.09,44.82,9.38,88.1,4.26,80.34,7.78,115.22,15.08,149.55,7.66,36,17.48,59.21,31.66,74.78,6.67,7.33,15.68,13.4,21.54,14.5,1.7.32,3.1.94,3.1,1.39,0,1.2-10.48,10.08-15,12.76-7.34,4.29-12.77,5.84-25.27,7.19-9.21,1-14,2.05-18.62,4.08-13.11,5.79-15.53,6.71-17.53,6.71s-2.07.1-2.05,12.06c0,18.2-4.06,32.63-13.15,46.4-3.69,5.58-4.43,7.47-4.76,12.05l-.39,5.44-4.54-.15c-2.5-.08-7.34-.5-10.75-.93Zm-38-106.61c12.12-2.61,14.14-3.46,17.7-7.44l2.8-3.12-4.85-8.63C383.28,396.74,379,381.27,379,360.94c0-13.5-4.18-39.15-8.43-51.86-.44-1.3.34-2.19,3.26-3.7,10.46-5.44,19.83-16.84,26.55-32.33,7.83-18,16.52-45.42,19.92-62.84,2.45-12.49,2.26-29.74-.42-39.22-1.15-4.07-2.65-8.23-3.33-9.23-1.14-1.71-1.19-1.71-.69,0,.74,2.46-.65,2.29-7.5-.88a38.33,38.33,0,0,0-12.61-3.22c-6.82-.54-6.85-.53-16,4.73-10,5.76-13.43,6.48-15,3.15-3.26-7.06,12.31-14.71,31.6-15.51,6.33-.27,7.63,0,11.92,2.58l4.81,2.88-3.23-3.92c-6.2-7.52-9.87-15.36-18.57-39.6-7.65-21.35-14.17-34.42-21-42.05a46.12,46.12,0,0,0-26-14.46l-3.15-.5-3.7,9.91c-9.46,25.27-28.33,59-47.07,84.06-3.48,4.66-6.22,8.47-6.09,8.46s2.2-1.15,4.6-2.56c5.24-3.09,12.22-3.38,24-1,13.17,2.66,21.47,8.64,19.1,13.76-1.55,3.37-5.27,2.61-15.26-3.1-8.93-5.1-9.29-5.21-15.4-4.71a42.19,42.19,0,0,0-13,3.55c-3.72,1.68-7,2.82-7.21,2.53s.15-1.95.89-3.72c.91-2.16-1-.28-6,5.81-4.05,5-8.05,9-8.9,9-2.92-.06-8.41,3.16-9.54,5.6-1.36,2.95-.71,10,1.77,19.27,3.24,12.14,8.82,19,16.21,20l3.83.5,1.58,7.33c2.27,10.49,8.91,29.57,13.61,39.15,8.06,16.39,17.77,28.29,28,34.31l5.61,3.3.58,10.86c1,19,.7,36.94-.69,40.79-1.45,4-6.81,8.87-12.64,11.45l-4,1.78.62,12.9c1.2,24.93,2,32.43,3.83,36.6,4,9,10.4,13.92,21.89,16.87,5.95,1.53,30,.36,40.93-2ZM346.18,182a.9.9,0,1,0-.89,1A1,1,0,0,0,346.18,182Zm-44.31,24.67a17.74,17.74,0,0,0-6.31-.28c-2.51.3-4.32.05-4.7-.66s.14-1.16,1.43-1.17a6.47,6.47,0,0,0,3.38-1.06c.94-.76.15-.87-2.81-.4-2.41.39-4.8.2-5.76-.44-1.52-1-1.5-1.1.29-1.13,2.39,0,4.73-1,4.73-2,0-.41-1.1-.56-2.44-.33a10.16,10.16,0,0,1-5.09-.86L281.93,197l3.69-.65a12,12,0,0,0,4.92-1.85c1-.93,2.12-.45,5.39,2.23,7.32,6,15.94,7.28,22.81,3.32,5.23-3,4.54.95-.91,5.25-2.3,1.81-4.09,2.29-8.34,2.21a33.56,33.56,0,0,1-7.62-.89Zm75.62-4.56c-2.69-1.4-6.31-6.29-5.43-7.32.23-.26,1.75.29,3.38,1.23,7,4.06,16.77,2.63,23.69-3.49,3.62-3.2,4.07-3.35,5.48-1.88a6.81,6.81,0,0,0,4.34,1.61c3,0,3.78,1.41,1.41,2.46a16.64,16.64,0,0,1-4.93.62c-2.12,0-3.3.41-3,1s1.74,1,3.2,1c1.73,0,2.45.4,2,1.14s-2.27,1-4.9.67c-2.35-.27-4.07-.09-3.82.39a2.45,2.45,0,0,0,2,.89,5.49,5.49,0,0,1,2.83,1.06c1,.75-.12,1-4,1-2.93,0-8.51.21-12.41.5-5.08.37-7.89.1-9.9-1Z" transform="translate(-9.28 -25.61)"/><path id="path2621" class="cls-4" d="M438.68,466.42c-11.44-4.72-28.75-22.59-41.21-42.52-6.59-10.55-15.58-31-17.4-39.66-.71-3.39-1.52-12.39-1.81-20a205.17,205.17,0,0,0-6.16-44.75l-2.82-11.39,5.6-3.37c11.75-7.05,19.56-18,27.76-39,18.58-47.55,23-80.33,13.67-101.62-2.37-5.42-3.63-6.87-2.21-2.56.46,1.41.55,2.56.2,2.55s-4-1.38-8.18-3.06c-5.39-2.19-9.2-3.06-13.39-3.07-5.26,0-6.76.51-14.9,5.18-9.25,5.3-12,5.88-13.67,2.84-3.59-6.64,10.08-13.72,28.67-14.85,9-.55,9.48-.47,14.31,2.4l5,3-3.69-4.89c-5.76-7.62-9-14.49-17.89-38.27C386,101.17,380.25,87.6,377.79,83.16c-9-16.29-21.5-26.11-34.39-27.07l-3.78-.28-3.5,9.39C324.27,97,301.79,134.6,274.06,168.91c-4.86,6-6.73,7.62-10.05,8.59a16.65,16.65,0,0,0-6.43,3.72c-2.22,2.38-2.33,2.93-1.83,9.11.66,8.19,4.11,19.89,7.29,24.72,2.62,4,8.28,7.48,12.17,7.52,1.35,0,2.6.6,2.76,1.3,2.23,9.51,8.47,29.86,11.22,36.6,7.95,19.5,20.28,36.15,32,43.17l5.88,3.52.64,23.83c.64,23.59.62,23.88-1.38,28-2.6,5.37-6.4,8.22-17.23,12.91-21.38,9.28-42.37,8.83-47.94-1-2.14-3.78-2.76-13.76-4.73-75.93-1-31.05-2-63.38-2.28-71.85-1.63-51.16-2.13-91.79-1.28-103.23,4.18-55.77,31.5-86.22,82.82-92.34,30.2-3.6,63.71,4.85,83.23,21,6.85,5.65,14.54,15.18,18.08,22.36s9.26,26.64,12,41c4.69,24.29,6.57,43.79,9.41,97.35C462.2,280.6,466.23,317.5,474,351.79c10.53,46.63,27.67,75.42,49.57,83.28a34.38,34.38,0,0,1,4.27,1.76c1.16.77-2.74,5-8.8,9.58-8.52,6.43-16.61,9.26-29.59,10.37-11.1,1-12.8,1.45-30.58,9.13-5.27,2.28-15.29,2.53-20.17.51ZM302.43,207.11a23,23,0,0,0-7.75-.29c-3.15.41-4.66.24-4.66-.53s1-1.15,2.17-1.15A3.42,3.42,0,0,0,295,204c.43-.81-.65-.95-3.72-.49-2.43.36-4.9.19-5.65-.39-1-.79-.7-1,1.44-1a5.36,5.36,0,0,0,3.88-1.56c1-1.33.5-1.54-3.38-1.54-2.47,0-4.74-.46-5-1s.53-1,2-1a7.55,7.55,0,0,0,4.23-1.43c1.48-1.25,2-1.14,4.41,1,7.49,6.61,16.89,8.4,24.15,4.58,4.36-2.28,5.15-.85,1.64,3s-10,5-16.48,3.09Zm75-4c-3.08-1.14-5.56-3.63-6.13-6.14-.4-1.79-.23-1.78,3.51.14,7.47,3.82,16.77,2.06,24.42-4.65,2.46-2.16,3.06-2.32,4-1.09s3.28,1.89,6.39,1.54c.95-.11.82.32-.45,1.48a6.52,6.52,0,0,1-5.1,1.29c-4.18-.44-3.93,1.52.3,2.35,2.42.47,2.71.76,1.45,1.41a10.35,10.35,0,0,1-5.1.16c-4.23-.78-4.65.69-.63,2.23,2.69,1,2.53,1.09-2.44,1.06-2.92,0-8.11.24-11.52.56s-7.34.18-8.74-.34Zm-61.27-38c-7.37-4.37-9.39-5.13-13.63-5.12a40.6,40.6,0,0,0-18,4.87c-4.59,2.35-5.57,2.08-4.14-1.16a18.08,18.08,0,0,1,9.9-9.47c7.73-3,26.47-.14,35.11,5.3,4.91,3.1,6.28,5.28,5.27,8.42-1.15,3.61-4.89,2.88-14.52-2.84Z" transform="translate(-9.28 -25.61)"/><path id="path2619" class="cls-5" d="M429.65,456.75c-.64-.89-.73-1.54-.21-1.54s1.13.69,1.41,1.54.38,1.54.21,1.54A5.1,5.1,0,0,1,429.65,456.75Zm-5-4.36c.35-.71.19-1.29-.35-1.29s-.74-.46-.44-1a1.84,1.84,0,0,1,1.3-1c.93,0,.65,2.72-.39,3.82-.41.44-.47.22-.12-.48ZM431,451.2c-.27-.5.17-1.2,1-1.55,1.91-.85,2.19-.39.72,1.19C432.05,451.54,431.3,451.7,431,451.2Zm-14.25-6.27c-2.58-3.12-3.61-6.14-2.1-6.14.46,0,.12-1.25-.74-2.78-1.76-3.1-1.76-3.32-.13-4.49.64-.46.87-1.17.51-1.58-1.09-1.27-3.26,3-2.25,4.44a2.55,2.55,0,0,1,.23,2.47c-.44.83-.27,1,.51.4s.95-.43.49.43-1.24.65-2.79-1l-2.12-2.3L410.6,431c2.59-3.94,2.74-4.69.73-3.8-1,.44-1.26.26-.83-.55a2.66,2.66,0,0,1,2.14-1.21c1.29,0,1.31-.15.17-1-1.75-1.31-3.8-1.31-3.1,0,.3.56.12,1-.4,1s-.59.66.11,2c.84,1.56.82,2.32-.13,3.64-1.08,1.51-1.53,1.3-4.58-2.16-1.87-2.1-3.22-4-3-4.28s-.49-1.27-1.57-2.28-1.73-2.11-1.45-2.43c.74-.86,4.5,3.45,3.93,4.51a1.12,1.12,0,0,0,.25,1.41c.4.28,1.23-.42,1.85-1.58s.73-1.8.24-1.45-2-.52-3.28-1.93-2.71-2.33-3.09-2.06c-1,.7-7.43-11.82-7.28-14.12.07-1-.21-1.62-.61-1.33-1,.74-3.82-6.41-3.06-7.84.42-.78.23-.89-.55-.33s-1,.36-.59-.92c.32-1,.25-1.53-.16-1.23s-1.64-2.8-2.73-6.88c-1.49-5.57-2.16-11.6-2.73-24.34a250.68,250.68,0,0,0-2.63-27.46c-1-5.78-1.6-11.05-1.25-11.7s.25-.91-.25-.55-1.56-2.11-2.46-5.74-1.79-7.27-2.05-8.35c-.39-1.59-.16-1.83,1.18-1.23.92.41,1.38.41,1,0-.88-1,6.4-5.69,7.56-4.85.6.42.67.17.21-.69s-.32-1.18.73-.72A1.58,1.58,0,0,0,385,300c.4-.75.18-.85-.64-.3s1.35-2.2,4.51-5.91,6.11-6.48,6.56-6.16.54.06.2-.57c-.64-1.2,3.81-9.86,4.6-8.95.25.29-.15,1.34-.88,2.33-2.17,2.93-2.49,4-1.17,4,.68,0,1.21-.27,1.18-.6-.17-1.86.28-2.47.94-1.26.53,1,.95,1.05,1.37.26.34-.63.19-1.14-.33-1.14a1,1,0,0,1-.94-1c0-.55.63-.71,1.4-.37a2.11,2.11,0,0,1,1,2.53c-.24,1.05-.17,1.73.15,1.5s.44,1.62.27,4.1.08,4.52.57,4.52,1.17,7,1.6,16.68l.72,16.68.83-8.16c.61-6,.56-8.27-.18-8.56s-1-3.83-.92-10.82c.1-12.18,1.45-9.94,1.59,2.65.05,4.38.42,8,.82,8,.87,0,2.83,18.66,2.82,26.94,0,3.24-.4,5.9-.89,5.9s-.89,3.42-.89,8.21.37,8.21.89,8.21.89-1.85.89-4.1.36-4.11.82-4.11.62,6.16.34,15.14c-.35,11.12-.09,18,.95,26a172.07,172.07,0,0,1,1.43,17.7c0,3.85.39,6.8.89,6.8s.89-2.66.89-5.9c0-8.28-1.95-26.95-2.82-26.95-.4,0-.73-1.84-.73-4.1s.4-4.11.88-4.11.89,1.85.89,4.11.33,4.1.73,4.1c.87,0,2.83,18.67,2.82,26.95,0,3.7-.38,5.9-1,5.9s-.82,1.27-.49,3.66a14.64,14.64,0,0,1-.45,6.13c-.75,1.9-.69,2.86.26,4.2s1,1.83.14,2.17-.82.9.15,2.52a5,5,0,0,1,.5,4.43c-.42,1.28-.52,2.61-.23,2.95,1.05,1.22,2.78.59,3.22-1.17.36-1.44.42-1.39.33.25a10.76,10.76,0,0,0,1,4.36c.69,1.46.76,2.31.18,2.31a1,1,0,0,1-.92-1c0-.54-.89-1.49-2-2.11-1.91-1.07-1.92-1.05-.29.47.94.87,1.51,1.82,1.27,2.1s-1.59-.87-3-2.56Zm.46-1.4a6.18,6.18,0,0,0-1.55-1.79c-1.41-1.28-1.44-1.25-.34.38S417.24,444.38,417.24,443.53Zm-5.32-7.18a6.17,6.17,0,0,0-1.55-1.8c-1.4-1.28-1.44-1.24-.33.39S411.92,437.19,411.92,436.35Zm-3.54-6.8a1,1,0,0,0-.94-1c-.52,0-.69.47-.39,1s.72,1,.94,1S408.38,430.11,408.38,429.55Zm-1.95-3.62c-.27-.32-.76.25-1.1,1.27-.48,1.46-.38,1.58.5.57C406.43,427.07,406.71,426.25,406.43,425.93Zm-.88-7.18c-.28-.32-.77.25-1.1,1.26-.48,1.46-.38,1.58.49.58C405.55,419.89,405.82,419.06,405.55,418.75Zm-7.35-5.53c.12-1.91-1.57-2.29-2.87-.64-.38.48-.12.5.57,0,.92-.62,1.11-.41.72.76-.54,1.64.16,3.27,1,2.3a5.62,5.62,0,0,0,.59-2.45ZM394.64,408c.3-.57.13-1-.39-1a1,1,0,0,0-.94,1c0,.56.18,1,.39,1S394.34,408.56,394.64,408Zm14.62-73.9c0-4.79-.37-8.21-.88-8.21s-.89,3.42-.89,8.21.37,8.21.89,8.21.88-3.42.88-8.21ZM380.5,307.34a1.45,1.45,0,0,1,1.87-.52c.74.33,1.05.13.72-.49a1.89,1.89,0,0,0-2.26-.43c-.95.35-1.7.14-1.7-.47a1.08,1.08,0,0,1,1-1.1c.56,0,.82-.24.57-.53s-1.08-.27-1.84.07q-1.66.74-.72,4.31c.18.71,1.81.12,2.32-.84Zm3.51-3a2,2,0,0,0-1.61-1c-.63,0-.52.42.28,1C384.38,305.61,384.69,305.61,384,304.33Zm8.25-4c.15-.06,0-.6-.3-1.19s-1-.69-1.83.13-1.56.9-2.43.06-1.18-.79-1.18.24,3.74,1.61,5.74.76Zm-1.61-3.7c0-.17-.53-.53-1.18-.82s-1.18.08-1.18.82a.79.79,0,0,0,1.18.81C390.12,297.17,390.65,296.8,390.65,296.64Zm3.23-5.14c-.57-1.72-.43-1.8,1.57-.91.77.34,1.23.93,1,1.32s.79.81,2.22.94,2.6-.24,2.6-.82-1-1-2.22-1-2.21-.49-2.21-1.09.39-.8.88-.45.89.15.89-.45c0-1.45-1.17-1.38-2.48.14-.83,1-1.07.93-1.07-.12s-.27-1.1-1.27-.13-1,4.15.13,4.15c.25,0,.22-.69-.06-1.54Zm5.39-5.23a1.55,1.55,0,0,0-1.69-.09c-.71.33-.5.57.53.62s1.46-.19,1.16-.53ZM418.64,433c-.74-2.24.25-3.28,1.29-1.37s1.07,3.05.06,3.05c-.43,0-1-.76-1.35-1.68Zm-.51-6a2.83,2.83,0,0,1,.8-2.05c.44-.32.59.35.34,1.48C418.73,428.87,418.13,429.17,418.13,427Zm88.51-5.44c-1.11-1.63-1.07-1.67.33-.39a6.18,6.18,0,0,1,1.55,1.79C508.52,423.85,507.79,423.31,506.64,421.6ZM272.52,375.74a15.72,15.72,0,0,1-10.3-10.25c-.85-3.11-1.85-25.36-3.6-79.63-.48-15-1.35-42-1.93-60s-1.08-51.55-1.12-74.41c-.07-39.39,0-42.07,1.87-51,6.08-29.49,18.57-48.85,39.27-60.86,22.78-13.22,55.68-17.53,82.42-10.8,3.17.8,4.52,1.33,3,1.18-2.39-.23-2.69,0-2.28,1.85a7,7,0,0,0,1.85,3.3,2.67,2.67,0,0,0,4.23-2.82c-.48-2.13.57-2.4,3.38-.85,1.65.91,1.64.95-.22.54-1.1-.24-2,0-2,.49a1.12,1.12,0,0,0,1.11,1c.6,0,.18.49-1,1s-1.8,1.41-1.5,2-.07.75-1,.35c-1.2-.54-1.39-.29-.91,1.17a14.82,14.82,0,0,1-.05,5.57l-.67,3.71-.55-4.62c-.44-3.75-.57-3-.68,3.85s.11,8.47,1.2,8.47,1.33-1.16,1.33-4.28c0-2.35.25-4,.55-3.64.92,1.07-1.64,24.33-2.69,24.46-.53.07-1.86.13-3,.14-1.55,0-1.78.32-1,1.37a2.73,2.73,0,0,1,.32,2.59c-.43.8-.28,1,.42.45a2,2,0,0,0,.64-2.14c-.66-2,2.95-1.45,3.88.57a3.2,3.2,0,0,1,.15,2.6c-.78,1.25-2.82,1.73-2.82.66A5.34,5.34,0,0,1,382,75.43c.61-.8.22-.6-.86.45-2.12,2-1.84,4.21.41,3.21,1.07-.47,1.15-.3.37.79s-.7,1.39.28,1.39c.7,0,1.07-.38.82-.85s0-.86.48-.86c1.19,0,1.22,1.73.05,2.57a2.38,2.38,0,0,0-.88,1.72c0,.65.62.52,1.55-.32,1.38-1.25,1.42-1.22.43.26-1.2,1.77-.57,5.38.77,4.43,1.08-.78,1-8.66-.09-8.66-.48,0-.82-1-.75-2.31a16.94,16.94,0,0,0-.12-3.34,47.57,47.57,0,0,1-.13-5.9c.18-8.37,1.64-5.33,2.22,4.62.31,5.22.65,11.06.77,13,.17,2.59-.16,3.55-1.27,3.75s-2.57-1.92-4.87-6.5c-4.76-9.49-13.73-19.75-20.74-23.71-3.13-1.76-5.56-3.48-5.39-3.8a1.3,1.3,0,0,0-.37-1.28c-.36-.37-.33,0,.07.76.56,1.14.26,1.3-1.41.78a56.75,56.75,0,0,0-6.77-1.33c-3-.43-4.43-1.05-4.06-1.8s.22-.79-.2-.35a4.4,4.4,0,0,0-.94,2.06c-.45,3-6.3,17.63-11.66,29.1-6.83,14.63-22.36,41.94-23.85,41.94a2.58,2.58,0,0,0-1.77.94c-.43.54-.28.62.37.19,2.14-1.43,1,.72-4.86,9.5-14.14,21-28.66,38.79-32.53,39.75-4.08,1-7.41,3.26-9,6.07-1.31,2.31-1.3,3.2.06,11,3,17.06,7.82,25.23,16.84,28.33l5.1,1.76,2.16,8.67c8.91,35.74,24.29,61.81,42.57,72.17,2.6,1.46,3.87,2.91,4.19,4.75.25,1.45.56,12.58.7,24.75.28,24.89.24,25.05-6.47,30.68C316,369.9,293.1,377.29,282,377.14a40.1,40.1,0,0,1-9.43-1.4ZM375.2,70.07c-.59-3.28-1.61-4.71-2.93-4.13-.86.38-1.18.21-.83-.46a2.14,2.14,0,0,0-.67-2.28c-2.36-2.28-1,1.8,1.71,5.06C375.36,71.75,375.52,71.85,375.2,70.07Zm3.05-6c0-.46-.8-.76-1.78-.68-1.73.15-2.35,1.78-1.19,3.13.66.76,3-1.15,3-2.45Zm-12-5.07c.3-.56.15-1-.34-1a1.91,1.91,0,0,0-1.43,1c-.3.57-.15,1,.34,1A1.92,1.92,0,0,0,366.28,59Zm-5.76-1.41a6.3,6.3,0,0,0-1.55-1.8c-1.41-1.27-1.44-1.24-.34.39S360.52,58.46,360.52,57.62Zm3.31-.23a1.57,1.57,0,0,0-1.7-.08c-.71.32-.5.57.53.62s1.46-.2,1.17-.54Zm10.94-28.23c-1.18-.54-2.45-.62-2.83-.18s.58.88,2.14,1C376.74,30.13,376.78,30.08,374.77,29.16Zm-12.48-.29c0-.21-.8-.63-1.77-.93s-1.55-.11-1.28.4C359.72,29.23,362.29,29.68,362.29,28.87Zm6-.44c.66-.48-.24-.84-2.21-.89-2.52-.06-2.89.12-1.54.75C366.82,29.38,367,29.38,368.26,28.43Zm49.22,334.41c0-2.54.17-3.58.39-2.31a17,17,0,0,1,0,4.62C417.65,366.42,417.48,365.38,417.48,362.84Zm52.12-41.66c0-1.19.25-1.44.53-.62a2.32,2.32,0,0,1-.07,2C469.77,322.87,469.56,322.26,469.6,321.18ZM467,302.28c0-1.41.2-2,.45-1.28a4.64,4.64,0,0,1,0,2.56c-.25.71-.45.13-.45-1.28Zm-1.84-16c0-1.2.25-1.44.53-.62a2.3,2.3,0,0,1-.07,2C465.34,288,465.13,287.37,465.17,286.29Zm-62.12-5.58c-1.21-1.7-2.17-3.55-2.12-4.1.23-2.64.48-2.92,2.19-2.54,1.16.26,1.69-.05,1.44-.83a1.29,1.29,0,0,0-1.43-1c-.78.21-.78-.29,0-2,1.42-3.15,1.4-3.14,2-1.29.31.95.17,1.38-.34,1s-.87-.16-.87.4a2.42,2.42,0,0,0,.94,1.71,1.93,1.93,0,0,1,.48,2.08,1.9,1.9,0,0,0,.39,2,3.84,3.84,0,0,1,.84,2.66c0,1.12-.38,1.78-.84,1.44a2.38,2.38,0,0,1-.32-2.37c.39-1.25.26-1.46-.45-.72-1.13,1.2-.36,5.9.83,5,.43-.3.78-.07.78.53,0,1.9-1.28,1.18-3.55-2Zm1.11-4.45c.56.4.69.19.3-.52-.75-1.42-2.32-.57-2.22,1.2.05.87.2.85.52-.07.25-.71.88-1,1.4-.61Zm60.12.79c0-1.2.25-1.44.54-.62a2.4,2.4,0,0,1-.07,2C464.45,278.74,464.24,278.13,464.28,277.05Zm-.75-9.67c0-2,.18-2.78.41-1.79a9.85,9.85,0,0,1,0,3.59C463.71,270.17,463.53,269.36,463.53,267.38Zm-54.2-1.62c.05-1.2.26-1.44.54-.62a2.4,2.4,0,0,1-.07,2C409.5,267.45,409.29,266.84,409.33,265.76Zm-4.46.39c-.07-1.47,2.05-5.95,2.82-5.95.43,0,.55-.45.26-1s.1-2.29.89-3.85,1.15-1.92.81-.8c-1,3.47-1,6.12,0,7,.69.6.65,1-.13,1.37a2.32,2.32,0,0,0-1.11,2c0,.8-.42,1.46-.92,1.46s-.59-.72.07-2.14c.55-1.18.79-2.38.55-2.66s-1.06.8-1.81,2.4-1.38,2.59-1.4,2.19Zm57.79-9.54c0-2.26.19-3.06.4-1.79a12.82,12.82,0,0,1,0,4.11C462.82,259.91,462.65,258.87,462.66,256.61Zm-51.9-5.28a1.89,1.89,0,0,0,.54-2.23c-.41-1.35-.28-1.47.59-.54,1.24,1.33.52,3.47-1.13,3.35-.81-.06-.81-.2,0-.58Zm3.08-10.68,1-3.2,1.48,2.6c1.34,2.38,1.56,2.45,2.56.85.89-1.42.91-1.28.08.74l-1,2.47-1.65-2.47c-1.29-2-1.64-2.12-1.66-.75a3.31,3.31,0,0,1-.87,2.35c-.49.35-.45-.73.11-2.59Zm47-12.27c0-2,.18-2.78.41-1.79a9.85,9.85,0,0,1,0,3.59C461.05,231.17,460.87,230.36,460.87,228.38ZM460,212c0-2.54.17-3.58.38-2.31a16.25,16.25,0,0,1,0,4.62C460.19,215.54,460,214.5,460,212Zm-38.28-1.62c0-1.2.25-1.44.54-.62a2.37,2.37,0,0,1-.07,2C421.91,212,421.7,211.42,421.74,210.34Zm1-5.05c0-1.69.22-2.26.44-1.26a6.7,6.7,0,0,1,0,3.07c-.24.7-.43-.12-.41-1.81Zm-127.57-1c3.64-2.39,3-3.1-2.66-2.9-3.86.13-4.36,0-2.06-.51,4.94-1.13,4.49-3.26-.69-3.26-2.45,0-4.66-.38-4.91-.85s.72-.86,2.15-.86a6.69,6.69,0,0,0,4.25-1.72c1.54-1.61,1.74-1.59,3.23.32a26.75,26.75,0,0,0,6.08,4.63c5.72,3.3,14.47,3.59,19.46.64,3.56-2.1,3.76-2,2.38,1-1.87,4-5.88,5.36-14.09,4.68-4.18-.35-8-.7-8.49-.79a17.19,17.19,0,0,0-4,.55l-3.1.7Zm88-2a31.12,31.12,0,0,0-3.35-1c-2.5-.64-6-3.91-6-5.63,0-.53,2.19-.06,4.86,1a26.56,26.56,0,0,0,6.93,2c3.77,0,10.91-3,14.72-6.21,3-2.52,4-2.91,5-1.93a11.81,11.81,0,0,0,4.14,2c2.57.7,2.39.8-1.78.89-2.56.06-4.65.58-4.65,1.17,0,1.36,3.59,2.91,5.32,2.3,1.18-.43,1.18-.36,0,.63-.79.66-3,.85-5.54.48-4.89-.74-5.43.15-1.33,2.19,2.86,1.42,2.84,1.43-2.44,1.24a66.6,66.6,0,0,0-10.19.53c-2.68.4-5.27.56-5.76.34Zm40.53-5.69c0-2,.18-2.79.4-1.8a9.43,9.43,0,0,1,0,3.59C423.83,199.35,423.65,198.54,423.65,196.57ZM459,192.89c.05-1.2.26-1.44.54-.62a2.37,2.37,0,0,1-.07,2C459.13,194.58,458.92,194,459,192.89ZM423.58,182.2c0-1.42.2-2,.45-1.29a4.5,4.5,0,0,1,0,2.57c-.25.7-.45.13-.45-1.28Zm34.63-3.08c0-2,.18-2.79.41-1.8a9.85,9.85,0,0,1,0,3.59C458.39,181.9,458.21,181.09,458.21,179.12Zm-35.58-4.71c0-1.19.25-1.44.53-.62a2.32,2.32,0,0,1-.07,2C422.8,176.1,422.59,175.49,422.63,174.41ZM318.87,163.72c-7.7-4.59-9-5-14.63-5.05a29.65,29.65,0,0,0-12.4,2.55c-10.23,4.25-9.6,4.15-8.86,1.37,1-3.81,3.74-6.7,8.72-9.2,4.37-2.19,5-2.24,14.46-1.1,18.95,2.26,30.95,9.39,25.82,15.33-1.8,2.09-4.37,1.32-13.11-3.9Zm48,1.85c-2.47-2.86-.2-7,5.77-10.46,4.61-2.7,15.15-4.91,24.19-5.08,10.52-.2,15.35,2.06,18.58,8.72,2.38,4.92,2.85,4.9-7.51.3a30.49,30.49,0,0,0-12.42-2.89c-5.86-.13-6.76.18-15.39,5.25-9.55,5.62-11.45,6.21-13.22,4.16Zm90.29-.39c0-1.2.25-1.44.54-.62a2.37,2.37,0,0,1-.07,2C457.36,166.86,457.15,166.26,457.19,165.18ZM419,162.7c-.52-1.13-.75-2.06-.5-2.06s.87.93,1.39,2.06.75,2.05.5,2.05S419.53,163.82,419,162.7Zm37.36-6.16c0-1.41.21-2,.45-1.29a4.5,4.5,0,0,1,0,2.57c-.24.71-.45.13-.45-1.28ZM416,154.3a.86.86,0,0,1,1.29-.29c1.16.83,1,1.16-.46,1.16C416.13,155.17,415.75,154.78,416,154.3Zm-5.93-5.72-2.15-2.82,2.44,2.49a17.29,17.29,0,0,1,2.44,2.82c0,.81-.72.15-2.73-2.49ZM406.85,144c-1.74-2.6-2-3.72-1.12-4.36.5-.37.82-.28.71.18a7.28,7.28,0,0,0,.89,3.16C408.53,145.43,408.24,146,406.85,144Zm-4.73-9.1c-1.46-3.31-1.63-4.48-.77-5.39s1-.74.54.64c-.51,1.67.33,2.32,2.43,1.86.45-.1.34.48-.24,1.29-1.22,1.69-.4,5.12,1,4.12.55-.38.67-.17.3.52-.95,1.79-1.22,1.54-3.24-3Zm2.71.18a2.26,2.26,0,0,1,.88-1.59c.5-.36.65.05.35,1C405.47,136.2,404.83,136.52,404.83,135Zm48.89-4.16c0-1.41.2-2,.44-1.28a4.46,4.46,0,0,1,0,2.56c-.24.71-.44.13-.44-1.28Zm-55.11-4.65c-.62-.86-.95-1.76-.74-2s.87.46,1.46,1.56C400.62,128.18,400.19,128.44,398.61,126.23Zm54.22-1.51c0-1.41.2-2,.45-1.28a4.64,4.64,0,0,1,0,2.56C453,126.71,452.83,126.13,452.83,124.72Zm-56.72-4.67c-1.28-3.26-1.29-3.85-.05-3,.68.48.78-.06.34-1.74-.36-1.34-.32-2.07.07-1.64.63.7,1.44,9,.88,9a11.44,11.44,0,0,1-1.24-2.62Zm-2.43-8.4a6.44,6.44,0,0,0-.36-4.1c-.84-1.55-.91-1.45-.49.75.27,1.41-.91-.86-2.62-5s-2.92-7.83-2.67-8.12.45.09.45.84.21,1.13.47.83.07-1.75-.41-3.22c-.56-1.7-.57-2.89,0-3.28s.86.23.86,1.25c0,1.36.21,1.5.74.53s.73-.21.73,1.8c0,1.71-.34,3.12-.74,3.12-1.14,0-.88,1.46.66,3.65,1.36,1.94,1.38,1.94,1-.32-.25-1.38-.07-2,.46-1.68s.63,2.2.28,4.37-.3,3.39.06,3,1.27-.19,2,.51c1.12,1.06,1.27,1,.83-.35-.32-1-.05-1.63.67-1.63.89,0,1,.49.33,1.89a4.78,4.78,0,0,0,.17,4.19c.57,1.27.72,2,.33,1.55s-1.29-.2-2,.5c-1.11,1.07-1.22.92-.69-1Zm3.68-4.08c-.48-1.46-.38-1.58.49-.57.61.69.88,1.52.61,1.84S397.69,108.58,397.36,107.57ZM385.93,93.24a3,3,0,0,1-.6-1.74c0-.64.42-.58,1.05.15s.85,1.46.59,1.75S386.25,93.62,385.93,93.24Zm54-19.54c-.49-1.46-.38-1.58.49-.57.61.69.88,1.52.61,1.84S440.23,74.71,439.9,73.7Zm-49-6.46c0-2.54.18-3.58.39-2.31a17,17,0,0,1,0,4.62C391.07,70.82,390.89,69.78,390.89,67.24Zm43.62-4.12a1,1,0,0,0-1.52-.35c-.6.43-.7.2-.27-.6s-.74-3-3.19-6.05c-3.48-4.29-3.53-4.41-.47-1.19,3.35,3.54,7.34,9.23,6.46,9.23-.25,0-.7-.47-1-1ZM423,49.78a1,1,0,0,0-1.52-.36c-.59.42-.7.21-.3-.54.5-1,.95-1,1.91,0,1.25,1.21,1.59,2,.86,2-.22,0-.64-.47-.95-1Zm-5.53-4.08c-1.58-1.12-2.88-2.25-2.88-2.53s1.4.46,3.1,1.63a13.25,13.25,0,0,1,3.1,2.53c0,.66-.28.52-3.32-1.63ZM406.6,39c-1.21-.81-1.81-1.47-1.32-1.47a9.08,9.08,0,0,1,3.1,1.47c1.22.81,1.81,1.47,1.33,1.47A9,9,0,0,1,406.6,39Zm-5.31-2.57c-.73-.54-.93-1-.45-1a5,5,0,0,1,2.22,1c.73.55.93,1,.44,1A4.91,4.91,0,0,1,401.29,36.45Zm-14.18-.39c0-.22,1-.61,2.19-.88s2-.09,1.72.39C390.56,36.42,387.11,36.85,387.11,36.06ZM396,34.4c-1.62-1.21-.22-1.21,2.22,0,1.16.58,1.32.9.44.94A4.94,4.94,0,0,1,396,34.4Zm-3.71-1.73a1.59,1.59,0,0,1,1.7.08c.29.34-.23.59-1.17.54S391.55,33,392.26,32.67Z" transform="translate(-9.28 -25.61)"/><path id="path2617" class="cls-4" d="M273.1,377.61c-8-1.67-12.64-6.16-13.57-13.16-.28-2.1-1.11-20.9-1.84-41.79-3-85.85-4.2-133.43-4.32-170.38-.11-34.29.07-40,1.5-47.72,1.64-8.83,5-20.93,6.71-24.32.85-1.67.92-1.63.69.43a7.44,7.44,0,0,1-.88,3c-1.07,1.24-.66,2.66.61,2.1,2.38-1.06,3.21,1.72,3.21,10.79,0,7.35.25,9,1.33,9s1.35,2.15,1.46,12.58c.1,9.64.29,11.49.82,8,.42-2.79.58,2,.4,12.06-.17,9.53,0,16.68.5,16.68s.81-1.85.81-4.11c0-7.23,1.56-4.38,2.1,3.85.29,4.38.56,8.77.6,9.76,0,1.52.36,1.61,2,.59,1.2-.74,1.52-1.36.83-1.62-1.14-.44-.66-4.88.75-7,.61-.91,3.25-1.15,6.44-.6,1.48.26-15.56,20.66-17.25,20.66-.92,0-1.68-.44-1.68-1s.7-.74,1.55-.44c1.45.53,1.45.49,0-.61-.86-.64-1.37-1.52-1.14-2s-.94-.86-2.6-.93-3.32.39-3.66,1-.13.95.78.55a1.34,1.34,0,0,1,1.91.92c.4,1.19.06,1.39-1.48.89s-1.62-.35-.78.33c1,.81,1,1.05,0,1.52s-.88.58.17.64a3.29,3.29,0,0,0,2.34-1c.69-.8,1.13-.8,1.56,0,.33.64-.05,1.12-.88,1.12S259.21,179,257.5,181c-3,3.45-3.07,3.79-2.46,8.88a130.81,130.81,0,0,0,4.47,19.77c.48,1.37.37,1.75-.34,1.23s-.84-.17-.47.95.73,1.34,1.22.42c.89-1.67,2.45,1.79,2.21,4.93-.09,1.27.21,2.31.67,2.31s.63-.94.37-2.08c-.4-1.78,0-1.64,2.53,1s7.79,5.19,10.71,5.21c.56,0,1.26.74,1.55,1.63.81,2.43.65,3.71-.36,3a1.25,1.25,0,0,1-.43-1.53c.66-1.22-.59-1.95-4.26-2.49-2.26-.34-3.26,0-3.65,1.12a1.37,1.37,0,0,1-1.89,1c-.75-.33-1.14-.19-.87.32a1.1,1.1,0,0,1-.62,1.46c-.61.29.44.34,2.33.12,3.46-.42,5.48-1.44,3.13-1.58-.73,0-.51-.42.52-.9,2.51-1.19,6,2.56,4.84,5.15a5.5,5.5,0,0,0-.32,3.45c.32,1,.07,1.61-.61,1.61s-.74.38.25,1.29c1.66,1.52,3,9,1.64,9a1.06,1.06,0,0,0-.93,1.15c0,.79.43.74,1.35-.15,2.28-2.19,2.59-.17.33,2.11-2,2-2,2.05-.19,1.05,2.36-1.32,3.83-1.39,3.83-.18,0,.49-1.2,1.47-2.66,2.17-2.31,1.11-2.66,1.8-2.66,5.26,0,2.19.4,4,.89,4s.88-1.8.88-4c0-2.76.45-4.2,1.46-4.65.8-.35,1.66-.4,1.92-.11s0,.54-.57.54-1,1.39-1,3.08c0,3,1.29,4.26,2,1.93.18-.62,1.39-1.27,2.7-1.44,1.76-.22,2.53.26,3,1.91a9.22,9.22,0,0,1,.48,3,.59.59,0,0,0,.56.77c.41,0,1.2,1.15,1.76,2.56.88,2.24.74,2.76-1.15,4.19-1.27,1-2.63,1.29-3.3.8a4.64,4.64,0,0,0-2.92-.58c-1,.14-.53-.41,1.1-1.26,3.12-1.63,3.83-2.94,1.33-2.47s-4-1.06-2.5-2.79a4.26,4.26,0,0,1,1.95-1.48c.38,0,.21.56-.38,1.23-1.53,1.78-1.31,3.36.27,1.85,1.05-1,1.6-1,2.63,0s1.14,1.44,0,2.81c-1.77,2.05-1,2.81,1.33,1.36,2-1.24,1.56-3.49-1.16-6.11a3,3,0,0,1-.83-2.77c.36-1.1-.38-.91-2.71.69-3.67,2.5-4.88,4.25-3.37,4.84s1.34,3-.06,3.65c-.89.42-.89.54,0,.6.69,0,1.11,1.63,1.11,4.19,0,2.26.34,4.1.77,4.1s.7,5.89.62,13.09c-.16,14.08.6,19.76,2.64,19.76.91,0,1.28,1.2,1.28,4.1,0,2.26-.38,4.11-.86,4.11s-.57.9-.06,2.46c.45,1.36.58,5.05.3,8.21-.32,3.66-.18,5.75.41,5.75s1.2,3.69,1.54,8.21,1,8.21,1.43,8.21.79,1.85.79,4.11.4,4.1.89,4.1.88.56.88,1.23c0,1-.23,1-1.06,0-1.87-2.16-2.41-1.34-2.22,3.37.1,2.66.67,4.82,1.33,5.12s1,.16.73-.28.64-.73,2-.64c3.63.27,3.85.36,3.26,1.47-.3.56.17,1.06,1.06,1.1s1.13.3.49.6a1.94,1.94,0,0,0-1.11,1.52c0,.55.4.72.89.37s.89-.12.89.52-.72.89-1.78.5-1.77-.18-1.77.45-.9,1.09-2,1.09c-1.94,0-1.93-.07.44-2.31,1.8-1.71,2.21-2.7,1.58-3.84s-1.07-1.27-1.94-.25-.88,1.27,0,1.27c.62,0,.88.45.58,1s-1.16.55-2.23-.22-2-.83-2.39-.35a.82.82,0,0,0,.4,1.33c1.83.75,1.25,2.33-.88,2.44-1.92.1-1.91.14.22.92s1.91.84-1,.93c-1.76,0-4.95.3-7.09.54a29.78,29.78,0,0,1-8-.4Zm-4.64-3.53c0-.83-.54-1.21-1.26-.89-1,.46-1,.71-.07,1.43.65.48,1.21.87,1.25.88A6.56,6.56,0,0,0,268.46,374.08Zm-1.13-2.5c.25-.47-.1-.85-.79-.85s-1.05.38-.8.85.61.86.8.86S267.08,372.05,267.33,371.58Zm-7.72-76.31c-.28-.82-.49-.58-.54.62s.18,1.69.47,1.35a2.36,2.36,0,0,0,.07-2Zm-1.77-8.21c-.29-.82-.5-.58-.54.62s.17,1.69.47,1.35a2.4,2.4,0,0,0,.07-2Zm0-16.49c-.25-.7-.45-.13-.45,1.28s.2,2,.45,1.29a4.5,4.5,0,0,0,0-2.57Zm27.77-12.06a1,1,0,0,0-.94-1c-.51,0-.69.46-.39,1s.73,1,.94,1S285.59,259.08,285.59,258.51ZM272.92,247c-.21-1.27-.38-.24-.38,2.3s.17,3.58.38,2.31A17,17,0,0,0,272.92,247Zm4.46-2.42a1.57,1.57,0,0,0-1.7-.08c-.71.33-.5.57.53.62s1.46-.2,1.17-.54Zm-3.75-2.46a1.92,1.92,0,0,0-1.38-1,1,1,0,0,0-.84,1c0,.56.62,1,1.38,1s1.14-.47.84-1Zm3.1-2.63c0-.88-.4-1.31-.89-1a2.28,2.28,0,0,0-.88,1.6.93.93,0,0,0,.88,1C276.33,241.06,276.73,240.34,276.73,239.46Zm-2.9-2.1a1.59,1.59,0,0,0-1.7-.08c-.7.33-.49.57.54.62s1.46-.19,1.16-.54Zm-17-7.59c.3-.56.12-1-.39-1a1,1,0,0,0-.94,1c0,.57.18,1,.39,1s.64-.46.94-1Zm7.87-3.64c.3-.91.15-1.33-.35-1a2.25,2.25,0,0,0-.87,1.6c0,1.47.63,1.15,1.22-.63Zm4.43-2.31c.24-.45-.34-1.38-1.28-2.06-1.14-.82-1.72-.87-1.72-.15s-.46.77-1,.37-.78-.28-.41.41a1.59,1.59,0,0,0,2,.49c1-.43,1.24-.24.81.56s-.24,1.2.24,1.2a1.68,1.68,0,0,0,1.33-.82Zm-12.44-20.26c-.29-.87-.71-1.37-.95-1.1s-.15,1,.17,1.59c.87,1.63,1.38,1.32.78-.49Zm-1.49-6.89c-.25-.7-.45-.12-.45,1.29s.2,2,.45,1.28a4.5,4.5,0,0,0,0-2.57Zm1.62-16.15c.31-.58,0-.75-.83-.4-1.54.68-1.82,1.41-.54,1.41a1.84,1.84,0,0,0,1.37-1Zm15-10.15,3.35-4-2.51.52c-2.06.42-2.31.27-1.4-.85,1.55-1.9,1.38-3-.44-2.92-.94.05-1.11.29-.44.6a1.21,1.21,0,0,1,.45,1.72,10.18,10.18,0,0,0-.71,3.76c0,2-.48,2.54-2,2.44-2.11-.13-2.66,1.17-.85,2a8.09,8.09,0,0,1,1.15.6s1.55-1.71,3.4-3.9Zm-1.22-1.15a1,1,0,0,1,.93-1c.52,0,.7.46.4,1s-.73,1-.94,1S270.53,169.78,270.53,169.22Zm-4.68-3.1c-.2-3-1.53-2.48-1.53.59,0,1.45.38,2.36.83,2a3.49,3.49,0,0,0,.7-2.63Zm-11.55-7.93c-.22-1-.41-.18-.41,1.79s.19,2.79.41,1.8A9.85,9.85,0,0,0,254.3,158.19Zm23.33,3.29c-.07-.4.77-1.25,1.85-1.88,3-1.73,3.13-3.65.28-3.3-2,.25-2.46.87-2.73,3.71-.17,1.88-.08,3.14.21,2.81A1.81,1.81,0,0,0,277.63,161.48Zm-10.95-14.07c-.24-.71-.45-.13-.45,1.28s.21,2,.45,1.28a4.46,4.46,0,0,0,0-2.56Zm-4.75-30.28c-.28-2-1-3.34-1.79-3.34s-1.13.6-.81,1.56a69.94,69.94,0,0,1,1.17,8.46l.66,6.92.62-5.13A42.3,42.3,0,0,0,261.93,117.13Zm-7.18,7.38c.2-2,.12-3.83-.18-4s-.64,1.43-.75,3.65C253.56,129.16,254.25,129.45,254.75,124.51ZM256,113.28c-1.35-1.56-1.46-1.44-1.46,1.69s.11,3.25,1.46,1.68S257.38,114.85,256,113.28Zm5.72-5.35c-.85-1.69-.92-1.67-.95.31,0,2.37,1.1,4.22,1.57,2.58A5.08,5.08,0,0,0,261.75,107.93Zm-1.92-1.06c-.05-3.47-.15-3.63-1-1.6a6.61,6.61,0,0,0-.41,3.85C259.32,111.82,259.89,110.9,259.83,106.87ZM257,104.81c-.23-1-.41-.18-.41,1.8s.18,2.78.41,1.8A9.9,9.9,0,0,0,257,104.81Zm2-3.25a11.47,11.47,0,0,1,.6-2.73c.4-1.22.26-1.56-.44-1s-1,.29-1-.26a1.67,1.67,0,0,1,1-1.4c.65-.25.76-1,.29-1.82-1.06-2-2.21,1.73-1.56,5,.36,1.85.2,2.26-.67,1.64s-.93-.42-.52.36c.76,1.41,2.3,1.58,2.3.24Zm4.38-11.89c0-.57-.8-1.66-1.85-2.42-1.63-1.18-1.83-1.16-1.39.15a2.86,2.86,0,0,1-.35,2.49c-1,1.18-.05,4.63,1.08,3.82.44-.31.79-.1.79.46a2.12,2.12,0,0,1-.74,1.56c-.4.29-.54,2-.3,3.91.41,3.1.54,2.87,1.57-2.78C262.81,93.47,263.35,90.24,263.38,89.67Zm-3.49,1.67a2.29,2.29,0,0,1,.89-1.66c.48-.35.88-.18.88.39a2.35,2.35,0,0,1-.88,1.66C260.29,92.08,259.89,91.9,259.89,91.34Zm39.88,282.75c0-.22.62-.68,1.38-1s1.14-.18.83.41C301.46,374.45,299.77,374.92,299.77,374.09Zm7.39-3.15c0-.82.34-1.25.75-.95a1.19,1.19,0,0,1,.24,1.49C307.44,372.83,307.16,372.67,307.16,370.94Zm2.81-.56a2.3,2.3,0,0,1,1.87-1c.78,0,1.07-.49.7-1.19s-.25-.9.36-.47,2.21,0,3.68-.89,2.69-1.38,2.69-1.1c0,.6-4.26,3.23-7.58,4.7-1.5.66-2.09.65-1.72,0Zm-15.52-5.07a2.26,2.26,0,0,1,.89-1.6c.49-.34.89.09.89,1s-.4,1.6-.89,1.6A.93.93,0,0,1,294.45,365.31Zm22.81-1.21c.6-.7,1.32-1,1.59-.7s-.22.89-1.09,1.27C316.49,365.23,316.39,365.11,317.26,364.1Zm3,.9c.2-.14,1.56-1.41,3-2.83l2.66-2.56-2.15,2.82c-1.18,1.55-2.55,2.82-3,2.82s-.71-.11-.51-.25Zm-26.12-4.45c-.87-2.6-.62-8.64.34-8.64.49,0,.89,1.58.89,3.51a21.4,21.4,0,0,0,.54,5.13c.29.89.14,1.62-.35,1.62S294.4,361.44,294.11,360.55Zm31.44-2c.09-1.94,1.57-5.22,1.62-3.59a7.08,7.08,0,0,1-.81,3.08c-.47.85-.84,1.08-.81.51Zm1-19.5c0-1.69.22-2.26.44-1.26a6.74,6.74,0,0,1,0,3.08c-.24.69-.43-.12-.41-1.82Zm-36.27-7.7c0-2.54.18-3.58.39-2.31a17,17,0,0,1,0,4.62C290.44,335,290.26,333.92,290.26,331.38Zm36.43-6.15c0-5.93.14-8.36.32-5.39a107.47,107.47,0,0,1,0,10.77C326.83,333.58,326.69,331.15,326.69,325.23ZM290.26,315c0-2.54.18-3.58.39-2.31a17,17,0,0,1,0,4.62C290.44,318.54,290.26,317.5,290.26,315Zm32.12-9.22c-.31-.59,0-.76.83-.41,1.54.69,1.82,1.42.54,1.42A1.87,1.87,0,0,1,322.38,305.74Zm-3.55-2.06c-.31-.58.05-.75.84-.4,1.53.68,1.81,1.42.54,1.42a1.89,1.89,0,0,1-1.38-1Zm-13.74-1.42a5.53,5.53,0,0,1,1.35-1.69c1.13-1.08,1.26-1,.79.39S305.09,303.41,305.09,302.26Zm3.12-3.67a1.41,1.41,0,0,0-1.82-.41c-.72.32-1.3.11-1.3-.47a.88.88,0,0,1,1.11-.84c1.67.32,4.8,2.63,3.59,2.67a1.94,1.94,0,0,1-1.58-1Zm2.64-.84a22.77,22.77,0,0,1-2.65-3.32c-1.46-2.14-1.28-2.06,1.11.45,2.59,2.73,3.29,3.69,2.65,3.64A4.15,4.15,0,0,1,310.85,297.75ZM300,294c.35-.45.22-1.71-.29-2.82s-.76-2.2-.56-2.43.82.71,1.37,2.1c.76,1.92.74,2.71-.08,3.25-.59.39-.79.35-.44-.1Zm4.13-2.08c-.06-.28-.16-.86-.23-1.28a10.65,10.65,0,0,0-.93-2.31c-.5-.95-.08-.8,1.1.39s1.69,2.33,1.43,2.82C304.93,292.48,304.26,292.66,304.09,291.87Zm-17.61-9.64c0-2.61-.46-4.2-1.33-4.59a2.2,2.2,0,0,1-1.33-1.72c0-.62.63-.41,1.39.48a4.6,4.6,0,0,0,2.22,1.61c.45,0,.82,1.85.82,4.11s-.4,4.1-.89,4.1S286.48,284.43,286.48,282.23Zm12.91,2.67c.33-1,.82-1.59,1.1-1.27s0,1.15-.61,1.84C299,286.48,298.9,286.36,299.39,284.9Zm-2.28-1.12a6.18,6.18,0,0,1,1.55-1.79c1.41-1.28,1.44-1.24.34.39S297.11,284.63,297.11,283.78Zm-6.2-5.77c0-.56-.9-1-2-1-1.76,0-1.65-.25.94-2.07,2.37-1.68,2.81-2.51,2.32-4.36-.33-1.26-.3-2,.07-1.55,1.05,1.16,1.26,5.9.24,5.65-.5-.13-1.12.41-1.36,1.2s-.06,1.14.54.71.8-.13.46.89c-.6,1.8-1.22,2.09-1.22.56Zm-3.55-5.13a5.33,5.33,0,0,1,2.66-1c1.18,0,1.18.11,0,1a5.28,5.28,0,0,1-2.66,1C286.18,273.88,286.18,273.77,287.36,272.88Zm-1.77-18.36c0-.69-.4-1-.88-.63s-.89.18-.89-.39a2.21,2.21,0,0,1,.79-1.59c.87-.62,2.2,2.45,1.45,3.33-.26.29-.47,0-.47-.72Zm-3.54-7.3a.9.9,0,1,1,.88,1A1,1,0,0,1,282.05,247.22Zm-1.25-6.35-1.43-4.42.41,4.1c.33,3.23.22,3.7-.52,2.23a11,11,0,0,1-.29-5.65l.63-3.76,1.67,5.56c2,6.63,1.58,8.29-.47,1.94Zm-3.75-6.52c-.08-1.54.23-2.25.81-1.83s.73,0,.38-1-.14-1.71.39-1.71.72,1.06.35,2.83c-.83,3.89-1.78,4.75-1.93,1.75Zm15.25-28.29a2,2,0,0,1,1.67-.92,2,2,0,0,0,1.66-1.43c.38-1.17-.55-1.34-5-.89-3,.3-5.27.27-5-.06s1.91-.72,3.67-.85c4.85-.38,3.31-2.91-1.81-3l-4.11-.05,3.32-1.6c1.83-.88,3.32-2,3.32-2.51s1.82.7,4.05,2.67c7.56,6.69,16.35,8,23.78,3.65l3.12-1.84-1.27,2.83a8.79,8.79,0,0,1-4.08,4c-3.41,1.37-10.84,1.48-14.69.2a12.51,12.51,0,0,0-6-.11c-1.82.48-2.95.44-2.66-.09Zm84.57-3.65c-1.78-.82-5.31-4.6-5.31-5.68,0-.49,1.29-.07,2.88.92,4.3,2.68,14.21,2.44,18.94-.45,2-1.23,3.91-2,4.21-1.77s.37.18.14-.18.58-1.55,1.8-2.66c1.78-1.63,2.47-1.77,3.52-.76a12,12,0,0,0,4.18,2c2.58.7,2.39.8-1.77.89-3.38.08-4.66.51-4.66,1.56a2.54,2.54,0,0,0,1.11,2.06c.61.34-.39.41-2.21.15-4.32-.59-4.16,2.18.22,3.79.73.27.13.27-1.33,0a18.71,18.71,0,0,0-4-.37c-6.62.7-16.65,1-17.73.46ZM262.08,174.3c-.81-1.53-.17-2.07,1.25-1.05.77.55.86,1.08.26,1.5A1,1,0,0,1,262.08,174.3ZM316.63,165c-8.5-5-9.62-5.35-15.11-5.24-5.24.12-11.29,1.93-19.8,5.93-1.42.67-1.56.44-1-1.68,1-4,4-6.93,9.2-9.2,4.52-2,5.63-2,13.63-1,15.19,1.92,23.9,5.37,26.71,10.59a4,4,0,0,1-2.71,5.69C326.59,170.2,321.68,167.92,316.63,165Zm48,2c-5-5.84,6.37-12.85,25-15.36,8.31-1.12,9.89-1.06,14.15.49,4.85,1.77,10.26,7.28,10.26,10.45,0,1.21-.87,1.08-4.66-.69-7.11-3.34-14.86-5.22-19.23-4.66-2.26.29-7.21,2.47-11.54,5.09C369.93,167.59,366.25,168.82,364.67,167Zm-90.6-16.25c0-2.25.4-4.1.89-4.1s.88,1.85.88,4.1-.4,4.11-.88,4.11S274.07,153,274.07,150.74Zm10,2.62c0-.83.29-1.29.64-1s1.16-.27,1.79-1.15c.95-1.33.93-1.77-.12-2.54s-.58-1.2,1.51-.88c.31.05.81-.3,1.11-.77a24.85,24.85,0,0,1,2.73-2.91c1.21-1.13.07.84-2.52,4.36s-4.81,6.42-4.93,6.42-.21-.67-.21-1.49Zm10.43-13.6c.65-1.25,1.37-2,1.6-1.77s-.29,1.28-1.17,2.26C293.44,141.94,293.42,141.92,294.54,139.76Zm-22.24-9.54c0-4.79.37-8.21.88-8.21s.89,3.42.89,8.21-.37,8.21-.89,8.21-.88-3.42-.88-8.21Zm25.35,4.27c-.25-.47.1-.85.79-.85s1.05.38.8.85-.61.86-.8.86S297.9,135,297.65,134.49Zm4.86-6.33c2.57-4.6,2.58-4.62,2.57-3.5a13.32,13.32,0,0,1-2.28,4l-2.29,3.08Zm-32.87-26.6c0-2.21-.47-4.2-1-4.42s-.75-1-.36-1.68c.52-1,1-.83,1.9.57,1.4,2.14,1.7,9.55.39,9.55-.49,0-.89-1.8-.89-4Zm-1.05-16c.19-2,.51-3.59.7-3.59s.35,1.61.35,3.59-.32,3.59-.71,3.59S268.39,87.55,268.59,85.57ZM265.38,80c0-.3,0-1.24-.08-2.09-.1-1.26-.26-1.28-.88-.14-.53,1-.95,1-1.37.25-.33-.62-.16-1.13.39-1.13s.7-.54.35-1.19-.24-.9.45-.41,1,.25.85-.61c-.26-1.48,2.47-8.06,3.34-8.06.28,0,.28.7,0,1.54s0,1.56.57,1.58.12.65-1.07,1.41c-2.38,1.53-3.06,5.16-1.28,6.87.91.88,1.08.46.81-2s0-3,.92-2.55A2,2,0,0,1,269.64,75c0,.54-.38.71-.85.37s-.71.63-.53,2.29c.25,2.25,0,2.89-1.3,2.89-.9,0-1.61-.25-1.58-.55ZM269.7,65c0-1.32,4.7-7.44,9.32-12.14,3.3-3.37,3.6-3.49,3.45-1.42-.11,1.57-.65,2.17-1.74,1.94s-1.43.13-1.06,1.23.11,1.38-.68,1-1.77.43-2.47,1.59-1.54,1.81-1.86,1.44-.59-.18-.59.43a2,2,0,0,0,1.11,1.63c.84.39.85.54,0,.6a1,1,0,0,0-.81,1.36c.14.71.1.94-.11.52-.67-1.39-2.77-.81-3.69,1-.5,1-.9,1.34-.9.77ZM287,45.87a.85.85,0,0,1,1.29-.28c1.16.83,1,1.15-.46,1.15C287.14,46.74,286.77,46.35,287,45.87Zm3.31.43a1,1,0,0,0-.48-1.51c-.75-.29-.78-.62-.1-1.11s1.2,0,1.47.81a2,2,0,0,1-.49,2.2c-.56.41-.73.24-.4-.39Zm1.47-3.73c0-.22.61-.68,1.37-1s1.15-.18.83.4C293.48,42.94,291.8,43.4,291.8,42.57Zm6.2-3.7a14.42,14.42,0,0,1,4-2c.48,0-.51.89-2.22,2a14.29,14.29,0,0,1-4,2C295.3,40.84,296.29,40,298,38.87Zm11.35-4.81a1.59,1.59,0,0,1,1.7.08c.3.35-.23.59-1.16.54S308.65,34.39,309.35,34.06ZM319.1,31a1.57,1.57,0,0,1,1.7.09c.3.34-.23.58-1.16.53S318.4,31.31,319.1,31Zm9.75-2.05a1.59,1.59,0,0,1,1.7.08c.29.34-.23.59-1.16.54S328.14,29.26,328.85,28.93Zm7.92-1a2.94,2.94,0,0,1,2.22,0c.61.28.11.51-1.11.51s-1.72-.23-1.11-.51Z" transform="translate(-9.28 -25.61)"/></g></svg>