<?xml version="1.0" encoding="UTF-8" standalone="no"?>
<!-- Created with Inkscape (http://www.inkscape.org/) -->

<svg
   xmlns:dc="http://purl.org/dc/elements/1.1/"
   xmlns:cc="http://creativecommons.org/ns#"
   xmlns:rdf="http://www.w3.org/1999/02/22-rdf-syntax-ns#"
   xmlns:svg="http://www.w3.org/2000/svg"
   xmlns="http://www.w3.org/2000/svg"
   xmlns:sodipodi="http://sodipodi.sourceforge.net/DTD/sodipodi-0.dtd"
   xmlns:inkscape="http://www.inkscape.org/namespaces/inkscape"
   version="1.1"
   id="svg2063"
   width="75.839996"
   height="102.08"
   viewBox="0 0 75.839996 102.08"
   sodipodi:docname="slide1.svg"
   inkscape:version="0.92.3 (2405546, 2018-03-11)">
  <metadata
     id="metadata2069">
    <rdf:RDF>
      <cc:Work
         rdf:about="">
        <dc:format>image/svg+xml</dc:format>
        <dc:type
           rdf:resource="http://purl.org/dc/dcmitype/StillImage" />
        <dc:title></dc:title>
      </cc:Work>
    </rdf:RDF>
  </metadata>
  <defs
     id="defs2067" />
  <sodipodi:namedview
     pagecolor="#ffffff"
     bordercolor="#666666"
     borderopacity="1"
     objecttolerance="10"
     gridtolerance="10"
     guidetolerance="10"
     inkscape:pageopacity="0"
     inkscape:pageshadow="2"
     inkscape:window-width="1366"
     inkscape:window-height="705"
     id="namedview2065"
     showgrid="false"
     inkscape:zoom="9.2476487"
     inkscape:cx="37.919998"
     inkscape:cy="59.690849"
     inkscape:window-x="-8"
     inkscape:window-y="-8"
     inkscape:window-maximized="1"
     inkscape:current-layer="svg2063" />
  <g
     id="g2616"
     transform="translate(-2.1558279e-6,3.0277966)">
    <path
       style="fill:#daa28f;stroke-width:0.31999999"
       d="M 16.742865,93.425274 C 10.736968,92.683846 6.5882893,89.708154 7.1779948,86.564752 7.5411654,84.62889 8.5307896,84.049875 15.132183,81.91087 c 7.867978,-2.549404 8.579207,-2.897561 11.09599,-5.431654 1.150504,-1.158416 2.690381,-2.606442 3.421949,-3.217837 1.104561,-0.923117 1.346075,-1.332557 1.424189,-2.414425 0.06899,-0.955556 -0.09235,-1.539783 -0.605307,-2.191911 -1.05082,-1.335901 -1.381719,-2.824025 -1.575553,-7.085625 L 28.717401,57.698835 26.7587,56.781498 c -1.879442,-0.880218 -6.278701,-4.750576 -6.278701,-5.523844 0,-0.1807 0.377057,-0.776656 0.837905,-1.324345 l 0.837906,-0.995792 -1.077906,0.155248 c -0.592847,0.08539 -0.890273,0.0759 -0.660944,-0.02109 0.331666,-0.140256 0.321383,-0.251543 -0.05027,-0.544007 -0.7161,-0.563526 -2.032359,-4.602006 -2.465566,-7.564726 -0.437842,-2.994422 -0.227449,-7.026794 0.489301,-9.377862 1.578576,-5.178019 6.729832,-11.053614 13.351695,-15.229133 3.141918,-1.981185 4.726334,-4.111777 4.73609,-6.3687068 9.6e-4,-0.2270115 0.27657,-0.9513721 0.61242,-1.6096905 1.211468,-2.3746714 2.64048,-1.3931216 3.425743,2.3530483 0.23985,1.144228 0.664336,2.428758 0.9433,2.854511 0.278963,0.425754 2.260659,1.970473 4.403766,3.43271 8.339087,5.689743 11.863295,10.951239 12.285782,18.342169 0.190377,3.330439 -0.48138,7.563501 -1.66857,10.514474 -0.414762,1.030963 -0.68129,2.064243 -0.592288,2.296182 0.089,0.231936 -0.21489,0.668535 -0.675315,0.970218 -0.797587,0.522598 -0.858006,0.519971 -1.278931,-0.05568 -0.242986,-0.332304 -0.369795,-0.676192 -0.281795,-0.764192 0.088,-0.088 0.341523,0.08825 0.563388,0.391667 0.352826,0.482519 0.479898,0.495181 1.013834,0.101037 0.489248,-0.361155 0.531033,-0.531142 0.210451,-0.856166 -0.32191,-0.326371 -0.401987,-0.283725 -0.410176,0.218457 -0.0096,0.586711 -0.03558,0.590535 -0.43528,0.064 -0.233805,-0.308 -0.606857,-0.56 -0.829005,-0.56 -0.324969,0 -0.324864,-0.09524 6.4e-4,-0.487324 0.338733,-0.408148 0.317917,-0.454122 -0.128105,-0.282967 -0.358995,0.137757 -0.870919,-0.154416 -1.570807,-0.896512 -1.381785,-1.465123 -2.671561,-2.282416 -3.142537,-1.991337 -0.233923,0.144572 -0.299786,0.101548 -0.168854,-0.110304 0.245232,-0.396794 -0.312583,-0.821223 -1.161508,-0.883767 -0.317343,-0.02339 -0.751875,-0.231321 -0.965628,-0.462093 -0.274983,-0.29688 -0.278816,-0.357964 -0.01312,-0.20888 0.47112,0.264343 1.325827,-0.966886 2.45048,-3.52999 1.252006,-2.853341 1.6011,-5.11145 1.163385,-7.525314 -0.761667,-4.199825 -1.987174,-6.320859 -6.215612,-10.757419 -5.336592,-5.59926 -5.418842,-5.741596 -5.337293,-9.236354 0.03538,-1.515953 -0.07739,-2.7046218 -0.267731,-2.8222612 -0.201744,-0.1246844 -0.338698,0.2678752 -0.35433,1.0156468 -0.01402,0.6703864 -0.05001,2.1012004 -0.08,3.1795844 l -0.05452,1.960699 -3.36,3.482462 c -4.077379,4.225989 -6.066909,6.832383 -7.510949,9.839758 -1.872215,3.899101 -2.128257,6.086276 -1.263852,10.796142 0.426927,2.326189 0.629084,2.825366 1.286757,3.177341 0.569091,0.304569 0.670349,0.487341 0.37415,0.675341 -0.223358,0.141766 -0.603737,0.259964 -0.845288,0.262659 -0.337688,0.0038 -0.354288,-0.09739 -0.07183,-0.437731 0.280336,-0.337783 0.266097,-0.481482 -0.06012,-0.606663 -0.235107,-0.09022 -0.706782,0.186611 -1.048168,0.615181 -0.341385,0.42857 -0.9087,1.069808 -1.2607,1.424979 -0.352,0.355171 -0.658,0.781523 -0.68,0.94745 -0.022,0.165926 -0.058,0.454182 -0.08,0.640569 -0.022,0.186388 -0.182351,0.250906 -0.356335,0.14338 -0.188241,-0.11634 -0.230534,0.0281 -0.104445,0.356668 0.160446,0.418116 0.08582,0.503799 -0.307369,0.352919 -0.383085,-0.147005 -0.467311,-0.06389 -0.321174,0.316937 0.142572,0.37154 0.07931,0.442794 -0.22574,0.254263 -0.289823,-0.179123 -0.347692,-0.138759 -0.183032,0.127667 0.135355,0.219011 -0.0048,0.661018 -0.320153,1.009443 C 21.25756,48.37839 21.176799,48.64 21.390403,48.64 c 0.203278,0 0.371801,-0.18 0.374496,-0.4 0.0033,-0.26639 0.10593,-0.240189 0.307365,0.07844 0.259462,0.410419 0.371057,0.38767 0.784923,-0.16 0.265351,-0.351141 0.482458,-0.78244 0.482458,-0.95844 0,-0.176 -0.209933,-0.04251 -0.466517,0.29664 -0.256584,0.339152 -0.527097,0.555152 -0.601139,0.48 -0.07404,-0.07515 0.194324,-0.54825 0.596371,-1.051325 0.530726,-0.664093 0.799422,-0.803968 0.980759,-0.510557 0.172919,0.279786 0.120885,0.324474 -0.16912,0.145242 -0.26457,-0.163514 -0.341311,-0.133366 -0.208312,0.08183 0.23109,0.373911 3.941936,-3.021488 3.808312,-3.484579 -0.154049,-0.533875 0.313715,-0.266755 1.755948,1.002749 0.799786,0.704 1.627759,1.28 1.83994,1.28 0.212181,0 0.845239,0.229206 1.406796,0.509347 1.114784,0.556128 1.753331,0.305255 2.043062,-0.802685 0.130192,-0.497849 -0.08069,-0.618928 -1.321635,-0.7588 -2.616514,-0.294918 -3.825759,-2.482649 -3.479986,-6.295891 0.332926,-3.671571 2.242618,-6.523298 5.284997,-7.892045 2.02265,-0.909976 3.009642,-0.941622 4.710877,-0.151044 5.538646,2.573851 6.943638,11.099569 2.24,13.59267 -0.704,0.373146 -1.335507,0.709955 -1.403347,0.748461 -0.296279,0.168173 0.985545,1.689987 1.423472,1.689987 0.712326,0 2.769046,-1.111462 3.449942,-1.864368 0.324534,-0.358861 0.792534,-0.574774 1.04,-0.479814 0.247462,0.09496 0.449933,-0.01075 0.449933,-0.234916 0,-0.224163 0.108,-0.299568 0.24,-0.167568 0.132,0.132 0.24,0.398256 0.24,0.59168 0,0.193428 0.791999,0.895056 1.759999,1.559181 0.968,0.664125 2.592144,1.947687 3.609207,2.852355 1.054208,0.937712 2.041606,1.571028 2.296739,1.473124 0.747302,-0.286768 0.0103,1.326972 -1.567165,3.431449 -1.569021,2.093213 -3.977462,4.227661 -5.494265,4.869213 l -0.995485,0.421053 -0.156221,3.774307 c -0.130736,3.158605 -0.27975,4.00921 -0.913475,5.214304 -0.548112,1.042291 -0.72857,1.835462 -0.653392,2.871862 0.09232,1.272772 0.338051,1.673373 2.211658,3.605575 1.760684,1.81575 2.690313,2.455504 5.645097,3.884861 1.945517,0.941132 5.479225,2.47846 7.852684,3.416288 3.81897,1.508995 4.527574,1.911494 6.16,3.498979 1.675497,1.629373 1.844617,1.918541 1.844617,3.154025 0,2.273703 -1.247433,3.986679 -3.684367,5.059376 -1.776263,0.781879 -8.538275,0.706714 -13.915632,-0.154688 -2.2,-0.352419 -5.833564,-0.89095 -8.074591,-1.196739 -4.026202,-0.549379 -4.102205,-0.548016 -6.4,0.1148 -4.134064,1.192499 -15.85311,2.160714 -19.982541,1.650935 z M 35.090744,40.378163 c -1.062349,-0.124221 -1.508352,0.175415 -0.85872,0.576909 0.275523,0.170282 0.711414,0.132941 1.110733,-0.09516 0.626147,-0.357668 0.614224,-0.380458 -0.252013,-0.481751 z M 20.064423,50.667507 c 0.137394,-0.358045 0.08169,-0.456694 -0.170044,-0.301117 -0.229143,0.14162 -0.37438,0.02264 -0.37438,-0.306688 0,-0.413846 0.09914,-0.455785 0.429443,-0.18166 0.236193,0.196022 0.543699,0.249654 0.683345,0.11918 0.139647,-0.13047 0.08533,0.08678 -0.120701,0.482778 -0.435558,0.837155 -0.747018,0.96761 -0.447663,0.187507 z M 52.479997,47.52 c -0.219101,-0.264 -0.620733,-0.48 -0.892515,-0.48 -0.271782,0 -0.409005,-0.08515 -0.304934,-0.189219 0.303321,-0.303319 1.441712,0.170291 1.637843,0.681401 0.230278,0.600093 0.06393,0.595492 -0.440394,-0.01219 z m -1.92,-1.245763 c 0,-0.06917 0.223479,-0.21152 0.496621,-0.316336 0.284774,-0.109277 0.413222,-0.05563 0.301114,0.125763 -0.187923,0.304067 -0.797735,0.449744 -0.797735,0.190573 z M 23.865259,45.800874 c -0.200102,-0.323773 -0.04617,-1.246634 0.258811,-1.551613 0.137094,-0.137095 0.201262,-0.08366 0.142595,0.118739 -0.104746,0.361373 0.01501,0.432 0.732516,0.432 0.248162,0 0.236051,-0.148365 -0.03918,-0.48 -0.296862,-0.357696 -0.302033,-0.48 -0.0203,-0.48 0.207937,0 0.311016,-0.108493 0.229063,-0.241094 -0.08195,-0.132602 0.269549,-0.24666 0.781115,-0.253463 1.055592,-0.01405 1.102283,0.04811 0.493547,0.656842 -0.337892,0.337894 -0.529328,0.350809 -0.846945,0.05714 -0.319678,-0.295571 -0.358223,-0.287398 -0.174404,0.03698 0.250529,0.442096 -1.29275,2.131738 -1.556818,1.704468 z M 48.676577,44.923491 C 47.904695,44.327571 47.389358,43.84 47.53138,43.84 c 0.142022,0 0.530352,0.246275 0.862957,0.547277 0.451574,0.408669 0.665347,0.449197 0.844067,0.160022 0.181334,-0.293405 0.389859,-0.266918 0.860464,0.109293 0.599277,0.479078 0.59416,0.489056 -0.145437,0.283632 -0.67112,-0.1864 -0.710963,-0.152864 -0.32,0.26935 0.313565,0.338631 0.613354,0.393754 1.006566,0.185085 0.308,-0.163446 0.56,-0.225177 0.56,-0.137177 0,0.088 -0.252,0.29264 -0.56,0.454752 -0.424454,0.223408 -0.899696,0.03249 -1.96342,-0.788743 z"
       id="path2630"
       inkscape:connector-curvature="0" />
    <path
       style="fill:#d28a77;stroke-width:0.31999999"
       d="M 16.926875,93.425482 C 10.846332,92.758454 6.5793862,89.755613 7.1779948,86.564752 7.5389359,84.640774 8.517548,84.068813 15.121696,81.921974 c 7.899149,-2.567811 8.620204,-2.92072 11.118303,-5.441635 1.144,-1.154451 2.678555,-2.601107 3.410123,-3.214793 1.114297,-0.934746 1.345777,-1.332589 1.426593,-2.451888 0.06574,-0.910487 -0.07496,-1.525524 -0.441698,-1.930762 -1.028885,-1.136906 -1.5647,-3.378742 -1.745268,-7.302163 l -0.177616,-3.859271 -2.116067,-1.093164 c -2.394535,-1.237021 -5.798371,-4.342567 -5.791531,-5.283997 0.0047,-0.65376 1.6716,-2.722279 5.015243,-6.223789 l 1.985733,-2.079485 1.057244,1.007002 c 0.581484,0.553853 1.829767,1.334461 2.773962,1.734688 1.950628,0.826838 2.697339,0.624819 2.864536,-0.774992 0.0956,-0.800394 0.02413,-0.848295 -1.28,-0.857901 C 31.691287,44.13856 31.1269,43.81303 30.21848,42.41793 c -1.019275,-1.565348 -0.828755,-5.275584 0.40644,-7.915133 1.875315,-4.00746 5.982947,-5.833333 9.307519,-4.137263 3.450218,1.760168 5.450208,6.858584 4.088826,10.423314 -0.585062,1.531962 -1.981744,2.928646 -3.24593,3.245936 -0.974492,0.244582 -0.968649,0.368422 0.06844,1.450912 l 0.843779,0.880717 1.542122,-0.781453 c 0.848166,-0.429798 1.805187,-1.063821 2.126713,-1.408941 0.576784,-0.619104 0.620522,-0.601808 3.273117,1.294327 1.478685,1.056998 3.225222,2.406694 3.881193,2.999324 0.655968,0.592631 1.49368,1.238602 1.861581,1.435498 l 0.668909,0.357987 -0.648096,1.270375 c -0.998263,1.956755 -4.61281,5.608508 -6.201942,6.265779 l -1.379792,0.570688 -0.204679,3.806585 c -0.157488,2.928944 -0.365094,4.149754 -0.900454,5.295002 -0.464378,0.993408 -0.665952,1.964618 -0.606099,2.920278 0.08028,1.281776 0.312422,1.662253 2.214771,3.629898 1.791872,1.853376 2.677049,2.462813 5.645097,3.886618 1.936,0.928716 5.464,2.46062 7.84,3.404224 3.799462,1.508921 4.541708,1.930316 6.159999,3.497222 1.671991,1.618899 1.84,1.905776 1.84,3.141766 0,2.278922 -1.259363,4.003783 -3.684367,5.046221 -1.811581,0.778746 -8.627798,0.710461 -13.915632,-0.139408 -2.2,-0.353587 -5.833564,-0.893075 -8.074591,-1.198864 -4.026202,-0.549379 -4.102205,-0.548016 -6.4,0.1148 -4.060867,1.171386 -15.486047,2.124211 -19.798531,1.651143 z M 34.244366,88.72 c 0.0026,-0.484 0.0912,-1.204 0.197325,-1.6 0.154598,-0.57689 0.06132,-0.72 -0.469315,-0.72 -0.784224,0 -2.028319,-0.514966 -3.572378,-1.47871 -1.982257,-1.237255 -2.392358,-1.231079 -3.818658,0.0575 -1.06777,0.964669 -1.626029,1.209261 -3.177535,1.392199 -1.736345,0.204732 -3.563445,1.002608 -3.564068,1.55639 -1.44e-4,0.127942 2.187709,0.182858 4.861894,0.122032 5.658008,-0.128691 10.837359,0.635379 8.575142,1.265027 l -0.796775,0.22177 0.88,0.0319 c 0.753415,0.0273 0.880627,-0.09469 0.884368,-0.848103 z m -2.484368,0.34807 c -0.22,-0.08877 -0.58,-0.08877 -0.8,0 -0.22,0.08877 -0.04,0.161405 0.4,0.161405 0.44,0 0.62,-0.07263 0.4,-0.161405 z m -4.159999,-0.653904 c -0.396,-0.07627 -1.044,-0.07627 -1.44,0 -0.396,0.07627 -0.072,0.138679 0.72,0.138679 0.792,0 1.116,-0.06241 0.72,-0.138679 z M 49.279997,84.16 c 0.344013,-0.222317 0.0094,-0.311587 -1.181113,-0.315101 -0.913613,-0.0026 -1.750112,0.139101 -1.858886,0.315101 -0.257693,0.416954 2.394809,0.416954 3.039999,0 z m 5.916509,-0.437875 c 0.581113,-0.424922 0.579398,-0.448279 -0.05797,-0.789386 -0.673475,-0.360432 -1.194217,-0.261862 -3.778544,0.715226 l -1.28,0.483942 2.258839,0.01405 c 1.426518,0.0089 2.479491,-0.147299 2.85767,-0.42383 z M 37.357524,42.692573 c 0.39464,-0.255248 1.095056,-1.217495 1.55648,-2.13833 0.461424,-0.920832 1.031251,-1.893533 1.266285,-2.161552 0.53879,-0.614409 0.365238,-0.854611 -1.696061,-2.347398 -0.921673,-0.667475 -1.965673,-1.582144 -2.32,-2.032595 -0.453279,-0.576253 -0.64423,-0.66954 -0.64423,-0.31474 0,0.927306 -0.728048,0.984103 -1.475523,0.115111 l -0.730698,-0.849485 -0.496889,0.709411 c -0.790262,1.128259 -0.648006,1.787143 0.344873,1.597341 0.622061,-0.118912 0.803021,-0.04469 0.693335,0.284374 C 33.773457,35.799619 33.430664,36 33.093333,36 c -0.337335,0 -0.701088,0.119738 -0.808343,0.266083 -0.303457,0.414067 0.01709,2.771895 0.610512,4.490867 0.905347,2.62248 2.398563,3.270237 4.462022,1.935623 z m -3.437526,-1.215267 c 0,-0.06748 0.355642,-0.190682 0.790317,-0.273776 0.434672,-0.08309 0.714176,-0.02787 0.621114,0.122697 -0.163866,0.265139 -1.411431,0.398679 -1.411431,0.151079 z m 0.40609,-1.379063 c 0.31135,-0.08113 0.74335,-0.0758 0.96,0.01184 0.216649,0.08766 -0.03809,0.154039 -0.56609,0.147517 -0.528,-0.0065 -0.705261,-0.07824 -0.39391,-0.159373 z m 2.946281,-0.750585 c -0.32255,-0.521898 0.393927,-1.16936 0.821191,-0.742096 0.231417,0.231417 0.191145,0.45176 -0.131511,0.719539 -0.34375,0.285286 -0.523667,0.291171 -0.68968,0.02256 z m -4.632371,-0.326544 c 0,-0.186388 0.144,-0.249888 0.32,-0.141114 0.176,0.108774 0.32,0.261274 0.32,0.338886 0,0.07761 -0.144,0.141114 -0.32,0.141114 -0.176,0 -0.32,-0.152499 -0.32,-0.338886 z m 1.487738,-0.196752 C 34.329995,38.678963 34.568837,38.2 34.658501,37.76 c 0.140393,-0.688957 0.155974,-0.670173 0.112259,0.135322 -0.02864,0.527654 -0.259975,0.991564 -0.530762,1.064361 -0.320864,0.08626 -0.35808,0.0414 -0.112262,-0.135321 z m 5.552262,-0.923248 c 0,-0.274388 0.146349,-0.408436 0.325219,-0.297888 0.17887,0.110547 0.242374,0.335046 0.141114,0.498886 -0.274314,0.443853 -0.466333,0.361091 -0.466333,-0.200998 z M 36.197118,37.52 c -0.0264,-0.512118 0.142211,-0.72 0.583994,-0.72 0.68232,0 1.179884,0.555619 0.80712,0.90129 -0.129719,0.120291 -0.300138,0.03871 -0.378711,-0.18129 -0.20655,-0.578342 -0.6588,-0.491053 -0.828937,0.16 -0.110128,0.421411 -0.155533,0.381814 -0.183466,-0.16 z m -3.697401,-0.0481 c -0.121156,-0.196032 0.01453,-0.446528 0.30151,-0.556656 0.629331,-0.241498 1.35255,0.342496 0.826653,0.66752 -0.191335,0.118253 -0.350087,0.0265 -0.352781,-0.203882 -0.0039,-0.333683 -0.06086,-0.330576 -0.28,0.01526 -0.193146,0.304823 -0.340726,0.327984 -0.495382,0.07774 z m 3.329084,-1.805395 c -0.384796,-0.463651 -0.328774,-0.509149 0.509427,-0.413725 0.517975,0.05897 0.913376,0.251216 0.878672,0.427216 -0.107078,0.543053 -0.932867,0.535027 -1.388099,-0.0135 z M 20.119999,47.893334 C 20.038884,47.460723 19.930055,47.172813 19.380986,45.938272 18.314547,43.540458 17.853772,40.380246 18.001922,36.48 c 0.154597,-4.069974 0.736566,-6.173673 2.554344,-9.233433 1.539623,-2.591557 6.644682,-7.583115 10.163732,-9.937763 4.388714,-2.936551 4.96888,-3.562048 5.627504,-6.067212 C 36.875524,9.2332019 37.625976,7.36 37.902568,7.36 c 0.152963,0 -0.12521,5.979043 -0.32009,6.88 -0.07614,0.352 -1.580205,2.133383 -3.342371,3.958629 -4.949701,5.126888 -6.934518,8.014082 -8.362393,12.164275 -0.694545,2.018728 -0.795932,5.918901 -0.225641,8.679976 l 0.372074,1.801408 -2.818389,3.497856 c -1.550115,1.923821 -2.869548,3.557856 -2.932075,3.63119 -0.06253,0.07333 -0.131684,0.03733 -0.153684,-0.08 z m 31.352939,-3.116006 -3.727062,-2.549862 1.304073,-2.953735 c 2.929248,-6.634758 1.706394,-11.863915 -4.239327,-18.128141 -1.573626,-1.657926 -2.773527,-3.156175 -2.666439,-3.329443 0.107085,-0.173268 0.03478,-0.216195 -0.160684,-0.09539 C 41.783623,17.844287 41.379351,17.550866 41.059617,17.0502 40.746945,16.560588 40.247639,15.979553 39.950049,15.759008 39.16732,15.178922 38.764808,13.597042 38.749284,11.04 c -0.0075,-1.232 -0.08086,-2.564 -0.163068,-2.96 -0.08221,-0.396 -0.0303,-0.72 0.115353,-0.72 0.505738,0 1.317446,1.6129181 1.623277,3.225571 0.568563,2.998016 1.042537,3.582626 5.21918,6.437435 6.397693,4.372936 9.845987,8.277897 11.476224,12.996052 0.648742,1.877561 0.737872,2.731441 0.724518,6.940942 -0.01418,4.471923 -0.07981,4.984627 -0.96,7.501235 -0.519625,1.485677 -1.088771,2.738298 -1.264771,2.783597 -0.176,0.0453 -1.997177,-1.065078 -4.047059,-2.467504 z"
       id="path2628"
       inkscape:connector-curvature="0" />
    <path
       style="fill:#5ea09b;stroke-width:0.31999999"
       d="M 16.926875,93.425482 C 10.846332,92.758454 6.5793862,89.755613 7.1779948,86.564752 7.5389359,84.640774 8.517548,84.068813 15.121696,81.921974 c 7.899149,-2.567811 8.620204,-2.92072 11.118303,-5.441635 1.144,-1.154451 2.678555,-2.601107 3.410123,-3.214793 1.114297,-0.934746 1.345777,-1.332589 1.426593,-2.451888 0.06574,-0.910487 -0.07496,-1.525524 -0.441698,-1.930762 -1.028885,-1.136906 -1.5647,-3.378742 -1.745268,-7.302163 l -0.177616,-3.859271 -2.116067,-1.093164 c -2.394535,-1.237021 -5.798371,-4.342567 -5.791531,-5.283997 0.0047,-0.65376 1.6716,-2.722279 5.015243,-6.223789 l 1.985733,-2.079485 1.057244,1.010429 c 0.581484,0.555738 1.993243,1.409946 3.137243,1.89824 1.796023,0.766598 2.521063,0.89071 5.31056,0.909056 2.293939,0.01507 3.384057,-0.106083 3.76,-0.417933 0.29119,-0.241552 0.52944,-0.347126 0.52944,-0.234611 0,0.336499 3.12496,-1.352422 3.756393,-2.030189 0.576784,-0.619104 0.620522,-0.601808 3.273117,1.294327 1.478685,1.056998 3.225222,2.406694 3.881193,2.999324 0.655968,0.592631 1.49368,1.238602 1.861581,1.435498 l 0.668909,0.357987 -0.648096,1.270375 c -0.998263,1.956755 -4.61281,5.608508 -6.201942,6.265779 l -1.379792,0.570688 -0.204679,3.806585 c -0.157488,2.928944 -0.365094,4.149754 -0.900454,5.295002 -0.464378,0.993408 -0.665952,1.964618 -0.606099,2.920278 0.08028,1.281776 0.312422,1.662253 2.214771,3.629898 1.791872,1.853376 2.677049,2.462813 5.645097,3.886618 1.936,0.928716 5.464,2.46062 7.84,3.404224 3.799462,1.508921 4.541708,1.930316 6.159999,3.497222 1.671991,1.618899 1.84,1.905776 1.84,3.141766 0,2.278922 -1.259363,4.003783 -3.684367,5.046221 -1.811581,0.778746 -8.627798,0.710461 -13.915632,-0.139408 -2.2,-0.353587 -5.833564,-0.893075 -8.074591,-1.198864 -4.026202,-0.549379 -4.102205,-0.548016 -6.4,0.1148 -4.060867,1.171386 -15.486047,2.124211 -19.798531,1.651143 z M 34.239998,89 c 0,-0.33 0.09,-1.05 0.2,-1.6 0.172669,-0.863338 0.109127,-1 -0.464944,-1 -0.786739,0 -2.029489,-0.514026 -3.575056,-1.47871 -1.982257,-1.237255 -2.392358,-1.231079 -3.818658,0.0575 -1.06777,0.964669 -1.626029,1.209261 -3.177535,1.392199 -1.836829,0.216579 -3.563806,1.009555 -3.563806,1.63639 0,0.176067 1.083277,0.315354 2.48,0.31887 2.49688,0.0063 9.299892,0.78698 9.616465,1.103552 0.09361,0.09361 0.6502,0.170202 1.236869,0.170202 0.829628,0 1.066665,-0.133334 1.066665,-0.6 z m 15.039999,-4.84 c 0.344013,-0.222317 0.0094,-0.311587 -1.181113,-0.315101 -0.913613,-0.0026 -1.750112,0.139101 -1.858886,0.315101 -0.257693,0.416954 2.394809,0.416954 3.039999,0 z m 5.916509,-0.437875 c 0.581113,-0.424922 0.579398,-0.448279 -0.05797,-0.789386 -0.673475,-0.360432 -1.194217,-0.261862 -3.778544,0.715226 l -1.28,0.483942 2.258839,0.01405 c 1.426518,0.0089 2.479491,-0.147299 2.85767,-0.42383 z M 38.262856,43.977142 c -0.276573,-0.276569 -0.502858,-0.605283 -0.502858,-0.73047 0,-0.242781 1.999213,-3.975222 2.650592,-4.948541 0.332333,-0.496585 0.257024,-0.684195 -0.513808,-1.28 -0.496768,-0.383971 -1.667584,-1.386768 -2.601811,-2.228432 -1.318496,-1.187862 -1.740698,-1.420585 -1.886739,-1.04 -0.265267,0.691274 -1.082131,0.609107 -1.488234,-0.149699 -0.505616,-0.944749 -0.932009,-0.785149 -1.493667,0.559088 -0.351033,0.840141 -0.455735,1.822003 -0.349763,3.28 0.160544,2.208826 1.281792,5.279715 2.032989,5.567974 0.24774,0.09507 0.450441,0.39337 0.450441,0.662896 0,0.353572 -0.336633,0.490042 -1.208797,0.490042 -2.429117,0 -3.591203,-1.647766 -3.591203,-5.092106 0,-4.173785 1.761413,-7.210367 5.032275,-8.675374 3.933725,-1.7619 8.24912,0.978913 9.401453,5.971093 0.781331,3.384909 -0.287584,6.019846 -2.966311,7.312105 -1.951155,0.941268 -2.290239,0.975744 -2.964559,0.301424 z m -2.097959,-6.438256 c -0.0077,-0.599008 0.652659,-0.852505 1.062983,-0.408057 0.287865,0.311801 0.273449,0.346925 -0.06366,0.15512 -0.258096,-0.146848 -0.549667,-0.06813 -0.715101,0.193053 -0.183645,0.289942 -0.281001,0.310454 -0.284224,0.05988 z m -3.32871,-0.47744 c 0.09242,-0.149536 0.302083,-0.18904 0.465923,-0.08778 0.418682,0.258759 0.371539,0.359667 -0.168035,0.359667 -0.256259,0 -0.390307,-0.122348 -0.297888,-0.271887 z m 0.06381,-1.440041 c 0.230999,-0.09244 0.506999,-0.08107 0.613335,0.02525 0.106332,0.106336 -0.08267,0.181965 -0.42,0.16807 -0.372784,-0.01536 -0.448608,-0.09118 -0.193335,-0.193331 z m 2.94,-0.101405 c 0,-0.375587 0.245958,-0.375587 1.12,0 0.56712,0.243699 0.539789,0.277578 -0.24,0.297507 -0.484,0.01237 -0.88,-0.121507 -0.88,-0.297507 z"
       id="path2626"
       inkscape:connector-curvature="0" />
    <path
       style="fill:#d66741;stroke-width:0.31999999"
       d="m 18.079999,93.248758 c -2.694716,-0.394956 -6.873661,-1.556182 -8.059088,-2.239424 -1.5092538,-0.869881 -2.6609114,-2.29759 -2.6609114,-3.298732 0,-0.903776 0.2013574,-0.85226 1.5969567,0.408579 2.2428217,2.026256 6.8806197,3.063555 13.7460977,3.07448 4.381548,0.007 11.102915,-0.548362 11.856944,-0.979651 0.314189,-0.179709 0.341824,-0.277911 0.08,-0.284279 -0.486211,-0.01184 -0.499296,-0.47663 -0.06965,-2.473981 0.495578,-2.303827 0.683444,-2.474483 2.937863,-2.668732 1.837715,-0.158346 1.942563,-0.20586 1.211782,-0.549172 -1.036,-0.486694 -11.519907,-1.633984 -17.188976,-1.881043 -2.567667,-0.111901 -5.146523,-0.05457 -6.171023,0.137181 -0.968,0.181178 -1.81106,0.279091 -1.873467,0.217581 -0.06241,-0.06151 1.593593,-0.647472 3.68,-1.302144 5.727758,-1.797248 6.170713,-2.047872 10.0924,-5.710279 3.320645,-3.1011 3.634341,-3.494064 3.781066,-4.736486 0.148175,-1.254691 0.242779,-1.369648 1.28,-1.555392 1.729379,-0.309696 6.750259,-1.757414 8,-2.306717 1.488739,-0.654352 3.365072,-2.671104 3.777824,-4.060547 0.182988,-0.616 0.423286,-2.128 0.533993,-3.36 0.110704,-1.232 0.430723,-3.532259 0.711152,-5.111686 0.739152,-4.163066 1.082733,-2.683812 1.071063,4.611372 -0.0095,5.937456 -0.200189,7.44 -1.122954,8.848317 -0.270093,0.412215 -0.490432,1.366547 -0.489642,2.120739 0.0013,1.209956 0.209978,1.605028 1.774253,3.358564 0.97505,1.093014 1.766403,2.101014 1.758563,2.24 -0.0078,0.138982 0.09375,0.260992 0.225747,0.271136 0.132,0.01014 2.04,0.895552 4.24,1.967574 2.2,1.072026 5.368,2.480509 7.04,3.129962 7.582492,2.945267 9.855695,5.272505 8.488271,8.690038 -0.643932,1.609341 -1.786832,2.47545 -4.187471,3.173334 -2.662768,0.774087 -8.139619,0.474116 -17.482931,-0.957552 l -7.58213,-1.161801 -2.017869,0.631357 C 33.51727,92.599146 21.34094,93.726707 18.079994,93.248758 Z M 55.730202,83.6 c 0.280912,-0.282467 0.297846,-0.499949 0.05764,-0.740157 -0.545088,-0.545088 -2.057529,-0.426704 -3.882432,0.303895 -1.319267,0.528166 -2.070035,0.634297 -3.38975,0.47919 -1.62207,-0.190643 -3.281884,0.24353 -2.955622,0.773126 C 45.797351,84.80127 55.293312,84.039315 55.730202,83.6 Z M 38.486088,69.870099 c -0.21665,-0.08765 -0.64865,-0.09299 -0.96,-0.01187 -0.311351,0.08113 -0.13409,0.152851 0.39391,0.159373 0.528,0.0065 0.782739,-0.05986 0.56609,-0.147517 z m 2.07391,-0.01069 c -0.308,-0.08049 -0.812,-0.08049 -1.12,0 -0.308,0.08049 -0.056,0.146346 0.56,0.146346 0.616,0 0.868,-0.06586 0.56,-0.146346 z m 2.873334,-0.292749 c -0.106336,-0.106332 -0.382336,-0.117699 -0.613334,-0.02525 -0.255274,0.102151 -0.17945,0.177978 0.193334,0.193332 0.337331,0.01389 0.526333,-0.06174 0.42,-0.168071 z M 29.004278,56.8 c -0.101306,-0.264 -0.04471,-0.48 0.125764,-0.48 0.170476,0 0.309956,0.216 0.309956,0.48 0,0.264 -0.05659,0.48 -0.125763,0.48 -0.06917,0 -0.208651,-0.216 -0.309957,-0.48 z m 5.34501,-9.595683 c -0.665405,-0.271984 -0.0736,-0.341047 2.859056,-0.333648 2.033977,0.0051 3.657263,0.05025 3.607295,0.100269 -0.330137,0.330457 -5.750265,0.52608 -6.466351,0.233379 z m 3.913568,-3.227175 c -0.276573,-0.276569 -0.502858,-0.605283 -0.502858,-0.73047 0,-0.242781 1.999213,-3.975222 2.650592,-4.948541 0.332333,-0.496585 0.257024,-0.684195 -0.513808,-1.28 -0.496768,-0.383971 -1.667584,-1.386768 -2.601811,-2.228432 -1.318496,-1.187862 -1.740698,-1.420585 -1.886739,-1.04 -0.265267,0.691274 -1.082131,0.609107 -1.488234,-0.149699 -0.505616,-0.944749 -0.932009,-0.785149 -1.493667,0.559088 -0.351033,0.840141 -0.455735,1.822003 -0.349763,3.28 0.160544,2.208826 1.281792,5.279715 2.032989,5.567974 0.24774,0.09507 0.450441,0.39337 0.450441,0.662896 0,0.353572 -0.336633,0.490042 -1.208797,0.490042 -2.429117,0 -3.591203,-1.647766 -3.591203,-5.092106 0,-4.173785 1.761413,-7.210367 5.032275,-8.675374 3.933725,-1.7619 8.24912,0.978913 9.401453,5.971093 0.781331,3.384909 -0.287584,6.019846 -2.966311,7.312105 -1.951155,0.941268 -2.290239,0.975744 -2.964559,0.301424 z m -2.097959,-6.438256 c -0.0077,-0.599008 0.652659,-0.852505 1.062983,-0.408057 0.287865,0.311801 0.273449,0.346925 -0.06366,0.15512 -0.258096,-0.146848 -0.549667,-0.06813 -0.715101,0.193053 -0.183645,0.289942 -0.281001,0.310454 -0.284224,0.05988 z m -3.32871,-0.47744 c 0.09242,-0.149536 0.302083,-0.18904 0.465923,-0.08778 0.418682,0.258759 0.371539,0.359667 -0.168035,0.359667 -0.256259,0 -0.390307,-0.122348 -0.297888,-0.271887 z m 0.06381,-1.440041 c 0.230999,-0.09244 0.506999,-0.08107 0.613335,0.02525 0.106332,0.106336 -0.08267,0.181965 -0.42,0.16807 -0.372784,-0.01536 -0.448608,-0.09118 -0.193335,-0.193331 z m 2.94,-0.101405 c 0,-0.375587 0.245958,-0.375587 1.12,0 0.56712,0.243699 0.539789,0.277578 -0.24,0.297507 -0.484,0.01237 -0.88,-0.121507 -0.88,-0.297507 z"
       id="path2624"
       inkscape:connector-curvature="0" />
    <path
       style="fill:#5d9d7b;stroke-width:0.31999999"
       d="m 18.079999,93.248758 c -2.694716,-0.394956 -6.873661,-1.556182 -8.059088,-2.239424 -1.5092538,-0.869881 -2.6609114,-2.29759 -2.6609114,-3.298732 0,-0.903776 0.2013574,-0.85226 1.5969567,0.408579 2.2428217,2.026256 6.8806197,3.063555 13.7460977,3.07448 4.381548,0.007 11.102915,-0.548362 11.856944,-0.979651 0.314189,-0.179709 0.341824,-0.277911 0.08,-0.284279 -0.486211,-0.01184 -0.499296,-0.47663 -0.06965,-2.473981 0.495578,-2.303827 0.683444,-2.474483 2.937863,-2.668732 1.837715,-0.158346 1.942563,-0.20586 1.211782,-0.549172 -1.036,-0.486694 -11.519907,-1.633984 -17.188976,-1.881043 -2.567667,-0.111901 -5.146523,-0.05457 -6.171023,0.137181 -0.968,0.181178 -1.81106,0.279091 -1.873467,0.217581 -0.06241,-0.06151 1.593593,-0.647472 3.68,-1.302144 5.727758,-1.797248 6.170713,-2.047872 10.0924,-5.710279 3.320645,-3.1011 3.634341,-3.494064 3.781066,-4.736486 0.148175,-1.254691 0.242779,-1.369648 1.28,-1.555392 1.729379,-0.309696 6.750259,-1.757414 8,-2.306717 1.488739,-0.654352 3.365072,-2.671104 3.777824,-4.060547 0.182988,-0.616 0.423286,-2.128 0.533993,-3.36 0.110704,-1.232 0.430723,-3.532259 0.711152,-5.111686 0.739152,-4.163066 1.082733,-2.683812 1.071063,4.611372 -0.0095,5.937456 -0.200189,7.44 -1.122954,8.848317 -0.270093,0.412215 -0.490432,1.366547 -0.489642,2.120739 0.0013,1.209956 0.209978,1.605028 1.774253,3.358564 0.97505,1.093014 1.766403,2.101014 1.758563,2.24 -0.0078,0.138982 0.09375,0.260992 0.225747,0.271136 0.132,0.01014 2.04,0.895552 4.24,1.967574 2.2,1.072026 5.368,2.480509 7.04,3.129962 7.582492,2.945267 9.855695,5.272505 8.488271,8.690038 -0.643932,1.609341 -1.786832,2.47545 -4.187471,3.173334 -2.662768,0.774087 -8.139619,0.474116 -17.482931,-0.957552 l -7.58213,-1.161801 -2.017869,0.631357 C 33.51727,92.599146 21.34094,93.726707 18.079994,93.248758 Z M 55.730202,83.6 c 0.280912,-0.282467 0.297846,-0.499949 0.05764,-0.740157 -0.545088,-0.545088 -2.057529,-0.426704 -3.882432,0.303895 -1.319267,0.528166 -2.070035,0.634297 -3.38975,0.47919 -1.62207,-0.190643 -3.281884,0.24353 -2.955622,0.773126 C 45.797351,84.80127 55.293312,84.039315 55.730202,83.6 Z M 38.486088,69.870099 c -0.21665,-0.08765 -0.64865,-0.09299 -0.96,-0.01187 -0.311351,0.08113 -0.13409,0.152851 0.39391,0.159373 0.528,0.0065 0.782739,-0.05986 0.56609,-0.147517 z m 2.07391,-0.01069 c -0.308,-0.08049 -0.812,-0.08049 -1.12,0 -0.308,0.08049 -0.056,0.146346 0.56,0.146346 0.616,0 0.868,-0.06586 0.56,-0.146346 z m 2.873334,-0.292749 c -0.106336,-0.106332 -0.382336,-0.117699 -0.613334,-0.02525 -0.255274,0.102151 -0.17945,0.177978 0.193334,0.193332 0.337331,0.01389 0.526333,-0.06174 0.42,-0.168071 z M 29.004278,56.8 c -0.101306,-0.264 -0.04471,-0.48 0.125764,-0.48 0.170476,0 0.309956,0.216 0.309956,0.48 0,0.264 -0.05659,0.48 -0.125763,0.48 -0.06917,0 -0.208651,-0.216 -0.309957,-0.48 z m 5.34501,-9.595683 c -0.665405,-0.271984 -0.0736,-0.341047 2.859056,-0.333648 2.033977,0.0051 3.657263,0.05025 3.607295,0.100269 -0.330137,0.330457 -5.750265,0.52608 -6.466351,0.233379 z"
       id="path2622"
       inkscape:connector-curvature="0" />
    <path
       style="fill:#367692;stroke-width:0.31999999"
       d="m 18.079999,93.248758 c -2.694716,-0.394956 -6.873661,-1.556182 -8.059088,-2.239424 -1.5092538,-0.869881 -2.6609114,-2.29759 -2.6609114,-3.298732 0,-0.903776 0.2013574,-0.85226 1.5969567,0.408579 1.3666587,1.234694 4.2247667,2.279078 7.5230427,2.748998 2.905625,0.413978 9.44718,0.418125 13.646094,0.0086 4.236763,-0.413165 4.843492,-0.552992 4.538782,-1.046022 -0.283619,-0.458906 -0.186621,-1.83193 0.247792,-3.507591 0.335526,-1.294214 0.635955,-1.44638 3.167331,-1.604236 1.372048,-0.08556 1.40225,-0.107901 0.64,-0.47338 -1.026362,-0.492118 -11.467806,-1.639468 -17.188976,-1.8888 -2.567667,-0.111888 -5.146523,-0.05456 -6.171023,0.137194 -0.968,0.181178 -1.81106,0.279091 -1.873467,0.217581 -0.06241,-0.06151 1.593593,-0.647472 3.68,-1.302144 5.728621,-1.797517 6.153308,-2.038947 10.165667,-5.779075 3.445792,-3.212004 3.707799,-3.540304 3.707799,-4.645956 v -1.189721 l 5.565443,0.191238 c 4.725782,0.162384 5.76377,0.111882 6.88,-0.334742 l 1.314557,-0.525984 0.0013,1.197411 c 0.0013,0.998998 0.295193,1.526704 1.774252,3.184714 0.97505,1.093014 1.766403,2.101014 1.758563,2.24 -0.0078,0.138982 0.09375,0.260992 0.225748,0.271136 0.132,0.01014 2.04,0.895552 4.239999,1.967574 2.2,1.072026 5.368,2.480509 7.04,3.129962 7.461632,2.89832 9.887244,5.325366 8.541398,8.546435 -1.724317,4.126867 -6.661926,4.6628 -21.723528,2.357891 l -7.582131,-1.160307 -2.017869,0.631357 c -3.540592,1.107792 -15.716922,2.235353 -18.977868,1.757404 z M 55.556333,83.809843 C 55.812071,83.5976 55.96984,83.26953 55.906931,83.0808 c -0.244083,-0.732246 -1.699257,-0.72919 -3.701628,0.0078 -1.595136,0.587085 -2.396554,0.70633 -3.709747,0.55199 -1.60305,-0.188406 -3.260163,0.249421 -2.93511,0.775488 0.234249,0.379108 9.484613,-0.181891 9.995887,-0.606211 z"
       id="path2620"
       inkscape:connector-curvature="0" />
    <path
       style="fill:#266275;stroke-width:0.31999999"
       d="M 17.945249,92.939821 C 14.519156,92.432694 11.913139,91.733571 10.209883,90.864637 8.2626501,89.871232 6.5381491,87.36 7.8031964,87.36 c 0.2437584,0 0.6655401,0.339338 0.9372927,0.754086 1.7686059,2.699232 11.6078689,4.046164 21.4923759,2.942164 2.636077,-0.294423 4.86785,-0.610298 4.959495,-0.701946 0.09165,-0.09165 -0.07477,-0.343146 -0.369808,-0.558886 -0.295043,-0.215741 -0.437683,-0.552052 -0.316979,-0.747354 0.153993,-0.249165 1.316518,-0.07855 3.896943,0.571917 8.66465,2.184173 20.217247,2.906291 25.277481,1.580019 1.32,-0.345968 2.59942,-0.631501 2.843155,-0.634515 0.795625,-0.0099 -1.190365,1.29783 -3.241031,2.134057 -1.864047,0.760125 -2.233849,0.801911 -5.362124,0.605885 -1.848,-0.115798 -4.224,-0.336253 -5.28,-0.489897 -1.056,-0.153642 -4.509804,-0.662932 -7.675119,-1.131754 L 39.209755,90.83137 36.964878,91.482125 C 32.397393,92.80616 22.28058,93.58153 17.945249,92.939821 Z m 3.49475,-12.745584 c 0,-0.06917 0.223479,-0.21152 0.49662,-0.316336 0.284776,-0.109277 0.413223,-0.05563 0.301115,0.125763 -0.187923,0.304067 -0.797735,0.449744 -0.797735,0.190573 z m 3.114666,-1.513946 c 0.217067,-0.218694 0.475277,-0.317014 0.573801,-0.218489 0.09852,0.09852 -0.07908,0.277456 -0.394666,0.397625 -0.456064,0.173658 -0.49282,0.136903 -0.179135,-0.179136 z m 1.437714,-1.745481 c 0.30381,-0.317194 0.621261,-0.507834 0.705447,-0.423648 0.08419,0.08419 -0.164385,0.343705 -0.55238,0.576713 -0.674019,0.404775 -0.680838,0.397955 -0.153067,-0.153065 z m 1.20762,-1.312122 c 0,-0.04409 0.264,-0.221459 0.586666,-0.394144 0.421293,-0.225469 0.586667,-0.20287 0.586667,0.08017 0,0.216777 -0.264,0.394144 -0.586667,0.394144 -0.322666,0 -0.586666,-0.03608 -0.586666,-0.08017 z M 29.279998,73.92 c 0.318556,-0.352 0.651192,-0.64 0.739192,-0.64 0.088,0 -0.100636,0.288 -0.419192,0.64 -0.318555,0.352 -0.651192,0.64 -0.739192,0.64 -0.088,0 0.100637,-0.288 0.419192,-0.64 z m 5.44,-0.881386 c -1.232,-0.04476 -2.532976,-0.147721 -2.891058,-0.228793 -0.674044,-0.152611 -0.919343,-1.041523 -0.632398,-2.291683 0.15409,-0.671338 0.241738,-0.679348 5.679981,-0.518896 4.574332,0.13496 5.72968,0.07622 6.723475,-0.341812 l 1.2,-0.504774 v 1.571338 c 0,1.548745 -0.01725,1.57568 -1.2,1.873344 -1.384301,0.34839 -5.629846,0.559363 -8.88,0.441276 z"
       id="path2618"
       inkscape:connector-curvature="0" />
  </g>
  <path
     style="fill:#fad028;fill-opacity:1;stroke-width:0.1081356"
     d="m 45.235924,74.879875 c -0.377769,-0.61888 -0.470976,-1.051268 -0.39736,-1.84335 0.08244,-0.887062 0.0089,-0.95165 -0.725605,-0.636825 -0.278373,0.119324 -0.591042,0.189655 -0.694818,0.156291 -0.159417,-0.05125 -0.163525,-0.04256 -0.02648,0.05602 0.137748,0.09909 0.129595,0.118861 -0.05407,0.131142 -0.118949,0.008 -0.257889,0.007 -0.308755,-0.0021 -0.05087,-0.0091 -0.150138,0.03125 -0.220604,0.08973 -0.168086,0.139498 -2.119963,0.286884 -2.119963,0.160078 0,-0.05314 -0.316296,-0.09662 -0.702881,-0.09662 -0.386585,0 -0.702881,0.0365 -0.702881,0.0811 0,0.132275 -0.735234,0.09218 -0.780141,-0.04254 -0.02935,-0.08806 -0.101965,-0.09156 -0.252316,-0.01215 -0.180861,0.09552 -4.963512,0.01506 -6.537035,-0.109977 l -0.378475,-0.03007 0.540678,-0.178952 c 0.297373,-0.09842 0.44148,-0.182341 0.320237,-0.186484 -0.121242,-0.0041 -0.411331,0.08979 -0.644643,0.208742 -0.233312,0.118949 -0.43297,0.216271 -0.443684,0.216271 -0.01071,0 -0.05265,-0.13215 -0.09319,-0.293668 -0.04054,-0.161518 -0.234347,-0.51431 -0.430687,-0.783983 -1.149685,-1.579101 -1.513873,-3.502145 -1.747242,-9.226083 l -0.074,-1.815089 -1.308989,-0.666848 c -2.062476,-1.0507 -3.806897,-2.323086 -5.32713,-3.885623 -0.831237,-0.854368 -1.226436,-1.440259 -1.226436,-1.818218 0,-0.694919 1.757407,-2.837827 5.74108,-7.000432 l 1.16134,-1.213503 0.869466,0.785993 c 0.956135,0.864342 1.983861,1.496559 3.484443,2.143495 1.547553,0.667187 1.999495,0.74058 5.23435,0.850038 1.605813,0.05434 3.029148,0.130716 3.162966,0.169732 0.149408,0.04356 0.243305,0.02434 0.243305,-0.04981 0,-0.07196 -0.22939,-0.125886 -0.567712,-0.133466 l -0.567712,-0.01272 0.517485,-0.087 c 0.284618,-0.04785 0.688852,-0.188111 0.8983,-0.311688 0.209448,-0.123577 0.501073,-0.224686 0.648057,-0.224686 0.489035,0 2.722937,-1.232916 3.545003,-1.956528 0.263965,-0.23235 0.581163,-0.422455 0.704886,-0.422455 0.421343,0 3.980422,2.5393 6.490164,4.630545 0.737836,0.614803 1.601569,1.264586 1.919407,1.443962 0.317836,0.179376 0.577885,0.352214 0.577885,0.384085 0,0.169748 -0.97011,1.840672 -1.439847,2.480001 -0.693802,0.944291 -3.620252,3.86542 -4.400114,4.392113 -0.327462,0.221158 -0.974911,0.567092 -1.438777,0.768742 -0.463866,0.20165 -0.860093,0.384222 -0.880506,0.405714 -0.02041,0.02149 -0.102878,1.20694 -0.183256,2.63433 l -0.146144,2.595254 -0.06595,-1.567966 c -0.06008,-1.428602 -0.06405,-1.375739 -0.04461,0.594746 0.01227,1.243754 -0.01559,2.024868 -0.06556,1.838305 -0.05865,-0.218952 -0.07086,-0.102849 -0.03755,0.357168 0.03584,0.495025 0.01542,0.660606 -0.07461,0.604965 -0.08805,-0.05442 -0.104191,0.02222 -0.05571,0.264612 0.04323,0.216162 0.02498,0.341221 -0.0498,0.341221 -0.06493,0 -0.09259,0.09732 -0.06149,0.216271 0.03111,0.118949 0.01245,0.216271 -0.04146,0.216271 -0.05391,0 -0.09863,0.08516 -0.09938,0.189238 -7.57e-4,0.10408 -0.141718,0.465946 -0.313255,0.804146 -0.171536,0.3382 -0.289552,0.637242 -0.262257,0.664536 0.0273,0.0273 -0.02954,0.431841 -0.126298,0.89899 -0.203955,0.9847 -0.143679,1.891261 0.174423,2.623276 0.253593,0.583569 0.187611,0.706029 -0.114097,0.211756 z M 42.90791,72.536614 c -0.03329,-0.03329 -0.120548,-6.9e-5 -0.193901,0.07383 -0.106001,0.106797 -0.09358,0.119218 0.06054,0.06053 0.106645,-0.04061 0.16666,-0.101073 0.133366,-0.134367 z M 32.87322,72.342262 c -0.03593,-0.03593 -0.1292,-0.03977 -0.20726,-0.0085 -0.08626,0.03452 -0.06064,0.06014 0.06533,0.06533 0.113992,0.0047 0.177861,-0.02086 0.141928,-0.05679 z m 0.432543,-0.108135 c -0.03593,-0.03593 -0.129201,-0.03977 -0.207261,-0.0085 -0.08626,0.03452 -0.06064,0.06014 0.06533,0.06533 0.113992,0.0047 0.17786,-0.02086 0.141928,-0.05679 z m 0.432542,-0.108136 c -0.03593,-0.03593 -0.1292,-0.03977 -0.20726,-0.0085 -0.08626,0.03452 -0.06064,0.06014 0.06533,0.06533 0.113992,0.0047 0.17786,-0.02086 0.141928,-0.05679 z m 0.432542,-0.108136 c -0.03593,-0.03593 -0.1292,-0.03977 -0.20726,-0.0085 -0.08626,0.03452 -0.06064,0.06014 0.06533,0.06533 0.113993,0.0047 0.177861,-0.02086 0.141928,-0.0568 z m 10.808579,-0.171214 c -0.03452,-0.08626 -0.06014,-0.06064 -0.06533,0.06533 -0.0047,0.113993 0.02086,0.177861 0.05679,0.141928 0.03593,-0.03593 0.03977,-0.1292 0.0085,-0.20726 z M 34.60339,71.90972 c -0.03593,-0.03593 -0.129201,-0.03977 -0.207261,-0.0085 -0.08626,0.03452 -0.06064,0.06014 0.06533,0.06533 0.113992,0.0047 0.17786,-0.02086 0.141928,-0.0568 z m 0.432542,-0.108136 c -0.03593,-0.03593 -0.1292,-0.03977 -0.20726,-0.0085 -0.08626,0.03452 -0.06064,0.06014 0.06533,0.06533 0.113992,0.0047 0.17786,-0.02086 0.141928,-0.05679 z m 0.432542,-0.108135 c -0.03593,-0.03593 -0.1292,-0.03977 -0.20726,-0.0085 -0.08626,0.03452 -0.06064,0.06014 0.06533,0.06533 0.113992,0.0047 0.17786,-0.02086 0.141927,-0.05679 z m 0.75695,-0.216272 c -0.03593,-0.03593 -0.129201,-0.03977 -0.207261,-0.0085 -0.08626,0.03452 -0.06064,0.06014 0.06533,0.06533 0.113992,0.0047 0.17786,-0.02086 0.141928,-0.05679 z m 0.948439,-0.259074 c 0.13632,-0.05858 0.156307,-0.09293 0.05407,-0.09293 -0.08921,0 -0.259525,0.04182 -0.378474,0.09293 -0.13632,0.05858 -0.156308,0.09293 -0.05407,0.09293 0.08921,0 0.259525,-0.04182 0.378475,-0.09293 z m 1.081356,-0.324407 c 0.13632,-0.05858 0.156307,-0.09294 0.05407,-0.09294 -0.08921,0 -0.259525,0.04182 -0.378474,0.09294 -0.13632,0.05858 -0.156308,0.09293 -0.05407,0.09293 0.08921,0 0.259525,-0.04182 0.378475,-0.09293 z m 1.892372,-0.648813 c 0.08921,-0.05765 0.113543,-0.104824 0.05407,-0.104824 -0.05947,0 -0.181127,0.04717 -0.270339,0.104824 -0.08921,0.05765 -0.113542,0.104823 -0.05407,0.104823 0.05947,0 0.181128,-0.04717 0.270339,-0.104823 z m 0.865085,-0.49422 c 0,-0.02974 -0.09732,-0.002 -0.216271,0.06168 -0.118949,0.06366 -0.216271,0.140076 -0.216271,0.169813 0,0.02974 0.09732,0.002 0.216271,-0.06168 0.118949,-0.06366 0.216271,-0.140076 0.216271,-0.169813 z M 42.05825,68.93057 c 0.287316,-0.272353 0.668375,-0.659796 0.846799,-0.860982 0.261248,-0.294579 -0.301685,0.214843 -1.730169,1.565701 -0.05947,0.05624 -0.0026,0.03211 0.126421,-0.05364 0.129007,-0.08574 0.469634,-0.378728 0.756949,-0.651082 z m 1.641362,-1.923598 c 0.351558,-0.625512 0.221762,-0.543015 -0.191429,0.121672 -0.191591,0.308205 -0.282373,0.50562 -0.20174,0.4387 0.08063,-0.06692 0.25756,-0.319088 0.393169,-0.560372 z m 0.43974,-0.979378 c -0.0039,-0.106952 -0.0376,-0.08853 -0.09888,0.05407 -0.127743,0.297275 -0.127743,0.468008 0,0.270339 0.05765,-0.08921 0.102149,-0.235195 0.09888,-0.324407 z m 0.08312,-0.452817 c -0.03452,-0.08626 -0.06014,-0.06064 -0.06533,0.06533 -0.0047,0.113992 0.02086,0.17786 0.0568,0.141928 0.03593,-0.03593 0.03977,-0.129201 0.0085,-0.20726 z m 0.105883,-0.655572 c -0.03,-0.07434 -0.05454,-0.01352 -0.05454,0.135169 0,0.148687 0.02454,0.209513 0.05454,0.13517 0.03,-0.07434 0.03,-0.195996 0,-0.270339 z m 0.111061,-0.702882 c -0.0272,-0.10408 -0.04945,-0.01892 -0.04945,0.189237 0,0.208162 0.02225,0.293318 0.04945,0.189238 0.0272,-0.104081 0.0272,-0.274394 0,-0.378475 z m 0.108135,-0.756949 c -0.0272,-0.10408 -0.04945,-0.01892 -0.04945,0.189237 0,0.208161 0.02225,0.293318 0.04945,0.189238 0.0272,-0.104081 0.0272,-0.274394 0,-0.378475 z m 0.110075,-1.026027 c -0.02587,-0.134511 -0.04801,-0.04992 -0.04921,0.187976 -0.0012,0.237898 0.01996,0.347953 0.04703,0.244566 0.02707,-0.103387 0.02805,-0.298031 0.0022,-0.432542 z m 0.106197,-0.920414 c -0.0272,-0.10408 -0.04945,-0.01892 -0.04945,0.189238 0,0.208161 0.02225,0.293317 0.04945,0.189237 0.0272,-0.104081 0.0272,-0.274394 0,-0.378475 z m 0.108135,-0.865084 c -0.0272,-0.104081 -0.04945,-0.01892 -0.04945,0.189237 0,0.208161 0.02226,0.293318 0.04945,0.189237 0.0272,-0.10408 0.0272,-0.274394 0,-0.378474 z m 1.519809,-2.649323 c -0.02004,-0.490665 -0.03643,-0.08921 -0.03643,0.892119 0,0.981331 0.01639,1.382784 0.03643,0.892119 0.02004,-0.490665 0.02004,-1.293572 0,-1.784238 z m -16.95126,2.108645 c -0.0013,-0.148817 -0.0217,-0.157594 -0.0955,-0.04109 -0.07578,0.119616 -0.116468,0.109205 -0.211327,-0.05407 -0.06461,-0.111216 -0.118961,-0.151117 -0.12077,-0.08867 -0.0038,0.132515 0.217164,0.373068 0.342746,0.373068 0.04758,0 0.08576,-0.08516 0.08485,-0.189237 z M 44.98049,59.892957 c -0.02742,-0.105212 -0.05165,-0.04531 -0.05386,0.133112 -0.0022,0.178424 0.02023,0.264506 0.04985,0.191295 0.02962,-0.07321 0.03142,-0.219194 0.004,-0.324407 z M 29.171829,59.431323 c 0.08049,0 0.16929,0.07395 0.197335,0.164323 0.03565,0.114905 0.04572,0.106775 0.03348,-0.02703 -0.02144,-0.234316 -0.439019,-0.261012 -0.45602,-0.02915 -0.0068,0.09326 0.0074,0.104747 0.03348,0.02703 0.02496,-0.07434 0.111231,-0.13517 0.191721,-0.13517 z M 45.08863,59.136008 c -0.02742,-0.105213 -0.05165,-0.04531 -0.05386,0.133112 -0.0022,0.178423 0.02023,0.264506 0.04985,0.191295 0.02962,-0.07321 0.03142,-0.219194 0.004,-0.324407 z m 0.108136,-0.648814 c -0.02742,-0.105212 -0.05165,-0.04531 -0.05386,0.133112 -0.0022,0.178424 0.02023,0.264506 0.04985,0.191295 0.02962,-0.07321 0.03142,-0.219194 0.004,-0.324407 z m 0.108135,-0.648813 c -0.02742,-0.105213 -0.05165,-0.04531 -0.05386,0.133112 -0.0022,0.178423 0.02023,0.264506 0.04985,0.191295 0.02962,-0.07321 0.03142,-0.219194 0.004,-0.324407 z m 0.104815,-0.596804 c -0.03,-0.07434 -0.05454,-0.01352 -0.05454,0.13517 0,0.148686 0.02454,0.209513 0.05454,0.135169 0.03,-0.07434 0.03,-0.195995 0,-0.270339 z m 0.110388,-0.533919 c -0.03452,-0.08626 -0.06014,-0.06064 -0.06533,0.06533 -0.0047,0.113992 0.02086,0.17786 0.05679,0.141928 0.03593,-0.03593 0.03977,-0.1292 0.0085,-0.20726 z m 0.759561,-0.546176 c -0.02587,-0.134511 -0.04801,-0.04992 -0.04921,0.187977 -0.0012,0.237898 0.01996,0.347953 0.04703,0.244565 0.02707,-0.103387 0.02805,-0.298031 0.0022,-0.432542 z m -0.651425,0.0055 c -0.03452,-0.08626 -0.06014,-0.06064 -0.06533,0.06533 -0.0047,0.113993 0.02086,0.17786 0.05679,0.141928 0.03593,-0.03593 0.03977,-0.1292 0.0085,-0.20726 z m 0.488396,-0.758341 c -0.12972,-0.12972 -0.349818,-0.02327 -0.337456,0.163218 0.0062,0.09286 0.02375,0.09108 0.06308,-0.0064 0.08052,-0.199538 0.251483,-0.164165 0.261328,0.05407 0.0058,0.127895 0.02724,0.142354 0.06623,0.04461 0.03173,-0.07955 0.0078,-0.194527 -0.05318,-0.25551 z m -9.294214,-5.031748 c -0.252767,-0.02277 -0.666386,-0.02277 -0.919153,0 -0.252767,0.02277 -0.04596,0.04139 0.459577,0.04139 0.505534,0 0.712343,-0.01863 0.459576,-0.04139 z m -1.892373,-0.103499 c -0.104081,-0.0272 -0.274394,-0.0272 -0.378475,0 -0.10408,0.0272 -0.01892,0.04945 0.189238,0.04945 0.208161,0 0.293317,-0.02225 0.189237,-0.04945 z m 4.055085,-0.0037 c -0.193293,-0.02399 -0.509589,-0.02399 -0.702882,0 -0.193292,0.02399 -0.03514,0.04361 0.351441,0.04361 0.386585,0 0.544733,-0.01963 0.351441,-0.04361 z m -4.730933,-0.138046 c -0.03886,-0.06287 0.08295,-0.1143 0.290991,-0.122862 0.267533,-0.01101 0.294445,-0.02681 0.106653,-0.06262 -0.316124,-0.06028 -0.59482,0.04141 -0.506252,0.184717 0.03702,0.05989 0.09163,0.1089 0.121372,0.1089 0.02974,0 0.02399,-0.04866 -0.01276,-0.108136 z m 5.866357,0.03359 c -0.104081,-0.0272 -0.274395,-0.0272 -0.378475,0 -0.104081,0.0272 -0.01892,0.04945 0.189237,0.04945 0.208161,0 0.293318,-0.02225 0.189238,-0.04945 z"
     id="path2632"
     inkscape:connector-curvature="0" />
  <path
     style="fill:#fad028;fill-opacity:1;stroke-width:0.1081356"
     d="m 45.120949,74.609605 c -0.0852,-0.170301 -0.180682,-0.771917 -0.212184,-1.336926 -0.05658,-1.014879 -0.06054,-1.027058 -0.327614,-1.008253 -0.434849,0.03062 -1.310702,0.310319 -1.228654,0.392367 0.04136,0.04137 -0.05743,0.07521 -0.219536,0.07521 -0.191524,0 -0.268303,-0.04278 -0.219242,-0.122164 0.04624,-0.07482 0.01728,-0.101011 -0.07472,-0.06758 -0.08262,0.03002 -0.139003,0.106483 -0.125291,0.169921 0.03641,0.168477 -0.714853,0.247245 -2.187643,0.229367 -0.713695,-0.0087 -1.394949,-0.0054 -1.513898,0.0073 -0.435868,0.04652 -6.819035,-0.115828 -7.020479,-0.178561 -0.193321,-0.0602 -0.189522,-0.07496 0.05407,-0.209906 0.234487,-0.129905 0.23929,-0.145149 0.04573,-0.145149 -0.11895,0 -0.337924,0.06954 -0.486611,0.15454 -0.343363,0.196284 -0.540678,0.202403 -0.540678,0.01677 0,-0.07999 -0.202296,-0.457114 -0.449548,-0.838051 -1.122448,-1.729338 -1.449653,-3.407269 -1.71539,-8.796649 -0.06142,-1.245593 -0.122537,-2.271674 -0.135822,-2.28018 -0.01328,-0.0085 -0.598539,-0.314657 -1.300564,-0.680335 -1.43216,-0.746 -2.597608,-1.497545 -3.653809,-2.356179 -0.995155,-0.809007 -2.499974,-2.396721 -2.726458,-2.87665 -0.167705,-0.355373 -0.172119,-0.442252 -0.03846,-0.756949 0.197066,-0.46399 0.909371,-1.419475 1.95888,-2.627638 0.947264,-1.090463 4.713902,-5.135151 4.782138,-5.135151 0.02423,0 0.394798,0.305541 0.82349,0.678979 1.390835,1.211568 3.523191,2.355772 5.095797,2.73436 0.381339,0.0918 1.827743,0.212208 3.440927,0.286438 1.677077,0.07717 2.729905,0.16609 2.649322,0.223755 -0.08226,0.05887 0.0067,0.07138 0.231235,0.03252 0.200727,-0.03475 0.456197,-0.06317 0.567712,-0.06317 0.111515,0 0.202754,-0.04866 0.202754,-0.108136 0,-0.05947 -0.133818,-0.10929 -0.297373,-0.110702 -0.232385,-0.002 -0.155582,-0.06099 0.351441,-0.269912 0.356847,-0.147041 0.892118,-0.33903 1.189491,-0.426644 0.647039,-0.190635 1.971415,-0.933585 2.993354,-1.679216 0.408056,-0.297727 0.842911,-0.541322 0.966346,-0.541322 0.431916,0 3.011539,1.814095 6.17434,4.342046 0.909007,0.726548 1.88388,1.465254 2.166384,1.641571 0.282505,0.176316 0.513644,0.375305 0.513644,0.442199 0,0.187387 -0.915414,1.75034 -1.404823,2.398558 -0.607519,0.804655 -2.241294,2.500713 -3.43529,3.566254 -0.773355,0.690154 -1.259541,1.019384 -2.135678,1.446212 -0.91672,0.446598 -1.136418,0.598605 -1.145008,0.79222 -0.0058,0.131771 -0.07162,1.066821 -0.146166,2.077889 -0.09948,1.349331 -0.144456,1.651344 -0.169071,1.135424 -0.01844,-0.386585 -0.06839,0.173017 -0.110985,1.243559 -0.09171,2.30488 -0.210436,3.021118 -0.686056,4.13885 -0.576231,1.354174 -0.77132,3.531007 -0.381696,4.259025 0.06208,0.115992 0.09571,0.262377 0.07473,0.3253 -0.02097,0.06292 -0.107843,-0.02493 -0.193042,-0.195232 z M 32.87322,72.342262 c -0.03593,-0.03593 -0.1292,-0.03977 -0.20726,-0.0085 -0.08626,0.03452 -0.06064,0.06014 0.06533,0.06533 0.113992,0.0047 0.177861,-0.02086 0.141928,-0.05679 z m 0.432543,-0.108135 c -0.03593,-0.03593 -0.129201,-0.03977 -0.207261,-0.0085 -0.08626,0.03452 -0.06064,0.06014 0.06533,0.06533 0.113992,0.0047 0.17786,-0.02086 0.141928,-0.05679 z m 0.432542,-0.108136 c -0.03593,-0.03593 -0.1292,-0.03977 -0.20726,-0.0085 -0.08626,0.03452 -0.06064,0.06014 0.06533,0.06533 0.113992,0.0047 0.17786,-0.02086 0.141928,-0.05679 z m 0.432542,-0.108136 c -0.03593,-0.03593 -0.1292,-0.03977 -0.20726,-0.0085 -0.08626,0.03452 -0.06064,0.06014 0.06533,0.06533 0.113993,0.0047 0.177861,-0.02086 0.141928,-0.0568 z m 10.808579,-0.171214 c -0.03452,-0.08626 -0.06014,-0.06064 -0.06533,0.06533 -0.0047,0.113993 0.02086,0.177861 0.05679,0.141928 0.03593,-0.03593 0.03977,-0.1292 0.0085,-0.20726 z M 34.60339,71.90972 c -0.03593,-0.03593 -0.129201,-0.03977 -0.207261,-0.0085 -0.08626,0.03452 -0.06064,0.06014 0.06533,0.06533 0.113992,0.0047 0.17786,-0.02086 0.141928,-0.0568 z m 0.432542,-0.108136 c -0.03593,-0.03593 -0.1292,-0.03977 -0.20726,-0.0085 -0.08626,0.03452 -0.06064,0.06014 0.06533,0.06533 0.113992,0.0047 0.17786,-0.02086 0.141928,-0.05679 z m 0.432542,-0.108135 c -0.03593,-0.03593 -0.1292,-0.03977 -0.20726,-0.0085 -0.08626,0.03452 -0.06064,0.06014 0.06533,0.06533 0.113992,0.0047 0.17786,-0.02086 0.141927,-0.05679 z m 0.75695,-0.216272 c -0.03593,-0.03593 -0.129201,-0.03977 -0.207261,-0.0085 -0.08626,0.03452 -0.06064,0.06014 0.06533,0.06533 0.113992,0.0047 0.17786,-0.02086 0.141928,-0.05679 z m 1.002506,-0.259074 c 0.134316,-0.0868 0.12502,-0.104823 -0.05407,-0.104823 -0.11895,0 -0.289263,0.04717 -0.378475,0.104823 -0.134315,0.0868 -0.12502,0.104823 0.05407,0.104823 0.118949,0 0.289262,-0.04717 0.378474,-0.104823 z m 1.081356,-0.324407 c 0.134316,-0.0868 0.12502,-0.104823 -0.05407,-0.104823 -0.11895,0 -0.289263,0.04717 -0.378475,0.104823 -0.134315,0.0868 -0.12502,0.104824 0.05407,0.104824 0.118949,0 0.289262,-0.04717 0.378474,-0.104824 z m 1.892373,-0.648813 c 0.03676,-0.05948 -0.0062,-0.108136 -0.09537,-0.108136 -0.08921,0 -0.192277,0.04866 -0.229035,0.108136 -0.03676,0.05947 0.0062,0.108135 0.09537,0.108135 0.08921,0 0.192277,-0.04866 0.229034,-0.108135 z m 0.69975,-0.320183 c 0.08749,-0.05533 0.13095,-0.128722 0.09658,-0.163094 -0.08518,-0.08518 -0.417854,0.05051 -0.417854,0.170439 0,0.123251 0.119077,0.120529 0.321275,-0.0073 z m 1.354827,-1.119567 c 0.416322,-0.384517 0.727958,-0.729422 0.692525,-0.766455 -0.03543,-0.03703 -0.473383,0.324818 -0.973221,0.804115 -1.063232,1.019538 -0.83008,0.988257 0.280696,-0.03766 z m 1.646502,-2.194369 c -0.08185,-0.08185 -0.619512,0.726276 -0.617943,0.928796 6.49e-4,0.09028 0.153369,-0.06843 0.339264,-0.352674 0.185895,-0.284245 0.311301,-0.5435 0.278679,-0.576122 z m 0.244215,-0.50845 c -0.0013,-0.192614 -0.02126,-0.206589 -0.10648,-0.07472 -0.137677,0.213041 -0.137677,0.463564 0,0.378475 0.05947,-0.03676 0.10739,-0.173447 0.10648,-0.303755 z m 0.07552,-0.527537 c -0.03452,-0.08626 -0.06014,-0.06064 -0.06533,0.06533 -0.0047,0.113992 0.02086,0.17786 0.0568,0.141928 0.03593,-0.03593 0.03977,-0.129201 0.0085,-0.20726 z m 0.105883,-0.655572 c -0.03,-0.07434 -0.05454,-0.01352 -0.05454,0.135169 0,0.148687 0.02454,0.209513 0.05454,0.13517 0.03,-0.07434 0.03,-0.195996 0,-0.270339 z m 0.108136,-0.648814 c -0.03,-0.07434 -0.05454,-0.01352 -0.05454,0.135169 0,0.148687 0.02454,0.209513 0.05454,0.13517 0.03,-0.07434 0.03,-0.195996 0,-0.270339 z m 0.108135,-0.756949 c -0.03,-0.07434 -0.05454,-0.01352 -0.05454,0.135169 0,0.148687 0.02454,0.209513 0.05454,0.13517 0.03,-0.07434 0.03,-0.195996 0,-0.270339 z m 0.111457,-1.025231 c -0.02742,-0.105212 -0.05165,-0.04531 -0.05386,0.133112 -0.0022,0.178424 0.02023,0.264506 0.04985,0.191295 0.02962,-0.07321 0.03142,-0.219194 0.004,-0.324407 z m 0.104814,-0.92121 c -0.03,-0.07434 -0.05454,-0.01352 -0.05454,0.13517 0,0.148686 0.02455,0.209512 0.05454,0.135169 0.03,-0.07434 0.03,-0.195996 0,-0.270339 z m 0.108136,-0.865085 c -0.03,-0.07434 -0.05454,-0.01352 -0.05454,0.13517 0,0.148686 0.02454,0.209513 0.05454,0.135169 0.03,-0.07434 0.03,-0.195995 0,-0.270339 z M 29.442167,60.116182 c 0,-0.09912 -0.03202,-0.148208 -0.07115,-0.109074 -0.03913,0.03913 -0.136456,0.01695 -0.216271,-0.04929 -0.110099,-0.09137 -0.145119,-0.08245 -0.145119,0.03698 0,0.196055 0.100913,0.301602 0.288362,0.301602 0.0793,0 0.14418,-0.0811 0.14418,-0.180226 z m 15.535007,-0.171215 c -0.03,-0.07434 -0.05454,-0.01352 -0.05454,0.13517 0,0.148686 0.02454,0.209512 0.05454,0.135169 0.03,-0.07434 0.03,-0.195996 0,-0.270339 z m 1.413868,-1.622034 c -0.02184,-0.312241 -0.03972,-0.05677 -0.03972,0.567712 0,0.624483 0.01787,0.879954 0.03972,0.567712 0.02184,-0.312242 0.02184,-0.823182 0,-1.135424 z m -17.074439,1.246132 c 0.130764,0.107873 0.150735,0.102353 0.107104,-0.02961 -0.0295,-0.08921 -0.142842,-0.162204 -0.251878,-0.162204 -0.109037,0 -0.220552,0.07299 -0.247811,0.162204 -0.03954,0.129387 -0.02109,0.135377 0.09114,0.02961 0.11111,-0.104704 0.174517,-0.104704 0.301441,0 z m 15.768706,-0.381047 c -0.03,-0.07434 -0.05454,-0.01352 -0.05454,0.13517 0,0.148686 0.02454,0.209512 0.05454,0.135169 0.03,-0.07434 0.03,-0.195996 0,-0.270339 z m 0.108136,-0.648814 c -0.03,-0.07434 -0.05454,-0.01352 -0.05454,0.13517 0,0.148686 0.02454,0.209513 0.05454,0.135169 0.03,-0.07434 0.03,-0.195995 0,-0.270339 z m 0.108135,-0.648813 c -0.03,-0.07434 -0.05454,-0.01352 -0.05454,0.135169 0,0.148687 0.02454,0.209513 0.05454,0.13517 0.03,-0.07434 0.03,-0.195996 0,-0.270339 z m 0.108136,-0.648814 c -0.03,-0.07434 -0.05454,-0.01352 -0.05454,0.13517 0,0.148686 0.02454,0.209513 0.05454,0.135169 0.03,-0.07434 0.03,-0.195995 0,-0.270339 z m 0.110388,-0.533919 c -0.03452,-0.08626 -0.06014,-0.06064 -0.06533,0.06533 -0.0047,0.113993 0.02086,0.17786 0.05679,0.141928 0.03593,-0.03593 0.03977,-0.1292 0.0085,-0.20726 z m 0.758018,-0.491311 c -0.02742,-0.105212 -0.05165,-0.04531 -0.05386,0.133112 -0.0022,0.178423 0.02023,0.264506 0.04985,0.191295 0.02962,-0.07321 0.03142,-0.219194 0.004,-0.324407 z M 45.62824,56.16698 c -0.03452,-0.08626 -0.06014,-0.06064 -0.06533,0.06533 -0.0047,0.113993 0.02086,0.17786 0.05679,0.141928 0.03593,-0.03593 0.03977,-0.1292 0.0085,-0.20726 z m 0.537629,-0.677942 c -0.08151,-0.212414 -0.395227,-0.21881 -0.395227,-0.0081 0,0.09674 0.0634,0.134481 0.162204,0.09657 0.09186,-0.03525 0.162203,-0.0025 0.162203,0.07549 0,0.07575 0.03034,0.107385 0.06743,0.0703 0.03708,-0.03708 0.03861,-0.142516 0.0034,-0.234293 z m -9.505651,-5.110422 c -0.163555,-0.02478 -0.43119,-0.02478 -0.594745,0 -0.163555,0.02478 -0.02974,0.04505 0.297373,0.04505 0.32711,0 0.460928,-0.02027 0.297372,-0.04505 z m -1.784237,-0.102299 c -0.07434,-0.03 -0.195996,-0.03 -0.270339,0 -0.07434,0.03 -0.01352,0.05454 0.13517,0.05454 0.148686,0 0.209512,-0.02454 0.135169,-0.05454 z m 4.001017,-0.0047 c -0.133818,-0.02577 -0.352792,-0.02577 -0.48661,0 -0.133818,0.02578 -0.02433,0.04686 0.243305,0.04686 0.267636,0 0.377123,-0.02109 0.243305,-0.04686 z m -4.391852,-0.193357 0.309733,-0.161538 -0.35144,-6.7e-4 c -0.240598,-4.52e-4 -0.351441,0.0505 -0.351441,0.161541 0,0.20003 0.01085,0.200048 0.393148,6.71e-4 z"
     id="path2634"
     inkscape:connector-curvature="0" />
  <path
     style="fill:#fad028;fill-opacity:1;stroke-width:0.1081356"
     d="m 45.087141,74.511213 c -0.120784,-0.25329 -0.182138,-0.660159 -0.183239,-1.215169 -0.0022,-1.134928 -0.0349,-1.171757 -0.821969,-0.927121 -0.349914,0.108761 -0.652426,0.234946 -0.672251,0.280412 -0.01982,0.04547 -0.156514,0.08267 -0.303755,0.08267 -0.171431,0 -0.240556,-0.04393 -0.192208,-0.122164 0.04332,-0.07009 0.01953,-0.103507 -0.0558,-0.0784 -0.07221,0.02407 -0.115484,0.08564 -0.09615,0.136811 0.01933,0.05117 -0.08019,0.135709 -0.22115,0.187854 -0.448342,0.165852 -9.657716,0.091 -10.50309,-0.08536 l -0.270232,-0.05638 0.270232,-0.149552 c 0.237731,-0.131567 0.244221,-0.149554 0.05396,-0.149554 -0.11895,0 -0.337924,0.06954 -0.486611,0.15454 -0.328912,0.188023 -0.540678,0.203849 -0.540678,0.0404 0,-0.06699 -0.242044,-0.517105 -0.537877,-1.000255 -1.082365,-1.767704 -1.351084,-3.186594 -1.630592,-8.609853 -0.06589,-1.27854 -0.128051,-2.331298 -0.138127,-2.339463 -0.01008,-0.0082 -0.47706,-0.244257 -1.037744,-0.524653 -2.222971,-1.111699 -3.889065,-2.320164 -5.501888,-3.990677 -0.553518,-0.573317 -1.078986,-1.216124 -1.167705,-1.42846 -0.148986,-0.356573 -0.144513,-0.420757 0.05855,-0.840238 0.413801,-0.854798 2.265147,-3.019638 5.605054,-6.554171 l 1.070733,-1.133129 0.69361,0.604164 c 0.905645,0.788855 1.777805,1.368889 2.910389,1.935569 1.898455,0.949876 2.687807,1.098841 6.631218,1.251435 1.249208,0.04834 1.876977,0.110283 1.784237,0.176057 -0.09492,0.06732 -0.02023,0.08021 0.221876,0.03831 0.200727,-0.03475 0.456197,-0.06317 0.567712,-0.06317 0.324908,0 0.233497,-0.215563 -0.09462,-0.223126 l -0.297373,-0.0069 0.270339,-0.114041 c 0.148687,-0.06272 0.732619,-0.279886 1.297627,-0.482586 1.057999,-0.379562 2.604258,-1.237277 3.460339,-1.919462 0.267636,-0.213271 0.601647,-0.388237 0.742249,-0.388814 0.458661,-0.0019 2.818316,1.64363 6.139983,4.281738 0.841235,0.66812 1.802291,1.395873 2.135678,1.61723 0.333387,0.221357 0.606158,0.446177 0.606158,0.4996 0,0.171423 -0.443818,0.983377 -1.023659,1.872755 -0.621372,0.95308 -2.523264,2.99859 -3.946714,4.244742 -0.625741,0.547801 -1.230636,0.954693 -1.91213,1.286219 -0.548261,0.266714 -1.050915,0.550092 -1.117009,0.629731 -0.06661,0.08026 -0.177057,1.02892 -0.247805,2.128492 -0.07307,1.135704 -0.153861,1.821908 -0.188986,1.605224 -0.03374,-0.208161 -0.09229,0.375771 -0.130095,1.297627 -0.08039,1.960022 -0.195408,2.634532 -0.628247,3.684174 -0.327666,0.794599 -0.644741,2.308718 -0.645349,3.081708 -2.16e-4,0.241972 0.07596,0.696886 0.169215,1.010919 0.201392,0.67816 0.156957,0.804963 -0.09611,0.274275 z m -7.859211,-3.29311 c 0.134316,-0.0868 0.12502,-0.104823 -0.05407,-0.104823 -0.11895,0 -0.289263,0.04717 -0.378475,0.104823 -0.134315,0.0868 -0.12502,0.104823 0.05407,0.104823 0.118949,0 0.289262,-0.04717 0.378474,-0.104823 z m 1.081356,-0.324407 c 0.134316,-0.0868 0.12502,-0.104823 -0.05407,-0.104823 -0.11895,0 -0.289263,0.04717 -0.378475,0.104823 -0.134315,0.0868 -0.12502,0.104824 0.05407,0.104824 0.118949,0 0.289262,-0.04717 0.378474,-0.104824 z m 1.892373,-0.648813 c 0.03676,-0.05948 -0.0062,-0.108136 -0.09537,-0.108136 -0.08921,0 -0.192277,0.04866 -0.229035,0.108136 -0.03676,0.05947 0.0062,0.108135 0.09537,0.108135 0.08921,0 0.192277,-0.04866 0.229034,-0.108135 z m 0.702882,-0.378475 c 0.07509,-0.09048 0.0868,-0.162203 0.02648,-0.162203 -0.05947,0 -0.168713,0.07299 -0.242753,0.162203 -0.07509,0.09048 -0.0868,0.162203 -0.02648,0.162203 0.05947,0 0.168713,-0.07299 0.242753,-0.162203 z m 1.887351,-1.647941 c 0.03397,-0.08851 -0.279471,0.141588 -0.696527,0.511335 -0.417055,0.369747 -0.758282,0.71906 -0.758282,0.776251 0,0.137265 1.375046,-1.079726 1.454809,-1.287586 z m 0.876555,-1.119733 c 0.153726,-0.243517 0.255171,-0.46709 0.225434,-0.496827 -0.05045,-0.05045 -0.610357,0.759904 -0.610357,0.883369 0,0.147856 0.129954,0.01735 0.384923,-0.386542 z m 0.478506,-0.99642 c -0.0013,-0.192614 -0.02126,-0.206589 -0.10648,-0.07472 -0.137677,0.213041 -0.137677,0.463564 0,0.378475 0.05947,-0.03676 0.10739,-0.173447 0.10648,-0.303755 z m 0.508066,-3.555334 c -0.03452,-0.08626 -0.06014,-0.06064 -0.06533,0.06533 -0.0047,0.113992 0.02086,0.177861 0.0568,0.141928 0.03593,-0.03593 0.03977,-0.1292 0.0085,-0.20726 z M 29.442167,60.116182 c 0,-0.09912 -0.03202,-0.148208 -0.07115,-0.109074 -0.03913,0.03913 -0.136456,0.01695 -0.216271,-0.04929 -0.180022,-0.149405 -0.193281,0.0309 -0.01536,0.208823 0.181709,0.181709 0.302779,0.161531 0.302779,-0.05046 z m 0,-0.565154 c 0,-0.155142 -0.27656,-0.217349 -0.442348,-0.0995 -0.121511,0.08638 -0.114747,0.09626 0.03338,0.04879 0.102176,-0.03275 0.214535,-0.01301 0.249687,0.04387 0.08034,0.129989 0.159284,0.133382 0.159284,0.0068 z m 16.946605,-0.957756 c -0.02478,-0.163555 -0.04505,-0.02974 -0.04505,0.297373 0,0.32711 0.02027,0.460928 0.04505,0.297373 0.02478,-0.163555 0.02478,-0.431191 0,-0.594746 z m -0.111719,-2.318157 c -0.03452,-0.08626 -0.06014,-0.06064 -0.06533,0.06533 -0.0047,0.113993 0.02086,0.177861 0.0568,0.141928 0.03593,-0.03593 0.03977,-0.129199 0.0085,-0.20726 z m -0.160417,-0.866476 c -0.118276,-0.118277 -0.345994,-0.03088 -0.345994,0.132791 0,0.0541 0.07299,0.07035 0.162204,0.03612 0.09362,-0.03592 0.165813,-1.94e-4 0.17074,0.0845 0.0071,0.121129 0.01861,0.121497 0.06623,0.0021 0.03173,-0.07955 0.0078,-0.194526 -0.05318,-0.255511 z m -9.564553,-5.027111 c -0.104081,-0.0272 -0.274394,-0.0272 -0.378475,0 -0.10408,0.0272 -0.01892,0.04945 0.189238,0.04945 0.208161,0 0.293317,-0.02225 0.189237,-0.04945 z m 2.21678,-0.105211 c -0.07434,-0.03 -0.195996,-0.03 -0.270339,0 -0.07434,0.03 -0.01352,0.05454 0.135169,0.05454 0.148687,0 0.209513,-0.02454 0.13517,-0.05454 z m -4.283717,-0.203507 0.309733,-0.166988 -0.316067,0.03182 c -0.173838,0.0175 -0.336041,0.09264 -0.360452,0.166988 -0.05734,0.174629 -0.0082,0.170369 0.366786,-0.03182 z"
     id="path2636"
     inkscape:connector-curvature="0" />
  <path
     style="fill:#fad028;fill-opacity:1;stroke-width:0.1081356"
     d="m 45.087141,74.511213 c -0.116704,-0.244733 -0.181583,-0.65247 -0.181583,-1.141176 0,-0.418214 -0.04893,-0.85181 -0.108727,-0.963548 -0.103034,-0.19252 -0.138422,-0.194465 -0.675848,-0.03714 -0.311916,0.09131 -0.613348,0.21026 -0.669849,0.264335 -0.140421,0.134392 -0.629774,0.125594 -0.546085,-0.0098 0.03676,-0.05947 0.0153,-0.108136 -0.04769,-0.108136 -0.06298,0 -0.114517,0.06772 -0.114517,0.15048 0,0.08277 -0.121867,0.181068 -0.270814,0.218452 -0.568681,0.142729 -10.05063,0.04354 -10.532311,-0.110179 -0.118284,-0.03775 -0.106355,-0.0828 0.05407,-0.204221 0.272141,-0.205973 0.145677,-0.201747 -0.391207,0.01307 -0.24157,0.09666 -0.452638,0.157484 -0.469042,0.13517 -0.0164,-0.02231 -0.302408,-0.52718 -0.635566,-1.121925 -0.9766,-1.743403 -1.265138,-3.038642 -1.493529,-6.704407 -0.0667,-1.070543 -0.153645,-2.457382 -0.193215,-3.081865 l -0.07194,-1.135424 -0.811017,-0.416844 c -2.451452,-1.259992 -4.117115,-2.459283 -5.710296,-4.111465 -1.117192,-1.158566 -1.382009,-1.616548 -1.204576,-2.083233 0.17865,-0.469884 1.034816,-1.612661 2.216472,-2.958458 1.252692,-1.4267 4.469704,-4.866102 4.551463,-4.866102 0.03012,0 0.379636,0.27609 0.776699,0.613532 1.380034,1.172815 3.446269,2.319362 4.828734,2.679448 0.778532,0.202782 2.308305,0.347119 4.730799,0.446361 1.204571,0.04935 1.785629,0.111568 1.739464,0.186265 -0.04318,0.06987 0.0019,0.08485 0.119465,0.03972 0.103833,-0.03984 0.340522,-0.07244 0.525977,-0.07244 0.357559,0 0.299188,-0.163326 -0.08454,-0.236547 -0.135502,-0.02586 0.106804,-0.154623 0.648814,-0.344796 1.302934,-0.457156 2.928701,-1.280875 3.855963,-1.953683 0.455492,-0.330499 0.935486,-0.600906 1.066655,-0.600906 0.44767,0 2.86691,1.697678 6.488345,4.553135 0.863844,0.68113 1.751907,1.350456 1.973475,1.487393 0.221568,0.136936 0.40285,0.295606 0.40285,0.352599 0,0.176257 -0.433752,0.974225 -1.025036,1.885748 -0.602846,0.929343 -2.728075,3.207168 -4.042233,4.332469 -0.450675,0.385909 -1.257603,0.918687 -1.860289,1.228267 -0.585406,0.300702 -1.089092,0.586725 -1.119302,0.635605 -0.03021,0.04888 -0.114058,0.980866 -0.18633,2.071076 -0.07549,1.138788 -0.166062,1.893744 -0.212861,1.774311 -0.04659,-0.118896 -0.08484,0.208733 -0.08937,0.765329 -0.01168,1.438447 -0.205554,2.821707 -0.515293,3.67661 -0.719163,1.984945 -0.911401,3.30417 -0.63736,4.373857 0.09676,0.377689 0.159464,0.703167 0.139344,0.723287 -0.02012,0.02012 -0.118294,-0.134772 -0.218166,-0.344203 z m -7.913278,-3.29311 c 0.03676,-0.05948 -0.0062,-0.108136 -0.09537,-0.108136 -0.08921,0 -0.192277,0.04866 -0.229034,0.108136 -0.03676,0.05948 0.0062,0.108136 0.09537,0.108136 0.08921,0 0.192277,-0.04866 0.229035,-0.108136 z m 1.081356,-0.324407 c 0.03676,-0.05947 -0.0062,-0.108135 -0.09537,-0.108135 -0.08921,0 -0.192277,0.04866 -0.229034,0.108135 -0.03676,0.05947 0.0062,0.108136 0.09537,0.108136 0.08921,0 0.192277,-0.04866 0.229035,-0.108136 z m 1.94644,-0.648813 c 0.03676,-0.05948 -0.009,-0.108136 -0.101753,-0.108136 -0.09272,0 -0.168586,0.04866 -0.168586,0.108136 0,0.05947 0.04579,0.108135 0.101754,0.108135 0.05596,0 0.131828,-0.04866 0.168585,-0.108135 z m 0.702882,-0.378475 c 0.07509,-0.09048 0.0868,-0.162203 0.02648,-0.162203 -0.05947,0 -0.168713,0.07299 -0.242753,0.162203 -0.07509,0.09048 -0.0868,0.162203 -0.02648,0.162203 0.05947,0 0.168713,-0.07299 0.242753,-0.162203 z m 1.246944,-1.0453 0.645429,-0.666826 -0.729916,0.631961 c -0.401453,0.347578 -0.729915,0.64765 -0.729915,0.666825 0,0.142437 0.260543,-0.05974 0.814402,-0.63196 z m 1.457631,-1.631056 c 0.308638,-0.506204 0.265003,-0.637308 -0.05525,-0.166009 -0.148687,0.218813 -0.270339,0.424753 -0.270339,0.457645 0,0.147026 0.128084,0.0323 0.325592,-0.291636 z m 0.539492,-1.006636 c 0,-0.09272 -0.04866,-0.138511 -0.108135,-0.101754 -0.05947,0.03676 -0.108136,0.112621 -0.108136,0.168586 0,0.05596 0.04866,0.101753 0.108136,0.101753 0.05947,0 0.108135,-0.07586 0.108135,-0.168585 z m -14.706441,-6.0262 c 0,-0.07655 -0.101,-0.1468 -0.224445,-0.156098 -0.183944,-0.01386 -0.201068,0.01126 -0.09489,0.139191 0.160667,0.193592 0.31934,0.201993 0.31934,0.01691 z m 0,-0.617757 c 0,-0.05947 -0.05153,-0.108136 -0.114517,-0.108136 -0.06298,0 -0.08444,0.04866 -0.04769,0.108136 0.03676,0.05947 0.08829,0.108135 0.114518,0.108135 0.02623,0 0.04769,-0.04866 0.04769,-0.108135 z m 16.68213,-4.12316 c -0.0652,-0.0652 -0.180376,-0.08032 -0.255953,-0.03361 -0.101507,0.06273 -0.08278,0.104762 0.07168,0.160834 0.256014,0.09294 0.343817,0.03232 0.184273,-0.127222 z M 34.52204,49.93258 c -0.180749,-0.06025 -0.449907,0.07946 -0.377815,0.196104 0.04186,0.06773 0.143461,0.05827 0.27826,-0.02591 0.116779,-0.07293 0.161579,-0.149514 0.09955,-0.170189 z"
     id="path2638"
     inkscape:connector-curvature="0" />
  <path
     style="fill:#fad028;fill-opacity:1;stroke-width:0.1081356"
     d="m 45.087141,74.511213 c -0.108936,-0.228442 -0.182174,-0.649711 -0.183059,-1.052965 -0.0024,-1.071576 -0.06155,-1.193316 -0.548487,-1.128004 -0.225645,0.03026 -0.566647,0.133043 -0.757781,0.228392 -0.416861,0.207959 -0.709102,0.222208 -0.783352,0.0382 -0.03447,-0.08542 -0.05768,-0.06984 -0.06308,0.04234 -0.0047,0.09763 -0.131256,0.208315 -0.281246,0.245959 -0.584868,0.146793 -10.034984,0.0475 -10.530416,-0.110641 -0.118286,-0.03776 -0.106358,-0.08281 0.05407,-0.204233 0.272141,-0.205973 0.145677,-0.201747 -0.391207,0.01307 -0.24157,0.09666 -0.452638,0.157484 -0.469042,0.13517 -0.0164,-0.02231 -0.302408,-0.527181 -0.635566,-1.121926 C 29.37418,69.590408 29.196,68.572786 28.814056,61.979395 l -0.07477,-1.290744 -1.430558,-0.763833 c -1.949572,-1.040956 -3.200456,-1.944936 -4.700061,-3.396605 -1.39667,-1.352024 -1.79064,-1.951009 -1.604776,-2.43987 0.171409,-0.450841 0.873966,-1.432278 1.787357,-2.496851 0.880932,-1.026741 4.130368,-4.540945 4.686287,-5.068131 l 0.327071,-0.310166 0.775407,0.634572 c 0.426473,0.349015 0.819255,0.622408 0.872848,0.607539 0.05359,-0.01487 0.09744,0.01817 0.09744,0.07342 0,0.312279 2.92409,1.789032 4.055085,2.04794 0.643988,0.147422 2.411737,0.299512 4.673992,0.402133 1.086226,0.04927 1.622747,0.112616 1.577261,0.186213 -0.04274,0.06915 0.0028,0.08401 0.119852,0.03909 0.103833,-0.03984 0.306459,-0.07244 0.450282,-0.07244 0.329822,0 0.344351,-0.189122 0.01819,-0.236783 -0.157908,-0.02307 0.155213,-0.181481 0.892119,-0.451321 1.329461,-0.486819 2.431633,-1.059726 3.592035,-1.867131 0.459019,-0.319384 0.932607,-0.580697 1.052418,-0.580697 0.457042,0 2.462988,1.388533 6.006903,4.158028 1.130017,0.883085 2.237055,1.726426 2.460085,1.874092 0.22303,0.147666 0.405508,0.330334 0.405508,0.405929 0,0.175037 -0.594222,1.22809 -1.178482,2.088451 -0.525023,0.77313 -2.740341,3.101423 -3.877355,4.075089 -0.431464,0.369479 -1.267356,0.925646 -1.857536,1.235926 -0.590179,0.310281 -1.096943,0.626401 -1.12614,0.702489 -0.0292,0.07609 -0.113198,0.994469 -0.186667,2.040847 -0.07347,1.046379 -0.174744,1.877065 -0.225055,1.845971 -0.05031,-0.03109 -0.09161,0.323459 -0.09178,0.787898 -4.32e-4,1.28354 -0.203133,2.706486 -0.505317,3.547822 -0.686735,1.911997 -0.883468,3.24853 -0.635536,4.317593 0.09471,0.408374 0.15563,0.759067 0.135381,0.779316 -0.02025,0.02025 -0.11853,-0.134537 -0.218403,-0.343968 z m -7.913278,-3.29311 c 0.03676,-0.05948 -0.0062,-0.108136 -0.09537,-0.108136 -0.08921,0 -0.192277,0.04866 -0.229034,0.108136 -0.03676,0.05948 0.0062,0.108136 0.09537,0.108136 0.08921,0 0.192277,-0.04866 0.229035,-0.108136 z m 1.081356,-0.324407 c 0.03676,-0.05947 -0.0062,-0.108135 -0.09537,-0.108135 -0.08921,0 -0.192277,0.04866 -0.229034,0.108135 -0.03676,0.05947 0.0062,0.108136 0.09537,0.108136 0.08921,0 0.192277,-0.04866 0.229035,-0.108136 z m 1.892372,-0.648813 c 0,-0.05948 -0.04866,-0.108136 -0.108135,-0.108136 -0.05947,0 -0.108136,0.04866 -0.108136,0.108136 0,0.05947 0.04866,0.108135 0.108136,0.108135 0.05947,0 0.108135,-0.04866 0.108135,-0.108135 z m 2.004574,-1.428586 0.536613,-0.563501 -0.594746,0.529081 c -0.32711,0.290995 -0.615021,0.544571 -0.639802,0.563501 -0.02478,0.01893 0.0014,0.03442 0.05813,0.03442 0.05675,0 0.344665,-0.253576 0.639802,-0.563501 z m 1.582613,-1.855566 c 0.07949,-0.144853 0.07702,-0.181284 -0.0087,-0.128311 -0.06583,0.04068 -0.194695,0.229036 -0.286363,0.418557 -0.154707,0.319854 -0.154084,0.329063 0.0087,0.128312 0.09645,-0.118949 0.225312,-0.307299 0.286362,-0.418558 z m 0.41383,-0.837764 c 0,-0.05948 -0.04866,-0.07806 -0.108135,-0.04131 -0.05947,0.03676 -0.108136,0.115492 -0.108136,0.174967 0,0.05947 0.04866,0.07806 0.108136,0.0413 0.05947,-0.03676 0.108135,-0.115492 0.108135,-0.174966 z M 29.442167,60.199842 c 0,-0.05311 -0.07697,-0.126104 -0.171047,-0.162204 -0.26453,-0.10151 -0.299482,-0.0795 -0.153359,0.09657 0.149189,0.179763 0.324406,0.215214 0.324406,0.06564 z m 16.68213,-4.783543 c -0.0652,-0.0652 -0.180376,-0.08032 -0.255953,-0.03361 -0.101507,0.06273 -0.08278,0.104762 0.07168,0.160834 0.256014,0.09294 0.343817,0.03232 0.184273,-0.127222 z M 34.470473,50.023526 c 0.08458,-0.136856 -0.05857,-0.136856 -0.270339,0 -0.139786,0.09034 -0.136931,0.105053 0.02065,0.10648 0.100571,9.11e-4 0.21293,-0.047 0.249689,-0.10648 z"
     id="path2640"
     inkscape:connector-curvature="0" />
  <path
     style="fill:#fad028;fill-opacity:1;stroke-width:0.1081356"
     d="m 45.080082,74.52693 c -0.10292,-0.216889 -0.17513,-0.649457 -0.176,-1.054322 -0.0027,-1.271472 -0.08512,-1.340007 -1.13751,-0.946258 -0.333531,0.12479 -0.697981,0.202947 -0.809888,0.173683 -0.111908,-0.02927 -0.221926,0.0025 -0.244485,0.07048 -0.02775,0.08368 -0.65025,0.141177 -1.924592,0.177758 -2.092959,0.06008 -8.580696,-0.06103 -8.849099,-0.165193 -0.148656,-0.05769 -0.142699,-0.08898 0.04485,-0.235553 l 0.216271,-0.169029 -0.216271,0.07968 c -0.687008,0.253099 -0.825027,0.295049 -0.853102,0.259295 -0.317883,-0.404825 -1.231431,-2.232308 -1.43261,-2.865824 -0.418523,-1.317936 -0.681476,-3.61469 -0.862135,-7.530274 l -0.07371,-1.597578 -1.146679,-0.609329 C 25.242293,58.853578 23.79807,57.785586 22.13114,56.0591 c -1.144491,-1.185381 -1.348558,-1.6018 -1.060033,-2.163105 0.462769,-0.900284 2.646991,-3.460647 5.425306,-6.359587 l 1.29545,-1.351695 0.554739,0.46595 c 0.305107,0.256273 0.66426,0.524537 0.798118,0.596142 0.133859,0.0716 0.389046,0.267776 0.567083,0.435936 0.439126,0.414765 2.983141,1.657319 3.785449,1.848899 0.713834,0.170454 2.521443,0.335676 4.891019,0.447058 0.846348,0.03978 1.51953,0.103535 1.495961,0.141672 -0.02357,0.03814 0.147695,0.05117 0.380591,0.02896 0.460811,-0.04395 0.57033,-0.198035 0.180141,-0.25345 -0.158634,-0.02253 0.180049,-0.198039 0.973221,-0.504333 0.669089,-0.258377 1.216525,-0.521958 1.216525,-0.585734 0,-0.06378 0.03019,-0.08577 0.06708,-0.04888 0.100025,0.100025 1.190016,-0.478691 2.184911,-1.16005 0.48278,-0.330634 0.995279,-0.601153 1.138885,-0.601153 0.3351,0 2.266788,1.298745 4.503392,3.027796 0.961663,0.743433 2.316042,1.782233 3.009733,2.308447 0.69369,0.526213 1.276613,1.02304 1.295383,1.104061 0.03902,0.168434 -0.326796,0.830514 -1.093722,1.97947 -0.607886,0.910695 -3.373345,3.793803 -4.325615,4.509638 -0.351237,0.264028 -1.026572,0.681891 -1.500745,0.928584 -0.474175,0.246692 -0.927394,0.550677 -1.007153,0.675522 -0.09007,0.140987 -0.194498,0.923498 -0.275611,2.065296 -0.07183,1.011067 -0.173192,1.854525 -0.225259,1.874349 -0.05207,0.01983 -0.09481,0.384784 -0.09497,0.811017 -5.4e-4,1.330527 -0.220458,2.670398 -0.650836,3.964973 -0.601165,1.808296 -0.707319,3.042815 -0.37426,4.352457 0.103565,0.407229 0.0048,0.37344 -0.205837,-0.07041 z m -7.960287,-3.308827 c 0.08921,-0.05765 0.113542,-0.104823 0.05407,-0.104823 -0.05947,0 -0.181128,0.04717 -0.270339,0.104823 -0.08921,0.05765 -0.113543,0.104823 -0.05407,0.104823 0.05947,0 0.181127,-0.04717 0.270339,-0.104823 z m 1.081356,-0.324407 c 0.08921,-0.05765 0.113542,-0.104823 0.05407,-0.104823 -0.05947,0 -0.181128,0.04717 -0.270339,0.104823 -0.08921,0.05765 -0.113543,0.104824 -0.05407,0.104824 0.05947,0 0.181127,-0.04717 0.270339,-0.104824 z m 3.838813,-1.946441 c 0.232302,-0.237898 0.398037,-0.432542 0.368299,-0.432542 -0.02974,0 -0.244133,0.194644 -0.476434,0.432542 -0.232301,0.237899 -0.398037,0.432543 -0.368299,0.432543 0.02974,0 0.244133,-0.194644 0.476434,-0.432543 z m 1.685829,-2.000508 c 0.08693,-0.169964 0.063,-0.161611 -0.111757,0.03901 -0.122307,0.140408 -0.221632,0.310721 -0.220721,0.378475 0.0017,0.129047 0.144851,-0.05066 0.332478,-0.417488 z m 0.422815,-0.82378 c 0,-0.05948 -0.04866,-0.07806 -0.108135,-0.04131 -0.05947,0.03676 -0.108136,0.115492 -0.108136,0.174967 0,0.05947 0.04866,0.07806 0.108136,0.0413 0.05947,-0.03676 0.108135,-0.115492 0.108135,-0.174966 z M 29.442167,60.199842 c 0,-0.05311 -0.07299,-0.124576 -0.162203,-0.15881 -0.164828,-0.06325 -0.221461,0.05194 -0.09011,0.183285 0.103345,0.103345 0.252316,0.08889 0.252316,-0.02448 z m 16.761018,-4.703899 c 0,-0.02337 -0.07299,-0.07051 -0.162204,-0.104742 -0.08921,-0.03423 -0.162203,-0.01511 -0.162203,0.0425 0,0.05761 0.07299,0.104742 0.162203,0.104742 0.08921,0 0.162204,-0.01913 0.162204,-0.0425 z M 34.473334,49.936275 c -0.03329,-0.03329 -0.120549,-6.9e-5 -0.193901,0.07383 -0.106001,0.106796 -0.09358,0.119217 0.06053,0.06053 0.106646,-0.04061 0.166661,-0.101074 0.133367,-0.134367 z"
     id="path2642"
     inkscape:connector-curvature="0" />
  <path
     style="fill:#fad028;fill-opacity:1;stroke-width:0.1081356"
     d="m 45.110833,74.66067 c -0.07516,-0.138912 -0.167983,-0.67964 -0.206271,-1.201619 -0.03829,-0.521978 -0.127694,-1.00713 -0.198679,-1.078114 -0.09999,-0.09999 -0.305155,-0.07337 -0.910881,0.118205 -0.429999,0.135997 -0.935184,0.294107 -1.12263,0.351355 -0.380453,0.116194 -7.856686,0.122062 -9.66173,0.0076 -0.879204,-0.05576 -1.128326,-0.105507 -1.103968,-0.220447 0.02068,-0.0976 -0.02905,-0.125215 -0.145215,-0.08064 -0.618,0.237149 -0.611269,0.242112 -1.259616,-0.928651 -1.061982,-1.917688 -1.351193,-3.399935 -1.615255,-8.27841 -0.07489,-1.383504 -0.162995,-2.554713 -0.195797,-2.602687 -0.0328,-0.04797 -0.575691,-0.362544 -1.206419,-0.699046 -1.277374,-0.681498 -2.817316,-1.67022 -3.55712,-2.283852 -0.987416,-0.819015 -2.585158,-2.47981 -2.829777,-2.941449 l -0.252087,-0.475735 0.297376,-0.566817 c 0.481979,-0.918679 4.031977,-5.003872 6.122445,-7.04546 l 0.543904,-0.531185 0.49212,0.403255 c 0.270667,0.221791 0.492866,0.363502 0.493777,0.314915 9.08e-4,-0.04859 0.03741,-0.03954 0.0811,0.0201 0.04369,0.05964 0.286255,0.248739 0.539022,0.420215 0.252767,0.171476 0.459576,0.353818 0.459576,0.405204 0,0.05139 0.07299,0.09343 0.162203,0.09343 0.08921,0 0.162204,0.04773 0.162204,0.106076 0,0.05834 0.121652,0.136608 0.270339,0.173926 0.148686,0.03732 0.270339,0.114108 0.270339,0.170645 0,0.05654 0.04866,0.07272 0.108135,0.03596 0.05947,-0.03676 0.108136,-0.01243 0.108136,0.05407 0,0.0665 0.04451,0.09339 0.0989,0.05978 0.05439,-0.03362 0.115319,-0.01187 0.135387,0.04834 0.05235,0.157059 1.883113,0.925208 2.523171,1.058671 0.502055,0.104686 1.369097,0.179347 5.284191,0.455017 1.383699,0.09743 2.119254,0.04435 1.479222,-0.106739 -0.216161,-0.05103 -0.09997,-0.12564 0.649903,-0.417327 0.502219,-0.195354 1.049303,-0.452473 1.215743,-0.571375 0.16644,-0.118903 0.39758,-0.223339 0.513644,-0.232082 0.116064,-0.0087 0.211026,-0.05707 0.211026,-0.107402 0,-0.05033 0.04866,-0.06143 0.108135,-0.02467 0.05947,0.03676 0.108136,0.01243 0.108136,-0.05407 0,-0.06649 0.04147,-0.09527 0.09216,-0.06394 0.05069,0.03133 0.613034,-0.282096 1.249657,-0.696499 0.636621,-0.414403 1.270915,-0.753459 1.409543,-0.753459 0.313489,0 2.111546,1.194695 4.151706,2.758547 0.852696,0.653621 2.239535,1.712922 3.081864,2.354002 0.842329,0.64108 1.547833,1.240252 1.567786,1.331495 0.06037,0.276051 -1.102193,2.101564 -1.95877,3.075759 -1.067737,1.214349 -3.146636,3.224479 -3.754627,3.630427 -0.267636,0.178696 -0.861303,0.536243 -1.319263,0.794549 -0.457959,0.258306 -0.824743,0.498854 -0.815076,0.534552 0.0097,0.0357 -0.03702,0.162956 -0.103738,0.282796 -0.06672,0.119839 -0.18022,0.995738 -0.252218,1.946441 -0.072,0.950702 -0.173729,1.774779 -0.226069,1.831279 -0.05234,0.0565 -0.09545,0.47012 -0.0958,0.919153 -8.65e-4,1.125338 -0.262225,2.756626 -0.57459,3.586503 -0.557288,1.480575 -0.758901,3.210082 -0.495946,4.254373 0.141541,0.562108 0.07656,0.745559 -0.129313,0.365064 z m -3.064066,-5.740448 0.317604,-0.351441 -0.351441,0.317604 c -0.327592,0.296051 -0.401145,0.385277 -0.317604,0.385277 0.01861,0 0.176759,-0.158148 0.351441,-0.35144 z m 2.101841,-2.797255 c 0,-0.05948 -0.04866,-0.07806 -0.108135,-0.04131 -0.05947,0.03676 -0.108136,0.115492 -0.108136,0.174967 0,0.05947 0.04866,0.07806 0.108136,0.0413 0.05947,-0.03676 0.108135,-0.115492 0.108135,-0.174966 z M 29.442167,60.188272 c 0,-0.05947 -0.07586,-0.108135 -0.168585,-0.108135 -0.09272,0 -0.138511,0.04866 -0.101753,0.108135 0.03676,0.05947 0.11262,0.108136 0.168585,0.108136 0.05596,0 0.101753,-0.04866 0.101753,-0.108136 z m 5.031167,-10.251997 c -0.03329,-0.03329 -0.120549,-6.9e-5 -0.193901,0.07383 -0.106001,0.106796 -0.09358,0.119217 0.06053,0.06053 0.106646,-0.04061 0.166661,-0.101074 0.133367,-0.134367 z"
     id="path2644"
     inkscape:connector-curvature="0" />
  <path
     style="fill:#fad028;fill-opacity:1;stroke-width:0.1081356"
     d="m 45.108554,74.653638 c -0.07096,-0.132592 -0.169229,-0.676828 -0.218372,-1.209416 -0.04915,-0.532587 -0.139756,-1.018742 -0.201358,-1.080345 -0.07725,-0.07725 -0.354606,-0.03363 -0.893822,0.14057 -0.429999,0.138916 -0.926867,0.296989 -1.104151,0.351276 -0.358982,0.109924 -8.316584,0.110256 -9.842412,4.32e-4 -0.742593,-0.05346 -0.965767,-0.105239 -0.941765,-0.218499 0.02068,-0.0976 -0.02905,-0.125215 -0.145215,-0.08064 -0.631919,0.242491 -0.621798,0.249908 -1.264832,-0.926883 -1.052482,-1.926108 -1.333958,-3.380459 -1.634154,-8.443472 -0.0803,-1.354366 -0.165201,-2.477876 -0.188664,-2.49669 -0.02346,-0.01881 -0.572635,-0.316035 -1.220384,-0.660492 -0.647749,-0.344455 -1.671939,-0.956756 -2.275977,-1.360668 -1.628647,-1.089078 -3.738366,-3.104253 -4.147014,-3.961196 -0.173599,-0.364041 -0.170463,-0.389373 0.115634,-0.934138 0.484285,-0.922138 3.823271,-4.77631 5.959962,-6.879549 l 0.707627,-0.696547 0.42944,0.345107 c 0.236192,0.189809 0.486117,0.345107 0.555389,0.345107 0.119235,0 0.767207,0.469437 1.237793,0.896747 0.1186,0.107693 0.434897,0.302729 0.702881,0.433412 0.267985,0.130684 0.511575,0.267871 0.541313,0.304861 0.10419,0.129602 1.356898,0.71551 1.892373,0.885088 0.684842,0.216882 1.956287,0.359841 4.487627,0.504582 1.100279,0.06291 2.207318,0.140993 2.460085,0.173509 0.441688,0.05682 0.677953,-0.111128 0.270339,-0.192167 -0.104769,-0.02083 0.209769,-0.199053 0.704664,-0.399277 0.491645,-0.19891 1.002586,-0.445595 1.135424,-0.54819 0.132837,-0.102594 0.545653,-0.303363 0.917369,-0.446152 0.371716,-0.142789 0.675848,-0.299232 0.675848,-0.347651 0,-0.04842 0.04866,-0.05796 0.108135,-0.0212 0.05948,0.03676 0.108136,0.0153 0.108136,-0.04769 0,-0.06298 0.07299,-0.114517 0.162203,-0.114517 0.08921,0 0.162204,-0.05677 0.162204,-0.126158 0,-0.06939 0.03024,-0.09592 0.0672,-0.05896 0.03696,0.03696 0.350587,-0.125243 0.696947,-0.360452 0.346362,-0.235209 0.746566,-0.427653 0.889347,-0.427653 0.337047,0 2.055182,1.141414 4.293962,2.852622 0.981331,0.750079 2.404666,1.833784 3.162967,2.408233 0.7583,0.57445 1.378635,1.122086 1.378522,1.216969 -3.09e-4,0.258047 -1.023614,1.912959 -1.678001,2.713701 -0.761937,0.932348 -3.439299,3.550756 -4.052979,3.963736 -0.267636,0.180108 -0.816289,0.51035 -1.219229,0.733871 -1.001936,0.555801 -1.106443,0.794168 -1.272136,2.901568 -0.0712,0.905531 -0.172359,1.728377 -0.224805,1.828547 -0.05244,0.10017 -0.09555,0.53812 -0.09579,0.97322 -6.49e-4,1.091565 -0.255546,2.55411 -0.646119,3.706586 -0.180627,0.532979 -0.351528,1.189902 -0.379781,1.45983 -0.08624,0.823895 -0.08957,2.195136 -0.0065,2.680524 0.08697,0.508284 0.02667,0.585828 -0.169918,0.218501 z m -3.06859,-5.706383 c 0.107648,-0.118949 0.171393,-0.216271 0.141656,-0.216271 -0.02974,0 -0.142143,0.09732 -0.249791,0.216271 -0.107648,0.11895 -0.171393,0.216272 -0.141656,0.216272 0.02974,0 0.142143,-0.09732 0.249791,-0.216272 z M 29.3881,60.188272 c 0.03676,-0.05947 -0.0119,-0.108135 -0.108136,-0.108135 -0.09623,0 -0.144893,0.04866 -0.108135,0.108135 0.03676,0.05947 0.08542,0.108136 0.108135,0.108136 0.02272,0 0.07138,-0.04866 0.108136,-0.108136 z"
     id="path2646"
     inkscape:connector-curvature="0" />
</svg>
