<?xml version="1.0" encoding="UTF-8" standalone="no"?>
<!-- Created with Inkscape (http://www.inkscape.org/) -->

<svg
   xmlns:dc="http://purl.org/dc/elements/1.1/"
   xmlns:cc="http://creativecommons.org/ns#"
   xmlns:rdf="http://www.w3.org/1999/02/22-rdf-syntax-ns#"
   xmlns:svg="http://www.w3.org/2000/svg"
   xmlns="http://www.w3.org/2000/svg"
   xmlns:sodipodi="http://sodipodi.sourceforge.net/DTD/sodipodi-0.dtd"
   xmlns:inkscape="http://www.inkscape.org/namespaces/inkscape"
   version="1.1"
   id="svg843"
   width="88"
   height="97.919998"
   viewBox="0 0 88 97.919998"
   sodipodi:docname="slide3.jpg.svg"
   inkscape:version="0.92.3 (2405546, 2018-03-11)">
  <metadata
     id="metadata849">
    <rdf:RDF>
      <cc:Work
         rdf:about="">
        <dc:format>image/svg+xml</dc:format>
        <dc:type
           rdf:resource="http://purl.org/dc/dcmitype/StillImage" />
        <dc:title></dc:title>
      </cc:Work>
    </rdf:RDF>
  </metadata>
  <defs
     id="defs847" />
  <sodipodi:namedview
     pagecolor="#ffffff"
     bordercolor="#666666"
     borderopacity="1"
     objecttolerance="10"
     gridtolerance="10"
     guidetolerance="10"
     inkscape:pageopacity="0"
     inkscape:pageshadow="2"
     inkscape:window-width="1366"
     inkscape:window-height="705"
     id="namedview845"
     showgrid="false"
     inkscape:zoom="6.8168792"
     inkscape:cx="44"
     inkscape:cy="48.959999"
     inkscape:window-x="-8"
     inkscape:window-y="-8"
     inkscape:window-maximized="1"
     inkscape:current-layer="svg843" />
  <g
     id="g1396"
     transform="translate(-0.41491116,-5.8088131)">
    <path
       style="fill:#a6c4c6;stroke-width:0.31999999"
       d="M 43.438224,96.004641 C 43.1312,95.646062 42.88,95.218494 42.88,95.054484 c 0,-0.443622 -1.333347,-1.294486 -2.028525,-1.294486 -0.436736,0 -0.561936,0.168954 -0.448019,0.604576 0.08696,0.332518 0.02541,0.800518 -0.136778,1.04 -0.233328,0.344538 -0.408825,0.270077 -0.840777,-0.356723 -0.300247,-0.43568 -1.157923,-1.484512 -1.905952,-2.330739 -0.748029,-0.846227 -1.741703,-2.28976 -2.208167,-3.207853 -1.77775,-3.498976 -1.851552,-4.081424 -1.862057,-14.695773 L 33.44,64.986978 32.33961,64.174799 c -1.587104,-1.171408 -4.616947,-5.327021 -6.261581,-8.588135 l -1.418811,-2.813334 -1.687469,3.293334 c -2.780719,5.426967 -3.153296,6.339799 -4.103627,10.054071 -1.16982,4.572131 -2.041215,6.684473 -4.576716,11.094399 -1.133621,1.971677 -2.683196,5.024864 -3.4435,6.784864 -0.760304,1.76 -1.7102039,3.685277 -2.1108887,4.278394 C 8.0014467,89.367224 7.210959,91.700453 6.8798726,93.759998 6.6309786,95.30826 6.0331392,95.980696 4.7753174,96.127147 3.4204179,96.2849 2.3772616,95.894398 1.9322283,95.062846 1.6573439,94.54922 1.7617817,93.999291 2.4365014,92.407528 3.2048483,90.594891 3.314089,89.825285 3.5617648,84.479998 4.0395939,74.167595 4.753297,70.758479 7.7396064,64.523874 9.560015,60.723352 9.728977,60.18356 9.9432166,57.483874 10.324589,52.678105 11.431288,46.728601 14.081578,35.236428 c 1.153001,-4.999633 3.267447,-8.389214 6.371656,-10.214137 1.273058,-0.748413 1.804851,-0.859985 4.026766,-0.844826 3.141364,0.02143 4.788913,0.694147 7.325098,2.990927 0.982108,0.8894 2.183731,1.704385 2.670275,1.811077 0.486544,0.106692 1.100627,0.282332 1.364627,0.390312 0.264,0.107979 2.745766,0.275952 5.515037,0.373272 l 5.03504,0.176946 0.392035,-0.96 c 0.597117,-1.462186 2.871664,-5.425986 3.182845,-5.546666 C 50.11623,23.354666 50.24,23.135476 50.24,22.926243 50.24,22.375161 52.134691,20.16 52.606048,20.16 c 0.219702,0 1.045696,-0.619208 1.835546,-1.376017 1.671404,-1.601488 6.18648,-4.01429 9.398406,-5.022397 3.032384,-0.951755 8.442298,-1.202476 11.570317,-0.536222 4.527216,0.964275 10.096416,4.274969 11.554048,6.868473 0.760976,1.353975 0.93047,3.226814 0.384377,4.2472 -0.463872,0.866753 -0.705785,0.795974 -2.44928,-0.716615 L 83.36,22.288845 83.257184,23.384422 c -0.160144,1.706485 -0.579907,1.773001 -1.274829,0.202013 -0.927782,-2.09741 -2.881683,-3.171713 -6.108307,-3.358499 -2.113174,-0.12233 -2.843187,-0.0064 -5.440019,0.863575 -3.974179,1.331472 -6.735043,2.917418 -8.504189,4.885136 -1.125779,1.252137 -1.44984,1.858402 -1.44984,2.712413 0,1.147266 -1.982966,4.43596 -4.531491,7.515349 -0.67568,0.816425 -1.228509,1.633974 -1.228509,1.816774 0,0.599648 1.612867,1.617143 3.375738,2.129623 1.676096,0.487254 1.751596,0.481859 2.405385,-0.17193 2.224176,-2.224176 6.857235,-2.086803 9.379229,0.278099 3.510893,3.292205 2.331168,9.899782 -2.017283,11.298701 -1.47761,0.475353 -1.943069,0.861238 -1.943069,1.610883 0,0.571843 -0.04685,0.577498 -0.783834,0.09461 C 64.705059,52.978693 64.196435,52.275205 64.005894,51.697858 63.677885,50.70398 63.52448,50.618975 61.122195,50.099932 58.632627,49.562028 56.96,48.66693 56.96,47.872553 c 0,-0.795325 -1.484211,-1.788925 -2.978112,-1.99369 C 52.516544,45.678018 52.48,45.693781 52.48,46.52678 c 0,1.273008 -0.706189,2.734061 -2.540355,5.255811 -0.906109,1.245789 -1.877619,2.956345 -2.158909,3.801238 -0.281293,0.844893 -0.633853,1.693504 -0.783469,1.885802 -0.149616,0.192297 -0.856294,1.905113 -1.570397,3.806259 l -1.298368,3.456627 1.294804,4.445194 c 1.759926,6.041996 3.195216,9.786031 5.936598,15.485958 2.521078,5.241862 3.732771,6.684166 5.911715,7.036832 2.523888,0.408496 2.888381,0.529225 2.888381,0.956707 0,0.686169 -1.857069,1.491702 -4.16,1.80447 -1.144,0.15537 -2.609021,0.36313 -3.255603,0.46169 -1.051895,0.160342 -1.224701,0.08331 -1.642163,-0.732084 -0.256605,-0.501209 -0.569085,-1.528284 -0.694397,-2.28239 -0.275802,-1.659702 -1.454522,-3.149229 -2.710391,-3.425065 -1.036688,-0.227693 -5.434035,-3.962224 -6.760995,-5.741901 -0.848339,-1.137766 -0.866422,-1.144509 -1.054931,-0.39343 -0.105488,0.420297 -0.146608,2.005279 -0.09138,3.522179 0.115597,3.174806 0.337174,3.549913 2.770093,4.68943 1.316784,0.616749 1.656208,0.952029 1.918054,1.894624 0.433706,1.561273 0.40233,2.992694 -0.08006,3.652406 -0.375555,0.513603 -0.438205,0.506915 -0.96,-0.102496 z m 2.877859,-38.94598 c -0.310157,-0.08091 -0.481657,-0.280201 -0.381117,-0.44288 0.100544,-0.162681 0.0388,-0.295782 -0.137196,-0.295782 -0.176,0 -0.401396,0.131702 -0.500877,0.292669 -0.198717,0.321526 0.351933,0.623504 1.103107,0.604947 0.318237,-0.0079 0.289955,-0.06143 -0.08392,-0.158954 z m -5.518349,-2.014998 c 0.109178,-0.17665 -0.0095,-0.237667 -0.268745,-0.138183 -0.255338,0.09798 -0.559315,0.02432 -0.675507,-0.163667 -0.116189,-0.187997 -0.374276,-0.341814 -0.57353,-0.341814 -0.199251,0 -0.08275,0.211421 0.258886,0.469824 0.740887,0.560377 0.998058,0.595888 1.258896,0.17384 z M 58.410192,45.762508 C 58.626906,45.048719 58.597094,45.010847 58.12616,45.401692 57.836771,45.641861 57.6,46.137532 57.6,46.50318 c 0,0.81168 0.469082,0.382845 0.810192,-0.740672 z M 52.64,31.999999 c -0.108774,-0.176 -0.34177,-0.32 -0.51777,-0.32 -0.176,0 -0.231004,0.144 -0.12223,0.32 0.108774,0.176 0.34177,0.32 0.51777,0.32 0.176,0 0.231004,-0.144 0.12223,-0.32 z m 5.6,-6.200817 c 0,-0.06645 -0.219296,-0.302818 -0.487325,-0.525262 -0.407472,-0.338171 -0.454297,-0.318374 -0.285763,0.120817 C 57.639037,25.843293 58.24,26.157689 58.24,25.799182 Z M 56.115722,23.52 c -0.101309,-0.264 -0.33042,-0.48 -0.50914,-0.48 -0.187299,0 -0.156198,0.20333 0.07342,0.48 0.219101,0.264 0.448214,0.48 0.509139,0.48 0.06093,0 0.0279,-0.216 -0.07342,-0.48 z M 54.11648,21.253697 C 53.744416,20.780693 53.44,20.490176 53.44,20.608104 c 0,0.37828 1.041053,1.81751 1.199827,1.658734 0.08422,-0.08422 -0.15128,-0.540138 -0.523347,-1.013141 z"
       id="path1410"
       inkscape:connector-curvature="0" />
    <path
       style="fill:#dc9f8a;stroke-width:0.31999999"
       d="M 2.88,95.587867 C 1.9008693,95.095 1.6932677,93.846667 2.372118,92.533915 3.1619465,91.006555 3.4708131,89.0782 3.6621213,84.479998 4.0516419,75.117653 5.065823,70.169355 7.651015,65.017759 9.4791542,61.374767 10.24,58.879906 10.24,56.528316 c 0,-0.867469 0.288959,-3.270832 0.642131,-5.340807 0.723858,-4.242601 3.336683,-16.517919 3.87976,-18.22751 0.712773,-2.243788 2.643564,-5.497513 3.900945,-6.573784 C 20.071097,25.180795 22.859751,24 24.298297,24 c 1.839291,0 5.069973,1.267713 6.744515,2.646536 0.904059,0.744405 2.037466,1.644376 2.518682,1.999937 l 0.874938,0.646473 -0.708179,0.754784 c -0.797248,0.849714 -1.107411,1.894572 -2.038024,6.865559 -1.363712,7.284451 -0.80543,9.38896 2.822065,10.638083 2.615664,0.900701 2.78858,1.090637 2.138087,2.348553 -0.326023,0.630458 -0.487482,1.576557 -0.427232,2.503437 l 0.09685,1.489974 3.2,1.240596 c 1.76,0.682329 4.1,1.523132 5.2,1.868451 1.1,0.345318 2,0.686208 2,0.757533 0,0.07132 -0.590557,1.658595 -1.312349,3.527273 -1.51776,3.929386 -1.570662,3.256928 0.864087,10.98393 2.492364,7.909862 6.265273,15.910796 8.561328,18.155394 1.114268,1.0893 1.616256,1.339655 3.019324,1.505828 1.965626,0.2328 2.340173,0.410457 2.113066,1.002284 -0.239027,0.622896 -2.892106,1.561651 -3.87985,1.372832 -0.460112,-0.08795 -1.411609,0.04297 -2.114441,0.290941 -2.148851,0.75816 -2.90848,0.212253 -3.414026,-2.453488 -0.378944,-1.998157 -1.213315,-3.026131 -3.131693,-3.858345 -0.822128,-0.35665 -2.612377,-1.820122 -4.454521,-3.641434 -1.693984,-1.674822 -3.108035,-3.045133 -3.142336,-3.045133 -0.279312,0 -0.02534,6.444634 0.277929,7.05296 0.211066,0.423357 1.169463,1.208592 2.12977,1.744967 1.55665,0.869459 1.793293,1.142636 2.181981,2.518816 0.44775,1.585292 0.30887,3.083257 -0.285853,3.083257 -0.184467,0 -0.810726,-0.504 -1.39169,-1.12 -1.277875,-1.354944 -2.420726,-1.506019 -2.420726,-0.32 0,1.045238 -0.443994,1.014061 -1.227437,-0.08618 -0.347062,-0.487402 -1.15696,-1.459402 -1.799779,-2.16 C 35.665845,90.54064 34.326533,87.657635 33.727871,84.64 33.308604,82.526631 33.251061,80.572621 33.398053,73.440001 l 0.178058,-8.64 -1.01657,-0.64 c -1.476865,-0.929792 -4.501114,-4.990547 -6.237072,-8.374717 -0.827972,-1.614093 -1.621523,-2.86295 -1.763446,-2.775238 -0.296294,0.18312 -3.216932,5.8392 -4.324113,8.374038 -0.409375,0.937245 -1.166471,3.375616 -1.682434,5.418605 C 17.621523,70.488858 17.370497,71.057604 12.586385,80.32 11.54097,82.344 10.359874,84.72 9.9617254,85.6 9.5635772,86.48 8.765936,88.136 8.1891894,89.28 7.6124425,90.424 7.0450358,92.070647 6.9282848,92.939213 6.6343962,95.125598 5.9996109,96.00116 4.712623,95.995281 4.1446803,95.992686 3.32,95.809348 2.88,95.587867 Z M 64.874528,52.879999 c -0.277565,-0.308 -0.596278,-0.927245 -0.70825,-1.376096 -0.181465,-0.727443 -0.486291,-0.875533 -2.805993,-1.363206 -2.737104,-0.575428 -3.988691,-1.17993 -4.305168,-2.079344 -0.429581,-1.220861 -1.487571,-1.974228 -3.066682,-2.183706 l -1.587779,-0.210624 0.15159,-2.118669 c 0.171578,-2.397993 1.234548,-5.148355 1.98976,-5.148355 0.273898,0 0.497994,0.126269 0.497994,0.280595 0,0.301933 2.483053,1.448087 3.914285,1.806797 0.67543,0.16928 1.097241,0.03152 1.85455,-0.605718 2.995027,-2.520154 8.087104,-1.532602 10.141504,1.966832 0.710317,1.209945 0.884695,1.894544 0.874045,3.431494 -0.02144,3.095606 -1.450272,5.273606 -4.096378,6.24423 -0.75638,0.27745 -1.463974,0.794602 -1.643888,1.20145 -0.380732,0.86097 -0.552963,0.882944 -1.20959,0.15432 z M 58.410192,45.762508 C 58.626906,45.048719 58.597094,45.010847 58.12616,45.401692 57.836771,45.641861 57.6,46.137532 57.6,46.50318 c 0,0.81168 0.469082,0.382845 0.810192,-0.740672 z M 59.385232,26.82649 C 58.874963,26.23992 57.313754,24.49729 55.915875,22.953979 53.423658,20.20247 53.38415,20.132899 53.882234,19.37273 54.961165,17.726071 60.708931,14.588026 64.48,13.586782 67.606931,12.756562 72.428979,12.618084 75.389421,13.27349 81.883834,14.711276 87.68,19.047914 87.68,22.469191 c 0,1.238949 -0.448326,2.491512 -0.891258,2.490058 C 86.662934,24.958833 86.056,24.519088 85.44,23.982032 83.540922,22.326329 83.2,22.22707 83.2,23.329855 c 0,1.447369 -0.541984,1.476778 -1.260486,0.0684 -1.501117,-2.942431 -5.559143,-4.010772 -10.422759,-2.743961 -4.120531,1.073262 -9.195475,4.14776 -10.720256,6.494537 l -0.483504,0.744153 z"
       id="path1408"
       inkscape:connector-curvature="0" />
    <path
       style="fill:#d7907a;stroke-width:0.31999999"
       d="m 43.797459,95.839998 c -0.103936,-0.176 -0.283625,-0.716 -0.399312,-1.2 -0.115686,-0.484 -0.360096,-0.88 -0.543129,-0.88 -0.183034,0 -0.230042,0.16625 -0.104461,0.369443 0.145907,0.23608 0.08728,0.282269 -0.162403,0.127955 -0.214903,-0.132816 -0.308839,-0.323379 -0.208746,-0.423472 0.100093,-0.100096 -0.05664,-0.445676 -0.348307,-0.767958 -0.440864,-0.487149 -0.451155,-0.585968 -0.06104,-0.585968 0.566355,0 1.869936,1.16127 1.869936,1.665798 0,0.198477 0.08367,0.2772 0.185926,0.174941 0.45312,-0.453117 -1.297484,-2.613849 -1.923187,-2.373744 -0.217129,0.08332 -0.374739,-0.15568 -0.374739,-0.568265 0,-0.391635 0.184915,-0.712064 0.410918,-0.712064 0.30962,0 0.322128,0.106989 0.05074,0.433993 -0.279005,0.336183 -0.255136,0.393684 0.10591,0.255136 0.668762,-0.256627 2.19192,1.268202 2.146573,2.148925 -0.06601,1.281862 -0.448519,2.667459 -0.644682,2.33528 z M 5.9167242,94.56708 C 5.7425258,94.309832 4.88,93.921099 4,93.703227 3.12,93.485355 2.353382,93.278382 2.2964044,93.243284 2.2394268,93.20819 2.4044314,92.770091 2.6630812,92.269736 3.3230573,90.993019 4.1091251,86.549534 3.7792736,85.96012 3.4831296,85.430942 3.9745622,77.778606 4.5011136,74.719998 5.1283354,71.076623 6.0879434,68.132543 7.6866643,64.946719 9.4809696,61.371148 10.24,58.86861 10.24,56.528316 c 0,-0.867469 0.288959,-3.270832 0.642131,-5.340807 0.723858,-4.242601 3.336683,-16.517919 3.87976,-18.22751 0.712773,-2.243788 2.643564,-5.497513 3.900945,-6.573784 C 20.071097,25.180795 22.859751,24 24.298297,24 c 1.839291,0 5.069973,1.267713 6.744515,2.646536 0.904059,0.744405 2.037466,1.644376 2.518682,1.999937 l 0.874938,0.646473 -0.708179,0.754784 c -0.797248,0.849714 -1.107411,1.894572 -2.038024,6.865559 -1.363712,7.284451 -0.80543,9.38896 2.822065,10.638083 2.611047,0.89911 2.788029,1.091705 2.145306,2.334592 -0.328512,0.635277 -0.496605,1.674544 -0.461277,2.851939 0.03056,1.018845 -0.109094,2.160147 -0.310371,2.53623 -0.201274,0.376087 -0.357907,0.873258 -0.348074,1.104829 0.0098,0.231571 0.270845,-0.202237 0.580026,-0.964016 0.437843,-1.078787 0.63879,-1.291066 0.908765,-0.96 0.19064,0.233779 0.273379,1.001053 0.183859,1.705053 -0.08952,0.704 -0.182509,1.604 -0.206643,2 -0.02413,0.396 -0.141677,0.72 -0.261197,0.72 -0.362547,0 -0.869882,3.172643 -1.049002,6.56 -0.214214,4.050992 -0.4471,7.114748 -0.741888,9.759999 -0.127491,1.144 -0.231798,3.736 -0.231798,5.76 0,3.981911 0.598426,6.577767 1.820042,7.895002 0.354502,0.382249 0.666016,1.054141 0.692252,1.493088 0.02624,0.438947 0.100848,0.745053 0.165802,0.680237 0.232877,-0.232394 1.034365,0.811203 1.525184,1.985897 0.456362,1.09223 0.455654,1.159853 -0.0081,0.774957 -0.279462,-0.231933 -0.4292,-0.549383 -0.332749,-0.70544 0.09645,-0.156058 0.0287,-0.283741 -0.150573,-0.283741 -0.766467,0 -3.584211,-3.848214 -3.723366,-5.085027 -0.03187,-0.283235 -0.22553,-0.928813 -0.430358,-1.434621 -0.759284,-1.874963 -1.095412,-8.978278 -0.696964,-14.728707 0.207076,-2.988521 0.462279,-5.57247 0.56712,-5.742105 0.104839,-0.169632 0.02435,-0.205677 -0.178825,-0.0801 -0.226218,0.139808 -0.374221,0.0039 -0.38177,-0.350557 -0.0068,-0.318387 -0.469609,-0.866886 -1.028512,-1.218886 -1.476706,-0.930039 -4.501062,-4.991187 -6.236692,-8.374717 -0.827972,-1.614093 -1.621523,-2.86295 -1.763445,-2.775238 -0.296295,0.18312 -3.216932,5.8392 -4.324113,8.374038 -0.409376,0.937245 -1.166471,3.375616 -1.682434,5.418605 -0.63836,2.527625 -1.465829,4.743852 -2.589651,6.935916 -2.524169,4.923504 -6.1647192,12.189914 -6.5228264,13.019331 -0.176,0.407639 -0.68,0.839511 -1.12,0.959715 -0.4731549,0.129261 -0.57676,0.231584 -0.2535882,0.250452 0.476144,0.02781 0.4247373,0.289094 -0.3997475,2.031897 -0.5203878,1.1 -0.9563942,2.432 -0.968903,2.96 -0.012509,0.528 -0.122097,1.210832 -0.2435283,1.517402 -0.1888039,0.476659 -0.2666628,0.489651 -0.5375088,0.08968 z M 6.48,87.468069 c -0.22,-0.08877 -0.58,-0.08877 -0.8,0 -0.22,0.08877 -0.04,0.161404 0.4,0.161404 0.44,0 0.62,-0.07263 0.4,-0.161404 z m 27.980586,-24.66807 c -0.08049,-0.308 -0.146346,-0.056 -0.146346,0.56 0,0.616 0.06586,0.868 0.146346,0.56 0.08049,-0.308 0.08049,-0.812 0,-1.12 z m 0.318009,-2.38 c -0.10215,-0.255274 -0.177977,-0.17945 -0.193331,0.193334 -0.01389,0.337331 0.06173,0.526333 0.16807,0.42 0.106333,-0.106336 0.1177,-0.382336 0.02525,-0.613334 z m 0.67761,-2.82 v -0.8 l -0.256205,0.8 c -0.140912,0.44 -0.256205,1.16 -0.256205,1.6 v 0.8 l 0.256205,-0.8 c 0.140912,-0.44 0.256205,-1.16 0.256205,-1.6 z m 15.957808,36.52677 c -0.255773,-0.289725 -0.564487,-1.271248 -0.686032,-2.181161 -0.133632,-1.000394 -0.463066,-1.873466 -0.833357,-2.208576 -0.494774,-0.447763 -0.538733,-0.652387 -0.228928,-1.065607 0.310938,-0.414723 0.304435,-0.441609 -0.03438,-0.142179 -1.088384,0.961872 -5.911123,-2.400185 -8.953888,-6.241987 l -0.964979,-1.218387 1.085053,-5.034163 c 0.596781,-2.76879 1.548522,-6.501286 2.114982,-8.294435 1.02297,-3.238247 1.032071,-3.252707 1.347098,-2.140275 2.31687,8.181436 4.194669,13.373436 6.689062,18.494854 1.248061,2.562483 1.272144,2.671651 0.692202,3.137654 -0.571885,0.459523 -0.567856,0.466896 0.08356,0.152934 0.599831,-0.289097 0.737123,-0.202592 1.110989,0.7 0.616013,1.487184 2.404314,3.346381 3.585718,3.727866 0.560391,0.180957 1.55889,0.362419 2.21889,0.403254 0.712694,0.0441 1.2,0.238036 1.2,0.477581 0,0.662966 -1.279536,1.147782 -3.831459,1.451744 -1.324698,0.157786 -2.795754,0.336554 -3.269015,0.397267 -0.513628,0.06589 -1.047929,-0.101949 -1.325513,-0.416384 z M 39.83809,92.796907 c -0.228455,-0.369645 0.938339,-1.993814 1.22582,-1.706333 0.103882,0.103882 -0.129001,0.456074 -0.517516,0.78265 -0.605924,0.509321 -0.638125,0.639513 -0.226394,0.915373 0.291296,0.195171 0.330173,0.323526 0.09889,0.326502 -0.209612,0.0026 -0.470972,-0.140493 -0.580796,-0.318192 z m -0.927191,-0.906915 c -0.110736,-0.179175 -0.04541,-0.422141 0.145171,-0.539927 0.491994,-0.304067 0.809431,0.112432 0.398714,0.523149 -0.229818,0.229818 -0.408806,0.235338 -0.543885,0.01677 z m 0.915943,-1.031283 c -0.11601,-0.187709 -0.142298,-0.40992 -0.05842,-0.493802 0.08388,-0.08388 0.237779,0.0697 0.342,0.34129 0.216377,0.563875 0.03197,0.663059 -0.283584,0.152512 z m -1.714717,-1.164157 c 0.233008,-0.387997 0.492528,-0.636567 0.576713,-0.552381 0.08419,0.08419 -0.106454,0.401635 -0.423648,0.705446 -0.55102,0.527773 -0.55784,0.520954 -0.153065,-0.153065 z M 36.72,79.176421 c -0.340986,-0.345376 -0.297955,-1.982835 0.05789,-2.202755 0.442189,-0.27329 0.559914,0.176448 0.360202,1.376086 -0.09795,0.588365 -0.28609,0.960365 -0.41809,0.826669 z m 2.820573,-0.550224 c 0.120169,-0.315591 0.299101,-0.493191 0.397625,-0.394666 0.09853,0.09852 2.05e-4,0.356733 -0.218489,0.573802 -0.316039,0.313683 -0.352794,0.276928 -0.179136,-0.179136 z m 0.804691,-3.932864 c 0.01536,-0.372784 0.09118,-0.448608 0.193331,-0.193335 0.09244,0.230999 0.08107,0.506999 -0.02525,0.613335 -0.106336,0.106333 -0.181965,-0.08267 -0.16807,-0.42 z m 1.28,-5.12 c 0.01536,-0.372784 0.09118,-0.448608 0.193331,-0.193334 0.09244,0.230998 0.08107,0.506998 -0.02525,0.613334 -0.106336,0.106333 -0.181965,-0.08267 -0.16807,-0.42 z M 42.24,67.218885 c 0,-0.165613 0.142352,-0.389094 0.316336,-0.496621 0.181395,-0.112109 0.23504,0.01635 0.125763,0.301114 C 42.469366,67.577752 42.24,67.679183 42.24,67.218885 Z m 0,-1.618886 c -0.188384,-0.352 -0.270518,-0.64 -0.182518,-0.64 0.088,0 0.314134,0.288 0.502518,0.64 0.188384,0.352 0.270518,0.64 0.182518,0.64 -0.088,0 -0.314134,-0.288 -0.502518,-0.64 z m -1.085763,-0.186173 c -0.254103,-0.662179 -0.277283,-0.580147 0.37719,-1.334762 0.570851,-0.658195 0.571987,-0.65784 1.124621,0.351037 0.54951,1.003174 0.549126,1.005149 -0.05755,0.296288 -0.501517,-0.585994 -0.675011,-0.636166 -0.970141,-0.28056 -0.19767,0.238176 -0.26951,0.667302 -0.159641,0.95361 0.109865,0.286307 0.127757,0.52056 0.03976,0.52056 -0.088,0 -0.247408,-0.227776 -0.354237,-0.506173 z m 1.872605,-1.115117 c -0.11601,-0.187709 -0.142298,-0.40992 -0.05842,-0.493802 0.08388,-0.08388 0.237779,0.0697 0.342,0.34129 0.216377,0.563875 0.03197,0.663059 -0.283584,0.152512 z M 42.24,62.746172 c 0,-0.161607 -0.09896,-0.557607 -0.219914,-0.88 -0.193587,-0.516004 -0.15528,-0.533597 0.32,-0.146992 0.590304,0.480172 0.730269,1.320819 0.219914,1.320819 -0.176,0 -0.32,-0.132224 -0.32,-0.293827 z m 1.776893,-1.598842 c -0.103034,-0.16671 -0.05094,-0.387408 0.115776,-0.490438 0.16671,-0.103034 0.387408,-0.05094 0.490438,0.115776 0.103034,0.16671 0.05094,0.387408 -0.115776,0.490438 -0.16671,0.103034 -0.387408,0.05093 -0.490438,-0.115776 z M 41.92,59.291426 c 0,-0.800288 0.04071,-0.827859 0.517862,-0.350707 0.284826,0.284825 0.42033,0.675683 0.301117,0.868573 C 42.346269,60.444709 41.92,60.175167 41.92,59.291426 Z m 2.368275,-0.782758 c -0.304758,-0.493108 0.03588,-0.625696 0.841671,-0.327616 l 0.74286,0.274803 -0.696083,0.182032 c -0.382848,0.100115 -0.782649,0.04197 -0.888448,-0.129219 z m 20.580384,-5.6328 c -0.280793,-0.310275 -0.69183,-1.241981 -0.913414,-2.070461 -0.426867,-1.59601 -0.46729,-1.444355 1.191936,-4.472045 0.602672,-1.099731 0.25808,-1.698934 -1.655303,-2.878377 -0.969798,-0.597802 -1.344937,-1.017088 -1.214384,-1.357303 0.115428,-0.300796 -0.03437,-0.577968 -0.385104,-0.712556 -0.335955,-0.128919 -0.626204,-0.06368 -0.699865,0.157302 -0.14921,0.447626 -1.352525,0.513658 -1.352525,0.07422 0,-0.18561 -0.364886,-0.176154 -0.94009,0.02435 -1.149715,0.400793 -2.792633,2.262096 -3.0563,3.46255 -0.186816,0.850579 -0.24648,0.874793 -1.53898,0.624598 -0.739548,-0.143155 -1.430716,-0.266557 -1.535932,-0.274221 -0.684279,-0.04985 0.0835,-3.960639 1.217724,-6.202655 0.437015,-0.863847 0.489332,-0.881914 1.059495,-0.365924 0.329881,0.298535 1.506934,0.871264 2.615677,1.27273 l 2.015891,0.729939 1.037056,-0.910547 c 2.92144,-2.565056 8.151811,-1.682518 10.140422,1.711027 2.091402,3.568954 0.952429,7.787056 -2.568294,9.511494 -1.954707,0.957408 -2.741651,1.572151 -2.504259,1.95626 0.317388,0.513542 -0.392343,0.295756 -0.913751,-0.280391 z m -2.778483,-3.496983 c -0.01085,-0.748368 0.472138,-1.252912 0.757462,-0.791248 0.09452,0.152941 -0.03495,0.55129 -0.287712,0.88522 -0.444464,0.58718 -0.459907,0.584092 -0.46975,-0.09397 z M 60.0188,49.310415 c -0.117392,-0.189939 -0.07133,-0.598486 0.102362,-0.907882 0.299491,-0.533488 0.327366,-0.532505 0.539808,0.01898 0.257904,0.669495 -0.300263,1.442125 -0.64217,0.888906 z m -0.662227,-2.177843 c 0.400838,-0.456327 0.5444,-0.474535 0.881142,-0.11176 0.328211,0.353581 0.306349,0.399853 -0.11872,0.251289 -0.286553,-0.100147 -0.683069,-0.04986 -0.881145,0.11176 -0.198074,0.16162 -0.14465,0.04854 0.118723,-0.251289 z m 3.579885,-0.652573 c -0.162247,-0.275552 0.316963,-1.68 0.573232,-1.68 0.09367,0 0.17031,0.432 0.17031,0.96 0,0.886672 -0.411043,1.284701 -0.743542,0.72 z M 60.8,45.778885 c 0,-0.165612 0.137712,-0.386224 0.306026,-0.490249 0.168313,-0.104023 0.219868,-0.436522 0.114566,-0.738887 -0.179136,-0.514377 -0.154829,-0.515315 0.377734,-0.01456 0.637738,0.599636 0.449117,1.54481 -0.308284,1.54481 -0.269524,0 -0.490042,-0.135501 -0.490042,-0.301114 z m -1.099277,-1.585356 c -0.09738,-0.157555 0.03812,-0.369037 0.301114,-0.469955 0.290451,-0.111456 0.478163,9.6e-4 0.478163,0.286467 0,0.517564 -0.500038,0.635305 -0.779277,0.183488 z m -0.345241,-17.56292 c -0.522272,-0.654835 -2.060554,-2.428524 -3.418404,-3.94153 l -2.468819,-2.750921 1.025869,-0.958305 c 1.599955,-1.494577 3.065901,-2.402327 3.47313,-2.150646 0.214844,0.13278 0.285776,0.09077 0.168134,-0.09958 -0.23169,-0.374883 3.25512,-2.018282 5.935376,-2.797453 7.512371,-2.183906 16.131805,-0.343994 21.256371,4.537402 0.779245,0.742267 1.627418,1.853642 1.884835,2.469722 0.533428,1.276673 0.627408,2.876978 0.15169,2.582968 -0.181021,-0.111879 -0.235261,0.01577 -0.126797,0.298417 0.422291,1.100472 -0.845805,0.865843 -2.316349,-0.428584 -1.74958,-1.540041 -2.158732,-1.632773 -1.906512,-0.432098 0.291799,1.389078 -0.274841,1.925089 -0.770384,0.728743 -1.0527,-2.541441 -4.642768,-4.14249 -8.272028,-3.689045 -4.947287,0.618123 -11.856407,4.373359 -13.377482,7.270911 -0.251779,0.479622 -0.411469,0.397109 -1.23863,-0.64 z"
       id="path1406"
       inkscape:connector-curvature="0" />
    <path
       style="fill:#a2716b;stroke-width:0.31999999"
       d="M 43.420192,94.635499 C 43.138979,93.973025 42.686397,93.34562 42.414448,93.241262 42.142502,93.136907 41.92,92.917864 41.92,92.754504 c 0,-0.168048 0.276467,-0.149063 0.636688,0.04372 0.735149,0.39344 1.705338,2.106451 1.508493,2.663466 -0.07353,0.20807 -0.363776,-0.163719 -0.644989,-0.826192 z m 0.766752,-0.715501 C 44.130586,93.157403 43.597309,92.417614 42.72,91.884984 c -0.597901,-0.362999 -0.600131,-0.382519 -0.03391,-0.296771 0.816381,0.123632 1.893994,1.6239 1.7025,2.370243 -0.143658,0.559888 -0.15762,0.557222 -0.201642,-0.03846 z m 2.925885,-5.760093 c -0.575946,-0.250272 -2.411946,-1.80438 -4.08,-3.453568 C 40.774051,82.473109 40,81.498862 40,80.889131 c 0,-1.96968 2.792707,-13.5908 3.667085,-15.259606 l 0.428377,-0.81759 0.369386,1.434032 c 1.562499,6.065974 5.700371,17.128486 7.216419,19.29295 0.716992,1.023648 0.610807,1.265964 -0.97431,2.223411 -1.640499,0.990899 -2.109383,1.042765 -3.594128,0.397577 z M 5.6042336,87.205253 C 3.6767206,86.507333 3.4689168,86.038558 3.6888416,82.884395 4.3050704,74.04645 5.2432998,69.815691 7.651015,65.017759 9.4791542,61.374767 10.24,58.879906 10.24,56.528316 c 0,-0.867469 0.288959,-3.270832 0.642131,-5.340807 0.723858,-4.242601 3.336683,-16.517919 3.87976,-18.22751 0.712773,-2.243788 2.643564,-5.497513 3.900945,-6.573784 C 20.071097,25.180795 22.859751,24 24.298297,24 c 1.839291,0 5.069973,1.267713 6.744515,2.646536 0.904059,0.744405 2.037466,1.644376 2.518682,1.999937 l 0.874938,0.646473 -0.708179,0.754784 c -0.797248,0.849714 -1.107411,1.894572 -2.038024,6.865559 -1.363712,7.284451 -0.80543,9.38896 2.822065,10.638083 2.619079,0.901875 2.788996,1.089833 2.132656,2.359053 -0.320182,0.619164 -0.499065,1.614112 -0.452492,2.516771 0.04236,0.82104 -0.157533,2.212803 -0.444208,3.092803 -0.506285,1.554125 -1.21889,5.212285 -1.714231,8.8 -0.133648,0.968 -0.295654,1.472 -0.360013,1.12 -0.06436,-0.352 -0.570169,-0.928 -1.124022,-1.28 -1.472934,-0.936119 -4.499816,-5.00665 -6.227514,-8.374717 -0.827972,-1.614093 -1.621523,-2.86295 -1.763446,-2.775238 -0.296294,0.18312 -3.216932,5.8392 -4.324113,8.374038 -0.409375,0.937245 -1.166471,3.375616 -1.682434,5.418605 -0.63836,2.527625 -1.465829,4.743852 -2.589651,6.935916 C 13.348736,78.837502 9.7899936,85.946328 9.44,86.768389 9.0435587,87.699544 7.4656774,87.879253 5.6042336,87.205253 Z M 64.868659,52.875868 c -0.280793,-0.310275 -0.69048,-1.236938 -0.910416,-2.059251 -0.427062,-1.596743 -0.37456,-1.798612 1.050138,-4.03769 0.872096,-1.370602 0.481827,-2.33543 -1.315581,-3.2524 C 62.913744,43.129084 62.4,42.640681 62.4,42.297497 c 0,-0.896403 -0.620922,-1.354835 -1.278675,-0.944061 -0.306103,0.191162 -0.827623,0.242867 -1.158935,0.114899 -0.540979,-0.20895 -0.482678,-0.342624 0.571898,-1.311245 1.398355,-1.284384 3.408874,-1.895734 5.356493,-1.628784 6.59847,0.904423 8.278573,9.790375 2.395888,12.671693 -1.954707,0.957408 -2.741651,1.57215 -2.504259,1.956259 0.317388,0.513543 -0.392343,0.295757 -0.913751,-0.28039 z m -2.78376,-3.515869 c -0.0027,-0.396 0.139101,-0.72 0.315101,-0.72 0.400934,0 0.400934,0.339597 0,0.96 -0.250838,0.388147 -0.311136,0.342221 -0.315101,-0.24 z m -2.171565,-0.46 C 60.111117,48.306649 60.8,48.208236 60.8,48.773333 c 0,0.278666 -0.228,0.506666 -0.506666,0.506666 -0.278668,0 -0.449667,-0.171002 -0.38,-0.38 z M 63.04,46.098885 c 0,-0.341612 0.144,-0.710112 0.32,-0.818886 0.181491,-0.112166 0.32,0.156678 0.32,0.621114 0,0.450387 -0.144,0.818886 -0.32,0.818886 -0.176,0 -0.32,-0.279501 -0.32,-0.621114 z m -1.857821,-0.827568 c 0.235383,-0.516601 0.479405,-0.697734 0.675632,-0.501507 0.417735,0.417735 0.03567,1.310189 -0.560909,1.310189 -0.400643,0 -0.42024,-0.138138 -0.114723,-0.808682 z m -3.619353,-4.721071 c 0.136777,-0.137367 0.597094,-0.1121 1.022928,0.05614 0.72678,0.287148 0.711532,0.30246 -0.248682,0.249756 -0.562611,-0.03088 -0.911024,-0.168537 -0.774246,-0.3059 z m -2.713229,-1.590247 -0.609597,-0.72 0.72,0.609597 c 0.676621,0.57287 0.865677,0.830403 0.609597,0.830403 -0.06072,0 -0.384723,-0.324 -0.72,-0.72 z m 5.112406,-11.52 c -0.12967,-0.22 -0.433993,-0.710665 -0.676272,-1.090368 -0.304921,-0.477878 -0.334221,-0.756056 -0.09519,-0.903785 0.189923,-0.11738 0.311155,-0.09471 0.269401,0.05037 -0.132707,0.461135 0.719712,1.729409 1.032448,1.536128 0.165152,-0.102071 0.214522,0.0379 0.109709,0.311037 -0.230649,0.60106 -0.333609,0.616602 -0.640096,0.09662 z m 1.52792,-1.985401 c 0.643459,-0.598447 1.088707,-1.169301 0.989443,-1.268566 -0.09926,-0.09926 -0.373731,-0.0201 -0.609923,0.175926 -0.315878,0.262155 -0.429443,0.261421 -0.429443,-0.0028 0,-0.19755 0.144,-0.377182 0.32,-0.399182 0.176,-0.022 0.5,-0.06734 0.72,-0.100757 0.965219,-0.14661 0.843386,0.297694 -0.399414,1.456588 -0.73384,0.684293 -1.430176,1.240272 -1.547418,1.23551 -0.117242,-0.0048 0.313296,-0.498296 0.956755,-1.096743 z m 1.998215,-1.826153 c -0.09664,-0.156366 -0.057,-0.25677 0.08808,-0.22312 0.145082,0.03365 1.527872,-0.558695 3.072868,-1.316323 1.544995,-0.757628 2.856572,-1.321592 2.91462,-1.253254 0.05804,0.06834 -1.245676,0.78862 -2.897158,1.600626 -1.651485,0.812005 -3.081766,1.348437 -3.178406,1.192071 z M 81.92,23.04 c -0.188384,-0.352 -0.270518,-0.64 -0.182518,-0.64 0.088,0 0.314134,0.288 0.502518,0.64 0.188384,0.352 0.270518,0.64 0.182518,0.64 -0.088,0 -0.314134,-0.288 -0.502518,-0.64 z m 5.353987,0.02565 c -0.13919,-0.532271 -0.09755,-0.657209 0.139917,-0.419747 0.185952,0.185952 0.275133,0.526982 0.198179,0.757843 -0.07989,0.239663 -0.224941,0.09461 -0.338096,-0.338096 z m -1.840406,-0.513384 c -0.222631,-0.268253 -0.34281,-0.549705 -0.267069,-0.625447 0.07574,-0.07574 0.313485,0.143737 0.528314,0.487733 0.464579,0.743911 0.309641,0.825587 -0.261245,0.137714 z M 81.106842,21.73871 c -0.11601,-0.187709 -0.142298,-0.40992 -0.05842,-0.493801 0.08388,-0.08388 0.237779,0.0697 0.342,0.34129 0.216377,0.563874 0.03197,0.663058 -0.283584,0.152511 z m 4.513731,-0.844909 c -0.173658,-0.456063 -0.136903,-0.49282 0.179136,-0.179135 0.218694,0.217067 0.317014,0.475278 0.218489,0.573801 -0.09852,0.09852 -0.277456,-0.07907 -0.397625,-0.394666 z m 1.419037,0.359532 c -2.15e-4,-0.161333 -0.360215,-0.711731 -0.8,-1.223106 -0.973664,-1.132161 -1.041588,-1.468406 -0.129972,-0.643403 0.81272,0.735498 1.369738,1.720467 1.116288,1.973916 -0.102259,0.10226 -0.186102,0.05393 -0.186316,-0.107407 z M 78.56,20.430251 c -1.21465,-0.458678 -2.15792,-0.569987 -3.916528,-0.462162 -1.27409,0.07812 -2.382909,0.03462 -2.464045,-0.09665 -0.305203,-0.493834 4.438173,-0.356638 6.201472,0.179369 0.978506,0.297446 1.897805,0.51213 2.042887,0.477074 0.145081,-0.03505 0.172582,0.08383 0.06111,0.264192 -0.111469,0.180361 -0.230173,0.308679 -0.263785,0.285152 C 80.187501,21.053696 79.44,20.762559 78.56,20.430251 Z M 70.4,20.48 c 0.264,-0.17061 0.696,-0.302284 0.96,-0.292609 0.316499,0.0116 0.261997,0.11127 -0.16,0.292609 -0.879709,0.378023 -1.38495,0.378023 -0.8,0 z"
       id="path1404"
       inkscape:connector-curvature="0" />
    <path
       style="fill:#264159;stroke-width:0.31999999"
       d="m 47.84,88.406606 c -1.305104,-0.309574 -6.074963,-4.506259 -7.211107,-6.344579 -0.661632,-1.070544 -0.664189,-1.136531 -0.144666,-3.73591 0.714183,-3.573357 2.240778,-9.621501 2.956074,-11.711536 l 0.583667,-1.705418 1.205984,4.247367 c 1.713277,6.034003 4.513821,13.102547 6.843994,17.274172 0.137132,0.245501 -2.12586,1.747114 -2.958144,1.962883 -0.349693,0.09066 -0.923802,0.09652 -1.275802,0.01302 z M 7.36,87.444699 C 5.5094,87.196638 3.8406102,86.357313 3.798705,85.653531 3.6142867,82.556293 4.4209542,74.874827 5.2906762,71.446283 c 0.4231184,-1.667984 1.6199081,-4.80111 2.7249129,-7.133667 1.8637648,-3.934224 1.9850959,-4.336713 2.2415939,-7.435987 0.301211,-3.639542 1.270999,-9.524102 2.253937,-13.67663 0.354116,-1.496 0.862338,-3.861357 1.129382,-5.256345 1.560646,-8.152544 4.500469,-12.562083 9.056026,-13.58344 2.834247,-0.635439 6.714932,0.672717 9.265569,3.123368 0.730873,0.702221 1.637849,1.374836 2.015506,1.4947 0.609149,0.193336 0.626589,0.251546 0.154515,0.51573 -0.907977,0.508131 -1.468019,2.015444 -2.324526,6.256323 -1.011293,5.007277 -1.128053,8.454442 -0.3368,9.943536 0.586885,1.104486 1.131922,1.433715 3.259096,1.968656 0.709437,0.17841 1.543216,0.509619 1.852838,0.736022 0.530282,0.387751 0.531892,0.473914 0.02771,1.484541 -0.294377,0.590096 -0.568816,1.955802 -0.609862,3.034906 -0.04104,1.0791 -0.230547,2.322003 -0.421114,2.762003 -0.488192,1.127181 -1.24976,4.88151 -1.515875,7.47287 -0.123859,1.20608 -0.314835,2.063142 -0.424397,1.904582 -0.109558,-0.158556 -0.655622,-0.606912 -1.213472,-0.996342 -1.504014,-1.049936 -4.541054,-5.249117 -6.242248,-8.630877 l -1.49652,-2.974895 -1.455976,2.671023 c -2.493306,4.574032 -3.710295,7.493725 -4.536445,10.883447 -1.063149,4.362134 -2.039215,6.77687 -4.346441,10.752867 -1.06046,1.827468 -2.670607,4.982921 -3.578104,7.012115 C 9.1110435,87.484254 8.9497888,87.6578 7.36,87.444699 Z m 60.16,-36.2447 c 0.264,-0.170611 0.624,-0.310198 0.8,-0.310198 0.176,0 0.104,0.139587 -0.16,0.310198 -0.264,0.170611 -0.624,0.310198 -0.8,0.310198 -0.176,0 -0.104,-0.139587 0.16,-0.310198 z m 1.92,-1.080819 c 0,-0.06645 0.252,-0.318448 0.56,-0.56 0.507539,-0.398039 0.518858,-0.38672 0.120819,0.120819 C 69.702781,50.213039 69.44,50.382553 69.44,50.11918 Z m -8.16,-4.679181 c -0.108774,-0.176 -0.04527,-0.32 0.141114,-0.32 0.186387,0 0.338886,0.144 0.338886,0.32 0,0.176 -0.0635,0.32 -0.141114,0.32 -0.07761,0 -0.230112,-0.144 -0.338886,-0.32 z"
       id="path1402"
       inkscape:connector-curvature="0" />
    <path
       style="fill:#233d57;stroke-width:0.31999999"
       d="m 46.711203,87.778216 c -1.6332,-1.118346 -5.082947,-4.343043 -5.886329,-5.502326 l -0.833623,-1.202919 0.652967,-3.176486 c 0.8079,-3.930189 2.5047,-10.501517 3.040918,-11.776806 l 0.399667,-0.950528 0.230666,1.050217 c 0.942528,4.291306 4.111187,13.009213 6.431737,17.695584 l 1.383978,2.794957 -1.373706,0.805043 c -1.600041,0.937686 -2.934566,1.024515 -4.046275,0.263264 z M 5.9450595,87.001438 C 3.7624992,86.489653 3.7283981,86.40483 3.9687037,82.085448 c 0.1176665,-2.114998 0.4222614,-5.21345 0.6768777,-6.88545 0.2546167,-1.672 0.465522,-3.156499 0.4686788,-3.298886 0.00317,-0.142387 0.1502684,-0.169561 0.3269142,-0.06039 0.1797363,0.111082 0.2244253,0.577392 0.1014787,1.058886 -0.1208326,0.473213 -0.1999331,1.143949 -0.1757785,1.490528 0.024154,0.346576 -0.097275,0.717402 -0.2698426,0.824055 -0.172568,0.106652 -0.3790317,1.263088 -0.4588086,2.569859 -0.079777,1.306771 -0.2407978,3.491945 -0.3578244,4.855945 -0.1520742,1.772499 -0.1083081,2.48 0.1534128,2.48 0.2014036,0 0.3661882,0.152499 0.3661882,0.338887 0,0.186387 -0.18,0.230745 -0.4,0.09857 -0.264671,-0.159008 -0.2492435,-0.05452 0.0456,0.308848 0.24508,0.302039 0.5198307,0.474928 0.6105568,0.384202 0.090726,-0.09073 0.3721421,0.007 0.6253683,0.217152 0.3682832,0.305648 0.5331988,0.257069 0.8241661,-0.242778 0.200065,-0.343686 0.3947722,-0.965414 0.4326832,-1.381622 0.037911,-0.416205 0.3028019,-1.015165 0.5886471,-1.331021 0.4810678,-0.531574 0.476334,-0.599798 -0.063652,-0.917404 -0.4949533,-0.29112 -0.512936,-0.389312 -0.1186486,-0.647866 0.5301699,-0.347658 1.078112,-0.132243 0.8016131,0.315142 -0.2264973,0.36648 0.1884717,0.380192 0.7488125,0.02474 0.3315888,-0.210342 0.315487,-0.346057 -0.08,-0.674284 -0.541856,-0.449693 -0.6713677,-1.292564 -0.1986106,-1.292564 0.1630951,0 0.3548797,0.252 0.4261885,0.56 0.089107,0.384874 0.307455,0.134692 0.6982093,-0.8 0.3127063,-0.748 0.7592183,-1.36 0.9922473,-1.36 0.513181,0 0.919179,-1.12695 0.59498,-1.651516 -0.156106,-0.252583 -0.06257,-0.311789 0.283048,-0.179162 0.354848,0.13617 0.462942,0.0593 0.34582,-0.24591 -0.09371,-0.244199 0.111569,-0.685408 0.456171,-0.980464 0.471554,-0.403757 0.589162,-0.813888 0.47542,-1.657908 -0.102892,-0.763507 -0.03902,-1.052153 0.200126,-0.904355 0.205133,0.126778 0.353292,-0.02374 0.356154,-0.361798 0.0042,-0.496826 0.05321,-0.510845 0.345697,-0.09889 0.249974,0.352076 0.295524,-0.02922 0.170919,-1.430749 -0.191937,-2.158861 0.06624,-4.649251 0.48198,-4.649251 0.152077,0 0.276504,0.576 0.276504,1.28 0,0.704 -0.144,1.28 -0.32,1.28 -0.176,0 -0.32,0.3168 -0.32,0.704 0,0.509187 0.09677,0.607232 0.349695,0.354304 0.408292,-0.408292 1.207212,-5.449136 1.066618,-6.729911 -0.05286,-0.48151 0.01087,-0.95038 0.141617,-1.041932 0.48895,-0.342381 1.625594,-3.197053 1.452536,-3.648036 -0.09897,-0.257916 0.130318,-0.779209 0.509534,-1.158425 0.379216,-0.379216 0.613684,-0.887018 0.521039,-1.128445 -0.109205,-0.284582 -0.006,-0.37663 0.29342,-0.261728 0.254026,0.09748 0.368443,0.328397 0.25426,0.513146 -0.12123,0.196156 -0.0539,0.240915 0.161838,0.107584 0.453131,-0.280048 0.490539,-1.150557 0.04944,-1.150557 -0.176,0 -0.32,-0.161632 -0.32,-0.359181 0,-0.236832 0.176001,-0.213117 0.516677,0.06962 0.443799,0.36832 0.606864,0.317427 1.156074,-0.360816 0.351668,-0.434291 0.767163,-0.789622 0.923323,-0.789622 0.407252,0 0.397409,-0.602173 -0.01207,-0.738666 -0.1892,-0.06307 -0.344,0.04133 -0.344,0.232 0,0.190666 -0.231572,0.346666 -0.514604,0.346666 -0.311937,0 -0.0031,-0.409587 0.784237,-1.04 0.720392,-0.576826 1.232988,-1.23401 1.150976,-1.475629 -0.09863,-0.290576 0.02109,-0.370797 0.359539,-0.240918 0.654524,0.251165 1.475402,-0.566349 1.224696,-1.219677 -0.106324,-0.277075 -0.03391,-0.503776 0.16092,-0.503776 0.19483,0 0.354236,0.152499 0.354236,0.338886 0,0.186388 0.156547,0.242135 0.347882,0.123882 0.25051,-0.154822 0.25051,-0.312374 0,-0.562886 -0.452705,-0.452704 -0.450669,-0.961178 0.0027,-0.680964 0.416045,0.257124 2.209398,-1.607788 2.209398,-2.297555 0,-0.278592 0.153469,-0.384285 0.36667,-0.252518 0.259951,0.160656 0.301788,-0.0319 0.143745,-0.661591 -0.186965,-0.744928 -0.136715,-0.85512 0.311516,-0.683116 0.432465,0.165952 0.50499,0.05102 0.380095,-0.602327 -0.124975,-0.653763 -0.07135,-0.738524 0.281814,-0.445427 0.357648,0.296822 0.429345,0.110115 0.398299,-1.037203 -0.03585,-1.324909 -0.05209,-1.348224 -0.305859,-0.439181 -0.254942,0.913229 -0.260579,0.905434 -0.11569,-0.16 0.08377,-0.616 0.142772,-1.732 0.131115,-2.48 -0.02219,-1.423555 0.50668,-1.882438 0.737603,-0.64 0.136003,0.731738 0.177036,-0.02608 0.264239,-4.88 0.03329,-1.852851 0.121453,-2.413947 0.276551,-1.76 l 0.227685,0.96 0.325163,-0.8 c 0.598989,-1.473697 0.639798,-1.755563 0.384879,-2.658335 -0.343427,-1.216214 -0.05247,-1.970279 0.563108,-1.459394 0.317154,0.263215 0.558085,0.276712 0.79051,0.04429 0.232429,-0.232427 0.213226,-0.409162 -0.063,-0.579881 -0.256122,-0.158292 -0.316181,-0.114266 -0.168997,0.123883 0.12558,0.203193 0.08433,0.369442 -0.09167,0.369442 -0.176,0 -0.415064,-0.153817 -0.531254,-0.341815 -0.116189,-0.187999 -0.420167,-0.261648 -0.675505,-0.163666 -0.259253,0.09949 -0.377923,0.03847 -0.268747,-0.138184 C 30.349779,27.662351 30.293531,27.52 30.117245,27.52 c -0.176281,0 -0.265631,-0.284971 -0.198555,-0.633271 0.06708,-0.348298 -0.03544,-0.730548 -0.227816,-0.849442 -0.20969,-0.129595 -0.258328,-0.06821 -0.121445,0.153271 0.12558,0.203193 0.09983,0.369442 -0.05722,0.369442 -0.407647,0 -0.363331,1.073469 0.05618,1.360896 0.193379,0.132492 0.03131,0.196203 -0.360155,0.14158 -0.391464,-0.05462 -0.823464,-0.222114 -0.96,-0.3722 -0.136535,-0.150086 -0.07241,-0.171871 0.142505,-0.04841 0.279055,0.160308 0.378613,-0.09837 0.34829,-0.904963 -0.03647,-0.970004 -0.111375,-1.073499 -0.530664,-0.733169 -0.411935,0.334361 -0.453282,0.303215 -0.264662,-0.199362 0.170842,-0.455207 0.105608,-0.550372 -0.276706,-0.403665 -0.287638,0.110377 -0.417157,0.05752 -0.304744,-0.124371 0.107528,-0.173984 -0.02447,-0.316335 -0.293336,-0.316335 -0.287347,0 -0.41804,0.18451 -0.31707,0.447632 0.09447,0.246198 -0.0065,0.55782 -0.224424,0.692495 -0.268586,0.165995 -0.336301,0.08878 -0.210235,-0.239743 0.140454,-0.366018 -0.05849,-0.491555 -0.812974,-0.513007 -0.637024,-0.01811 -0.846219,0.06598 -0.577416,0.232111 0.267789,0.165503 0.302321,0.334181 0.09469,0.462506 -0.179758,0.111097 -0.375131,0.07461 -0.434164,-0.08108 -0.05903,-0.155693 -0.544374,-0.377232 -1.078537,-0.492311 -0.872896,-0.188053 -1.045677,-0.08672 -1.706891,1.001083 -0.404626,0.665674 -0.637769,0.922316 -0.518095,0.570316 0.484839,-1.426066 0.473559,-1.551487 -0.05036,-0.56 -0.302257,0.572 -0.675931,1.04 -0.830387,1.04 -0.154456,0 -0.204943,0.122786 -0.112194,0.272857 0.09275,0.150072 -0.03817,0.546072 -0.290938,0.88 -0.400685,0.529348 -0.460876,0.538805 -0.469749,0.07381 C 19.52458,28.453333 19.7,28.140701 19.92,28.051929 c 0.286066,-0.11543 0.270178,-0.168599 -0.05578,-0.186667 -0.343108,-0.01902 -0.295566,-0.203253 0.192316,-0.745263 0.868058,-0.964365 1.182648,-1.865648 0.569005,-1.630172 -0.254026,0.09748 -0.396697,0.282678 -0.317048,0.411554 0.19912,0.322183 -0.742986,1.618618 -1.176234,1.618618 -0.193298,0 -0.07713,-0.310291 0.258145,-0.689536 L 20,26.140927 19.132478,26.69909 c -1.04091,0.669722 -1.369023,1.530476 -0.910206,2.387785 0.441378,0.824721 0.432292,2.17691 -0.01649,2.454273 -0.247557,0.152997 -0.285433,-0.09427 -0.125783,-0.821149 0.164379,-0.74841 0.125176,-0.976248 -0.139799,-0.812484 -0.20253,0.12517 -0.604889,0.03518 -0.894133,-0.199967 -0.45704,-0.371569 -0.497582,-0.352052 -0.309647,0.149072 0.145946,0.389161 0.09733,0.503127 -0.149529,0.350557 -0.236842,-0.146377 -0.277498,-0.08322 -0.115338,0.179157 0.145891,0.236056 0.06634,0.521826 -0.190557,0.684542 -0.34878,0.220914 -0.323896,0.280348 0.119003,0.284223 0.308,0.0027 0.56,-0.2111 0.56,-0.4751 0,-0.264 0.144,-0.48 0.32,-0.48 0.755801,0 0.226339,0.886128 -0.83062,1.390157 -0.771816,0.368055 -1.091171,0.703613 -0.970043,1.019267 0.09932,0.258816 0.05209,0.470576 -0.104944,0.470576 -0.157037,0 -0.261142,0.629908 -0.231347,1.399792 0.03775,0.975386 0.175872,1.353091 0.455564,1.245763 C 15.819375,35.840838 16,35.946338 16,36.159999 c 0,0.21384 0.215778,0.305671 0.48,0.204279 0.377762,-0.14496 0.470718,0.06926 0.436422,1.005763 -0.02723,0.743577 -0.0956,0.919869 -0.182257,0.469958 -0.07627,-0.396 -0.262647,-0.72 -0.414165,-0.72 -0.151518,0 -0.337892,0.324 -0.414165,0.72 -0.08491,0.440826 -0.165371,0.22369 -0.20752,-0.56 -0.03786,-0.704 -0.14874,-1.078201 -0.246393,-0.831555 -0.13083,0.330438 -0.297872,0.24623 -0.634791,-0.32 -0.447229,-0.751619 -0.453956,-0.752688 -0.307227,-0.04877 0.08251,0.395827 0.01953,0.800323 -0.139946,0.898887 -0.159477,0.09856 -0.287753,0.422707 -0.285058,0.72032 0.0042,0.466326 0.04777,0.474774 0.3151,0.06111 0.480909,-0.744153 0.375223,-0.209024 -0.177562,0.899059 -0.383812,0.76937 -0.416338,1.149156 -0.142272,1.661252 0.195409,0.365126 0.267856,0.982425 0.160992,1.371776 -0.192516,0.701424 -0.189379,0.702048 0.342264,0.06791 0.526826,-0.628387 0.533012,-0.625485 0.340939,0.16 -0.107592,0.44 -0.206716,1.016 -0.220275,1.28 -0.01356,0.264 -0.161256,0.138781 -0.328214,-0.278269 l -0.303561,-0.758265 -0.594453,0.758265 c -0.32695,0.41705 -0.693958,1.262269 -0.815572,1.878269 -0.162473,0.82295 -0.132397,0.992694 0.113398,0.64 0.291793,-0.418698 0.335142,-0.412851 0.339416,0.04576 0.0027,0.289171 -0.227437,0.614922 -0.511405,0.723888 -0.327481,0.125667 -0.455469,0.430765 -0.349958,0.834237 0.09149,0.349862 0.02498,0.636112 -0.147813,0.636112 -0.172787,0 -0.28264,0.396 -0.244119,0.88 0.03852,0.484 -0.03803,1.132 -0.170119,1.44 -0.132087,0.308 -0.164005,0.758454 -0.07093,1.001005 0.09308,0.242553 0.04995,0.566553 -0.09584,0.72 C 11.24072,52.02014 10.56,56.054828 10.56,57.440181 c 0,0.460675 0.130571,0.756893 0.290157,0.658263 0.400888,-0.247764 0.0047,1.209708 -0.401511,1.477164 -0.21481,0.141428 -0.18346,0.389162 0.09111,0.72 0.381618,0.459824 0.253814,0.642324 -0.379759,0.542285 -0.132,-0.02083 -0.24,0.124106 -0.24,0.322106 0,0.230637 0.350683,0.289862 0.975908,0.164819 0.605258,-0.121053 0.901925,-0.07547 0.781114,0.12 -0.107136,0.17335 -0.602888,0.315181 -1.101671,0.315181 -1.4394371,0 -1.5872374,1.306822 -0.175351,1.550422 1.019061,0.175824 0.953334,0.331133 -0.127135,0.300413 -0.5460756,-0.01552 -0.9950701,-0.186317 -0.9977652,-0.379533 -0.00269,-0.193216 -0.1371932,-0.142179 -0.2988854,0.113418 -0.3573286,0.564854 -0.1068579,1.069072 0.3812179,0.767424 0.1942653,-0.120061 0.1123152,0.125628 -0.1821113,0.54598 -0.5828116,0.83208 -0.7017245,1.581876 -0.2508765,1.581876 0.1564445,0 0.2644445,-0.236503 0.24,-0.525559 -0.024445,-0.289059 0.1207622,-0.584128 0.3226819,-0.655709 0.2175206,-0.07711 0.3479219,0.182839 0.32,0.637917 -0.035515,0.578816 -0.2236035,0.760093 -0.7633539,0.735709 -0.3939251,-0.01779 -0.7179251,0.07564 -0.72,0.207642 -0.00208,0.132 -0.00377,0.392499 -0.00377,0.578886 0,0.186387 0.18,0.230746 0.4,0.09857 0.2717939,-0.16329 0.2592355,-0.06678 -0.039182,0.301113 -0.3522218,0.434221 -0.360304,0.636471 -0.040818,1.021428 0.2405107,0.289798 0.2666035,0.48 0.065849,0.48 -0.1828835,0 -0.4055526,-0.18 -0.4948204,-0.4 -0.1261866,-0.310986 -0.2300352,-0.303386 -0.4666666,0.03416 -0.1969555,0.280953 -0.3767821,0.316985 -0.5095818,0.102112 -0.1128707,-0.182627 -0.076871,-0.411376 0.08,-0.508327 0.1568711,-0.09695 0.2852199,-0.536278 0.2852199,-0.976278 0,-0.44 -0.1318576,-0.718506 -0.2930167,-0.618906 C 7.145824,66.852367 7.0976816,67.197621 7.2,67.519999 7.3977773,68.143141 6.8903962,68.694591 6.5805514,68.19325 6.4795322,68.0298 7.2011267,66.249061 8.184095,64.236053 c 1.6250922,-3.328 1.8116682,-3.932877 2.056781,-6.668032 0.483374,-5.393849 1.445612,-10.558438 4.160702,-22.331593 1.210446,-5.24873 3.369298,-8.570152 6.596758,-10.149201 1.510643,-0.739089 2.026368,-0.831421 3.89653,-0.697612 2.681423,0.191855 4.71561,1.071716 6.694647,2.895683 0.841767,0.77581 1.804058,1.509753 2.138423,1.630984 0.58696,0.212815 0.584422,0.245447 -0.07356,0.945835 -0.889146,0.946452 -1.159412,1.800715 -2.127218,6.723729 -0.916019,4.659587 -1.013276,7.101404 -0.346416,8.697423 0.4682,1.12056 2.130386,2.39336 3.128398,2.395533 0.302029,6.4e-4 1.0416,0.236032 1.643492,0.523056 l 1.094348,0.521856 -0.639305,1.445258 c -0.439517,0.993593 -0.586557,1.838544 -0.470509,2.703725 0.09996,0.745315 -0.01776,1.704943 -0.288694,2.353398 -0.553476,1.324649 -1.265837,4.691203 -1.568781,7.413904 -0.122394,1.1 -0.316394,1.999049 -0.431114,1.997891 -1.305894,-0.01322 -4.943474,-4.494112 -7.142079,-8.797891 -1.82042,-3.563482 -1.89724,-3.678765 -2.090984,-3.137978 -0.07528,0.210116 -0.379561,0.304532 -0.676191,0.209815 -0.408881,-0.130557 -0.436191,-0.09835 -0.112914,0.133184 0.336898,0.241286 -0.05437,1.254304 -1.863844,4.825651 -1.728003,3.410547 -2.512047,5.405161 -3.193694,8.124793 -1.096488,4.374762 -2.213915,7.343911 -2.660077,7.068167 -0.180224,-0.111386 -0.231603,-0.04706 -0.114173,0.142947 0.292526,0.473315 -0.450107,2.021622 -0.850859,1.773942 -0.183204,-0.113226 -0.223969,-0.03974 -0.09432,0.170035 0.350722,0.567482 -0.139881,1.175136 -0.519629,0.643607 -0.232673,-0.325668 -0.262947,-0.288429 -0.121148,0.149017 0.23905,0.737466 -0.364367,1.906688 -0.834164,1.616339 -0.206447,-0.12759 -0.263285,-0.07262 -0.136695,0.132212 0.279781,0.452694 -2.708654,6.486975 -3.094523,6.248495 -0.1605173,-0.09921 -0.2107301,0.08966 -0.111584,0.4197 0.20813,0.692832 -0.5583195,2.291856 -0.8625723,1.799564 -0.1111447,-0.179836 0.012333,-0.504921 0.2743955,-0.722416 0.5352387,-0.444208 0.6306448,-0.957075 0.178041,-0.957075 -0.1641399,0 -0.3898439,0.288 -0.5015642,0.64 -0.1117203,0.352 -0.4094243,0.64 -0.6615642,0.64 -0.6863737,0 -0.5523683,0.540791 0.1815642,0.73272 0.352,0.09205 0.64,0.324845 0.64,0.517322 0,0.411337 -1.5612477,0.407312 -3.3349405,-0.0086 z m 2.9882739,-0.07547 C 8.86,86.863243 8.296,86.719445 7.68,86.606411 6.892024,86.461819 6.702296,86.494171 7.04,86.715544 c 0.4338035,0.284371 2.2106963,0.481849 1.8933334,0.210419 z M 8.32,65.645112 c 0,-0.306413 0.1728,-0.729913 0.384,-0.941113 0.2607971,-0.260797 0.270841,-0.384 0.031306,-0.384 -0.1939827,0 -0.5107827,0.453488 -0.704,1.00775 C 7.6002266,66.564344 7.597767,66.648594 8,66.399999 8.176,66.291224 8.32,65.951525 8.32,65.645112 Z m 5.76,-24.586274 c 0,-0.230362 -0.144,-0.418839 -0.32,-0.418839 -0.176,0 -0.32,0.204224 -0.32,0.453827 0,0.249607 -0.08376,0.717607 -0.186123,1.04 -0.170317,0.536391 -0.143141,0.533421 0.32,-0.03499 0.278367,-0.341639 0.506123,-0.809639 0.506123,-1.04 z m 0.858596,-6.238839 c -0.102152,-0.255273 -0.177978,-0.179449 -0.193333,0.193335 -0.01389,0.337331 0.06174,0.526332 0.16807,0.42 0.106334,-0.106336 0.117702,-0.382336 0.02526,-0.613335 z m 2.735019,-5.877092 c -0.228295,-0.40794 -0.366766,-0.445236 -0.55033,-0.148224 -0.13917,0.225183 -0.05851,0.5123 0.186451,0.663694 0.582862,0.360229 0.734071,0.146027 0.363879,-0.51547 z M 30.918095,27.03238 C 30.478181,26.592467 30.4,26.586143 30.4,26.990476 c 0,0.261904 0.18,0.540476 0.4,0.619047 0.632162,0.225772 0.681226,-0.01401 0.118095,-0.577143 z m -4.800734,-2.163075 c 0.09751,-0.09751 -0.735001,-0.170876 -1.850032,-0.163028 -1.399449,0.0099 -1.779563,0.08742 -1.227329,0.250468 0.864522,0.25525 2.789364,0.200558 3.077361,-0.08744 z M 5.44,85.599998 C 5.1219203,85.216734 5.1230886,85.021854 5.4458,84.633013 5.8027523,84.202913 5.9029408,84.221665 6.3035206,84.793576 7.0336685,85.836011 6.2462016,86.571413 5.44,85.599998 Z M 5.8186666,85.050664 C 5.5890467,84.821045 5.44,84.802152 5.44,85.002664 c 0,0.427129 0.3784352,0.805565 0.592,0.592 0.090933,-0.09093 -0.00507,-0.335731 -0.2133334,-0.544 z M 4.5551142,83.946059 c -0.048065,-0.633094 0.016902,-0.771561 0.21564,-0.459613 0.227737,0.357463 0.30833,0.325571 0.4043447,-0.16 0.077759,-0.393248 0.2010477,-0.477542 0.3506934,-0.239779 0.1269274,0.201667 -0.024074,0.681392 -0.3355561,1.066058 L 4.6239024,84.852117 Z M 5.04,82.659413 C 4.4326544,82.500699 4.3724989,82.114846 4.8,81.119998 5.0416576,80.55763 5.0777456,80.589358 5.0975088,81.381563 5.1162704,82.13357 5.2261674,82.249429 5.76,82.079998 c 0.4541827,-0.14415 0.64,-0.0575 0.64,0.298436 0,0.499222 -0.2931309,0.559782 -1.36,0.280979 z m 0.5835632,-5.699415 c 0.077617,-1.408 0.1936899,-2.848 0.2579398,-3.2 0.06425,-0.351999 0.1351959,-0.747999 0.1576576,-0.879999 0.022461,-0.132 0.1747872,-0.24 0.3385015,-0.24 0.1787382,0 0.1693667,0.415507 -0.023456,1.039999 -0.1766154,0.572 -0.4450138,2.12 -0.5964413,3.44 l -0.2753229,2.4 z m 0.8506778,1.44 c 0,-0.616 0.065854,-0.868 0.1463433,-0.56 0.080489,0.308 0.080489,0.812 0,1.12 -0.080489,0.308 -0.1463433,0.056 -0.1463433,-0.56 z m 0.6281427,0.16 c 0.00652,-0.528 0.078239,-0.70526 0.1593734,-0.39391 0.081134,0.31135 0.075798,0.74335 -0.011856,0.96 -0.087657,0.21665 -0.154039,-0.03809 -0.1475174,-0.56609 z m -2.2518573,-0.16 c 0,-0.44 0.072631,-0.62 0.1614035,-0.4 0.088772,0.22 0.088772,0.58 0,0.8 -0.088772,0.22 -0.1614035,0.04 -0.1614035,-0.4 z M 10.56,77.261112 c 0,-0.274387 0.144,-0.409888 0.32,-0.301114 0.176,0.108775 0.32,0.333274 0.32,0.498887 0,0.165613 -0.144,0.301113 -0.32,0.301113 -0.176,0 -0.32,-0.224499 -0.32,-0.498886 z M 6.745263,76.293333 c 0.015354,-0.372784 0.091181,-0.448608 0.1933335,-0.193335 0.092439,0.230999 0.08107,0.506999 -0.025264,0.613335 -0.1063335,0.106333 -0.1819651,-0.08267 -0.1680695,-0.42 z m 4.66807,-1.306669 c -0.403609,-0.40361 -0.212191,-0.746666 0.416624,-0.746666 0.428492,0 0.57105,0.153508 0.445763,0.48 -0.196999,0.513373 -0.516794,0.61226 -0.862387,0.266666 z M 7.04,74.079998 c 0,-0.44 0.1240314,-0.799999 0.275625,-0.799999 0.1515939,0 0.2068067,0.359999 0.1226953,0.799999 -0.084111,0.44 -0.2081427,0.8 -0.2756249,0.8 -0.067483,0 -0.1226954,-0.36 -0.1226954,-0.8 z M 6.1951814,71.024091 c 0.1210519,-0.605257 0.075476,-0.901926 -0.12,-0.781113 C 5.9018317,70.350114 5.76,70.669272 5.76,70.952216 c 0,0.282947 -0.081981,0.432467 -0.1821792,0.332269 -0.2368858,-0.236883 0.5308758,-2.804486 0.8385949,-2.804486 0.1293113,0 0.3225177,0.227776 0.4293478,0.506172 0.2894109,0.754192 0.2259005,0.999415 -0.1179664,0.455485 -0.2090678,-0.330701 -0.2747968,-0.0097 -0.2129603,1.04 0.049194,0.835088 -0.04652,1.518343 -0.212697,1.518343 -0.1661769,0 -0.2143081,-0.439159 -0.1069584,-0.975908 z m 0.8673098,0.114794 C 7.050121,70.753272 7.184,70.348773 7.36,70.239999 c 0.3784906,-0.23392 0.3784906,0.07921 0,0.96 -0.2651491,0.617036 -0.2758243,0.614841 -0.2975088,-0.06111 z m 1.7718304,0.276646 c -0.089897,-0.145456 -0.078418,-0.589628 0.02551,-0.987049 0.1417661,-0.542115 0.2565699,-0.615927 0.459664,-0.295533 0.3652182,0.57615 0.3522835,1.54705 -0.020611,1.54705 -0.1656131,0 -0.3746669,-0.119012 -0.464563,-0.264468 z m 4.0280624,-1.495532 c 0.0065,-0.528 0.07824,-0.705261 0.159373,-0.393911 0.08113,0.311351 0.0758,0.743351 -0.01186,0.96 -0.08766,0.21665 -0.154039,-0.03809 -0.147517,-0.566089 z m 0.32,-2.56 c 0.0065,-0.528 0.07824,-0.705261 0.159373,-0.393911 0.08113,0.311351 0.0758,0.743351 -0.01186,0.96 -0.08766,0.21665 -0.154039,-0.03809 -0.147517,-0.566089 z M 11.76,62.508069 c 0.22,-0.08877 0.58,-0.08877 0.8,0 0.22,0.08877 0.04,0.161405 -0.4,0.161405 -0.44,0 -0.62,-0.07263 -0.4,-0.161405 z m 0.08,-2.02807 c 0,-0.176 0.144,-0.32 0.32,-0.32 0.176,0 0.32,0.144 0.32,0.32 0,0.176 -0.144,0.32 -0.32,0.32 -0.176,0 -0.32,-0.144 -0.32,-0.32 z m 3.545263,-0.186666 c 0.01535,-0.372784 0.09118,-0.448608 0.193333,-0.193334 0.09244,0.230998 0.08107,0.506998 -0.02526,0.613334 -0.106333,0.106333 -0.181965,-0.08267 -0.16807,-0.42 z m -3.861362,-1.754665 c 0.291039,-1.591572 0.428669,-1.736983 0.990499,-1.04649 0.392484,0.482368 0.378847,0.52263 -0.1144,0.337779 -0.453109,-0.169814 -0.56,-0.03215 -0.56,0.7212 0,0.51209 -0.123953,1.007677 -0.275451,1.101309 -0.151498,0.09363 -0.16979,-0.407578 -0.04065,-1.113798 z M 16.16,59.199999 c -0.108774,-0.176 -0.04527,-0.32 0.141115,-0.32 0.186386,0 0.338885,0.144 0.338885,0.32 0,0.176 -0.0635,0.32 -0.141115,0.32 -0.07761,0 -0.230111,-0.144 -0.338885,-0.32 z m -5.28,-2.541114 c 0,-0.362387 0.144,-0.658886 0.32,-0.658886 0.176,0 0.32,0.207501 0.32,0.461113 0,0.253613 -0.144,0.550112 -0.32,0.658887 -0.176,0.108774 -0.32,-0.09873 -0.32,-0.461114 z m 1.022384,-1.138886 c 0.0065,-0.528 0.07824,-0.705261 0.159373,-0.393911 0.08113,0.311351 0.0758,0.743351 -0.01186,0.96 -0.08766,0.21665 -0.154039,-0.03809 -0.147517,-0.566089 z m -0.357121,-1.626666 c 0.01535,-0.372784 0.09118,-0.448608 0.193333,-0.193334 0.09244,0.230998 0.08107,0.506998 -0.02526,0.613334 -0.106333,0.106333 -0.181965,-0.08267 -0.16807,-0.42 z m 0.815386,-0.686124 c 0.08705,-0.480036 0.222016,-0.936541 0.299931,-1.014458 0.07792,-0.07791 -0.08635,-0.489651 -0.365026,-0.914973 -0.683409,-1.043014 -0.311754,-1.320806 0.485799,-0.36311 0.776151,0.931997 0.784028,1.034653 0.170429,2.221222 -0.608619,1.176941 -0.795714,1.19951 -0.591133,0.07132 z m 2.525593,-0.646477 c -0.123741,-0.659597 -0.36794,-1.287619 -0.542664,-1.395603 -0.174724,-0.107988 -0.01751,-0.274836 0.349371,-0.370775 0.609133,-0.159293 0.667051,-0.03811 0.667051,1.395603 0,1.875939 -0.166884,2.006551 -0.473758,0.370775 z m -3.020979,-0.267399 c 0.01535,-0.372784 0.09118,-0.448608 0.193333,-0.193334 0.09244,0.230998 0.08107,0.506998 -0.02526,0.613334 -0.106333,0.106333 -0.181965,-0.08267 -0.16807,-0.42 z M 12.8,50.239999 c 0,-0.176 0.144,-0.32 0.32,-0.32 0.176,0 0.32,0.144 0.32,0.32 0,0.176 -0.144,0.32 -0.32,0.32 -0.176,0 -0.32,-0.144 -0.32,-0.32 z m -0.440468,-1.132371 c -0.308793,-0.804701 -0.217699,-1.012336 0.159531,-0.363629 0.186781,0.3212 0.272192,0.651411 0.189802,0.733802 -0.08239,0.08239 -0.23959,-0.08419 -0.349333,-0.370173 z M 14.02,49.381404 c 0.231,-0.09244 0.507,-0.08107 0.613333,0.02525 0.106334,0.106333 -0.08267,0.181965 -0.42,0.16807 -0.372781,-0.01536 -0.448608,-0.09118 -0.193333,-0.193331 z m 9.02,-0.06364 c 0,-0.176 0.144,-0.408996 0.32,-0.51777 0.176,-0.108774 0.32,-0.05377 0.32,0.12223 0,0.176 -0.144,0.408996 -0.32,0.51777 -0.176,0.108774 -0.32,0.05377 -0.32,-0.12223 z m -9.28,-2.411597 c 0,-0.249607 0.09204,-0.69368 0.204532,-0.986832 0.163157,-0.425181 0.259266,-0.446659 0.4751,-0.106173 0.433349,0.683626 0.321945,1.546832 -0.199632,1.546832 -0.264,0 -0.48,-0.204224 -0.48,-0.453827 z m 12.16,-0.0073 c 0,-0.274378 0.144,-0.498877 0.32,-0.498877 0.176,0 0.32,0.135501 0.32,0.301114 0,0.165612 -0.144,0.390112 -0.32,0.498886 -0.176,0.108774 -0.32,-0.02672 -0.32,-0.301114 z M 15.065263,45.253324 c 0.01535,-0.372784 0.09118,-0.448608 0.193333,-0.193335 0.09244,0.230999 0.08107,0.506999 -0.02526,0.613335 -0.106333,0.106333 -0.181965,-0.08267 -0.16807,-0.42 z m -1.6,-1.28 c 0.01535,-0.372784 0.09118,-0.448608 0.193333,-0.193334 0.09244,0.230998 0.08107,0.506998 -0.02526,0.613334 -0.106333,0.106333 -0.181965,-0.08267 -0.16807,-0.42 z m 1.362204,-3.514845 c -0.105847,-0.27583 -0.02933,-0.66463 0.170042,-0.864 0.269988,-0.269977 0.362491,-0.141997 0.362491,0.50152 0,0.962784 -0.239596,1.125875 -0.532533,0.36249 z m -0.223187,-1.57848 c 0.101306,-0.264 0.330419,-0.48 0.509139,-0.48 0.187297,0 0.156197,0.203331 -0.07342,0.48 -0.2191,0.264 -0.448213,0.48 -0.509139,0.48 -0.06093,0 -0.02789,-0.216 0.07342,-0.48 z m 2.700983,-0.986665 c 0.01535,-0.372784 0.09118,-0.448608 0.193333,-0.193335 0.09244,0.230999 0.08107,0.506999 -0.02526,0.613335 -0.106333,0.106332 -0.181965,-0.08267 -0.16807,-0.42 z M 17.2898,36.319999 c 0,-0.176 0.13959,-0.536 0.3102,-0.8 0.17061,-0.264 0.3102,-0.336 0.3102,-0.16 0,0.176 -0.13959,0.536 -0.3102,0.8 -0.17061,0.264 -0.3102,0.336 -0.3102,0.16 z m 11.078412,-0.30975 c -0.09914,-0.258365 -0.04255,-0.554864 0.125764,-0.658887 C 28.662289,35.247337 28.8,35.458726 28.8,35.821113 c 0,0.772662 -0.177956,0.850611 -0.431788,0.189136 z m 0.604206,-1.364432 c -0.138796,-0.744803 -0.36494,-1.284605 -0.502544,-1.199558 -0.137604,0.08504 -0.167431,-0.16184 -0.06628,-0.548631 0.159397,-0.609536 0.242228,-0.534963 0.621536,0.559559 0.240697,0.694547 0.384084,1.550812 0.318638,1.902812 -0.07325,0.393971 -0.216003,0.119424 -0.371347,-0.714182 z M 16.24,34.375372 C 16.108,34.242252 16,33.731129 16,33.239548 c 0,-0.793997 0.106785,-0.886291 0.95647,-0.826665 0.909621,0.06383 0.926703,0.09063 0.348746,0.547116 -0.334249,0.264 -0.65666,0.744919 -0.71647,1.068708 C 16.528936,34.352495 16.372,34.508495 16.24,34.375372 Z m 0.56,-1.415373 c 0.108774,-0.176 0.04527,-0.32 -0.141115,-0.32 -0.186386,0 -0.338885,0.144 -0.338885,0.32 0,0.176 0.0635,0.32 0.141115,0.32 0.07761,0 0.230111,-0.144 0.338885,-0.32 z m 12.96,-1.92 c 0,-0.176 0.144,-0.32 0.32,-0.32 0.176,0 0.32,0.144 0.32,0.32 0,0.176 -0.144,0.32 -0.32,0.32 -0.176,0 -0.32,-0.144 -0.32,-0.32 z M 19.2,30.276578 c 0,-0.243882 -0.20863,-0.845557 -0.463623,-1.337056 -0.525036,-1.012009 -0.391693,-1.482061 0.340702,-1.201015 0.27312,0.104807 0.371691,0.278517 0.219045,0.386025 -0.30108,0.212049 -0.291451,0.464612 0.05846,1.533324 0.138235,0.422211 0.405625,0.629882 0.676953,0.525764 0.246657,-0.09465 0.448468,-0.01269 0.448468,0.182143 0,0.19483 -0.288,0.354236 -0.64,0.354236 -0.352,0 -0.64,-0.199539 -0.64,-0.443421 z m 2.88,-2.596579 c -0.229616,-0.276669 -0.260716,-0.48 -0.07342,-0.48 0.17872,0 0.407833,0.216 0.509139,0.48 0.101307,0.264 0.134345,0.48 0.07342,0.48 -0.06093,0 -0.290039,-0.216 -0.509139,-0.48 z m 0.3249,-0.971428 c 0.0087,-0.550892 0.593748,-1.25659 0.838653,-1.011685 0.131093,0.131093 -0.0051,0.48178 -0.302601,0.779304 -0.297524,0.297524 -0.538747,0.402095 -0.536052,0.232381 z M 23.68,26.559999 c 0,-0.176 0.144,-0.32 0.32,-0.32 0.176,0 0.32,0.144 0.32,0.32 0,0.176 -0.144,0.32 -0.32,0.32 -0.176,0 -0.32,-0.144 -0.32,-0.32 z"
       id="path1400"
       inkscape:connector-curvature="0" />
    <path
       style="fill:#13202a;stroke-width:0.31999999"
       d="m 46.711203,87.778216 c -1.6332,-1.118346 -5.082947,-4.343043 -5.886329,-5.502326 l -0.833623,-1.202919 0.652967,-3.176486 c 0.7903,-3.84457 2.50079,-10.492221 3.013452,-11.711482 0.34746,-0.826361 0.459988,-0.581196 1.692826,3.688128 1.49615,5.181171 3.316573,9.953139 5.354141,14.035091 l 1.391782,2.788221 -1.38519,0.811779 c -1.612067,0.944733 -2.888807,1.030909 -4.000026,0.269994 z M 12.8,78.738885 c 0,-0.165613 0.142351,-0.389095 0.316335,-0.496621 0.181395,-0.112109 0.235042,0.01635 0.125763,0.301114 C 13.029365,79.097752 12.8,79.199182 12.8,78.738885 Z m 2.24,-3.858887 c 0.188385,-0.352 0.414518,-0.64 0.502518,-0.64 0.088,0 0.0059,0.288 -0.182518,0.64 -0.188385,0.352 -0.414518,0.64 -0.502518,0.64 -0.088,0 -0.0059,-0.288 0.182518,-0.64 z m 0.6498,-1.12 c 0,-0.176 0.13959,-0.535999 0.3102,-0.799999 0.17061,-0.264 0.3102,-0.336 0.3102,-0.16 0,0.176 -0.13959,0.536 -0.3102,0.799999 -0.17061,0.264 -0.3102,0.336 -0.3102,0.16 z M 32.150157,63.628431 C 30.32736,62.027992 28.209766,59.078312 26.394211,55.610744 l -1.676245,-3.201497 1.497835,-2.284624 C 28.934113,45.978425 29.44,44.931698 29.44,43.453462 c 0,-2.269712 0.933786,-9.129434 1.440894,-10.585002 0.258385,-0.741654 0.471887,-1.662757 0.474449,-2.046896 0.0028,-0.420773 0.265788,-0.781316 0.661505,-0.906912 0.502957,-0.159632 0.574288,-0.307954 0.304461,-0.633075 -0.257738,-0.310555 -0.252653,-0.486238 0.01894,-0.654086 0.204221,-0.126217 0.479315,-0.05474 0.611315,0.158843 0.132,0.21358 0.331901,0.376029 0.444221,0.360997 0.647984,-0.08672 0.857878,0.01169 0.670742,0.314484 -0.116192,0.187998 -0.38183,0.276359 -0.590313,0.196357 -0.208484,-0.08 -0.39744,0.09018 -0.419898,0.378184 -0.02246,0.288004 -0.253085,1.171643 -0.512499,1.963643 -0.765133,2.335991 -1.828927,8.335207 -1.82627,10.299168 0.004,2.989984 1.072114,4.847274 3.002647,5.221382 0.549898,0.10656 1.521898,0.415821 2.16,0.687245 l 1.160186,0.493498 -0.519072,1.009353 c -0.285491,0.555146 -0.53201,1.801354 -0.547818,2.769354 -0.01581,0.968 -0.264486,2.48 -0.552617,3.36 -0.554387,1.6932 -1.500864,6.764608 -1.500864,8.041916 0,1.011975 -0.392608,0.955741 -1.769843,-0.253484 z m -1.8484,-21.302342 c -0.08113,-0.311351 -0.152852,-0.13409 -0.159373,0.39391 -0.0065,0.528 0.05986,0.782739 0.147516,0.56609 0.08766,-0.21665 0.09299,-0.64865 0.01186,-0.96 z m -0.0032,-3.66609 c -0.102152,-0.255273 -0.177978,-0.179449 -0.193333,0.193335 -0.0139,0.337331 0.06174,0.526332 0.16807,0.42 0.106333,-0.106336 0.117702,-0.382336 0.02526,-0.613335 z M 31.36,35.95671 c 0,-0.238864 -0.204802,-0.338036 -0.48,-0.232432 -0.264,0.101308 -0.48,0.288787 -0.48,0.416624 0,0.127836 0.216,0.232432 0.48,0.232432 0.264,0 0.48,-0.187482 0.48,-0.416624 z m 0.359708,-3.722045 c -0.316037,-0.313685 -0.352793,-0.276928 -0.179134,0.179136 0.12017,0.31559 0.299101,0.49319 0.397625,0.394666 0.09852,-0.09853 2.03e-4,-0.356733 -0.218491,-0.573802 z m 0.406753,-1.326677 c -0.101987,-0.265772 0.06696,-0.514172 0.410041,-0.602879 0.500384,-0.129379 0.506423,-0.156156 0.04238,-0.187989 -0.626064,-0.04295 -1.026607,0.457337 -0.738886,0.922879 0.293914,0.475561 0.485693,0.387181 0.286461,-0.132011 z m -10.463932,26.53603 c 0.292696,-0.613792 0.588984,-1.059171 0.658418,-0.989738 0.146388,0.146388 -0.825023,2.105719 -1.043988,2.105719 -0.08063,0 0.09287,-0.502192 0.38557,-1.115981 z"
       id="path1398"
       inkscape:connector-curvature="0" />
  </g>
  <path
     style="fill:#fad028;fill-opacity:1;stroke-width:0.14669469"
     d="m 46.297243,52.104064 c -0.0054,-0.150139 -0.249548,-0.333424 -0.632258,-0.474656 -0.85631,-0.316004 -5.257077,-1.856644 -5.577816,-1.952707 -0.249047,-0.07459 -0.249047,-0.08696 0,-0.290281 0.234873,-0.191746 0.205559,-0.20495 -0.301878,-0.135982 -0.429854,0.05842 -0.930035,-0.06425 -2.127073,-0.521675 -0.860784,-0.328934 -1.611637,-0.639579 -1.668562,-0.690323 -0.130578,-0.1164 -0.162331,-2.436092 -0.0414,-3.024528 0.04974,-0.242046 0.218217,-0.729029 0.374387,-1.082184 0.397275,-0.898381 0.360875,-1.095288 -0.266161,-1.439824 -0.448331,-0.246342 -1.79544,-0.758395 -2.273767,-0.864288 -0.06051,-0.01339 -0.159531,-0.04043 -0.220042,-0.06006 -0.06051,-0.01964 -0.159531,-0.02789 -0.220042,-0.01834 -0.06051,0.0096 -0.110021,-0.04657 -0.110021,-0.12472 0,-0.07815 -0.08252,-0.111024 -0.183369,-0.07306 -0.23346,0.08789 -1.177207,-0.481097 -1.074257,-0.647674 0.07526,-0.121779 -0.439959,-0.677472 -0.628133,-0.677472 -0.05204,0 -0.08557,-0.0818 -0.07451,-0.18179 0.01106,-0.09998 -0.03153,-0.149872 -0.09465,-0.110863 -0.166474,0.102886 -0.29909,-0.32552 -0.189318,-0.611579 0.05868,-0.152916 0.03538,-0.20808 -0.06237,-0.147665 -0.177252,0.109547 -0.179445,0.08615 -0.210764,-2.248733 -0.02031,-1.514331 0.03777,-2.361921 0.256347,-3.740715 0.03837,-0.242046 0.101083,-0.638122 0.139361,-0.880168 0.07923,-0.501039 0.196043,-1.150773 0.303287,-1.686989 l 0.146694,-0.733473 c 0.04034,-0.201706 0.102731,-0.498762 0.138643,-0.660127 0.03591,-0.161364 0.09492,-0.458421 0.131139,-0.660126 0.03621,-0.201705 0.102404,-0.515265 0.147092,-0.6968 0.04469,-0.181534 0.117641,-0.478591 0.162119,-0.660126 0.04448,-0.181534 0.113721,-0.495094 0.153876,-0.696799 0.04015,-0.201706 0.200743,-0.614284 0.356862,-0.916842 0.156119,-0.302558 0.235403,-0.552113 0.176187,-0.554566 -0.05922,-0.0025 0.0092,-0.07252 0.152134,-0.155711 0.142891,-0.08319 0.224793,-0.207894 0.182006,-0.277125 -0.04279,-0.06923 0.161273,-0.322936 0.453468,-0.563788 0.525551,-0.433203 0.527796,-0.439767 0.208841,-0.610467 -0.558491,-0.298895 -0.243635,-0.296915 0.737152,0.0046 1.150668,0.353782 3.448758,0.545253 7.954457,0.662746 l 3.406797,0.08884 0.770063,-1.621415 c 0.879962,-1.852817 2.120348,-4.025471 2.605966,-4.564598 0.181686,-0.201705 0.460111,-0.663793 0.618723,-1.026862 0.401464,-0.918963 1.461877,-2.042936 2.519851,-2.670887 0.821552,-0.487625 1.127023,-0.555228 0.734302,-0.162509 -0.257152,0.257154 0.335641,1.035678 3.386125,4.447037 3.216181,3.596659 3.245903,3.627747 2.804868,2.933894 -0.692892,-1.090082 -0.834054,-1.471465 -0.598741,-1.617624 0.164025,-0.10188 0.234635,-0.03854 0.299292,0.268454 0.159846,0.758975 0.626062,1.292207 1.063318,1.216162 0.06659,-0.01158 0.07431,0.12913 0.01714,0.312691 -0.10188,0.327149 -0.0975,0.326497 0.221267,-0.03299 0.350154,-0.394877 0.351658,-0.408754 -0.07947,0.733473 -0.106584,0.282387 -0.196688,0.680325 -0.200229,0.884307 -0.0157,0.90462 -1.750831,3.855141 -3.879601,6.597123 -1.681321,2.165642 -1.860051,2.43823 -1.763561,2.689678 0.0619,0.161304 -0.02875,0.235575 -0.329557,0.270032 -0.325854,0.03733 -0.501327,0.205005 -0.817314,0.781004 -0.740274,1.349418 -1.284614,3.77816 -1.284614,5.731708 0,0.765949 0.01533,0.796966 0.403411,0.816183 0.314347,0.01557 0.33498,0.03343 0.09345,0.08092 -0.26044,0.0512 -0.324489,0.199976 -0.400924,0.931278 -0.126238,1.207776 -0.685478,2.338509 -2.477502,5.009287 -0.896384,1.335941 -1.737227,2.781552 -2.005147,3.447325 -0.650238,1.615823 -1.315173,2.951302 -1.325578,2.662337 z m -0.846469,-1.149017 c -0.08517,-0.325671 -0.482589,-0.406209 -0.482589,-0.0978 0,0.244684 0.141359,0.391186 0.377453,0.391186 0.109636,0 0.15139,-0.116513 0.105136,-0.293389 z m -5.983153,-1.906242 c -0.0496,-0.08025 -0.235026,-0.216 -0.412067,-0.301673 -0.304964,-0.147574 -0.30368,-0.1399 0.02442,0.145907 0.373749,0.32557 0.531856,0.3891 0.387646,0.155766 z M 52.11962,26.273665 c -0.03358,-0.100853 -0.185508,-0.207485 -0.337618,-0.236962 -0.239273,-0.04637 -0.250048,-0.02164 -0.0799,0.183369 0.232687,0.28037 0.504652,0.31528 0.417521,0.05359 z m 5.390147,-6.565487 c -0.146481,-0.161859 -0.298144,-0.262473 -0.33703,-0.223587 -0.09857,0.09857 0.26731,0.517876 0.451889,0.517876 0.08331,0 0.03162,-0.13243 -0.114859,-0.294289 z m -1.979564,-2.126174 c -0.103677,-0.124922 -0.221509,-0.194125 -0.26185,-0.153784 -0.04034,0.04034 0.01147,0.175556 0.115155,0.300479 0.103677,0.124923 0.221509,0.194126 0.26185,0.153785 0.04034,-0.04034 -0.01148,-0.175557 -0.115155,-0.30048 z m -1.604308,-1.650315 c -0.200945,-0.349303 -0.796037,-1.045675 -0.658137,-0.770147 0.173756,0.347166 0.661786,1.026863 0.737301,1.026863 0.03769,0 0.0021,-0.115522 -0.07916,-0.256716 z"
     id="path1414"
     inkscape:connector-curvature="0" />
  <path
     style="fill:#fad028;fill-opacity:1;stroke-width:0.14669469"
     d="m 45.913073,51.754903 c -0.166109,-0.116391 -1.549634,-0.644369 -3.074499,-1.173285 -1.524866,-0.528915 -2.841236,-1.017408 -2.925267,-1.085541 -0.08403,-0.06813 -0.746897,-0.323641 -1.473036,-0.567798 -2.42729,-0.816155 -2.384309,-0.786731 -2.499835,-1.711371 -0.127015,-1.016593 0.02571,-2.276037 0.387223,-3.1932 0.153411,-0.389206 0.278929,-0.836116 0.278929,-0.993133 0,-0.325956 -0.907412,-0.833798 -2.200421,-1.231488 -0.443751,-0.136484 -0.921447,-0.310645 -1.061546,-0.387021 -0.140099,-0.07638 -0.35764,-0.138869 -0.483426,-0.138869 -0.381081,0 -1.829006,-1.615874 -1.829006,-2.041158 0,-0.158753 -0.06601,-0.32944 -0.146694,-0.379304 -0.25745,-0.159113 -0.164634,-3.680272 0.154671,-5.867788 0.414625,-2.840533 1.258297,-6.690882 1.670118,-7.622084 0.1888,-0.426909 0.579366,-1.037526 0.867925,-1.356927 0.395269,-0.437515 0.483068,-0.622314 0.356023,-0.74936 -0.283993,-0.283992 -0.0603,-0.319236 0.656661,-0.103462 0.979498,0.294786 3.012568,0.491865 6.049799,0.586449 1.452277,0.04523 3.218053,0.116419 3.923947,0.158206 l 1.283444,0.07598 0.256851,-0.555366 c 0.141267,-0.305451 0.306771,-0.577507 0.367785,-0.604569 0.06102,-0.02706 0.07362,-0.109577 0.02802,-0.183368 -0.0456,-0.07379 -0.0091,-0.134165 0.08109,-0.134165 0.09021,0 0.123211,-0.06601 0.07335,-0.146695 -0.04987,-0.08068 -0.01686,-0.146695 0.07335,-0.146695 0.09021,0 0.123212,-0.06601 0.07335,-0.146694 -0.04987,-0.08068 -0.0098,-0.146695 0.08914,-0.146695 0.09889,0 0.135839,-0.04396 0.08211,-0.09769 -0.177078,-0.177078 2.493503,-4.710493 2.866373,-4.865781 0.06498,-0.02706 0.08083,-0.109578 0.03522,-0.183369 -0.0456,-0.07379 -0.01301,-0.134165 0.07243,-0.134165 0.08544,0 0.138849,-0.05988 0.118679,-0.133073 -0.05653,-0.205114 1.059251,-1.647227 1.204853,-1.557239 0.07072,0.04371 0.25393,-0.07989 0.407135,-0.274661 0.327346,-0.416153 1.214512,-0.984612 1.378481,-0.883273 0.06269,0.03874 0.08086,0.156738 0.04039,0.26221 -0.04047,0.105472 0.183363,0.533736 0.497412,0.951698 0.815569,1.085419 5.774813,6.646209 5.855389,6.565634 0.03704,-0.03704 -0.108708,-0.367738 -0.323875,-0.734893 -0.215167,-0.367155 -0.366191,-0.784916 -0.33561,-0.928358 0.03767,-0.176664 0.158913,-0.03178 0.375823,0.449087 0.189722,0.420594 0.440783,0.741418 0.616065,0.787256 0.177241,0.04635 0.295848,0.19989 0.295848,0.382985 0,0.237704 0.03912,0.2665 0.176034,0.129585 0.322494,-0.322494 0.399775,-0.181887 0.2056,0.374072 -0.105673,0.302558 -0.240173,0.81051 -0.298891,1.128782 -0.09801,0.531289 -0.731777,1.962519 -0.945476,2.135175 -0.04993,0.04034 -0.107702,0.157111 -0.12838,0.259489 -0.06676,0.330515 -1.562419,2.550573 -3.034785,4.504632 -0.78888,1.046967 -1.491387,2.05366 -1.561129,2.237094 -0.07386,0.194261 -0.249953,0.333519 -0.421743,0.333519 -0.881044,0 -2.059438,3.576616 -2.059438,6.25073 0,0.97181 0.0292,1.084005 0.282147,1.084005 0.266581,0 0.269616,0.02512 0.05501,0.455304 -0.124925,0.250418 -0.227136,0.61469 -0.227136,0.809496 0,0.194806 -0.05488,0.388109 -0.121951,0.429562 -0.06707,0.04145 -0.08476,0.172275 -0.03932,0.290715 0.04545,0.118438 0.02361,0.215343 -0.04854,0.215343 -0.07214,0 -0.142287,0.147552 -0.15587,0.327891 -0.01358,0.180339 -0.09406,0.351009 -0.178827,0.379266 -0.08477,0.02826 -0.116813,0.11175 -0.07121,0.185541 0.0456,0.07379 0.0091,0.134165 -0.08109,0.134165 -0.0902,0 -0.123211,0.06601 -0.07335,0.146695 0.04986,0.08068 0.02075,0.146695 -0.06469,0.146695 -0.08544,0 -0.155353,0.09902 -0.155353,0.220042 0,0.121023 -0.07702,0.220042 -0.171144,0.220042 -0.09413,0 -0.13019,0.04095 -0.08014,0.09101 0.05005,0.05005 -0.149498,0.462632 -0.443449,0.916841 -1.668301,2.577838 -2.421202,3.859231 -2.850071,4.850661 -0.263965,0.610218 -0.531966,1.131628 -0.595555,1.15869 -0.06359,0.02706 -0.07831,0.109578 -0.0327,0.183369 0.0456,0.07379 0.0091,0.134165 -0.08109,0.134165 -0.09021,0 -0.123212,0.06601 -0.07335,0.146695 0.04986,0.08068 0.01686,0.146695 -0.07335,0.146695 -0.0902,0 -0.127486,0.0591 -0.08285,0.131324 0.04464,0.07223 -0.02288,0.171245 -0.150035,0.220042 -0.275363,0.105665 -0.21341,0.120372 -0.582566,-0.138289 z m -0.504804,-0.717851 c 0,-0.03558 -0.06601,-0.105488 -0.146695,-0.155352 -0.08068,-0.04987 -0.146694,-0.02076 -0.146694,0.06469 0,0.08544 0.06601,0.155353 0.146694,0.155353 0.08068,0 0.146695,-0.02911 0.146695,-0.06469 z"
     id="path1416"
     inkscape:connector-curvature="0" />
  <path
     style="fill:#fad028;fill-opacity:1;stroke-width:0.14669469"
     d="m 46.167289,51.895275 c -0.180013,-0.126086 -1.662171,-0.71285 -3.293684,-1.303919 -6.868772,-2.488443 -6.747649,-2.435587 -6.898241,-3.010287 -0.200494,-0.765135 -0.02723,-2.598944 0.336746,-3.564149 0.176356,-0.467662 0.283969,-0.945875 0.239141,-1.062696 -0.121792,-0.317385 -0.92684,-0.762282 -1.998389,-1.104377 -0.524434,-0.167427 -1.085541,-0.361518 -1.246905,-0.431312 -0.161364,-0.06979 -0.429866,-0.164677 -0.59667,-0.21085 -0.4097,-0.113411 -1.677098,-1.601978 -1.677098,-1.969764 0,-0.161989 -0.06601,-0.335322 -0.146694,-0.385186 -0.193417,-0.119539 -0.189968,-3.321168 0.0053,-4.91812 0.349071,-2.854823 1.326057,-7.456012 1.820601,-8.574264 0.183091,-0.414001 0.54538,-0.994739 0.805086,-1.290528 0.33697,-0.383787 0.445123,-0.623089 0.377665,-0.83563 -0.112643,-0.354905 -0.06579,-0.358515 1.126371,-0.08677 1.268607,0.289175 2.393689,0.383333 6.886045,0.57629 l 3.868444,0.166159 1.112459,-2.22313 c 0.611852,-1.222721 1.540946,-2.873036 2.064651,-3.667367 0.523706,-0.794331 1.095335,-1.682313 1.270286,-1.973295 0.391127,-0.650528 1.049588,-1.324454 1.202017,-1.230248 0.06211,0.03839 0.219796,-0.09329 0.350404,-0.292627 0.271357,-0.414142 1.052524,-0.864464 1.268271,-0.731125 0.07963,0.04921 0.112769,0.141273 0.07364,0.204578 -0.132618,0.214582 0.749291,1.397808 2.632552,3.531995 2.462732,2.790869 3.537451,3.960757 3.638555,3.960757 0.04535,0 -0.08297,-0.295988 -0.285163,-0.657751 -0.202194,-0.361762 -0.342751,-0.774341 -0.31235,-0.916841 0.03752,-0.17588 0.154193,-0.03997 0.363268,0.423162 0.177128,0.392367 0.438893,0.7238 0.616066,0.780033 0.181308,0.05755 0.308072,0.221825 0.308072,0.399244 0,0.253462 0.0356,0.271918 0.223588,0.115905 0.122973,-0.102058 0.257207,-0.151939 0.298299,-0.110847 0.176079,0.176078 -0.607515,2.498082 -1.273298,3.773133 -1.031074,1.974629 -4.867726,7.285364 -5.350775,7.406601 -0.772854,0.193973 -1.773419,3.158846 -1.924259,5.701963 -0.08265,1.39344 -0.07522,1.440953 0.238148,1.522899 0.230893,0.06038 0.29384,0.152538 0.219954,0.322024 -0.05693,0.130591 -0.224531,0.705514 -0.37245,1.277608 -0.269189,1.041119 -1.107347,2.651803 -2.626668,5.047659 -0.434896,0.685798 -1.291338,2.219673 -1.903206,3.408611 -1.102151,2.141624 -1.115526,2.159576 -1.439782,1.932458 z"
     id="path1418"
     inkscape:connector-curvature="0" />
  <path
     style="fill:#fad028;fill-opacity:1;stroke-width:0.14669469"
     d="m 46.065137,51.867621 c -0.240255,-0.126968 -1.724072,-0.70495 -3.297372,-1.284404 -6.82254,-2.512775 -6.611656,-2.424431 -6.773245,-2.837486 -0.229179,-0.58583 -0.04496,-2.746098 0.324874,-3.809657 0.322643,-0.927853 0.322761,-0.93217 0.03348,-1.221455 -0.159671,-0.159671 -1.108585,-0.582319 -2.108697,-0.939217 -1.691087,-0.603478 -1.866721,-0.70282 -2.508834,-1.41905 -0.379747,-0.423579 -0.693307,-0.914776 -0.6968,-1.091549 -0.0035,-0.176773 -0.07236,-0.362204 -0.153045,-0.412068 -0.259112,-0.160139 -0.165816,-3.818266 0.153392,-6.014483 0.398918,-2.744637 1.254076,-6.574581 1.670471,-7.481429 0.185232,-0.40341 0.544892,-0.991507 0.799245,-1.306882 0.318916,-0.395428 0.433788,-0.66374 0.37009,-0.864436 -0.08497,-0.267705 -0.04108,-0.284296 0.547616,-0.207035 0.351991,0.0462 1.020389,0.151313 1.485327,0.233594 0.76387,0.135183 2.783604,0.271175 7.974849,0.536961 l 1.778846,0.09108 1.181117,-2.27766 c 1.232464,-2.376679 3.302193,-5.743881 3.957004,-6.437572 0.20944,-0.221875 0.465147,-0.40341 0.568236,-0.40341 0.10309,0 0.257728,-0.131342 0.34364,-0.291871 0.193144,-0.360893 0.981533,-0.784088 1.260958,-0.676863 0.113742,0.04365 0.206802,0.198713 0.206802,0.344592 0,0.145878 0.41767,0.791573 0.928158,1.434877 1.003683,1.264817 4.397744,5.092551 4.939362,5.570484 l 0.332484,0.293389 -0.321429,-0.634516 c -0.176786,-0.348983 -0.294479,-0.745059 -0.26154,-0.880168 0.0418,-0.171475 0.131884,-0.08364 0.298321,0.2909 0.131138,0.295104 0.405127,0.667674 0.608864,0.827933 0.203737,0.16026 0.37043,0.368845 0.37043,0.463523 0,0.105384 0.113778,0.13603 0.29339,0.07902 0.231273,-0.0734 0.293389,-0.02636 0.293389,0.22219 0,0.432337 -0.683877,2.390497 -1.177595,3.37183 -0.90717,1.803129 -4.954104,7.481429 -5.332027,7.481429 -0.773549,0 -1.844155,2.830716 -2.087893,5.52046 -0.108894,1.201696 -0.0035,1.814275 0.312059,1.814275 0.297047,0 0.276571,0.193241 -0.163117,1.539461 -0.461539,1.413122 -0.822419,2.138718 -2.152716,4.328327 -0.563713,0.927844 -1.521424,2.611165 -2.128248,3.740714 -1.486472,2.766937 -1.339942,2.586213 -1.869843,2.306174 z"
     id="path1420"
     inkscape:connector-curvature="0" />
</svg>
