<svg id="Слой_1" data-name="Слой 1" xmlns="http://www.w3.org/2000/svg" viewBox="0 0 686.77 521.87"><defs><style>.cls-1{opacity:0.5;}.cls-2{fill:#caabcd;}</style></defs><title>treeleaf</title><g id="g5395" class="cls-1"><path id="path5397" class="cls-2" d="M674.58,669.73c-11.4-21.53-38.38-68.17-43.41-75.06-.58-.79-2.37,1.06-4,4.12-7,13.29-33.89,36.67-53.46,46.48-18,9-22.5,10.12-38.45,9.41a75.94,75.94,0,0,1-47.16-18.53c-5.06-4.29-4.61-4.44,7.41-2.35,18.91,3.28,35.6-3.2,55.56-21.58,21.55-19.84,35.4-26,57.36-25.38,9.45.25,17.19.06,17.22-.42.1-2.06-34.37-50.37-36-50.44-1,0-17.29,10-36.25,22.39s-39.7,23.86-46.09,25.58c-13.53,3.65-48.31.54-63.58-5.67l-10-4.09,15.35-1.31c20.79-1.77,25.33-4,48.15-23.2C521,529.61,535.86,524,562.3,525c16.88.63,19.15.14,16.87-3.66-4.69-7.78-36.74-47.07-38.45-47.14-.92,0-3.17,3.54-5,7.95C522.57,513.65,451.5,544.57,397,542.47L384.44,542,404,526.93c35.91-27.7,70-43.61,112.14-52.27,11-2.25,19.94-4.7,20-5.44.13-3.22-45.51-51.21-48.82-51.34-1.08-.05-2.82,4.48-3.86,10.06-2.53,13.58-16.35,35-31.38,48.71-14.78,13.46-33.07,23.15-64.15,34l-23.26,8.1,9.59-10.46c5.28-5.76,16.57-19.49,25.1-30.52,16.51-21.35,39.87-39.35,69.17-53.3,8.91-4.24,16.23-8.59,16.28-9.66.08-2-44.78-44.4-47.14-44.49-.76,0-2.21,5.12-3.23,11.44-2.66,16.53-15.31,41-27.56,53.25-11.3,11.32-26.89,17.28-50.91,19.46L342,455.7l12-17.52c18-26.27,36.5-42.14,78.87-67.55,2.86-1.71-1.92-7-19.12-21-12.61-10.3-23.45-18.2-24.08-17.55s-3.19,8.67-5.69,17.82c-6.24,22.84-19,41.24-37.37,53.95-8.45,5.84-16.8,10.57-18.56,10.5-4.61-.19,14.51-46.59,24.58-59.67,4.48-5.8,14-14,21.19-18.17l13.06-7.62-9.59-7.23c-5.28-4-13.77-10.31-18.88-14.08l-9.28-6.85-.28,6.64c-.62,14.58-7.2,29.51-17.83,40.47-8.91,9.18-13.92,11.87-26.4,14.18-8.48,1.57-18,3.88-21.24,5.14-8.41,3.31-7.16-.52,6.37-19.37,11.93-16.63,31.75-34,48.91-42.79l9-4.62-21-13.15c-11.57-7.23-19.57-13.15-17.78-13.16s11,4.77,20.44,10.6l17.19,10.61-6.84-16.18c-7.92-18.77-8.07-29.94-.89-68.09,2.64-14,4.85-26.74,4.93-28.3s4.11,12.06,9,30.28c9.76,36.56,10.5,53.33,3.15,71.53-3.95,9.78-4.13,12.05-1.25,15.23,3.95,4.36,26.93,20.58,27,19.05,0-.57-1.56-7.15-3.51-14.62-5.87-22.45-2.06-49.93,10.65-76.92l10.53-22.37L397.1,224.1c-1.61,14.47-1.08,23.65,2.12,37.13,5,21,4.52,46.31-1,56.18-2.16,3.83-4,7.88-4.09,9-.17,2,35.28,32.14,37.87,32.24.7,0-2.51-9.93-7.12-22.12-11.89-31.45-12-58.81-.56-95,4.47-14.07,8.94-24.55,9.93-23.29,3.19,4.1,14.88,50.66,18.5,73.74,3.89,24.74,2.1,44.32-5.62,61.29-2.51,5.52-4.67,10.91-4.8,12-.24,2,38.53,38.19,39.64,37.05.32-.33-1.44-9-3.91-19.18-6.91-28.59-4.9-63.63,5.29-92.29,14.48-40.72,12.8-40.07,19.89-7.75,11.17,50.93,8.77,94.65-6.49,118.47l-6.52,10.17,21.71,22.5c11.94,12.37,22.2,22.52,22.8,22.54s-1.59-6.76-4.88-15.08c-12-30.44-5.78-53.61,29.94-110.79l17.4-27.85-2.49,55.53c-2.85,63.88-6.33,79.88-21.3,97.89L544,467.77l21.25,26.92c11.69,14.8,22.2,27,23.34,27s1.77-9.87,1.37-22c-2.18-67-1.63-82.2,3.54-97.72,2.8-8.37,10.21-25.1,16.49-37.17l11.42-22,1.18,13.91c7.45,87.68,8.34,110.21,4.87,123.16a99.14,99.14,0,0,1-23,41.69c-9.56,10.54-8.94,13,9.53,37.79l11.74,15.75L630.49,560c2.6-8.29,6.92-28.46,9.6-44.81s6.42-39.11,8.3-50.59c3.94-24,14.09-46.78,32.55-73.16,6.93-9.91,11.5-15.5,10.16-12.42s-3.69,34.41-5.22,69.61c-3,67.79-5,80.15-16.78,100.82-7.77,13.65-22.84,27.91-31.73,30-3.51.84-6.4,2-6.43,2.61s7.87,14.08,17.53,29.95c22.36,36.71,44.43,77.38,44.26,81.57C692.44,701,688.07,695.2,674.58,669.73ZM244.78,329.34c8.48-20.19,27.44-41.63,45-50.89,5.51-2.91,9.54-5.88,8.95-6.59s-10.83-5.44-22.76-10.51l-21.7-9.21-.51,12.9c-.64,15.86-7.6,26.69-24.06,37.39-6.54,4.25-12.71,7.7-13.73,7.66-3-.12,3.61-20.27,10.76-32.85,3.63-6.4,9.87-14.28,13.86-17.51s7.37-7.36,7.53-9.17-3.11-9.2-7.26-16.42c-8.69-15.12-10.59-25.54-7.8-42.83L235,179l4.53,7a95.9,95.9,0,0,1,15.27,46.88l.82,16.72,21.23,9c11.68,4.91,21.58,8.58,22,8.13s-2.11-7.2-5.65-15c-5.76-12.72-6.39-17.56-6-45.56.55-35.72,1.73-35.85,15.25-1.55,8,20.24,10.4,52,5,65.7-1.7,4.28-4.55,13.2-6.34,19.81-4.65,17.13-16.66,29.95-34.12,36.4-8.1,3-17.41,7.22-20.7,9.41l-6,4Zm-68.61-36.6c.39-9.8,9.74-24.41,24-37.54,8.1-7.45,13.29-13.61,11.53-13.68s-2.43-1.39-1.5-2.94-1.83-6.41-6.15-10.81c-9.64-9.84-16.39-27.77-15.89-42.23l.38-10.84,9.69,13.61c12.45,17.49,17.14,29,16.67,40.93-.28,6.88.78,9.65,3.8,9.94,2.64.25,3,.88.95,1.7-1.81.73-3.43,6.2-3.68,12.44-.35,8.8-2.48,13.45-10.11,22.16-5.31,6.06-11.09,11-12.83,10.89s-6.31,2.4-10.12,5.5C176.85,296.79,176,296.9,176.17,292.74Zm-59.32-15.95c-1.91-15.05,1.52-28.47,9.19-35.9,8.46-8.2,8.55-13.29.32-17.19a51.2,51.2,0,0,1-25.42-26.65c-2.52-6.18-4.56-11.88-4.53-12.67.14-3.34,31.86,25.88,35.49,32.69,2.18,4.1,4.29,14.35,4.69,22.78.76,15.93-2.73,26.64-13.3,40.76l-5.09,6.82Zm40.43-9.22c1.13-10.14,3.9-18.92,7.67-24.35,7.83-11.27,7.61-13.15-2.37-20.66-6.57-4.94-9.25-9.78-11.77-21.26-1.8-8.18-2.94-15.21-2.54-15.62s4.53,2.62,9.17,6.74c9.48,8.42,16.74,22.89,16.35,32.57-.14,3.55.66,6.49,1.79,6.53,3.66.15,2.44,22.54-1.66,30.5a66.53,66.53,0,0,1-11.2,14.58l-7.2,6.84Zm81.44-21.21c1.87-.75,4.06-.56,4.87.42s-.73,1.59-3.4,1.36C237.23,247.88,236.65,247.19,238.72,246.36Zm-183.86-11c-17.28-2.22-26-4.91-35.87-11.09-7.18-4.49-13-8.46-13-8.83s7.19-.44,15.94-.16,26.34-.16,39.08-1c25.32-1.59,37.79,1.62,45.26,11.64,4.07,5.47,4,5.78-1.92,8C93.7,237.92,78.49,238.35,54.86,235.32ZM226,243.06a8.84,8.84,0,0,1,6.36.25c1.72.86.26,1.45-3.24,1.31S224.17,243.78,226,243.06ZM194.42,236c2.51-.62,5.94-.43,7.63.41s-.36,1.36-4.55,1.14S191.92,236.62,194.42,236Zm-31.58-4.09c1.87-.75,4.06-.56,4.87.42s-.73,1.6-3.4,1.36C161.35,233.44,160.77,232.74,162.84,231.91Z" transform="translate(-5.96 -174.7)"/></g></svg>