<svg id="Слой_1" data-name="Слой 1" xmlns="http://www.w3.org/2000/svg" viewBox="0 0 679.18 829.01"><defs><style>.cls-1{opacity:0.3;}.cls-2{fill:#d87191;}</style></defs><title>treeleaf1</title><g id="g4826" class="cls-1"><path id="path4828" class="cls-2" d="M83.89,838.48c-10-2.57-20.12-54.9-20-103.21L64,713,52.84,700.13C10.07,651,6.55,583.54,43.65,523.91c4.55-7.31,21.09-29.53,36.74-49.37l28.46-36.06,8,6.65c4.82,4,9.83,5.89,12.65,4.74,3.83-1.58,3.89-5.22.37-20.41-3.84-16.54-3.65-19.41,1.79-27.09,3.35-4.73,13.71-21.9,23-38.16C183.56,313.79,205,290.94,257,255.35c17.78-12.19,29.1-18.38,34.3-18.77,4.94-.36,8.72-2.28,10.42-5.28,1.46-2.6,19.65-13.18,40.42-23.52,58.16-28.95,65.57-34.31,109.54-79.36,23.38-23.95,43.87-40.67,62.74-51.18,24.3-13.55,95.8-40.34,161-60.35l21.85-6.7L674.41,40.48c-42.47,56.27-68.33,100.3-79.1,134.7-5.83,18.61-21,46.18-28.85,52.32-2.09,1.63-7.94,2.1-13.76,1.09-12.53-2.16-14.06-.45-7.54,8.46,3.87,5.29,4.42,8,2.3,11.36-1.53,2.42-28.61,27.44-60.17,55.59-74.12,66.13-85,79.8-125.24,157-8.61,16.52-11.44,19.81-17,19.8-23.16,0-23.78.25-21.63,9.47,1.09,4.74,4,11.15,6.42,14.27,4,5.12,3.25,7.28-8,22.64-27.94,38.24-65.25,67.49-144.59,113.32-50,28.89-84.73,52-95.35,63.44-10.35,11.16-10.11,49.36.61,98C87,822.21,90,839,89.2,839.15A16.72,16.72,0,0,1,83.89,838.48Zm-6.82-158.8c4.38-20.32,5.43-22.26,13-24,8.69-2,35.39-14.28,72.16-33.14,33.84-17.35,14.15-11-23.7,7.6-36.25,17.85-54.44,25.5-55,23.12-.2-.85,3.58-12.81,8.39-26.59,9.17-26.22,27.29-62.45,39.6-79.16,7-9.5,7.56-9.78,16.7-8.19,18.34,3.16,57.24.6,90.05-5.94l32.81-6.54-33.33,4.29c-33.57,4.32-83.78,7.16-93.13,5.26-4.06-.82-1.88-5.26,11.34-23l16.38-22,15,.28c24.48.45,75.94-6,105.63-13.29l27.67-6.78-31.59,5.06c-39.35,6.3-108.68,14.11-111.77,12.59-1.28-.63,4.29-9.68,12.37-20.12l14.68-19,25.59-1.82c34.75-2.47,76.66-7.79,84.87-10.78,3.7-1.35-15.17,0-42,2.91-74.78,8.25-69.76,10.22-45.75-17.93,19.48-22.85,20.92-24,31.21-24.53,21.24-1.14,122.21-13.12,125.45-14.89,4.38-2.38-25.39.16-85.75,7.32-55.79,6.63-53.72,7.9-29.71-18.25L279.8,359.6l27.4-1.33c15.07-.74,41.51-4.07,58.76-7.42,34.43-6.68,37.19-6.82-43.17,2.27-19.23,2.18-36.17,3.43-37.64,2.78-2.95-1.3,32.35-39.14,57.13-61.24,14.47-12.92,16.72-14.1,27.81-14.64,6.63-.32,31-3.76,54.11-7.66,49.93-8.4,48.1-8,45.13-9.47-1.3-.64-26.41,2.61-55.8,7.21l-53.45,8.37L385,260.36,410,242.26l26.28-3c26.39-3,79.79-16.66,83.44-21.36,1-1.31-15.67,2-37.08,7.47s-45,10.5-52.36,11.3l-13.44,1.45,24.43-16.64,24.43-16.63,21.28-.12c11.71-.07,27.95-1.77,36.1-3.79,14.19-3.52,13.79-3.59-9.58-1.67-47.14,3.87-45.89,4.54-23.16-12.49C509.43,172.47,510.51,172,521.1,173c11.61,1.14,58.1-5.76,53.93-8-1.35-.73-13.59.22-27.21,2.1s-26.75,3-29.19,2.51c-3-.61,2-6,16-17.18,19.05-15.18,21.1-16.22,29.93-15.28,5.21.56,15.47-.41,22.78-2.15,15.34-3.66,13.77-4-10.91-2.31l-17.9,1.23,30.18-26.2c16.6-14.41,29.53-26.52,28.74-26.9s-14.42,10.36-30.3,23.9-29.34,24.71-29.91,24.85-2.2-7.23-3.61-16.35c-1.43-9.32-3.48-15.45-4.66-14s-1.08,10,.17,19.06l2.26,16.45-19.8,15.42c-10.89,8.48-20.67,15.62-21.74,15.87-2,.47-1.94-2.46.77-37,.89-11.36,1-21,.23-21.33-2.29-1.12-7.65,45.16-6.29,54.27,1.18,7.89-.07,9.38-19.44,23.14-11.38,8.08-21.18,14.45-21.76,14.15s.8-12.45,3.07-27,3.52-26.74,2.79-27.14c-2.23-1.21-7.9,22.46-8.65,36.15-1.22,22.25-1.52,22.69-27.81,40.09l-24.95,16.51L407,224.85a117.07,117.07,0,0,1,1.83-25.95c1.91-9.22,1.71-11.84-.71-9.23-5,5.41-7.86,26.66-5.14,38.38l2.38,10.25-25.75,18.93c-14.16,10.41-26.36,18.62-27.11,18.26s-2.08-10-2.94-21.43-2.24-21.08-3.05-21.48c-3.12-1.53-3.35,19.93-.36,32.91l3.14,13.6-24.94,23.62c-13.72,13-25.48,23.4-26.12,23.13S291.68,313,285.11,298c-10.39-23.75-11.59-25.53-9.11-13.53,1.57,7.59,6.65,21.1,11.3,30l8.44,16.19-7.82,8.66c-10.32,11.43-14.21,14.42-16.31,12.56-1-.84-6.06-9.7-11.33-19.68-17.54-33.17-19.26-35.46-13.82-18.44,2.71,8.48,9.38,21.82,14.83,29.66l9.91,14.26-14,16.62c-7.71,9.14-15.13,16.88-16.49,17.19s-3.15-1.84-4-4.81-6.24-18-12.06-33.48l-10.59-28.1,4.46,20.61c2.46,11.33,8,27.24,12.24,35.35l7.77,14.75-18.21,23.89c-10,13.13-19.07,23.46-20.13,22.94s-8-14.06-15.41-30.09c-10.47-22.61-12.92-26.42-10.94-17,1.4,6.68,7.31,21.28,13.13,32.45l10.59,20.31-31.07,42.46c-35.36,48.32-31,47.09-48.88,13.74-5.57-10.38-11.23-19.38-12.59-20-4.28-1.94,7,21.46,17.43,36.28L132.52,535l-18,31.63c-9.9,17.39-22,43.92-26.89,59S78,653.17,77.14,653.44C74.42,654.28,59,632.15,48.91,613c-6-11.46-9-15.28-8-10.35,2.27,11.86,12.73,30.52,24.68,44l10.73,12.13L72.94,679.9c-3.22,20.36-3.6,25.88-1.59,23.18C71.87,702.38,74.45,691.85,77.07,679.68ZM222.8,576.52c15-7.64,11.29-7.82-7.39-.36-8.78,3.5-36.74,10.63-63.35,16.16-45.46,9.44-46.66,9.82-26.19,8.17C150.71,598.5,207,584.59,222.8,576.52Zm-134.31,3c-3.33-6.3-7.83-18.72-10-27.6-4.24-17.25-8.58-13.75-4.89,3.94,2.24,10.75,19.5,43.34,20.36,38.43C94.27,592.46,91.81,585.81,88.49,579.51Zm65.22-111.29c-6.9-9.87-13.52-17.72-14.72-17.45-2.41.56,8.28,17.85,18.61,30.08C169.13,494.49,166.8,486.94,153.71,468.22Zm275.71-152.1c-2.15-1-105.13,10.11-113,12.22-5.67,1.5-5.25,1.79,2.64,1.82C341.75,330.24,434.37,318.46,429.42,316.12Z" transform="translate(-18.1 -10.19)"/></g></svg>