<svg id="Слой_1" data-name="Слой 1" xmlns="http://www.w3.org/2000/svg" viewBox="0 0 1685.19 1103.74"><defs><style>.cls-1{fill:#474593;}</style></defs><title>trio</title><g id="g3223"><path id="path3235" class="cls-1" d="M192.55,1024.1c0-5.57.92-7.85,2-5.07a15.72,15.72,0,0,1,0,10.14C193.47,1032,192.55,1029.68,192.55,1024.1Z" transform="translate(-7.37 -25.74)"/><path id="path3233" class="cls-1" d="M192.85,1003.83c0-7.81.83-11,1.84-7.1a33.28,33.28,0,0,1,0,14.19C193.68,1014.83,192.85,1011.63,192.85,1003.83Zm11.8-235.21c0-5.58.91-7.86,2-5.07a15.72,15.72,0,0,1,0,10.14C205.56,776.48,204.65,774.19,204.65,768.62Zm84.82-95.3c.09-6.69,1-8.94,2-5s1,9.42-.15,12.16S289.39,680,289.47,673.32ZM82.29,518.47c2.91-1.17,6.39-1,7.73.32s-1,2.31-5.3,2.13C80,520.73,79.07,519.77,82.29,518.47Zm262.09,0c2.91-1.17,6.39-1,7.73.32s-1,2.31-5.29,2.13C342.12,520.73,341.17,519.77,344.38,518.47ZM296.24,347.88c-5-6.43-4.88-6.58,1.52-1.53,3.88,3.06,7.06,6.25,7.06,7.09C304.82,356.78,301.5,354.63,296.24,347.88Zm-51.91-55.27c0-.84,3.18-4,7.06-7.09,6.39-5,6.54-4.9,1.52,1.53C247.64,293.8,244.33,296,244.33,292.61Z" transform="translate(-7.37 -25.74)"/><path id="path3231" class="cls-1" d="M192.23,985.24c.2-4.72,1.15-5.69,2.44-2.45,1.16,2.93,1,6.42-.32,7.77S192.06,989.51,192.23,985.24Zm56.45-125.72c.2-4.72,1.15-5.68,2.44-2.45,1.16,2.93,1,6.43-.32,7.78S248.51,863.8,248.68,859.52Zm-40.32-146c.19-4.72,1.15-5.68,2.44-2.45,1.16,2.93,1,6.43-.32,7.78S208.19,717.81,208.36,713.53Z" transform="translate(-7.37 -25.74)"/><path id="path3229" class="cls-1" d="M192.23,973.07c.2-4.72,1.15-5.68,2.44-2.45,1.16,2.93,1,6.43-.32,7.78S192.06,977.35,192.23,973.07Zm16.83-238.92c0-8.92.87-12.1,1.83-7s.93,12.34-.08,16.22S209,743.07,209.06,734.15ZM22.56,653.54c0-.84,3.17-4,7.06-7.1,6.39-5,6.53-4.9,1.52,1.53C25.87,654.73,22.56,656.88,22.56,653.54Z" transform="translate(-7.37 -25.74)"/><path id="path3227" class="cls-1" d="M204.33,827.08c.19-4.72,1.15-5.68,2.43-2.45,1.17,2.93,1,6.43-.31,7.77S204.15,831.36,204.33,827.08Zm3.4-65.56c-.17-1.67-.94-6.4-1.71-10.51s-.28-6.34,1.08-5c3.16,3.17,5.59,18.51,2.93,18.51C208.94,764.56,207.9,763.19,207.73,761.52Z" transform="translate(-7.37 -25.74)"/><path id="path3225" class="cls-1" d="M216.31,1123.7c-2.66-3.21-9.68-6.41-15.62-7.1-9-1-10.54-2.95-9.31-11.39.82-5.58,2.87-50.29,4.55-99.36S201,892.1,203.49,862.11s3-55.54,1.29-56.78-6.38-10.77-10.26-21.19-9.48-21-12.44-23.42S150.16,749,117.71,740.2c-92.1-25-115-37.3-109.6-58.85C12.81,662.5,41,637.45,93.93,605c47.44-29,52.86-33.58,62.85-52.78C167.55,531.57,171.7,501,163.73,501c-2.19,0-17.63,3.76-34.3,8.36s-36.2,7.8-43.39,7.1C73,515.17,73,515,74,494.88c.58-11.15,4-29.4,7.52-40.55,9.82-30.8,40.74-92.88,50.93-102.27,5-4.58,19.44-11.32,32.14-15,33.91-9.73,40.12-25.75,19.25-49.66-6.65-7.62-12.1-17.38-12.1-21.7,0-5-2-7.06-5.57-5.69s-7.16-2.46-10.08-10.87c-5.95-17.18-5.71-19.92,1.79-19.92,5.12,0,5.81-3.22,3.73-17.24-2.94-19.83,1.79-35.18,14.53-47.12,7.28-6.82,8-9.46,3.94-14.38-11.6-14.06,9.87-34.81,36-34.81,6.87,0,18,2.88,24.8,6.4,11,5.72,12.1,8,10.49,21.29-1.38,11.42.4,17.56,7.66,26.35,9.79,11.86,11.23,18.45,9.68,44.3-.52,8.8.94,15.21,3.47,15.21,8.64,0,4.56,22.71-5.7,31.68-5.54,4.85-10.08,11.25-10.08,14.22s-4.54,9.69-10.08,14.93c-20.37,19.25-9.29,40.1,25.8,48.57,25.34,6.11,33.19,15.45,59,70.14,17.82,37.83,32.73,91.76,28.46,103-2.79,7.32-23.61,6.87-52.89-1.13-45.38-12.41-42.18-13-42.18,8.27,0,10.37,2.56,22.9,5.68,27.84,10.26,16.23,15.89,56.71,16.2,116.45.3,58.5.2,59.14-18.85,125.34-10.54,36.6-19.16,71.85-19.16,78.33s-1.82,15.23-4.06,19.43c-5.07,9.53-26.93,135.68-30.63,176.75l-2.75,30.46,13.47,14c7.4,7.68,16.28,14,19.73,14a27.47,27.47,0,0,1,12.31,4c4.34,2.82.21,4-14.63,4C228.66,1129.52,219.37,1127.41,216.31,1123.7Zm-5.9-407.8c-1.87-59.5-1-58.31-38.29-55.69-35.49,2.5-106.2,18.35-103.25,23.14,1.1,1.8,7,4.5,13.13,6s21.48,10.9,34.14,20.86c28.53,22.44,46.06,30,69.6,30,11.73,0,18.4,1.82,18.64,5.07.21,2.79.31,13.28.23,23.32l-.15,18.25,3.65-14.2C210.11,764.87,211.15,739.32,210.41,715.9ZM152.94,478c10.05-1.9,11.1-3.46,8.76-12.91-1.47-5.92-5.23-13.62-8.36-17.11s-6.84-12.13-8.24-19.2-4.2-11.82-6.2-10.58S128,435.06,119,452.89l-16.2,32.41,19.33-2.57C132.81,481.32,146.65,479.19,152.94,478ZM313,452.61c-8.83-17.68-17.78-33.2-19.87-34.51s-5.11,3.58-6.69,10.85-6.26,17.57-10.41,22.89c-11.65,15-9.74,24.07,5.57,26.56C334.05,486.92,331.31,489.17,313,452.61Z" transform="translate(-7.37 -25.74)"/></g><path id="path3808" class="cls-1" d="M485.24,873.67c0-2.15,5.74-7.93,12.76-12.85s29.14-29.41,49.17-54.43,49.15-56,64.71-68.82,65.89-66.28,111.84-118.78C822.05,506.46,829,494.48,829,438.09c0-26.62-1.64-36.55-7.9-48.21s-7.44-18.95-5.82-34.53c4.14-39.64-2.91-42-135.95-45.87-58.69-1.7-108.91-4.63-111.6-6.52s-24.3-3.86-48-4.37c-34.11-.74-44-2.32-47.39-7.57-2.35-3.64-9.23-7.32-15.3-8.16-16.1-2.24,119.83-4.91,198.22-3.89,49.71.65,73.6-.82,91.55-5.63,13.36-3.59,41.23-6.54,61.94-6.58,34.24-.06,38.35-.93,45.35-9.61,14.27-17.69,14.14-27-.56-41.7-7.32-7.3-13.31-15.94-13.31-19.21s-4.2-10.11-9.34-15.18c-6.46-6.37-9.34-13.57-9.34-23.3,0-7.75,1.55-14.08,3.45-14.08s3.24-10.15,3-22.54c-.35-17.21,1.54-25.74,8-36.06,4.66-7.44,10.06-13.52,12-13.52s1.57-3.53-.8-7.84S844,51,845.29,45C849.81,24.51,891,18.6,908,36c7.54,7.75,9.41,24.91,3.19,29.27-2.26,1.59-.69,5.58,3.88,9.8,10.21,9.45,18.36,37.5,15.89,54.75-1.26,8.82-.44,13.88,2.24,13.88,4.49,0,5.75,20.24,2,31.47-1.25,3.69-4.58,6.71-7.4,6.71s-6.19,4.75-7.47,10.56-8,16.24-15,23.2c-15.23,15.17-15.68,20.93-3,38,9.63,13,9.83,13,47.67,13,20.9,0,43.87,2.2,51.05,4.89,12.32,4.62,139.07,9,261.54,9,27.75,0,45,.82,38.3,1.82s-12.14,3.46-12.14,5.47c0,6.78-25.79,13.37-41.91,10.7-8.81-1.45-33.23.33-54.29,4-23.47,4.05-64.66,6.7-106.49,6.84-87.69.29-122,4.32-136.47,16-10.54,8.52-10.91,9.83-7.22,25.49C945.57,365,945,370,938,385c-6.39,13.91-8.12,25-8.12,52.26,0,32.88,3.19,46.67,18.37,79.58,2,4.39,19.45,8.92,58.59,15.2,80.23,12.89,129.89,31.81,140.05,53.37,5.66,12-.64,38.31-38.25,159.7-16.11,52-29.29,95.29-29.29,96.22,0,4.94,25.31,21,40.46,25.65,17,5.23,16.37,5.38-22.71,5.31-29-.05-40.17-1.51-40.17-5.23,0-2.83,3.2-19.33,7.1-36.65s9-50.57,11.44-73.86c9.13-89.09,11.58-104.7,19.09-121.41,4.25-9.46,6.7-18.39,5.43-19.82-5-5.73-160.9-2.07-198.13,4.64-41.88,7.56-91.5,24.17-119.58,40-40.66,23-94.72,64-119.57,90.8-17.38,18.72-43.72,39.83-78.47,62.9-60,39.8-61.06,40.74-54.93,47.7,10.31,11.71,4.9,16.12-19.81,16.12-13.36,0-24.29-1.75-24.29-3.89Z" transform="translate(-7.37 -25.74)"/><g id="g2654"><path id="path2668" class="cls-1" d="M1352.5,1124.53a36.5,36.5,0,0,1,15.57,0c4.28,1.11.78,2-7.78,2S1348.22,1125.64,1352.5,1124.53Zm220.18.11a17.35,17.35,0,0,1,11.12,0c3.06,1.23.56,2.24-5.56,2.24S1569.62,1125.87,1572.68,1124.64Zm-415.8-79.73c4.33-1.13,10.33-1.05,13.34.16s-.53,2.13-7.87,2-9.8-1.08-5.47-2.21Zm448.05-104.75c0-.92,3.5-4.4,7.78-7.74,7.06-5.5,7.21-5.34,1.68,1.67C1608.58,941.46,1604.93,943.8,1604.93,940.16Z" transform="translate(-7.37 -25.74)"/><path id="path2666" class="cls-1" d="M783.25,1124.51c4.32-1.12,10.33-1,13.34.16s-.53,2.13-7.87,2-9.8-1.08-5.47-2.2Z" transform="translate(-7.37 -25.74)"/><path id="path2664" class="cls-1" d="M1016.58,1102.27a167.52,167.52,0,0,1,31.14,0c9.23,1,2.77,1.76-14.36,1.78s-24.67-.76-16.78-1.74Zm597.59-317.8c.22-5.15,1.27-6.2,2.69-2.67,1.29,3.19,1.13,7-.35,8.47S1614,789.13,1614.17,784.47Z" transform="translate(-7.37 -25.74)"/><path id="path2662" class="cls-1" d="M990,1102.53a17.35,17.35,0,0,1,11.12,0c3.06,1.23.56,2.23-5.56,2.23S986.94,1103.76,990,1102.53Zm75.9-.09c3.21-1.28,7-1.12,8.52.35s-1.15,2.51-5.84,2.32C1063.39,1104.9,1062.34,1103.85,1065.89,1102.44Z" transform="translate(-7.37 -25.74)"/><path id="path2660" class="cls-1" d="M976.93,1102.44c3.21-1.28,7-1.12,8.52.35s-1.15,2.51-5.83,2.32C974.43,1104.9,973.38,1103.85,976.93,1102.44Z" transform="translate(-7.37 -25.74)"/><path id="path2658" class="cls-1" d="M1088.13,1102.44c3.21-1.28,7-1.12,8.52.35s-1.15,2.51-5.84,2.32C1085.63,1104.9,1084.58,1103.85,1088.13,1102.44Z" transform="translate(-7.37 -25.74)"/><path id="path2656" class="cls-1" d="M747.42,1118.16c-20.17-5.78-14.5-11.34,18.08-17.72,20.68-4,30.42-8.55,38.66-17.88,13.07-14.82,19.06-15.42,35.76-3.6l12.55,8.88,34.84-13.4C979,1039.18,1027,1032.78,1117,1043.8c38.25,4.69,55.44,4.81,84.51.62,51.93-7.5,123.64-25.46,158.17-39.61,26.15-10.72,34.57-12,72.93-11.19l43.37.93,8.39-16.41c13.59-26.56,25.86-71.06,33.85-122.8,4.26-27.61,12.08-58.25,18.2-71.34,5.9-12.61,10.72-25,10.72-27.64s4-8.64,8.82-13.46c7-7,11.09-7.91,19.93-4.56,12.83,4.85,17.42-.71,22.42-27.19,2.9-15.39,2.39-16.23-12.88-21.24-19.39-6.36-32.63-22.21-36.53-43.72-4.21-23.25-5.5-24-17.58-10.58l-10.89,12.13-8.88-10.44c-9.92-11.66-12.49-52-4.28-67.24,6.51-12.1,27.07-11,39.41,2l10,10.57,20-11.1c34.19-19,72.4-10.12,96.91,22.53,7.44,9.9,9.11,18.81,9.17,48.79,0,24.37,2.11,39.12,6.14,43.95,5.16,6.19,5,7.65-.84,9.89-3.8,1.45-8.18,8.42-9.74,15.48s-4.69,14-7,15.37-4.1,6.39-4.1,11.11c0,11.49-8.8,10.82-28-2.15l-15.91-10.73-2.35,11.84c-8.06,40.53-7.79,47,4.11,97.7,13.9,59.27,13,68.39-8.58,92.25-25.19,27.78-40.53,68-46.88,122.79-3.09,26.66-5.53,50.46-5.42,52.89s10.48,6.73,23,9.55c32.13,7.21,32.44,10.35,1,10.35-36.72,0-41-2.23-41.58-21.48-.24-8.86-1.75-20.56-3.34-26-2.76-9.43-3.77-9-22,9.42-31,31.33-53.32,35.87-174.39,35.46-68-.23-117.86-2.76-155.54-7.89-112-15.25-271-13.39-358.2,4.19C798.19,1123.93,769.06,1124.37,747.42,1118.16Z" transform="translate(-7.37 -25.74)"/></g></svg>