<svg xmlns="http://www.w3.org/2000/svg" width="1124" height="483" viewBox="0 0 1124 483">
  <g id="Group_104" data-name="Group 104" transform="translate(3456 -613)">
    <rect id="Rectangle_644" data-name="Rectangle 644" width="1124" height="483" transform="translate(-3456 613)" fill="#f1f1f1"/>
    <text id="Typography" transform="translate(-3433 666)" font-size="35" font-family="Roboto-Medium, Roboto" font-weight="500"><tspan x="0" y="0">Typography</tspan></text>
    <text id="Buttons_All_caps_Roboto_Medium_18px_" data-name="Buttons          All caps                     Roboto         Medium       18px      " transform="translate(-3416 741)" font-size="25" font-family="Roboto-Light, Roboto" font-weight="300"><tspan x="0" y="0" xml:space="preserve">Buttons          All caps                     Roboto         Medium       18px      </tspan></text>
    <text id="H1_All_caps_Roboto_Medium_18px_" data-name="H1                  All caps                      Roboto         Medium       18px      " transform="translate(-3416 808)" font-size="25" font-family="Roboto-Light, Roboto" font-weight="300"><tspan x="0" y="0" xml:space="preserve">H1                  All caps                      Roboto         Medium       18px      </tspan></text>
    <g id="Group_92" data-name="Group 92" transform="translate(1416 38)">
      <g id="Ellipse_80" data-name="Ellipse 80" transform="translate(-4065 672)" fill="#fff" stroke="#707070" stroke-width="1">
        <ellipse cx="22" cy="21.5" rx="22" ry="21.5" stroke="none"/>
        <ellipse cx="22" cy="21.5" rx="21.5" ry="21" fill="none"/>
      </g>
      <rect id="Rectangle_648" data-name="Rectangle 648" width="110" height="43" transform="translate(-3999 672)" fill="#fff"/>
      <text id="_FFFFFF" data-name="#FFFFFF" transform="translate(-3988 701)" font-size="25" font-family="Roboto-Light, Roboto" font-weight="300"><tspan x="0" y="0">#FFFFFF</tspan></text>
    </g>
    <g id="Group_93" data-name="Group 93" transform="translate(1416 100)">
      <g id="Ellipse_80-2" data-name="Ellipse 80" transform="translate(-4065 672)" fill="#9c0538" stroke="#707070" stroke-width="1">
        <ellipse cx="22" cy="21.5" rx="22" ry="21.5" stroke="none"/>
        <ellipse cx="22" cy="21.5" rx="21.5" ry="21" fill="none"/>
      </g>
      <rect id="Rectangle_648-2" data-name="Rectangle 648" width="122" height="43" transform="translate(-3999 672)" fill="#fff"/>
      <text id="_9C0538" data-name="#9C0538" transform="translate(-3988 701)" font-size="25" font-family="Roboto-Light, Roboto" font-weight="300"><tspan x="0" y="0">#9C0538</tspan></text>
    </g>
    <text id="H2_Arial_Rounded_MT_Bold_24px_" data-name="H2                                          Arial Rounded MT  Bold              24px      " transform="translate(-3416 881)" font-size="25" font-family="Roboto-Light, Roboto" font-weight="300"><tspan x="0" y="0" xml:space="preserve">H2                                          Arial Rounded MT  Bold              24px      </tspan></text>
    <g id="Group_96" data-name="Group 96" transform="translate(1416 178)">
      <g id="Path_3636" data-name="Path 3636" transform="translate(-4065 672)" fill="#442158">
        <path d="M 22 42.5 C 19.09589004516602 42.5 16.27901077270508 41.94430160522461 13.627610206604 40.84833908081055 C 11.06713962554932 39.78997039794922 8.76768970489502 38.2748908996582 6.79311990737915 36.34519958496094 C 4.819349765777588 34.41629028320313 3.269870042800903 32.17049026489258 2.187740087509155 29.67016983032227 C 1.067839980125427 27.08260917663574 0.5 24.33375930786133 0.5 21.5 C 0.5 18.66624069213867 1.067839980125427 15.91738986968994 2.187740087509155 13.32983016967773 C 3.269870042800903 10.82950973510742 4.819349765777588 8.583709716796875 6.79311990737915 6.654799938201904 C 8.76768970489502 4.725110054016113 11.06713962554932 3.210030078887939 13.627610206604 2.151659965515137 C 16.27901077270508 1.055699944496155 19.09589004516602 0.5 22 0.5 C 24.90411949157715 0.5 27.72100067138672 1.055699944496155 30.37239074707031 2.151659965515137 C 32.932861328125 3.210030078887939 35.23231887817383 4.725110054016113 37.20687866210938 6.654799938201904 C 39.18064880371094 8.583709716796875 40.73012924194336 10.82950973510742 41.81225967407227 13.32983016967773 C 42.93215942382813 15.91738986968994 43.5 18.66624069213867 43.5 21.5 C 43.5 24.33375930786133 42.93215942382813 27.08260917663574 41.81225967407227 29.67016983032227 C 40.73012924194336 32.17049026489258 39.18064880371094 34.41629028320313 37.20687866210938 36.34519958496094 C 35.23231887817383 38.2748908996582 32.932861328125 39.78997039794922 30.37239074707031 40.84833908081055 C 27.72100067138672 41.94430160522461 24.90411949157715 42.5 22 42.5 Z" stroke="none"/>
        <path d="M 22 1 C 19.16175079345703 1 16.40913009643555 1.542938232421875 13.8186092376709 2.613739013671875 C 11.31742095947266 3.647609710693359 9.071281433105469 5.127529144287109 7.142578125 7.01239013671875 C 5.215488433837891 8.89569091796875 3.70281982421875 11.08799934387207 2.646598815917969 13.5284309387207 C 1.554000854492188 16.05293083190918 1 18.73494911193848 1 21.5 C 1 24.26505088806152 1.554000854492188 26.94706916809082 2.646598815917969 29.4715690612793 C 3.70281982421875 31.9119987487793 5.215488433837891 34.10430908203125 7.142578125 35.98760986328125 C 9.071281433105469 37.87247085571289 11.31742095947266 39.35239028930664 13.8186092376709 40.38626098632813 C 16.40913009643555 41.45706176757813 19.16175079345703 42 22 42 C 24.83824920654297 42 27.59086036682129 41.45706176757813 30.18138885498047 40.38626098632813 C 32.68257904052734 39.35239028930664 34.92871856689453 37.87247085571289 36.8574104309082 35.98760986328125 C 38.78451156616211 34.10430908203125 40.29718017578125 31.9119987487793 41.35340118408203 29.4715690612793 C 42.44599914550781 26.94706916809082 43 24.26505088806152 43 21.5 C 43 18.73494911193848 42.44599914550781 16.05293083190918 41.35340118408203 13.5284309387207 C 40.29718017578125 11.08799934387207 38.78451156616211 8.89569091796875 36.8574104309082 7.01239013671875 C 34.92871856689453 5.127529144287109 32.68257904052734 3.647609710693359 30.18138885498047 2.613739013671875 C 27.59086036682129 1.542938232421875 24.83824920654297 1 22 1 M 22 0 C 34.15026092529297 0 44 9.625881195068359 44 21.5 C 44 33.37411880493164 34.15026092529297 43 22 43 C 9.8497314453125 43 0 33.37411880493164 0 21.5 C 0 9.625881195068359 9.8497314453125 0 22 0 Z" stroke="none" fill="#707070"/>
      </g>
      <rect id="Rectangle_648-3" data-name="Rectangle 648" width="122" height="43" transform="translate(-3999 672)" fill="#fff"/>
      <text id="_442158" data-name="#442158" transform="translate(-3988 701)" font-size="25" font-family="Roboto-Light, Roboto" font-weight="300"><tspan x="0" y="0">#442158</tspan></text>
    </g>
    <text id="p_Roboto_Light_14px_" data-name="p                                                         Roboto         Light             14px      " transform="translate(-3416 948)" font-size="25" font-family="Roboto-Light, Roboto" font-weight="300"><tspan x="0" y="0" xml:space="preserve">p                                                         Roboto         Light             14px      </tspan></text>
    <g id="Group_97" data-name="Group 97" transform="translate(1416 240)">
      <g id="Path_3636-2" data-name="Path 3636" transform="translate(-4065 672)">
        <path d="M 22 42.5 C 19.09589004516602 42.5 16.27901077270508 41.94430160522461 13.627610206604 40.84833908081055 C 11.06713962554932 39.78997039794922 8.76768970489502 38.2748908996582 6.79311990737915 36.34519958496094 C 4.819349765777588 34.41629028320313 3.269870042800903 32.17049026489258 2.187740087509155 29.67016983032227 C 1.067839980125427 27.08260917663574 0.5 24.33375930786133 0.5 21.5 C 0.5 18.66624069213867 1.067839980125427 15.91738986968994 2.187740087509155 13.32983016967773 C 3.269870042800903 10.82950973510742 4.819349765777588 8.583709716796875 6.79311990737915 6.654799938201904 C 8.76768970489502 4.725110054016113 11.06713962554932 3.210030078887939 13.627610206604 2.151659965515137 C 16.27901077270508 1.055699944496155 19.09589004516602 0.5 22 0.5 C 24.90411949157715 0.5 27.72100067138672 1.055699944496155 30.37239074707031 2.151659965515137 C 32.932861328125 3.210030078887939 35.23231887817383 4.725110054016113 37.20687866210938 6.654799938201904 C 39.18064880371094 8.583709716796875 40.73012924194336 10.82950973510742 41.81225967407227 13.32983016967773 C 42.93215942382813 15.91738986968994 43.5 18.66624069213867 43.5 21.5 C 43.5 24.33375930786133 42.93215942382813 27.08260917663574 41.81225967407227 29.67016983032227 C 40.73012924194336 32.17049026489258 39.18064880371094 34.41629028320313 37.20687866210938 36.34519958496094 C 35.23231887817383 38.2748908996582 32.932861328125 39.78997039794922 30.37239074707031 40.84833908081055 C 27.72100067138672 41.94430160522461 24.90411949157715 42.5 22 42.5 Z" stroke="none"/>
        <path d="M 22 1 C 19.16175079345703 1 16.40913009643555 1.542938232421875 13.8186092376709 2.613739013671875 C 11.31742095947266 3.647609710693359 9.071281433105469 5.127529144287109 7.142578125 7.01239013671875 C 5.215488433837891 8.89569091796875 3.70281982421875 11.08799934387207 2.646598815917969 13.5284309387207 C 1.554000854492188 16.05293083190918 1 18.73494911193848 1 21.5 C 1 24.26505088806152 1.554000854492188 26.94706916809082 2.646598815917969 29.4715690612793 C 3.70281982421875 31.9119987487793 5.215488433837891 34.10430908203125 7.142578125 35.98760986328125 C 9.071281433105469 37.87247085571289 11.31742095947266 39.35239028930664 13.8186092376709 40.38626098632813 C 16.40913009643555 41.45706176757813 19.16175079345703 42 22 42 C 24.83824920654297 42 27.59086036682129 41.45706176757813 30.18138885498047 40.38626098632813 C 32.68257904052734 39.35239028930664 34.92871856689453 37.87247085571289 36.8574104309082 35.98760986328125 C 38.78451156616211 34.10430908203125 40.29718017578125 31.9119987487793 41.35340118408203 29.4715690612793 C 42.44599914550781 26.94706916809082 43 24.26505088806152 43 21.5 C 43 18.73494911193848 42.44599914550781 16.05293083190918 41.35340118408203 13.5284309387207 C 40.29718017578125 11.08799934387207 38.78451156616211 8.89569091796875 36.8574104309082 7.01239013671875 C 34.92871856689453 5.127529144287109 32.68257904052734 3.647609710693359 30.18138885498047 2.613739013671875 C 27.59086036682129 1.542938232421875 24.83824920654297 1 22 1 M 22 0 C 34.15026092529297 0 44 9.625881195068359 44 21.5 C 44 33.37411880493164 34.15026092529297 43 22 43 C 9.8497314453125 43 0 33.37411880493164 0 21.5 C 0 9.625881195068359 9.8497314453125 0 22 0 Z" stroke="none" fill="#707070"/>
      </g>
      <rect id="Rectangle_648-4" data-name="Rectangle 648" width="122" height="43" transform="translate(-3999 672)" fill="#fff"/>
      <text id="_000000" data-name="#000000" transform="translate(-3988 701)" font-size="25" font-family="Roboto-Light, Roboto" font-weight="300"><tspan x="0" y="0">#000000</tspan></text>
    </g>
    <text id="p_Roboto_Medium_12px_" data-name="p                                                         Roboto        Medium         12px      " transform="translate(-3416 1015)" font-size="25" font-family="Roboto-Light, Roboto" font-weight="300"><tspan x="0" y="0" xml:space="preserve">p                                                         Roboto        Medium         12px      </tspan></text>
    <g id="Group_98" data-name="Group 98" transform="translate(1416 318)">
      <g id="Path_3636-3" data-name="Path 3636" transform="translate(-4065 672)">
        <path d="M 22 42.5 C 19.09589004516602 42.5 16.27901077270508 41.94430160522461 13.627610206604 40.84833908081055 C 11.06713962554932 39.78997039794922 8.76768970489502 38.2748908996582 6.79311990737915 36.34519958496094 C 4.819349765777588 34.41629028320313 3.269870042800903 32.17049026489258 2.187740087509155 29.67016983032227 C 1.067839980125427 27.08260917663574 0.5 24.33375930786133 0.5 21.5 C 0.5 18.66624069213867 1.067839980125427 15.91738986968994 2.187740087509155 13.32983016967773 C 3.269870042800903 10.82950973510742 4.819349765777588 8.583709716796875 6.79311990737915 6.654799938201904 C 8.76768970489502 4.725110054016113 11.06713962554932 3.210030078887939 13.627610206604 2.151659965515137 C 16.27901077270508 1.055699944496155 19.09589004516602 0.5 22 0.5 C 24.90411949157715 0.5 27.72100067138672 1.055699944496155 30.37239074707031 2.151659965515137 C 32.932861328125 3.210030078887939 35.23231887817383 4.725110054016113 37.20687866210938 6.654799938201904 C 39.18064880371094 8.583709716796875 40.73012924194336 10.82950973510742 41.81225967407227 13.32983016967773 C 42.93215942382813 15.91738986968994 43.5 18.66624069213867 43.5 21.5 C 43.5 24.33375930786133 42.93215942382813 27.08260917663574 41.81225967407227 29.67016983032227 C 40.73012924194336 32.17049026489258 39.18064880371094 34.41629028320313 37.20687866210938 36.34519958496094 C 35.23231887817383 38.2748908996582 32.932861328125 39.78997039794922 30.37239074707031 40.84833908081055 C 27.72100067138672 41.94430160522461 24.90411949157715 42.5 22 42.5 Z" stroke="none"/>
        <path d="M 22 1 C 19.16175079345703 1 16.40913009643555 1.542938232421875 13.8186092376709 2.613739013671875 C 11.31742095947266 3.647609710693359 9.071281433105469 5.127529144287109 7.142578125 7.01239013671875 C 5.215488433837891 8.89569091796875 3.70281982421875 11.08799934387207 2.646598815917969 13.5284309387207 C 1.554000854492188 16.05293083190918 1 18.73494911193848 1 21.5 C 1 24.26505088806152 1.554000854492188 26.94706916809082 2.646598815917969 29.4715690612793 C 3.70281982421875 31.9119987487793 5.215488433837891 34.10430908203125 7.142578125 35.98760986328125 C 9.071281433105469 37.87247085571289 11.31742095947266 39.35239028930664 13.8186092376709 40.38626098632813 C 16.40913009643555 41.45706176757813 19.16175079345703 42 22 42 C 24.83824920654297 42 27.59086036682129 41.45706176757813 30.18138885498047 40.38626098632813 C 32.68257904052734 39.35239028930664 34.92871856689453 37.87247085571289 36.8574104309082 35.98760986328125 C 38.78451156616211 34.10430908203125 40.29718017578125 31.9119987487793 41.35340118408203 29.4715690612793 C 42.44599914550781 26.94706916809082 43 24.26505088806152 43 21.5 C 43 18.73494911193848 42.44599914550781 16.05293083190918 41.35340118408203 13.5284309387207 C 40.29718017578125 11.08799934387207 38.78451156616211 8.89569091796875 36.8574104309082 7.01239013671875 C 34.92871856689453 5.127529144287109 32.68257904052734 3.647609710693359 30.18138885498047 2.613739013671875 C 27.59086036682129 1.542938232421875 24.83824920654297 1 22 1 M 22 0 C 34.15026092529297 0 44 9.625881195068359 44 21.5 C 44 33.37411880493164 34.15026092529297 43 22 43 C 9.8497314453125 43 0 33.37411880493164 0 21.5 C 0 9.625881195068359 9.8497314453125 0 22 0 Z" stroke="none" fill="#707070"/>
      </g>
      <rect id="Rectangle_648-5" data-name="Rectangle 648" width="122" height="43" transform="translate(-3999 672)" fill="#fff"/>
      <text id="_000000-2" data-name="#000000" transform="translate(-3988 701)" font-size="25" font-family="Roboto-Light, Roboto" font-weight="300"><tspan x="0" y="0">#000000</tspan></text>
    </g>
  </g>
</svg>
