<?xml version="1.0" standalone="no"?>
<!DOCTYPE svg PUBLIC "-//W3C//DTD SVG 20010904//EN"
 "http://www.w3.org/TR/2001/REC-SVG-20010904/DTD/svg10.dtd">
<svg version="1.0" xmlns="http://www.w3.org/2000/svg"
 width="394.000000pt" height="394.000000pt" viewBox="0 0 394.000000 394.000000"
 preserveAspectRatio="xMidYMid meet">
<metadata>
Created by potrace 1.11, written by Peter Selinger 2001-2013
</metadata>
<g transform="translate(0.000000,394.000000) scale(0.100000,-0.100000)"
fill="#000000" stroke="none">
<path d="M0 1970 l0 -1130 1970 0 1970 0 0 1130 0 1130 -1970 0 -1970 0 0
-1130z m1371 816 c-6 -15 -6 -37 0 -59 12 -46 65 -117 87 -118 9 0 27 -2 39
-3 13 -2 21 -1 18 2 -2 2 2 11 10 19 17 17 20 49 5 58 -6 3 -14 -5 -20 -20
-14 -36 -38 -21 -73 43 -34 62 -36 97 -6 89 12 -3 30 -1 40 6 23 15 30 7 59
-66 34 -87 80 -107 125 -56 18 19 18 22 2 71 -9 29 -15 54 -12 56 11 11 25
-13 31 -56 8 -56 18 -72 44 -65 17 5 19 11 14 44 -6 33 -3 42 17 58 30 24 63
21 67 -6 9 -62 95 -83 120 -30 18 38 5 48 -20 17 -19 -24 -20 -24 -34 -5 -25
33 -17 41 42 44 51 2 56 0 50 -16 -4 -10 -10 -30 -13 -45 -9 -45 22 -35 36 12
17 56 45 55 57 -2 8 -38 12 -43 39 -45 17 -1 40 -5 51 -8 19 -6 23 -1 31 32
l10 38 21 -47 c12 -27 25 -48 30 -48 11 0 23 38 13 42 -3 2 -14 19 -23 40 -15
32 -15 37 -2 42 17 6 74 8 74 3 0 -2 -9 -30 -20 -62 -20 -58 -17 -74 15 -75 6
0 5 -4 -2 -8 -6 -4 9 -8 33 -9 32 -1 44 2 44 13 0 8 -5 14 -11 14 -5 0 -8 4
-5 9 4 5 -3 7 -14 4 -22 -6 -27 11 -11 36 8 12 15 13 35 3 19 -8 27 -8 32 0 4
7 3 8 -4 4 -7 -4 -12 -1 -12 9 0 8 -9 19 -20 23 -30 11 -9 33 38 38 l40 5 4
-67 c3 -69 -7 -107 -18 -66 -8 28 -28 24 -32 -7 -8 -54 55 -67 91 -20 17 24
18 33 9 85 -7 43 -7 61 2 66 6 4 12 1 14 -7 4 -19 28 -19 36 0 4 12 29 15 131
15 l125 0 0 -850 0 -850 -179 0 c-99 0 -186 3 -195 6 -13 5 -16 24 -16 101 0
71 -3 94 -12 91 -8 -3 -15 -30 -18 -69 l-5 -64 -34 43 c-33 40 -63 53 -76 32
-4 -6 11 -32 32 -58 68 -83 66 -77 18 -78 l-43 -2 -6 42 c-3 22 -7 46 -8 53
-1 7 -5 10 -9 7 -4 -2 -10 0 -14 6 -7 11 -48 13 -83 3 -21 -5 -23 -10 -17 -42
3 -20 8 -44 11 -53 4 -14 -2 -16 -33 -15 -38 2 -51 14 -52 50 -1 12 7 17 29
17 24 0 30 4 30 21 0 17 -4 20 -22 15 -13 -3 -38 -6 -57 -6 l-33 0 4 -45 c2
-25 1 -46 -2 -47 -3 0 -17 -2 -32 -3 -24 -2 -25 0 -16 21 6 13 15 21 19 18 5
-3 6 3 2 12 -4 10 -2 15 3 11 5 -3 10 3 10 13 0 11 -9 20 -23 23 -12 2 -20 0
-17 -4 5 -9 -32 -89 -42 -89 -3 0 -4 19 -2 43 3 39 1 42 -22 42 -23 0 -25 -4
-28 -48 -3 -43 -5 -48 -25 -45 -19 3 -23 11 -27 58 -4 47 -8 55 -27 58 -17 3
-26 -5 -37 -33 -10 -23 -20 -34 -27 -29 -8 4 -9 3 -5 -4 13 -22 -11 -48 -47
-50 -20 -1 -38 2 -42 8 -3 5 -2 10 4 10 14 0 41 54 41 81 0 26 -36 69 -57 69
-8 0 -12 4 -9 9 4 5 -2 7 -13 4 -12 -3 -30 -33 -53 -91 l-34 -87 -177 -3 -177
-3 0 845 c0 796 1 845 18 849 9 2 61 4 114 6 l98 2 -9 -25z m254 -26 c9 -27
14 -54 10 -60 -15 -24 -34 -6 -53 50 l-21 60 24 0 c19 0 26 -9 40 -50z m508
18 c-8 -43 -23 -60 -23 -26 0 15 -3 33 -6 42 -4 11 0 16 15 16 18 0 20 -4 14
-32z m-1306 -743 c0 -8 -4 -12 -9 -9 -5 3 -6 10 -3 15 9 13 12 11 12 -6z
m2286 -120 c-3 -9 -8 -14 -10 -11 -3 3 -2 9 2 15 9 16 15 13 8 -4z m-1498
-724 c-15 -30 -35 -49 -35 -34 0 4 7 27 17 51 13 34 18 40 25 28 6 -10 3 -26
-7 -45z m595 -11 c6 -12 10 -33 8 -48 l-4 -27 -11 25 c-20 48 -25 70 -14 70 6
0 15 -9 21 -20z m-454 -67 c-10 -10 -19 5 -10 18 6 11 8 11 12 0 2 -7 1 -15
-2 -18z m379 -53 c3 -5 1 -10 -4 -10 -6 0 -11 5 -11 10 0 6 2 10 4 10 3 0 8
-4 11 -10z"/>
<path d="M1978 2658 c-20 -16 -32 -111 -18 -137 11 -22 38 -18 97 12 35 18 43
34 43 82 0 30 -3 33 -44 44 -56 14 -59 14 -78 -1z"/>
<path d="M2226 2501 c-15 -28 -23 -57 -19 -70 5 -18 13 -21 59 -21 40 0 59 5
73 19 11 11 21 18 23 16 2 -2 4 12 5 30 3 42 -33 75 -83 75 -30 0 -36 -5 -58
-49z"/>
<path d="M1575 2511 c-4 -7 5 -21 19 -32 15 -11 23 -25 20 -31 -4 -6 -3 -8 3
-5 6 4 15 -5 21 -18 10 -21 9 -25 -4 -25 -9 0 -32 -16 -51 -35 -32 -32 -35
-39 -28 -73 4 -20 16 -47 27 -59 19 -20 19 -21 1 -27 -36 -12 -58 -57 -59
-121 -1 -33 2 -65 7 -70 5 -7 -5 -9 -30 -7 -29 3 -44 -2 -69 -23 -60 -50 -33
-138 55 -174 56 -23 67 -85 18 -97 -32 -8 -45 2 -45 36 0 61 -22 76 -55 40
-13 -14 -19 -38 -20 -76 -1 -31 1 -51 5 -45 4 8 12 5 25 -9 10 -11 33 -22 51
-26 19 -3 34 -10 34 -14 0 -4 23 -61 50 -127 67 -158 57 -153 292 -154 477 -1
462 -2 491 27 15 14 41 61 58 105 18 43 35 76 39 74 3 -2 6 4 6 13 1 9 7 38
15 64 12 43 11 49 -6 68 -10 11 -20 35 -22 53 -2 17 -8 46 -13 62 -9 26 -8 32
9 44 16 10 18 17 11 32 -8 15 -7 17 4 13 22 -8 73 22 92 55 10 17 21 28 25 25
4 -2 4 10 -2 28 -5 18 -9 35 -9 38 0 3 -16 -13 -34 -35 -40 -47 -53 -41 -62
25 -5 40 -3 46 18 55 31 13 32 50 1 49 -17 0 -23 5 -23 21 0 13 -7 29 -16 36
-14 11 -19 10 -35 -10 -11 -13 -19 -33 -19 -46 0 -13 -7 -26 -16 -29 -12 -4
-15 -16 -11 -44 2 -20 2 -29 0 -20 -2 9 -11 22 -19 29 -12 10 -12 13 3 25 16
12 16 15 3 24 -8 5 -25 10 -36 10 -20 0 -22 4 -18 57 3 43 -1 67 -17 100 -11
23 -25 43 -30 43 -6 0 -17 16 -25 35 -17 41 -29 45 -38 11 -8 -34 -50 -40 -67
-9 -7 13 -24 26 -38 30 -14 3 -47 26 -73 51 -41 39 -48 43 -48 25 0 -17 -6
-20 -42 -20 -31 0 -46 -6 -60 -23 -25 -30 -18 -46 19 -42 23 2 32 -2 41 -22
16 -36 -3 -56 -44 -45 -24 7 -33 16 -39 41 -4 18 -7 36 -6 40 0 5 -2 7 -7 6
-4 -1 -17 4 -30 11 -13 7 -42 11 -65 10 -35 -3 -42 0 -40 15 0 9 -2 15 -5 11
-3 -3 -22 11 -43 31 -24 23 -39 32 -44 25z m135 -251 c-11 -7 -7 -10 18 -10
17 0 49 -9 69 -20 46 -24 38 -25 -50 -4 -55 14 -65 19 -56 30 6 8 17 14 23 14
6 0 4 -5 -4 -10z m17 -96 c-3 -3 -12 -4 -19 -1 -8 3 -5 6 6 6 11 1 17 -2 13
-5z m60 0 c-3 -3 -12 -4 -19 -1 -8 3 -5 6 6 6 11 1 17 -2 13 -5z m510 -70 c-3
-3 -12 -4 -19 -1 -8 3 -5 6 6 6 11 1 17 -2 13 -5z m-37 -8 c0 -2 -7 -7 -16
-10 -8 -3 -12 -2 -9 4 6 10 25 14 25 6z m-63 -14 l23 -7 -20 -30 c-11 -16 -20
-25 -20 -19 0 5 5 15 12 22 18 18 3 25 -75 32 l-72 7 65 1 c36 0 75 -3 87 -6z
m177 -52 c4 -25 3 -31 -4 -20 -5 8 -10 26 -10 39 0 32 6 24 14 -19z m-267 24
c-3 -3 -12 -4 -19 -1 -8 3 -5 6 6 6 11 1 17 -2 13 -5z m-38 -7 c-2 -1 -13 -9
-24 -17 -19 -14 -19 -14 -6 3 7 9 18 17 24 17 6 0 8 -1 6 -3z m72 -14 c13 -16
12 -17 -3 -4 -17 13 -22 21 -14 21 2 0 10 -8 17 -17z m178 -43 c-13 -11 -33
-25 -44 -31 -11 -7 -2 4 20 24 22 19 42 33 44 31 2 -2 -7 -13 -20 -24z m-373
-2 l19 -23 -25 20 c-14 11 -27 21 -29 22 -2 2 0 3 6 3 5 0 18 -10 29 -22z m62
2 c-7 -10 -14 -17 -17 -15 -4 4 18 35 25 35 2 0 -1 -9 -8 -20z m169 -2 c-3 -8
-6 -5 -6 6 -1 11 2 17 5 13 3 -3 4 -12 1 -19z m-302 -8 c-14 -15 -16 -28 -10
-57 10 -54 9 -81 -6 -99 -18 -22 -29 -4 -22 40 4 25 9 33 14 24 7 -10 9 -9 9
5 0 9 -4 17 -10 17 -5 0 -10 7 -10 15 0 7 -8 19 -17 24 -10 6 -13 11 -7 11 5
0 15 -5 22 -12 9 -9 12 -8 12 6 0 11 8 25 18 32 25 19 28 17 7 -6z m197 -22
c-9 -9 -12 -7 -12 12 0 19 3 21 12 12 9 -9 9 -15 0 -24z m53 -16 l-28 -27 24
31 c13 17 26 30 28 27 3 -2 -8 -16 -24 -31z m-548 -4 c-3 -7 -5 -2 -5 12 0 14
2 19 5 13 2 -7 2 -19 0 -25z m-60 7 c1 -5 -1 -17 -7 -25 -7 -12 -12 -12 -29 4
-11 10 -18 23 -15 28 7 12 46 6 51 -7z m176 -2 c3 -5 -8 -8 -23 -8 -15 0 -26
3 -23 8 2 4 13 7 23 7 10 0 21 -3 23 -7z m40 -37 c-3 -18 0 -44 8 -57 11 -21
11 -23 -3 -11 -13 10 -17 10 -21 0 -10 -24 -7 27 4 65 12 46 20 48 12 3z m221
-10 c-3 -15 -8 -25 -11 -23 -2 3 -1 17 3 31 3 15 8 25 11 23 2 -3 1 -17 -3
-31z m456 30 c0 -2 -7 -7 -16 -10 -8 -3 -12 -2 -9 4 6 10 25 14 25 6z m-848
-23 c-6 -3 -9 -10 -6 -15 4 -7 2 -8 -5 -4 -9 6 -9 11 0 22 6 8 15 12 18 8 3
-4 0 -9 -7 -11z m145 -5 c-3 -8 -6 -5 -6 6 -1 11 2 17 5 13 3 -3 4 -12 1 -19z
m463 18 c0 -2 -8 -10 -17 -17 -16 -13 -17 -12 -4 4 13 16 21 21 21 13z m200
-20 c0 -2 -8 -10 -17 -17 -16 -13 -17 -12 -4 4 13 16 21 21 21 13z m-270 -20
c-7 -7 -13 -7 -20 0 -6 6 -3 10 10 10 13 0 16 -4 10 -10z m-481 -49 c-2 -3
-15 10 -28 27 l-24 31 28 -27 c16 -15 27 -29 24 -31z m20 8 c0 -5 -4 -3 -9 5
-5 8 -9 22 -9 30 0 16 17 -16 18 -35z m557 16 c0 -11 -4 -17 -9 -14 -4 2 -16
-1 -25 -8 -9 -8 -6 -1 7 14 14 15 25 27 26 27 0 0 1 -9 1 -19z m129 9 c-3 -5
-14 -10 -23 -10 -15 0 -15 2 -2 10 20 13 33 13 25 0z m-580 -69 c-6 -5 -25 10
-25 20 0 5 6 4 14 -3 8 -7 12 -15 11 -17z m242 13 c0 -8 -10 -9 -30 -3 -16 5
-34 6 -40 2 -6 -3 -7 -2 -4 4 8 13 74 11 74 -3z m48 -2 c-3 -3 -11 0 -18 7 -9
10 -8 11 6 5 10 -3 15 -9 12 -12z m99 8 c-5 -5 -25 -12 -44 -15 -35 -5 -35 -5
5 9 51 18 51 18 39 6z m161 -10 c10 -11 16 -20 13 -20 -3 0 -13 9 -23 20 -10
11 -16 20 -13 20 3 0 13 -9 23 -20z m-668 -37 c-3 -10 -5 -2 -5 17 0 19 2 27
5 18 2 -10 2 -26 0 -35z m47 2 l17 -30 -20 24 c-12 13 -21 28 -21 34 0 12 0
11 24 -28z"/>
<path d="M1840 1819 c0 -5 5 -7 10 -4 6 3 10 8 10 11 0 2 -4 4 -10 4 -5 0 -10
-5 -10 -11z"/>
<path d="M1980 2492 c0 -5 15 -26 33 -47 33 -38 57 -41 57 -9 0 8 4 13 8 10 5
-3 6 8 4 25 -4 28 -7 29 -53 29 -27 0 -49 -4 -49 -8z"/>
<path d="M2220 2391 c0 -22 40 -91 53 -91 10 0 47 58 47 74 0 2 -15 6 -32 9
-18 3 -41 8 -50 12 -11 4 -18 3 -18 -4z"/>
</g>
</svg>
